<?xml version="1.0" encoding="utf-8"?>
<!-- Generator: Adobe Illustrator 25.4.1, SVG Export Plug-In . SVG Version: 6.00 Build 0)  -->
<svg version="1.1" xmlns="http://www.w3.org/2000/svg" xmlns:xlink="http://www.w3.org/1999/xlink" x="0px" y="0px"
	 viewBox="0 0 900 500" style="enable-background:new 0 0 900 500;" xml:space="preserve">
<style type="text/css">
	.st0{fill:#8C71A9;}
	.st1{fill:none;stroke:#FFE08A;stroke-miterlimit:10;}
	.st2{fill:#EF701B;}
	.st3{fill:#FDA635;}
	.st4{fill:#BFA4E0;}
	.st5{fill:#583D71;}
	.st6{fill:#684D84;}
	.st7{fill:#CBE3F8;}
	.st8{fill:#E1F1FF;}
	.st9{fill:none;stroke:#B72727;stroke-miterlimit:10;}
	.st10{fill:#A1C5EB;}
	.st11{fill:#B72727;}
	.st12{fill:#EA3D3D;}
	.st13{fill:#342447;}
	.st14{fill:#241933;}
	.st15{fill:#FAFDFF;}
</style>
<g id="BACKGROUND">
</g>
<g id="OBJECTS">
	<g>
		<g>
			<polygon class="st0" points="739.14,195.57 743.76,139.17 756.97,140.07 761.2,191.74 			"/>
			<polygon class="st0" points="745.31,150.56 747.58,90.14 752.31,90.14 755.03,149.79 			"/>
			<circle class="st0" cx="750.17" cy="86.4" r="5.31"/>
			<g>
				<path class="st0" d="M764.61,129.06"/>
				<g>
					<path class="st1" d="M764.61,129.06"/>
				</g>
			</g>
			<path class="st0" d="M762.89,136.75l1.61-7.69h-29.76l1.71,8.71l-1.61,0.06l0.53,3.55l28.49-0.53l0.75-4.17L762.89,136.75z
				 M761.81,136.79l-7.19,0.28l0.97-6.96h7.62L761.81,136.79z M744.28,137.47l-0.75-7.37h11.01l-0.98,7.01L744.28,137.47z
				 M736,130.1h6.48l0.75,7.41l-5.73,0.22L736,130.1z"/>
			<path class="st0" d="M758.76,111.93l1.11-5.29H739.4l1.18,5.99l-1.11,0.04l0.37,2.44l19.59-0.37l0.52-2.87L758.76,111.93z
				 M758.02,111.95l-4.94,0.19l0.67-4.79h5.24L758.02,111.95z M745.97,112.42l-0.51-5.07h7.57l-0.67,4.82L745.97,112.42z
				 M740.27,107.36h4.46l0.52,5.09l-3.94,0.15L740.27,107.36z"/>
		</g>
		<g>
			<polygon class="st2" points="552.87,183.51 548.8,242.07 589.54,233.45 588.87,171.58 			"/>
			<polygon class="st3" points="588.87,171.58 682.64,184.49 672.45,237.76 589.29,233.45 			"/>
		</g>
		<g>
			<g>
				<g>
					<g>
						<polygon class="st4" points="290.74,166.12 291.41,168.69 302.08,165.6 302.08,162.58 						"/>
						<polygon class="st5" points="291.41,168.69 311.05,172.3 317.54,169.65 302.08,165.6 						"/>
						<polygon class="st6" points="302.08,162.58 318.92,167.05 317.54,169.65 302.08,165.6 						"/>
					</g>
					<g>
						<polygon class="st6" points="303.23,167.66 303.67,179.41 310.44,180.44 310.87,169.97 						"/>
						<polygon class="st4" points="303.23,167.66 296.41,169.61 296.95,177.65 303.67,179.41 						"/>
					</g>
				</g>
				<g>
					<polygon class="st4" points="265.89,183.48 296.78,174.97 297.4,193.39 268.36,192.16 					"/>
					<polygon class="st6" points="296.78,174.97 326.44,181.83 325.94,197.18 295.93,193.06 					"/>
				</g>
			</g>
			<g>
				<g>
					<g>
						<polygon class="st4" points="250.46,204.05 253.41,168.1 260.47,168.1 264.3,204.05 						"/>
					</g>
					<g>
						<polygon class="st4" points="254.26,180.66 255.38,121.18 257.47,121.18 258.59,179.11 						"/>
					</g>
					<g>
						<polygon class="st4" points="279.42,201.95 256.23,127.83 236.5,194.31 235.9,194.13 256.21,125.66 280.02,201.76 						"/>
					</g>
				</g>
			</g>
			<g>
				<polygon class="st6" points="191.77,201.06 194.32,189.98 235.9,169.14 234.53,187.52 				"/>
				<polygon class="st5" points="235.9,169.14 336.08,188.8 332.19,210.83 234.53,187.52 				"/>
			</g>
			<polygon class="st4" points="204.47,194.51 205.63,211.32 233.38,212.92 229.27,185.24 			"/>
			<polygon class="st6" points="221.01,209.49 219.96,374.25 354.38,366.46 331.95,233.27 			"/>
			<polygon class="st4" points="221.01,209.49 219.96,374.25 150.51,376.3 176.64,228.03 			"/>
			<polygon class="st6" points="187.41,184.7 170.88,233.74 359.89,252.38 354.38,219.58 			"/>
			<polygon class="st5" points="354.38,218.71 187.41,184.7 182.42,196.13 182.42,196.13 183.79,195.62 355.27,224.88 			"/>
			<polygon class="st4" points="187.41,184.7 121.25,213.8 112.98,252.38 170.88,233.74 			"/>
			<polygon class="st5" points="112.98,252.38 170.88,255.32 221.01,238.31 170.88,233.74 			"/>
			<polygon class="st4" points="229.27,185.24 232.3,230.06 245.64,179.65 			"/>
			<polygon class="st6" points="232.3,230.06 331.92,242 341.83,201.35 245.64,179.65 			"/>
			<g>
				<path class="st7" d="M276.87,195.95l-7.33,29.48l-22.34-3.19l6.21-31.92L276.87,195.95z M310.34,203.98l-5.51,28.36l22.34,3.19
					l6.45-25.96L310.34,203.98z M283.29,197.49l-5.95,30.59l22.34,3.19l7-28.17L283.29,197.49z"/>
				<g>
					<polygon class="st8" points="306.69,203.11 294.36,200.15 281.3,207.77 278.76,220.79 306.49,203.92 					"/>
					<polygon class="st8" points="305.73,206.97 278.26,223.39 277.35,228.08 283.82,229.01 303.31,216.72 					"/>
					<polygon class="st8" points="269.54,225.43 272.69,212.79 254.66,223.3 					"/>
					<polygon class="st8" points="301.01,225.96 302.34,220.61 288.51,229.68 294.15,230.49 					"/>
					<polygon class="st8" points="323.04,207.03 307.81,217.02 306.82,222.12 327.9,208.2 					"/>
					<polygon class="st8" points="308.5,213.44 319.87,206.27 310.62,204.05 310.29,204.25 					"/>
				</g>
			</g>
			<path class="st5" d="M248.19,244.15l0.55,14.05l-10.2-0.73l1.65-15.33L248.19,244.15z M283.57,245.99l-0.51,13.09h8.48
				l-0.55-11.44L283.57,245.99z M317.58,247.78v13.09h6.89l-1.24-11.93L317.58,247.78z"/>
			<polygon class="st0" points="121.25,213.8 120.13,218.96 183.79,195.62 187.41,184.7 			"/>
		</g>
		<g>
			<g>
				<path class="st9" d="M307.54,268.66"/>
			</g>
		</g>
		<g>
			<polygon class="st2" points="118.11,336.91 122.58,373.81 154.37,373.81 155.19,326.2 			"/>
			<polygon class="st3" points="155.19,326.2 223.83,331.98 223.83,372.83 154.18,373.81 			"/>
		</g>
		<g>
			<polygon class="st10" points="158.88,325.29 158.88,364.98 190.91,357.87 191.64,315.83 			"/>
			<polygon class="st7" points="191.64,315.83 257.03,324.83 249.92,361.98 190.74,357.87 			"/>
		</g>
		<g>
			<g>
				<polygon class="st10" points="214.94,270.13 211.78,315.59 243.41,308.9 243.12,260.87 				"/>
				<polygon class="st7" points="243.12,260.87 315.69,270.89 307.77,312.25 243.22,308.9 				"/>
			</g>
			<g>
				<polygon class="st11" points="202.54,315.68 198.04,353.91 239.18,352.96 240.01,304.86 				"/>
				<polygon class="st12" points="240.01,304.86 309.35,310.7 309.35,351.97 238.98,352.96 				"/>
			</g>
		</g>
		<g>
			<polygon class="st2" points="264.86,307.92 269.34,344.82 301.13,344.82 301.95,297.21 			"/>
			<polygon class="st3" points="301.95,297.21 370.59,302.99 370.59,343.84 300.93,344.82 			"/>
		</g>
		<g>
			<polygon class="st11" points="265.43,264.09 270.74,307.83 300.73,300 301.76,253.66 			"/>
			<polygon class="st12" points="301.76,253.66 371.61,261.31 365.75,304.52 300.54,300 			"/>
		</g>
		<g>
			<polygon class="st10" points="331.47,248.33 325.93,298.74 365.93,290.28 365.36,237.94 			"/>
			<polygon class="st7" points="365.36,237.94 444.69,248.86 436.07,293.93 365.72,290.28 			"/>
		</g>
		<g>
			<polygon class="st10" points="447.39,170.04 441.11,223.57 486.51,214.58 485.87,159 			"/>
			<polygon class="st7" points="485.87,159 579.8,171.09 575.93,223.57 486.28,214.58 			"/>
		</g>
		<g>
			<polygon class="st11" points="321.4,297.67 316.49,339.32 361.32,338.29 362.22,285.88 			"/>
			<polygon class="st12" points="362.22,285.88 437.78,292.24 437.78,337.21 361.11,338.29 			"/>
		</g>
		<g>
			<polygon class="st2" points="384.17,233.86 380.18,291.23 420.09,282.78 419.44,222.16 			"/>
			<polygon class="st3" points="419.44,222.16 511.32,234.81 501.33,287.01 419.86,282.78 			"/>
		</g>
		<g>
			<polygon class="st10" points="378.34,288.57 372.66,336.82 424.58,335.62 425.63,274.91 			"/>
			<polygon class="st7" points="425.63,274.91 513.14,282.29 513.14,334.37 424.34,335.62 			"/>
		</g>
		<g>
			<polygon class="st11" points="437.78,221.89 438.67,280.52 482.17,269.16 483.51,208.76 			"/>
			<polygon class="st12" points="483.51,208.76 574.56,218.73 566.93,275.05 481.93,269.16 			"/>
		</g>
		<polygon class="st0" points="594.68,249.93 667.43,171.58 805.77,171.58 843.24,245.94 		"/>
		<g>
			<path class="st13" d="M107.47,357.09l15.31,61.73h625.35L851.51,251c-17.03-30.86-9.63-59.67-37.97-71.34
				c-105.91,7.36-244.87,35.71-358.94,71.62l-48.88,43.94c-8.89,7.99-20.4,13.45-32.98,15.64L107.47,357.09z"/>
			<path class="st14" d="M477.72,257.64c0,0,2.89,15.32-3.4,17.28c-6.3,1.96-4.77-15.4-4.77-15.4L477.72,257.64z M337.5,323.78
				c0,0-1.53,17.36,4.77,15.4c6.3-1.96,3.4-17.28,3.4-17.28L337.5,323.78z M224.92,343.36c0,0-1.34,15.13,4.15,13.43
				c5.49-1.71,2.97-15.06,2.97-15.06L224.92,343.36z M137.73,359.52c0,0-0.98,11.1,3.05,9.85c4.03-1.25,2.18-11.05,2.18-11.05
				L137.73,359.52z M576.69,230.39c0,0-1.53,17.36,4.77,15.4c6.3-1.96,3.4-17.28,3.4-17.28L576.69,230.39z M696.71,206.54
				c0,0-1.53,17.36,4.77,15.4c6.3-1.96,3.4-17.28,3.4-17.28L696.71,206.54z"/>
			<path class="st14" d="M813.54,179.65l-65.41,239.17L851.51,251C851.51,219.76,841.88,191.33,813.54,179.65z"/>
			<polygon class="st11" points="122.79,418.82 118.11,428.93 755.16,428.93 748.14,418.82 			"/>
			<path class="st14" d="M795.23,247.73c-11.98-7.26-73.1,8.45-165.61,32.24c-128.24,32.98-318.91,82.01-515.34,104.58l0.52,2.11
				c196.48-22.61,387.12-71.63,515.36-104.6c88.67-22.8,152.75-39.28,163.95-32.49c17.36,10.52,29.44,22.29,37.82,33.2l1.2-1.95
				C824.63,269.9,812.5,258.2,795.23,247.73z"/>
			<path class="st14" d="M561.96,347.14c-45.14,19.75-88.96,44.03-137.18,54.18c-85.07,17.9-173.37-10.1-259.98-2.69
				c-15.16,1.3-30.59,3.85-44.74,9.21l2.72,10.98h625.35l35.64-57.87c-21.47-20.86-49.18-35.35-78.67-40.59
				C656.6,311.75,607.1,327.39,561.96,347.14z"/>
		</g>
	</g>
	<path class="st15" d="M380.18,111.83c0,0,11.76-24.45,31.36-15.56c0,0,7.71-14.12,30.57-3.53c0,0-26.06-0.98-27.7,17.36
		C414.4,110.11,402.02,94.36,380.18,111.83z M113.41,307.15c1.3-8.46,20.06-11.57,20.06-11.57c-15.31-5.09-21.53,3.26-21.53,3.26
		c-10.18-5.41-19.44,2.36-19.44,2.36C106.37,297.99,113.41,307.15,113.41,307.15z M698.6,86.83c22.31-17.78,26.4,5.16,26.4,5.16
		c-1.42-30.61-24.86-11.93-24.86-11.93c-5.27-17.04-24.25,0.84-24.25,0.84C694.14,73.97,698.6,86.83,698.6,86.83z M473.13,138.34
		c15.27-15.27,20.3,1.64,20.3,1.64c-3.67-22.91-19.72-6.86-19.72-6.86c-5.41-12.37-18.17,2.69-18.17,2.69
		C468.68,129.04,473.13,138.34,473.13,138.34z M50.49,251.42c7.86-1.79,12.23,10.39,12.23,10.39s3.14-13.49,8.69-15.35
		c5.55-1.85,11.25,9.62,11.25,9.62S79.4,241,70.71,242.06c-8.69,1.05-9.28,12.66-9.37,12.92c-0.09,0.26-2.43-8.18-9.71-8.18
		c-7.28,0-10.3,12.36-10.3,12.36S42.63,253.21,50.49,251.42z"/>
</g>
</svg>
