<?xml version="1.0" encoding="utf-8"?>
<!-- Generator: Adobe Illustrator 25.4.1, SVG Export Plug-In . SVG Version: 6.00 Build 0)  -->
<svg version="1.1" xmlns="http://www.w3.org/2000/svg" xmlns:xlink="http://www.w3.org/1999/xlink" x="0px" y="0px"
	 viewBox="0 0 750 500" style="enable-background:new 0 0 750 500;" xml:space="preserve">
<style type="text/css">
	.st0{fill:#92E3A9;}
	.st1{opacity:0.8;fill:#FFFFFF;}
	.st2{fill:none;stroke:#263238;stroke-linecap:round;stroke-linejoin:round;stroke-miterlimit:10;}
	.st3{opacity:0.16;}
	.st4{fill:#8C8C8C;}
	.st5{opacity:0.5;fill:#FFFFFF;}
	.st6{opacity:0.55;fill:#FFFFFF;}
	.st7{opacity:0.48;fill:#FFFFFF;}
	.st8{fill:#FFFFFF;stroke:#263238;stroke-linecap:round;stroke-linejoin:round;stroke-miterlimit:10;}
	.st9{opacity:0.12;}
	.st10{fill:none;stroke:#263238;stroke-width:0.75;stroke-linecap:round;stroke-linejoin:round;stroke-miterlimit:10;}
	.st11{fill:#92E3A9;stroke:#263238;stroke-width:0.75;stroke-linecap:round;stroke-linejoin:round;stroke-miterlimit:10;}
	.st12{fill:#FFFFFF;stroke:#263238;stroke-width:0.75;stroke-linecap:round;stroke-linejoin:round;stroke-miterlimit:10;}
	.st13{fill:#263238;}
	.st14{fill:#FFFFFF;}
	.st15{fill:#92E3A9;stroke:#263238;stroke-linecap:round;stroke-linejoin:round;stroke-miterlimit:10;}
	.st16{fill:#A6A6A6;stroke:#263238;stroke-linecap:round;stroke-linejoin:round;stroke-miterlimit:10;}
	.st17{fill:#263238;stroke:#263238;stroke-linecap:round;stroke-linejoin:round;stroke-miterlimit:10;}
	.st18{fill:#A1A1A1;stroke:#263238;stroke-linecap:round;stroke-linejoin:round;stroke-miterlimit:10;}
	.st19{fill:none;stroke:#FFFFFF;stroke-linecap:round;stroke-linejoin:round;stroke-miterlimit:10;}
	.st20{fill:none;stroke:#263238;stroke-width:2;stroke-linecap:round;stroke-linejoin:round;stroke-miterlimit:10;}
</style>
<g id="Background_Simple">
	<g>
		<path class="st0" d="M616.5,86.17c-47.9-28.21-102.22-39.89-156.58-47.23c-52.5-7.08-106.38-3.38-157.53,10.33
			c-22.39,6-44.27,13.93-65.28,23.71c-19.69,9.17-38.7,25.59-60.15,29.84c7.18-10.03,14.37-20.06,21.55-30.09
			c4.14-5.78,8.22-14.08,3.43-19.34c-1.95-2.14-4.93-3.04-7.79-3.46c-11.09-1.63-22.22,2.39-32.28,7.33
			c-46.35,22.78-84.2,65.26-112.98,107.29C1.38,233.92,6.66,347.75,60.93,403.53c54.28,55.78,170.36,82.92,218.61,76.89
			c36.62-4.58-2.84-26.34-10.94-39.54c-0.71-1.15-1.37-2.42-1.31-3.77c0.1-2.31,2.21-3.97,4.2-5.13
			c16.73-9.72,38.12-6.87,56.64-8.32c29.46-2.32,59.16-3.28,88.69-2.18c4.01,0.15,50.31,1.25,46.64,10.7
			c-2.92,7.5-14.42,13.56-20.47,18.15c-4.64,3.53-34.68,23.96-26.01,30.93c2.4,1.93,5.64,2.33,8.7,2.62
			c50.72,4.92,102.92,3.4,152.87-7.17c43.5-9.21,91.51-24.19,117.46-63.1c26.47-39.68,28.08-92.67,17.99-137.89
			c-2.4-10.77-5.56-21.38-9.56-31.66c-3.71-9.55-9.6-17.59-14.52-26.51c-1.98-3.59-3.35-7.93-1.92-11.77
			c6.3-16.98,24.61,16.88,29.6-1.3c2.42-8.83-2.25-21.93-5.21-30.27c-5.34-15.02-14.39-28.54-25.22-40.16
			C666.47,111.86,641.92,101.14,616.5,86.17z"/>
		<path class="st1" d="M616.5,86.17c-47.9-28.21-102.22-39.89-156.58-47.23c-52.5-7.08-106.38-3.38-157.53,10.33
			c-22.39,6-44.27,13.93-65.28,23.71c-19.69,9.17-38.7,25.59-60.15,29.84c7.18-10.03,14.37-20.06,21.55-30.09
			c4.14-5.78,8.22-14.08,3.43-19.34c-1.95-2.14-4.93-3.04-7.79-3.46c-11.09-1.63-22.22,2.39-32.28,7.33
			c-46.35,22.78-84.2,65.26-112.98,107.29C1.38,233.92,6.66,347.75,60.93,403.53c54.28,55.78,170.36,82.92,218.61,76.89
			c36.62-4.58-2.84-26.34-10.94-39.54c-0.71-1.15-1.37-2.42-1.31-3.77c0.1-2.31,2.21-3.97,4.2-5.13
			c16.73-9.72,38.12-6.87,56.64-8.32c29.46-2.32,59.16-3.28,88.69-2.18c4.01,0.15,50.31,1.25,46.64,10.7
			c-2.92,7.5-14.42,13.56-20.47,18.15c-4.64,3.53-34.68,23.96-26.01,30.93c2.4,1.93,5.64,2.33,8.7,2.62
			c50.72,4.92,102.92,3.4,152.87-7.17c43.5-9.21,91.51-24.19,117.46-63.1c26.47-39.68,28.08-92.67,17.99-137.89
			c-2.4-10.77-5.56-21.38-9.56-31.66c-3.71-9.55-9.6-17.59-14.52-26.51c-1.98-3.59-3.35-7.93-1.92-11.77
			c6.3-16.98,24.61,16.88,29.6-1.3c2.42-8.83-2.25-21.93-5.21-30.27c-5.34-15.02-14.39-28.54-25.22-40.16
			C666.47,111.86,641.92,101.14,616.5,86.17z"/>
	</g>
</g>
<g id="Clouds">
	<path class="st2" d="M667.97,189.86c0,0-21.9-24.17-45.32-24.17c-23.41,0-24.17,21.9-27.94,24.92c-3.78,3.02-18.88-5.29-24.17,0
		c-5.29,5.29-5.29,9.82-8.31,10.57c-3.02,0.76-15.11-3.78-20.39-2.27c-5.29,1.51-9.82,5.29-9.82,5.29s-9.82-0.76-15.11,3.78
		c-5.29,4.53-10.57,6.04-10.57,6.04h216.01c0,0-0.76-13.59-12.08-18.88c-11.33-5.29-13.24-4.29-20.39-0.76
		c-7.15,3.53-3.41-8.05-10.57-8.31C671.22,185.79,673.26,189.1,667.97,189.86z"/>
	<path class="st2" d="M511.14,274.7c0,0-11.81-13.04-24.44-13.04c-12.63,0-13.04,11.81-15.07,13.44c-2.04,1.63-10.18-2.85-13.04,0
		c-2.85,2.85-2.85,5.3-4.48,5.7c-1.63,0.41-8.15-2.04-11-1.22c-2.85,0.81-5.3,2.85-5.3,2.85s-5.3-0.41-8.15,2.04
		c-2.85,2.44-5.7,3.26-5.7,3.26h116.51c0,0-0.41-7.33-6.52-10.18c-6.11-2.85-7.14-2.31-11-0.41c-3.86,1.9-1.84-4.34-5.7-4.48
		C512.89,272.51,513.99,274.29,511.14,274.7z"/>
	<path class="st2" d="M118.35,81.04c0,0-11.81-13.04-24.44-13.04S80.87,79.82,78.83,81.45c-2.04,1.63-10.18-2.85-13.04,0
		c-2.85,2.85-2.85,5.3-4.48,5.7c-1.63,0.41-8.15-2.04-11-1.22c-2.85,0.81-5.3,2.85-5.3,2.85s-5.3-0.41-8.15,2.04
		c-2.85,2.44-5.7,3.26-5.7,3.26h116.51c0,0-0.41-7.33-6.52-10.18c-6.11-2.85-7.14-2.31-11-0.41c-3.86,1.9-1.84-4.34-5.7-4.48
		C120.1,78.85,121.2,80.63,118.35,81.04z"/>
</g>
<g id="Trees">
	<g>
		<path class="st0" d="M239.84,234.91c0,0-24.46,3.2-29.2,19.35c-4.73,16.16,34.72,26.41,34.72,29.57s-10.26,18.94-1.58,23.67
			c8.68,4.73,42.61,2.37,42.61,2.37s11.84,11.05,25.25,7.1c13.41-3.95,26.04-11.05,29.2-22.88c3.16-11.84,11.84-14.2,17.36-22.88
			c5.52-8.68,3.16-22.88-8.68-33.93C337.69,226.23,253.26,228.6,239.84,234.91z"/>
		<path class="st3" d="M239.84,234.91c0,0-24.46,3.2-29.2,19.35c-4.73,16.16,34.72,26.41,34.72,29.57s-10.26,18.94-1.58,23.67
			c8.68,4.73,42.61,2.37,42.61,2.37s11.84,11.05,25.25,7.1c13.41-3.95,26.04-11.05,29.2-22.88c3.16-11.84,11.84-14.2,17.36-22.88
			c5.52-8.68,3.16-22.88-8.68-33.93C337.69,226.23,253.26,228.6,239.84,234.91z"/>
		<path class="st4" d="M272.2,229.39c0,0,5.52,72.6,0,91.54c-5.52,18.94-41.03,97.85-41.03,97.85h35.51c0,0,57.6-59.18,67.07-71.81
			s43.4-90.75,43.4-90.75l-12.63-0.79c0,0-21.31,51.29-29.99,67.86c-8.68,16.57-37.88,44.98-45.77,49.71
			c-7.89,4.73,11.84-20.52,16.57-33.14c4.73-12.63,23.67-58.39,26.04-67.07c2.37-8.68,10.26-34.72,10.26-34.72l-11.84-0.79
			c0,0-4.73,33.93-9.47,42.61c-4.73,8.68-14.2,29.2-14.2,29.2l-6.31-79.7l-11.05-5.52c0,0,3.95,63.92,5.52,75.75
			c1.58,11.84,1.58,22.88,0.79,27.62c-0.79,4.73-11.05,26.83-14.2,30.77s-5.52-4.73-4.73-9.47c0.79-4.73,8.68-26.04,10.26-38.67
			c1.58-12.63-3.95-93.9-3.95-93.9L272.2,229.39z"/>
		<g>
			<path class="st0" d="M407.92,296.46c0,0-19.73-19.73-41.03-9.47c-21.31,10.26-19.73,21.31-22.09,26.04s-7.89-3.16-15.78,7.1
				c-7.89,10.26,4.73,20.52,11.05,22.09c6.31,1.58,22.88-6.31,26.83-3.95c3.95,2.37,7.1,11.84,23.67,3.95
				c16.57-7.89,14.99-18.94,21.31-23.67C418.18,313.82,422.13,309.09,407.92,296.46z"/>
			<path class="st5" d="M407.92,296.46c0,0-19.73-19.73-41.03-9.47c-21.31,10.26-19.73,21.31-22.09,26.04
				c-2.37,4.73-7.89-3.16-15.78,7.1c-3.97,5.16-2.74,10.33,0.26,14.38c-1.6-5.3-3.14-14.03,5.26-11.23
				c11.84,3.95,24.46-0.79,24.46-0.79s-10.26-11.84,1.58-15.78c11.84-3.95,19.73,0,19.73,3.16s5.52-13.41,11.84-7.1
				c6.31,6.31,2.37,15.78,2.37,15.78s7.1-3.16,6.31,2.37c-0.79,5.52-5.52,9.47-5.52,9.47l6.99,2.96c4.7-5.87,5.44-11.69,9.59-14.79
				C418.18,313.82,422.13,309.09,407.92,296.46z"/>
		</g>
		<g>
			<path class="st0" d="M407.53,69.76c-22.45,2.9-45.12-2.12-64.58-13.84c-11.33-6.82-25.91-13.63-42.35-16.69
				c-38.67-7.19-42.61,19.98-46.56,28.78c-3.95,8.79-19.73,0-57.6,5.6c-37.88,5.6-48.14,38.37-44.98,47.16
				c3.16,8.79,9.47,11.99,3.95,19.19c-5.52,7.19-26.38,25.67-23.67,41.57c2.71,15.9,54.45,67.15,78.91,72.74
				s58.39-21.58,83.64-18.39c25.25,3.2,21.31,35.97,89.17,28.78s57.6-62.35,96.27-66.35c38.67-4,83.64-4.8,78.91-46.36
				s-57.6-80.74-91.54-86.33c-33.93-5.6-21.31-0.8-58.39,4C408.31,69.66,407.92,69.71,407.53,69.76z"/>
			<path class="st5" d="M467.1,65.61c-33.93-5.6-21.31-0.8-58.39,4c-0.4,0.05-0.79,0.1-1.18,0.15c-22.45,2.9-45.12-2.12-64.58-13.84
				c-11.33-6.82-25.91-13.63-42.35-16.69c-38.67-7.19-42.61,19.98-46.56,28.78c-3.95,8.79-19.73,0-57.6,5.6
				c-37.88,5.6-48.14,38.37-44.98,47.16c3.16,8.79,9.47,11.99,3.95,19.19c-5.52,7.19-26.38,25.67-23.67,41.57
				c2.14,12.54,34.76,47.06,60.46,63.84c-7.09-9.11-46.41-60.5-39.94-72c7.1-12.63,48.92-3.16,57.6-7.89
				c8.68-4.73,4.73-25.25,9.47-26.83c4.73-1.58,16.57,3.95,16.57,3.95s-14.99-16.57,0-14.2c14.99,2.37,18.15,11.05,18.15,11.05
				s-3.16-22.88,2.37-26.04c5.52-3.16,4.5,8.89,6.14,13.2c1.65,4.31,4.11,14.42,4.11,14.42s12.75-33.01,22.88-27.62
				c10.13,5.4,6.31,18.94,11.05,20.52c4.73,1.58,3.95-7.1,25.25-22.88c21.31-15.78,43.4-8.68,47.35-3.16
				c3.95,5.52,9.47,4.73,5.52-3.16c-3.95-7.89-22.09-10.26-26.04-15.78c-3.95-5.52,11.05-7.89,18.94-3.95
				c7.89,3.95,22.09,21.31,22.09,21.31s3.71-9.61,10.26-7.89c6.55,1.71,6.31,18.15,6.31,18.15s2.9-23.01,8.94-13.08
				c6.05,9.93-1.05,28.86-1.05,28.86s25.25-14.99,29.99-1.58c4.73,13.41-13.41,29.2-15.78,32.35c-2.37,3.16,25.25-0.79,31.56,0.79
				c6.31,1.58,3.16-11.84,3.95-21.31c0.79-9.47,14.2-0.79,14.2-0.79s-11.05-11.84-10.26-17.36c0.79-5.52,17.36-4.73,20.52,6.31
				c3.16,11.05,0.79-11.84,8.68-3.16c7.89,8.68-0.79,32.35-0.79,32.35s22.88-31.56,22.88-15.78c0,15.78-3.16,22.88,0,22.09
				c3.16-0.79,14.99-19.73,19.73-11.84c4.73,7.89,3.95,13.41,3.16,15.78c-0.5,1.49,4.93,2.98,9.03,3.88
				c3.24-5.69,4.64-12.91,3.59-22.14C553.91,110.37,501.04,71.2,467.1,65.61z"/>
			<path class="st6" d="M385.83,205.71c0,0-13.41-12.63-7.89-14.2c5.52-1.58,19.73,11.84,21.31,7.1c1.58-4.73-2.37-20.52,8.68-14.2
				c11.05,6.31,11.05,6.31,11.05,6.31l10.26-7.89l6.31,11.05c0,0,3.95-11.05,12.63-3.95c8.68,7.1-4.73,14.2-4.73,14.2
				s-24.46-4.73-33.14-0.79c-8.68,3.95-6.31,6.31-7.89,10.26c-1.58,3.95-19.73,3.95-33.14-1.58
				C355.84,206.5,378.73,204.92,385.83,205.71z"/>
		</g>
		<g>
			<path class="st4" d="M184.23,356.84c2.62-4.72,24.15-38.32,24.15-38.32l-10.5,3.15l-16.8,29.92l2.62-29.92l-5.77,2.62
				c0,0-1.05,32.54-2.62,40.94c-1.12,5.97-0.12,18.84,0.56,25.78c-4.22-9.88-8.21-19.59-9.43-23.76c-2.91-9.97,0-48.2,0-48.2
				l-5.4-7.06c0,0-2.91,42.79-2.08,49.44c0.83,6.65,4.99,17.87,5.4,20.36c0.42,2.49-0.83,7.06-2.49,4.99
				c-1.66-2.08-7.06-13.71-7.48-16.2c-0.42-2.49-0.42-8.31,0.42-14.54c0.83-6.23,2.91-39.89,2.91-39.89l-5.82,2.91l-3.32,41.96
				c0,0-4.99-10.8-7.48-15.37c-2.49-4.57-4.99-22.44-4.99-22.44l-6.23,0.42c0,0,4.15,13.71,5.4,18.28
				c1.25,4.57,11.22,28.67,13.71,35.32c2.49,6.65,12.88,19.94,8.73,17.45c-4.15-2.49-19.53-17.45-24.1-26.18
				c-4.57-8.73-15.79-35.73-15.79-35.73l-6.65,0.42c0,0,17.87,41.13,22.85,47.78c4.99,6.65,35.32,37.81,35.32,37.81h18.7
				c0,0-3.28-7.29-7.31-16.5C181.13,389.13,182.22,360.46,184.23,356.84z"/>
			<g>
				<path class="st0" d="M94.97,354.37c0,0,10.39-10.39,21.61-4.99c11.22,5.4,10.39,11.22,11.63,13.71
					c1.25,2.49,4.15-1.66,8.31,3.74c4.15,5.4-2.49,10.8-5.82,11.63c-3.32,0.83-12.05-3.32-14.13-2.08
					c-2.08,1.25-3.74,6.23-12.46,2.08c-8.73-4.15-7.89-9.97-11.22-12.46C89.57,363.51,87.5,361.02,94.97,354.37z"/>
				<path class="st6" d="M94.97,354.37c0,0,10.39-10.39,21.61-4.99c11.22,5.4,10.39,11.22,11.63,13.71
					c1.25,2.49,4.15-1.66,8.31,3.74c2.09,2.72,1.44,5.44-0.14,7.57c0.84-2.79,1.65-7.39-2.77-5.91c-6.23,2.08-12.88-0.42-12.88-0.42
					s5.4-6.23-0.83-8.31c-6.23-2.08-10.39,0-10.39,1.66c0,1.66-2.91-7.06-6.23-3.74c-3.32,3.32-1.25,8.31-1.25,8.31
					s-3.74-1.66-3.32,1.25c0.42,2.91,2.91,4.99,2.91,4.99l-3.68,1.56c-2.47-3.09-2.87-6.15-5.05-7.79
					C89.57,363.51,87.5,361.02,94.97,354.37z"/>
			</g>
			<g>
				<path class="st0" d="M95.18,235.01c11.82,1.53,23.76-1.12,34-7.29c5.97-3.59,13.64-7.18,22.3-8.79
					c20.36-3.79,22.44,10.52,24.51,15.15c2.08,4.63,10.39,0,30.33,2.95c19.94,2.95,25.34,20.2,23.68,24.83
					c-1.66,4.63-4.99,6.31-2.08,10.1c2.91,3.79,13.89,13.51,12.46,21.89c-1.43,8.37-28.67,35.36-41.55,38.3
					c-12.88,2.95-30.75-11.36-44.04-9.68s-11.22,18.94-46.95,15.15c-35.73-3.79-30.33-32.83-50.69-34.93
					c-20.36-2.1-44.04-2.53-41.55-24.41s30.33-42.51,48.2-45.46c17.87-2.95,11.22-0.42,30.75,2.1
					C94.77,234.95,94.98,234.98,95.18,235.01z"/>
				<path class="st6" d="M63.81,232.82c17.87-2.95,11.22-0.42,30.75,2.1c0.21,0.03,0.42,0.05,0.62,0.08
					c11.82,1.53,23.76-1.12,34-7.29c5.97-3.59,13.64-7.18,22.3-8.79c20.36-3.79,22.44,10.52,24.51,15.15
					c2.08,4.63,10.39,0,30.33,2.95c19.94,2.95,25.34,20.2,23.68,24.83c-1.66,4.63-4.99,6.31-2.08,10.1
					c2.91,3.79,13.89,13.51,12.46,21.89c-1.13,6.6-18.3,24.78-31.83,33.61c3.73-4.8,24.44-31.86,21.03-37.91
					c-3.74-6.65-25.76-1.66-30.33-4.15c-4.57-2.49-2.49-13.3-4.99-14.13c-2.49-0.83-8.73,2.08-8.73,2.08s7.89-8.73,0-7.48
					c-7.89,1.25-9.56,5.82-9.56,5.82s1.66-12.05-1.25-13.71c-2.91-1.66-2.37,4.68-3.24,6.95c-0.87,2.27-2.17,7.59-2.17,7.59
					s-6.72-17.38-12.05-14.54c-5.33,2.84-3.32,9.97-5.82,10.8c-2.49,0.83-2.08-3.74-13.3-12.05c-11.22-8.31-22.85-4.57-24.93-1.66
					c-2.08,2.91-4.99,2.49-2.91-1.66c2.08-4.15,11.63-5.4,13.71-8.31c2.08-2.91-5.82-4.15-9.97-2.08
					c-4.15,2.08-11.63,11.22-11.63,11.22s-1.95-5.06-5.4-4.15c-3.45,0.9-3.32,9.56-3.32,9.56s-1.53-12.11-4.71-6.89
					c-3.18,5.23,0.55,15.2,0.55,15.2s-13.3-7.89-15.79-0.83c-2.49,7.06,7.06,15.37,8.31,17.03c1.25,1.66-13.3-0.42-16.62,0.42
					c-3.32,0.83-1.66-6.23-2.08-11.22c-0.42-4.99-7.48-0.42-7.48-0.42s5.82-6.23,5.4-9.14c-0.42-2.91-9.14-2.49-10.8,3.32
					c-1.66,5.82-0.42-6.23-4.57-1.66c-4.15,4.57,0.42,17.03,0.42,17.03s-12.05-16.62-12.05-8.31s1.66,12.05,0,11.63
					c-1.66-0.42-7.89-10.39-10.39-6.23c-2.49,4.15-2.08,7.06-1.66,8.31c0.26,0.78-2.6,1.57-4.76,2.04c-1.7-3-2.44-6.8-1.89-11.66
					C18.11,256.39,45.95,235.77,63.81,232.82z"/>
				<path class="st6" d="M106.61,306.59c0,0,7.06-6.65,4.15-7.48c-2.91-0.83-10.39,6.23-11.22,3.74c-0.83-2.49,1.25-10.8-4.57-7.48
					c-5.82,3.32-5.82,3.32-5.82,3.32l-5.4-4.15l-3.32,5.82c0,0-2.08-5.82-6.65-2.08c-4.57,3.74,2.49,7.48,2.49,7.48
					s12.88-2.49,17.45-0.42c4.57,2.08,3.32,3.32,4.15,5.4c0.83,2.08,10.39,2.08,17.45-0.83
					C122.4,307.01,110.35,306.17,106.61,306.59z"/>
			</g>
		</g>
	</g>
</g>
<g id="Bushes">
	<g>
		<path class="st0" d="M49.94,417.54c0,0,10.2-19.81,34.22-26.41c24.01-6.6,43.82,8.4,45.62,4.8c1.8-3.6-6.6-11.41-1.2-12.61
			c5.4-1.2,21.01,7.8,21.01,7.8s-4.8-10.2,6-17.41c10.81-7.2,40.82,0.6,49.82,11.41c9,10.81,9.6,6.6,16.81,4.8
			c7.2-1.8,15.61,3.6,15.61,3.6s0-22.21,18.01-25.21s51.02,25.81,54.03,25.81c3,0,19.81-12.01,29.41-4.2
			c9.6,7.8,22.28,10.95,22.28,10.95s-5.47-22.35,17.94-24.15c23.41-1.8,48.02,22.81,63.63,16.21c15.61-6.6,51.63-25.21,49.82-13.21
			c-1.8,12.01,3,14.41,3,14.41s21.01-26.41,51.63-18.61c30.61,7.8,33.02,23.41,40.22,22.81c7.2-0.6,13.81-16.81,25.81-10.81
			c12.01,6,21.61,19.21,23.41,19.21c1.8,0,26.41-16.81,41.42-7.2c15.01,9.6,17.41,18.61,17.41,18.61L49.94,417.54z"/>
		<path class="st7" d="M695.56,417.31c-0.98-2.44-4.81-9.9-17.11-17.78c-15.01-9.6-39.62,7.2-41.42,7.2
			c-1.8,0-11.41-13.21-23.41-19.21c-12.01-6-18.61,10.21-25.81,10.81c-7.2,0.6-9.6-15.01-40.22-22.81
			c-30.61-7.8-51.63,18.61-51.63,18.61s-4.8-2.4-3-14.41c1.8-12.01-34.22,6.6-49.82,13.21c-15.61,6.6-40.22-18.01-63.63-16.21
			c-23.41,1.8-17.94,24.15-17.94,24.15s-12.67-3.14-22.28-10.95c-9.6-7.8-26.41,4.2-29.41,4.2c-3,0-36.02-28.81-54.03-25.81
			c-18.01,3-18.01,25.21-18.01,25.21s-8.4-5.4-15.61-3.6c-7.2,1.8-7.8,6-16.81-4.8c-9-10.81-39.02-18.61-49.82-11.41
			c-10.81,7.2-6,17.41-6,17.41s-15.61-9-21.01-7.8c-5.4,1.2,3,9,1.2,12.61c-1.8,3.6-21.61-11.41-45.62-4.8
			c-14.76,4.06-24.3,13.11-29.46,19.48c6.44-2.52,24.31-9.27,30.66-9.27c7.8,0,27.01,13.81,34.22,10.2c7.2-3.6,7.8-6,15.61-4.8
			c7.8,1.2,10.81,4.2,12.01-3c1.2-7.2,6.6-13.21,24.01-8.4c17.41,4.8,28.81,13.21,31.82,8.4c3-4.8,7.2-4.8,16.21,1.2
			c9,6,6.6,1.2,12.61-1.8c6-3,13.81,1.8,17.41,2.4c3.6,0.6-7.2-13.81,12.61-19.21c19.81-5.4,48.62,19.81,53.43,17.41
			c4.8-2.4,9.6-7.8,16.81-5.4c7.2,2.4,14.41,6.6,14.41,6.6s-5.5-9.52,3.6-6c9.11,3.52,16.21,8.4,16.21,8.4s9.6-16.81,16.21-16.81
			c6.6,0,15.01,9,15.01,9s6.6-10.21,12.61-4.8c6,5.4,12.01,9,12.01,9s23.41-11.41,21.61-4.2c-1.8,7.2-1.8,7.2-1.8,7.2
			s33.62-17.41,36.62-10.2c3,7.2,4.8,12.61,9,9.6c4.2-3,15.61-10.2,16.21-7.2c0.6,3,0.6,3,0.6,3s23.41-13.21,33.62-10.81
			c10.21,2.4,18.61,12.61,18.61,12.61s17.41-7.2,16.21-1.8c-1.2,5.4-1.2,5.4-1.2,5.4s12.61-3,13.81-0.6c0,0,18.61-15.01,31.22-6.6
			c12.61,8.4,24.01,13.21,25.81,11.41c1.8-1.8,18.61-12.01,26.41-6.6c4.67,3.23,11.92,9.05,16.99,13.2l9.16,0.01
			C695.18,417.86,695.37,417.59,695.56,417.31z"/>
	</g>
</g>
<g id="River">
	<g>
		<line class="st8" x1="31.35" y1="418.14" x2="723.82" y2="418.14"/>
		<g>
			<g>
				<path class="st2" d="M711.06,447.54c13.01,2.31,20.25,4.34,20.25,4.34"/>
				<path class="st2" d="M567.31,445.4c57.81-7.84,106.01-3.74,134.88,0.68"/>
				<path class="st2" d="M329.83,457.29c52.95,12.26,106.44,19.93,173.66,1.23c18.89-5.26,37.23-9.09,54.76-11.8"/>
				<path class="st2" d="M134.61,427.07c14.5,0.38,30.48,1.02,48.02,2.02c50.52,2.88,93.75,15.35,136.77,25.73"/>
				<path class="st2" d="M15.55,431.94c0,0,30.42-6.32,105.43-5.15"/>
				<path class="st2" d="M512.14,470.02c36.8-3.37,69.68-7.84,98.61-11.5c82.59-10.44,121.51,10.44,121.51,10.44"/>
				<path class="st2" d="M386.73,474.85c42.49,0.85,81.49-1.05,116.96-4.08"/>
				<path class="st2" d="M215.19,458.97c16.33,1.56,33.65,3.59,51.93,6.2c38.24,5.46,74.34,8.33,108.27,9.39"/>
				<path class="st2" d="M35.49,460.42c0,0,62.2-11.75,171.27-2.22"/>
				<path class="st2" d="M413.98,441.53c-48.78,1.31-81-2.93-97.51-6.74"/>
				<path class="st2" d="M662.73,427.53c-25.2-1.05-88.68-2.25-163.99,7.26c-26.94,3.4-51,5.36-72.24,6.29"/>
				<path class="st2" d="M674.35,428.14c0,0-1.67-0.12-4.83-0.29"/>
			</g>
		</g>
	</g>
</g>
<g id="Fish">
	<g>
		<line class="st2" x1="542.5" y1="154.67" x2="572.3" y2="300.55"/>
		<g>
			<g>
				<g>
					<path class="st0" d="M583.55,315.62c0.66,3.34,2.83,5.72,1.34,9.68c-1.49,3.97-6.39,9.29-10.49,11.12
						c-4.1,1.83-7.15,1.82-11.24,2.11c4.71-2.51,9.55-4.42,13.18-8.44C579.98,326.08,581.81,320.75,583.55,315.62z"/>
					<path class="st9" d="M583.55,315.62c0.66,3.34,2.83,5.72,1.34,9.68c-1.49,3.97-6.39,9.29-10.49,11.12
						c-4.1,1.83-7.15,1.82-11.24,2.11c4.71-2.51,9.55-4.42,13.18-8.44C579.98,326.08,581.81,320.75,583.55,315.62z"/>
					<path class="st10" d="M583.55,315.62c0.66,3.34,2.83,5.72,1.34,9.68c-1.49,3.97-6.39,9.29-10.49,11.12
						c-4.1,1.83-7.15,1.82-11.24,2.11c4.71-2.51,9.55-4.42,13.18-8.44C579.98,326.08,581.81,320.75,583.55,315.62z"/>
					<path class="st10" d="M582.89,318.99c0.41,0.99,0.73,1.99,1.03,3.02"/>
					<path class="st10" d="M582.34,322.36c0.39,1.13,0.78,2.26,1.18,3.38"/>
					<path class="st10" d="M581.16,323.6c0.31,0.74,0.63,1.47,0.92,2.22"/>
					<path class="st10" d="M579.74,326.54c0.37,1.1,0.72,2.21,1.06,3.32"/>
					<path class="st10" d="M576.92,330.46c0.42,0.8,0.81,1.62,1.21,2.43"/>
					<path class="st10" d="M575.02,332.13c0.36,0.72,0.71,1.44,1.05,2.17"/>
					<path class="st10" d="M573.99,334.64c0.19,0.35,0.36,0.69,0.57,1.03"/>
					<path class="st10" d="M582.41,326.41c0.09,0.27,0.18,0.54,0.26,0.81"/>
					<path class="st10" d="M571.57,336.02c0.09,0.2,0.19,0.4,0.28,0.61"/>
				</g>
				<path class="st11" d="M570.2,293.93c-2.73,8.02-5.32,17.31-8.4,24.9c-3.09,7.59-8.22,12.25-11.16,19.44
					c-1.07,2.6-1.03,4.14-1.54,7.17c-0.51,3.03,2.18,7.56,3.73,9.76c1.55,2.2,2.58,1.99,3.51,0.64c0.94-1.35-3.56-8.71-0.89-7.45
					c2.67,1.26,0.41,3.77,2.09,5.87c1.68,2.1,3.8-1.2,3.61-3.92c-0.19-2.72-3.93-5.94-3.09-9.09c0.84-3.15,10.02-3.22,14.99-6.48
					c4.97-3.26,11.15-15.35,10.31-22.07c-0.84-6.72-4.4-13.3-7.29-16.57c-2.89-3.28-2.37-1.54-4.57-1.31
					C571.69,294.05,571.16,293.44,570.2,293.93z"/>
				<path class="st0" d="M561.07,350.37c-0.56-2.65-2.89-6.12-3.33-9.07c-0.02-0.14,0.02-0.23,0.03-0.31
					c-1.56,0.62-2.48,4.05-4.16,3.72c-2.12-0.41-2.81-2.89-2.88-4.79c-0.15-0.08-0.32-0.07-0.47-0.15c-0.55,2.09-0.94,3.25-1.2,5.61
					c-0.36,3.27,2.16,7.54,3.75,9.8c1.59,2.26,2.58,1.98,3.52,0.65c0.94-1.33-3.53-8.72-0.89-7.44c2.64,1.28,0.51,3.75,2.07,5.88
					C559.07,356.4,561.64,353.01,561.07,350.37z"/>
				<path class="st9" d="M561.07,350.37c-0.56-2.65-2.89-6.12-3.33-9.07c-0.02-0.14,0.02-0.23,0.03-0.31
					c-1.56,0.62-2.48,4.05-4.16,3.72c-2.12-0.41-2.81-2.89-2.88-4.79c-0.15-0.08-0.32-0.07-0.47-0.15c-0.55,2.09-0.94,3.25-1.2,5.61
					c-0.36,3.27,2.16,7.54,3.75,9.8c1.59,2.26,2.58,1.98,3.52,0.65c0.94-1.33-3.53-8.72-0.89-7.44c2.64,1.28,0.51,3.75,2.07,5.88
					C559.07,356.4,561.64,353.01,561.07,350.37z"/>
				<path class="st10" d="M561.07,350.37c-0.56-2.65-2.89-6.12-3.33-9.07c-0.02-0.14,0.02-0.23,0.03-0.31
					c-1.56,0.62-2.48,4.05-4.16,3.72c-2.12-0.41-2.81-2.89-2.88-4.79c-0.15-0.08-0.32-0.07-0.47-0.15c-0.55,2.09-0.94,3.25-1.2,5.61
					c-0.36,3.27,2.16,7.54,3.75,9.8c1.59,2.26,2.58,1.98,3.52,0.65c0.94-1.33-3.53-8.72-0.89-7.44c2.64,1.28,0.51,3.75,2.07,5.88
					C559.07,356.4,561.64,353.01,561.07,350.37z"/>
				<path class="st10" d="M550.77,341.97c-0.74,1.92-0.3,4.22,0.23,6.12"/>
				<path class="st10" d="M551.59,343.34c-0.14,0.99-0.14,1.88-0.05,2.88"/>
				<path class="st10" d="M552.7,344.8c-0.09,0.9,0.1,1.73,0.33,2.59"/>
				<path class="st10" d="M553.6,344.8c0.23,0.75,0.49,1.47,0.74,2.22"/>
				<path class="st10" d="M555.13,344.28c0.26,0.8,0.67,1.61,1.09,2.34"/>
				<path class="st10" d="M556.15,342.71c0.75,1.57,1.77,3.03,2.89,4.35"/>
				<path class="st0" d="M575.88,295.87c-1.93-1.84-2.75-2.11-4.35-0.97c0.12-0.94-0.36-1.39-1.31-1c-0.98,2.77-1.79,5.55-2.55,8.4
					c1.89,2.33,4.04,4.39,7.24,4.29c2.45-0.08,4.37-1.29,5.77-3.26C579.94,301.26,576.96,296.9,575.88,295.87z"/>
				<path class="st9" d="M575.88,295.87c-1.93-1.84-2.75-2.11-4.35-0.97c0.12-0.94-0.36-1.39-1.31-1c-0.98,2.77-1.79,5.55-2.55,8.4
					c1.89,2.33,4.04,4.39,7.24,4.29c2.45-0.08,4.37-1.29,5.77-3.26C579.94,301.26,576.96,296.9,575.88,295.87z"/>
				<path class="st10" d="M575.88,295.87c-1.93-1.84-2.75-2.11-4.35-0.97c0.12-0.94-0.36-1.39-1.31-1c-0.98,2.77-1.79,5.55-2.55,8.4
					c1.89,2.33,4.04,4.39,7.24,4.29c2.45-0.08,4.37-1.29,5.77-3.26C579.94,301.26,576.96,296.9,575.88,295.87z"/>
				<path class="st12" d="M575.61,298.11c-0.1,0.6-0.58,0.96-1.18,0.84c-0.6-0.11-0.97-0.65-0.9-1.25c0.08-0.6,0.62-0.93,1.2-0.82
					C575.31,297,575.72,297.51,575.61,298.11z"/>
				<path class="st13" d="M575.09,297.86c-0.05,0.25-0.3,0.39-0.54,0.35c-0.25-0.04-0.42-0.28-0.37-0.54
					c0.05-0.25,0.28-0.4,0.53-0.35C574.96,297.38,575.14,297.61,575.09,297.86z"/>
				<g>
					<path class="st0" d="M573.26,311.27c-1.36,0.11-3.75,1.47-4.69,2.02c-0.95,0.55-4.86,1.98-4.38,3.02
						c0.48,1.05,2.49,3.46,4.2,2.6c1.72-0.86,4.2-4.28,5.37-6.06"/>
					<path class="st9" d="M573.26,311.27c-1.36,0.11-3.75,1.47-4.69,2.02c-0.95,0.55-4.86,1.98-4.38,3.02
						c0.48,1.05,2.49,3.46,4.2,2.6c1.72-0.86,4.2-4.28,5.37-6.06"/>
					<path class="st10" d="M573.26,311.27c-1.36,0.11-3.75,1.47-4.69,2.02c-0.95,0.55-4.86,1.98-4.38,3.02
						c0.48,1.05,2.49,3.46,4.2,2.6c1.72-0.86,4.2-4.28,5.37-6.06"/>
					<path class="st10" d="M573.51,310.71c-0.23,0.74,0.16,1.92,0.71,2.2c0.56,0.29,0.9,0.15,1.03-0.26"/>
					<path class="st10" d="M573.3,311.25c-1.54,1.16-3.23,2.17-4.94,3.06"/>
					<path class="st10" d="M572.69,312.31c-1.3,1.32-2.66,2.58-4.28,3.5"/>
					<path class="st10" d="M573.31,312.33c-0.55,0.84-1.16,1.65-1.77,2.45"/>
				</g>
			</g>
			<path class="st14" d="M569.62,322c-0.43,4.26-9.52,9.54-11.29,10.66c-1.77,1.11-7.08,7.61-4.15,6.15
				c2.93-1.46,12.77-8.36,15.63-10.4C572.68,326.38,573.14,318.79,569.62,322z"/>
			<path class="st14" d="M577.14,299.43c0.45,1.1,0.51,2.17,0.25,3.28c-0.26,1.1-2.89,1.62-2.66,2.51s2.05-0.15,2.86-0.52
				c0.81-0.38,1.92-1.84,1.48-2.73C578.63,301.07,577.66,298.88,577.14,299.43z"/>
			<path class="st14" d="M579.83,307.06c2.81,4.45,1.03,11.9-0.47,15.79c-1.51,3.89-12.73,9.23-8.88,10.85
				c3.86,1.62,8.79-7.78,10.3-11.27c1.52-3.49,2.31-11.09,1.1-14.07C580.68,305.39,581,305.88,579.83,307.06z"/>
		</g>
		<g>
			<path class="st8" d="M547.21,420.53c0,0,8.09-5.01,6.94-10.41c-1.16-5.4-10.79-10.79-11.18-15.03
				c-0.39-4.24,7.71-5.01,12.33,0.77c4.62,5.78,3.85,14.26,6.17,14.26s1.54-10.02,8.09-11.18c6.55-1.16,8.86,4.24,5.4,8.09
				c-3.47,3.85-5.78,6.17-3.85,6.55s9.25-5.01,10.02-1.54c0.77,3.47-4.24,6.55-4.24,6.55l3.08,1.93"/>
			<path class="st8" d="M556.85,372.93c0,1.81-1.47,3.28-3.28,3.28c-1.81,0-3.28-1.47-3.28-3.28c0-1.81,1.47-3.28,3.28-3.28
				C555.38,369.65,556.85,371.12,556.85,372.93z"/>
			<path class="st8" d="M571.49,357.71c0,1.06-0.86,1.93-1.93,1.93c-1.06,0-1.93-0.86-1.93-1.93c0-1.06,0.86-1.93,1.93-1.93
				C570.63,355.78,571.49,356.64,571.49,357.71z"/>
			<circle class="st8" cx="573.61" cy="349.42" r="1.35"/>
			<path class="st8" d="M538.73,339.4c0,0.96-0.78,1.73-1.73,1.73c-0.96,0-1.73-0.78-1.73-1.73c0-0.96,0.78-1.73,1.73-1.73
				C537.96,337.67,538.73,338.44,538.73,339.4z"/>
			<circle class="st8" cx="543.16" cy="354.43" r="0.96"/>
			<circle class="st8" cx="564.94" cy="385.45" r="1.93"/>
		</g>
	</g>
</g>
<g id="Character">
	<g>
		<g>
			<path class="st15" d="M158.37,176.75c0,0,10.35,5.07,15.83,11.57c5.48,6.49,18.06,23.34,19.08,24.56
				c1.01,1.22,10.55,8.93,10.55,10.76c0,1.83-0.41,3.04-0.41,3.04s2.64,1.01,4.47,3.65c1.83,2.64,1.83,2.64,1.83,2.64
				s2.03,0.81,0.81,8.73c-1.22,7.92-11.37,12.79-14.61,12.99c-3.25,0.2-6.9-3.25-6.9-3.25s-3.45-0.61-3.86-1.22
				c-0.41-0.61-7.31-9.95-7.31-9.95s-9.34-25.37-17.45-38.97C152.28,187.71,153.5,176.14,158.37,176.75z"/>
			<path class="st2" d="M203.43,226.67c0,0-7.71,0.41-12.38,9.34c-4.67,8.93-3.86,12.38-3.86,12.38"/>
			<path class="st2" d="M186.45,231.37c0,2.05-0.26,3.91-0.88,5.46"/>
			<path class="st2" d="M177.25,200.7c0,0,7.03,14.28,8.8,25.9"/>
		</g>
		<g>
			<path class="st16" d="M112.98,318.25c0,0-3.99,14.41-2.44,18.62c1.55,4.21,5.76,12.41,5.76,12.41s0.89,8.64,1.99,11.08
				c1.11,2.44,5.54,10.2,5.54,10.2s6.65,23.72,7.09,25.05c0.44,1.33-3.77,5.76-3.99,9.09c-0.22,3.32,1.99,13.5,1.99,13.5l53.73-0.07
				c0,0,2.13-1.68,3.01-10.1c0.89-8.42-0.22-33.03-0.22-33.03l23.94,33.69l1.55,9.37h43.22c0,0,1.77-16.9-0.44-25.32
				c-2.22-8.42-7.76-26.6-9.09-28.81c-1.33-2.22-29.26-44.55-29.26-44.55s-0.89-5.98-2.22-7.09c-1.33-1.11-3.55-1.77-3.55-1.77
				s-0.44-3.32-1.77-6.21c-1.33-2.88-10.86-18.4-10.86-18.4l-83.34,26.82L112.98,318.25z"/>
			<polygon class="st17" points="185.46,374.99 185.6,360.24 193.29,384.39 			"/>
			<g>
				<path class="st2" d="M139.8,314.7c0,0-4.65,11.08-13.52,16.4"/>
				<path class="st2" d="M150.04,325.11c-5.3,4.38-13.43,10.7-21.32,15.3"/>
				<path class="st2" d="M155.98,320.02c0,0-1.3,1.17-3.48,3.03"/>
				<path class="st2" d="M176.46,326.64c0.03,1.73,0.01,3.59-0.08,5.58"/>
				<path class="st2" d="M173.94,309.83c0,0,1.58,3.84,2.24,11.43"/>
				<path class="st2" d="M200.98,299.63c0,0-1.11,7.76-2.44,16.62c-1.33,8.87,7.98,1.77,8.64-1.11"/>
				<path class="st2" d="M212.28,317.14c0,0-15.74,17.95-21.28,26.82c-5.54,8.87,0.44,5.1,0.44,5.1"/>
				<path class="st2" d="M124.51,350.83c5.76-6.87,25.71-19.73,20.61-13.96c-5.1,5.76-14.41,14.19-14.41,14.19"/>
				<path class="st2" d="M122.07,359.03c0,0-1.87-0.75-0.37-4.02"/>
			</g>
		</g>
		<path class="st17" d="M109.44,305.17l3.55,13.08c0,0,39.23-5.76,60.29-15.52c21.06-9.75,23.72-16.85,23.72-16.85l-6.87-9.31
			l-81.34,25.93L109.44,305.17z"/>
		<path class="st16" d="M100.78,285.28c0,0-1.98,3.27-0.65,5.04c1.33,1.77,5.1,12.63,5.98,14.63c0.89,1.99,0,3.1,7.31,1.11
			c7.31-1.99,44.99-9.09,59.4-16.4s18.18-9.75,18.84-11.97c0.66-2.22-5.02-17.74-5.76-22.61c-0.74-4.86-4.36-13.4-4.36-13.4
			s-16.48,10.08-37.31,20.27c-20.83,10.2-42.78,18.4-42.78,18.4S100.55,282.45,100.78,285.28z"/>
		<path class="st15" d="M102.53,191.34c0,0-6.12,11.36-9.61,19.66c-3.5,8.3-7.43,18.35-1.97,36.7c5.46,18.35,3.28,29.71,4.37,33.43
			c1.09,3.71,2.4,4.37,5.46,4.15c3.06-0.22,20.54-8.52,41.73-17.26c21.19-8.74,30.59-12.67,33.86-16.6
			c3.28-3.93,5.68-6.55,5.24-13.76c-0.44-7.21-3.71-31.46-11.58-45c-7.86-13.54-5.68-12.23-10.27-15.07
			c-4.59-2.84-12.02-4.37-20.32-1.31C131.15,179.32,108.21,186.1,102.53,191.34z"/>
		<path class="st17" d="M145.16,187.97c0,0,10.67,14,18.02,27.82c7.35,13.82,13.19,35.63,13.19,35.63s3.26-3.61,4.13-6.24
			c0.87-2.62,1.05-3.5,1.05-3.5s-1.92-9.8-11.72-31.49c-9.8-21.69-22.57-32.89-22.57-32.89L145.16,187.97z"/>
		<path class="st8" d="M171.73,213.2l-7.67,5.21l4.2,8.92l7-5.6L171.73,213.2z M166.34,218.99l4.98-3.46l2.01,5.63l-4.66,3.38
			L166.34,218.99z"/>
		<path class="st17" d="M83.96,231.76c0,0,5.9-17.7,7.43-19.22c1.53-1.53,9.83-4.59,20.75,0s36.27,27.09,43.04,36.92
			c6.77,9.83,6.45,10.93,6.45,10.93l-16.31,6.75c0,0-15.05-30.35-31-38C98.38,221.49,83.96,231.76,83.96,231.76z"/>
		<path class="st8" d="M143.16,235.69l-10.27,8.96l6.34,8.52l11.36-10.27L143.16,235.69z M138.97,249.92l-3.81-4.84l8.24-6.9
			l3.91,4.33L138.97,249.92z"/>
		<path class="st8" d="M207.2,231.96c0,0-3.43-0.64-5.57,1.93c-2.14,2.57-6,10.5-5.79,14.36c0.21,3.86,4.5,4.72,5.36,4.72
			c0.86,0,17.58,0.86,17.58,0.86s11.22,2.84,12.92,2.22c1.71-0.62,6.05-10.55,6.82-12.87c0.78-2.33-0.31-5.89-0.31-5.89
			s4.81-4.81,5.12-6.36c0.31-1.55-0.47-1.71-2.33-1.24c-1.86,0.47-2.95,0.78-4.65,1.09c-1.71,0.31-1.4-0.47-5.89,0.16
			c-4.5,0.62-8.53,2.95-9.93,4.19s-3.57,1.71-4.5,1.09C215.1,235.57,207.2,231.96,207.2,231.96z"/>
		<path class="st18" d="M230.7,240.14c10.62-9.32,21.42-18.45,32.66-27.08c5.64-4.3,11.38-8.48,17.4-12.34
			c3-1.95,6.15-3.71,9.22-5.44c3.1-1.71,6.22-3.4,9.37-5.02c12.59-6.51,25.58-12.23,38.84-17.19c6.62-2.51,13.34-4.74,20.09-6.88
			c3.39-1.02,6.76-2.08,10.18-3c1.71-0.47,3.4-0.97,5.11-1.41l5.14-1.32c27.44-6.91,55.6-10.74,83.81-11.81
			c28.23-1.06,56.5,0.72,84.4,4.8c0.27,0.04,0.46,0.29,0.42,0.57c-0.04,0.27-0.29,0.46-0.56,0.42c-27.89-3.69-56.1-5.08-84.16-3.64
			c-28.06,1.45-55.97,5.64-83.08,12.86l-5.08,1.38c-1.69,0.46-3.37,0.98-5.05,1.47c-3.37,0.96-6.7,2.05-10.04,3.11
			c-6.65,2.21-13.28,4.5-19.79,7.08c-13.05,5.09-25.81,10.91-38.16,17.51c-3.09,1.64-6.14,3.35-9.18,5.08
			c-3.04,1.77-6.02,3.49-8.9,5.42c-5.79,3.82-11.39,8.02-16.89,12.33c-10.98,8.68-21.58,17.89-32.01,27.29
			c-1.15,1.04-2.92,0.95-3.96-0.2c-1.04-1.15-0.95-2.92,0.2-3.96C230.67,240.17,230.69,240.15,230.7,240.14z"/>
		<path class="st13" d="M241.26,268.55c-1-3.76-5.52-7.53-7.78-7.02c-2.26,0.5-9.53,6.52-11.04,7.53c-1.51,1-3.59-1.22-4.81-1.99
			c-0.84-0.53-2.33-2.42-3.17-3.53c7.07-6.61,13.94-12.9,20.43-18.68c1.44-1.29,1.57-3.5,0.28-4.94c-1.29-1.44-3.5-1.57-4.94-0.28
			c-6.8,6.06-14.02,12.67-21.45,19.63c-0.7,0.65-1.06,1.53-1.1,2.41c-2.34,2.2-4.7,4.44-7.08,6.7c-0.89-0.01-1.78,0.31-2.47,0.97
			c-13.98,13.37-23.75,23.25-23.84,23.34c-1.36,1.37-1.35,3.59,0.03,4.95c0.68,0.67,1.57,1.01,2.46,1.01c0.9,0,1.8-0.35,2.49-1.04
			c0.1-0.1,9.8-9.9,23.7-23.21c0.69-0.66,1.04-1.52,1.07-2.4c2.37-2.26,4.73-4.49,7.06-6.69c0.02,0,0.04,0.01,0.06,0.01
			c0.56,0,1.13-0.15,1.64-0.42l3.35,4.92l-2.51,16.56c0,0,6.02,7.02,7.02,6.77c1-0.25,17.81-14.3,19.07-17.31
			c1.25-3.01-0.5-4.52-0.5-4.52S242.26,272.31,241.26,268.55z"/>
		<g>
			<path class="st8" d="M242.4,236.96c0,0-8.07-1.09-9.93-1.09c-1.86,0-3.57,1.24-3.57,2.33c0,1.09,5.58,3.1,7.6,4.03
				c2.02,0.93,3.26,0.93,4.5,0.16C242.24,241.61,244.1,238.67,242.4,236.96z"/>
			<path class="st8" d="M229.68,239.44c0,0-2.02-0.47-2.79,0.93c-0.78,1.4,0.16,2.95,0.16,2.95s-2.95-0.78-3.72,0.93
				c-0.78,1.71-0.62,2.79-0.62,2.79s-2.17-0.31-2.02,1.86c0.16,2.17,3.26,4.96,5.43,5.58c2.17,0.62,5.58,1.86,6.98,1.09
				c1.4-0.78,2.48-2.33,2.48-2.33s1.55,0.16,2.17-1.71c0.62-1.86,0.62-3.1,0.62-3.1s2.48-0.47,2.64-2.17c0.16-1.71,0-3.88,0-3.88
				S233.56,240.99,229.68,239.44z"/>
			<path class="st8" d="M227.04,243.32c0,0,3.72,4.03,11.32,5.12"/>
			<path class="st8" d="M222.7,247.04c0,0,3.41,3.88,6.05,4.81c2.64,0.93,6.82,1.4,6.82,1.4"/>
		</g>
		<g>
			<path class="st8" d="M101.22,166.43c0,0,3.06,8.74,4.59,12.67c1.53,3.93,1.09,5.24,0.66,5.9c-0.44,0.66-2.18,1.75-0.87,3.71
				c1.31,1.97,15.29,13.33,24.25,17.91c8.96,4.59,18.79,9.39,18.79,9.39s-7.86-14.2-8.3-17.48c-0.44-3.28,4.15-23.59,4.81-28.84
				c0.66-5.24-0.66-17.91-0.87-18.79C144.04,150.05,101.22,166.43,101.22,166.43z"/>
			<path class="st8" d="M103.18,168.18c0,0,0.66,4.15,3.5,5.46c2.84,1.31,4.81,0.44,5.02-1.75"/>
			<path class="st15" d="M146.22,210.13c0,0-0.66-9.18,0.44-9.61c1.09-0.44,3.5,5.68,3.5,3.28c0-2.4-1.75-8.08-3.28-11.14
				c-1.53-3.06-5.68-3.06-6.77,1.09c-1.09,4.15-0.22,6.77-0.22,6.77L146.22,210.13z"/>
			<path class="st8" d="M149.28,150.7c0,0,2.4,5.68,1.97,8.3c-0.44,2.62-0.87,2.62-0.44,3.71c0.44,1.09,3.71,9.39,3.28,10.49
				c-0.44,1.09-5.02,2.84-5.02,2.84s-1.31,7.86-1.31,10.92s3.06,3.28,1.09,8.3s-8.08,5.9-15.95,5.24
				c-7.86-0.66-19.44-10.05-19.66-13.11c-0.22-3.06-1.09-15.73-1.31-17.7c-0.22-1.97-0.87-3.5-0.87-3.5S131.37,154.86,149.28,150.7z
				"/>
			<path class="st17" d="M147.75,186.97c0-3.06,1.31-10.92,1.31-10.92c-10.92-3.93-21.85,5.46-24.25,5.46
				c-2.4,0-5.24-2.62-6.12-7.43c-0.67-3.67,2.27-12.73,1.69-14.8c-3.18,1.61-9.33,6.94-9.33,6.94s0.66,1.53,0.87,3.5
				c0.22,1.97,1.09,14.64,1.31,17.7c0.22,3.06,11.8,12.45,19.66,13.11c7.86,0.66,13.98-0.22,15.95-5.24S147.75,190.03,147.75,186.97
				z"/>
			<path class="st19" d="M146.22,181.73c0,0-5.68,2.18-10.7-1.97"/>
			<g>
				<path class="st17" d="M97.28,158.35c0,0,0.87-5.24,0.87-7.65c0-2.4,0-14.2,9.61-19.44c9.61-5.24,18.57-3.28,24.91-1.31
					c6.34,1.97,10.27,5.24,11.8,7.43c1.53,2.18,2.62,5.02,2.62,5.02s-17.26,2.84-24.47,6.12c-7.21,3.28-13.76,7.86-17.7,9.18
					C101,159.01,97.28,158.35,97.28,158.35z"/>
				<path class="st17" d="M97.28,158.35c0,0,1.53,10.05,2.84,11.58c1.31,1.53,13.11-2.4,20.32-6.34c7.21-3.93,22.28-8.96,25.12-9.61
					c2.84-0.66,6.55-0.66,6.55-0.66s1.09-2.62,0-5.24c-1.09-2.62-3.28-9.18-4.59-9.61c-1.31-0.44-18.57,0.66-26.87,5.68
					c-8.3,5.02-19.22,10.49-20.32,10.92C99.25,155.51,97.28,154.86,97.28,158.35z"/>
			</g>
			<path class="st15" d="M104.71,183.69l-2.18,7.65c0,0,4.15,10.27,15.07,18.35c10.92,8.08,18.35,13.98,18.35,11.8
				c0-2.18-1.97-14.42-1.97-14.42s-22.72-15.51-24.03-17.04C108.64,188.5,105.59,182.6,104.71,183.69z"/>
			<path class="st13" d="M143.92,164.49c0,1.62-0.61,2.93-1.35,2.93c-0.75,0-1.35-1.31-1.35-2.93c0-1.62,0.61-2.93,1.35-2.93
				C143.32,161.56,143.92,162.87,143.92,164.49z"/>
			<path class="st20" d="M138.81,159.09c0,0,3.64-3.49,8.04-1.79"/>
			<path class="st8" d="M145.13,169.71c0,0-3.99,2.77-8.64,3.13"/>
		</g>
		<g>
			<path class="st8" d="M170.35,286.75c0,0,35.11-8.73,37.34-9.95c2.23-1.22,9.94-9.74,9.94-9.74s5.68-3.45,6.9-3.65
				c1.22-0.2,3.86-1.83,4.67-1.22c0.81,0.61,4.26,1.83,4.26,1.83s2.13-0.33,2.68,1.46c0.64,2.07,0.08,3.99-0.5,3.85
				c0,0,1.47,2.81,1.06,4.03c-0.41,1.22-1.42,1.83-1.42,1.83s0.81,2.03,0.41,3.45c-0.41,1.42-1.42,2.64-1.42,2.64
				s-0.61,2.03-1.83,3.45c-1.22,1.42-6.09,2.64-6.9,2.84c-0.81,0.2-3.25,1.62-6.7,2.84c-3.45,1.22-8.32,2.03-8.32,2.03l-48.71,21.72
				L170.35,286.75z"/>
			<path class="st2" d="M233.47,264.02c0,0-4.52-0.03-6.39,0.46c-1.86,0.5-4.47,0.99-4.85,1.24"/>
			<path class="st2" d="M235.65,269.33c0,0-4.23-0.62-6.84,0.25"/>
			<line class="st2" x1="235.29" y1="275.18" x2="229.56" y2="275.42"/>
			<path class="st2" d="M234.28,281.27c0,0-3.84-0.63-4.22-0.51"/>
		</g>
		<g>
			<path class="st15" d="M146.66,265.18c0,0-8.74-13.98-16.6-24.47c-7.86-10.49-16.82-20.54-29.49-21.19
				c-12.67-0.66-17.48,10.05-17.48,19.01c0,8.96,7.21,25.12,13.54,33.64c6.34,8.52,26.43,27.75,33.86,33.43
				c7.43,5.68,17.26,9.18,18.57,9.18c1.31,0,1.31,2.4,6.55,3.06c5.24,0.66,9.18-5.68,13.11-13.11c3.93-7.43,6.77-20.75,3.5-21.19
				c-3.28-0.44-11.58-1.75-12.45,0.66c0,0-4.59-4.37-5.46-4.37c-0.87,0-3.28,0-3.28-0.66C151.03,278.51,146.66,265.18,146.66,265.18
				z"/>
			<path class="st2" d="M159.77,284.19c0,0-0.44,12.23-4.37,18.79c-3.93,6.55-6.77,9.83-6.77,9.83"/>
			<path class="st2" d="M156.71,283.75c0,0-22.94,1.97-20.97,3.28c1.97,1.31,8.96,0.22,8.96,0.22"/>
			<path class="st2" d="M108.09,232.9c6.98,2.04,16.61,5.92,23.28,12.84"/>
			<path class="st2" d="M99.25,230.88c0,0,2.24,0.31,5.66,1.16"/>
			<path class="st2" d="M118.26,241.15c0,0,13.11,4.59,16.17,6.99"/>
		</g>
		<path class="st2" d="M237.88,262.69l28.56-45.66c0,0,32.91-9.48,53.7-32.53c0,0,31.8,1.76,54.32-19.46c0,0,30.65,1.38,46.02-9.02
			c0,0,31.64,1.81,48.81-4.52c0,0,19.89,5.42,37.06,0c0,0,23.95,7.23,36.16,3.16"/>
		<g>
			<g>
				<path class="st8" d="M267.4,219.28c-0.38,0-0.76-0.16-1.01-0.47l-4.26-5.21c-0.44-0.54-0.35-1.33,0.21-1.76
					c0.56-0.43,1.37-0.34,1.81,0.2l4.26,5.21c0.44,0.54,0.35,1.33-0.21,1.76C267.97,219.19,267.68,219.28,267.4,219.28z"/>
			</g>
			<g>
				<path class="st8" d="M321.2,187.49c-0.37-0.07-0.71-0.3-0.9-0.66l-3.18-5.93c-0.33-0.62-0.09-1.38,0.54-1.69
					c0.63-0.32,1.41-0.07,1.74,0.54l3.18,5.93c0.33,0.62,0.09,1.38-0.54,1.69C321.77,187.51,321.47,187.54,321.2,187.49z"/>
			</g>
			<g>
				<path class="st8" d="M374.58,168.46c-0.36-0.12-0.66-0.4-0.8-0.78l-2.33-6.31c-0.24-0.66,0.1-1.37,0.77-1.6
					c0.67-0.23,1.41,0.12,1.65,0.78l2.33,6.31c0.24,0.66-0.1,1.37-0.77,1.6C375.14,168.56,374.84,168.55,374.58,168.46z"/>
			</g>
			<g>
				<path class="st8" d="M420.36,158.93c-0.33-0.2-0.56-0.53-0.62-0.93l-0.96-6.66c-0.1-0.69,0.39-1.32,1.09-1.41
					c0.7-0.08,1.35,0.41,1.45,1.11l0.96,6.66c0.1,0.69-0.39,1.32-1.09,1.41C420.89,159.15,420.6,159.08,420.36,158.93z"/>
			</g>
			<g>
				<path class="st8" d="M468.13,154.47c-0.26-0.21-0.43-0.53-0.43-0.88l-0.06-5.9c-0.01-0.61,0.49-1.11,1.11-1.1
					c0.62,0.01,1.13,0.52,1.13,1.13l0.06,5.9c0.01,0.61-0.49,1.11-1.11,1.1C468.56,154.72,468.32,154.62,468.13,154.47z"/>
			</g>
			<g>
				<path class="st8" d="M506.15,153.86c-0.2-0.16-0.34-0.41-0.34-0.69l-0.05-4.64c-0.01-0.48,0.38-0.87,0.87-0.86
					c0.49,0.01,0.89,0.41,0.89,0.89l0.05,4.64c0.01,0.48-0.39,0.87-0.87,0.86C506.49,154.05,506.3,153.98,506.15,153.86z"/>
			</g>
		</g>
	</g>
</g>
</svg>
