<?xml version="1.0" encoding="utf-8"?>
<!-- Generator: Adobe Illustrator 25.4.1, SVG Export Plug-In . SVG Version: 6.00 Build 0)  -->
<svg version="1.1" xmlns="http://www.w3.org/2000/svg" xmlns:xlink="http://www.w3.org/1999/xlink" x="0px" y="0px"
	 viewBox="0 0 3710 3710" style="enable-background:new 0 0 3710 3710;" xml:space="preserve">
<style type="text/css">
	.st0{fill:#F4F7FA;}
	.st1{fill:url(#SVGID_1_);}
	.st2{opacity:0.5;clip-path:url(#SVGID_00000125600517271064889150000011828401963685486254_);}
	.st3{fill:#FCFDFE;}
	
		.st4{clip-path:url(#SVGID_00000036957182334098387590000002689611585319012740_);fill:url(#SVGID_00000072967189628705744380000000084687471227646391_);}
	.st5{opacity:0.5;clip-path:url(#SVGID_00000036957182334098387590000002689611585319012740_);}
	.st6{fill:#BEB8F2;}
	.st7{fill:url(#SVGID_00000142166187407493874940000001097770293201034373_);}
	.st8{opacity:0.5;clip-path:url(#SVGID_00000179644308587875470770000016829111340085799859_);}
	
		.st9{clip-path:url(#SVGID_00000013905448790595666000000002563226800738232448_);fill:url(#SVGID_00000114065707180197050140000003555299360091883935_);}
	.st10{opacity:0.5;clip-path:url(#SVGID_00000013905448790595666000000002563226800738232448_);}
	.st11{fill:url(#SVGID_00000088132626108111210710000013455635941471587742_);}
	.st12{opacity:0.5;clip-path:url(#SVGID_00000114782026512596762790000008156446230944143769_);}
	.st13{fill:url(#SVGID_00000121276955807686400710000002016773430439721344_);}
	.st14{fill:url(#SVGID_00000143598004068705988300000003673310514334045315_);}
	.st15{fill:url(#SVGID_00000057826525697363892200000012446623084551539626_);}
	.st16{fill:#DE8BDF;}
	.st17{fill:#FFFFFF;}
	.st18{fill:url(#SVGID_00000060722249403530102380000016995374674692822401_);}
	.st19{fill:url(#SVGID_00000135688074724627741590000010769974147147245733_);}
	.st20{fill:url(#SVGID_00000154415684553835984360000013043724252465865663_);}
	.st21{fill:url(#SVGID_00000024714549138859962230000006119446484825537695_);}
	.st22{fill:url(#SVGID_00000170986966775899265750000000277812286094811269_);}
	.st23{fill:url(#SVGID_00000052793524319722829260000010848774759809278128_);}
	.st24{fill:url(#SVGID_00000160911874829736315050000005583368492352586418_);}
	.st25{fill:url(#SVGID_00000103968854282579362610000008096004327257993633_);}
	.st26{opacity:0.3;fill:url(#SVGID_00000085947460669557118840000010013676568568305591_);}
	.st27{opacity:0.3;fill:url(#SVGID_00000141426396814457069130000011879595550392924599_);}
	.st28{fill:url(#SVGID_00000130638149918635138480000002348201047552012950_);}
	.st29{fill:url(#SVGID_00000110437923365827445970000010115844372588064927_);}
	.st30{fill:url(#SVGID_00000111876250090411833540000016037437243689533090_);}
	.st31{fill:url(#SVGID_00000032607023753992449010000015176974176091080122_);}
	.st32{fill:url(#SVGID_00000117636918431321050810000008849377336632515981_);}
	.st33{fill:url(#SVGID_00000039835148057736617080000000006803998162577054_);}
	.st34{opacity:0.3;fill:url(#SVGID_00000141431078014007135490000010930786647887262848_);}
	.st35{fill:url(#SVGID_00000065048278872887998890000005998719080064151944_);}
	.st36{fill:url(#SVGID_00000004511866760350026640000010289403994853432510_);}
	.st37{fill:url(#SVGID_00000077304698538800663880000010669655891999776693_);}
	.st38{fill:url(#SVGID_00000147899266789491301700000000066923528637600954_);}
	.st39{fill:url(#SVGID_00000074426174611181148330000011101700382081356949_);}
	.st40{fill:url(#SVGID_00000086681705522192141520000001274557864838156710_);}
	.st41{fill:url(#SVGID_00000173865330778368048980000011381307056271021990_);}
	.st42{fill:url(#SVGID_00000001653377192656832410000001779317306844965559_);}
	.st43{opacity:0.3;fill:url(#SVGID_00000121280430335580424310000012351867987170572455_);}
	.st44{fill:url(#SVGID_00000002348766351619325000000011956614495047413144_);}
	.st45{fill:url(#SVGID_00000163787401810343015340000003039925515666416279_);}
	.st46{fill:url(#SVGID_00000014618001204513908150000005078186505563155600_);}
	.st47{fill:url(#SVGID_00000101096786823364508240000006772295683639533200_);}
	.st48{fill:url(#SVGID_00000029046347749932687280000001850842038903266694_);}
	.st49{fill:url(#SVGID_00000106855167156974892770000004934636959070200729_);}
	.st50{fill:url(#SVGID_00000016768042745669482560000007051387278937157781_);}
	.st51{fill:url(#SVGID_00000091006188419032581330000009577192959214331583_);}
	.st52{fill:url(#SVGID_00000091698233517214719590000012541163918590262962_);}
	.st53{opacity:0.25;fill:url(#SVGID_00000156568973088833531910000000016105174157676933_);}
	.st54{fill:url(#SVGID_00000088844113557715060610000010203085835869175479_);}
	.st55{fill:url(#SVGID_00000106848279068468824770000018353382378894599863_);}
	.st56{fill:url(#SVGID_00000000924410373157832640000012447587476208411288_);}
	.st57{opacity:0.3;fill:url(#SVGID_00000022526413899636677670000002284907140829919399_);}
	.st58{fill:url(#SVGID_00000075864433636871557570000009237843082226005414_);}
	.st59{opacity:0.4;fill:url(#SVGID_00000031176618616123265720000018017097754681627790_);}
	.st60{fill:url(#SVGID_00000075857459909796490020000009898425817629910201_);}
	.st61{fill:url(#SVGID_00000009577277354776555060000007635432795086090412_);}
	.st62{fill:url(#SVGID_00000134233968957599226090000001309719874310016657_);}
	.st63{fill:url(#SVGID_00000050636904131269117260000006249066514976876981_);}
	.st64{fill:url(#SVGID_00000093898368848413744370000009412286935995099825_);}
	.st65{fill:url(#SVGID_00000097477573790919739840000010962424790626166709_);}
	.st66{fill:url(#SVGID_00000177474632653994536290000012280553010698740114_);}
	.st67{fill:url(#SVGID_00000031203165509101699800000012928089094590246564_);}
	.st68{fill:url(#SVGID_00000168824398738580307430000000364154722737947295_);}
</style>
<g id="Background">
</g>
<g id="Illustration">
	<g>
		<path class="st0" d="M3234.93,1790.59c47.17,240.67,142.76,728.44-86,1054.75c-408.79,583.09-1809.75,558.06-2423.61-196.18
			c-42.87-52.68-402.42-509.04-292.91-1089.42C573.53,811.85,1415.67,270.75,2084.04,417.38
			c422.82,92.76,693.48,442.58,803.32,584.71C2934.09,1062.57,3148.13,1347.7,3234.93,1790.59z"/>
		<g>
			<g>
				<g>
					
						<linearGradient id="SVGID_1_" gradientUnits="userSpaceOnUse" x1="4362.6187" y1="599.4167" x2="4903.0894" y2="1489.1704" gradientTransform="matrix(0.9715 0.2369 -0.2369 0.9715 -3231.9116 -714.3309)">
						<stop  offset="0" style="stop-color:#FF9085"/>
						<stop  offset="1" style="stop-color:#FB6FBB"/>
					</linearGradient>
					<path class="st1" d="M1005.76,1767.87c0.8,0.62,1.61,1.23,2.42,1.84c47.79,36.18,106.41,67.28,178.8,88.11
						c14.4,3.06,28.79,6.13,43.19,9.19c20.38-30.92,34.22-63.98-5.97-87.95c-62.41-37.21-34.1-156.35-5.01-193.68
						c36.01-46.21,117.66-155.52,22.08-214.57c-79.57-49.16-140.96-64.62-118.94-177.47c22.02-112.85-21.23-197.63-123.86-216.47
						c-108-19.83-159.46-183.23-258.43-157.87c-172.46,44.18-96.92,324.16,69.61,441.75c166.53,117.59,43.96,157.37,16.01,247.22
						c-38.16,122.66,136.69,138.5,168.78,198.56C1005.3,1726.88,1007.76,1748,1005.76,1767.87z"/>
					<g>
						<defs>
							<path id="SVGID_00000143618762998422781980000004347645380669773453_" d="M983.57,1835.17l231.96,56.57
								c21.52-29.54,53.55-85.91,8.66-112.68c-62.41-37.21-34.1-156.34-5.01-193.68c36.01-46.21,117.66-155.52,22.08-214.57
								c-79.57-49.16-140.96-64.62-118.94-177.47c22.02-112.85-21.23-197.63-123.86-216.47c-108-19.83-159.46-183.23-258.43-157.87
								c-172.46,44.18-96.92,324.16,69.61,441.75c166.53,117.59,43.96,157.37,16.01,247.22
								c-38.16,122.66,136.69,138.5,168.78,198.56C1019.59,1753.63,999.8,1804.85,983.57,1835.17z"/>
						</defs>
						<clipPath id="SVGID_00000046312960878242171530000015399087837869495168_">
							<use xlink:href="#SVGID_00000143618762998422781980000004347645380669773453_"  style="overflow:visible;"/>
						</clipPath>
						<g style="opacity:0.5;clip-path:url(#SVGID_00000046312960878242171530000015399087837869495168_);">
							<path class="st3" d="M1101.69,1825.32l5.17,0.23c16.94-377.87-149.59-762.12-434.61-1002.78l-3.34,3.95
								C952.73,1066.38,1118.56,1449.02,1101.69,1825.32z"/>
							<path class="st3" d="M1093.28,1618.51l5.02,1.25c35.85-144.26,187.3-226.02,188.83-226.83l-2.42-4.57
								C1283.16,1389.18,1129.7,1471.98,1093.28,1618.51z"/>
							<path class="st3" d="M1102.91,1755.72l5.01-1.29c-37.46-145.98-298.67-230.24-301.31-231.07l-1.56,4.93
								C807.66,1529.12,1066.17,1612.52,1102.91,1755.72z"/>
							<path class="st3" d="M992.62,1261.7l5.1-0.85c-19.72-117.92,90.46-264.44,91.57-265.91l-4.12-3.13
								C1084.05,993.29,972.53,1141.6,992.62,1261.7z"/>
							<path class="st3" d="M874.56,1052.48l3.69-3.62c-95.43-97.22-279.38-102.33-281.23-102.37l-0.11,5.17
								C598.73,951.7,780.62,956.78,874.56,1052.48z"/>
						</g>
					</g>
				</g>
				<g>
					<defs>
						<path id="SVGID_00000122707926809235944070000002927450179865582499_" d="M1315.75,2014.37l-256.56-0.87
							c0,0-47.85-131.77,15.34-224.44c128.92-189.07-45.67-288.79-112.54-341.49c-100.86-79.48-155.07-193.51-6.21-242.57
							c148.85-49.06,0.22-280-181.16-384.89c-177.49-102.64-97.45-477.39,307.11-290.5c241.6,111.61,202.83,368.04,214.04,502.19
							c11.21,134.15,210.62,145.92,141.81,309.52c-58.78,139.74-169.92,241.41-85.7,337.9
							C1436.1,1775.71,1444.48,1883.61,1315.75,2014.37z"/>
					</defs>
					<clipPath id="SVGID_00000081623973776550010650000000617798027281636740_">
						<use xlink:href="#SVGID_00000122707926809235944070000002927450179865582499_"  style="overflow:visible;"/>
					</clipPath>
					
						<linearGradient id="SVGID_00000175281707469646019240000008549031045015457174_" gradientUnits="userSpaceOnUse" x1="3201.7498" y1="548.1341" x2="2691" y2="1999.7399" gradientTransform="matrix(-1 -3.400000e-03 -3.400000e-03 1 4070.4146 -17.6354)">
						<stop  offset="0" style="stop-color:#FFC444"/>
						<stop  offset="0.9964" style="stop-color:#F36F56"/>
					</linearGradient>
					
						<path style="clip-path:url(#SVGID_00000081623973776550010650000000617798027281636740_);fill:url(#SVGID_00000175281707469646019240000008549031045015457174_);" d="
						M1315.75,2014.37l-256.56-0.87c0,0-47.85-131.77,15.34-224.44c128.92-189.07-45.67-288.79-112.54-341.49
						c-100.86-79.48-145.07-181.89-23.24-247.81C1076.6,1125.18,956,925,774.62,820.11c-177.49-102.64-97.45-477.39,307.11-290.5
						c241.6,111.61,202.83,368.04,214.04,502.19c11.21,134.15,210.62,145.92,141.81,309.52c-58.78,139.74-169.92,241.41-85.7,337.9
						C1436.1,1775.71,1444.48,1883.61,1315.75,2014.37z"/>
					<g style="opacity:0.5;clip-path:url(#SVGID_00000081623973776550010650000000617798027281636740_);">
						<path class="st6" d="M1204.64,2037.8l-5.32-0.99c0.62-3.3,61.1-333.67,22.31-679.26c-35.73-318.38-165.5-715.21-580.75-797.63
							l1.05-5.31c184.85,36.69,329.47,137.64,429.83,300.06c80.18,129.75,132.41,298.77,155.26,502.38
							C1265.88,1703.43,1205.25,2034.5,1204.64,2037.8z"/>
						<path class="st6" d="M1110.77,924.36l-5.37-0.69c22.88-178.81-44.41-433.15-45.09-435.7l5.23-1.4
							C1066.22,489.13,1133.79,744.5,1110.77,924.36z"/>
						<path class="st6" d="M1040.93,817.97c-181.94-114.21-352.47-60.29-354.17-59.73l-1.69-5.14
							c1.73-0.57,174.57-55.33,358.74,60.29L1040.93,817.97z"/>
						<path class="st6" d="M1234.67,1584.86c-59.69-255.56-406.78-319.37-410.22-319.71l0.18-5.41
							c3.4,0.01,355.09,66.05,415.31,323.88L1234.67,1584.86z"/>
						<path class="st6" d="M1236.71,1476.67l-5.3-1.12c34.66-163.84,212.89-276.05,214.69-277.17l2.86,4.6
							C1447.18,1204.08,1270.88,1315.11,1236.71,1476.67z"/>
						<path class="st6" d="M1207.68,1984.61c-7.47-99.42-149.11-178.6-150.54-179.39l2.61-4.74
							c5.94,3.27,145.63,81.37,153.32,183.72L1207.68,1984.61z"/>
						<path class="st6" d="M1223.06,1906.57l-5.34-0.93c13.53-77.66,131.28-163.82,169.97-192.13c5.47-4,10.19-7.46,10.91-8.24
							l4.03,3.61c-1,1.12-4.13,3.42-11.74,8.99C1352.64,1745.87,1236.22,1831.06,1223.06,1906.57z"/>
					</g>
				</g>
				<g>
					
						<linearGradient id="SVGID_00000050623589661863515920000003229678693781204133_" gradientUnits="userSpaceOnUse" x1="-1225.9697" y1="457.6726" x2="-589.588" y2="2129.8203" gradientTransform="matrix(-0.9979 -0.0653 -0.0653 0.9979 1659.3927 96.1151)">
						<stop  offset="0" style="stop-color:#AA80F9"/>
						<stop  offset="0.9964" style="stop-color:#6165D7"/>
					</linearGradient>
					<path style="fill:url(#SVGID_00000050623589661863515920000003229678693781204133_);" d="M2481.13,1868.32
						c28.24,60.98,1.33,121.98-24.5,163.04c-6.16,0.04-9.74,1.75-15.96,3.26c-56.17,13.66-82.51,6.71-139.61,10.84
						c-12.29,0.89-48.8-8.27-63.47-13.05l-27.2-9.38c0,0-48.27-148.33,27.58-189.31c75.86-40.97,46.81-188.6,40.45-269.11
						c-17.25-218.45,218.81-198.59,219.08-481.08c0.07-75.13-24.92-218.44,38.43-278.28c72.17-68.18,124.85-1.3,171.25-58.31
						c72.53-89.11,190.22-121.07,260.37-29.37c69.24,90.51-14.89,270.68-224.03,415.48c-138.27,120.88-140.43,157.07-129.55,245.2
						c7.62,61.73,66.51,222.53-17.28,286.75C2512.88,1729.22,2448.84,1798.61,2481.13,1868.32z"/>
					<g>
						<defs>
							<path id="SVGID_00000000217851433890953900000014479843761965761724_" d="M2420.17,2081.29l-205.21-52.86
								c0,0-52.85-153.72,23-194.7c75.86-40.97,46.81-188.6,40.45-269.11c-17.25-218.45,218.81-198.59,219.08-481.08
								c0.07-75.13-24.92-218.44,38.43-278.28c72.17-68.18,124.85-1.3,171.25-58.31c72.53-89.11,190.22-121.07,260.37-29.37
								c69.24,90.51-14.89,270.68-224.03,415.48c-138.27,120.88-140.43,157.07-129.55,245.2c7.62,61.73,66.51,222.53-17.28,286.75
								c-83.79,64.21-147.82,133.6-115.54,203.31C2530.24,1974.4,2420.17,2081.29,2420.17,2081.29z"/>
						</defs>
						<clipPath id="SVGID_00000114765900516343895510000011635988563041961400_">
							<use xlink:href="#SVGID_00000000217851433890953900000014479843761965761724_"  style="overflow:visible;"/>
						</clipPath>
						<g style="opacity:0.5;clip-path:url(#SVGID_00000114765900516343895510000011635988563041961400_);">
							<path class="st3" d="M2330.78,2047.76l-4.17-0.52c3.1-24.84,6.53-49.85,10.19-74.34c27.17-181.33,70.27-353.56,128.13-511.91
								c49.03-134.17,109.3-260.28,179.15-374.83c56.17-92.11,118.82-177.28,186.19-253.13c47.36-53.32,96.56-101.53,146.22-143.28
								c8.65-7.28,17.91-14.23,26.86-20.96c11.93-8.96,24.26-18.23,35.26-28.33l2.84,3.1c-11.15,10.24-23.57,19.57-35.57,28.6
								c-8.91,6.69-18.12,13.62-26.68,20.82c-49.5,41.61-98.55,89.68-145.78,142.85c-67.21,75.67-129.7,160.63-185.74,252.53
								c-69.71,114.31-129.86,240.16-178.79,374.08c-57.76,158.08-100.8,330.04-127.92,511.09
								C2337.3,1997.98,2333.87,2022.96,2330.78,2047.76z"/>
							<path class="st3" d="M2568.46,1231.2l-3.8-1.78c76.59-163.24,9.34-464.84,8.65-467.86l4.1-0.93
								C2578.1,763.67,2645.67,1066.65,2568.46,1231.2z"/>
							<path class="st3" d="M2394.24,1706.64l-3.99-1.33c39.07-117.03,258.16-207.37,260.37-208.27l1.58,3.89
								C2650.02,1501.83,2432.7,1591.44,2394.24,1706.64z"/>
							<path class="st3" d="M2377.81,1774.96l-4.16-0.61c11.59-79.7-15.18-194.59-75.39-323.49c-3.03-6.48-3.03-6.48-2.92-7.27
								l4.17,0.55l-2.08-0.28l2.03-0.52c0.15,0.45,1.29,2.9,2.62,5.74C2362.62,1578.73,2389.52,1694.46,2377.81,1774.96z"/>
							<path class="st3" d="M2337.07,2002.51l-3.81-1.77c37.36-80.46,165.04-112.21,166.32-112.52l0.99,4.08
								C2499.31,1892.61,2373.57,1923.9,2337.07,2002.51z"/>
							<path class="st3" d="M2324.43,2048.09c-15.83-69.76-52.21-137.25-111.21-206.34l3.2-2.73
								c59.46,69.62,96.13,137.7,112.11,208.14L2324.43,2048.09z"/>
							<path class="st3" d="M2794.47,881.15l-3.7-1.99c47.64-88.39,77.21-192.29,86.92-226.43c2.35-8.27,3.19-11.17,3.66-12.13
								l3.78,1.84c-0.35,0.74-1.69,5.46-3.39,11.45C2871.99,688.13,2842.33,792.36,2794.47,881.15z"/>
							<path class="st3" d="M2695.75,1013.4l-2.95-2.99c67.1-66.05,255.4-63.94,263.39-63.82l-0.07,4.2
								C2954.19,950.76,2761.6,948.58,2695.75,1013.4z"/>
						</g>
					</g>
				</g>
				<g>
					<defs>
						<path id="SVGID_00000135668679002381941570000016095261264937566094_" d="M2147.92,2396.63l244.81,76.73
							c0,0,85.45-111.14,53.23-218.57c-65.73-219.2,130.84-261.46,210.52-291.48c120.17-45.27,206.32-137.58,79.26-229.34
							c-127.06-91.77,84.44-266.96,289.05-312.11c200.22-44.18,237.22-425.59-204.91-369.76
							c-264.04,33.34-304.61,289.49-355.85,413.97s-244.89,75.42-228.75,252.16c13.78,150.97,88.98,281.48-20.47,348
							C2105.36,2132.76,2064.75,2233.07,2147.92,2396.63z"/>
					</defs>
					<clipPath id="SVGID_00000174582868644968218780000010884253092825290919_">
						<use xlink:href="#SVGID_00000135668679002381941570000016095261264937566094_"  style="overflow:visible;"/>
					</clipPath>
					
						<linearGradient id="SVGID_00000017512127453111983900000002912248946961970873_" gradientUnits="userSpaceOnUse" x1="5922.8765" y1="417.7218" x2="5412.1133" y2="1869.3658" gradientTransform="matrix(0.9542 0.2991 -0.2991 0.9542 -2498.8721 -1062.5543)">
						<stop  offset="3.597120e-03" style="stop-color:#E38DDD"/>
						<stop  offset="1" style="stop-color:#9571F6"/>
					</linearGradient>
					
						<path style="clip-path:url(#SVGID_00000174582868644968218780000010884253092825290919_);fill:url(#SVGID_00000017512127453111983900000002912248946961970873_);" d="
						M2147.92,2396.63l244.81,76.73c0,0,85.45-111.14,53.23-218.57c-65.73-219.2,130.84-261.46,210.52-291.48
						c120.17-45.27,193.27-129.52,97.07-229.19c-108.85-112.77,66.63-267.12,271.24-312.26
						c200.22-44.18,237.22-425.59-204.91-369.76c-264.04,33.34-304.61,289.49-355.85,413.97s-244.89,75.42-228.75,252.16
						c13.78,150.97,88.98,281.48-20.47,348C2105.36,2132.76,2064.75,2233.07,2147.92,2396.63z"/>
					<g style="opacity:0.5;clip-path:url(#SVGID_00000174582868644968218780000010884253092825290919_);">
						<path class="st6" d="M2246.76,2452.56l5.38,0.66c0.41-3.33,42.64-336.53,184.09-654.22
							c130.32-292.68,373.98-631.7,794.72-584.72l0.6-5.38c-187.29-20.92-355.66,31.6-500.44,156.07
							c-115.65,99.43-216.54,244.76-299.87,431.93C2289.47,2115.33,2247.17,2449.23,2246.76,2452.56z"/>
						<path class="st6" d="M2672.86,1419.6l5.33,0.97c32.25-177.36,173.29-399.45,174.71-401.68l-4.56-2.92
							C2846.9,1018.2,2705.3,1241.2,2672.86,1419.6z"/>
						<path class="st6" d="M2771.59,1339.31c207.96-53.86,354.2,49.1,355.65,50.14l3.17-4.39c-1.47-1.06-149.67-105.52-360.18-50.99
							L2771.59,1339.31z"/>
						<path class="st6" d="M2355.06,2011.74c134.16-225.56,484.3-181.44,487.68-180.73l1.47-5.21
							c-3.25-1.02-358.44-44.39-493.8,183.17L2355.06,2011.74z"/>
						<path class="st6" d="M2385.83,1907.99l5.39,0.53c16.5-166.65-119.47-327.5-120.85-329.1l-4.11,3.52
							C2267.62,1584.53,2402.1,1743.66,2385.83,1907.99z"/>
						<path class="st6" d="M2259.93,2400.94c37.18-92.51,196.12-125.16,197.73-125.48l-1.06-5.31
							c-6.65,1.32-163.42,33.54-201.69,128.77L2259.93,2400.94z"/>
						<path class="st6" d="M2268.87,2321.9l5.37,0.73c10.58-78.11-75.61-195.84-103.93-234.53c-4-5.47-7.46-10.19-7.91-11.15
							l-4.94,2.22c0.62,1.37,2.9,4.51,8.47,12.12C2193.94,2129.55,2279.16,2245.95,2268.87,2321.9z"/>
					</g>
				</g>
				<g>
					
						<linearGradient id="SVGID_00000136398939330009647200000000124007786306021022_" gradientUnits="userSpaceOnUse" x1="1800.6599" y1="1483.0978" x2="2341.134" y2="2372.8572" gradientTransform="matrix(-0.9997 0.0227 0.0227 0.9997 4470.2871 119.3449)">
						<stop  offset="0" style="stop-color:#FFC444"/>
						<stop  offset="0.9964" style="stop-color:#F36F56"/>
					</linearGradient>
					<path style="fill:url(#SVGID_00000136398939330009647200000000124007786306021022_);" d="M2379.65,2458.64
						c-0.92,0.43-1.83,0.85-2.75,1.28c-54.45,25.07-118.38,42.85-193.55,47.64c-14.72-0.1-29.44-0.2-44.15-0.3
						c-13.26-34.58-19.68-69.84,24.72-84.61c68.95-22.94,66.89-145.37,46.5-188.08c-25.25-52.86-81.5-177.16,24.53-214.3
						c88.27-30.92,151.55-32.83,154.28-147.78c2.74-114.95,63.19-188.46,167.47-184.81c109.74,3.84,195.1-144.7,286.31-98.67
						c158.94,80.19,25.02,337.41-162.88,416.49c-187.9,79.07-76.74,144.26-68.74,238.01c10.92,128-163.25,105.9-207.49,157.67
						C2388.9,2418.71,2381.96,2438.8,2379.65,2458.64z"/>
					<g>
						<defs>
							<path id="SVGID_00000065062698649896802080000003141465575176386192_" d="M2386.86,2529.14l-238.7,5.42
								c-14.67-33.47-33.84-95.41,15.75-111.9c68.95-22.94,66.89-145.37,46.5-188.08c-25.25-52.86-81.5-177.16,24.53-214.3
								c88.27-30.92,151.55-32.83,154.28-147.78c2.74-114.95,63.19-188.46,167.47-184.81c109.74,3.84,195.1-144.7,286.31-98.67
								c158.94,80.19,25.02,337.41-162.88,416.49c-187.9,79.07-76.74,144.26-68.74,238.01c10.92,128-163.25,105.9-207.49,157.67
								C2369.2,2441.76,2377.52,2496.04,2386.86,2529.14z"/>
						</defs>
						<clipPath id="SVGID_00000075157843207304785380000001887553955280937891_">
							<use xlink:href="#SVGID_00000065062698649896802080000003141465575176386192_"  style="overflow:visible;"/>
						</clipPath>
						<g style="opacity:0.5;clip-path:url(#SVGID_00000075157843207304785380000001887553955280937891_);">
							<path class="st3" d="M2273.61,2494.14l-5.1-0.88c64.62-372.69,309.81-712.19,639.87-886.01l2.41,4.58
								C2582.12,1784.92,2337.97,2123,2273.61,2494.14z"/>
							<path class="st3" d="M2326.25,2293.97l-5.17,0.14c-4.03-148.6-134.38-260.98-135.69-262.1l3.35-3.94
								C2190.07,2029.2,2322.16,2143.03,2326.25,2293.97z"/>
							<path class="st3" d="M2287.37,2425.91l-4.62-2.33c67.94-134.52,341.16-160.71,343.91-160.95l0.47,5.15
								C2624.41,2268.02,2354.02,2293.94,2287.37,2425.91z"/>
							<path class="st3" d="M2501.21,1967.11l-4.8-1.93c44.59-110.93-31.54-277.7-32.32-279.37l4.69-2.18
								C2469.57,1685.32,2546.63,1854.13,2501.21,1967.11z"/>
							<path class="st3" d="M2661.46,1788.14l-2.83-4.33c114.08-74.45,294.84-39.93,296.66-39.57l-1,5.08
								C2952.49,1748.96,2773.76,1714.85,2661.46,1788.14z"/>
						</g>
					</g>
				</g>
			</g>
			<g>
				<g>
					<g>
						
							<linearGradient id="SVGID_00000129176628088929262870000018184676066674758302_" gradientUnits="userSpaceOnUse" x1="2780.2456" y1="2617.8232" x2="1577.6237" y2="1591.9315">
							<stop  offset="0" style="stop-color:#444B8C"/>
							<stop  offset="0.9964" style="stop-color:#26264F"/>
						</linearGradient>
						<path style="fill:url(#SVGID_00000129176628088929262870000018184676066674758302_);" d="M2486.95,481.07v2513.17
							c0,37.58-32.11,45.67-68.52,46.86l-1247.9,64.54l-18.9,0.62c-38.79,1.27-70.59-29.51-70.59-68.4V437.45
							c0-38.89,31.79-69.66,70.59-68.4l25.66,0.84l1252.47,97.41C2466.17,468.5,2486.95,443.49,2486.95,481.07z"/>
						
							<linearGradient id="SVGID_00000051364942223753058710000011812818649598565267_" gradientUnits="userSpaceOnUse" x1="-1242.0767" y1="3165.0173" x2="3189.5903" y2="3329.8713" gradientTransform="matrix(0 -1 1 0 -1389.0323 1734.3226)">
							<stop  offset="0" style="stop-color:#444B8C"/>
							<stop  offset="0.9964" style="stop-color:#26264F"/>
						</linearGradient>
						<path style="fill:url(#SVGID_00000051364942223753058710000011812818649598565267_);" d="M2525.83,481.07v2513.17
							c0,37.58-29.74,69.31-66.15,70.5l-1269.18,41.52c-38.79,1.27-70.59-29.51-70.59-68.4V437.45c0-38.89,31.79-69.66,70.59-68.4
							l1269.18,41.52C2496.09,411.77,2525.83,443.49,2525.83,481.07z"/>
						
							<linearGradient id="SVGID_00000161596482787847445130000015288360302752161436_" gradientUnits="userSpaceOnUse" x1="1163.8098" y1="1784.7289" x2="2484.7534" y2="1784.7289">
							<stop  offset="0" style="stop-color:#FF9085"/>
							<stop  offset="1" style="stop-color:#FB6FBB"/>
						</linearGradient>
						<path style="fill:url(#SVGID_00000161596482787847445130000015288360302752161436_);" d="M2484.75,619.23v2328.16
							c0,35.09-27.79,64.67-61.81,65.74l-1193.43,37.49c-36.11,1.13-65.7-27.58-65.7-63.81V582.79c0-36.23,29.59-65.01,65.7-63.96
							l1193.43,34.8C2456.96,554.63,2484.75,584.15,2484.75,619.23z"/>
					</g>
					<path class="st16" d="M1858.44,468.04c0,13.24-10.55,23.66-23.57,23.26c-13.03-0.39-23.6-11.46-23.6-24.72
						c0-13.26,10.57-23.67,23.6-23.26C1847.89,443.73,1858.44,454.79,1858.44,468.04z"/>
				</g>
				<g>
					<path class="st0" d="M2299.55,2033.08l-953.13,12.78c-12.05,0.16-21.83-9.49-21.83-21.55v-208.71
						c0-12.06,9.78-21.91,21.83-21.99l953.13-6.45c11.45-0.08,20.72,9.38,20.72,21.13v203.23
						C2320.28,2023.28,2311,2032.93,2299.55,2033.08z"/>
					<path class="st0" d="M2297.39,2417.52l-948.69,22.58c-13.31,0.32-24.11-10.23-24.11-23.55V2212.4
						c0-13.32,10.8-24.31,24.11-24.54l948.69-16.27c12.64-0.22,22.89,10.12,22.89,23.1v198.79
						C2320.28,2406.46,2310.03,2417.22,2297.39,2417.52z"/>
					<path class="st17" d="M2203.31,1163.55c0,209.48-166.64,379.33-374.27,379.36c-209.96,0.03-381.89-173.22-381.89-386.98
						s171.94-383.55,381.89-379.29C2036.68,780.87,2203.31,954.07,2203.31,1163.55z"/>
					
						<linearGradient id="SVGID_00000106864885628037793440000003683282051973083838_" gradientUnits="userSpaceOnUse" x1="1578.8657" y1="533.5717" x2="2736.5159" y2="2900.7063">
						<stop  offset="0" style="stop-color:#AA80F9"/>
						<stop  offset="0.9964" style="stop-color:#6165D7"/>
					</linearGradient>
					<path style="fill:url(#SVGID_00000106864885628037793440000003683282051973083838_);" d="M1983.36,1046.25
						c0,86.32-68.92,155.64-154.21,154.84c-85.61-0.8-155.23-71.89-155.23-158.78s69.63-156.2,155.23-154.83
						C1914.44,888.85,1983.36,959.93,1983.36,1046.25z"/>
					
						<linearGradient id="SVGID_00000074408045323891198890000007308015378275794583_" gradientUnits="userSpaceOnUse" x1="1420.054" y1="611.239" x2="2577.7046" y2="2978.3748">
						<stop  offset="0" style="stop-color:#AA80F9"/>
						<stop  offset="0.9964" style="stop-color:#6165D7"/>
					</linearGradient>
					<path style="fill:url(#SVGID_00000074408045323891198890000007308015378275794583_);" d="M1829.05,1542.92
						c91.78-0.01,175.5-33.2,240.33-88.16c-22.06-114.11-120.95-200.9-240.33-201.8c-120.14-0.91-220.84,85.38-243.45,200.74
						C1651.89,1509.46,1736.81,1542.93,1829.05,1542.92z"/>
					
						<linearGradient id="SVGID_00000121238607689426047370000010683093276024429452_" gradientUnits="userSpaceOnUse" x1="1131.1223" y1="752.5424" x2="2288.7732" y2="3119.6785">
						<stop  offset="0" style="stop-color:#AA80F9"/>
						<stop  offset="0.9964" style="stop-color:#6165D7"/>
					</linearGradient>
					<path style="fill:url(#SVGID_00000121238607689426047370000010683093276024429452_);" d="M1960.24,1944.31l-520.19,5.68
						c-17.7,0.19-32.19-14.18-32.19-31.94l0,0c0-17.76,14.49-32.42,32.19-32.58l520.19-4.79c17.2-0.16,31.26,14.02,31.26,31.5l0,0
						C1991.5,1929.66,1977.44,1944.12,1960.24,1944.31z"/>
					<g>
						
							<linearGradient id="SVGID_00000083769898652672426120000015339094535720200374_" gradientUnits="userSpaceOnUse" x1="768.9297" y1="929.6696" x2="1926.5815" y2="3296.8081">
							<stop  offset="0" style="stop-color:#AA80F9"/>
							<stop  offset="0.9964" style="stop-color:#6165D7"/>
						</linearGradient>
						<path style="fill:url(#SVGID_00000083769898652672426120000015339094535720200374_);" d="M1485.69,2310.62
							c0,22.69-18.32,41.48-40.95,41.96c-22.65,0.49-41.04-17.55-41.04-40.29c0-22.74,18.39-41.53,41.04-41.97
							C1467.37,2269.89,1485.69,2287.93,1485.69,2310.62z"/>
						
							<linearGradient id="SVGID_00000109724697980445422560000006758021157094804654_" gradientUnits="userSpaceOnUse" x1="894.2137" y1="868.4032" x2="2051.8645" y2="3235.5393">
							<stop  offset="0" style="stop-color:#AA80F9"/>
							<stop  offset="0.9964" style="stop-color:#6165D7"/>
						</linearGradient>
						<path style="fill:url(#SVGID_00000109724697980445422560000006758021157094804654_);" d="M1639.07,2307.48
							c0,22.6-18.17,41.31-40.62,41.79c-22.47,0.48-40.71-17.48-40.71-40.13s18.24-41.36,40.71-41.79
							C1620.89,2266.92,1639.07,2284.88,1639.07,2307.48z"/>
						
							<linearGradient id="SVGID_00000071556708676635875750000000612513130891520432_" gradientUnits="userSpaceOnUse" x1="1018.4821" y1="807.6277" x2="2176.1321" y2="3174.7625">
							<stop  offset="0" style="stop-color:#AA80F9"/>
							<stop  offset="0.9964" style="stop-color:#6165D7"/>
						</linearGradient>
						<path style="fill:url(#SVGID_00000071556708676635875750000000612513130891520432_);" d="M1791.2,2304.37
							c0,22.51-18.03,41.14-40.29,41.62c-22.29,0.48-40.38-17.41-40.38-39.97c0-22.55,18.09-41.19,40.38-41.62
							C1773.18,2263.97,1791.2,2281.86,1791.2,2304.37z"/>
						
							<linearGradient id="SVGID_00000070097909305197099030000015947896173453630905_" gradientUnits="userSpaceOnUse" x1="1141.7528" y1="747.3486" x2="2299.4043" y2="3114.4861">
							<stop  offset="0" style="stop-color:#AA80F9"/>
							<stop  offset="0.9964" style="stop-color:#6165D7"/>
						</linearGradient>
						<path style="fill:url(#SVGID_00000070097909305197099030000015947896173453630905_);" d="M1942.12,2301.28
							c0,22.41-17.88,40.97-39.97,41.45c-22.11,0.48-40.05-17.35-40.05-39.81s17.94-41.02,40.05-41.45
							C1924.23,2261.04,1942.12,2278.87,1942.12,2301.28z"/>
						
							<linearGradient id="SVGID_00000114760625863045612850000007491386441787622560_" gradientUnits="userSpaceOnUse" x1="1264.0295" y1="687.5434" x2="2421.6814" y2="3054.6819">
							<stop  offset="0" style="stop-color:#AA80F9"/>
							<stop  offset="0.9964" style="stop-color:#6165D7"/>
						</linearGradient>
						<path style="fill:url(#SVGID_00000114760625863045612850000007491386441787622560_);" d="M2091.82,2298.22
							c0,22.32-17.74,40.8-39.65,41.28c-21.93,0.47-39.73-17.28-39.73-39.65c0-22.37,17.8-40.85,39.73-41.28
							C2074.08,2258.14,2091.82,2275.89,2091.82,2298.22z"/>
					</g>
					<path class="st17" d="M1828.99,1552.22c-104.14,0-202.23-41.22-276.23-116.08c-74.09-74.95-114.9-174.46-114.9-280.2
						c0-106.63,41.4-205.92,116.57-279.59c73.87-72.39,171.44-111.12,274.81-109c102.79,2.09,199.21,44.46,271.49,119.31
						c72.15,74.71,111.88,173.04,111.88,276.89c0,103.88-39.76,201.45-111.95,274.75c-72.33,73.44-168.79,113.9-271.62,113.91
						C1829.03,1552.22,1829,1552.22,1828.99,1552.22z M1821.27,785.88c-95.49,0-185.37,36.68-253.83,103.77
						c-71.57,70.13-110.99,164.71-110.99,266.3c0,100.81,38.9,195.68,109.53,267.12c70.48,71.29,163.89,110.55,263.01,110.56
						c0.02,0,0.03,0,0.06,0c201.24-0.03,364.97-166.04,364.97-370.06c0-204.12-163.81-373.52-365.16-377.6
						C1826.33,785.9,1823.79,785.88,1821.27,785.88z"/>
				</g>
				
					<linearGradient id="SVGID_00000018227106451066581210000008143990918384674721_" gradientUnits="userSpaceOnUse" x1="1766.845" y1="1736.1622" x2="2525.8301" y2="1736.1622">
					<stop  offset="0" style="stop-color:#FF9085"/>
					<stop  offset="1" style="stop-color:#FB6FBB"/>
				</linearGradient>
				<path style="opacity:0.3;fill:url(#SVGID_00000018227106451066581210000008143990918384674721_);" d="M2525.83,479.64
					c0-37.3-29.59-67.87-66.86-69.08l-692.12-22.64c256.73,272.06,314.45,500.32,321.04,656.3
					c18.81,445.24-364.76,639.22-293.44,1126.14c19.55,133.48,62.79,217.32,79.68,447.91c14.4,196.59-0.65,359.3-15.65,466.16
					l601.2-19.67c36.41-1.19,66.15-32.91,66.15-70.5V479.64z"/>
			</g>
			
				<linearGradient id="SVGID_00000117639542856978987930000007523613055354633347_" gradientUnits="userSpaceOnUse" x1="1111.0918" y1="2062.76" x2="1757.1252" y2="2086.7917">
				<stop  offset="0" style="stop-color:#FF9085"/>
				<stop  offset="1" style="stop-color:#FB6FBB"/>
			</linearGradient>
			<path style="opacity:0.3;fill:url(#SVGID_00000117639542856978987930000007523613055354633347_);" d="M1501.06,1733.96
				c7.3-214.47-66.19-304.12-85.67-326.09c-13.75-15.51-26.49-26.5-121.59-105.01c-70.65-58.33-129.54-106.68-171.33-140.94
				c-0.85,600.81-1.7,1201.61-2.55,1802.42c28.47-230.61,83.2-404.53,124.83-515.58C1361.3,2137.89,1491.7,2009.14,1501.06,1733.96z
				"/>
		</g>
		<g>
			
				<linearGradient id="SVGID_00000070825538700555443070000007698336018411230862_" gradientUnits="userSpaceOnUse" x1="2423.7388" y1="2450.1526" x2="2502.0203" y2="2351.0298" gradientTransform="matrix(0.9993 -0.0374 0.0374 0.9993 5.4506 79.4603)">
				<stop  offset="0" style="stop-color:#AA80F9"/>
				<stop  offset="0.9964" style="stop-color:#6165D7"/>
			</linearGradient>
			<path style="fill:url(#SVGID_00000070825538700555443070000007698336018411230862_);" d="M2722.94,2587.9
				c41.63-25.15,24.18-158.39-37.01-250.19c-86.88-130.34-268.74-187.32-304.04-146.21c-36.13,42.07,77.97,190.66,96.5,214.79
				C2545.63,2493.85,2673.7,2617.65,2722.94,2587.9z"/>
			
				<linearGradient id="SVGID_00000018936005809484301960000016026917142033145015_" gradientUnits="userSpaceOnUse" x1="153.9591" y1="3762.2485" x2="282.7272" y2="3762.2485" gradientTransform="matrix(-0.9369 0.3496 0.3496 0.9369 2143.646 -451.6694)">
				<stop  offset="0" style="stop-color:#444B8C"/>
				<stop  offset="0.9964" style="stop-color:#26264F"/>
			</linearGradient>
			<path style="fill:url(#SVGID_00000018936005809484301960000016026917142033145015_);" d="M3195.62,3139.06
				c-7.13,9.44-7.5,25.69,0.08,33.01c7.46,7.19,17.11,0.44,46.02-1.27c30.98-1.83,39.69,4.75,60.17-2.91
				c8.27-3.1,22.75-10.12,21.92-16.15c-0.58-4.24-8.4-5.76-34.63-12.03c-37.24-8.89-37.13-9.57-44.93-10.15
				C3224.69,3128.08,3205.04,3126.59,3195.62,3139.06z"/>
			
				<linearGradient id="SVGID_00000015323885051061322000000000651231674773904546_" gradientUnits="userSpaceOnUse" x1="726.2906" y1="3945.5146" x2="780.5914" y2="3833.1245" gradientTransform="matrix(-0.8508 0.5255 0.5255 0.8508 1784.9674 -593.7634)">
				<stop  offset="0" style="stop-color:#FFC444"/>
				<stop  offset="0.9964" style="stop-color:#F36F56"/>
			</linearGradient>
			<path style="fill:url(#SVGID_00000015323885051061322000000000651231674773904546_);" d="M3195.03,3087.98l32.53,43.14
				c-0.14,3.01-11.76,17.18-26.53,16.38l-39.08-39.1L3195.03,3087.98z"/>
			
				<linearGradient id="SVGID_00000060740357701264376700000001630570224247931535_" gradientUnits="userSpaceOnUse" x1="411.2348" y1="3812.8623" x2="540.0098" y2="3812.8623" gradientTransform="matrix(-0.9293 0.3692 0.3692 0.9293 2120.7793 -460.7804)">
				<stop  offset="0" style="stop-color:#444B8C"/>
				<stop  offset="0.9964" style="stop-color:#26264F"/>
			</linearGradient>
			<path style="fill:url(#SVGID_00000060740357701264376700000001630570224247931535_);" d="M3027.55,3248.9
				c-6.94,9.59-6.96,25.85,0.78,33c7.61,7.03,17.11,0.08,45.99-2.24c30.93-2.48,39.78,3.91,60.1-4.18
				c8.21-3.27,22.53-10.6,21.58-16.61c-0.67-4.23-8.52-5.58-34.88-11.29c-37.41-8.11-37.33-8.78-45.13-9.21
				C3056.38,3237.31,3036.7,3236.23,3027.55,3248.9z"/>
			
				<linearGradient id="SVGID_00000069363950123193827220000006568233353703860924_" gradientUnits="userSpaceOnUse" x1="928.1117" y1="3951.1565" x2="982.412" y2="3838.7673" gradientTransform="matrix(-0.8508 0.5255 0.5255 0.8508 1784.9674 -593.7634)">
				<stop  offset="0" style="stop-color:#FFC444"/>
				<stop  offset="0.9964" style="stop-color:#F36F56"/>
			</linearGradient>
			<path style="fill:url(#SVGID_00000069363950123193827220000006568233353703860924_);" d="M3026.29,3198.84l32.53,43.14
				c-0.14,3.01-11.76,17.18-26.53,16.38l-39.08-39.1L3026.29,3198.84z"/>
			
				<linearGradient id="SVGID_00000000940378452984976250000011315530121470030758_" gradientUnits="userSpaceOnUse" x1="1949.761" y1="2877.0789" x2="2265.5171" y2="2477.2578" gradientTransform="matrix(0.9993 -0.0374 0.0374 0.9993 5.4506 79.4603)">
				<stop  offset="0" style="stop-color:#AA80F9"/>
				<stop  offset="0.9964" style="stop-color:#6165D7"/>
			</linearGradient>
			<path style="fill:url(#SVGID_00000000940378452984976250000011315530121470030758_);" d="M2041.26,2212.9
				c48.69-18.65,123.34-41,216.17-44.47c104.52-3.9,188.47-7.03,248.28,40.2c198.98,157.15,101.45,571.28,87.06,617.35
				c-17.1,54.79-49.64,92.01-49.64,92.01c-19.52,22.33-38.67,35.37-49.04,42.23c-149.68,99.04-242.73,160.61-340.98,135.45
				c-13.07-3.35-72.47-23.95-105.26-73.37c-5.84-8.81-9.5-20.1-10.42-35.87C2022.18,2725.76,2052.92,2464.01,2041.26,2212.9z"/>
			
				<linearGradient id="SVGID_00000088102437736843389990000009636665532122546345_" gradientUnits="userSpaceOnUse" x1="2043.3365" y1="2834.3452" x2="2354.1182" y2="2440.8232" gradientTransform="matrix(1 -5.000000e-04 5.000000e-04 1 26.9588 49.4893)">
				<stop  offset="0" style="stop-color:#AA80F9"/>
				<stop  offset="0.9964" style="stop-color:#6165D7"/>
			</linearGradient>
			<path style="opacity:0.3;fill:url(#SVGID_00000088102437736843389990000009636665532122546345_);" d="M2127.08,2523.62
				c-19.97-54.58,0.67-117.08-43.8-144.34c-16.3-9.99-36.55-14.21-58.6-13.72c2.73,191.89,6.6,383.59,11.36,583.85
				c1.57,66.14,9.84,69.41,73.99,127.35c74.32,67.13,135.48,45.48,245.27,23.46c-143.85-88.37-179.62-136.43-164.97-214.96
				c17.07-91.46,184.53-118.54,177.76-183.56C2360.92,2632.79,2170.73,2642.94,2127.08,2523.62z"/>
			
				<linearGradient id="SVGID_00000042018189255878713590000005056204955436284350_" gradientUnits="userSpaceOnUse" x1="1808.225" y1="2922.6765" x2="2127.2993" y2="2518.6541" gradientTransform="matrix(0.9993 -0.0374 0.0337 0.901 7.5814 140.2558)">
				<stop  offset="0" style="stop-color:#AA80F9"/>
				<stop  offset="0.9964" style="stop-color:#6165D7"/>
			</linearGradient>
			<path style="fill:url(#SVGID_00000042018189255878713590000005056204955436284350_);" d="M2087.16,2216.37
				c-49.41-27.6-163.04,50.92-225.13,118.61c-28.86,31.46-129.32,141-98.07,281.93c5.09,22.97,28.6,130.35,133.23,179.47
				c93.68,43.98,217.33,27.14,314.26-43.74c13.18-11.38,26.36-22.76,39.55-34.14c12.88-13.53,25.76-27.06,38.65-40.59
				c-21.61-14.98-58.16-36.38-108.86-49.09c-77.25-19.37-112.01,7.76-131.09-13.27c-23.5-25.89,28.89-70.53,42.63-184.51
				C2096.03,2400.29,2142.36,2247.2,2087.16,2216.37z"/>
			
				<linearGradient id="SVGID_00000105402378476173344180000009254784848890957488_" gradientUnits="userSpaceOnUse" x1="1659.7864" y1="3683.3088" x2="2092.4031" y2="3135.5151" gradientTransform="matrix(0.938 -0.3467 0.3467 0.938 -203.6298 383.4162)">
				<stop  offset="0" style="stop-color:#444B8C"/>
				<stop  offset="0.9964" style="stop-color:#26264F"/>
			</linearGradient>
			<path style="fill:url(#SVGID_00000105402378476173344180000009254784848890957488_);" d="M2176.87,3064.2
				c6.08,108.6,46.91,48.44,139.33-49c97.34-102.62,326.37-282.99,479.23-214.13c113.85,51.28,102.8,202.99,284.81,298.21
				c32.06,16.77,60.13,26.39,77.38,31.62c19.72-18.24,39.44-36.47,59.15-54.71c-10.58-56.71-57.81-272.95-255.29-409.26
				c-47.74-32.96-138.85-96.43-254.06-94.95C2395.96,2576,2171.26,2964.04,2176.87,3064.2z"/>
			
				<linearGradient id="SVGID_00000109014525523093242950000005375468026451516033_" gradientUnits="userSpaceOnUse" x1="1907.1672" y1="3188.2827" x2="1416.8633" y2="3731.3889" gradientTransform="matrix(0.938 -0.3467 0.3467 0.938 -203.6298 383.4162)">
				<stop  offset="0" style="stop-color:#444B8C"/>
				<stop  offset="0.9964" style="stop-color:#26264F"/>
			</linearGradient>
			<path style="fill:url(#SVGID_00000109014525523093242950000005375468026451516033_);" d="M2033.37,3013.82
				c1.3,63.19,42.56,121.11,89.04,149.39c103.19,62.77,257.72-4.96,344.27-74.22c105.32-84.27,105.28-166.84,159.1-166.43
				c83.62,0.63,98.2,200.59,284.81,298.21c32.06,16.77,60.12,26.39,77.38,31.62c19.72-18.24,39.44-36.47,59.15-54.71
				c-32.36-122.45-82.46-211.42-119.41-266.8c-46.08-69.07-90.44-135.56-176.35-183.74c-90.45-50.74-176.87-53.09-213.59-53.66
				C2306.15,2689.86,2029.97,2848.97,2033.37,3013.82z"/>
			<g>
				
					<linearGradient id="SVGID_00000065048535185679654860000002381748737439769272_" gradientUnits="userSpaceOnUse" x1="2066.7944" y1="3159.7104" x2="1996.3313" y2="2960.0647" gradientTransform="matrix(0.9814 -0.1921 0.1921 0.9814 -127.8708 206.0307)">
					<stop  offset="0" style="stop-color:#311944"/>
					<stop  offset="1" style="stop-color:#893976"/>
				</linearGradient>
				<polygon style="fill:url(#SVGID_00000065048535185679654860000002381748737439769272_);" points="2662.13,2634.26 
					2088.76,2737.65 2255.15,2781.26 2670.89,2671.24 				"/>
				
					<linearGradient id="SVGID_00000079487283216749187680000010187760105645605294_" gradientUnits="userSpaceOnUse" x1="1758.9526" y1="2870.4624" x2="1784.7903" y2="3048.9771" gradientTransform="matrix(0.9814 -0.1921 0.1921 0.9814 -127.8708 206.0307)">
					<stop  offset="0" style="stop-color:#311944"/>
					<stop  offset="1" style="stop-color:#893976"/>
				</linearGradient>
				<path style="fill:url(#SVGID_00000079487283216749187680000010187760105645605294_);" d="M2071.56,2756.8L2071.56,2756.8
					c2.1,10.7,10.66,18.95,21.43,20.64l196.7,35.85l-8.89-49.81l-192.04-25.81C2078.08,2736.73,2069.5,2746.29,2071.56,2756.8z"/>
			</g>
			
				<linearGradient id="SVGID_00000116196659649314973830000010820202420693247109_" gradientUnits="userSpaceOnUse" x1="1767.0874" y1="2906.4907" x2="1913.1256" y2="2906.4907" gradientTransform="matrix(0.9814 -0.1921 0.1921 0.9814 -127.8708 206.0307)">
				<stop  offset="0" style="stop-color:#FFC444"/>
				<stop  offset="0.9964" style="stop-color:#F36F56"/>
			</linearGradient>
			<path style="fill:url(#SVGID_00000116196659649314973830000010820202420693247109_);" d="M2163.69,2711.8
				c-3.66-0.1,8.9-45.18,26.01-43.61c17.1,1.57,105.18,31.93,116.06,49.4c10.89,17.47,10.89,17.47,10.89,17.47
				s-33.98,9.45-56.78,6.45C2237.05,2738.51,2193.46,2712.58,2163.69,2711.8z"/>
			<g>
				<g>
					
						<linearGradient id="SVGID_00000141436419731109949180000002613784068855438236_" gradientUnits="userSpaceOnUse" x1="2514.8342" y1="2767.6277" x2="2377.4355" y2="2572.5217" gradientTransform="matrix(0.9971 -0.0759 0.0759 0.9971 -52.0933 75.7368)">
						<stop  offset="0" style="stop-color:#444B8C"/>
						<stop  offset="0.9964" style="stop-color:#26264F"/>
					</linearGradient>
					<path style="fill:url(#SVGID_00000141436419731109949180000002613784068855438236_);" d="M2263.23,2405.66l-12.58,375.92
						c-0.44,12.97,19.03,30.77,31.91,29.17l597.86-82.57c9.83-1.22,17.5-9.11,18.43-18.97l48-365.8
						c1.25-13.27-23.33-25.01-36.59-23.63l-628.11,65.59C2271.65,2386.46,2263.58,2395.12,2263.23,2405.66z"/>
					
						<linearGradient id="SVGID_00000178189033561504245890000017429553065213102497_" gradientUnits="userSpaceOnUse" x1="2251.2881" y1="3090.5068" x2="2551.9648" y2="2479.7578" gradientTransform="matrix(0.9971 -0.0759 0.0759 0.9971 -52.0933 75.7368)">
						<stop  offset="0" style="stop-color:#311944"/>
						<stop  offset="1" style="stop-color:#893976"/>
					</linearGradient>
					<path style="fill:url(#SVGID_00000178189033561504245890000017429553065213102497_);" d="M2277.79,2415.49l-12.59,375.93
						c-0.43,12.97,10.83,23.26,23.71,21.67l606.07-75.07c9.83-1.22,17.5-9.11,18.43-18.97l34.62-366.44
						c1.25-13.28-9.96-24.38-23.22-22.99l-628.11,65.59C2286.21,2396.28,2278.14,2404.95,2277.79,2415.49z"/>
				</g>
				
					<linearGradient id="SVGID_00000034049610644563029860000014574553641448367766_" gradientUnits="userSpaceOnUse" x1="2104.3899" y1="2698.4954" x2="2764.958" y2="2698.4954" gradientTransform="matrix(0.9971 -0.0759 0.0759 0.9971 -52.0933 75.7368)">
					<stop  offset="0" style="stop-color:#311944"/>
					<stop  offset="1" style="stop-color:#893976"/>
				</linearGradient>
				<path style="opacity:0.3;fill:url(#SVGID_00000034049610644563029860000014574553641448367766_);" d="M2656.26,2668.31
					c-54.82-18.47-39.34-62.82-106.13-111.54c-88.11-64.27-170.11-27.25-203.8-79.7c-10.49-16.34-16.9-42.51-4.15-86.63l-45.48,4.75
					c-10.49,1.09-18.56,9.76-18.91,20.3l-12.59,375.93c-0.43,12.97,10.83,23.26,23.71,21.67l606.07-75.07
					c9.83-1.22,17.5-9.11,18.43-18.97l4.78-50.57c-19.24-8.87-42-16.53-68.13-19.79
					C2759.44,2637.37,2719.37,2689.57,2656.26,2668.31z"/>
			</g>
			<g>
				
					<linearGradient id="SVGID_00000092437470606211812580000014095617006413349786_" gradientUnits="userSpaceOnUse" x1="2580.6223" y1="1621.3127" x2="2595.1687" y2="1233.8467" gradientTransform="matrix(0.9313 0.3642 -0.3642 0.9313 398.2288 -120.1834)">
					<stop  offset="0" style="stop-color:#FFC444"/>
					<stop  offset="0.9964" style="stop-color:#F36F56"/>
				</linearGradient>
				<path style="fill:url(#SVGID_00000092437470606211812580000014095617006413349786_);" d="M2261.85,2025.27
					c1.77,38.74-1.4,69.63-4.7,90.83c-3.78,24.29-6.93,30.64-11.05,35.86c0,0-1.3,1.65-2.79,3.13c-3.78,3.77-51.31,13.03-65.32,16.3
					c-1.48,0.35-28.92,7.02-36.79,21.77c-0.06,0.1-0.21,0.39-0.29,0.83c-2.71,14.75,81.55,61.52,166.23,46.32
					c51.82-9.3,98.11-40.8,94.62-56.3c-3.52-15.6-55.24-5.22-71.82-33.06c-11.53-19.37-0.48-47.88,12.94-71.66
					C2328.08,2053.87,2276.67,2050.69,2261.85,2025.27z"/>
				<g>
					
						<linearGradient id="SVGID_00000026125095290678492520000000122394170819639979_" gradientUnits="userSpaceOnUse" x1="-88.8391" y1="1867.6942" x2="-226.8325" y2="1517.2163" gradientTransform="matrix(-0.9773 -0.2121 -0.2121 0.9773 2475.9617 414.7617)">
						<stop  offset="0" style="stop-color:#444B8C"/>
						<stop  offset="0.9964" style="stop-color:#26264F"/>
					</linearGradient>
					<path style="fill:url(#SVGID_00000026125095290678492520000000122394170819639979_);" d="M2373.02,2070.45
						c33.11-9.61,54.47-123.64,26.61-137.42c-13.32-6.59-23.19,17.02-76.29,38.15c-42.5,16.91-60.46,11.44-72.22,30.09
						c-11.62,18.43-4.48,45.11-0.82,64.03c1.59,8.21,6.9,12.08,11.09,18.95c5.8,9.52,14.85,24.62,29.51,49.77
						c2.86-5.83,6.82-12.96,12.26-20.44c2.1-2.88,10.43-14.08,35.1-30.83C2354.02,2072.03,2369.23,2071.55,2373.02,2070.45z"/>
					
						<linearGradient id="SVGID_00000107548616724278793610000006367972781304320387_" gradientUnits="userSpaceOnUse" x1="1598.1223" y1="1689.9933" x2="1593.5867" y2="2055.4275" gradientTransform="matrix(0.9884 0.1519 -0.1519 0.9884 992.1978 145.2596)">
						<stop  offset="0" style="stop-color:#FFC444"/>
						<stop  offset="0.9964" style="stop-color:#F36F56"/>
					</linearGradient>
					<path style="fill:url(#SVGID_00000107548616724278793610000006367972781304320387_);" d="M2267.29,2110.37
						c0,0,13.63,39.8,56.81,46.43c38.66,5.94,63.12-78.3,42.78-101.82c-6.79-7.84-22.5-13.95-36.54-13.16
						c-8.3,0.46-11.66,3.12-25.22,3.62c-12.52,0.46-15.57-1.59-19.81,0.62c-5.3,2.78-10.61,11.27-8.67,37.91
						c-5.65-8.97-13.75-13.72-20.58-12.17c-1.09,0.25-4.1,1.45-6.17,3.82C2242.42,2084.21,2248.58,2098.65,2267.29,2110.37z"/>
					
						<linearGradient id="SVGID_00000130611217758963432450000010922496813797651859_" gradientUnits="userSpaceOnUse" x1="-135.0024" y1="1832.9984" x2="-233.7251" y2="1582.2609" gradientTransform="matrix(-0.9773 -0.2121 -0.2121 0.9773 2475.9617 414.7617)">
						<stop  offset="0" style="stop-color:#444B8C"/>
						<stop  offset="0.9964" style="stop-color:#26264F"/>
					</linearGradient>
					<path style="fill:url(#SVGID_00000130611217758963432450000010922496813797651859_);" d="M2284.72,2040.57
						c1.54,1.78-5.6,7.39-8.16,17.01c-4.98,18.66,9.1,45.49,28.13,51.7c11.25,3.67,15.94-2.56,35.4-0.37
						c12.05,1.36,21.51,5.02,27.38,7.73c1.41,21.98-8.76,41.34-24.68,47.85c-17.14,7.01-34.76-3.43-42.12-7.8
						c-4.93-2.92-20.72-12.24-26.17-29.81c-5.68-18.32,5.59-26.11-2.62-39.46c-4.14-6.73-10.65-10.69-15.14-22.95
						c-1.22-3.33-1.89-6.19-2.27-8.09C2266.61,2048.11,2282.5,2038,2284.72,2040.57z"/>
					
						<linearGradient id="SVGID_00000109747100180345910010000008243217319634299274_" gradientUnits="userSpaceOnUse" x1="-231.6253" y1="1681.9174" x2="-226.491" y2="1727.6891" gradientTransform="matrix(-0.9773 -0.2121 -0.2121 0.9773 2475.9617 414.7617)">
						<stop  offset="0" style="stop-color:#FFC444"/>
						<stop  offset="1" style="stop-color:#F36F56"/>
					</linearGradient>
					<path style="fill:url(#SVGID_00000109747100180345910010000008243217319634299274_);" d="M2351.95,2121.24
						c0,0-9.18,2.48-23.23-1.46c-0.68-0.19-1.49-0.16-1.66,0.18c-0.62,1.28,7.16,9.34,16.09,8.84c6.34-0.36,12.23-4.99,11.75-6.6
						C2354.69,2121.51,2353.33,2121.29,2351.95,2121.24z"/>
				</g>
			</g>
		</g>
		<g>
			
				<linearGradient id="SVGID_00000106134065222162102280000015006083324101673608_" gradientUnits="userSpaceOnUse" x1="774.4022" y1="1224.9286" x2="1056.0787" y2="1492.6606" gradientTransform="matrix(0.9531 0.3027 -0.3027 0.9531 179.6148 -132.1562)">
				<stop  offset="0" style="stop-color:#AA80F9"/>
				<stop  offset="0.9964" style="stop-color:#6165D7"/>
			</linearGradient>
			<path style="fill:url(#SVGID_00000106134065222162102280000015006083324101673608_);" d="M459.25,1669.62
				c-15.89-46.68-4.76-100.34,19.76-137.84c41.44-63.38,95.45-41.35,149.55-111.63c35-45.46,66.84-84.29,105.7-113.37
				c28.59-21.39,96.23-45.62,122.65-28.8c79.06,50.33-66,478.85-225.93,503.24C566.99,1790.97,483.14,1739.78,459.25,1669.62z"/>
			<g>
				
					<linearGradient id="SVGID_00000009570523038782051910000017499408476062081951_" gradientUnits="userSpaceOnUse" x1="1104.2583" y1="2979.552" x2="1186.4865" y2="2979.552" gradientTransform="matrix(0.9942 0.1073 -0.1073 0.9942 -84.7215 -32.2266)">
					<stop  offset="0" style="stop-color:#AA80F9"/>
					<stop  offset="0.9964" style="stop-color:#6165D7"/>
				</linearGradient>
				<path style="fill:url(#SVGID_00000009570523038782051910000017499408476062081951_);" d="M762.64,3022.83
					c4.22,9.01,8.99,22.2,10.25,38.62c0.55,7.2,0.33,13.72-0.24,19.38c-4.64,6.84-26.34,30.33-55.64,36.13
					c-18.13,3.59-47.52-11.78-14.22-32.58c33.29-20.8,38.27-25.81,28.48-78.98c-2.52-13.68-1.53-18.68,0.62-19.65
					C736.9,2983.5,751.19,3004.48,762.64,3022.83z"/>
				
					<linearGradient id="SVGID_00000011724625496176451440000003164342656202800033_" gradientUnits="userSpaceOnUse" x1="1261.2643" y1="3003.457" x2="1343.4923" y2="3003.457" gradientTransform="matrix(0.9942 0.1073 -0.1073 0.9942 -84.7215 -32.2266)">
					<stop  offset="0" style="stop-color:#AA80F9"/>
					<stop  offset="0.9964" style="stop-color:#6165D7"/>
				</linearGradient>
				<path style="fill:url(#SVGID_00000011724625496176451440000003164342656202800033_);" d="M916.17,3063.44
					c4.22,9.01,8.99,22.2,10.25,38.62c0.55,7.2,0.33,13.72-0.24,19.38c-4.64,6.84-26.34,30.33-55.64,36.13
					c-18.13,3.59-47.52-11.78-14.22-32.58c33.29-20.8,38.27-25.81,28.48-78.98c-2.52-13.68-1.53-18.68,0.62-19.65
					C890.43,3024.11,904.72,3045.09,916.17,3063.44z"/>
				
					<linearGradient id="SVGID_00000111870448404769278340000017671862575357748413_" gradientUnits="userSpaceOnUse" x1="751.5429" y1="2446.4404" x2="1251.452" y2="2446.4404" gradientTransform="matrix(0.9998 -0.0174 0.0174 0.9998 -179.4408 43.821)">
					<stop  offset="0" style="stop-color:#444B8C"/>
					<stop  offset="0.9964" style="stop-color:#26264F"/>
				</linearGradient>
				<path style="fill:url(#SVGID_00000111870448404769278340000017671862575357748413_);" d="M1075.84,1952.62
					c11.01,67.03,22.01,134.06,33.02,201.08c-24.11,63.41-46.52,132.5-65.52,207.11c-68.61,269.53-111.39,529.11-114.52,715.06
					c-15.1,5.47-30.21,10.93-45.31,16.39c-27.06-102.19-18.89-256.7-42.94-438.9c-28.42-215.26-9.1-383.54-18.99-384.13
					c-9.48-0.57-36.05,153.49-36.09,329.43c-0.05,185.98-21.44,335.71-7.65,443.2c-18.1,1.08-36.19,2.16-54.29,3.24
					c-50.11-142.15-72.01-311.52-97.38-535.47c-17.62-155.52-38.41-362.13,65.49-575.28c10.38-21.29,46.6-68.53,53.39-80.21
					C864.18,1876.96,956.69,1929.83,1075.84,1952.62z"/>
				
					<linearGradient id="SVGID_00000137833097461201538540000000327961888584232621_" gradientUnits="userSpaceOnUse" x1="778.1605" y1="2419.1067" x2="1260.9958" y2="2419.1067" gradientTransform="matrix(0.9947 0.1031 -0.1031 0.9947 68.8918 -44.2863)">
					<stop  offset="0" style="stop-color:#444B8C"/>
					<stop  offset="0.9964" style="stop-color:#26264F"/>
				</linearGradient>
				<path style="opacity:0.25;fill:url(#SVGID_00000137833097461201538540000000327961888584232621_);" d="M1043.34,2360.82
					c18.99-74.62,41.41-143.7,65.52-207.11c-11.01-67.03-22.01-134.06-33.02-201.08c-119.15-22.8-211.66-75.66-330.81-98.46
					c-6.79,11.68-43.01,58.92-53.39,80.21c-35.02,71.85-55.84,142.95-67.42,211.61c230.51-2.52,297.22,45.48,315.58,89.73
					c29.24,70.43-59.68,141.86-28.22,284.41c9.46,42.87,23.59,63.99,25.25,117.7c2.18,70.47-20.82,77.31-24.43,149
					c-3.94,78.44-31.11,155.1-18.37,210.7c7.92,34.56,17.19,62.67,24.32,82.15c3.49-1.26,6.97-2.52,10.46-3.78
					C931.95,2889.93,974.73,2630.34,1043.34,2360.82z"/>
			</g>
			
				<linearGradient id="SVGID_00000127754087543664149130000005846765306420476062_" gradientUnits="userSpaceOnUse" x1="1767.9932" y1="1545.8309" x2="829.4194" y2="1051.2178" gradientTransform="matrix(0.9947 0.1031 -0.1031 0.9947 68.8918 -44.2863)">
				<stop  offset="0" style="stop-color:#311944"/>
				<stop  offset="1" style="stop-color:#6B3976"/>
			</linearGradient>
			<path style="fill:url(#SVGID_00000127754087543664149130000005846765306420476062_);" d="M977.07,1022.45
				c7.39,9.88-3.59,23.13-5.78,71.37c-1,22.07,0.33,40.57,1.81,53.71c0.42,11.89,1.09,22.92,2.02,32.65
				c0.68,7.15,1.41,12.73,2.44,18.67c1.9,11.02,4.63,21.96,8.1,32.5c0.23,0.7-0.11,1.44-0.78,1.73c-0.04,0.02-0.08,0.03-0.12,0.04
				c-0.74,0.24-1.53-0.16-1.78-0.9c-3.51-10.67-6.27-21.73-8.2-32.89c-1.04-6.02-1.78-11.67-2.46-18.89
				c-0.49-5.13-0.9-10.64-1.25-16.42c-1.58,15.21-1.9,32,3.5,54.43c16.41,68.08-36.43,112.89-78.08,114.69
				c-48.03,2.08-80.58-35.98-90.65-48.44c-40.58-50.2-48.39-132.01-10.23-191.84C845.61,1014.5,958.96,998.24,977.07,1022.45z"/>
			
				<linearGradient id="SVGID_00000098190243415885357790000008089061918928155791_" gradientUnits="userSpaceOnUse" x1="1757.2773" y1="1566.1482" x2="818.7114" y2="1071.5392" gradientTransform="matrix(0.9947 0.1031 -0.1031 0.9947 68.8918 -44.2863)">
				<stop  offset="0" style="stop-color:#311944"/>
				<stop  offset="1" style="stop-color:#6B3976"/>
			</linearGradient>
			<path style="fill:url(#SVGID_00000098190243415885357790000008089061918928155791_);" d="M855.62,1087.99
				c2.05-7.61,11.35-38.63,39.75-58.09c53.88-36.91,140.25-7.29,189.77,36.17c51.82,45.47,30.27,76.93,81.2,127.43
				c55.32,54.84,94.14,30.89,171.04,83.87c30.25,20.84,111.75,77,117.2,164.6c4.71,75.7-48.83,151.51-114.34,180.76
				c-112.15,50.07-252.6-39.35-318.86-121.58c-63.55-78.87-20.67-98.18-111.03-250.5C877.67,1195.57,840.27,1144.85,855.62,1087.99z
				"/>
			
				<linearGradient id="SVGID_00000083072810428808568660000015636327379612937917_" gradientUnits="userSpaceOnUse" x1="1005.4067" y1="1550.9626" x2="1822.004" y2="2068.4097" gradientTransform="matrix(0.969 0.2472 -0.2472 0.969 191.9047 -160.8439)">
				<stop  offset="0" style="stop-color:#AA80F9"/>
				<stop  offset="0.9964" style="stop-color:#6165D7"/>
			</linearGradient>
			<path style="fill:url(#SVGID_00000083072810428808568660000015636327379612937917_);" d="M774.8,1308.79
				c-40.97,41.47-52,91.33-55.23,113.62c-10.04,69.32,17.19,125.86,23.58,140.72c30.21,70.18,19.08,208.5-157.02,506.36
				c16.74,13.95,74.45,117.24,101.75,67.71c37.22-67.53,206.05-542.64,43.22,20.4c-2.15,7.42,14.45,5.93,21.99,8.74
				c54.09,20.19,119.04,34.9,192.85,33.98c115.67-1.44,203.82-40.65,250.41-65.85c-31.6-73.67-64.68-173.37-78.83-294.37
				c-27-230.84,29.18-417.01,68.33-517.4c-35.7-24.68-148.78-96.15-282.56-73.05C869.96,1255.38,817.95,1265.1,774.8,1308.79z"/>
			
				<linearGradient id="SVGID_00000164507217029482839490000003903549281283767694_" gradientUnits="userSpaceOnUse" x1="930.9307" y1="1502.7839" x2="1704.9337" y2="1993.2406" gradientTransform="matrix(0.9947 0.1031 -0.1031 0.9947 68.8918 -44.2863)">
				<stop  offset="0" style="stop-color:#AA80F9"/>
				<stop  offset="0.9964" style="stop-color:#6165D7"/>
			</linearGradient>
			<path style="opacity:0.3;fill:url(#SVGID_00000164507217029482839490000003903549281283767694_);" d="M1117.53,1840.08
				c-27-230.84,29.18-417.01,68.33-517.4c-35.7-24.68-148.78-96.15-282.56-73.05c-33.33,5.76-85.34,15.48-128.5,59.16
				c-32.62,33.02-46.23,71.31-52.06,96.82c1-0.17,2.38-0.39,4.02-0.62c82.39-11.38,177.55,54.91,210.09,117.61
				c54.29,104.64-70.6,190.14-67.47,355.98c1.69,89.65,40.65,195.65,159.77,314.03c74.87-12.93,132.56-39.41,167.22-58.15
				C1164.76,2060.79,1131.68,1961.08,1117.53,1840.08z"/>
			
				<linearGradient id="SVGID_00000176731366199262737150000007288995340164961184_" gradientUnits="userSpaceOnUse" x1="2123.0625" y1="1325.9576" x2="2138.0332" y2="927.1894" gradientTransform="matrix(-0.9999 -0.0164 -0.0164 0.9999 3063.3711 184.0832)">
				<stop  offset="0" style="stop-color:#FFC444"/>
				<stop  offset="0.9964" style="stop-color:#F36F56"/>
			</linearGradient>
			<path style="fill:url(#SVGID_00000176731366199262737150000007288995340164961184_);" d="M934.58,1166.61
				c-11.74,23.82-21.65,53.63-8.72,73.62c7.87,12.18,20.91,18.96,33.78,25.36c30.42,15.11,44.53,8.97,50.53,18.14
				c13.21,20.18-24.2,97.17-85.23,103.86c-60.74,6.65-115.71-59.52-106.57-87.48c8.25-25.22,68.04-17.31,78.73-49.19
				c5.38-16.05-4.47-33.87-13.12-45.93l-7.15,0.63L934.58,1166.61z"/>
			
				<linearGradient id="SVGID_00000069383849020269708700000014649808916802143665_" gradientUnits="userSpaceOnUse" x1="998.4723" y1="1368.1106" x2="1010.7328" y2="1041.53" gradientTransform="matrix(0.9947 0.1031 -0.1031 0.9947 68.8918 -44.2863)">
				<stop  offset="0" style="stop-color:#FFC444"/>
				<stop  offset="0.9964" style="stop-color:#F36F56"/>
			</linearGradient>
			<path style="opacity:0.4;fill:url(#SVGID_00000069383849020269708700000014649808916802143665_);" d="M1010.17,1283.72
				c-6-9.17-20.12-3.03-50.53-18.14c-12.87-6.39-25.9-13.18-33.78-25.36c-12.92-19.99-3.01-49.79,8.72-73.61l-57.75,39l7.15-0.62
				c6.86,9.58,14.36,22.78,14.52,35.84c4.2,2.9,7.74,6.09,10.25,9.18c-7.97,17.18-10.67,32.02-11.7,41.61
				c-1.62,14.96-2.82,26.07,3.6,36.57c7,11.45,18.97,15.47,29.43,18.97c23.24,7.8,44.96,5.21,59.23,1.79
				C1009.04,1324.29,1017.59,1295.05,1010.17,1283.72z"/>
			
				<linearGradient id="SVGID_00000107558151819651146690000002878412481328068525_" gradientUnits="userSpaceOnUse" x1="2128.655" y1="1186.6033" x2="2124.6177" y2="1511.8873" gradientTransform="matrix(-0.9871 0.1603 0.1672 1.0296 2789.7134 -426.1559)">
				<stop  offset="0" style="stop-color:#FFC444"/>
				<stop  offset="0.9964" style="stop-color:#F36F56"/>
			</linearGradient>
			<path style="fill:url(#SVGID_00000107558151819651146690000002878412481328068525_);" d="M923.92,1189.56
				c0,0,2.02,30.59-27.75,35.71c-36.68,6.31-56.9-89.89-48.89-96.91c9.28-8.14,20.96,6.07,44.14-3.43c9.76-4,16.36-18.51,23.84-5.3
				c8.52,15.02,8.29,44.17,8.29,44.17s7.53-8.65,10.31-0.21C937.5,1174.62,930.18,1183.12,923.92,1189.56z"/>
			
				<linearGradient id="SVGID_00000132089904751916372310000011502815707299395729_" gradientUnits="userSpaceOnUse" x1="1788.6464" y1="1506.6378" x2="850.0756" y2="1012.0262" gradientTransform="matrix(0.9947 0.1031 -0.1031 0.9947 68.8918 -44.2863)">
				<stop  offset="0" style="stop-color:#311944"/>
				<stop  offset="1" style="stop-color:#6B3976"/>
			</linearGradient>
			<path style="fill:url(#SVGID_00000132089904751916372310000011502815707299395729_);" d="M869.19,1078.15
				c-12.99,10.76-21.88,33.34-14.95,45.87c9.96,18,46.38,4.06,58.4,26.06c5.27,9.65,3.62,22.1,6.85,22.23
				c2.68,0.11,5.15-8.39,7.43-15.35c12.53-38.39,22.77-41.79,20.96-53.34C944.18,1080.13,895.86,1056.05,869.19,1078.15z"/>
			
				<linearGradient id="SVGID_00000114073861217077463250000010446691806870130835_" gradientUnits="userSpaceOnUse" x1="1287.3954" y1="1355.5757" x2="1750.382" y2="1648.9529" gradientTransform="matrix(0.9531 0.3027 -0.3027 0.9531 179.6148 -132.1562)">
				<stop  offset="0" style="stop-color:#AA80F9"/>
				<stop  offset="0.9964" style="stop-color:#6165D7"/>
			</linearGradient>
			<path style="fill:url(#SVGID_00000114073861217077463250000010446691806870130835_);" d="M1084.77,1319.38
				c40.46,2.57,44.52-9.57,89.3,23.24c128.59,94.2,212,359.92,84.49,488.34c-70.92,71.43-200.36,115.04-310.47,60.52
				c-89.64-44.38-122.7-132.12-130.72-155.62c1.48-23.55,2.95-47.1,4.43-70.65c50.35,54.31,93.6,68.04,124.98,69.72
				c53.41,2.86,75.59-29.01,166.95-34.05c35.59-1.96,55.47,1.6,59.62-8.09c8.58-20.02-69.09-52.28-105.66-111.63
				C1041.01,1537.91,1024.85,1461.86,1084.77,1319.38z"/>
			
				<linearGradient id="SVGID_00000041974869378002610990000008996134517510024122_" gradientUnits="userSpaceOnUse" x1="1768.931" y1="1544.0297" x2="830.3643" y2="1049.4202" gradientTransform="matrix(0.9947 0.1031 -0.1031 0.9947 68.8918 -44.2863)">
				<stop  offset="0" style="stop-color:#311944"/>
				<stop  offset="1" style="stop-color:#6B3976"/>
			</linearGradient>
			<path style="fill:url(#SVGID_00000041974869378002610990000008996134517510024122_);" d="M926.95,1120.64
				c-9.12,8.1,5.78,39.61,35.95,102.3c18.57,38.58,27.85,57.87,34.22,66.46c34.26,46.22,96.08,85.49,162.38,88.66
				c45.5,2.17,53.93-14.53,90.37-4.5c54.97,15.13,82,65.85,84.8,63.62c3.09-2.47-26.76-66.9-94.06-125.02
				c-55.06-47.56-72.5-36.74-159.84-103.76c-6.34-4.86-33.15-25.56-71.3-49.68C964.61,1130.37,936.02,1112.58,926.95,1120.64z"/>
			<g>
				
					<linearGradient id="SVGID_00000017497272640249100240000016817900391138071936_" gradientUnits="userSpaceOnUse" x1="1148.8549" y1="1334.2428" x2="1060.947" y2="1438.0029" gradientTransform="matrix(0.9531 0.3027 -0.3027 0.9531 179.6148 -132.1562)">
					<stop  offset="0" style="stop-color:#FFC444"/>
					<stop  offset="0.9964" style="stop-color:#F36F56"/>
				</linearGradient>
				<path style="fill:url(#SVGID_00000017497272640249100240000016817900391138071936_);" d="M568.95,1475.52l93.52,231.36
					c1.59,4.29,5.06,7.6,9.41,8.98l107.81,34.24c11.14,3.54,21.79-6.6,18.82-17.9l-57.63-218.73c-1.32-5.01-5.09-16.11-14.64-19.15
					l-131.32-37.96C583.22,1452.9,564.71,1464.07,568.95,1475.52z"/>
				
					<linearGradient id="SVGID_00000101782553029755647700000003840003827981198487_" gradientUnits="userSpaceOnUse" x1="854.5153" y1="1501.9603" x2="1337.3156" y2="1501.9603" gradientTransform="matrix(0.9531 0.3027 -0.3027 0.9531 179.6148 -132.1562)">
					<stop  offset="0" style="stop-color:#FF9085"/>
					<stop  offset="1" style="stop-color:#FB6FBB"/>
				</linearGradient>
				<path style="fill:url(#SVGID_00000101782553029755647700000003840003827981198487_);" d="M567.76,1479.18l82.8,223.91
					c1.59,4.29,5.06,7.6,9.41,8.98l107.81,34.24c11.14,3.54,21.79-6.6,18.82-17.9l-57.63-218.73c-1.32-5.01-5.15-8.96-10.12-10.43
					l-132.98-39.42C574.17,1456.36,563.53,1467.73,567.76,1479.18z"/>
			</g>
			
				<linearGradient id="SVGID_00000096741194445499061170000011614202544056454278_" gradientUnits="userSpaceOnUse" x1="-2106.6089" y1="517.4727" x2="-1938.1598" y2="517.4727" gradientTransform="matrix(0.6233 0.7821 -0.7821 0.6233 2472.9751 2959.9968)">
				<stop  offset="0" style="stop-color:#FFC444"/>
				<stop  offset="0.9964" style="stop-color:#F36F56"/>
			</linearGradient>
			<path style="fill:url(#SVGID_00000096741194445499061170000011614202544056454278_);" d="M827.55,1684.15l-11.34-10.59
				c0,0-16.12-22.04-28.26-32.72c-12.14-10.68-24.03-12.83-36.92-2.55c-12.89,10.27-1.94,27.27,7.38,42.09
				c5.67,9.02,21.65,14.74,34.95,18.2c9.35,2.43,25.73,14.64,25.73,14.64L827.55,1684.15z"/>
			
				<linearGradient id="SVGID_00000165929832843232498780000016665303200255431848_" gradientUnits="userSpaceOnUse" x1="-1858.4392" y1="4026.199" x2="-1689.9828" y2="4026.199" gradientTransform="matrix(-0.7871 0.6169 -0.6169 -0.7871 1651.0991 5826.4858)">
				<stop  offset="0" style="stop-color:#FFC444"/>
				<stop  offset="0.9964" style="stop-color:#F36F56"/>
			</linearGradient>
			<path style="fill:url(#SVGID_00000165929832843232498780000016665303200255431848_);" d="M580.34,1582.93l10.68-11.26
				c0,0,22.18-15.93,32.95-27.99c10.77-12.05,13.02-23.93,2.85-36.9c-10.17-12.97-27.25-2.16-42.15,7.04
				c-9.07,5.6-14.91,21.53-18.48,34.8c-2.51,9.33-14.85,25.61-14.85,25.61L580.34,1582.93z"/>
			
				<linearGradient id="SVGID_00000083800737483522012430000005062598680809584063_" gradientUnits="userSpaceOnUse" x1="944.0962" y1="1510.8091" x2="822.4772" y2="1772.6473" gradientTransform="matrix(0.9531 0.3027 -0.3027 0.9531 179.6148 -132.1562)">
				<stop  offset="0" style="stop-color:#AA80F9"/>
				<stop  offset="0.9964" style="stop-color:#6165D7"/>
			</linearGradient>
			<path style="fill:url(#SVGID_00000083800737483522012430000005062598680809584063_);" d="M549.56,1560.18
				c13.82,6.89,27.65,13.78,41.47,20.68c4.23,5.38,54.6,71.5,27.71,134.91c-3.5,8.25-16.72,39.43-42.8,44.95
				c-40.25,8.52-98.88-46.65-96.98-105.87C480.22,1615.17,508.52,1578.7,549.56,1560.18z"/>
		</g>
	</g>
</g>
</svg>
