<?xml version="1.0" encoding="utf-8"?>
<!-- Generator: Adobe Illustrator 25.4.1, SVG Export Plug-In . SVG Version: 6.00 Build 0)  -->
<svg version="1.1" xmlns="http://www.w3.org/2000/svg" xmlns:xlink="http://www.w3.org/1999/xlink" x="0px" y="0px"
	 viewBox="0 0 750 500" style="enable-background:new 0 0 750 500;" xml:space="preserve">
<style type="text/css">
	.st0{fill:#92E3A9;}
	.st1{opacity:0.7;fill:#FFFFFF;}
	.st2{fill:none;stroke:#263238;stroke-linecap:round;stroke-linejoin:round;stroke-miterlimit:10;}
	.st3{fill:#263238;}
	.st4{fill:#92E3A9;stroke:#263238;stroke-linecap:round;stroke-linejoin:round;stroke-miterlimit:10;}
	.st5{fill:#FFFFFF;stroke:#263238;stroke-linecap:round;stroke-linejoin:round;stroke-miterlimit:10;}
	.st6{fill:#263238;stroke:#263238;stroke-linecap:round;stroke-linejoin:round;stroke-miterlimit:10;}
	.st7{fill:#FFFFFF;}
	.st8{fill:#949494;stroke:#263238;stroke-linecap:round;stroke-linejoin:round;stroke-miterlimit:10;}
	.st9{fill:#666666;stroke:#263238;stroke-linecap:round;stroke-linejoin:round;stroke-miterlimit:10;}
</style>
<g id="Background_Simple">
	<g>
		<path class="st0" d="M535.49,82C418.44,134.12,311.15,6.96,193.76,30.79C135.13,42.69,84.73,86.7,52.35,139.59
			C17.68,196.23,0.25,270.12,23.06,335.67c6.35,18.25,15.78,35.12,27.44,49.97c66.4,84.55,207.53,130.89,304.15,87.95
			c0.45-0.2,0.89-0.4,1.34-0.6c107.13-48.99,185.39,11.5,278-16.89c104.47-32.04,129.37-189.47,91.89-284.98
			c-10.42-26.56-28.45-50.11-49.56-67.54C635.95,70.25,582.71,60.97,535.49,82z"/>
		<path class="st1" d="M535.49,82C418.44,134.12,311.15,6.96,193.76,30.79C135.13,42.69,84.73,86.7,52.35,139.59
			C17.68,196.23,0.25,270.12,23.06,335.67c6.35,18.25,15.78,35.12,27.44,49.97c66.4,84.55,207.53,130.89,304.15,87.95
			c0.45-0.2,0.89-0.4,1.34-0.6c107.13-48.99,185.39,11.5,278-16.89c104.47-32.04,129.37-189.47,91.89-284.98
			c-10.42-26.56-28.45-50.11-49.56-67.54C635.95,70.25,582.71,60.97,535.49,82z"/>
	</g>
</g>
<g id="Clouds">
	<g>
		<path class="st2" d="M518.42,88.72c0,0,10.98-22.12,32.94-26.26c21.96-4.15,30.36,21.43,36.17,27.65
			c5.81,6.22,7.75-5.53,18.08-4.84c10.33,0.69,12.92,7.6,14.86,11.06c1.94,3.46,9.12-7.94,13.28-6.39c4.16,1.55,6.03,6.46,6.03,6.46
			l14.92,2.69H486.13c0,0-1.29-11.75,9.69-14.51C506.79,81.81,513.9,90.1,518.42,88.72z"/>
		<path class="st2" d="M600.6,195.7c0,0,7.42-14.95,22.27-17.75c14.84-2.8,20.52,14.48,24.45,18.69c3.93,4.2,5.24-3.74,12.22-3.27
			c6.99,0.47,8.73,5.14,10.04,7.48c1.31,2.34,6.17-5.36,8.98-4.32c2.81,1.05,4.08,4.36,4.08,4.36l10.08,1.82H578.77
			c0,0-0.87-7.94,6.55-9.81C592.74,191.03,597.54,196.64,600.6,195.7z"/>
		<path class="st2" d="M185.05,147.55c2.74-1.73,5.05-5.18,7.68-7.38c6.7-5.61,14.9-8.94,23.46-8.75
			c19.63,0.43,27.64,23.15,30.04,24c2.4,0.86,7.61-8.14,16.42-6.43c8.81,1.71,10.41,9.43,13.22,11.57
			c2.8,2.14,10.41-3.86,15.22-2.14c4.81,1.71,4.01,7.29,8.81,7.72c4.81,0.43,7.61-2.14,11.22-1.29c3.6,0.86,6.01,4.71,6.01,4.71
			c-55.69,0-111.38-0.01-167.07,0c-40.71,0.01-81.43,0-122.14-0.01c4.4-7.95,10.52-15.29,18.65-18.4
			c12.4-4.74,25.82,1.31,38.81,3.58c1.3,0.23,2.71,0.4,3.87-0.26c1.57-0.88,2.16-2.93,2.56-4.77c2.33-10.53,3.61-21.67,9.04-30.79
			c8.49-14.24,27.16-20.32,41.62-13.53c13.58,6.37,21.49,21.26,29.44,34.65c1.6,2.69,3.3,5.43,5.81,7.15
			C180.63,149.18,182.96,148.86,185.05,147.55z"/>
		<path class="st2" d="M203.67,407.9c2.74-1.73,5.05-5.18,7.68-7.38c6.7-5.61,14.9-8.94,23.46-8.75c19.63,0.43,27.64,23.15,30.04,24
			c2.4,0.86,7.61-8.14,16.42-6.43c8.81,1.71,10.41,9.43,13.22,11.57c2.8,2.14,10.41-3.86,15.22-2.14c4.81,1.71,4.01,7.29,8.81,7.72
			c4.81,0.43,7.61-2.14,11.22-1.29c3.6,0.86,6.01,4.71,6.01,4.71c-55.69,0-167.07,55.69-167.07,0c0-0.75-122.14-0.76-122.14-0.01
			c4.4-7.95,10.52-15.29,18.65-18.4c12.4-4.74,25.82,1.31,38.81,3.58c1.3,0.23,2.71,0.4,3.87-0.26c1.57-0.88,2.16-2.93,2.56-4.77
			c2.33-10.53,3.61-21.67,9.04-30.79c8.49-14.24,27.16-20.32,41.62-13.53c13.58,6.37,21.49,21.26,29.44,34.65
			c1.6,2.69,3.3,5.43,5.81,7.15C199.24,409.53,201.58,409.22,203.67,407.9z"/>
		<path class="st2" d="M492.05,429.35H712.3c-0.84-0.4-2.87-2.75-5.59-3.4c-3.6-0.86-6.41,1.71-11.22,1.29
			c-4.81-0.43-4.01-6-8.81-7.72c-4.81-1.71-12.42,4.29-15.22,2.14c-2.8-2.14-4.41-9.86-13.22-11.57
			c-8.81-1.71-14.02,7.29-16.42,6.43c-2.4-0.86-10.41-23.57-30.04-24c-8.56-0.19-16.76,3.15-23.46,8.75
			c-2.63,2.2-4.94,5.65-7.68,7.38c-2.09,1.32-4.43,1.64-7.34-0.36c-2.5-1.72-4.21-4.46-5.81-7.15
			c-7.95-13.39-15.87-28.28-29.44-34.65c-14.46-6.78-33.13-0.71-41.62,13.53c-5.43,9.12-6.71,20.26-9.04,30.79
			c-0.41,1.84-1,3.89-2.56,4.77c-1.16,0.66-2.57,0.48-3.87,0.26c-12.99-2.28-26.41-8.32-38.81-3.58
			c-8.13,3.1-14.25,10.45-18.65,18.4c22.84,0,45.69,0,68.53,0V429.35z"/>
	</g>
</g>
<g id="Seagulls">
	<g>
		<path class="st3" d="M67.79,57.33l0.82-1.97c0,0-0.98-0.16-1.97,0.33c-0.98,0.49-1.81,0.82-1.81,0.82s-0.33,0-2.3-1.15
			s-4.43-1.64-6.56-1.64c-2.13,0-9.68,1.15-7.88,1.81c1.81,0.66,6.07,0.16,7.06,0.66c0.98,0.49,1.64,1.31,2.46,1.81
			c0.82,0.49,3.61,1.15,3.61,1.15s-0.49,0.66-1.81,0.98c-1.31,0.33-1.31,0.33-1.31,0.33s0.49,2.13,3.12,2.3
			c2.63,0.16,4.1-0.16,4.1-0.16l-0.16-2.3c0,0,0,0.82,4.27,0.98c4.27,0.16,6.24,1.15,6.24,1.15s7.71,2.79,7.22,2.3
			c-0.49-0.49-3.77-3.77-5.58-4.43c-1.81-0.66-3.28-0.82-5.09-1.15C70.41,58.8,67.79,57.33,67.79,57.33z"/>
		<path class="st3" d="M106.66,51.01l0.82-1.97c0,0-0.98-0.16-1.97,0.33c-0.98,0.49-1.81,0.82-1.81,0.82s-0.33,0-2.3-1.15
			c-1.97-1.15-4.43-1.64-6.56-1.64c-2.13,0-9.68,1.15-7.88,1.81c1.81,0.66,6.07,0.16,7.06,0.66c0.98,0.49,1.64,1.31,2.46,1.81
			c0.82,0.49,3.61,1.15,3.61,1.15s-0.49,0.66-1.81,0.98c-1.31,0.33-1.31,0.33-1.31,0.33s0.49,2.13,3.12,2.3
			c2.63,0.16,4.1-0.16,4.1-0.16l-0.16-2.3c0,0,0,0.82,4.27,0.98c4.27,0.16,6.24,1.15,6.24,1.15s7.71,2.79,7.22,2.3
			c-0.49-0.49-3.77-3.77-5.58-4.43c-1.81-0.66-3.28-0.82-5.09-1.15C109.29,52.48,106.66,51.01,106.66,51.01z"/>
		<path class="st3" d="M210.11,61.83l0.82-1.97c0,0-0.98-0.16-1.97,0.33c-0.98,0.49-1.81,0.82-1.81,0.82s-0.33,0-2.3-1.15
			c-1.97-1.15-4.43-1.64-6.56-1.64s-9.68,1.15-7.88,1.81c1.81,0.66,6.07,0.16,7.06,0.66c0.98,0.49,1.64,1.31,2.46,1.81
			c0.82,0.49,3.61,1.15,3.61,1.15s-0.49,0.66-1.81,0.98c-1.31,0.33-1.31,0.33-1.31,0.33s0.49,2.13,3.12,2.3
			c2.63,0.16,4.1-0.16,4.1-0.16l-0.16-2.3c0,0,0,0.82,4.27,0.98c4.27,0.16,6.24,1.15,6.24,1.15s7.71,2.79,7.22,2.3
			c-0.49-0.49-3.77-3.77-5.58-4.43c-1.81-0.66-3.28-0.82-5.09-1.15C212.74,63.31,210.11,61.83,210.11,61.83z"/>
		<path class="st3" d="M114.43,77.79l0.61-1.47c0,0-0.73-0.12-1.47,0.24c-0.73,0.37-1.34,0.61-1.34,0.61s-0.24,0-1.71-0.86
			c-1.47-0.86-3.3-1.22-4.89-1.22c-1.59,0-7.21,0.86-5.87,1.34c1.34,0.49,4.52,0.12,5.26,0.49c0.73,0.37,1.22,0.98,1.83,1.34
			c0.61,0.37,2.69,0.86,2.69,0.86s-0.37,0.49-1.34,0.73c-0.98,0.24-0.98,0.24-0.98,0.24s0.37,1.59,2.32,1.71
			c1.96,0.12,3.06-0.12,3.06-0.12l-0.12-1.71c0,0,0,0.61,3.18,0.73c3.18,0.12,4.64,0.86,4.64,0.86s5.74,2.08,5.38,1.71
			c-0.37-0.37-2.81-2.81-4.16-3.3c-1.34-0.49-2.44-0.61-3.79-0.86C116.38,78.89,114.43,77.79,114.43,77.79z"/>
		<path class="st3" d="M259.41,84.54l0.61-1.47c0,0-0.73-0.12-1.47,0.24c-0.73,0.37-1.34,0.61-1.34,0.61s-0.24,0-1.71-0.86
			c-1.47-0.86-3.3-1.22-4.89-1.22c-1.59,0-7.21,0.86-5.87,1.34c1.34,0.49,4.52,0.12,5.26,0.49c0.73,0.37,1.22,0.98,1.83,1.34
			c0.61,0.37,2.69,0.86,2.69,0.86s-0.37,0.49-1.34,0.73c-0.98,0.24-0.98,0.24-0.98,0.24s0.37,1.59,2.32,1.71
			c1.96,0.12,3.06-0.12,3.06-0.12l-0.12-1.71c0,0,0,0.61,3.18,0.73c3.18,0.12,4.64,0.86,4.64,0.86s5.74,2.08,5.38,1.71
			c-0.37-0.37-2.81-2.81-4.16-3.3c-1.34-0.49-2.44-0.61-3.79-0.86C261.36,85.64,259.41,84.54,259.41,84.54z"/>
		<path class="st3" d="M89.12,81.12c0,0,0.16-1.31,0.82-1.97c0.66-0.66,1.64-1.15,0.66-2.63c-0.98-1.48-8.53-6.07-7.71-4.43
			c0.82,1.64,3.77,3.28,3.28,4.76c-0.49,1.48-1.2,2.45-1.81,2.79c-1.48,0.82-1.48,0.82-1.48,0.82s-0.49-0.49-1.81-0.49
			c-1.31,0-0.16-0.33-1.31,0c-1.15,0.33-2.63,0.82-1.97,2.46c0.66,1.64,0.82,2.3,1.81,1.64s1.64-0.98,2.79-1.31
			c1.15-0.33,2.63,0.98,3.45,2.13c0.82,1.15,1.97,0.66,0,2.63c-1.97,1.97-3.77,3.28-2.63,3.45c1.15,0.16,7.22-3.77,7.71-5.09
			c0.49-1.31-1.31-1.97-0.98-2.46s1.31-0.82,1.81-0.66l1.64,0.16c0,0-0.98-1.97-2.13-1.97C90.11,80.96,89.12,81.12,89.12,81.12z"/>
	</g>
</g>
<g id="Character">
	<g>
		<g>
			<path class="st4" d="M348.78,140.55c0,0-20.85,0.77-40.41,9.78c-19.56,9.01-20.08,20.85-19.3,27.54
				c0.77,6.69,8.75,31.4,8.75,31.4l28.31-21.88l-3.09-12.35l15.96-5.66c0,0,25.74-12.1,21.88-22.39
				C357.02,136.69,348.78,140.55,348.78,140.55z"/>
			<line class="st2" x1="323.04" y1="175.04" x2="321.75" y2="162.95"/>
		</g>
		<path class="st5" d="M327.16,180.96c0,0-15.19,3.35-24.45,12.1c-9.27,8.75-10.81,14.93-10.81,14.93l10.81,15.44
			c0,0,7.21-9.52,14.41-16.22s14.67-11.33,14.67-11.33L327.16,180.96z"/>
		<path class="st4" d="M307.34,228.84c0,0-18.79-0.26-27.8,5.66c-9.01,5.92-14.41,21.36-14.41,28.57c0,7.21,0,13.13,0,13.13
			l58.17,10.81c0,0,0-7.46,23.17-3.35c23.17,4.12,37.32,33.2,39.38,48.65c0,0,13.9,10.3,29.86,9.78c15.96-0.51,19.3-2.57,19.3-2.57
			s7.98-24.71,10.3-38.87c2.32-14.16,1.54-30.63,1.54-30.63l-80.05-55.6l-50.96,17.25L307.34,228.84z"/>
		<path class="st6" d="M370.35,276.7c0,0,32.8,20.42,49.51,23.52c16.71,3.09,25.44,0.43,25.44,0.43l2.41-15.9L370.35,276.7z"/>
		<polygon class="st6" points="338.64,261.23 344.36,262.47 356.74,229.67 330.13,252.57 		"/>
		<path class="st4" d="M358.56,148.02c0,0-21.36,18.79-33.46,33.2c-12.1,14.41-17.76,24.97-17.5,27.03
			c0.26,2.06,1.54,2.32,1.54,2.32l-1.54,7.21c0,0,27.28-3.35,61,3.09c33.72,6.43,75.16,30.11,75.16,30.11s9.27-4.38,12.1-14.41
			s4.63-46.85,1.03-57.66c-3.6-10.81-18.79-30.89-23.42-34.49c-4.63-3.6-20.59-12.61-20.59-12.61L358.56,148.02z"/>
		<polygon class="st6" points="447.74,185.89 449.92,219.38 455.76,222.86 461.33,195.01 		"/>
		<polygon class="st6" points="373.88,156.77 360.35,165.98 371.72,183.85 399.33,168.68 		"/>
		<g>
			<path class="st5" d="M324.03,135.64l-3.76,17.95c0,0,8.59,7.05,15.3,7.69s17.98-3.85,17.98-3.85l2.42-11.97L324.03,135.64z"/>
			<path class="st5" d="M351.95,131.15c0,0-20.13-3.42-26.57,1.5c-6.44,4.91,1.61,10.04,9.13,12.61c7.52,2.56,16.91,1.71,16.91,1.71
				L351.95,131.15z"/>
			<line class="st2" x1="326.54" y1="143.51" x2="324.6" y2="153.21"/>
			<line class="st2" x1="331.39" y1="144.48" x2="329.78" y2="151.27"/>
			<line class="st2" x1="339.48" y1="159.68" x2="342.06" y2="149.98"/>
			<line class="st2" x1="336.89" y1="154.18" x2="338.51" y2="148.69"/>
			<line class="st2" x1="331.39" y1="157.42" x2="332.36" y2="152.89"/>
		</g>
		<g>
			<polygon class="st5" points="373.23,191.52 419.56,174.79 414.41,162.95 425.22,162.43 423.16,138.49 369.88,179.68 			"/>
			<polygon class="st5" points="360.1,156.25 342.09,171.18 380.44,200.78 364.99,154.71 			"/>
			<line class="st5" x1="380.44" y1="200.78" x2="367.05" y2="218.03"/>
			<ellipse class="st5" cx="371.82" cy="202.07" rx="2.96" ry="2.83"/>
			<path class="st5" d="M362.03,198.72c0,1.56-1.33,2.83-2.96,2.83c-1.63,0-2.96-1.27-2.96-2.83s1.33-2.83,2.96-2.83
				C360.71,195.89,362.03,197.16,362.03,198.72z"/>
		</g>
		<g>
			<path class="st6" d="M330.39,79.69c0,0,12.37,15.26,28.43,13.96c16.06-1.3,24.07-10.68,40.7-5.67
				c16.63,5.01,31.29,29.42,56.82,32.42c25.52,3,36.27-4.39,36.27-4.39s-13.88-2.77-18.72-20.77c-4.83-18.01-8.04-46.14-28.33-61.02
				c-20.28-14.88-47.21-8.56-64.25,5.22c-17.05,13.78-26.91,36.42-34.68,39.7C338.86,82.41,330.39,79.69,330.39,79.69z"/>
			<path class="st4" d="M431.88,108.83c0,0,8.81,7.49,8.54,14.46c-0.62,15.97-21.28,13.45-21.28,13.45l-2.77-26.17
				c0,0,4.36-6.62,9.76-7.32C431.53,102.56,431.88,108.83,431.88,108.83z"/>
			<path class="st4" d="M353.65,122.59c0,0-5.75,10.63-6.45,21.43c-0.7,10.8,4.88,8.02,4.88,8.02s6.1,12.55,12.72,15.33
				c6.62,2.79,13.94-1.39,13.94-1.39s-2.27,3.83,4.01,3.31c6.27-0.52,21.95-7.14,21.95-7.14s-0.87,2.96,7.84-0.52
				c8.71-3.48,9.93-20.73,9.93-21.26c0-0.52,1.74,2.27,2.44,0c0.7-2.27-6.27-27.01-6.27-27.01l4.36-7.32l-9.23-10.63
				c0,0-1.57,11.33-10.45,16.9c-8.89,5.58-35.89-1.92-37.11-2.44c-1.22-0.52-4.36-0.17-4.36-0.17L353.65,122.59z"/>
			<path class="st5" d="M371.25,82.34l-8.36,30.67c0,0,28.23,12.2,39.03,7.14c10.8-5.05,14.11-21.26,14.11-21.26
				s-12.2-15.33-20.91-19.86C386.41,74.5,371.25,82.34,371.25,82.34z"/>
			<path class="st6" d="M420.38,102.56l-0.17-1.74l-13.77-2.79l-18.3-8.54l-11.5-8.02l-2.09,1.74l12.93,8.27
				c-0.89,3.06-2.16,8.95-0.04,12.81c2.96,5.4,9.76,5.4,12.72,4.36c2.02-0.71,4.21-5.41,5.39-8.31L420.38,102.56z"/>
			<g>
				<g>
					<path class="st5" d="M326.39,71.32c0,0,6.81,20.56,22.87,19.25c16.06-1.3,24.07-10.68,40.7-5.67
						c16.63,5.01,31.29,29.42,56.82,32.42c25.52,3,36.27-4.39,36.27-4.39s-13.88-2.77-18.72-20.77
						c-4.83-18.01-8.04-46.14-28.33-61.02c-20.28-14.88-47.21-8.56-64.25,5.22S350,67.54,342.23,70.82
						C334.46,74.1,326.39,71.32,326.39,71.32z"/>
					<path class="st6" d="M330.8,75.07c0,0,4.23,14.03,19.12,12.82c14.89-1.21,25.47-11.65,40.89-7
						c15.42,4.65,29.16,30.33,52.83,33.11c23.67,2.78,32.75-2.08,32.75-2.08s-11.99-4.56-16.47-21.26s-7.46-42.78-26.26-56.58
						c-18.81-13.8-43.77-7.94-59.58,4.84c-15.81,12.77-22.95,31.15-30.16,34.19C336.72,76.16,330.8,75.07,330.8,75.07z"/>
				</g>
			</g>
			<g>
				<path class="st7" d="M417.2,43.07c-2.36-2.46-8.84-3.63-8.84-3.63s-4.03-3.05-9.43-0.29c-5.4,2.75-5.4,8.64-4.03,11.2
					c1.38,2.55,5.7,4.13,5.7,4.13s-3.05,3.73-2.16,4.13s8.45,2.75,9.14,2.16c0.69-0.59,0.98-4.91,0.98-4.91s5.21,2.26,8.35-1.08
					C420.05,51.42,419.56,45.52,417.2,43.07z M397.85,47.63c0-1.82,1.41-3.29,3.14-3.29c1.74,0,3.14,1.47,3.14,3.29
					c0,1.82-1.41,3.29-3.14,3.29C399.26,50.93,397.85,49.45,397.85,47.63z M404.14,55.44c-0.1,0.59-1.28,0.29-1.57,0
					c-0.23-0.23,0.87-2.29,1.4-3.25c0.16-0.29,0.27-0.48,0.27-0.48S404.23,54.85,404.14,55.44z M409.83,52.55
					c-1.74,0-3.14-1.47-3.14-3.29c0-1.82,1.41-3.29,3.14-3.29c1.74,0,3.14,1.47,3.14,3.29C412.98,51.07,411.57,52.55,409.83,52.55z"
					/>
				<path class="st7" d="M417.49,63.89c-0.69-0.79-1.87-1.38-1.87-1.38s1.47-3.05-1.18-4.03c-2.65-0.98-3.05,3.05-3.05,3.93
					l-12.56,3.75l-6.4-10.33l0.2-0.98c0,0,1.38-1.67,0.69-3.83c-0.69-2.16-3.83-1.96-4.72-0.1c-0.88,1.87-0.1,3.34-0.1,3.34
					s-2.36-0.1-2.85,0.98c-0.49,1.08,0.2,2.16,1.28,2.55c1.08,0.39,2.95-0.39,2.95-0.39l6.11,9.6l-6.01,1.79c0,0-0.1-3.83-1.28-4.52
					c-1.18-0.69-2.36,0.49-2.36,1.57c0,1.08,1.18,3.14,1.18,3.14s-1.96,1.18-1.77,2.26c0.2,1.08,1.77,2.06,2.75,1.28
					c0.98-0.79,1.67-1.87,1.67-1.87l7.01-1.77l4.87,7.66c0,0,0.05,1.35-0.32,2.34c-0.37,1,1.6,2.47,2.78,1.88
					c1.18-0.59,0.98-2.55,0.98-2.55s2.26,0.29,3.05-1.08c0.79-1.38,1.28-3.14-0.69-3.63c-1.96-0.49-4.22,0.39-4.22,0.39l-3.56-5.74
					l12.3-3.1c0,0,2.16,2.36,3.44,1.96C417.1,66.64,418.18,64.68,417.49,63.89z"/>
			</g>
			<path class="st6" d="M368.81,86.35c0,0,8.54,6.62,8.89,6.1c0.35-0.52,1.22-2.79,1.22-2.79s-5.05-4.88-6.1-5.23
				C371.77,84.09,370.2,83.39,368.81,86.35z"/>
			<path class="st3" d="M375.93,95.29c-0.23,1.43-1.06,2.48-1.87,2.35c-0.81-0.13-1.28-1.39-1.05-2.81
				c0.23-1.43,1.06-2.48,1.87-2.35C375.69,92.61,376.16,93.87,375.93,95.29z"/>
			<path class="st4" d="M374.38,104.3c0,0-6.62-0.35-13.94,4.01c-7.32,4.36-10.11,15.68-9.41,16.73c0.7,1.05,7.84-2.96,7.84-2.96
				s-1.92,5.92,1.05,6.27c2.96,0.35,6.8-3.14,6.8-3.14s6.97,8.54,10.28,8.54c3.31,0,5.23-5.75,5.23-5.75s12.02,6.45,14.64,5.75
				c2.61-0.7,2.61-5.05,2.61-5.05s2.96,3.83,4.7,1.57c1.74-2.27-1.39-8.54-10.28-15.68C385.01,107.43,380.31,105.34,374.38,104.3z"
				/>
			<path class="st5" d="M381.18,90.53c0,0-4.01,4.01-4.01,5.75c0,1.74-0.35,3.14-0.35,3.14s-7.32,5.4-7.14,7.67
				c0.17,2.27,9.41,3.14,12.55,0.52c3.14-2.61,2.44-7.14,2.44-7.14"/>
			<path class="st5" d="M418.64,113.36c0,0,2.27-7.49,7.32-6.8c5.05,0.7,6.62,7.84,4.7,10.8c-1.92,2.96-10.11,2.61-10.11,2.61
				L418.64,113.36z"/>
		</g>
		<path class="st4" d="M305.28,228.32l-9.78-0.51l38.09,40.67l30.11-43.24l-0.51,50.45c0,0,21.62,15.44,55.85,16.47
			c34.23,1.03,36.29-2.83,36.29-2.83l-9.52-33.2c0,0-41.44-26-70.01-32.95c-28.57-6.95-64.09-3.6-64.09-3.6L305.28,228.32z"/>
		<g>
			<path class="st5" d="M413.64,284.43c-21.38-1.78-41.98-12.23-50.37-16.97l-0.08,8.22c0,0,21.62,15.44,55.85,16.47
				c34.23,1.03,36.29-2.83,36.29-2.83l-2.23-7.78C443.85,283.62,429.6,285.76,413.64,284.43z"/>
			<polygon class="st5" points="295.5,227.81 333.59,268.48 338.64,261.23 301.54,228.13 			"/>
		</g>
		<g>
			<path class="st6" d="M309.14,210.56l-3.86,17.76c0,0,23.94-5.41,60.49,2.32c36.55,7.72,81.08,31.4,81.08,31.4l4.63-24.19
				c0,0-68.09-31.68-107.78-31.44c-1.05,0.01-2.1,0-3.15-0.04C336.76,206.2,324.93,206.14,309.14,210.56z"/>
			<g>
				<path class="st5" d="M353.9,203.5l-5.81,26.44l31.2,6.86l5.81-26.44L353.9,203.5z M376.34,232.93l-23.94-5.26l4.46-20.29
					l23.94,5.26L376.34,232.93z"/>
				<g>
					<path class="st5" d="M383.02,225.06c-9.48-3.08-11.76-3.03-11.86-3.04l0.61-2.68c0.57-0.07,2.27-0.35,12.17,2.87L383.02,225.06
						z"/>
				</g>
			</g>
		</g>
		<g>
			<path class="st5" d="M440.07,225.35c0,0-18.83,6.25-19.7,9.65c-0.87,3.41,0.58,5.96,0.58,5.96s-0.87,2.84,0.58,5.11
				c1.45,2.27,4.35,3.12,4.35,3.12s0,5.39,2.61,7.1c2.61,1.7,4.64,1.42,4.64,1.42s1.74,3.12,4.06,4.83c2.32,1.7,5.22,0.28,6.66-1.42
				c1.45-1.7,1.16-4.26,1.16-4.26s6.66-1.99,8.4-4.54c1.74-2.56,2.03-6.25,2.03-6.25L440.07,225.35z"/>
			<path class="st4" d="M447.02,184.74l16.23,24.13l-13.33,10.51l24.34,30.1c0,0,38.83-31.8,39.12-37.2
				c0.29-5.39-43.46-54.23-43.46-54.23l-24.92,17.6"/>
			<path class="st5" d="M453.98,213.14c0,0,8.11,9.09,16.81,18.17c8.69,9.09,12.46,15.33,12.46,15.33l-24.63,16.75
				c0,0-14.78-21.86-18.25-30.1c-3.48-8.23-3.48-8.23-3.48-8.23L453.98,213.14z"/>
			<line class="st2" x1="463.25" y1="208.88" x2="477.74" y2="198.94"/>
			<path class="st5" d="M483.82,232.45c0,1.72-1.43,3.12-3.19,3.12s-3.19-1.4-3.19-3.12s1.43-3.12,3.19-3.12
				S483.82,230.72,483.82,232.45z"/>
		</g>
		<path class="st5" d="M256.12,305.54c0,0,9.27,5.41,35.78,10.55c26.51,5.15,41.44-0.51,41.44-0.51s-11.84-14.16-27.8-19.82
			C289.58,290.1,258.95,303.48,256.12,305.54z"/>
		<path class="st6" d="M267.96,297.3l5.66,26.51l46.59,18.27l2.32-38.61C322.52,303.48,303.73,288.81,267.96,297.3z"/>
		<path class="st5" d="M261.01,271.57l-4.89,33.98c0,0,20.33-4.38,38.09-2.57c14.62,1.48,39.12,12.61,39.12,12.61l-4.38-36.81
			c0,0-17.5-13.13-36.81-12.87C272.85,266.16,261.01,271.57,261.01,271.57z"/>
		<path class="st5" d="M380.95,327.68l-3.86,32.17c0,0,18.79,12.35,39.9,11.33c21.11-1.03,29.09-9.27,29.09-9.27l-6.69-27.28
			C439.38,334.63,399.48,336.17,380.95,327.68z"/>
		<g>
			<path class="st5" d="M426.28,156.16l3.38,19.02c0,0,24.43,6.62,38.73,3.21c14.3-3.42,16.38-10.68,16.38-10.68l-3.12-10.04
				L426.28,156.16z"/>
			<path class="st5" d="M426.28,156.16c0,0,12.22,9.19,35.87,8.12c23.65-1.07,29.89-8.76,13.78-18.16
				c-16.12-9.4-42.63-6.41-42.63-6.41L426.28,156.16z"/>
			<line class="st2" x1="431.94" y1="160.65" x2="433.56" y2="173.58"/>
			<line class="st2" x1="438.41" y1="162.26" x2="439.38" y2="170.02"/>
			<line class="st2" x1="439.7" y1="175.2" x2="439.05" y2="172.61"/>
			<line class="st2" x1="444.23" y1="167.44" x2="444.87" y2="175.2"/>
			<line class="st2" x1="448.75" y1="164.85" x2="448.75" y2="171.32"/>
			<line class="st2" x1="467.83" y1="164.85" x2="468.8" y2="174.23"/>
			<line class="st2" x1="472.35" y1="167.44" x2="472.68" y2="172.61"/>
		</g>
	</g>
</g>
<g id="Flag">
	<g>
		<path class="st6" d="M521.93,270.4c0,0,5.22,6.67,17.7,5.22c12.48-1.45,27.28-6.67,38.01,3.48
			c10.74,10.16,17.41,25.54,21.76,27.57c4.35,2.03,11.9-2.9,11.9-2.9s-6.09,10.16-6.38,11.61c-0.29,1.45-6.38-0.29-6.38-0.29
			l7.54,6.38c0,0,0.58-0.29-6.09,0.87c-6.67,1.16-9.29,1.16-9.29,1.16s5.22,4.06,16.54,2.9c11.32-1.16,15.96,1.74,15.96,1.74
			s-10.16,1.74-14.22,5.22c-4.06,3.48-10.16,5.22-10.16,5.22l12.48,0.58c0,0-6.09,4.64-10.74,5.8c-4.64,1.16-7.54,1.45-7.54,1.45
			l12.48,5.51c0,0-8.12,1.45-19.44,1.74c-11.32,0.29-13.06-11.32-30.76-14.51c-17.7-3.19-24.08,1.74-31.92,2.9
			c-7.83,1.16-15.38-2.03-15.38-2.03L521.93,270.4z"/>
		<g>
			<path class="st8" d="M498.46,382.03c-0.19,0-0.38-0.02-0.57-0.05c-1.63-0.31-2.69-1.89-2.38-3.51l22.09-114.76
				c0.31-1.63,1.87-2.69,3.51-2.38c1.63,0.31,2.69,1.89,2.38,3.51L501.4,379.59C501.12,381.03,499.87,382.03,498.46,382.03z"/>
		</g>
		<g>
			<path class="st7" d="M576,319.72c0,0,2.28-5.01-0.68-5.46c-2.96-0.46-2.05,4.1-2.05,4.1c-4.24-0.08-9.99,0.68-15.68,1.71
				c-2.89-3.06-5.7-5.96-7.31-7.4c-4.32-3.87-7.74-6.15-7.74-6.15s1.59-4.55,0-6.15c-1.59-1.59-4.78,0.23-4.78,2.05
				c0,1.82,0,1.82,0,1.82s-5.23,0.46-5.01,3.64c0.23,3.19,5.69,0,5.69,0s7.5,3.81,16.29,12.71c-9.42,1.84-17.89,4.13-17.89,4.13
				s-1.59-1.14-2.28-1.59c-0.68-0.46-2.73-2.05-3.87,0.23c-1.14,2.28,3.87,4.1,3.87,4.1s-0.68,5.01,1.37,4.32
				c2.05-0.68,2.73-3.87,2.73-3.87c4.28-2.39,11.56-3.91,18.4-4.86c2.65,2.9,5.37,6.25,8,10.09c0,0-0.46,4.55,1.59,5.69
				s0.91-4.32,0.91-4.32s4.78,0.46,5.23-1.37c0.46-1.82-5.23-2.28-5.23-2.28s-3.54-3.91-7.54-8.2c7.57-0.9,13.91-1.13,13.91-1.13
				s2.05,3.41,3.41,2.05C578.73,322.22,576,319.72,576,319.72z"/>
			<path class="st7" d="M565.3,284.89c-10.7-2.73-20.94,4.1-18.44,10.93c2.5,6.83,11.38,9.56,11.38,9.56l-3.19,5.69l12.06,3.41
				l0.91-7.06c0,0,7.74,0,11.15-5.24C582.6,296.95,576,287.62,565.3,284.89z M557.34,298.32c-2.26,0-4.1-1.73-4.1-3.87
				c0-2.14,1.83-3.87,4.1-3.87c2.26,0,4.1,1.73,4.1,3.87C561.44,296.59,559.6,298.32,557.34,298.32z M561.66,306.51l1.82-6.15
				l1.14,6.83L561.66,306.51z M568.95,303.33c-1.76,0-3.19-1.53-3.19-3.41c0-1.89,1.43-3.41,3.19-3.41c1.76,0,3.19,1.53,3.19,3.41
				C572.13,301.8,570.71,303.33,568.95,303.33z"/>
		</g>
	</g>
</g>
<g id="Boat">
	<g>
		<g>
			<path class="st8" d="M192.75,251.8l-38.4,68.9c0,0,5.08,60.43,48,105.04l5.65,4.52h313.44c0,0,16.38-20.33,11.86-60.43
				c0,0-151.92,29.93-326.43-119.73L192.75,251.8z"/>
			<path class="st2" d="M322.18,358.18c17.68,6.57,36.96,12.74,57.67,17.96c110.44,27.85,149.33,14.89,149.33,14.89"/>
			<path class="st2" d="M159.93,341.57l39.37-48.02c0,0,44.64,34.86,118.8,63.09"/>
			<path class="st2" d="M442.81,414.04c52.2,3.51,82.53-1.88,82.53-1.88"/>
			<path class="st2" d="M179.45,358.43l24.65-21.66c0,0,49.94,43.7,153.18,65.3c30.14,6.31,57.01,9.79,79.95,11.57"/>
			<line class="st2" x1="172.41" y1="364.62" x2="177.8" y2="359.89"/>
			<path class="st2" d="M181.06,394.87l26.89-24.01c0,0,31.69,24.49,96.03,45.14"/>
			<path class="st2" d="M314.07,418.4c0,0,24.97,6.24,46.1,9.12"/>
			<path class="st9" d="M191.05,228.08c0,0-18.64,112.39,33.32,202.18h19.2c0,0-51.39-99.96-28.24-203.31l-3.13-1.77L191.05,228.08z
				"/>
			<path class="st8" d="M187.92,226.32c0,0-18.64,113.36,33.32,203.94h19.2c0,0-51.39-100.83-28.24-205.08L187.92,226.32z"/>
		</g>
		<g>
			<path class="st5" d="M235.18,430.16c0,0,25.4-29.02,46.44-31.2c21.04-2.18,18.87,24.67,29.75,24.67s29.75-13.79,37.73-10.16
				s24.67,13.79,30.48,13.79c5.8,0,13.06-5.8,17.41-5.08c4.35,0.73,21.77,7.98,21.77,7.98H235.18z"/>
			<path class="st5" d="M221.24,430.16c0,0-17.16-21.67-25.62-22.11c-8.47-0.45-5.79,6.24-4.9,11.14c0.89,4.9-7.13-1.78-9.8,1.78
				c-2.67,3.57,3.12,8.91,3.12,8.91L221.24,430.16z"/>
		</g>
	</g>
</g>
<g id="Sea">
	<g>
		<path class="st0" d="M95.54,429.28c73.3,55.28,180.81,79.11,259.1,44.31c0.45-0.2,0.89-0.4,1.34-0.6
			c107.13-48.99,185.39,11.5,278-16.89c18.02-5.53,33.67-14.79,47.05-26.81H95.54z"/>
		<g>
			<line class="st2" x1="7.82" y1="429.55" x2="741.46" y2="429.55"/>
			<line class="st2" x1="102.55" y1="440.19" x2="180.85" y2="440.19"/>
			<line class="st2" x1="167.48" y1="448.96" x2="196.12" y2="448.96"/>
			<line class="st2" x1="261.05" y1="441.16" x2="423.37" y2="441.16"/>
			<line class="st2" x1="269.64" y1="450.91" x2="322.16" y2="450.91"/>
			<line class="st2" x1="209.39" y1="467.05" x2="261.9" y2="467.05"/>
			<line class="st2" x1="480.66" y1="447.01" x2="579" y2="447.01"/>
			<line class="st2" x1="433.24" y1="475.26" x2="531.59" y2="475.26"/>
			<line class="st2" x1="425.28" y1="457.74" x2="458.7" y2="457.74"/>
			<line class="st2" x1="451.06" y1="440.19" x2="522.67" y2="440.19"/>
			<line class="st2" x1="600.01" y1="447.01" x2="627.7" y2="447.01"/>
			<line class="st2" x1="583.22" y1="472.23" x2="628.15" y2="472.23"/>
			<line class="st2" x1="696.45" y1="441.16" x2="641.07" y2="441.16"/>
			<line class="st2" x1="685.94" y1="452.86" x2="647.75" y2="452.86"/>
			<line class="st2" x1="141.7" y1="451.89" x2="87.81" y2="451.89"/>
			<line class="st2" x1="232.41" y1="443.11" x2="212.35" y2="443.11"/>
			<line class="st2" x1="354.62" y1="454.81" x2="378.49" y2="454.81"/>
			<line class="st2" x1="320.05" y1="469.94" x2="366.38" y2="469.94"/>
		</g>
	</g>
</g>
</svg>
