<?xml version="1.0" encoding="utf-8"?>
<!-- Generator: Adobe Illustrator 25.4.1, SVG Export Plug-In . SVG Version: 6.00 Build 0)  -->
<svg version="1.1" xmlns="http://www.w3.org/2000/svg" xmlns:xlink="http://www.w3.org/1999/xlink" x="0px" y="0px"
	 viewBox="0 0 750 500" style="enable-background:new 0 0 750 500;" xml:space="preserve">
<g id="Background_Complete">
	<g>
		<path style="fill:#F5F5F5;" d="M487.92,418.79c22.01-1.66,43.94-4.65,65.67-8.95l-319.76-4.36c28.38,9.3,60.56,14.08,89.88,10.19
			c3.6-0.48,7.47-1.01,10.5,1.81c1.52,1.42,2.33,3.71,1.81,5.88c-0.67,2.8-3.03,3.66-5.16,4.35l-5.34,1.72
			c-5.66,1.82-5.01,11.25,0.82,12.06c22.15,3.09,46.4-4.43,68.73,0.3c2.06,0.44,2.46,3.63,0.58,4.69l-15.52,8.71
			c-1.89,1.06-1.49,4.3,0.59,4.69c25.99,4.88,52.75,4.31,78.57-1.64c4.13-0.95,4.46-7.59,0.44-9.05c-2.66-0.96-2.32-5.42,0.45-5.83
			l30.05-4.44c3.18-0.47,6.52-1.01,8.79-3.95c1.02-1.33,1.57-3.12,1.28-4.87C499.14,423.12,488.01,425.25,487.92,418.79z"/>
	</g>
	<g>
		<g>
			<g>
				<path style="fill:#E0E0E0;" d="M131.66,278.37c0,0-0.93-6.57-1.22-17.28c-0.02-1.34-0.05-2.74-0.08-4.2
					c-0.02-1.46,0.04-2.98,0.06-4.55c0.01-3.15,0.23-6.51,0.42-10.04c0.51-7.06,1.39-14.8,2.81-22.85
					c1.47-8.04,3.35-15.61,5.33-22.41c1.05-3.38,2.02-6.6,3.11-9.56c0.53-1.48,1-2.93,1.53-4.29c0.53-1.36,1.05-2.67,1.53-3.91
					c4-9.94,7.16-15.77,7.16-15.77c0.01,0-0.03,0.1-0.11,0.29c-0.09,0.21-0.21,0.48-0.36,0.82c-0.34,0.75-0.82,1.8-1.43,3.13
					c-0.31,0.68-0.66,1.44-1.04,2.26c-0.36,0.84-0.74,1.75-1.16,2.72c-0.81,1.96-1.81,4.17-2.73,6.68c-0.48,1.25-0.98,2.56-1.5,3.92
					c-0.52,1.36-0.98,2.81-1.5,4.29c-1.07,2.96-2.01,6.18-3.05,9.55c-1.95,6.79-3.81,14.34-5.27,22.36
					c-1.42,8.03-2.31,15.75-2.84,22.79c-0.2,3.53-0.44,6.88-0.46,10.02c-0.03,1.57-0.1,3.09-0.09,4.55
					c0.01,1.46,0.03,2.86,0.04,4.19c-0.01,2.67,0.15,5.09,0.23,7.21c0.05,1.06,0.09,2.05,0.13,2.96c0.07,0.9,0.13,1.73,0.19,2.48
					c0.1,1.46,0.19,2.61,0.25,3.44c0.02,0.37,0.04,0.66,0.05,0.9C131.67,278.27,131.67,278.37,131.66,278.37z"/>
			</g>
		</g>
		<g>
			<path style="fill:#E0E0E0;" d="M153.13,171.67c-2.22,7.46-5.04,14.71-8.58,21.52c-0.96,1.84-2.4,3.91-4.3,3.62
				c-1.31-0.2-2.29-1.56-2.57-3s-0.01-2.94,0.33-4.36c1.37-5.73,3.83-11.05,6.26-16.32c0.86-1.85,1.77-3.78,3.32-4.95
				s3.93-1.24,5.08,0.41C152.67,168.6,153.7,169.75,153.13,171.67z"/>
		</g>
		<g>
			<path style="fill:#EBEBEB;" d="M143.73,286.69c3.89-8.18,9.22-23.68,7.78-31.46c-9.22,3.46-18.16,15.85-25.52,24.43
				c8.63-19.67,17.27-39.33,25.9-59c-17.55,10.96-27.72,30.31-37.08,48.75c4.94-14.51,7.93-29.69,8.85-44.99
				c-9.74,7.84-16.62,19.16-19.08,31.42c2.8-26.05,5.61-52.1,8.41-78.15c-11.87,11.02-17.92,27.19-19.75,43.28
				c-1.83,16.09,0.15,32.35,2.14,48.43c-4.49-8.38-8.97-16.76-13.46-25.14c-1.02,16.5,2.08,31.61,10.55,45.8l59.62,0.03
				c15.03-16.25,25.82-30.86,35.58-50.73C167.24,247.43,154.76,267.7,143.73,286.69z"/>
		</g>
		<g>
			<g>
				<path style="fill:#E0E0E0;" d="M101.98,283.35c-0.01,0-0.03-0.09-0.07-0.27c-0.04-0.21-0.09-0.47-0.15-0.8
					c-0.12-0.74-0.3-1.77-0.52-3.08c-0.11-0.67-0.23-1.42-0.36-2.23c-0.11-0.82-0.22-1.71-0.34-2.66c-0.23-1.91-0.54-4.08-0.72-6.5
					c-0.11-1.21-0.22-2.47-0.33-3.79c-0.11-1.32-0.15-2.7-0.24-4.12c-0.19-2.85-0.21-5.89-0.27-9.1c0-6.41,0.28-13.46,1.01-20.83
					c0.78-7.36,1.93-14.33,3.23-20.6c0.71-3.13,1.34-6.11,2.1-8.86c0.37-1.38,0.69-2.72,1.06-3.99c0.38-1.27,0.74-2.48,1.09-3.65
					c0.66-2.33,1.41-4.39,2.02-6.22c0.31-0.91,0.6-1.75,0.87-2.54c0.29-0.77,0.56-1.47,0.8-2.11c0.48-1.23,0.86-2.21,1.13-2.91
					c0.12-0.31,0.23-0.55,0.31-0.75c0.07-0.17,0.11-0.25,0.12-0.25c0.01,0-0.02,0.09-0.07,0.27c-0.07,0.2-0.15,0.45-0.26,0.77
					c-0.25,0.71-0.6,1.69-1.04,2.94c-0.23,0.64-0.48,1.35-0.76,2.12c-0.26,0.79-0.53,1.64-0.83,2.55c-0.58,1.83-1.31,3.9-1.95,6.23
					c-0.34,1.16-0.69,2.38-1.06,3.65c-0.36,1.27-0.67,2.61-1.03,3.98c-0.74,2.75-1.36,5.72-2.05,8.85
					c-1.27,6.27-2.41,13.22-3.18,20.56c-0.73,7.35-1.02,14.38-1.05,20.77c0.04,3.2,0.05,6.24,0.22,9.08
					c0.07,1.42,0.11,2.79,0.2,4.11c0.1,1.32,0.2,2.58,0.3,3.79c0.15,2.42,0.44,4.59,0.64,6.5c0.11,0.95,0.21,1.84,0.3,2.66
					c0.11,0.81,0.22,1.56,0.32,2.23c0.18,1.31,0.32,2.35,0.42,3.09c0.04,0.33,0.07,0.59,0.1,0.81
					C101.98,283.26,101.99,283.35,101.98,283.35z"/>
			</g>
		</g>
		<g>
			<g>
				<path style="fill:#E0E0E0;" d="M108.1,281.71c-0.02,0-0.03-0.21-0.04-0.61c-0.01-0.45-0.01-1.03-0.02-1.74
					c-0.01-0.76,0-1.68,0.05-2.76c0.04-1.07,0.07-2.3,0.19-3.65c0.17-2.7,0.53-5.91,1.06-9.45c0.57-3.54,1.35-7.4,2.4-11.4
					c1.08-3.99,2.33-7.73,3.61-11.08c0.68-1.66,1.29-3.25,1.97-4.69c0.33-0.72,0.65-1.42,0.96-2.1c0.33-0.66,0.65-1.29,0.95-1.9
					c0.59-1.22,1.2-2.28,1.72-3.22c0.51-0.95,0.99-1.74,1.4-2.38c0.38-0.6,0.69-1.09,0.93-1.47c0.22-0.33,0.34-0.5,0.36-0.49
					c0.02,0.01-0.08,0.2-0.27,0.55c-0.22,0.4-0.5,0.9-0.85,1.52c-0.38,0.65-0.83,1.46-1.32,2.41c-0.5,0.95-1.08,2.02-1.65,3.25
					c-0.29,0.61-0.6,1.25-0.92,1.91c-0.3,0.68-0.61,1.38-0.93,2.1c-0.66,1.44-1.25,3.03-1.92,4.69c-1.25,3.34-2.48,7.07-3.55,11.04
					c-1.05,3.98-1.83,7.83-2.43,11.34c-0.56,3.52-0.96,6.71-1.17,9.41c-0.14,1.34-0.19,2.56-0.26,3.63
					c-0.08,1.07-0.12,1.99-0.14,2.75c-0.03,0.71-0.06,1.29-0.08,1.74C108.14,281.5,108.12,281.71,108.1,281.71z"/>
			</g>
		</g>
		<g>
			<g>
				<path style="fill:#E0E0E0;" d="M151.53,221.26c0.01,0.01-0.13,0.21-0.42,0.59c-0.32,0.41-0.74,0.95-1.27,1.62
					c-1.12,1.39-2.7,3.43-4.61,5.99c-1.91,2.55-4.1,5.66-6.43,9.18c-2.31,3.53-4.75,7.47-7.14,11.71
					c-2.37,4.25-4.47,8.39-6.29,12.19c-1.79,3.82-3.3,7.3-4.49,10.26c-1.19,2.96-2.12,5.37-2.72,7.05c-0.3,0.8-0.54,1.44-0.72,1.93
					c-0.17,0.44-0.27,0.67-0.28,0.66c-0.02-0.01,0.05-0.24,0.19-0.69c0.16-0.5,0.37-1.15,0.63-1.96c0.54-1.7,1.42-4.14,2.57-7.12
					c1.14-2.98,2.63-6.49,4.4-10.33c1.79-3.83,3.89-7.98,6.27-12.24c2.4-4.25,4.86-8.2,7.19-11.72c2.36-3.51,4.58-6.6,6.53-9.13
					c1.95-2.54,3.57-4.55,4.74-5.9c0.56-0.64,1.01-1.16,1.35-1.56C151.34,221.43,151.51,221.25,151.53,221.26z"/>
			</g>
		</g>
		<g>
			<g>
				<path style="fill:#E0E0E0;" d="M149.38,257.4c0.12,0.07-3.57,6.7-8.24,14.8c-4.68,8.1-8.57,14.61-8.7,14.54
					c-0.12-0.07,3.57-6.7,8.24-14.8C145.36,263.84,149.26,257.33,149.38,257.4z"/>
			</g>
		</g>
		<g>
			<g>
				<path style="fill:#E0E0E0;" d="M185.64,243.26c0.11,0.09-7.92,10.36-17.93,22.94c-10.02,12.58-18.23,22.7-18.34,22.61
					s7.92-10.36,17.93-22.94C177.32,253.3,185.53,243.17,185.64,243.26z"/>
			</g>
		</g>
		<g>
			<g>
				<path style="fill:#E0E0E0;" d="M99.31,287.99c-0.03,0.02-0.39-0.49-1.02-1.44c-0.63-0.94-1.5-2.34-2.52-4.1
					c-2.04-3.51-4.62-8.51-6.92-14.27c-2.29-5.77-3.87-11.17-4.8-15.12c-0.47-1.98-0.8-3.59-0.99-4.7c-0.2-1.12-0.29-1.74-0.25-1.75
					c0.04-0.01,0.19,0.6,0.45,1.7c0.25,1.1,0.64,2.7,1.15,4.66c1.02,3.92,2.64,9.28,4.92,15.02c2.29,5.73,4.8,10.74,6.76,14.28
					c0.98,1.77,1.79,3.2,2.37,4.17C99.04,287.42,99.34,287.97,99.31,287.99z"/>
			</g>
		</g>
	</g>
	<g>
		<g>
			<path style="fill:#E0E0E0;" d="M99.14,124.66c-0.65-1.74-1.32-3.51-2.41-5.01c-1.1-1.5-2.7-2.73-4.54-2.96
				c-1.85-0.23-3.89,0.77-4.49,2.53c-0.26-3.96-0.83-8.03-2.81-11.47c-1.98-3.44-5.69-6.15-9.65-5.9c-3.74,0.23-6.94,3.01-8.72,6.3
				c-1.78,3.3-2.39,7.08-2.97,10.78c-1.42-1.74-4.41-1.19-5.89,0.49c-1.48,1.69-1.85,4.04-2.17,6.27l44.17,0.46L99.14,124.66z"/>
		</g>
	</g>
	<g>
		<g>
			<path style="fill:#E0E0E0;" d="M662.39,112.21c-0.78-2.07-1.57-4.18-2.88-5.96c-1.31-1.79-3.22-3.25-5.41-3.52
				c-2.2-0.27-4.63,0.92-5.35,3.01c-0.32-4.72-0.98-9.57-3.35-13.67c-2.36-4.1-6.77-7.32-11.5-7.03c-4.45,0.27-8.27,3.58-10.39,7.51
				c-2.12,3.93-2.85,8.43-3.54,12.84c-1.69-2.07-5.25-1.42-7.02,0.59c-1.76,2.01-2.21,4.82-2.58,7.46l52.62,0.55L662.39,112.21z"/>
		</g>
	</g>
	<g>
		<g>
			<path style="fill:#EBEBEB;" d="M538.67,85.25c-1.11-2.96-2.24-5.97-4.11-8.52c-1.87-2.55-4.59-4.65-7.73-5.03
				c-3.14-0.38-6.62,1.31-7.64,4.3c-0.45-6.75-1.41-13.67-4.78-19.52c-3.38-5.86-9.68-10.46-16.43-10.05
				c-6.36,0.39-11.81,5.12-14.84,10.73c-3.03,5.61-4.07,12.05-5.06,18.34c-2.41-2.96-7.5-2.03-10.02,0.84
				c-2.52,2.87-3.15,6.88-3.69,10.66l75.18,0.78L538.67,85.25z"/>
		</g>
	</g>
	<g>
		<g>
			<path style="fill:#F5F5F5;" d="M198.24,73.78c-1.11-2.96-2.24-5.97-4.11-8.52c-1.87-2.55-4.59-4.65-7.73-5.03
				c-3.14-0.38-6.62,1.31-7.64,4.3c-0.45-6.75-1.41-13.67-4.78-19.52c-3.38-5.86-9.68-10.46-16.43-10.05
				c-6.36,0.39-11.81,5.12-14.84,10.73c-3.03,5.61-4.07,12.05-5.06,18.34c-2.41-2.96-7.5-2.03-10.02,0.84
				c-2.52,2.87-3.15,6.88-3.69,10.66l75.18,0.78L198.24,73.78z"/>
		</g>
	</g>
	<g>
		<g>
			<path style="fill:#F5F5F5;" d="M343.75,166.95c-1.44-3.84-2.9-7.73-5.32-11.03c-2.42-3.31-5.95-6.02-10.01-6.51
				c-4.07-0.5-8.57,1.7-9.9,5.57c-0.58-8.74-1.82-17.7-6.19-25.28c-4.37-7.58-12.53-13.54-21.27-13.01
				c-8.24,0.5-15.29,6.62-19.21,13.89c-3.92,7.26-5.27,15.6-6.55,23.75c-3.12-3.83-9.72-2.63-12.98,1.09
				c-3.26,3.72-4.09,8.91-4.78,13.81l97.34,1.01L343.75,166.95z"/>
		</g>
	</g>
	<g>
		<g>
			<path style="fill:#F5F5F5;" d="M523.91,186.67c-1.44-3.84-2.9-7.73-5.32-11.03c-2.42-3.31-5.95-6.02-10.01-6.51
				c-4.07-0.5-8.57,1.7-9.9,5.57c-0.58-8.74-1.82-17.7-6.19-25.28c-4.37-7.58-12.53-13.54-21.27-13.01
				c-8.24,0.5-15.29,6.62-19.21,13.89c-3.92,7.26-5.27,15.6-6.55,23.75c-3.12-3.83-9.72-2.63-12.98,1.09
				c-3.26,3.72-4.09,8.91-4.78,13.81l97.34,1.01L523.91,186.67z"/>
		</g>
	</g>
</g>
<g id="Background_Simple" style="display:none;">
	<g style="display:inline;">
		<path style="fill:#F5F5F5;" d="M67.03,100.1l1.13-2.62c9.55-22.05,30.19-37.39,53.94-39.14c3.05-0.23,6.12-0.23,9.18,0
			c22.03,1.64,42.89,15.26,53.46,34.93c6.22,11.57,9.42,25.43,19.37,33.92c12.95,11.05,32.04,8.83,48.7,6
			c16.67-2.82,35.78-5,48.67,6.11c8.08,6.96,11.85,17.91,12.74,28.59c2.37,28.28-13.74,56.08-36.9,71.98
			c-23.16,15.9-52.3,21.05-80.29,19.31c-39.2-2.44-78.39-18.57-104.68-48.18C66.06,181.39,54.42,137.71,67.03,100.1z"/>
	</g>
	<g style="display:inline;">
		<path style="fill:#F5F5F5;" d="M657.87,105.55l-0.95-2.2c-8.05-18.58-25.44-31.51-45.45-32.98c-2.57-0.19-5.16-0.19-7.74,0
			c-18.57,1.38-36.14,12.86-45.05,29.43c-5.24,9.75-7.94,21.43-16.32,28.58c-10.91,9.31-27,7.44-41.04,5.06
			c-14.04-2.38-30.15-4.21-41.02,5.15c-6.81,5.86-9.98,15.09-10.74,24.1c-2,23.83,11.58,47.26,31.1,60.66
			c19.52,13.4,44.07,17.74,67.66,16.27c33.04-2.06,66.05-15.65,88.21-40.6C658.68,174.04,668.49,137.24,657.87,105.55z"/>
	</g>
</g>
<g id="Water">
	<g>
		<g>
			<path style="fill:#263238;" d="M719.39,290.07c0,0.14-156.44,0.26-349.37,0.26c-193,0-349.4-0.12-349.4-0.26
				c0-0.14,156.4-0.26,349.4-0.26C562.95,289.8,719.39,289.92,719.39,290.07z"/>
		</g>
	</g>
</g>
<g id="Plant_2">
	<g>
		<g>
			<g>
				<path style="fill:#263238;" d="M616.36,278.49c-0.01,0-0.01-0.1,0-0.31c0.01-0.23,0.03-0.53,0.05-0.89
					c0.06-0.82,0.14-1.97,0.25-3.44c0.06-0.75,0.12-1.58,0.19-2.48c0.04-0.91,0.09-1.9,0.13-2.96c0.08-2.12,0.24-4.54,0.23-7.21
					c0.01-1.34,0.03-2.74,0.04-4.19c0.01-1.46-0.06-2.98-0.09-4.55c-0.03-3.14-0.26-6.49-0.46-10.02
					c-0.54-7.04-1.43-14.77-2.84-22.79c-1.47-8.02-3.33-15.57-5.27-22.36c-1.04-3.38-1.98-6.6-3.05-9.55
					c-0.52-1.48-0.98-2.93-1.5-4.29c-0.52-1.36-1.02-2.67-1.5-3.92c-0.92-2.51-1.91-4.72-2.73-6.68c-0.41-0.98-0.8-1.88-1.16-2.72
					c-0.38-0.82-0.73-1.58-1.04-2.26c-0.61-1.34-1.09-2.39-1.43-3.13c-0.15-0.34-0.27-0.61-0.36-0.82
					c-0.08-0.19-0.11-0.28-0.11-0.29c0,0,3.16,5.83,7.16,15.77c0.49,1.25,1,2.55,1.53,3.91c0.53,1.36,1,2.81,1.53,4.29
					c1.09,2.96,2.05,6.18,3.11,9.56c1.98,6.8,3.85,14.36,5.33,22.41c1.42,8.05,2.3,15.79,2.81,22.85c0.19,3.54,0.41,6.89,0.42,10.04
					c0.02,1.57,0.08,3.09,0.06,4.55c-0.03,1.46-0.05,2.86-0.08,4.2C617.29,271.92,616.36,278.49,616.36,278.49z"/>
			</g>
		</g>
		<g>
			<g>
				<path style="fill:#263238;" d="M563.24,144.88c0.01-0.01,0.09,0.08,0.25,0.26c0.17,0.2,0.41,0.47,0.7,0.8
					c0.61,0.71,1.52,1.75,2.61,3.15c2.22,2.77,5.32,6.9,8.7,12.28c3.39,5.38,7.05,12.03,10.47,19.71
					c3.45,7.67,6.61,16.38,9.26,25.71c5.3,18.69,7.65,36.17,9,48.79c0.34,3.16,0.61,6.02,0.95,8.51c0.34,2.5,0.75,4.63,1.18,6.35
					c0.43,1.72,0.86,3.03,1.17,3.91c0.15,0.42,0.28,0.75,0.37,1c0.08,0.23,0.12,0.34,0.11,0.35c0,0-0.93-1.75-1.85-5.2
					c-0.47-1.72-0.9-3.86-1.27-6.35c-0.37-2.5-0.67-5.36-1.03-8.51c-1.45-12.6-3.85-30.04-9.14-48.69c-2.65-9.31-5.78-18-9.19-25.66
					c-3.39-7.67-7-14.32-10.35-19.71c-3.33-5.4-6.37-9.55-8.54-12.35c-1.07-1.42-1.95-2.47-2.53-3.21
					c-0.28-0.35-0.49-0.63-0.66-0.83C563.31,144.99,563.23,144.89,563.24,144.88z"/>
			</g>
		</g>
		<g>
			<path style="fill:#FF725E;" d="M595.88,170.46c2.22,7.46,5.04,14.71,8.58,21.52c0.96,1.84,2.4,3.91,4.3,3.62
				c1.31-0.2,2.29-1.56,2.57-3c0.28-1.44,0.01-2.94-0.33-4.36c-1.37-5.73-3.83-11.05-6.26-16.32c-0.86-1.85-1.77-3.78-3.32-4.95
				c-1.55-1.16-3.93-1.24-5.08,0.41C596.34,167.4,595.31,168.55,595.88,170.46z"/>
		</g>
		<g>
			<path style="fill:#FF725E;" d="M564.75,152.14c3.53,6.94,7.6,13.57,12.3,19.63c1.27,1.64,3.06,3.41,4.88,2.79
				c1.25-0.43,1.97-1.94,2-3.41c0.02-1.47-0.52-2.89-1.11-4.23c-2.38-5.39-5.75-10.18-9.09-14.93c-1.17-1.67-2.42-3.4-4.16-4.27
				c-1.73-0.87-4.09-0.51-4.92,1.32C564.64,149.04,563.84,150.36,564.75,152.14z"/>
		</g>
		<g>
			<path style="fill:#455A64;" d="M590.87,286.69c-3.89-8.18-9.22-23.68-7.78-31.46c9.22,3.46,18.16,15.85,25.52,24.43
				c-8.63-19.67-17.27-39.33-25.9-59c17.55,10.96,27.72,30.31,37.08,48.75c-4.95-14.51-7.93-29.69-8.85-44.99
				c9.74,7.84,16.62,19.16,19.08,31.42c-2.8-26.05-5.61-52.1-8.41-78.15c11.87,11.02,17.92,27.19,19.75,43.28
				c1.83,16.09-0.15,32.35-2.14,48.43c4.49-8.38,8.97-16.76,13.46-25.14c1.02,16.5-2.08,31.61-10.55,45.8l-59.62,0.03
				c-15.03-16.25-25.82-30.86-35.58-50.73C567.36,247.43,579.84,267.7,590.87,286.69z"/>
		</g>
		<g>
			<g>
				<path style="fill:#263238;" d="M632.62,283.35c-0.01,0,0-0.1,0.02-0.28c0.03-0.21,0.06-0.48,0.1-0.81
					c0.1-0.75,0.24-1.78,0.42-3.09c0.1-0.67,0.2-1.42,0.32-2.23c0.09-0.82,0.19-1.71,0.3-2.66c0.2-1.91,0.49-4.08,0.64-6.5
					c0.09-1.21,0.19-2.47,0.3-3.79c0.1-1.32,0.13-2.69,0.2-4.11c0.17-2.84,0.17-5.88,0.22-9.08c-0.03-6.4-0.32-13.43-1.05-20.77
					c-0.77-7.34-1.91-14.29-3.18-20.56c-0.69-3.12-1.31-6.1-2.05-8.85c-0.36-1.38-0.67-2.72-1.03-3.98
					c-0.37-1.27-0.72-2.48-1.06-3.65c-0.64-2.33-1.36-4.4-1.95-6.23c-0.3-0.91-0.57-1.76-0.83-2.55c-0.28-0.77-0.53-1.48-0.76-2.12
					c-0.44-1.25-0.79-2.23-1.04-2.94c-0.11-0.31-0.19-0.57-0.26-0.77c-0.06-0.17-0.08-0.27-0.07-0.27c0.01,0,0.05,0.08,0.12,0.25
					c0.08,0.2,0.18,0.44,0.31,0.75c0.27,0.7,0.65,1.67,1.13,2.91c0.24,0.64,0.51,1.34,0.8,2.11c0.27,0.78,0.56,1.63,0.87,2.54
					c0.61,1.83,1.36,3.89,2.02,6.22c0.35,1.16,0.71,2.38,1.09,3.65c0.37,1.27,0.7,2.61,1.06,3.99c0.76,2.75,1.4,5.73,2.1,8.86
					c1.29,6.28,2.45,13.24,3.23,20.6c0.73,7.36,1.01,14.42,1.01,20.83c-0.06,3.21-0.08,6.25-0.27,9.1c-0.08,1.42-0.13,2.8-0.24,4.12
					c-0.11,1.32-0.22,2.58-0.33,3.79c-0.18,2.42-0.49,4.59-0.72,6.5c-0.12,0.95-0.24,1.84-0.34,2.66c-0.13,0.81-0.25,1.55-0.36,2.23
					c-0.22,1.31-0.39,2.34-0.52,3.08c-0.06,0.33-0.11,0.59-0.15,0.8C632.65,283.26,632.63,283.35,632.62,283.35z"/>
			</g>
		</g>
		<g>
			<g>
				<path style="fill:#263238;" d="M626.5,281.71c-0.02,0-0.04-0.21-0.06-0.61c-0.02-0.45-0.05-1.03-0.08-1.74
					c-0.02-0.76-0.06-1.68-0.14-2.75c-0.07-1.07-0.12-2.29-0.26-3.63c-0.21-2.69-0.61-5.88-1.17-9.41
					c-0.6-3.52-1.38-7.36-2.43-11.34c-1.07-3.98-2.3-7.7-3.55-11.04c-0.66-1.65-1.26-3.24-1.92-4.69c-0.32-0.72-0.63-1.43-0.93-2.1
					c-0.32-0.66-0.62-1.3-0.92-1.91c-0.57-1.23-1.15-2.3-1.65-3.25c-0.49-0.96-0.94-1.76-1.32-2.41c-0.35-0.62-0.63-1.12-0.85-1.52
					c-0.19-0.35-0.28-0.54-0.27-0.55c0.02-0.01,0.14,0.16,0.36,0.49c0.24,0.38,0.55,0.87,0.93,1.47c0.41,0.64,0.89,1.43,1.4,2.38
					c0.52,0.94,1.14,2,1.72,3.22c0.3,0.61,0.62,1.24,0.95,1.9c0.31,0.67,0.63,1.37,0.96,2.1c0.68,1.44,1.29,3.03,1.97,4.69
					c1.28,3.35,2.53,7.09,3.61,11.08c1.05,4,1.83,7.87,2.4,11.4c0.53,3.54,0.9,6.75,1.06,9.45c0.12,1.35,0.15,2.57,0.19,3.65
					c0.05,1.07,0.06,2,0.05,2.76c-0.01,0.71-0.01,1.29-0.02,1.74C626.54,281.5,626.52,281.71,626.5,281.71z"/>
			</g>
		</g>
		<g>
			<g>
				<path style="fill:#263238;" d="M583.08,221.26c0.01-0.01,0.18,0.17,0.5,0.52c0.34,0.39,0.79,0.91,1.35,1.56
					c1.17,1.35,2.8,3.36,4.74,5.9c1.95,2.53,4.17,5.62,6.53,9.13c2.33,3.52,4.79,7.47,7.19,11.72c2.38,4.26,4.47,8.42,6.27,12.24
					c1.77,3.84,3.25,7.35,4.4,10.33c1.15,2.98,2.02,5.42,2.57,7.12c0.26,0.81,0.47,1.46,0.63,1.96c0.14,0.45,0.2,0.69,0.19,0.69
					c-0.02,0.01-0.11-0.22-0.28-0.66c-0.18-0.49-0.42-1.13-0.72-1.93c-0.6-1.68-1.53-4.09-2.72-7.05c-1.19-2.96-2.7-6.45-4.49-10.26
					c-1.81-3.81-3.91-7.94-6.29-12.19c-2.39-4.24-4.83-8.18-7.14-11.71c-2.33-3.51-4.52-6.62-6.43-9.18
					c-1.9-2.56-3.48-4.6-4.61-5.99c-0.53-0.67-0.95-1.21-1.27-1.62C583.21,221.48,583.06,221.28,583.08,221.26z"/>
			</g>
		</g>
		<g>
			<g>
				<path style="fill:#263238;" d="M585.22,257.4c0.12-0.07,4.02,6.44,8.69,14.54c4.68,8.1,8.37,14.73,8.24,14.8
					c-0.12,0.07-4.02-6.44-8.7-14.54C588.79,264.1,585.1,257.47,585.22,257.4z"/>
			</g>
		</g>
		<g>
			<g>
				<path style="fill:#263238;" d="M548.96,243.26c0.11-0.09,8.32,10.04,18.34,22.61c10.02,12.58,18.05,22.85,17.93,22.94
					c-0.11,0.09-8.32-10.03-18.34-22.61C556.88,253.62,548.85,243.35,548.96,243.26z"/>
			</g>
		</g>
		<g>
			<g>
				<path style="fill:#263238;" d="M635.29,287.99c-0.03-0.02,0.27-0.57,0.85-1.55c0.58-0.97,1.39-2.4,2.37-4.17
					c1.96-3.54,4.47-8.55,6.76-14.28c2.28-5.74,3.9-11.1,4.92-15.02c0.51-1.96,0.9-3.55,1.15-4.66c0.26-1.1,0.42-1.71,0.45-1.7
					c0.04,0.01-0.06,0.63-0.25,1.75c-0.19,1.12-0.52,2.73-0.99,4.7c-0.93,3.95-2.5,9.36-4.8,15.12c-2.3,5.76-4.88,10.76-6.92,14.27
					c-1.02,1.76-1.89,3.15-2.52,4.1C635.68,287.49,635.32,288.01,635.29,287.99z"/>
			</g>
		</g>
	</g>
</g>
<g id="Sun">
	<g>
		<g>
			<g>
				
					<ellipse transform="matrix(0.1211 -0.9926 0.9926 0.1211 252.8489 438.2157)" style="fill-rule:evenodd;clip-rule:evenodd;fill:#FF725E;" cx="373.89" cy="76.32" rx="36.92" ry="36.92"/>
			</g>
			<g style="opacity:0.9;">
				
					<ellipse transform="matrix(0.1211 -0.9926 0.9926 0.1211 252.8489 438.2157)" style="fill-rule:evenodd;clip-rule:evenodd;fill:#FFFFFF;" cx="373.89" cy="76.32" rx="36.92" ry="36.92"/>
			</g>
		</g>
		<g>
			<g>
				<circle style="fill-rule:evenodd;clip-rule:evenodd;fill:#FF725E;" cx="373.89" cy="76.32" r="32.93"/>
			</g>
			<g style="opacity:0.6;">
				<circle style="fill-rule:evenodd;clip-rule:evenodd;fill:#FFFFFF;" cx="373.89" cy="76.32" r="32.93"/>
			</g>
		</g>
		<g>
			<g>
				
					<ellipse transform="matrix(0.9873 -0.1588 0.1588 0.9873 -7.376 60.352)" style="fill-rule:evenodd;clip-rule:evenodd;fill:#FF725E;" cx="373.89" cy="76.32" rx="27.4" ry="27.4"/>
			</g>
			<g style="opacity:0.3;">
				
					<ellipse transform="matrix(0.9873 -0.1588 0.1588 0.9873 -7.376 60.352)" style="fill-rule:evenodd;clip-rule:evenodd;fill:#FFFFFF;" cx="373.89" cy="76.32" rx="27.4" ry="27.4"/>
			</g>
		</g>
		<g>
			<path style="fill-rule:evenodd;clip-rule:evenodd;fill:#FF725E;" d="M395.83,76.32c0,12.12-9.82,21.94-21.94,21.94
				c-12.12,0-21.94-9.82-21.94-21.94c0-12.12,9.82-21.94,21.94-21.94C386,54.38,395.83,64.21,395.83,76.32z"/>
		</g>
	</g>
</g>
<g id="Birds">
	<g>
		<g>
			<g>
				<g>
					<g>
						<g>
							<path style="fill:#263238;" d="M206.8,112.98c-0.02,0.05-0.83-0.29-2.36-0.63c-1.52-0.33-3.81-0.63-6.58-0.25
								c-2.75,0.37-6.02,1.48-8.87,3.83c-2.85,2.31-5.29,5.8-6.26,9.94c-0.01,0.04-0.02,0.08-0.03,0.11l-0.18,0.71l-0.27-0.67
								c-1.59-3.94-4.43-7.07-7.5-9.05c-3.08-2.03-6.39-2.86-9.16-3.05c-2.78-0.19-5.04,0.21-6.54,0.6c-1.51,0.4-2.31,0.75-2.33,0.7
								c-0.01-0.02,0.19-0.11,0.57-0.27c0.38-0.17,0.95-0.39,1.71-0.61c1.5-0.45,3.78-0.91,6.61-0.76c2.81,0.15,6.21,0.97,9.38,3.02
								c3.16,2.01,6.07,5.21,7.7,9.25l-0.46,0.04c0.01-0.04,0.02-0.07,0.03-0.11c1-4.26,3.52-7.83,6.45-10.18
								c2.94-2.39,6.3-3.49,9.11-3.82c2.83-0.34,5.15,0.01,6.67,0.41c0.77,0.19,1.35,0.39,1.74,0.55
								C206.6,112.88,206.8,112.97,206.8,112.98z"/>
						</g>
					</g>
				</g>
			</g>
		</g>
		<g>
			<g>
				<g>
					<g>
						<g>
							<path style="fill:#263238;" d="M272.64,80.49c-0.01,0.04-0.47-0.13-1.31-0.3c-0.84-0.17-2.09-0.32-3.6-0.1
								c-1.5,0.21-3.28,0.82-4.83,2.11c-1.55,1.26-2.87,3.16-3.4,5.42l-0.02,0.06l-0.18,0.71l-0.27-0.67
								c-0.87-2.14-2.41-3.85-4.08-4.94c-1.68-1.11-3.48-1.57-4.99-1.69c-1.52-0.12-2.76,0.09-3.58,0.29
								c-0.83,0.21-1.28,0.39-1.29,0.35c-0.01-0.02,0.1-0.07,0.31-0.17c0.21-0.1,0.52-0.23,0.94-0.35c0.83-0.26,2.08-0.53,3.65-0.45
								c1.56,0.07,3.45,0.52,5.21,1.65c1.75,1.11,3.37,2.88,4.28,5.13l-0.46,0.04l0.02-0.06c0.56-2.37,1.96-4.35,3.59-5.65
								c1.64-1.32,3.51-1.93,5.06-2.1c1.57-0.18,2.85,0.03,3.69,0.26c0.42,0.11,0.74,0.23,0.95,0.32
								C272.53,80.41,272.64,80.47,272.64,80.49z"/>
						</g>
					</g>
				</g>
			</g>
		</g>
		<g>
			<g>
				<g>
					<g>
						<g>
							<path style="fill:#263238;" d="M229.59,65.7c0.03,0.03-0.45,0.52-1.27,1.44c-0.82,0.92-1.93,2.31-3.09,4.17
								c-2.33,3.67-4.67,9.52-4.59,16.24c0,0.07,0,0.14,0,0.2l-0.48,0.04c-0.5-3.28-1.59-6.28-2.97-8.79
								c-1.38-2.52-2.99-4.57-4.52-6.11c-1.53-1.54-2.92-2.63-3.92-3.32c-1-0.69-1.58-1.04-1.56-1.08c0.01-0.01,0.16,0.06,0.44,0.21
								c0.28,0.16,0.71,0.37,1.22,0.71c1.04,0.65,2.48,1.7,4.05,3.24c1.58,1.53,3.25,3.58,4.67,6.13c1.42,2.54,2.55,5.6,3.06,8.94
								l-0.48,0.04c0-0.07,0-0.14,0-0.21c-0.08-6.83,2.35-12.76,4.78-16.42c1.21-1.86,2.37-3.23,3.24-4.12
								c0.42-0.46,0.79-0.77,1.02-0.99C229.45,65.8,229.58,65.69,229.59,65.7z"/>
						</g>
					</g>
				</g>
			</g>
		</g>
	</g>
</g>
<g id="Lines">
	<g>
		<g>
			<path style="fill:#263238;" d="M561.74,422.97c0,0.14-42.76,0.26-95.5,0.26c-52.75,0-95.51-0.12-95.51-0.26
				c0-0.14,42.75-0.26,95.51-0.26C518.97,422.71,561.74,422.83,561.74,422.97z"/>
		</g>
	</g>
	<g>
		<g>
			<path style="fill:#263238;" d="M638.49,299.99c0,0.14-10.48,0.26-23.41,0.26c-12.93,0-23.41-0.12-23.41-0.26
				c0-0.14,10.48-0.26,23.41-0.26C628.01,299.73,638.49,299.85,638.49,299.99z"/>
		</g>
	</g>
	<g>
		<g>
			<path style="fill:#263238;" d="M508.26,434.32c0,0.14-22.66,0.26-50.6,0.26c-27.95,0-50.61-0.12-50.61-0.26
				s22.65-0.26,50.61-0.26C485.6,434.06,508.26,434.17,508.26,434.32z"/>
		</g>
	</g>
</g>
<g id="Characters">
	<g>
		<g>
			<g>
				<g>
					<path style="fill:#FF725E;" d="M486.68,313.62c0.28,0.85,11.02,59.03,11.02,59.03h43.78l9.89-59.03H486.68z"/>
				</g>
				<g style="opacity:0.3;">
					<path d="M488.16,321.27c0,0.02-0.57-3.01-0.57-3.01h63l-0.59,3.53L488.16,321.27z"/>
				</g>
				<g>
					<rect x="484.64" y="312.4" style="fill:#FF725E;" width="68.03" height="6.55"/>
				</g>
			</g>
			<g>
				<g>
					<path style="fill:#263238;" d="M552.64,319.05c0,0.14-15.23,0.26-34,0.26c-18.78,0-34-0.12-34-0.26c0-0.14,15.22-0.26,34-0.26
						C537.42,318.79,552.64,318.91,552.64,319.05z"/>
				</g>
			</g>
			<g>
				<g>
					<g>
						<path style="fill:#263238;" d="M550.24,319.14c0.01,0.01-0.03,0.05-0.11,0.13c-0.08,0.08-0.2,0.2-0.38,0.33
							c-0.35,0.28-0.9,0.63-1.62,1.06c-1.45,0.84-3.61,1.94-6.39,3.06c-1.39,0.55-2.94,1.11-4.64,1.59
							c-1.71,0.47-3.55,0.81-5.5,1.18c-3.89,0.7-8.22,1.25-12.79,1.41c-4.57,0.14-8.94-0.08-12.85-0.79
							c-3.91-0.72-7.3-1.91-10.02-3.17c-2.73-1.24-4.8-2.5-6.22-3.39c-0.71-0.45-1.24-0.81-1.6-1.07c-0.36-0.25-0.54-0.39-0.53-0.41
							c0.01-0.01,0.21,0.1,0.59,0.32c0.42,0.25,0.97,0.58,1.65,0.98c1.44,0.83,3.53,2.04,6.26,3.23c2.72,1.2,6.09,2.35,9.96,3.03
							c3.86,0.68,8.21,0.89,12.74,0.75c4.54-0.15,8.84-0.69,12.72-1.36c1.94-0.35,3.79-0.67,5.47-1.12
							c1.69-0.45,3.23-0.99,4.62-1.52c2.78-1.06,4.96-2.11,6.43-2.89c0.73-0.4,1.29-0.72,1.65-0.96
							C550.05,319.28,550.22,319.12,550.24,319.14z"/>
					</g>
				</g>
				<g>
					<path style="fill:#263238;" d="M525.74,330.52h-14.84c-1.48,0-2.68-1.2-2.68-2.68l0,0c0-1.48,1.2-2.68,2.68-2.68h14.84
						c1.48,0,2.68,1.2,2.68,2.68l0,0C528.42,329.32,527.22,330.52,525.74,330.52z"/>
				</g>
			</g>
		</g>
		<g>
			<g>
				<path style="fill:#FF9A6C;" d="M467.58,275.98c-0.01,0,4.87-1.02,10.16-0.26c5.29,0.76,7.89,2.18,9.16,2.58
					c1.27,0.41-1,4.4-4.16,3.46c-3.17-0.94-10.76-0.08-11.22-0.19c-0.46-0.11-4.57-0.6-4.57-0.6L467.58,275.98z"/>
			</g>
			<g>
				<g>
					<path style="fill:#263238;" d="M466.69,291.5c-8.56-6.11-21.48-4.45-33.1-2.93c-11.62,1.52-34.4,1.62-34.4,1.62l-59.47,19.37
						l1.8,8.1c3.79,17.09,20.06,22.29,37.57,22.31c0.41,0,1.35-0.46,1.76-0.47c23.18-0.42,46.81-5.19,46.81-5.19
						s-16.61,28.66-3.7,51.37c1.08,1.9,27.66,3.59,30.28,3.65c2.62,0.06,14.58-54.02,16.49-64.03S475.25,297.61,466.69,291.5z"/>
				</g>
				<g>
					<g>
						<path style="fill:#455A64;" d="M447.24,313.25c0.02,0.03-0.29,0.35-0.88,0.9c-0.67,0.63-1.5,1.41-2.5,2.35
							c-2.1,1.99-4.95,4.79-7.92,8.05c-2.97,3.26-5.51,6.35-7.29,8.63c-0.84,1.08-1.54,1.98-2.11,2.71
							c-0.5,0.64-0.79,0.98-0.82,0.96c-0.03-0.02,0.2-0.4,0.65-1.08c0.44-0.68,1.12-1.64,1.98-2.81c1.72-2.34,4.22-5.48,7.2-8.76
							c2.99-3.27,5.89-6.05,8.06-7.97c1.09-0.96,1.98-1.72,2.62-2.23C446.86,313.49,447.22,313.23,447.24,313.25z"/>
					</g>
				</g>
				<g style="opacity:0.3;">
					<g>
						<path d="M427.04,334.37c3.26-11.81,13.15-21.54,25.01-24.62c-9.67,7-18.18,15.6-25.07,25.35"/>
					</g>
				</g>
			</g>
			<g>
				<polygon style="fill:#FF9A6C;" points="420.92,233.09 434.64,261.69 469.82,275.65 462.62,287.37 425.57,278.23 420.99,241.21 
									"/>
			</g>
			<g>
				<g>
					<path style="fill:#263238;" d="M463.5,166.31c0,0-3.38,7.52-17.9,6.47l-0.28-8.17L463.5,166.31z"/>
				</g>
				<g>
					<g>
						<g>
							<g>
								<g>
									<g>
										<g>
											<g>
												<g>
													<g>
														<path style="fill:#FFBF9D;" d="M430,148.56l1.05,0.34c10.6,3.4,16.81,14.38,14.27,25.22
															c-2.36,10.08-5.1,21.19-6.86,26.45c-3.64,10.88-15.11,9.07-15.11,9.07l-3.29,13.41l-26.24-9.33l12.93-48.33
															C409.43,153.74,418.43,145.58,430,148.56z"/>
													</g>
												</g>
											</g>
										</g>
									</g>
									<g>
										<g>
											<g>
												<g>
													<g>
														<g>
															<g>
																<g>
																	<g>
																		<g>
																			<g>
																				<path style="fill:#FF9A6C;" d="M423.37,209.64c0,0-7.03-1.81-12.88-8.77c0,0,0.94,9.17,12.15,11.69
																					L423.37,209.64z"/>
																			</g>
																		</g>
																	</g>
																</g>
															</g>
														</g>
													</g>
												</g>
											</g>
										</g>
									</g>
									<g>
										<g>
											<g>
												<g>
													<g>
														<g>
															<g>
																<g>
																	<g>
																		<g>
																			<g>
																				<g>
																					<g>
																						<g>
																							<path style="fill:#263238;" d="M436.75,183.5c-0.23,0.83-1.13,1.32-2.01,1.09
																								c-0.87-0.23-1.39-1.09-1.16-1.92c0.24-0.83,1.13-1.32,2.01-1.09C436.47,181.81,436.99,182.67,436.75,183.5z"
																								/>
																						</g>
																					</g>
																				</g>
																			</g>
																		</g>
																	</g>
																</g>
															</g>
														</g>
													</g>
												</g>
											</g>
										</g>
									</g>
									<g>
										<g>
											<g>
												<g>
													<g>
														<g>
															<g>
																<g>
																	<g>
																		<g>
																			<g>
																				<g>
																					<g>
																						<g>
																							<g>
																								<path style="fill:#263238;" d="M441.26,178.71c-0.26,0.14-1.16-1.11-2.84-1.65
																									c-1.67-0.56-3.18-0.09-3.29-0.35c-0.06-0.12,0.25-0.42,0.92-0.64c0.65-0.22,1.67-0.31,2.72,0.03
																									c1.04,0.34,1.8,1.01,2.18,1.56C441.33,178.23,441.39,178.65,441.26,178.71z"/>
																							</g>
																						</g>
																					</g>
																				</g>
																			</g>
																		</g>
																	</g>
																</g>
															</g>
														</g>
													</g>
												</g>
											</g>
										</g>
									</g>
									<g>
										<g>
											<g>
												<g>
													<g>
														<g>
															<g>
																<g>
																	<g>
																		<g>
																			<g>
																				<g>
																					<g>
																						<g>
																							<path style="fill:#263238;" d="M420.94,177.72c-0.24,0.83-1.13,1.32-2.01,1.09
																								c-0.87-0.23-1.39-1.09-1.16-1.92c0.24-0.83,1.13-1.32,2.01-1.09C420.65,176.02,421.17,176.88,420.94,177.72z
																								"/>
																						</g>
																					</g>
																				</g>
																			</g>
																		</g>
																	</g>
																</g>
															</g>
														</g>
													</g>
												</g>
											</g>
										</g>
									</g>
									<g>
										<g>
											<g>
												<g>
													<g>
														<g>
															<g>
																<g>
																	<g>
																		<g>
																			<g>
																				<g>
																					<g>
																						<g>
																							<g>
																								<path style="fill:#263238;" d="M424.67,173.73c-0.26,0.14-1.16-1.11-2.84-1.65
																									c-1.67-0.56-3.18-0.09-3.29-0.35c-0.06-0.12,0.25-0.42,0.92-0.64c0.65-0.22,1.67-0.31,2.72,0.03
																									c1.04,0.34,1.8,1.01,2.18,1.56C424.74,173.24,424.79,173.67,424.67,173.73z"/>
																							</g>
																						</g>
																					</g>
																				</g>
																			</g>
																		</g>
																	</g>
																</g>
															</g>
														</g>
													</g>
												</g>
											</g>
										</g>
									</g>
									<g>
										<g>
											<g>
												<g>
													<g>
														<g>
															<g>
																<g>
																	<g>
																		<g>
																			<g>
																				<g>
																					<g>
																						<g>
																							<path style="fill:#263238;" d="M426.77,188.13c0.02-0.1,1.12,0.06,2.88,0.38c0.44,0.09,0.88,0.14,1.04-0.13
																								c0.2-0.28,0.17-0.8,0.12-1.36c-0.07-1.17-0.14-2.39-0.22-3.67c-0.27-5.21-0.32-9.44-0.11-9.45
																								c0.21-0.01,0.6,4.21,0.87,9.42c0.06,1.28,0.11,2.5,0.16,3.67c0.01,0.54,0.11,1.18-0.32,1.75
																								c-0.22,0.28-0.61,0.41-0.91,0.4c-0.3,0-0.54-0.08-0.76-0.13C427.8,188.56,426.74,188.23,426.77,188.13z"/>
																						</g>
																					</g>
																				</g>
																			</g>
																		</g>
																	</g>
																</g>
															</g>
														</g>
													</g>
												</g>
											</g>
										</g>
									</g>
									<g>
										<g>
											<g>
												<g>
													<g>
														<g>
															<g>
																<g>
																	<g>
																		<g>
																			<path style="fill:#263238;" d="M428.2,167.74c-0.36,0.35-1.65-0.57-3.4-1.19c-1.74-0.67-3.34-0.81-3.36-1.3
																				c0-0.23,0.44-0.51,1.18-0.65c0.74-0.14,1.79-0.09,2.84,0.29c1.05,0.39,1.86,1.03,2.31,1.61
																				C428.23,167.08,428.36,167.57,428.2,167.74z"/>
																		</g>
																	</g>
																</g>
															</g>
														</g>
													</g>
												</g>
											</g>
										</g>
									</g>
									<g>
										<g>
											<g>
												<g>
													<g>
														<g>
															<g>
																<g>
																	<g>
																		<g>
																			<path style="fill:#263238;" d="M443.57,171.82c-0.48,0.27-1.73-0.57-3.39-1.13c-1.64-0.6-3.16-0.73-3.35-1.23
																				c-0.08-0.24,0.26-0.55,1-0.71c0.72-0.16,1.83-0.13,2.97,0.26c1.13,0.4,2.02,1.06,2.47,1.64
																				C443.72,171.23,443.78,171.68,443.57,171.82z"/>
																		</g>
																	</g>
																</g>
															</g>
														</g>
													</g>
												</g>
											</g>
										</g>
									</g>
									<g>
										<g>
											<g>
												<g>
													<g>
														<g>
															<g>
																<g>
																	<g>
																		<path style="fill:#263238;" d="M445.88,168.78c0,0-0.68-7.76-3.47-10.42c-3.37-3.21-6.5,0.62-9.96-1.67
																			c-3.46-2.28-6.68-5.36-11.51-3.67c-5.29,1.85-4.02,4.75-5.84,9.51c-7.37,19.3-12.74,23.7-10.79,14.12
																			c0.21-1.05-2.34-2.76-1.38-7.18c1.24-5.73,3.19-12.54,5.7-16.08c2.11-2.99,4.74-4.67,8.95-6.11
																			c6.64-2.27,14.03,0.01,18.87,2.11C441.29,151.51,449.09,160.36,445.88,168.78z"/>
																	</g>
																</g>
															</g>
														</g>
													</g>
												</g>
											</g>
										</g>
									</g>
									<g>
										<g>
											<g>
												<g>
													<g>
														<g>
															<g>
																<g>
																	<g>
																		<path style="fill:#FFBF9D;" d="M405.11,176.59c0.47-1.71-0.55-3.5-2.28-3.88c-2.1-0.46-4.74-0.03-5.95,4.22
																			c-2.16,7.54,5.86,8.15,5.93,7.94C402.86,184.72,404.23,179.75,405.11,176.59z"/>
																	</g>
																</g>
															</g>
														</g>
													</g>
												</g>
											</g>
										</g>
									</g>
									<g>
										<g>
											<g>
												<g>
													<g>
														<g>
															<g>
																<g>
																	<g>
																		<path style="fill:#FF9A6C;" d="M401.98,181.55c-0.03-0.03-0.16,0.05-0.41,0.09c-0.24,0.04-0.64,0-0.99-0.26
																			c-0.71-0.52-1.02-1.98-0.67-3.35c0.18-0.69,0.51-1.3,0.91-1.78c0.39-0.49,0.85-0.77,1.28-0.73
																			c0.43,0.02,0.64,0.34,0.67,0.58c0.04,0.24-0.05,0.38-0.01,0.4c0.02,0.03,0.2-0.08,0.23-0.41
																			c0.01-0.16-0.03-0.36-0.16-0.56c-0.14-0.2-0.38-0.35-0.67-0.4c-0.59-0.13-1.27,0.26-1.71,0.78
																			c-0.47,0.51-0.86,1.19-1.06,1.97c-0.39,1.53-0.02,3.18,0.98,3.81c0.49,0.29,0.98,0.26,1.26,0.14
																			C401.91,181.73,402,181.58,401.98,181.55z"/>
																	</g>
																</g>
															</g>
														</g>
													</g>
												</g>
											</g>
										</g>
									</g>
								</g>
							</g>
						</g>
					</g>
					<g>
						<g>
							<g>
								<g>
									<g>
										<g>
											<g>
												<g>
													<g>
														<g>
															<g>
																<g>
																	<g>
																		<g>
																			<g>
																				<g>
																					<path style="fill:#263238;" d="M425.38,193.58c0.05-0.29-1.91-0.5-3.13-2.32c-1.22-1.82-0.79-3.89-1.06-3.93
																						c-0.12-0.04-0.43,0.43-0.54,1.31c-0.12,0.86,0.03,2.15,0.77,3.27c0.75,1.11,1.84,1.67,2.64,1.82
																						C424.87,193.88,425.38,193.71,425.38,193.58z"/>
																				</g>
																			</g>
																		</g>
																	</g>
																</g>
															</g>
														</g>
													</g>
												</g>
											</g>
										</g>
									</g>
								</g>
							</g>
						</g>
					</g>
				</g>
				<g>
					<g>
						<g>
							<g>
								<g>
									<g>
										<g>
											<g>
												<g>
													<g>
														<g>
															<g>
																<g>
																	<g>
																		<g>
																			<g>
																				<g>
																					<path style="fill:#455A64;" d="M446.65,167.51c0,0-1.13-2.63-5.2-5.13c-7.56-4.65-18.9-8.65-34.67,0.38
																						l-2.96,2.63c0,0,1.77-6.55,3.28-9.48c1.01-1.95,5.6-14.26,21.79-12.26
																						C427.94,143.54,450.05,147.47,446.65,167.51z"/>
																				</g>
																			</g>
																		</g>
																	</g>
																</g>
															</g>
														</g>
													</g>
												</g>
											</g>
										</g>
									</g>
								</g>
							</g>
						</g>
					</g>
				</g>
				<g>
					<path style="fill:#455A64;" d="M447.44,160.82c-11.9-4.65-24.17-6.29-35.33-0.87c7.04-0.91,16.43,0.4,22.93,3.24
						c6.51,2.84,13.06,6.06,20.14,6.56c3.19,0.23,7.02-0.51,8.31-3.44L447.44,160.82z"/>
				</g>
				<g>
					<g>
						<path style="fill:#263238;" d="M411.36,158.27c-0.01-0.03,0.49-0.19,1.41-0.44c0.46-0.13,1.02-0.27,1.69-0.4
							c0.66-0.14,1.42-0.3,2.26-0.42c1.68-0.3,3.71-0.47,5.96-0.6c2.25-0.08,4.74-0.05,7.33,0.16c5.19,0.44,9.81,1.51,13.05,2.54
							c1.62,0.51,2.92,0.98,3.8,1.36c0.88,0.37,1.36,0.58,1.34,0.62c-0.01,0.03-0.52-0.12-1.41-0.43c-0.89-0.32-2.2-0.73-3.83-1.19
							c-3.25-0.93-7.84-1.94-12.99-2.37c-2.57-0.21-5.03-0.25-7.27-0.2c-2.23,0.1-4.25,0.24-5.92,0.48
							c-0.84,0.09-1.6,0.23-2.26,0.34c-0.67,0.1-1.24,0.21-1.7,0.31C411.89,158.21,411.37,158.3,411.36,158.27z"/>
					</g>
				</g>
			</g>
			<g>
				<g>
					<g>
						<path style="fill:#263238;" d="M692.77,407.32c0,0-0.01-0.41,0-1.22c0.01-0.82,0.03-2.02,0.05-3.59
							c0.06-3.17,0.14-7.81,0.25-13.8c0.24-11.99,0.59-29.33,1.03-50.75c0.92-42.86,2.19-102.05,3.59-167.43
							c0.08-3.83,0.17-7.65,0.25-11.19l0.33,0.26c-7.58,2.03-14.98,4.36-22.14,7.02c-7.13,2.73-14.09,5.58-20.75,8.75
							c-13.39,6.22-25.81,13.15-37.51,19.94c-11.67,6.83-22.59,13.58-32.82,19.84c-10.25,6.23-19.62,12.28-27.99,18.06
							c-16.73,11.57-29.48,21.96-38.17,29.21c-4.34,3.64-7.68,6.5-9.93,8.45c-1.12,0.97-1.98,1.71-2.56,2.21
							c-0.58,0.5-0.88,0.74-0.88,0.74s0.28-0.27,0.85-0.78c0.58-0.51,1.42-1.26,2.53-2.25c2.23-1.97,5.54-4.86,9.87-8.52
							c8.66-7.3,21.38-17.73,38.1-29.36c8.36-5.8,17.73-11.88,27.98-18.12c10.22-6.28,21.13-13.04,32.8-19.89
							c11.69-6.8,24.13-13.75,37.53-19.99c6.67-3.18,13.64-6.04,20.78-8.77c7.17-2.67,14.59-5,22.19-7.04l0.33-0.09l-0.01,0.35
							c-0.08,3.55-0.16,7.36-0.24,11.19c-1.46,65.38-2.79,124.57-3.75,167.43c-0.5,21.42-0.91,38.76-1.19,50.75
							c-0.15,5.98-0.27,10.63-0.35,13.8c-0.05,1.57-0.08,2.77-0.1,3.59C692.8,406.9,692.77,407.32,692.77,407.32z"/>
					</g>
				</g>
				<g>
					<g>
						<path style="fill:#455A64;" d="M524.45,254.4c1.48,1.32,2.82,2.79,4.29,4.11c0.49,0.44,1.29,0.52,1.77,0
							c0.44-0.48,0.52-1.3,0-1.77c-1.48-1.32-2.82-2.79-4.29-4.11c-0.49-0.44-1.29-0.52-1.77,0
							C524.01,253.11,523.93,253.93,524.45,254.4L524.45,254.4z"/>
					</g>
				</g>
				<g>
					<g>
						<path style="fill:#455A64;" d="M554.59,231.43c1.16,1.61,2.15,3.33,3.31,4.94c0.19,0.27,0.41,0.48,0.75,0.57
							c0.3,0.08,0.7,0.05,0.96-0.13c0.53-0.34,0.86-1.14,0.45-1.71c-1.16-1.61-2.15-3.33-3.31-4.94c-0.19-0.27-0.41-0.48-0.75-0.57
							c-0.3-0.08-0.7-0.05-0.96,0.13C554.51,230.06,554.18,230.86,554.59,231.43L554.59,231.43z"/>
					</g>
				</g>
				<g>
					<g>
						<path style="fill:#455A64;" d="M590.48,206.04c1.16,1.61,2.15,3.33,3.31,4.94c0.19,0.27,0.41,0.48,0.75,0.57
							c0.3,0.08,0.7,0.05,0.96-0.13c0.53-0.34,0.86-1.14,0.45-1.71c-1.16-1.61-2.15-3.33-3.31-4.94c-0.19-0.27-0.41-0.48-0.75-0.57
							c-0.3-0.08-0.7-0.05-0.96,0.13C590.4,204.67,590.07,205.48,590.48,206.04L590.48,206.04z"/>
					</g>
				</g>
				<g>
					<g>
						<path style="fill:#455A64;" d="M624.85,186.34c1.16,1.61,2.15,3.33,3.31,4.94c0.19,0.27,0.41,0.48,0.75,0.57
							c0.3,0.08,0.7,0.05,0.96-0.13c0.53-0.34,0.86-1.14,0.45-1.71c-1.16-1.61-2.15-3.33-3.31-4.94c-0.19-0.27-0.41-0.48-0.75-0.57
							c-0.3-0.08-0.7-0.05-0.96,0.13C624.77,184.97,624.44,185.77,624.85,186.34L624.85,186.34z"/>
					</g>
				</g>
				<g>
					<g>
						<path style="fill:#455A64;" d="M663.63,168.51c0.21,0.43,0.42,0.86,0.62,1.29c0.07,0.16,0.14,0.32,0.21,0.47
							c0.03,0.08,0.07,0.15,0.1,0.23c0.02,0.04,0.03,0.08,0.05,0.11c-0.01-0.03-0.14-0.33-0.06-0.14c0.35,0.84,0.72,1.66,1.13,2.48
							c0.29,0.59,1.17,0.8,1.71,0.45c0.6-0.39,0.76-1.08,0.45-1.71c-0.21-0.43-0.42-0.86-0.62-1.29c-0.07-0.16-0.14-0.32-0.21-0.47
							c-0.03-0.08-0.07-0.15-0.1-0.23c-0.02-0.04-0.03-0.08-0.05-0.11c0.01,0.03,0.14,0.33,0.06,0.14
							c-0.35-0.84-0.72-1.66-1.13-2.48c-0.29-0.59-1.17-0.8-1.71-0.45C663.48,167.19,663.32,167.89,663.63,168.51L663.63,168.51z"/>
					</g>
				</g>
				<g>
					<g>
						<g>
							<path style="fill:#263238;" d="M524.16,285.11c0,0,2.15-1.95,0.2-5.52c-1.96-3.56-5.71-2.68-5.71-2.68L524.16,285.11z"/>
						</g>
						<g>
							<path style="fill:#263238;" d="M524,283.57c-0.06-0.08-3.65,2.18-3.65,2.18l-3.29-5.81l3.09-2.11L524,283.57z"/>
						</g>
						<g>
							<polygon style="fill:#263238;" points="516.45,278.26 521.66,286.84 511.91,292.3 507.29,283.62 							"/>
						</g>
						<g>
							<path style="fill:#263238;" d="M506.7,287.92c0,0,2.51,0.7,2.04,2.29c-0.47,1.6-3.02,0.67-6.18,0.36
								c-2.88-0.28-6.78-0.79-11.59,1c-0.77,0.29-1.62-0.17-1.82-0.97l0,0c-0.18-0.7,0.21-1.43,0.9-1.66
								C493.22,287.91,501.79,285.46,506.7,287.92z"/>
						</g>
						<g>
							<path style="fill:#263238;" d="M507.86,291.52c0,0-0.69,2.3-3.59,1.74c-2.91-0.56-3.03-2.78-2.92-4.34
								c0.11-1.56,1.31-4.29,1.38-6.05c0.06-1.76,1.44-3.68,1.04-6.47c-0.4-2.79-2.45-4.88-2.45-4.88l2.06-1.19
								c0,0,2.44,3.57,2.69,6.6c0.24,3.04-0.24,3.93,0.26,5.31c0.51,1.38,3.13,1.42,3.13,1.42s1.98,6.63,1.95,6.63
								C511.39,290.28,507.86,291.52,507.86,291.52z"/>
						</g>
					</g>
					<g>
						<path style="fill:#455A64;" d="M699.38,155.98c-99.41,27.19-223.77,138.81-223.77,138.81s-2.96,0.89-5.49-0.59
							c0,0,119.86-111.6,228.79-139.16"/>
					</g>
				</g>
			</g>
			<g>
				<g style="opacity:0.3;">
					<g>
						<path d="M355.01,305.69l-14.66,6.85c11.88,0.91,23.89,0.72,35.61-1.43c11.72-2.15,23.14-6.32,33.04-12.94
							c3.24-2.17,6.42-4.73,8.11-8.25C396.31,294.75,375.6,300.01,355.01,305.69z"/>
					</g>
				</g>
				<g>
					<path style="fill:#455A64;" d="M399.43,204.3c0,0,21.44,12.27,22.44,14.86c1.5,3.89-1.38,5.2-1.38,5.2L399.43,204.3z"/>
				</g>
				<g>
					<g>
						<path style="fill:#FF725E;" d="M424.63,251.25c2.3-11.96-2.51-25.73-2.51-25.73L397,202.03c-5.51-0.83-15.74-1.4-26,7.35
							c-9.34,7.96-10.84,15.9-10.84,15.9c-23.8,20.62-20.13,45.42-20.13,45.42s0.04-0.1,0,0c-4.48,12.77-4.96,20.62-0.31,34.92
							c-1.4,2.13-0.66,3.84,0.56,6.29c15.88-0.49,31.01-1.92,43.93-6.05c6.12-1.26,20.27-7.57,25.65-10.75l7.25-5.79
							c0,0,2.63-2.72,2.9-3.59c3.47-11.17,0-17.23,0-17.23S422.33,263.21,424.63,251.25z"/>
					</g>
				</g>
				<g>
					<g>
						<path style="fill:#263238;" d="M417.11,272.32c0,0.02-0.27-0.03-0.77-0.14c-0.55-0.13-1.27-0.3-2.18-0.51
							c-0.94-0.23-2.1-0.51-3.46-0.78c-1.35-0.28-2.88-0.64-4.6-0.92c-1.71-0.32-3.58-0.66-5.6-0.93c-2.02-0.33-4.19-0.56-6.47-0.83
							c-4.57-0.46-9.61-0.8-14.91-0.86c-5.3-0.03-10.35,0.22-14.93,0.6c-2.28,0.23-4.46,0.42-6.48,0.72
							c-2.03,0.24-3.91,0.55-5.62,0.83c-1.72,0.25-3.26,0.59-4.61,0.84c-1.36,0.25-2.52,0.5-3.47,0.72
							c-0.91,0.2-1.64,0.35-2.19,0.47c-0.5,0.1-0.77,0.15-0.77,0.13c0-0.02,0.25-0.1,0.75-0.23c0.54-0.14,1.27-0.33,2.17-0.56
							c0.94-0.25,2.1-0.53,3.46-0.8c1.35-0.28,2.89-0.64,4.61-0.92c1.71-0.31,3.59-0.64,5.63-0.9c2.03-0.31,4.2-0.52,6.5-0.77
							c4.59-0.41,9.65-0.67,14.97-0.64c5.32,0.06,10.38,0.41,14.96,0.9c2.29,0.29,4.46,0.53,6.48,0.88c2.03,0.3,3.9,0.66,5.61,1
							c1.71,0.31,3.24,0.69,4.59,1c1.35,0.3,2.5,0.6,3.44,0.87c0.9,0.25,1.62,0.45,2.16,0.6
							C416.86,272.22,417.12,272.3,417.11,272.32z"/>
					</g>
				</g>
				<g>
					<g>
						<path style="fill:#263238;" d="M423.37,250.64c-0.01,0.02-0.22-0.07-0.63-0.26c-0.45-0.21-1.03-0.49-1.76-0.84
							c-1.52-0.73-3.73-1.77-6.48-3.03c-5.49-2.5-13.14-5.85-21.72-9.2c-8.57-3.38-16.46-6.1-22.22-7.92
							c-2.88-0.9-5.22-1.62-6.84-2.07c-0.77-0.23-1.39-0.41-1.87-0.55c-0.43-0.13-0.65-0.21-0.64-0.23c0-0.02,0.23,0.03,0.67,0.12
							c0.48,0.12,1.11,0.27,1.89,0.46c1.64,0.39,4,1.05,6.9,1.91c5.79,1.74,13.72,4.4,22.3,7.79c8.59,3.36,16.23,6.76,21.69,9.35
							c2.73,1.3,4.91,2.4,6.41,3.18c0.71,0.38,1.28,0.69,1.71,0.92C423.18,250.51,423.38,250.63,423.37,250.64z"/>
					</g>
				</g>
				<g>
					<g>
						<path style="fill:#263238;" d="M418.18,286.59c0.01,0.02-0.23,0.17-0.7,0.46c-0.51,0.31-1.19,0.72-2.05,1.23
							c-0.9,0.52-1.98,1.19-3.27,1.91c-1.31,0.7-2.79,1.5-4.42,2.38c-6.59,3.42-16.06,7.63-27.14,10.26
							c-5.53,1.33-10.9,2.13-15.8,2.54c-4.9,0.42-9.34,0.58-13.05,0.57c-1.86,0.02-3.54-0.01-5.02-0.04
							c-1.48-0.02-2.75-0.06-3.79-0.11c-1-0.05-1.8-0.08-2.39-0.11c-0.55-0.03-0.83-0.06-0.83-0.07c0-0.02,0.29-0.03,0.84-0.03
							c0.59,0,1.39,0.01,2.39,0.01c1.04,0.02,2.31,0.02,3.78,0.02c1.48,0.01,3.15,0.01,5.01-0.03c3.71-0.04,8.13-0.23,13.01-0.68
							c4.88-0.44,10.23-1.25,15.73-2.57c11.02-2.61,20.48-6.75,27.09-10.08c1.64-0.85,3.13-1.62,4.45-2.3
							c1.3-0.69,2.4-1.33,3.31-1.83c0.88-0.48,1.58-0.86,2.1-1.15C417.92,286.7,418.17,286.58,418.18,286.59z"/>
					</g>
				</g>
				<g style="opacity:0.3;">
					<g>
						<path d="M375.17,222.17c0.21,4.12-1.32,11.13-0.64,15.2c2.65,15.92,12.17,29.88,23.06,41.79c3.16,3.46,6.6,6.89,10.99,8.54
							c3.38,1.27,7.07,1.38,10.68,1.36c10.74-0.04,21.47-1.03,32.04-2.95L375.17,222.17z"/>
					</g>
				</g>
				<g>
					<g>
						<path style="fill:#263238;" d="M370.39,267.08c-0.04,0.01-0.13-0.5-0.27-1.42c-0.09-0.46-0.12-1.03-0.15-1.69
							c-0.02-0.34-0.04-0.69-0.06-1.06c0-0.38,0.01-0.78,0.01-1.19c0.01-3.33,0.57-7.93,1.82-12.86c1.24-4.93,2.9-9.25,4.42-12.21
							c0.76-1.48,1.48-2.63,2.01-3.39c0.56-0.75,0.89-1.14,0.91-1.12c0.03,0.02-0.24,0.46-0.74,1.23c-0.48,0.79-1.14,1.95-1.85,3.44
							c-1.42,2.98-3.02,7.28-4.25,12.18c-1.24,4.89-1.85,9.44-1.96,12.74c-0.02,0.41-0.03,0.8-0.05,1.18
							c0.01,0.37,0.01,0.72,0.02,1.05c0.01,0.66,0.01,1.22,0.07,1.68C370.4,266.56,370.43,267.07,370.39,267.08z"/>
					</g>
				</g>
				<g>
					<g>
						<path style="fill:#263238;" d="M369.1,304.68c-0.03,0.01-0.27-0.48-0.67-1.4c-0.21-0.46-0.44-1.02-0.68-1.69
							c-0.25-0.67-0.54-1.42-0.79-2.28c-1.09-3.4-2.24-8.27-2.37-13.76c-0.05-2.74,0.14-5.36,0.6-7.69c0.5-2.32,1.12-4.39,1.95-6
							c0.2-0.4,0.36-0.8,0.56-1.15c0.21-0.34,0.41-0.66,0.61-0.97c0.19-0.3,0.36-0.58,0.53-0.84c0.18-0.25,0.37-0.46,0.53-0.65
							c0.64-0.77,1.01-1.19,1.03-1.16c0.12,0.08-1.47,1.69-2.93,4.93c-0.77,1.6-1.34,3.64-1.81,5.93c-0.42,2.31-0.59,4.89-0.55,7.59
							c0.14,5.42,1.22,10.26,2.21,13.67c0.23,0.86,0.49,1.62,0.71,2.29c0.21,0.68,0.41,1.25,0.59,1.72
							C368.96,304.14,369.14,304.67,369.1,304.68z"/>
					</g>
				</g>
				<g>
					<g>
						<path style="fill:#263238;" d="M406.7,225.47c-0.12,0,0.14-2-0.6-5.07c-0.71-3.03-2.69-7.18-6.52-10.12
							c-3.85-2.92-8.37-3.74-11.49-3.61c-3.16,0.1-5.02,0.88-5.05,0.76c-0.01-0.02,0.11-0.07,0.32-0.16
							c0.22-0.08,0.54-0.22,0.97-0.34c0.85-0.27,2.13-0.54,3.74-0.64c3.17-0.22,7.85,0.55,11.82,3.57
							c3.96,3.03,5.94,7.34,6.57,10.45c0.33,1.57,0.41,2.88,0.38,3.77c0,0.45-0.05,0.79-0.07,1.03
							C406.74,225.35,406.72,225.47,406.7,225.47z"/>
					</g>
				</g>
			</g>
			<g>
				<g>
					<g>
						<g>
							<path style="fill:#FFBF9D;" d="M469.07,277.21c0,0,9.93,0.81,10.91,1.62c0.99,0.8,1.31,2.13,3.23,3.2
								c1.92,1.07,6.46,4.77,7.81,8.16c1.34,3.39,2.11,5.58,1.72,7.06c-0.39,1.49-1.81,3.53-4.15,1.88c0,0-2,1.49-3.41,1
								c-1.41-0.49-1.96-1.26-1.96-1.26s0.12,1.76-1.63,1.78c-1.2,0.01-2.52-0.72-2.52-0.72s-1.82,1.68-4.01,1.48
								s-7.81-9.94-7.81-9.94L469.07,277.21z"/>
						</g>
					</g>
					<g>
						<g>
							<path style="fill:#FF9A6C;" d="M486.1,292.37c0.11-0.08,1.15,1.27,1.86,3.23c0.72,1.95,0.81,3.66,0.67,3.67
								c-0.15,0.02-0.46-1.6-1.16-3.49C486.78,293.89,485.97,292.45,486.1,292.37z"/>
						</g>
					</g>
					<g>
						<g>
							<path style="fill:#FF9A6C;" d="M481.43,294.79c0.1-0.06,0.93,0.85,1.51,2.3c0.49,1.49,0.44,2.72,0.33,2.73
								c-0.17,0.03-0.36-1.19-0.82-2.55C481.92,295.93,481.28,294.87,481.43,294.79z"/>
						</g>
					</g>
					<g>
						<g>
							<path style="fill:#FF9A6C;" d="M477.1,297.23c0.12-0.08,0.65,0.49,1.12,1.31c0.47,0.82,0.7,1.56,0.57,1.62
								c-0.13,0.06-0.56-0.56-1.02-1.36C477.3,298,476.98,297.31,477.1,297.23z"/>
						</g>
					</g>
				</g>
				<g>
					<path style="fill:#FFBF9D;" d="M385.72,209.05c-13.7,2.98-11,14.97-6.63,28.39c4.7,14.42,29.5,46.2,37.18,49.42
						c7.69,3.22,52.02,4.8,52.02,4.8l2.36-14.17l-43.67-11.8c0,0-14.57-27.26-18.27-34.55
						C404.08,222.03,400.97,205.74,385.72,209.05z"/>
				</g>
				<g>
					<path style="fill:#455A64;" d="M384.11,251.97c-3.5-5.55-6.24-10.71-7.51-14.61c-4.51-13.85-4.67-25.95,9.48-29.02
						c15.74-3.42,18.95,13.39,23.72,22.79l3.77,7.25L384.11,251.97z"/>
				</g>
			</g>
		</g>
		<g>
			<g>
				<path style="fill:#455A64;" d="M235.7,377.47h-47.71c-7.52,0-13.62-6.1-13.62-13.62v-38.12c0-7.52,6.1-13.62,13.62-13.62h47.71
					c7.52,0,13.62,6.1,13.62,13.62v38.12C249.32,371.37,243.22,377.47,235.7,377.47z"/>
			</g>
			<g>
				<g>
					<path style="fill:#263238;" d="M249.32,324.67c0,0.14-16.71,0.26-37.31,0.26c-20.61,0-37.32-0.12-37.32-0.26
						s16.7-0.26,37.32-0.26C232.61,324.41,249.32,324.53,249.32,324.67z"/>
				</g>
			</g>
		</g>
		<g>
			<g>
				<g>
					<path style="fill:#FFBF9D;" d="M240.65,248.83c0,0,8.78,13.92,17.36,19.14c2.84,1.73,6.55,0.84,8.42-1.91l14.12-20.74l-13.54-7
						l-6.78,9.8l-10.07-1.73l-4.73-5.39c0,0-7.84-6.96-8.02-6.89c-0.18,0.08-6.46,3.78-6.46,3.78l6.52,8.97L240.65,248.83z"/>
				</g>
				<g>
					<path style="fill:#455A64;" d="M287.95,215.96c-1.19,1.03-6.64,2-13.31,10.06c-7.16,8.65-11.88,14.64-11.88,14.64
						c0.41-0.38,17.09,7.02,17.09,7.02L287.95,215.96z"/>
				</g>
			</g>
			<g>
				<g>
					<path style="fill:#263238;" d="M60.25,407.45c0,0-0.02-0.42-0.04-1.23c-0.02-0.82-0.04-2.02-0.07-3.6
						c-0.05-3.17-0.13-7.84-0.23-13.84c-0.18-12.03-0.43-29.41-0.74-50.89c-0.58-42.98-1.37-102.34-2.25-167.9
						c-0.13-10.14-0.26-20.14-0.38-29.61l0-0.29l0.26,0.03c1.91,0.24,3.64,0.67,5.43,1.11c1.78,0.41,3.52,0.95,5.26,1.44
						c1.75,0.47,3.45,1.08,5.16,1.63c1.71,0.55,3.41,1.11,5.07,1.74c1.67,0.61,3.33,1.22,4.99,1.83c1.65,0.61,3.27,1.31,4.89,1.95
						c1.62,0.65,3.23,1.31,4.84,1.96c1.58,0.7,3.16,1.39,4.73,2.08c6.31,2.69,12.32,5.7,18.25,8.53c2.92,1.51,5.8,3,8.65,4.47
						c1.42,0.74,2.84,1.47,4.25,2.19c1.39,0.76,2.76,1.52,4.13,2.28c5.46,3.04,10.83,5.91,15.87,8.97c2.54,1.5,5.04,2.98,7.5,4.43
						c1.23,0.73,2.45,1.45,3.66,2.16c1.19,0.75,2.37,1.49,3.54,2.22c4.68,2.93,9.18,5.76,13.51,8.47c4.26,2.82,8.33,5.53,12.22,8.1
						c7.82,5.08,14.62,10.04,20.67,14.24c6.07,4.18,11.13,7.98,15.28,11.04c4.14,3.07,7.35,5.44,9.53,7.06
						c1.08,0.8,1.9,1.42,2.46,1.84c0.55,0.42,0.83,0.64,0.83,0.64s-0.29-0.2-0.86-0.6c-0.57-0.41-1.4-1.01-2.49-1.8
						c-2.19-1.6-5.42-3.95-9.58-6.99c-4.17-3.04-9.24-6.82-15.32-10.97c-6.07-4.17-12.87-9.12-20.71-14.17
						c-3.89-2.57-7.97-5.26-12.23-8.07c-4.33-2.7-8.84-5.52-13.52-8.44c-1.17-0.73-2.35-1.47-3.54-2.21
						c-1.21-0.71-2.43-1.43-3.66-2.16c-2.46-1.45-4.96-2.92-7.5-4.41c-5.05-3.05-10.41-5.91-15.87-8.94
						c-1.37-0.75-2.74-1.51-4.13-2.27c-1.41-0.72-2.82-1.45-4.25-2.19c-2.85-1.47-5.73-2.95-8.65-4.45
						c-5.93-2.82-11.93-5.82-18.24-8.5c-1.57-0.69-3.14-1.38-4.73-2.08c-1.6-0.65-3.21-1.3-4.83-1.95
						c-1.62-0.64-3.24-1.33-4.89-1.94c-1.65-0.6-3.31-1.21-4.98-1.82c-1.66-0.63-3.35-1.19-5.06-1.74c-1.7-0.55-3.4-1.15-5.14-1.62
						c-1.73-0.49-3.47-1.03-5.24-1.43c-1.75-0.44-3.57-0.87-5.3-1.09l0.26-0.26c0.12,9.47,0.25,19.47,0.39,29.61
						c0.82,65.56,1.56,124.92,2.1,167.9c0.24,21.48,0.44,38.86,0.58,50.89c0.06,6,0.1,10.66,0.13,13.84
						c0.01,1.57,0.02,2.78,0.02,3.6C60.26,407.04,60.25,407.45,60.25,407.45z"/>
				</g>
			</g>
			<g>
				<g>
					<path style="fill:#455A64;" d="M63.79,139.03c-0.4,1.44-0.8,2.88-1.2,4.32c-0.22,0.78,0.99,1.11,1.21,0.33
						c0.4-1.44,0.8-2.88,1.2-4.32C65.21,138.59,64.01,138.26,63.79,139.03L63.79,139.03z"/>
				</g>
			</g>
			<g>
				<g>
					<path style="fill:#455A64;" d="M101.85,152.98c-0.68,1.33-1.36,2.67-2.04,4c-0.15,0.29-0.09,0.69,0.22,0.86
						c0.29,0.15,0.7,0.09,0.86-0.22c0.68-1.33,1.36-2.67,2.04-4c0.15-0.29,0.09-0.69-0.22-0.86
						C102.42,152.6,102.01,152.66,101.85,152.98L101.85,152.98z"/>
				</g>
			</g>
			<g>
				<g>
					<path style="fill:#455A64;" d="M133.2,168.48c-0.68,1.33-1.36,2.67-2.04,4c-0.15,0.29-0.09,0.69,0.22,0.86
						c0.29,0.15,0.7,0.09,0.86-0.22c0.68-1.33,1.36-2.67,2.04-4c0.15-0.29,0.09-0.69-0.22-0.86
						C133.77,168.1,133.35,168.17,133.2,168.48L133.2,168.48z"/>
				</g>
			</g>
			<g>
				<g>
					<path style="fill:#455A64;" d="M173.17,191.78c-0.68,1.33-1.36,2.67-2.04,4c-0.15,0.29-0.09,0.69,0.22,0.86
						c0.29,0.15,0.7,0.09,0.86-0.22c0.68-1.33,1.36-2.67,2.04-4c0.15-0.29,0.09-0.69-0.22-0.86
						C173.74,191.4,173.33,191.47,173.17,191.78L173.17,191.78z"/>
				</g>
			</g>
			<g>
				<g>
					<path style="fill:#455A64;" d="M208.44,214.92c-0.97,1.14-1.95,2.27-2.92,3.41c-0.21,0.25-0.26,0.64,0,0.88
						c0.23,0.21,0.66,0.26,0.88,0c0.97-1.14,1.95-2.27,2.92-3.41c0.21-0.25,0.26-0.64,0-0.88
						C209.09,214.71,208.67,214.66,208.44,214.92L208.44,214.92z"/>
				</g>
			</g>
			<g>
				<path style="fill:#263238;" d="M319.08,291.73c0,0,0.58,8.28-1.23,14.78c-1.81,6.51,4.54,22.8,6.1,35.09
					c1.56,12.29,4.23,34.69,4.23,34.69l-18.51,4.71c0,0-3.02-4.27-6.16-15.02c-3.34-11.45-14.18-54.01-14.18-54.01
					s-4.17,25.3-4.17,26.38s1.6,31.8,1.6,31.8l-18.58,2.53c0,0-5.78-21.68-7.17-26.38c-1.39-4.7,1.75-53.49,2.87-54.57
					C263.88,291.73,302.39,287.04,319.08,291.73z"/>
			</g>
			<g>
				<g>
					<g>
						<g>
							<path style="fill:#263238;" d="M304.7,156.69c-2.46,0.52-4.28,3.1-4.47,5.4c0,0,0.2-0.39-1.52-0.57
								c-1.72-0.19-3.23,0.23-4.18,1.09c-1.05,0.95-3.27,3.9-1.88,6.51c-2.64,1.55-0.4,9.67,0.33,11.67
								c1.05,2.87,1.59,2.71,4.33,4.07c4.4,2.19,5.47-0.46,10.19-1.83c8.74-2.54,17.91-3.1,26.99-3.65
								c2.28-4.78-0.13-11.78-4.78-14.31c-4.53-2.47-9.26-1.05-15.05-4.5C314.68,160.57,309.09,155.76,304.7,156.69z"/>
						</g>
					</g>
					<g>
						<path style="fill:#FFBF9D;" d="M288.71,195.86c0.91-5.69,3.79-12.8,6.62-19.9c2.55-6.39,11.71-10.6,17.98-7.79l16.82,9.76
							l-0.42,3.39l-8.62,23.73l-4.31,17.02l-21.07-1.67l2.64-9.97C298.34,210.43,286.88,207.29,288.71,195.86z"/>
					</g>
					<g>
						<g>
							<path style="fill:#263238;" d="M296.31,186.59c-0.27,0.73,0.13,1.55,0.88,1.85c0.75,0.29,1.58-0.06,1.85-0.79
								c0.27-0.73-0.13-1.55-0.88-1.85C297.41,185.51,296.58,185.86,296.31,186.59z"/>
						</g>
					</g>
					<g>
						<g>
							<path style="fill:#263238;" d="M294.58,183.41c0.11,0.21,1.27-0.23,2.63,0.17c1.36,0.37,2.16,1.36,2.35,1.24
								c0.09-0.05,0.02-0.4-0.32-0.84c-0.34-0.44-0.98-0.96-1.82-1.2c-0.85-0.24-1.65-0.13-2.15,0.07
								C294.75,183.06,294.52,183.32,294.58,183.41z"/>
						</g>
					</g>
					<g>
						<g>
							<path style="fill:#263238;" d="M308.31,187.42c0.11,0.21,1.27-0.23,2.63,0.17c1.36,0.37,2.16,1.36,2.35,1.24
								c0.09-0.05,0.02-0.4-0.32-0.84c-0.34-0.44-0.98-0.96-1.82-1.2c-0.85-0.24-1.65-0.13-2.15,0.07
								C308.48,187.06,308.26,187.32,308.31,187.42z"/>
						</g>
					</g>
					<g>
						<g>
							<path style="fill:#263238;" d="M309.45,190.54c-0.27,0.73,0.13,1.55,0.88,1.85c0.75,0.29,1.58-0.06,1.85-0.79
								c0.27-0.73-0.13-1.56-0.88-1.85C310.54,189.46,309.72,189.82,309.45,190.54z"/>
						</g>
					</g>
					<g>
						<g>
							<path style="fill:#263238;" d="M300.45,195.5c0.03-0.06-0.05-0.15-1.51-0.81c-0.37-0.16-0.71-0.34-0.72-0.57
								c-0.02-0.25,0.24-0.51,0.53-0.8c0.58-0.6,1.2-1.23,1.84-1.89c0.68-0.68,2.66-2.91,2.82-3.35c-0.15-0.1-0.79,0.27-3.37,2.98
								c-0.63,0.67-1.23,1.31-1.8,1.92c-0.25,0.29-0.62,0.59-0.56,1.1c0.03,0.26,0.26,0.51,0.49,0.65c0.23,0.14,0.44,0.22,0.63,0.29
								C300.3,195.59,300.45,195.5,300.45,195.5z"/>
						</g>
					</g>
					<g>
						<g>
							<path style="fill:#FF9A6C;" d="M298.34,210.43c0,0,4.38,2.34,13.06,0.35c0,0-2.35,6-14.07,3.5L298.34,210.43z"/>
						</g>
					</g>
					<g>
						<g>
							<path style="fill:#263238;" d="M309.67,182.28c0.02,0.52,1.43,0.6,2.95,1.22c1.54,0.58,2.68,1.49,2.99,1.1
								c0.14-0.19,0.02-0.7-0.38-1.29c-0.4-0.59-1.12-1.23-2.04-1.59c-0.92-0.36-1.84-0.36-2.49-0.18
								C310.04,181.72,309.66,182.04,309.67,182.28z"/>
						</g>
					</g>
					<g>
						<g>
							<path style="fill:#263238;" d="M296.99,177.2c0.11,0.5,1.33,0.53,2.61,1.03c1.3,0.45,2.24,1.23,2.65,0.92
								c0.19-0.16,0.18-0.62-0.14-1.18c-0.31-0.56-0.96-1.18-1.85-1.51c-0.89-0.33-1.79-0.28-2.4-0.06
								C297.26,176.62,296.95,176.96,296.99,177.2z"/>
						</g>
					</g>
					<g>
						<g>
							<path style="fill:#263238;" d="M334.39,174.78c0,0,6.73,2.13,5.27,10.23s-7.02,13.89-11.47,16.15
								c-4.46,2.26-6.89,2.03-6.89,2.03l0.48-14.42L334.39,174.78z"/>
						</g>
					</g>
					<g>
						<g>
							<path style="fill:#263238;" d="M298.28,170.1c3.18-3.08,7.76-4.45,12.18-4.28c4.42,0.17,8.69,1.77,12.52,3.98
								c3.83,2.21,7.27,5.02,10.7,7.82c0.83,0.68,1.72,1.46,1.87,2.52c0.1,0.72-0.16,1.44-0.42,2.12
								c-2.18,5.73-4.36,11.46-6.54,17.2l-2.72,3.08c-1.9-0.58-3.05-2.48-3.83-4.3c-2.71-6.38-2.84-13.81-0.35-20.28
								c-0.79,0.55-1.27,1.43-1.85,2.2c-0.58,0.77-1.4,1.49-2.37,1.45c-1.61-0.07-2.31-2.15-2.06-3.73
								c0.26-1.59,1.04-3.15,0.72-4.73c-2.19,1.69-4.77,2.88-7.48,3.44c-1.28,0.26-2.86,0.27-3.59-0.81
								c-0.51-0.77-0.36-1.83,0.12-2.62c0.49-0.79,1.25-1.35,1.99-1.9c-2.42,1.39-5.24,2.05-8.02,1.88
								c-0.61-0.04-1.3-0.16-1.63-0.68C297.03,171.69,297.64,170.72,298.28,170.1z"/>
						</g>
					</g>
					<g>
						<g>
							<path style="fill:#FFBF9D;" d="M324.27,195.38c0.19-0.02,7.32,0.26,4.89,6.81c-2.43,6.55-8.51,2.76-8.45,2.57
								C320.77,204.57,324.27,195.38,324.27,195.38z"/>
						</g>
					</g>
					<g>
						<g>
							<path style="fill:#FF9A6C;" d="M326.8,201.96c0.06-0.12,0.12-0.25,0.17-0.37c0.24-0.59,0.32-1.2,0.29-1.75
								c-0.02-0.55-0.21-1-0.53-1.19c-0.32-0.21-0.64-0.09-0.79,0.06c-0.16,0.15-0.16,0.3-0.2,0.3c-0.02,0.01-0.1-0.16,0.05-0.41
								c0.08-0.12,0.21-0.25,0.41-0.31c0.21-0.07,0.46-0.05,0.69,0.07c0.49,0.22,0.77,0.86,0.82,1.46c0.07,0.61-0.01,1.31-0.28,1.97
								c-0.53,1.3-1.67,2.29-2.71,2.21c-0.51-0.05-0.84-0.33-0.98-0.56c-0.14-0.24-0.12-0.4-0.1-0.4c0.04-0.01,0.08,0.12,0.24,0.28
								c0.16,0.16,0.46,0.34,0.85,0.33C325.42,203.64,326.29,202.94,326.8,201.96"/>
						</g>
					</g>
					<g>
						<g>
							<path style="fill:#FF9A6C;" d="M300.15,198.62c1.75-0.35,3.5-0.7,5.25-1.05c0.15-0.03,0.32-0.05,0.43,0.04
								c0.08,0.07,0.11,0.17,0.14,0.27c0.28,1.14-0.14,2.43-1.03,3.19c-0.9,0.76-2.02,0.85-3.1,0.4
								C300.76,201.01,300.23,199.8,300.15,198.62L300.15,198.62z"/>
						</g>
					</g>
					<g>
						<g>
							<path style="fill:#455A64;" d="M324.87,173.78c0,0-0.02,0.02-0.05,0.07c-0.03,0.06-0.08,0.13-0.13,0.22
								c-0.11,0.2-0.27,0.49-0.46,0.87c-0.38,0.77-0.9,1.91-1.31,3.4c-0.41,1.48-0.71,3.33-0.44,5.37c0.13,1.01,0.4,2.1,1.09,3
								c0.35,0.45,0.8,0.83,1.33,1.08c0.53,0.25,1.16,0.33,1.76,0.19c0.7-0.16,1.29-0.58,1.77-1.04c0.49-0.46,0.89-0.98,1.26-1.49
								l-0.16-0.01c0.49,0.78,0.8,1.63,1.2,2.41c0.39,0.78,0.9,1.48,1.55,1.95c0.65,0.48,1.47,0.64,2.16,0.45
								c0.69-0.17,1.24-0.59,1.61-1.03c0.38-0.46,0.58-0.96,0.7-1.4c0.12-0.45,0.15-0.84,0.16-1.16c0-0.32-0.02-0.57-0.04-0.73
								c-0.02-0.17-0.04-0.25-0.04-0.25c-0.01,0,0,0.09,0.01,0.25c0.01,0.16,0.02,0.41,0.01,0.73c-0.02,0.31-0.06,0.7-0.18,1.14
								c-0.13,0.43-0.33,0.91-0.71,1.35c-0.37,0.42-0.9,0.82-1.55,0.97c-0.65,0.17-1.41,0.01-2.03-0.44
								c-0.62-0.45-1.11-1.13-1.49-1.9c-0.39-0.77-0.7-1.62-1.2-2.43c-0.03-0.05-0.09-0.06-0.13-0.03
								c-0.01,0.01-0.02,0.02-0.03,0.03c-0.37,0.5-0.77,1.02-1.24,1.46c-0.47,0.44-1.03,0.84-1.68,0.99
								c-0.55,0.12-1.13,0.06-1.63-0.18c-0.5-0.23-0.93-0.59-1.26-1.02c-0.66-0.86-0.93-1.92-1.06-2.91c-0.27-2,0.01-3.84,0.4-5.31
								c0.39-1.48,0.89-2.62,1.24-3.4c0.18-0.39,0.33-0.69,0.43-0.89c0.04-0.09,0.08-0.17,0.11-0.23
								C324.86,173.81,324.87,173.78,324.87,173.78z"/>
						</g>
					</g>
					<g>
						<g>
							<path style="fill:#455A64;" d="M308.1,163.72c-0.02,0,0,0.1-0.04,0.27c-0.04,0.18-0.18,0.41-0.45,0.63
								c-0.26,0.23-0.63,0.44-1.02,0.76c-0.19,0.16-0.38,0.37-0.49,0.65c-0.12,0.27-0.1,0.62,0.03,0.91
								c0.13,0.3,0.36,0.57,0.65,0.76c0.29,0.2,0.64,0.32,1,0.42c0.72,0.18,1.49,0.33,2.32,0.41c1.65,0.16,3.5,0.08,5.36-0.38
								c0.75-0.19,1.48-0.42,2.15-0.7l-0.13-0.1c-0.07,0.81-0.13,1.62-0.04,2.39c0.08,0.77,0.34,1.5,0.78,2.07
								c0.42,0.57,1.04,0.96,1.67,1.06c0.63,0.1,1.22-0.05,1.69-0.26c0.48-0.21,0.86-0.5,1.17-0.77c0.31-0.27,0.54-0.53,0.73-0.75
								c0.19-0.21,0.33-0.39,0.42-0.5c0.09-0.12,0.14-0.18,0.13-0.18c0,0-0.06,0.05-0.16,0.16c-0.11,0.12-0.26,0.28-0.44,0.48
								c-0.39,0.4-0.97,1.03-1.9,1.44c-0.46,0.19-1.03,0.32-1.62,0.22c-0.59-0.1-1.16-0.46-1.55-1.01
								c-0.41-0.54-0.65-1.24-0.73-1.99c-0.08-0.75-0.02-1.54,0.05-2.35c0-0.05-0.04-0.1-0.09-0.11c-0.02,0-0.03,0-0.05,0.01
								c-0.67,0.27-1.38,0.51-2.13,0.69c-1.84,0.46-3.66,0.55-5.29,0.39c-0.82-0.08-1.59-0.22-2.29-0.39
								c-0.35-0.09-0.68-0.21-0.96-0.39c-0.28-0.18-0.49-0.42-0.61-0.69c-0.12-0.27-0.14-0.57-0.04-0.81
								c0.09-0.25,0.27-0.45,0.45-0.61c0.36-0.32,0.74-0.55,0.99-0.79c0.26-0.24,0.41-0.49,0.43-0.68c0.02-0.09,0.01-0.16,0.01-0.21
								C308.1,163.75,308.1,163.72,308.1,163.72z"/>
						</g>
					</g>
					<g>
						<g>
							<path style="fill:#263238;" d="M342.35,173.73c0.07-0.35-0.3-0.77-1.03-1.05c-0.73-0.28-1.82-0.38-2.96-0.1
								c-1.14,0.28-2.07,0.87-2.58,1.46c-0.52,0.59-0.65,1.13-0.43,1.41c0.48,0.56,1.95,0.08,3.64-0.31
								C340.65,174.7,342.18,174.45,342.35,173.73z"/>
						</g>
					</g>
					<g>
						<g>
							<path style="fill:#263238;" d="M334.93,176.07c0.6,0.39,2.04-0.79,2.73-2.84c0.7-2.05,0.27-3.86-0.44-3.92
								c-0.73-0.07-1.46,1.35-2.05,3.07C334.59,174.11,334.31,175.68,334.93,176.07z"/>
						</g>
					</g>
					<g>
						<g>
							<path style="fill:#263238;" d="M300.55,200.68c-0.05,0,0.39,0.85,1.74,1.19c0.65,0.16,1.54,0.13,2.34-0.34
								c0.79-0.46,1.46-1.33,1.64-2.39c0.06-0.51,0.12-1.11-0.34-1.59c-0.24-0.23-0.57-0.28-0.82-0.26
								c-0.26,0.02-0.47,0.07-0.68,0.11c-0.84,0.18-1.58,0.37-2.2,0.56c-1.24,0.37-1.98,0.69-1.95,0.75
								c0.02,0.07,0.8-0.12,2.05-0.39c0.63-0.14,1.37-0.29,2.2-0.44c0.42-0.08,0.86-0.17,1.06,0.04c0.22,0.21,0.24,0.69,0.18,1.13
								c-0.15,0.89-0.71,1.65-1.37,2.06c-0.66,0.42-1.42,0.49-2.02,0.39C301.13,201.29,300.6,200.6,300.55,200.68z"/>
						</g>
					</g>
				</g>
				<g>
					<path style="fill:#FF9A6C;" d="M312.4,195.87c-0.25,0.92-1.82,1.29-3.49,0.83c-1.67-0.46-2.82-1.58-2.57-2.5
						c0.25-0.92,1.81-1.29,3.49-0.83C311.5,193.83,312.65,194.95,312.4,195.87z"/>
				</g>
				<g>
					<path style="fill:#FF9A6C;" d="M297.42,191.48c-0.25,0.92-1.69,1.32-3.21,0.9c-1.52-0.42-2.55-1.5-2.3-2.42
						c0.25-0.92,1.69-1.32,3.21-0.9C296.64,189.48,297.67,190.56,297.42,191.48z"/>
				</g>
			</g>
			<g>
				<path style="fill:#455A64;" d="M289.95,217.49c0,0-13.31,10.6-15.66,25.79c-1.5,9.66-11.36,44.68-11.67,50.69
					c-0.32,6.01,27.34,4.79,36.51,4.63c9.18-0.16,23.43-4.63,23.43-4.63s1.09-35.74,1.41-36.17c0.32-0.43,1.17-32.07,0-37.3
					c-1.17-5.22-5.06-5.86-5.06-5.86h-20.25L289.95,217.49z"/>
			</g>
			<g>
				<g>
					<path style="fill:#FF725E;" d="M326.56,244.19c0,0,0.34-9.28,0.03-18.16c-0.31-8.88-6.89-11.35-6.89-11.35l-22.97-0.77
						c0,0-18.65,0-18.63,17.89c0,0-10.27,8.65-8.76,23.87c0,0-11.83,10.55-5.47,27.16l-0.54,4.72c0,0,1.83,0.82,23.82,1.42
						c21.99,0.6,35.16-2.64,35.16-2.64l0.01-3.93c0,0,5.61-4.76,3.09-21.83C325.41,260.56,327.66,251.89,326.56,244.19z"/>
				</g>
				<g>
					<g>
						<path style="fill:#263238;" d="M310.33,234.02c-0.01,0.14-7.12-0.27-15.87-0.92c-8.76-0.65-15.85-1.29-15.84-1.44
							c0.01-0.14,7.12,0.27,15.87,0.92C303.25,233.24,310.34,233.88,310.33,234.02z"/>
					</g>
				</g>
				<g>
					<g>
						<path style="fill:#263238;" d="M322.56,260.87c0,0.02-0.19,0-0.54-0.05c-0.41-0.06-0.91-0.14-1.52-0.23
							c-1.4-0.22-3.29-0.51-5.6-0.87c-4.73-0.72-11.27-1.6-18.53-2.28c-7.26-0.68-13.86-1.02-18.64-1.19
							c-2.33-0.07-4.25-0.13-5.66-0.18c-0.62-0.02-1.13-0.04-1.54-0.06c-0.35-0.02-0.54-0.04-0.54-0.06c0-0.02,0.18-0.03,0.54-0.05
							c0.41-0.01,0.92-0.02,1.54-0.04c1.34-0.03,3.28-0.03,5.67,0.01c4.79,0.08,11.4,0.36,18.68,1.04
							c7.27,0.68,13.83,1.62,18.54,2.44c2.36,0.4,4.26,0.76,5.57,1.04c0.61,0.13,1.1,0.24,1.51,0.33
							C322.38,260.8,322.56,260.85,322.56,260.87z"/>
					</g>
				</g>
				<g>
					<g>
						<path style="fill:#263238;" d="M320.32,283.22c0,0.02-0.19,0.06-0.57,0.11c-0.43,0.06-0.97,0.13-1.64,0.22
							c-1.42,0.18-3.48,0.42-6.04,0.67c-5.1,0.5-12.18,1.05-20.01,1.12c-7.84,0.06-14.92-0.47-20.01-1.13
							c-2.54-0.33-4.6-0.65-6-0.93c-0.66-0.13-1.19-0.24-1.62-0.32c-0.37-0.08-0.56-0.13-0.56-0.15c0-0.02,0.2,0,0.58,0.04
							c0.43,0.06,0.97,0.13,1.64,0.22c1.42,0.22,3.47,0.48,6.02,0.76c5.09,0.57,12.15,1.04,19.97,0.98
							c7.81-0.07,14.87-0.56,19.98-0.97c2.5-0.21,4.55-0.38,6.05-0.5c0.67-0.05,1.21-0.09,1.65-0.12
							C320.12,283.21,320.32,283.21,320.32,283.22z"/>
					</g>
				</g>
				<g>
					<g>
						<path style="fill:#263238;" d="M282.52,287.59c-0.02-0.01,0.05-0.25,0.18-0.72c0.15-0.51,0.36-1.2,0.62-2.07l0.02,0.09
							c-0.91-0.94-2.01-2.3-3.01-4.14c-0.99-1.84-1.86-4.18-2.2-6.92c-0.35-2.72-0.11-5.85,1.04-8.93c1.11-3.08,3.12-6.1,5.95-8.44
							l-0.09,0.25c-0.41-2.01-0.61-4.16-0.52-6.35c0.12-2.85,0.73-5.61,1.79-8.09c1.03-2.5,2.62-4.59,4.02-6.57
							c2.94-3.92,3.96-8.29,5.27-11.74c1.25-3.5,2.87-6.12,4.34-7.6c1.46-1.5,2.56-1.95,2.56-1.95c0.04,0.05-1.01,0.57-2.41,2.09
							c-1.41,1.5-2.95,4.1-4.14,7.58c-0.62,1.73-1.2,3.68-1.97,5.72c-0.39,1.02-0.83,2.07-1.37,3.11c-0.54,1.04-1.19,2.05-1.89,3.06
							c-1.4,2.01-2.95,4.05-3.95,6.49c-1.02,2.42-1.62,5.12-1.74,7.91c-0.09,2.14,0.1,4.25,0.5,6.22l0.03,0.15l-0.12,0.1
							c-2.76,2.27-4.73,5.21-5.83,8.21c-1.14,3-1.39,6.05-1.08,8.72c0.31,2.68,1.13,4.99,2.07,6.82c0.95,1.83,2.01,3.2,2.87,4.15
							l0.04,0.04l-0.02,0.05c-0.3,0.86-0.53,1.54-0.7,2.04C282.63,287.36,282.54,287.59,282.52,287.59z"/>
					</g>
				</g>
			</g>
			<g>
				<path style="fill:#FFBF9D;" d="M246.39,242.15c0,0,0.1-3.91-2.97-5.69c-3.08-1.77-3.03-4.28-7.46-4.7
					c-4.44-0.42-4.59,1.57-2.45,2.09c2.14,0.52,3.24,1.15,3.24,1.15L246.39,242.15z"/>
			</g>
			<g>
				<g>
					<path style="fill:#263238;" d="M227.15,258.54c0,0-2.09-1.89-0.19-5.35c1.9-3.46,5.54-2.6,5.54-2.6L227.15,258.54z"/>
				</g>
				<g>
					<path style="fill:#263238;" d="M227.31,257.04c0.05-0.08,3.55,2.12,3.55,2.12l3.19-5.64l-2.99-2.05L227.31,257.04z"/>
				</g>
				<g>
					<polygon style="fill:#263238;" points="234.64,251.89 229.58,260.22 239.04,265.52 243.52,257.1 					"/>
				</g>
				<g>
					<path style="fill:#263238;" d="M244.1,261.27c0,0-2.44,0.68-1.98,2.22c0.45,1.55,2.93,0.65,6,0.35
						c2.79-0.27,6.57-0.76,11.24,0.97c0.75,0.28,1.57-0.17,1.76-0.94l0,0c0.17-0.68-0.21-1.38-0.88-1.61
						C257.17,261.25,248.86,258.88,244.1,261.27z"/>
				</g>
				<g>
					<path style="fill:#263238;" d="M242.96,264.76c0,0,0.67,2.23,3.49,1.69c2.82-0.54,2.94-2.7,2.83-4.21s-1.27-4.16-1.34-5.87
						c-0.06-1.71-1.4-3.57-1.01-6.28c0.39-2.71,2.38-4.73,2.38-4.73l-2-1.15c0,0-2.37,3.46-2.61,6.41
						c-0.24,2.95,0.23,3.81-0.26,5.15c-0.49,1.34-3.03,1.38-3.03,1.38s-1.92,6.43-1.9,6.43
						C239.54,263.56,242.96,264.76,242.96,264.76z"/>
				</g>
			</g>
			<g>
				<path style="fill:#455A64;" d="M56.78,136.51l-0.11,0.87c97.4,23.26,223.32,136.27,223.32,136.27s2.88,0.86,5.32-0.57
					C285.31,273.08,164.16,160.27,56.78,136.51z"/>
			</g>
			<g>
				<g>
					<path style="fill:#FFBF9D;" d="M314.61,238.72l-1.17,15.84l-26.35,10.98l3.74,9.13c0,0,29.09-3.87,36.11-7.38
						c7.02-3.51,5.06-29.86,5.06-29.86L314.61,238.72z"/>
				</g>
				<g>
					<path style="fill:#FFBF9D;" d="M273.48,262.57c0,0,3.83-1.01,5.95-0.51c2.12,0.49,8.76,3.61,8.76,3.61l4.27,8.5
						c0,0-4.64,3.88-6.61,4.03c-1.97,0.15-6.62,0-6.62,0s-2.07,0.54-1.68-1.68c0,0-2.81,0.2-2.62-1.14c0,0-3.51,0.25-2.96-2.81
						c0,0-2.02-1.18-1.38-2.72c0.64-1.53,1.38-2.91,3.95-3.65c2.57-0.74,3.06-1.04,3.06-1.04l-2.04-0.78L273.48,262.57z"/>
				</g>
				<g>
					<path style="fill:#455A64;" d="M314.89,226.72c0,0,2.73-11.11,11.43-8.3c8.71,2.81,8.89,28.09,8.89,28.09l-21.12,1.17
						L314.89,226.72z"/>
				</g>
			</g>
			<g>
				<path style="fill:#FFBF9D;" d="M228.52,234.14c0,0-3.03,1.19-2.97,2.78c0.05,1.59,2.27,2.13,2.27,2.13s0,1.95,2.65,1.89
					c0,0,0.35,1.46,1.69,2.11c0,0,0.42,3.46,2.31,4.27c1.89,0.81,4.81,0.49,4.81,0.49l-2.1-3.35c0,0,3.08-1.17,3.13-2.32
					c0.05-1.14,0.11-2.11-2.81-1.63c0,0,1.35-2.11,0.16-2.7c-1.19-0.59-2.22,0.11-2.22,0.11s0.7-2.92-1.08-2.92
					c-1.78,0-3.89,0.86-3.89,0.86S231.39,233.76,228.52,234.14z"/>
			</g>
		</g>
		<g>
			<g>
				<path style="fill:#AE7461;" d="M93.56,317.38c0,0,61.19,85.68,112.79,88.62c51.6,2.94,346.87,3.03,346.87,3.03l25.8-74.03
					c0,0-356.59,2.96-471.98-14.98l-2.35-2.64H93.56z"/>
			</g>
			<g>
				<g>
					<path style="fill:#6F4439;" d="M546.65,401.07c0,0-0.41,0.02-1.21,0.03c-0.81,0.01-2,0.01-3.56,0.03
						c-3.14,0.01-7.75,0.03-13.69,0.05c-11.9,0.02-29.1,0.05-50.35,0.08c-42.52,0.02-101.25,0.05-166.11,0.08
						c-31.43-0.01-61.42-0.01-88.71-0.02h-0.01l-0.01,0c-10.74-0.82-20.88-3.29-30.19-6.58c-9.3-3.33-17.82-7.53-25.12-12.61
						c-3.62-2.58-6.99-5.25-10.19-7.92c-3.21-2.65-6.23-5.3-9.13-7.86c-5.76-5.16-10.9-10.11-15.44-14.71
						c-9.09-9.18-15.65-17.08-19.83-22.7c-1.02-1.42-1.93-2.68-2.72-3.76c-0.77-1.1-1.35-2.06-1.86-2.82
						c-0.49-0.76-0.86-1.34-1.12-1.74c-0.25-0.39-0.37-0.6-0.37-0.6s0.14,0.19,0.4,0.57c0.26,0.39,0.65,0.96,1.15,1.71
						c0.51,0.75,1.11,1.71,1.89,2.8c0.79,1.08,1.71,2.33,2.74,3.74c4.22,5.58,10.8,13.44,19.92,22.58
						c4.55,4.58,9.69,9.51,15.46,14.65c2.9,2.56,5.92,5.19,9.13,7.83c3.2,2.65,6.57,5.32,10.18,7.88
						c7.27,5.04,15.77,9.21,25.04,12.52c9.28,3.27,19.4,5.72,30.08,6.53l-0.02,0c27.29-0.01,57.28-0.01,88.71-0.02
						c64.86,0.03,123.59,0.06,166.11,0.08c21.25,0.03,38.45,0.06,50.35,0.08c5.94,0.02,10.55,0.04,13.69,0.05
						c1.56,0.01,2.75,0.02,3.56,0.03C546.24,401.05,546.65,401.07,546.65,401.07z"/>
				</g>
			</g>
			<g>
				<g>
					<path style="fill:#6F4439;" d="M546.65,409.03c-0.14-0.05,5.65-16.65,12.92-37.08c7.27-20.43,13.28-36.95,13.41-36.91
						c0.14,0.05-5.65,16.65-12.92,37.08C552.79,392.55,546.78,409.08,546.65,409.03z"/>
				</g>
			</g>
			<g>
				<g>
					<path style="fill:#6F4439;" d="M553.59,378.78c0,0.14-86.94,0.26-194.17,0.26c-107.26,0-194.19-0.12-194.19-0.26
						s86.92-0.26,194.19-0.26C466.65,378.52,553.59,378.64,553.59,378.78z"/>
				</g>
			</g>
			<g>
				<g>
					<path style="fill:#6F4439;" d="M564.12,350.01c0,0.14-95.82,0.26-214,0.26c-118.22,0-214.02-0.12-214.02-0.26
						c0-0.14,95.8-0.26,214.02-0.26C468.29,349.74,564.12,349.86,564.12,350.01z"/>
				</g>
			</g>
		</g>
		<g>
			<g>
				<path style="fill:none;stroke:#839198;stroke-miterlimit:10;" d="M497.16,304.62"/>
			</g>
		</g>
		<g>
			<g>
				<g>
					<path style="fill:#263238;" d="M45.21,410.64c0.01,0.09-1.56,0.26-4.01,0.83c-0.6,0.16-1.29,0.33-1.9,0.66
						c-0.13,0.09-0.29,0.19-0.33,0.29c-0.04,0.07-0.02,0.12,0.11,0.24c0.25,0.2,0.64,0.35,1.02,0.47c1.57,0.47,3.41,0.71,5.32,0.94
						c3.84,0.42,7.34,0.58,9.87,0.69c1.18,0.05,2.18,0.09,3,0.13c0.71,0.03,1.1,0.07,1.1,0.11c0,0.04-0.39,0.07-1.1,0.1
						c-0.71,0.02-1.74,0.04-3.01,0.04c-2.54-0.02-6.06-0.12-9.92-0.54c-1.93-0.23-3.77-0.48-5.41-1c-0.41-0.15-0.81-0.28-1.18-0.58
						c-0.09-0.08-0.18-0.18-0.24-0.32c-0.06-0.15-0.04-0.33,0.03-0.46c0.14-0.26,0.34-0.35,0.51-0.46c0.72-0.36,1.4-0.5,2.03-0.64
						c1.26-0.26,2.28-0.36,2.99-0.43C44.82,410.61,45.21,410.61,45.21,410.64z"/>
				</g>
			</g>
			<g>
				<g>
					<path style="fill:#263238;" d="M71.34,414.53c0-0.04,0.42-0.11,1.18-0.21c0.76-0.11,1.86-0.25,3.21-0.48
						c0.67-0.12,1.41-0.26,2.18-0.46c0.39-0.09,0.78-0.22,1.16-0.37c0.19-0.08,0.37-0.17,0.54-0.27c0.16-0.11,0.25-0.24,0.23-0.29
						c-0.01-0.07-0.18-0.22-0.36-0.31c-0.18-0.1-0.39-0.18-0.61-0.26c-0.43-0.15-0.9-0.27-1.37-0.37c-0.95-0.2-1.96-0.36-2.99-0.5
						c-4.14-0.52-7.93-0.69-10.67-0.82c-1.28-0.05-2.37-0.1-3.25-0.14c-0.77-0.04-1.19-0.07-1.19-0.11c0-0.04,0.42-0.07,1.19-0.1
						c0.77-0.03,1.88-0.04,3.25-0.03c2.75,0.04,6.55,0.14,10.72,0.67c1.04,0.14,2.06,0.3,3.03,0.52c0.49,0.11,0.96,0.24,1.43,0.4
						c0.23,0.08,0.46,0.17,0.68,0.3c0.21,0.14,0.48,0.26,0.59,0.64c0.06,0.43-0.26,0.64-0.44,0.78c-0.21,0.13-0.42,0.22-0.63,0.3
						c-0.42,0.15-0.83,0.27-1.23,0.36c-0.8,0.18-1.54,0.3-2.23,0.4c-1.37,0.19-2.48,0.28-3.24,0.32
						C71.77,414.56,71.35,414.56,71.34,414.53z"/>
				</g>
			</g>
			<g>
				<g>
					<path style="fill:#263238;" d="M68.45,412.16c-0.02,0-0.04-0.13-0.27-0.21c-0.22-0.09-0.57-0.18-1.03-0.25
						c-0.91-0.15-2.26-0.28-3.93-0.35c-1.67-0.07-3.65-0.09-5.86-0.02c-1.1,0.04-2.26,0.1-3.45,0.21c-0.59,0.06-1.2,0.13-1.8,0.23
						c-0.3,0.05-0.6,0.11-0.89,0.19c-0.15,0.04-0.29,0.08-0.41,0.14c-0.12,0.02-0.25,0.2-0.19,0.06c-0.06-0.14,0.06,0.04,0.19,0.06
						c0.13,0.05,0.27,0.1,0.41,0.14c0.29,0.08,0.59,0.14,0.89,0.19c0.6,0.1,1.21,0.17,1.8,0.23c1.19,0.11,2.35,0.18,3.45,0.21
						c2.2,0.07,4.19,0.05,5.86-0.02c1.67-0.07,3.01-0.19,3.93-0.35c0.46-0.08,0.81-0.16,1.03-0.25
						C68.41,412.28,68.44,412.16,68.45,412.16c0.03-0.01,0.01,0.18-0.23,0.3c-0.22,0.13-0.57,0.25-1.03,0.36
						c-0.92,0.22-2.27,0.4-3.95,0.52c-1.67,0.12-3.67,0.18-5.89,0.13c-1.11-0.03-2.27-0.08-3.48-0.19c-0.6-0.06-1.22-0.12-1.84-0.23
						c-0.31-0.05-0.63-0.11-0.94-0.2c-0.16-0.04-0.32-0.09-0.48-0.16c-0.08-0.04-0.17-0.07-0.26-0.14c-0.08-0.07-0.22-0.14-0.24-0.4
						c0.02-0.26,0.17-0.33,0.24-0.4c0.09-0.07,0.17-0.1,0.26-0.14c0.17-0.07,0.33-0.12,0.48-0.16c0.32-0.09,0.63-0.15,0.94-0.2
						c0.62-0.1,1.24-0.17,1.84-0.23c1.21-0.11,2.37-0.16,3.48-0.19c2.22-0.05,4.22,0.01,5.89,0.13c1.67,0.12,3.03,0.3,3.95,0.52
						c0.46,0.11,0.81,0.23,1.03,0.36C68.47,411.97,68.48,412.17,68.45,412.16z"/>
				</g>
			</g>
			<g>
				<g>
					<path style="fill:#263238;" d="M29.53,409.82c0,0.02-0.24,0.07-0.72,0.16c-0.52,0.1-1.21,0.24-2.06,0.41
						c-0.89,0.19-1.99,0.43-3.21,0.81c-0.61,0.2-1.27,0.42-1.88,0.79c-0.29,0.18-0.62,0.41-0.69,0.7c-0.07,0.27,0.18,0.56,0.49,0.77
						c1.33,0.83,3.14,1.18,4.99,1.58c1.88,0.36,3.91,0.65,6.05,0.9c4.29,0.49,9.02,0.83,14,1.04c9.96,0.42,18.99,0.31,25.52,0.09
						c3.26-0.11,5.9-0.26,7.73-0.37c0.87-0.05,1.57-0.09,2.1-0.12c0.48-0.03,0.73-0.03,0.74-0.01c0,0.02-0.25,0.06-0.73,0.12
						c-0.48,0.06-1.18,0.13-2.09,0.22c-1.82,0.17-4.46,0.37-7.73,0.53c-6.53,0.32-15.58,0.49-25.56,0.06
						c-4.99-0.21-9.73-0.56-14.03-1.08c-2.15-0.26-4.19-0.57-6.08-0.95c-0.94-0.2-1.85-0.41-2.72-0.67
						c-0.86-0.26-1.69-0.54-2.41-1.03c-0.18-0.12-0.35-0.27-0.48-0.46c-0.13-0.18-0.22-0.46-0.14-0.7c0.15-0.48,0.54-0.69,0.86-0.89
						c0.67-0.38,1.34-0.59,1.96-0.78c1.26-0.37,2.36-0.57,3.26-0.74c0.9-0.15,1.61-0.25,2.08-0.31
						C29.28,409.83,29.53,409.8,29.53,409.82z"/>
				</g>
			</g>
			<g>
				<g>
					<path style="fill:#263238;" d="M95.36,414.53c-0.01-0.02,0.19-0.09,0.57-0.24c0.37-0.16,0.94-0.36,1.55-0.8
						c0.28-0.21,0.6-0.58,0.36-0.94c-0.22-0.35-0.68-0.6-1.16-0.82c-0.99-0.42-2.19-0.74-3.53-1.02c-5.38-1.1-12.98-1.74-21.36-2.09
						c-8.39-0.34-16-0.31-21.51-0.19c-2.7,0.08-4.91,0.14-6.52,0.19c-0.72,0.02-1.31,0.04-1.77,0.05c-0.41,0.01-0.62,0-0.62-0.01
						c0-0.02,0.21-0.05,0.61-0.09c0.46-0.04,1.05-0.09,1.77-0.15c1.54-0.11,3.76-0.25,6.52-0.35c5.51-0.21,13.13-0.3,21.54,0.04
						c8.4,0.35,16.01,1.05,21.42,2.25c1.35,0.31,2.56,0.65,3.57,1.12c0.49,0.25,0.98,0.5,1.25,0.97c0.14,0.23,0.14,0.54,0,0.75
						c-0.12,0.21-0.29,0.35-0.45,0.47c-0.66,0.44-1.25,0.61-1.63,0.74C95.58,414.5,95.37,414.54,95.36,414.53z"/>
				</g>
			</g>
		</g>
		<g>
			<g>
				<g>
					<path style="fill:#263238;" d="M674.28,411.37c0.01,0.09-1.56,0.26-4.01,0.83c-0.6,0.16-1.29,0.33-1.9,0.66
						c-0.13,0.09-0.29,0.19-0.33,0.29c-0.04,0.07-0.02,0.12,0.11,0.24c0.25,0.2,0.64,0.35,1.02,0.47c1.57,0.47,3.41,0.71,5.32,0.94
						c3.84,0.42,7.34,0.58,9.87,0.69c1.18,0.05,2.18,0.09,3,0.13c0.71,0.03,1.1,0.07,1.1,0.11c0,0.04-0.39,0.07-1.1,0.1
						c-0.71,0.02-1.74,0.04-3.01,0.04c-2.54-0.02-6.06-0.12-9.92-0.54c-1.93-0.23-3.77-0.48-5.41-1c-0.41-0.15-0.81-0.28-1.18-0.58
						c-0.09-0.08-0.18-0.18-0.24-0.32c-0.06-0.15-0.04-0.33,0.03-0.46c0.14-0.26,0.34-0.35,0.51-0.46c0.72-0.36,1.4-0.5,2.03-0.64
						c1.26-0.26,2.28-0.36,2.99-0.43C673.88,411.34,674.27,411.33,674.28,411.37z"/>
				</g>
			</g>
			<g>
				<g>
					<path style="fill:#263238;" d="M700.41,415.25c0-0.04,0.42-0.11,1.18-0.21c0.76-0.11,1.86-0.25,3.21-0.48
						c0.67-0.12,1.41-0.26,2.18-0.46c0.39-0.09,0.78-0.22,1.16-0.37c0.19-0.08,0.37-0.17,0.54-0.27c0.16-0.11,0.25-0.24,0.23-0.29
						c-0.01-0.07-0.18-0.22-0.36-0.31c-0.18-0.1-0.39-0.18-0.61-0.26c-0.43-0.15-0.9-0.27-1.37-0.37c-0.95-0.2-1.96-0.36-2.99-0.5
						c-4.14-0.52-7.93-0.69-10.67-0.82c-1.28-0.05-2.37-0.1-3.25-0.14c-0.77-0.04-1.19-0.07-1.19-0.11c0-0.04,0.42-0.07,1.19-0.1
						c0.77-0.02,1.88-0.04,3.25-0.03c2.75,0.04,6.55,0.14,10.72,0.67c1.04,0.14,2.06,0.3,3.03,0.52c0.49,0.11,0.96,0.24,1.43,0.4
						c0.23,0.08,0.46,0.17,0.68,0.3c0.21,0.14,0.48,0.26,0.59,0.64c0.06,0.43-0.26,0.64-0.44,0.78c-0.21,0.13-0.42,0.22-0.63,0.3
						c-0.42,0.15-0.83,0.27-1.23,0.36c-0.8,0.18-1.54,0.3-2.23,0.4c-1.37,0.19-2.48,0.28-3.24,0.32
						C700.84,415.29,700.41,415.29,700.41,415.25z"/>
				</g>
			</g>
			<g>
				<g>
					<path style="fill:#263238;" d="M697.52,412.88c-0.02,0-0.04-0.13-0.28-0.21c-0.22-0.09-0.57-0.18-1.03-0.25
						c-0.91-0.15-2.26-0.28-3.93-0.35c-1.67-0.07-3.65-0.09-5.86-0.02c-1.1,0.04-2.26,0.1-3.45,0.21c-0.59,0.06-1.2,0.13-1.8,0.23
						c-0.3,0.05-0.6,0.11-0.89,0.19c-0.15,0.04-0.29,0.08-0.41,0.14c-0.12,0.02-0.25,0.2-0.19,0.06c-0.06-0.14,0.06,0.04,0.19,0.06
						c0.13,0.05,0.27,0.1,0.41,0.14c0.29,0.08,0.59,0.14,0.89,0.19c0.6,0.1,1.21,0.17,1.8,0.23c1.19,0.11,2.35,0.18,3.45,0.21
						c2.2,0.07,4.19,0.05,5.86-0.02c1.67-0.07,3.01-0.19,3.93-0.35c0.46-0.08,0.81-0.16,1.03-0.25
						C697.48,413.01,697.5,412.88,697.52,412.88c0.03-0.01,0.01,0.18-0.23,0.3c-0.22,0.13-0.57,0.25-1.03,0.36
						c-0.92,0.22-2.27,0.4-3.95,0.52c-1.67,0.12-3.67,0.18-5.89,0.13c-1.11-0.03-2.27-0.08-3.48-0.19c-0.6-0.06-1.22-0.12-1.84-0.23
						c-0.31-0.05-0.63-0.11-0.94-0.2c-0.16-0.04-0.32-0.09-0.48-0.16c-0.08-0.04-0.17-0.07-0.26-0.14c-0.08-0.07-0.22-0.14-0.24-0.4
						c0.02-0.26,0.17-0.33,0.24-0.4c0.09-0.07,0.17-0.1,0.26-0.14c0.17-0.07,0.33-0.12,0.48-0.16c0.32-0.09,0.63-0.15,0.94-0.2
						c0.62-0.1,1.24-0.17,1.84-0.23c1.21-0.11,2.37-0.16,3.48-0.19c2.22-0.05,4.22,0.01,5.89,0.13c1.67,0.12,3.03,0.3,3.95,0.52
						c0.46,0.11,0.81,0.23,1.03,0.36C697.53,412.7,697.54,412.89,697.52,412.88z"/>
				</g>
			</g>
			<g>
				<g>
					<path style="fill:#263238;" d="M658.6,410.55c0,0.02-0.24,0.07-0.72,0.16c-0.52,0.1-1.21,0.24-2.06,0.41
						c-0.89,0.19-1.99,0.43-3.21,0.81c-0.61,0.2-1.27,0.42-1.88,0.79c-0.29,0.18-0.62,0.41-0.69,0.7c-0.07,0.27,0.17,0.56,0.49,0.77
						c1.33,0.83,3.14,1.18,4.99,1.58c1.88,0.36,3.91,0.65,6.05,0.9c4.29,0.49,9.02,0.83,14,1.04c9.96,0.42,18.99,0.31,25.52,0.09
						c3.26-0.11,5.9-0.26,7.73-0.37c0.87-0.05,1.57-0.09,2.1-0.12c0.48-0.03,0.73-0.03,0.74-0.01c0,0.02-0.25,0.06-0.73,0.12
						c-0.48,0.06-1.18,0.13-2.09,0.22c-1.82,0.17-4.46,0.37-7.73,0.53c-6.53,0.32-15.58,0.49-25.56,0.06
						c-4.99-0.21-9.73-0.56-14.03-1.08c-2.15-0.26-4.19-0.57-6.08-0.95c-0.95-0.2-1.85-0.41-2.72-0.67
						c-0.86-0.26-1.69-0.54-2.41-1.03c-0.18-0.12-0.35-0.27-0.48-0.46c-0.13-0.18-0.22-0.46-0.14-0.7c0.15-0.48,0.54-0.69,0.86-0.89
						c0.67-0.38,1.34-0.59,1.96-0.78c1.26-0.37,2.36-0.57,3.26-0.74c0.9-0.15,1.61-0.25,2.09-0.31
						C658.34,410.55,658.59,410.53,658.6,410.55z"/>
				</g>
			</g>
			<g>
				<g>
					<path style="fill:#263238;" d="M724.43,415.25c-0.01-0.02,0.19-0.09,0.57-0.24c0.37-0.16,0.94-0.36,1.55-0.8
						c0.28-0.21,0.6-0.58,0.36-0.94c-0.22-0.35-0.68-0.6-1.16-0.82c-0.99-0.42-2.19-0.74-3.53-1.02c-5.38-1.1-12.98-1.74-21.36-2.09
						c-8.39-0.34-16-0.31-21.51-0.19c-2.7,0.08-4.91,0.14-6.52,0.19c-0.72,0.02-1.31,0.04-1.77,0.05c-0.41,0.01-0.62,0-0.62-0.01
						c0-0.02,0.21-0.05,0.61-0.09c0.46-0.04,1.05-0.09,1.77-0.15c1.54-0.11,3.76-0.25,6.52-0.35c5.51-0.21,13.13-0.3,21.54,0.04
						c8.4,0.35,16.01,1.05,21.42,2.25c1.35,0.31,2.56,0.65,3.57,1.12c0.49,0.25,0.98,0.5,1.25,0.97c0.14,0.23,0.14,0.55,0,0.75
						c-0.12,0.21-0.29,0.35-0.45,0.47c-0.66,0.44-1.25,0.61-1.63,0.74C724.64,415.23,724.43,415.27,724.43,415.25z"/>
				</g>
			</g>
		</g>
		<g>
			<g>
				<path style="fill:#263238;" d="M594.83,408.85c0,0.14-82.37,0.26-183.96,0.26c-101.62,0-183.98-0.12-183.98-0.26
					s82.35-0.26,183.98-0.26C512.46,408.59,594.83,408.7,594.83,408.85z"/>
			</g>
		</g>
	</g>
</g>
<g id="Plant_1">
	<g>
		<g>
			<g>
				<g>
					<path style="fill:#263238;" d="M172.02,470.34c0,0-2.89-5.97-6.44-16.08c-0.43-1.27-0.89-2.59-1.36-3.98
						c-0.47-1.38-0.87-2.85-1.34-4.35c-0.96-3-1.77-6.27-2.67-9.69c-1.67-6.88-3.2-14.52-4.31-22.62
						c-1.06-8.11-1.58-15.88-1.78-22.96c-0.03-3.54-0.1-6.91,0.04-10.05c0.05-1.57,0.06-3.09,0.15-4.55
						c0.09-1.46,0.18-2.86,0.27-4.19c0.77-10.68,1.99-17.2,1.99-17.2c0.01,0,0,0.11-0.01,0.31c-0.02,0.23-0.05,0.52-0.09,0.89
						c-0.1,0.82-0.23,1.96-0.4,3.42c-0.09,0.75-0.19,1.57-0.3,2.47c-0.08,0.91-0.17,1.89-0.27,2.95c-0.17,2.12-0.45,4.52-0.55,7.19
						c-0.07,1.33-0.15,2.73-0.23,4.19c-0.08,1.46-0.07,2.97-0.12,4.54c-0.12,3.14-0.03,6.5,0.01,10.03
						c0.22,7.06,0.76,14.82,1.81,22.91c1.11,8.08,2.62,15.7,4.26,22.57c0.89,3.42,1.68,6.68,2.62,9.68c0.45,1.5,0.85,2.97,1.31,4.35
						c0.46,1.38,0.9,2.71,1.32,3.98c0.8,2.55,1.7,4.8,2.42,6.79c0.37,0.99,0.71,1.92,1.03,2.77c0.34,0.84,0.66,1.61,0.94,2.3
						c0.55,1.36,0.98,2.43,1.28,3.2c0.13,0.35,0.24,0.62,0.32,0.84C172,470.24,172.03,470.34,172.02,470.34z"/>
				</g>
			</g>
			<g>
				<g>
					<path style="fill:#263238;" d="M181.76,326.89c0.01,0-0.03,0.12-0.11,0.35c-0.09,0.25-0.22,0.58-0.37,1
						c-0.33,0.87-0.85,2.15-1.43,3.83c-1.21,3.33-2.84,8.21-4.36,14.37c-1.54,6.15-2.95,13.59-3.83,21.93
						c-0.91,8.34-1.24,17.57-0.91,27.24c0.67,19.37,3.71,36.71,6.18,49.15c0.62,3.11,1.21,5.93,1.62,8.42
						c0.41,2.49,0.65,4.66,0.73,6.44c0.17,3.56-0.17,5.52-0.17,5.52c-0.01,0-0.01-0.12,0-0.36c0.01-0.27,0.03-0.62,0.05-1.06
						c0.03-0.93,0.04-2.31-0.08-4.08c-0.11-1.77-0.38-3.92-0.82-6.4c-0.43-2.48-1.05-5.28-1.7-8.4
						c-2.57-12.43-5.67-29.79-6.34-49.21c-0.33-9.69,0.02-18.96,0.95-27.31c0.91-8.36,2.36-15.81,3.95-21.97
						c1.57-6.16,3.26-11.03,4.53-14.35c0.61-1.67,1.16-2.93,1.53-3.8c0.18-0.41,0.32-0.73,0.42-0.98
						C181.7,327,181.75,326.89,181.76,326.89z"/>
				</g>
			</g>
			<g>
				<path style="fill:#FF725E;" d="M158.5,361.23c0.16,7.79-0.3,15.55-1.59,23.11c-0.35,2.05-1.09,4.45-2.98,4.76
					c-1.31,0.21-2.66-0.78-3.37-2.07c-0.71-1.28-0.91-2.79-1.02-4.25c-0.44-5.87,0.27-11.69,0.97-17.45
					c0.25-2.03,0.53-4.14,1.65-5.73c1.12-1.58,3.37-2.38,4.96-1.16C157.13,358.45,158.46,359.23,158.5,361.23z"/>
			</g>
			<g>
				<path style="fill:#FF725E;" d="M182.54,334.26c-1.23,7.69-3.09,15.24-5.71,22.45c-0.71,1.95-1.88,4.19-3.79,4.15
					c-1.32-0.02-2.47-1.25-2.94-2.64s-0.39-2.91-0.24-4.37c0.62-5.86,2.36-11.45,4.09-16.99c0.61-1.95,1.27-3.98,2.65-5.34
					c1.39-1.36,3.74-1.74,5.09-0.25C181.69,331.28,182.86,332.29,182.54,334.26z"/>
			</g>
			<g>
				<path style="fill:#455A64;" d="M198.94,469.68c1.2-8.98,1.39-24.68-2.36-31.65c-7.72,6.11-12.44,20.64-16.83,31.06
					c2.21-21.36,4.42-42.73,6.63-64.09c-13.36,15.8-17.13,37.33-20.4,57.75c0.27-15.33-1.52-30.69-5.32-45.55
					c-6.88,10.44-9.97,23.32-8.57,35.75c-5.29-25.66-10.58-51.32-15.88-76.98c-7.93,14.12-8.75,31.36-5.58,47.25
					s10.04,30.75,16.84,45.45c-6.83-6.61-13.67-13.21-20.5-19.82c4.07,16.02,11.82,21.48,11.82,21.48l69.26,0.15
					c9.35-20.07,14.9-36.71,18.11-58.62C209.18,425.8,203.64,448.23,198.94,469.68z"/>
			</g>
			<g>
				<g>
					<path style="fill:#263238;" d="M153.44,470.49c-0.01,0-0.05-0.07-0.12-0.22c-0.08-0.18-0.19-0.39-0.31-0.66
						c-0.28-0.62-0.67-1.48-1.16-2.56c-0.51-1.11-1.11-2.48-1.75-4.1c-0.65-1.61-1.43-3.43-2.16-5.49c-0.77-2.05-1.59-4.3-2.38-6.74
						c-0.85-2.43-1.61-5.07-2.44-7.84c-1.57-5.57-3.07-11.75-4.3-18.31c-1.19-6.57-1.99-12.88-2.51-18.64
						c-0.21-2.88-0.45-5.62-0.52-8.19c-0.14-2.57-0.17-4.96-0.18-7.15c-0.05-2.19,0.03-4.16,0.06-5.9c0.02-1.74,0.1-3.23,0.18-4.45
						c0.07-1.19,0.13-2.12,0.18-2.81c0.02-0.29,0.04-0.53,0.06-0.73c0.02-0.16,0.03-0.25,0.04-0.25c0.01,0,0.01,0.09,0.02,0.25
						c0,0.2,0,0.44-0.01,0.73c-0.02,0.68-0.05,1.62-0.08,2.81c-0.05,1.22-0.1,2.71-0.09,4.45c0,1.73-0.06,3.71,0.02,5.89
						c0.04,2.18,0.09,4.57,0.24,7.13c0.09,2.56,0.34,5.3,0.57,8.17c0.55,5.74,1.36,12.04,2.55,18.59
						c1.23,6.54,2.72,12.71,4.25,18.27c0.81,2.77,1.56,5.41,2.38,7.84c0.77,2.45,1.57,4.7,2.31,6.75c0.71,2.07,1.46,3.89,2.08,5.51
						c0.61,1.62,1.19,3,1.67,4.12c0.45,1.1,0.81,1.97,1.07,2.6c0.11,0.28,0.2,0.5,0.27,0.68
						C153.42,470.41,153.45,470.49,153.44,470.49z"/>
				</g>
			</g>
			<g>
				<g>
					<path style="fill:#263238;" d="M161.41,469.67c-0.02,0-0.07-0.17-0.17-0.5c-0.1-0.39-0.23-0.87-0.38-1.45
						c-0.33-1.26-0.73-3.1-1.15-5.38c-0.43-2.29-0.82-5.03-1.13-8.09c-0.28-3.06-0.47-6.44-0.48-9.99c0.02-3.55,0.22-6.93,0.52-9.99
						c0.32-3.06,0.72-5.8,1.16-8.09c0.43-2.28,0.84-4.12,1.18-5.38c0.16-0.58,0.29-1.06,0.39-1.44c0.1-0.33,0.15-0.5,0.17-0.49
						c0.02,0-0.01,0.18-0.07,0.52c-0.08,0.39-0.18,0.88-0.3,1.46c-0.28,1.27-0.63,3.11-1.02,5.39c-0.39,2.28-0.75,5.02-1.05,8.07
						c-0.27,3.05-0.46,6.41-0.47,9.95c0,3.53,0.18,6.9,0.43,9.95c0.28,3.05,0.63,5.79,1.01,8.07c0.37,2.29,0.72,4.13,0.99,5.4
						c0.12,0.59,0.21,1.07,0.29,1.47C161.41,469.49,161.43,469.67,161.41,469.67z"/>
				</g>
			</g>
			<g>
				<g>
					<path style="fill:#263238;" d="M186.22,405.68c0.02,0.01-0.05,0.23-0.21,0.65c-0.17,0.47-0.4,1.07-0.68,1.83
						c-0.61,1.58-1.47,3.87-2.48,6.72c-2.03,5.7-4.61,13.66-6.6,22.67c-1.98,9.02-2.95,17.33-3.39,23.36
						c-0.22,3.02-0.35,5.46-0.41,7.15c-0.04,0.8-0.07,1.45-0.09,1.95c-0.03,0.45-0.05,0.68-0.07,0.68c-0.02,0-0.03-0.23-0.04-0.68
						c0-0.5,0-1.15,0-1.95c-0.01-1.69,0.08-4.15,0.25-7.17c0.35-6.05,1.26-14.4,3.25-23.45c2-9.04,4.64-17.01,6.76-22.68
						c1.07-2.84,1.97-5.11,2.64-6.67c0.32-0.74,0.58-1.33,0.77-1.79C186.1,405.89,186.2,405.68,186.22,405.68z"/>
				</g>
			</g>
			<g>
				<g>
					<path style="fill:#263238;" d="M195.22,440.75c0.04,0.01-0.02,0.43-0.16,1.19c-0.13,0.76-0.35,1.86-0.64,3.22
						c-0.57,2.71-1.44,6.43-2.46,10.52c-1.01,4.04-1.92,7.69-2.61,10.48c-0.32,1.26-0.58,2.32-0.8,3.18
						c-0.2,0.75-0.32,1.16-0.36,1.15c-0.04-0.01,0.02-0.43,0.16-1.19c0.13-0.76,0.35-1.86,0.64-3.21c0.57-2.71,1.45-6.43,2.47-10.53
						c1.01-4.04,1.92-7.69,2.61-10.48c0.32-1.26,0.58-2.32,0.8-3.18C195.06,441.15,195.19,440.74,195.22,440.75z"/>
				</g>
			</g>
			<g>
				<g>
					<path style="fill:#263238;" d="M225.43,416.2c0.13,0.05-4.37,12.28-10.06,27.32c-5.69,15.04-10.42,27.19-10.55,27.14
						c-0.13-0.05,4.37-12.28,10.06-27.32C220.57,428.3,225.29,416.15,225.43,416.2z"/>
				</g>
			</g>
			<g>
				<g>
					<path style="fill:#263238;" d="M142.94,470.34c-0.03,0.02-0.27-0.21-0.7-0.66c-0.42-0.45-1.02-1.11-1.75-1.93
						c-1.45-1.65-3.42-3.97-5.46-6.64c-2.04-2.67-3.73-5.21-4.85-7.12c-0.56-0.95-0.99-1.73-1.26-2.29
						c-0.27-0.55-0.41-0.86-0.38-0.88c0.07-0.04,0.76,1.13,1.95,2.97c1.19,1.84,2.92,4.33,4.95,6.99c2.03,2.66,3.95,5.01,5.33,6.72
						C142.16,469.22,142.99,470.29,142.94,470.34z"/>
				</g>
			</g>
		</g>
		<g>
			<g>
				<path style="fill:#263238;" d="M226.16,470.34c0,0.14-23.72,0.26-52.96,0.26c-29.26,0-52.97-0.12-52.97-0.26
					c0-0.14,23.71-0.26,52.97-0.26C202.44,470.08,226.16,470.2,226.16,470.34z"/>
			</g>
		</g>
	</g>
</g>
</svg>
