<svg width="500" height="500" viewBox="0 0 500 500" fill="none" xmlns="http://www.w3.org/2000/svg">
<path d="M126.36 47.27H40.9V188.72H126.36V47.27Z" fill="#E0E0E0"/>
<path d="M123.52 47.27H38.06V188.72H123.52V47.27Z" fill="#EBEBEB"/>
<path d="M119.88 50.14H41.7V185.86H119.88V50.14Z" fill="white"/>
<path d="M104.65 67.77H56.58V168.22H104.65V67.77Z" fill="#EBEBEB"/>
<path d="M56.58 132.67C56.47 123.29 64.91 114.13 74.2 112.82C78.63 112.2 83.34 113.07 87.48 111.38C94.87 108.35 97.22 98.53 104.66 95.62L105 168.22H56.58V132.67Z" fill="#E0E0E0"/>
<path d="M464.67 54.44V122.27H367.25L363.74 54.91L464.67 54.44Z" fill="#E0E0E0"/>
<path d="M363.744 54.9124V122.122H461.164V54.9124H363.744Z" fill="white"/>
<path d="M461.63 122.59H363.28V54.45H461.63V122.59ZM364.21 121.66H460.71V55.38H364.21V121.66Z" fill="#E0E0E0"/>
<path d="M450.61 63.26H374.29V113.77H450.61V63.26Z" fill="white"/>
<path d="M450.61 63.26C450.61 63.26 450.48 63.27 450.23 63.27C449.97 63.27 449.61 63.28 449.14 63.28C448.17 63.29 446.77 63.3 444.95 63.31C441.28 63.32 435.95 63.34 429.22 63.37C415.76 63.4 396.71 63.43 374.28 63.48L374.5 63.26C374.51 78.69 374.51 95.79 374.52 113.76V113.77L374.28 113.53C403.07 113.55 429.61 113.57 450.6 113.58L450.41 113.77C450.45 98.4 450.49 85.8 450.51 77.02C450.53 72.63 450.55 69.21 450.56 66.86C450.57 65.7 450.58 64.81 450.58 64.19C450.6 63.59 450.61 63.26 450.61 63.26C450.61 63.26 450.62 63.55 450.63 64.15C450.63 64.76 450.64 65.64 450.65 66.78C450.66 69.12 450.68 72.53 450.7 76.9C450.72 85.7 450.76 98.35 450.8 113.77V113.96H450.61C429.62 113.97 403.08 113.99 374.29 114.01H374.05V113.77V113.76C374.06 95.79 374.06 78.69 374.07 63.26V63.04H374.29C396.78 63.08 415.88 63.12 429.37 63.15C436.08 63.18 441.39 63.2 445.05 63.21C446.85 63.22 448.24 63.23 449.2 63.24C449.66 63.25 450.01 63.25 450.26 63.25C450.5 63.25 450.61 63.26 450.61 63.26Z" fill="#E0E0E0"/>
<path d="M363.74 54.72C363.78 54.67 364.42 55.09 365.41 55.8C366.41 56.52 367.76 57.54 369.23 58.71C370.7 59.88 371.98 60.99 372.89 61.82C373.8 62.65 374.33 63.2 374.29 63.25C374.2 63.35 371.86 61.42 368.93 59.08C366.01 56.76 363.66 54.83 363.74 54.72Z" fill="#E0E0E0"/>
<path d="M461.16 54.91C461.24 55.01 458.95 56.97 456.03 59.27C453.12 61.58 450.69 63.36 450.6 63.26C450.52 63.16 452.81 61.2 455.73 58.9C458.65 56.59 461.08 54.81 461.16 54.91Z" fill="#E0E0E0"/>
<path d="M461.09 122.13C457.47 119.2 453.85 116.26 450.23 113.33Z" fill="white"/>
<path d="M450.22 113.33C450.3 113.23 452.8 115.11 455.8 117.54C458.8 119.97 461.16 122.03 461.08 122.13C461 122.23 458.5 120.35 455.5 117.91C452.51 115.49 450.14 113.43 450.22 113.33Z" fill="#E0E0E0"/>
<path d="M363.74 122.12C363.66 122.02 365.93 120.08 368.81 117.8C371.69 115.52 374.1 113.75 374.18 113.86C374.26 113.96 371.99 115.9 369.11 118.18C366.23 120.46 363.83 122.23 363.74 122.12Z" fill="#E0E0E0"/>
<path d="M389.793 79.0075V95.9175H437.813V79.0075H389.793Z" fill="#E0E0E0"/>
<path d="M384.6 341.35C380.04 338.49 374.82 336.69 369.47 336.14C367 335.89 364.3 335.96 362.31 337.46C361.89 337.78 361.48 338.25 361.57 338.77C361.64 339.15 361.96 339.43 362.27 339.66C368.43 344.36 377.74 344.95 384.6 341.35Z" fill="#E0E0E0"/>
<path d="M384.21 340.92C380.78 338.25 377.34 335.56 374.44 332.32C371.54 329.09 369.18 325.25 368.31 320.99C368.05 319.7 367.97 318.22 368.79 317.2C376.58 323.29 382.7 331.16 384.21 340.92Z" fill="#E0E0E0"/>
<path d="M384.52 341.29C383.93 337.03 383.72 332.65 384.7 328.46C385.68 324.27 387.96 320.26 391.53 317.87C392.88 321.02 392.3 324.64 391.35 327.93C389.88 333.01 387.59 337.85 384.57 342.2" fill="#E0E0E0"/>
<path d="M392.15 354.98C387.51 355.54 383.48 357.99 380.02 361.12C376.56 364.25 374.1 368.48 373.08 373.03C377.63 372.75 381.48 369.54 384.28 365.95C387.08 362.36 389.02 358.41 392.09 355.05" fill="#E0E0E0"/>
<path d="M393.81 357.16C390.08 347.96 391.43 336.88 397.27 328.85C399.91 338.25 398.94 348.86 393.81 357.16Z" fill="#E0E0E0"/>
<path d="M403.9 369.18C399.69 368.92 395.42 369.92 391.76 372.02C388.11 374.12 385.09 377.32 383.21 381.09C382.95 381.6 382.73 382.25 383.07 382.71C383.37 383.11 383.95 383.15 384.44 383.11C388.52 382.85 392.13 380.39 395.11 377.6C398.09 374.81 400.69 371.58 403.99 369.16" fill="#E0E0E0"/>
<path d="M403.58 368.52C401.41 361.58 401.28 354.01 403.2 346.99C403.96 344.22 405.23 341.3 407.79 340C408.01 339.89 408.26 339.79 408.49 339.88C408.71 339.96 408.83 340.18 408.93 340.39C409.84 342.29 410.11 344.46 410.01 346.57C409.92 348.68 409.48 350.76 409.04 352.82C408.23 356.64 407.8 360.75 405.71 364.04C405.21 364.82 404.77 365.67 404.38 366.5C403.98 367.34 403.98 367.63 403.62 368.3" fill="#E0E0E0"/>
<path d="M430.28 372.5C428.3 364.97 430.4 355.85 435.14 349.68C435.49 349.23 435.95 348.74 436.52 348.79C437.39 348.87 437.62 350.03 437.58 350.91C437.25 358.61 434.68 366.18 430.28 372.5Z" fill="#E0E0E0"/>
<path d="M432.69 374.15C441.83 376.53 452.32 374.22 459.93 368.61C455.42 366.33 450.11 365.67 445.18 366.8C440.26 367.92 435.76 370.13 432.69 374.15Z" fill="#E0E0E0"/>
<path d="M434.72 369.14C439.84 360.79 449.66 355.34 459.44 354.85C458.31 358.83 455.04 361.92 451.35 363.79C447.66 365.66 443.54 366.47 439.48 367.26C437.91 367.56 435.75 367.9 434.72 369.14Z" fill="#E0E0E0"/>
<path d="M430.79 344.82C432.18 340.07 433.57 335.28 433.95 330.34C434.33 325.41 433.63 320.25 431.07 316.02C426.29 325.28 425.8 336.09 430.65 345.32" fill="#E0E0E0"/>
<path d="M446.9 336.68C452.49 326.51 463.91 318.39 475.46 317.25C471 328.35 458.85 336.92 446.9 336.68Z" fill="#E0E0E0"/>
<path d="M443.38 338.67C451.72 339.94 458.83 345.27 466.63 348.5C468.3 349.19 470.1 349.74 471.89 349.51C473.68 349.28 475.45 348.07 475.85 346.32C476.18 344.86 475.52 343.31 474.47 342.24C473.42 341.17 472.04 340.5 470.65 339.92C462.16 336.38 453.05 336.3 444.11 338.44" fill="#E0E0E0"/>
<path d="M438.55 344.52C440.44 345.06 441.08 346.04 442.58 347.31C447.65 351.63 453.74 354.76 460.21 356.37C460.88 356.54 461.77 356.6 462.1 356C462.39 355.47 462.02 354.83 461.64 354.35C458.93 350.96 455.06 348.64 451 347.12C446.93 345.6 443.41 343.78 438.55 344.17" fill="#E0E0E0"/>
<path d="M433.1 309.18C439.88 315.51 449.44 318.76 458.68 317.88C459.1 317.84 459.56 317.77 459.84 317.46C460.48 316.76 459.71 315.68 458.96 315.09C451.45 309.24 442.34 306.81 433.1 309.18Z" fill="#E0E0E0"/>
<path d="M439.56 306.82C448.53 300.1 460.82 298.07 471.48 301.55C467.46 305.51 461.88 307.64 456.27 308.23C450.66 308.81 445.04 308.19 439.56 306.82Z" fill="#E0E0E0"/>
<path d="M436.99 290.58C436.25 283.07 436.73 277.15 436.21 269.61C436.17 269.01 436.04 268.28 435.48 268.07C434.7 267.77 434.04 268.73 433.78 269.53C431.55 276.48 432.77 284.45 436.98 290.42" fill="#E0E0E0"/>
<path d="M436.45 291.41C441.54 288.26 445.35 284.16 448.88 279.33C451.34 275.97 453.41 271.94 452.85 267.82C449.4 267.75 446.12 269.65 443.88 272.27C441.64 274.89 440.3 278.17 439.31 281.47C438.32 284.77 437.62 288.16 436.45 291.41Z" fill="#E0E0E0"/>
<path d="M448.67 288.02C459.83 283.89 470.25 277.75 479.27 269.98C475.61 268.51 471.43 269.39 467.78 270.86C459.43 274.23 452.61 279.92 448.52 287.94" fill="#E0E0E0"/>
<path d="M439.89 295.52C445.54 296.14 451.28 296.54 456.88 295.6C462.39 294.68 467.59 292.5 472.74 290.33C473.17 290.15 473.63 289.94 473.82 289.51C474.02 289.05 473.81 288.49 473.43 288.15C473.06 287.81 472.56 287.65 472.08 287.52C466.48 285.95 460.44 286.69 454.94 288.54C449.43 290.4 444.92 292.6 439.89 295.52Z" fill="#E0E0E0"/>
<path d="M407.64 309.44C403.79 301.66 404.04 292.58 407.37 284.57C409.71 288.14 410 292.69 409.57 296.94C409.14 301.19 407.85 305.56 407.76 309.83" fill="#E0E0E0"/>
<path d="M392.24 301.68C382.62 301.5 372.99 305.6 366.46 312.66C371.26 313.41 376.21 312.18 380.58 310.04C384.95 307.91 388.83 304.91 392.68 301.94" fill="#E0E0E0"/>
<path d="M381.89 298.21C377.18 297.83 372.65 297.25 368.13 298.63C363.6 300.02 359.49 303.16 357.64 307.52C362.04 308.02 366.51 306.91 370.54 305.08C374.58 303.27 378.25 300.73 381.89 298.21Z" fill="#E0E0E0"/>
<path d="M397.21 298.37C392.98 295.6 388.63 292.77 383.7 291.62C378.77 290.47 373.06 291.32 369.62 295.04C373.61 297.38 378.45 297.66 383.08 297.65C387.71 297.65 393.38 297.59 397.74 299.14" fill="#E0E0E0"/>
<path d="M397.24 298.6C390 291.49 387.26 278.72 390.17 269C395.86 277.64 398.41 288.31 397.24 298.6Z" fill="#E0E0E0"/>
<path d="M417.15 278.45C418.52 275.28 419.48 271.94 420.7 268.71C421.92 265.48 423.45 262.3 425.76 259.73C428.07 257.16 431.27 255.25 434.73 255.08C432.57 264.86 426.07 273.6 417.33 278.49" fill="#E0E0E0"/>
<path d="M413.54 282.65C411.28 279.54 408.67 275.32 405.61 273C402.55 270.68 398.56 269.27 394.82 270.17C398.62 276.96 405.81 281.75 413.54 282.65Z" fill="#E0E0E0"/>
<path d="M414.26 278.71C412.78 274.95 411.29 271.14 410.69 267.14C410.09 263.14 410.46 258.87 412.5 255.38C416.47 262.89 417.75 270.95 414.46 278.79" fill="#E0E0E0"/>
<path d="M417.18 255.39C419.43 247.94 426.25 242.46 433.61 239.94C434.54 239.62 435.52 239.36 436.49 239.51C437.46 239.66 438.41 240.32 438.61 241.28C438.88 242.55 437.83 243.68 436.85 244.52C431.12 249.43 424.38 253.15 417.18 255.39Z" fill="#E0E0E0"/>
<path d="M417.26 249.3C417.55 244.5 417.85 239.63 419.41 235.08C420.97 230.53 423.98 226.26 428.36 224.27C429.1 229.12 426.97 233.94 424.39 238.12C421.81 242.29 418.7 246.23 417.15 250.89" fill="#E0E0E0"/>
<path d="M417.15 252.6C415.29 247.17 415.1 240.28 411.85 235.55C409.58 232.25 405.94 229.99 403.98 226.49C402.68 229.76 403.08 233.53 404.44 236.77C405.8 240.01 408.05 242.81 410.45 245.38C412.85 247.95 414.91 249.89 417.15 252.6Z" fill="#E0E0E0"/>
<path d="M417.18 412.42C417.04 412.42 416.91 376.22 416.9 331.57C416.89 286.91 417 250.71 417.14 250.71C417.28 250.71 417.41 286.91 417.42 331.57C417.44 376.22 417.33 412.42 417.18 412.42Z" fill="#E0E0E0"/>
<path d="M448.82 303.98C448.83 304.01 448.34 304.19 447.46 304.49C446.48 304.82 445.22 305.24 443.71 305.75C440.55 306.83 436.21 308.38 431.5 310.31C426.84 312.31 422.44 313.93 419.94 316.1C418.69 317.17 417.97 318.33 417.62 319.17C417.26 320.02 417.2 320.54 417.15 320.53C417.13 320.53 417.14 320.4 417.17 320.15C417.21 319.91 417.27 319.54 417.44 319.1C417.75 318.21 418.44 316.97 419.71 315.82C420.97 314.67 422.72 313.64 424.73 312.7C426.74 311.76 428.96 310.79 431.32 309.82C436.04 307.88 440.42 306.38 443.61 305.39C445.21 304.89 446.51 304.53 447.41 304.28C448.3 304.06 448.81 303.94 448.82 303.98Z" fill="#E0E0E0"/>
<path d="M459.19 278.51C459.2 278.52 459.07 278.66 458.81 278.92C458.5 279.21 458.12 279.57 457.65 280.01C456.57 280.99 455.1 282.32 453.31 283.95C449.57 287.28 444.49 291.81 438.88 296.8C433.25 301.82 428.38 306.61 425 310.22C423.31 312.02 421.98 313.51 421.07 314.56C420.65 315.04 420.3 315.44 420.02 315.76C419.78 316.03 419.64 316.17 419.63 316.16C419.62 316.15 419.72 315.99 419.94 315.7C420.16 315.41 420.48 314.98 420.91 314.44C421.77 313.36 423.06 311.82 424.72 309.98C428.03 306.3 432.88 301.45 438.52 296.42C444.17 291.42 449.32 286.92 453.06 283.68C454.9 282.11 456.4 280.81 457.51 279.86C458.01 279.45 458.41 279.11 458.74 278.84C459.02 278.61 459.18 278.49 459.19 278.51Z" fill="#E0E0E0"/>
<path d="M432.79 301.9C432.64 301.83 433.82 299.12 434.99 295.68C436.17 292.24 436.73 289.34 436.88 289.37C437.02 289.38 436.68 292.37 435.48 295.85C434.89 297.59 434.24 299.12 433.73 300.2C433.22 301.28 432.86 301.92 432.79 301.9Z" fill="#E0E0E0"/>
<path d="M417.22 323.81C417.19 323.83 416.88 323.47 416.35 322.8C415.76 322.04 415.02 321.09 414.13 319.95C412.26 317.53 409.68 314.2 406.78 310.55C403.88 306.9 401.22 303.63 399.29 301.26C398.38 300.13 397.62 299.19 397.02 298.45C396.49 297.78 396.21 297.4 396.24 297.38C396.27 297.36 396.6 297.69 397.18 298.32C397.76 298.95 398.58 299.87 399.58 301.03C401.58 303.34 404.29 306.58 407.19 310.23C410.09 313.88 412.63 317.26 414.42 319.73C415.32 320.97 416.03 321.98 416.51 322.68C416.99 323.39 417.24 323.79 417.22 323.81Z" fill="#E0E0E0"/>
<path d="M410.28 314.9C410.19 314.99 408.34 312.8 407.37 309.46C406.65 307.11 406.62 304.96 406.71 303.97L406.94 303.99C406.84 304.41 406.76 304.63 406.72 304.62C406.68 304.61 406.68 304.38 406.71 303.95L406.94 303.97C407.02 304.95 407.17 307.02 407.87 309.31C408.81 312.55 410.42 314.81 410.28 314.9Z" fill="#E0E0E0"/>
<path d="M401.32 303.64C401.25 303.71 400.66 302.96 399.29 302.46C397.93 301.94 395.89 301.82 393.66 302.01C391.42 302.17 389.42 302.57 387.99 302.93C386.56 303.28 385.68 303.56 385.66 303.49C385.64 303.43 386.47 303.02 387.89 302.57C389.31 302.12 391.34 301.66 393.62 301.49C395.88 301.29 398.03 301.47 399.43 302.12C400.85 302.74 401.37 303.62 401.32 303.64Z" fill="#E0E0E0"/>
<path d="M399.2 300.91C399.16 300.99 398.02 300.44 396.09 299.78C394.17 299.12 391.43 298.42 388.33 298.18C385.24 297.95 382.42 298.22 380.42 298.58C378.42 298.94 377.2 299.31 377.18 299.23C377.17 299.2 377.46 299.07 378 298.88C378.54 298.68 379.34 298.45 380.35 298.22C382.36 297.76 385.22 297.42 388.37 297.66C391.52 297.9 394.3 298.67 396.21 299.43C397.17 299.81 397.93 300.16 398.43 300.44C398.95 300.71 399.22 300.88 399.2 300.91Z" fill="#E0E0E0"/>
<path d="M417.15 289.36C417.01 289.4 415.99 285.87 414.88 281.49C413.77 277.1 412.98 273.52 413.12 273.49C413.26 273.45 414.27 276.98 415.39 281.37C416.5 285.74 417.29 289.33 417.15 289.36Z" fill="#E0E0E0"/>
<path d="M417.29 289.36C417.13 289.41 416.48 287.05 414.78 284.65C413.12 282.19 411 280.96 411.08 280.83C411.11 280.78 411.69 280.99 412.51 281.57C413.33 282.14 414.34 283.1 415.21 284.35C416.98 286.85 417.42 289.35 417.29 289.36Z" fill="#E0E0E0"/>
<path d="M417.18 393.12C417.12 393.13 417.02 392.25 416.61 390.71C416.21 389.17 415.45 386.99 414.19 384.44C411.69 379.33 407.14 372.85 401.35 366.36C398.48 363.09 395.7 360 393.34 357.04C390.98 354.09 389.03 351.27 387.62 348.78C386.2 346.29 385.27 344.16 384.73 342.65C384.46 341.89 384.27 341.31 384.16 340.9C384.05 340.49 383.99 340.28 384.01 340.27C384.06 340.26 384.32 341.1 384.92 342.57C385.52 344.04 386.49 346.14 387.94 348.58C389.39 351.03 391.35 353.8 393.72 356.72C396.09 359.65 398.87 362.72 401.74 366C407.54 372.51 412.08 379.07 414.51 384.27C415.73 386.86 416.45 389.09 416.79 390.65C416.96 391.43 417.07 392.05 417.11 392.47C417.18 392.9 417.2 393.12 417.18 393.12Z" fill="#E0E0E0"/>
<path d="M445.77 360.83C445.79 360.87 445.24 361.15 444.27 361.67C443.31 362.21 441.95 363.04 440.38 364.24C438.82 365.44 437.07 367.01 435.28 368.9C433.49 370.79 431.64 372.99 429.76 375.34C425.99 380.06 422.47 384.25 420.36 387.58C419.29 389.24 418.51 390.63 418 391.61C417.49 392.59 417.21 393.14 417.18 393.12C417.16 393.11 417.21 392.97 417.32 392.7C417.43 392.43 417.58 392.03 417.82 391.53C418.28 390.52 419.01 389.09 420.05 387.39C422.1 383.97 425.59 379.73 429.35 375.02C431.24 372.66 433.1 370.46 434.93 368.57C436.76 366.68 438.55 365.12 440.16 363.95C441.77 362.78 443.18 361.99 444.17 361.5C444.67 361.25 445.07 361.1 445.34 360.98C445.62 360.86 445.76 360.82 445.77 360.83Z" fill="#E0E0E0"/>
<path d="M446.33 371.31C446.34 371.39 445.12 371.53 443.16 371.77C441.21 372.02 438.49 372.35 435.65 373.25C432.82 374.17 430.46 375.58 428.93 376.78C427.38 377.98 426.65 378.97 426.58 378.91C426.55 378.89 426.71 378.62 427.05 378.18C427.39 377.74 427.94 377.14 428.7 376.49C430.21 375.19 432.59 373.7 435.5 372.75C438.41 371.83 441.17 371.56 443.13 371.4C445.1 371.26 446.32 371.24 446.33 371.31Z" fill="#E0E0E0"/>
<path d="M427.5 377.76C427.33 377.67 428.76 375.49 429.87 372.55C430.91 369.59 431.15 367 431.34 367.03C431.41 367.04 431.4 367.69 431.29 368.73C431.17 369.77 430.92 371.21 430.37 372.73C429.82 374.25 429.09 375.52 428.53 376.4C427.96 377.28 427.56 377.79 427.5 377.76Z" fill="#E0E0E0"/>
<path d="M455.03 332.71C455.04 332.73 454.86 332.82 454.52 332.98C454.13 333.16 453.63 333.38 453.03 333.66C452.38 333.94 451.59 334.29 450.7 334.76C449.81 335.22 448.76 335.7 447.67 336.35C447.12 336.66 446.54 336.99 445.94 337.33C445.34 337.67 444.75 338.08 444.12 338.48C442.85 339.25 441.57 340.2 440.21 341.18C437.55 343.2 434.74 345.6 432.05 348.36C429.38 351.15 427.08 354.03 425.15 356.77C424.23 358.16 423.32 359.47 422.59 360.77C422.22 361.41 421.83 362.02 421.5 362.63C421.18 363.24 420.87 363.83 420.58 364.39C419.96 365.5 419.53 366.56 419.09 367.47C418.65 368.38 418.32 369.18 418.07 369.84C417.82 370.45 417.61 370.95 417.44 371.35C417.29 371.69 417.21 371.87 417.19 371.87C417.17 371.86 417.23 371.67 417.34 371.32C417.48 370.91 417.66 370.4 417.87 369.77C418.1 369.1 418.4 368.28 418.82 367.36C419.23 366.43 419.65 365.36 420.24 364.23C420.53 363.66 420.83 363.06 421.14 362.44C421.46 361.82 421.84 361.21 422.21 360.55C422.93 359.23 423.83 357.91 424.75 356.49C426.67 353.72 428.98 350.81 431.67 347.99C434.39 345.2 437.22 342.8 439.92 340.79C441.3 339.82 442.59 338.88 443.89 338.12C444.53 337.73 445.13 337.33 445.74 336.99C446.35 336.66 446.93 336.34 447.49 336.03C448.59 335.39 449.66 334.94 450.57 334.5C451.48 334.05 452.28 333.72 452.95 333.47C453.57 333.23 454.08 333.04 454.48 332.88C454.84 332.75 455.02 332.69 455.03 332.71Z" fill="#E0E0E0"/>
<path d="M432.4 347.87C432.35 347.86 432.61 346.98 433.64 346.02C434.65 345.06 436.5 344.16 438.65 344.1C440.79 344.04 442.65 344.64 443.93 345.13C445.21 345.63 445.95 346.04 445.92 346.1C445.89 346.17 445.09 345.89 443.8 345.48C442.51 345.09 440.7 344.57 438.66 344.62C436.63 344.68 434.89 345.46 433.87 346.3C432.85 347.13 432.49 347.92 432.4 347.87Z" fill="#E0E0E0"/>
<path d="M429.02 351.36C428.88 351.28 430.15 349.41 430.44 346.73C430.77 344.05 429.96 341.94 430.12 341.9C430.18 341.88 430.46 342.37 430.71 343.25C430.96 344.13 431.12 345.4 430.96 346.8C430.8 348.19 430.34 349.4 429.9 350.19C429.46 350.98 429.07 351.39 429.02 351.36Z" fill="#E0E0E0"/>
<path d="M392.18 398.31C392.96 412.15 397.13 426.22 403.54 440.44H431.43C437.55 426.36 441.43 412.31 442.12 398.31H392.18Z" fill="#E0E0E0"/>
<path d="M437.59 420.7C437.59 420.84 428.41 420.96 417.08 420.96C405.75 420.96 396.57 420.84 396.57 420.7C396.57 420.56 405.75 420.44 417.08 420.44C428.41 420.44 437.59 420.55 437.59 420.7Z" fill="#FAFAFA"/>
<path d="M436.97 425.71C436.97 425.85 428.36 425.97 417.75 425.97C407.13 425.97 398.53 425.85 398.53 425.71C398.53 425.57 407.14 425.45 417.75 425.45C428.36 425.45 436.97 425.57 436.97 425.71Z" fill="#FAFAFA"/>
<path d="M403.99 407.39C404.13 407.39 404.25 410.27 404.25 413.81C404.25 417.36 404.13 420.23 403.99 420.23C403.85 420.23 403.73 417.35 403.73 413.81C403.73 410.27 403.85 407.39 403.99 407.39Z" fill="#FAFAFA"/>
<path d="M418.93 407.39C419.07 407.39 419.19 410.37 419.19 414.04C419.19 417.71 419.07 420.69 418.93 420.69C418.79 420.69 418.67 417.71 418.67 414.04C418.67 410.37 418.79 407.39 418.93 407.39Z" fill="#FAFAFA"/>
<path d="M432.96 407.28C433.1 407.28 433.22 410.32 433.22 414.06C433.22 417.81 433.1 420.84 432.96 420.84C432.82 420.84 432.7 417.8 432.7 414.06C432.7 410.32 432.81 407.28 432.96 407.28Z" fill="#FAFAFA"/>
<path d="M441.23 407.39C441.23 407.53 430.46 407.65 417.18 407.65C403.89 407.65 393.13 407.53 393.13 407.39C393.13 407.25 403.9 407.13 417.18 407.13C430.46 407.13 441.23 407.25 441.23 407.39Z" fill="#FAFAFA"/>
<path d="M465.73 445.99C465.73 446.13 368.89 446.25 249.45 446.25C129.97 446.25 33.15 446.13 33.15 445.99C33.15 445.85 129.97 445.73 249.45 445.73C368.89 445.73 465.73 445.85 465.73 445.99Z" fill="#263238"/>
<path d="M318.14 37.02L289.44 37C285.59 37 282.47 40.27 282.47 44.31V49.54C282.47 53.58 279.35 56.85 275.5 56.85L219.54 56.82C215.69 56.82 212.57 53.54 212.57 49.5V44.27C212.57 40.23 209.45 36.95 205.6 36.95L195.5 36.94L170.37 36.93C157.89 36.92 147.77 47.07 147.77 59.6L147.7 423.23C147.7 435.75 157.8 445.9 170.27 445.91L318.04 446C330.52 446.01 340.64 435.86 340.64 423.34L340.71 59.71C340.72 47.18 330.62 37.03 318.14 37.02Z" fill="white"/>
<path d="M318.14 37.02C318.14 37.02 318.4 37.02 318.92 37.05C319.43 37.1 320.21 37.04 321.21 37.23C323.22 37.47 326.27 38.13 329.69 40.18C331.42 41.16 333.18 42.57 334.84 44.38C336.49 46.19 338.03 48.45 339.13 51.15C340.24 53.84 340.84 56.99 340.81 60.34C340.81 63.68 340.82 67.24 340.82 71.02C340.83 101.19 340.85 144.85 340.88 198.79C340.89 252.74 340.89 316.97 340.9 388.29C340.9 397.21 340.9 406.23 340.9 415.36C340.9 417.64 340.9 419.93 340.9 422.23C340.93 423.37 340.83 424.54 340.78 425.7C340.6 426.85 340.47 428.01 340.13 429.13C339 433.67 336.33 437.79 332.76 440.86C330.94 442.37 328.91 443.61 326.72 444.53C324.53 445.45 322.18 445.95 319.81 446.16L318.02 446.25H316.25H312.7C310.33 446.25 307.96 446.25 305.57 446.25C296.05 446.25 286.43 446.24 276.73 446.24C257.33 446.23 237.58 446.22 217.54 446.21C207.52 446.2 197.43 446.2 187.27 446.19C182.19 446.19 177.09 446.18 171.98 446.18C166.85 446.44 161.55 445.07 157.28 442.08C152.99 439.12 149.84 434.63 148.38 429.68C147.59 427.21 147.45 424.58 147.45 422.03C147.45 419.48 147.45 416.94 147.45 414.39C147.45 404.23 147.45 394.13 147.46 384.11C147.46 364.06 147.47 344.31 147.47 324.91C147.48 286.09 147.49 248.65 147.51 212.99C147.52 177.32 147.54 143.43 147.55 111.71C147.56 95.85 147.57 80.53 147.57 65.81C147.57 63.97 147.57 62.14 147.57 60.32C147.55 59.41 147.64 58.49 147.67 57.58C147.75 56.67 147.92 55.77 148.07 54.88C148.84 51.32 150.45 48 152.67 45.23C157.16 39.68 164.16 36.54 170.96 36.78C177.7 36.79 184.29 36.79 190.7 36.8C193.91 36.8 197.07 36.81 200.2 36.81C201.76 36.81 203.31 36.81 204.85 36.82C206.38 36.75 208.03 37.05 209.32 37.94C210.64 38.78 211.63 40.05 212.19 41.47C212.47 42.18 212.63 42.94 212.69 43.69C212.74 44.45 212.71 45.18 212.72 45.92C212.74 47.39 212.68 48.88 212.76 50.29C212.91 51.71 213.46 53.06 214.34 54.16C215.22 55.24 216.42 56.07 217.74 56.44C219.06 56.84 220.48 56.65 221.86 56.7C224.63 56.7 227.36 56.71 230.03 56.71C240.74 56.72 250.71 56.74 259.89 56.75C264.48 56.76 268.87 56.76 273.06 56.77C274.1 56.76 275.15 56.81 276.15 56.74C277.15 56.64 278.11 56.3 278.94 55.79C280.62 54.76 281.76 53.05 282.16 51.24C282.38 50.33 282.35 49.41 282.35 48.49C282.35 47.57 282.35 46.67 282.35 45.78C282.36 44.89 282.31 44.01 282.46 43.14C282.6 42.28 282.88 41.45 283.28 40.71C284.07 39.21 285.39 38.08 286.84 37.47C288.31 36.81 289.9 36.98 291.33 36.96C297.13 36.97 302.05 36.98 306.02 36.99C309.99 37 313.01 37.01 315.05 37.02C317.1 37 318.14 37.02 318.14 37.02C318.14 37.02 317.1 37.04 315.06 37.04C313.02 37.04 309.99 37.05 306.03 37.06C302.06 37.06 297.15 37.07 291.34 37.08C289.9 37.11 288.35 36.94 286.92 37.59C285.5 38.18 284.22 39.29 283.45 40.76C283.06 41.49 282.79 42.29 282.66 43.13C282.52 43.97 282.57 44.85 282.56 45.74C282.56 46.63 282.56 47.53 282.56 48.45C282.56 49.36 282.59 50.31 282.37 51.25C281.96 53.11 280.79 54.88 279.06 55.94C278.2 56.47 277.21 56.82 276.18 56.93C275.14 57 274.12 56.95 273.07 56.97C268.88 56.97 264.49 56.97 259.9 56.97C250.72 56.97 240.75 56.97 230.04 56.97C227.36 56.97 224.64 56.97 221.87 56.97C221.18 56.97 220.48 56.97 219.78 56.97C219.08 56.97 218.35 56.92 217.66 56.7C216.27 56.32 215.02 55.46 214.1 54.32C213.18 53.18 212.6 51.77 212.45 50.29C212.37 48.81 212.43 47.37 212.41 45.88C212.4 45.15 212.43 44.39 212.38 43.67C212.31 42.95 212.17 42.23 211.9 41.54C211.36 40.18 210.41 38.96 209.16 38.17C207.91 37.33 206.41 37.04 204.87 37.11C203.33 37.11 201.78 37.11 200.22 37.11C197.1 37.11 193.93 37.11 190.72 37.11C184.3 37.11 177.72 37.11 170.98 37.11C164.27 36.89 157.4 39.98 152.99 45.44C150.81 48.17 149.23 51.44 148.47 54.93C148.32 55.81 148.16 56.69 148.08 57.59C148.05 58.49 147.96 59.38 147.98 60.3C147.98 62.12 147.98 63.95 147.98 65.79C147.98 80.51 147.98 95.83 147.99 111.69C147.99 143.41 147.99 177.3 148 212.97C148 248.64 148 286.08 147.99 324.89C147.99 344.3 147.99 364.05 147.98 384.09C147.98 394.11 147.98 404.21 147.98 414.37C147.98 416.91 147.98 419.46 147.98 422.01C147.98 424.55 148.12 427.08 148.89 429.51C150.32 434.35 153.39 438.74 157.59 441.63C161.78 444.55 166.9 445.9 171.99 445.64C177.1 445.64 182.2 445.65 187.28 445.65C197.44 445.66 207.53 445.66 217.55 445.67C237.59 445.68 257.34 445.7 276.74 445.71C286.44 445.72 296.06 445.72 305.58 445.73C307.96 445.73 310.34 445.73 312.71 445.73H316.26H318.03L319.78 445.64C322.1 445.44 324.4 444.95 326.54 444.05C328.68 443.15 330.67 441.93 332.45 440.46C335.95 437.46 338.56 433.43 339.67 428.99C340 427.89 340.12 426.76 340.3 425.63C340.35 424.49 340.45 423.36 340.42 422.21C340.42 419.91 340.42 417.63 340.42 415.34C340.42 406.21 340.43 397.18 340.43 388.27C340.46 316.95 340.49 252.72 340.52 198.77C340.56 144.83 340.6 101.17 340.63 71C340.63 67.23 340.64 63.67 340.64 60.32C340.68 56.98 340.1 53.87 339 51.19C337.92 48.5 336.4 46.25 334.76 44.45C333.12 42.65 331.37 41.24 329.65 40.25C326.25 38.19 323.21 37.52 321.21 37.26C320.21 37.06 319.43 37.11 318.92 37.05C318.41 37.04 318.14 37.02 318.14 37.02Z" fill="#263238"/>
<path d="M307.93 332.78H171.78C168.59 332.78 166.01 330.2 166.01 327.01V306.35C166.01 303.16 168.59 300.58 171.78 300.58H307.94C311.13 300.58 313.71 303.16 313.71 306.35V327.01C313.7 330.2 311.12 332.78 307.93 332.78Z" fill="#0D9488"/>
<path d="M207.48 135.89L208.65 133.29C209.91 134.21 211.79 134.85 213.58 134.85C215.63 134.85 216.46 134.17 216.46 133.25C216.46 130.46 207.78 132.38 207.78 126.83C207.78 124.29 209.83 122.18 214.07 122.18C215.95 122.18 217.87 122.63 219.25 123.5L218.18 126.12C216.79 125.33 215.36 124.95 214.04 124.95C211.99 124.95 211.2 125.72 211.2 126.66C211.2 129.41 219.88 127.51 219.88 133C219.88 135.5 217.81 137.63 213.54 137.63C211.19 137.62 208.8 136.91 207.48 135.89Z" fill="black"/>
<path d="M221.62 122.43C221.62 121.38 222.45 120.57 223.69 120.57C224.93 120.57 225.76 121.34 225.76 122.36C225.76 123.47 224.93 124.28 223.69 124.28C222.45 124.28 221.62 123.47 221.62 122.43ZM222.03 125.88H225.36V137.36H222.03V125.88Z" fill="black"/>
<path d="M240.29 125.88V135.44C240.29 139.71 237.99 141.67 233.85 141.67C231.67 141.67 229.56 141.14 228.22 140.09L229.54 137.7C230.52 138.49 232.12 139 233.59 139C235.94 139 236.96 137.93 236.96 135.86V135.37C236.09 136.33 234.83 136.8 233.33 136.8C230.15 136.8 227.59 134.6 227.59 131.25C227.59 127.9 230.15 125.7 233.33 125.7C234.93 125.7 236.25 126.23 237.13 127.34V125.87H240.29V125.88ZM237 131.26C237 129.58 235.74 128.44 233.99 128.44C232.24 128.44 230.96 129.57 230.96 131.26C230.96 132.95 232.24 134.08 233.99 134.08C235.74 134.07 237 132.94 237 131.26Z" fill="black"/>
<path d="M255.11 130.79V137.36H251.78V131.3C251.78 129.44 250.93 128.59 249.45 128.59C247.85 128.59 246.7 129.57 246.7 131.68V137.35H243.37V125.87H246.55V127.21C247.45 126.23 248.79 125.7 250.35 125.7C253.06 125.71 255.11 127.29 255.11 130.79Z" fill="black"/>
<path d="M263.75 122.43C263.75 121.38 264.58 120.57 265.82 120.57C267.06 120.57 267.89 121.34 267.89 122.36C267.89 123.47 267.06 124.28 265.82 124.28C264.58 124.28 263.75 123.47 263.75 122.43ZM264.15 125.88H267.48V137.36H264.15V125.88Z" fill="black"/>
<path d="M282.3 130.79V137.36H278.97V131.3C278.97 129.44 278.12 128.59 276.64 128.59C275.04 128.59 273.89 129.57 273.89 131.68V137.35H270.56V125.87H273.74V127.21C274.64 126.23 275.98 125.7 277.54 125.7C280.26 125.71 282.3 127.29 282.3 130.79Z" fill="black"/>
<path d="M173.41 186.57V187.11H169.23V181.19H173.29V181.73H169.86V183.84H172.92V184.37H169.86V186.57H173.41Z" fill="#263238"/>
<path d="M174.26 184.56H176.47V185.08H174.26V184.56Z" fill="#263238"/>
<path d="M185.15 184.54V187.12H184.55V184.6C184.55 183.66 184.08 183.18 183.27 183.18C182.36 183.18 181.78 183.77 181.78 184.79V187.12H181.18V184.6C181.18 183.66 180.71 183.18 179.89 183.18C178.99 183.18 178.4 183.77 178.4 184.79V187.12H177.8V182.67H178.37V183.48C178.68 182.95 179.26 182.63 180 182.63C180.74 182.63 181.31 182.94 181.58 183.57C181.9 183 182.54 182.63 183.34 182.63C184.45 182.63 185.15 183.26 185.15 184.54Z" fill="#263238"/>
<path d="M190.14 184.36V187.12H189.57V186.43C189.3 186.89 188.78 187.17 188.04 187.17C187.03 187.17 186.42 186.65 186.42 185.88C186.42 185.19 186.86 184.62 188.14 184.62H189.55V184.35C189.55 183.59 189.12 183.18 188.29 183.18C187.72 183.18 187.17 183.38 186.81 183.7L186.54 183.25C186.99 182.87 187.65 182.65 188.35 182.65C189.49 182.63 190.14 183.21 190.14 184.36ZM189.54 185.78V185.05H188.14C187.28 185.05 187 185.39 187 185.84C187 186.36 187.41 186.68 188.12 186.68C188.81 186.68 189.31 186.36 189.54 185.78Z" fill="#263238"/>
<path d="M191.64 181.26C191.64 181.03 191.83 180.84 192.08 180.84C192.33 180.84 192.52 181.03 192.52 181.25C192.52 181.5 192.33 181.69 192.08 181.69C191.83 181.7 191.64 181.5 191.64 181.26ZM191.77 182.67H192.37V187.12H191.77V182.67Z" fill="#263238"/>
<path d="M194.05 180.84H194.65V187.11H194.05V180.84Z" fill="#263238"/>
<path d="M171.6 241.48C171.6 242.74 170.69 243.5 169.18 243.5H167.59V245.37H166.96V239.45H169.17C170.69 239.45 171.6 240.22 171.6 241.48ZM170.98 241.48C170.98 240.53 170.35 239.99 169.17 239.99H167.6V242.95H169.17C170.35 242.95 170.98 242.41 170.98 241.48Z" fill="black"/>
<path d="M176.14 242.62V245.38H175.57V244.69C175.3 245.15 174.77 245.43 174.04 245.43C173.03 245.43 172.42 244.91 172.42 244.14C172.42 243.46 172.86 242.88 174.14 242.88H175.55V242.61C175.55 241.85 175.12 241.44 174.29 241.44C173.72 241.44 173.17 241.64 172.81 241.96L172.54 241.51C172.99 241.13 173.65 240.91 174.35 240.91C175.49 240.89 176.14 241.47 176.14 242.62ZM175.54 244.04V243.31H174.14C173.28 243.31 173 243.65 173 244.1C173 244.62 173.41 244.94 174.12 244.94C174.81 244.94 175.3 244.62 175.54 244.04Z" fill="black"/>
<path d="M177.16 244.86L177.43 244.39C177.79 244.67 178.39 244.89 179.01 244.89C179.86 244.89 180.2 244.6 180.2 244.16C180.2 243 177.32 243.91 177.32 242.16C177.32 241.43 177.95 240.89 179.08 240.89C179.65 240.89 180.28 241.05 180.65 241.3L180.39 241.78C180 241.51 179.54 241.4 179.08 241.4C178.28 241.4 177.92 241.71 177.92 242.14C177.92 243.34 180.8 242.44 180.8 244.14C180.8 244.91 180.12 245.41 178.97 245.41C178.23 245.41 177.52 245.18 177.16 244.86Z" fill="black"/>
<path d="M181.29 244.86L181.56 244.39C181.91 244.67 182.52 244.89 183.14 244.89C183.99 244.89 184.33 244.6 184.33 244.16C184.33 243 181.45 243.91 181.45 242.16C181.45 241.43 182.08 240.89 183.21 240.89C183.78 240.89 184.41 241.05 184.78 241.3L184.52 241.78C184.13 241.51 183.67 241.4 183.21 241.4C182.41 241.4 182.05 241.71 182.05 242.14C182.05 243.34 184.93 242.44 184.93 244.14C184.93 244.91 184.25 245.41 183.1 245.41C182.36 245.41 181.65 245.18 181.29 244.86Z" fill="black"/>
<path d="M192.48 240.93L190.8 245.38H190.23L188.83 241.74L187.43 245.38H186.86L185.19 240.93H185.76L187.15 244.71L188.58 240.93H189.1L190.52 244.71L191.93 240.93H192.48Z" fill="black"/>
<path d="M192.81 243.15C192.81 241.83 193.77 240.89 195.08 240.89C196.38 240.89 197.34 241.83 197.34 243.15C197.34 244.47 196.38 245.42 195.08 245.42C193.78 245.41 192.81 244.47 192.81 243.15ZM196.73 243.15C196.73 242.11 196.03 241.42 195.08 241.42C194.13 241.42 193.42 242.11 193.42 243.15C193.42 244.19 194.13 244.88 195.08 244.88C196.02 244.88 196.73 244.19 196.73 243.15Z" fill="black"/>
<path d="M200.8 240.89V241.47C200.75 241.47 200.7 241.46 200.66 241.46C199.73 241.46 199.16 242.05 199.16 243.1V245.37H198.56V240.92H199.13V241.79C199.41 241.2 199.98 240.89 200.8 240.89Z" fill="black"/>
<path d="M205.9 239.1V245.37H205.33V244.49C204.97 245.09 204.35 245.41 203.61 245.41C202.34 245.41 201.4 244.49 201.4 243.14C201.4 241.8 202.35 240.88 203.61 240.88C204.32 240.88 204.93 241.18 205.3 241.76V239.09H205.9V239.1ZM205.31 243.15C205.31 242.11 204.6 241.42 203.66 241.42C202.71 241.42 202 242.11 202 243.15C202 244.19 202.71 244.88 203.66 244.88C204.6 244.88 205.31 244.19 205.31 243.15Z" fill="black"/>
<path d="M220.56 319.21L221.15 317.91C221.78 318.37 222.72 318.69 223.62 318.69C224.65 318.69 225.06 318.35 225.06 317.89C225.06 316.49 220.71 317.45 220.71 314.67C220.71 313.4 221.74 312.34 223.87 312.34C224.81 312.34 225.77 312.56 226.47 313L225.93 314.32C225.23 313.92 224.52 313.73 223.86 313.73C222.83 313.73 222.44 314.12 222.44 314.59C222.44 315.97 226.79 315.02 226.79 317.77C226.79 319.02 225.75 320.09 223.61 320.09C222.42 320.07 221.22 319.72 220.56 319.21Z" fill="white"/>
<path d="M227.65 312.46C227.65 311.94 228.07 311.53 228.69 311.53C229.31 311.53 229.73 311.91 229.73 312.43C229.73 312.99 229.31 313.39 228.69 313.39C228.07 313.39 227.65 312.98 227.65 312.46ZM227.85 314.19H229.52V319.94H227.85V314.19Z" fill="white"/>
<path d="M236.95 316.65V319.94H235.28V316.9C235.28 315.97 234.85 315.54 234.11 315.54C233.31 315.54 232.73 316.03 232.73 317.09V319.94H231.06V314.19H232.65V314.86C233.1 314.37 233.77 314.1 234.55 314.1C235.93 314.1 236.95 314.89 236.95 316.65Z" fill="white"/>
<path d="M244.46 314.19V318.98C244.46 321.12 243.3 322.1 241.23 322.1C240.14 322.1 239.08 321.83 238.41 321.31L239.07 320.11C239.56 320.51 240.36 320.76 241.1 320.76C242.28 320.76 242.79 320.23 242.79 319.19V318.94C242.35 319.42 241.72 319.66 240.97 319.66C239.38 319.66 238.09 318.56 238.09 316.88C238.09 315.2 239.37 314.1 240.97 314.1C241.77 314.1 242.44 314.37 242.87 314.92V314.18H244.46V314.19ZM242.82 316.88C242.82 316.04 242.19 315.47 241.31 315.47C240.43 315.47 239.79 316.04 239.79 316.88C239.79 317.73 240.43 318.29 241.31 318.29C242.18 318.3 242.82 317.73 242.82 316.88Z" fill="white"/>
<path d="M248.84 312.46C248.84 311.94 249.26 311.53 249.88 311.53C250.5 311.53 250.92 311.91 250.92 312.43C250.92 312.99 250.5 313.39 249.88 313.39C249.26 313.39 248.84 312.98 248.84 312.46ZM249.04 314.19H250.71V319.94H249.04V314.19Z" fill="white"/>
<path d="M258.14 316.65V319.94H256.47V316.9C256.47 315.97 256.04 315.54 255.3 315.54C254.5 315.54 253.92 316.03 253.92 317.09V319.94H252.25V314.19H253.84V314.86C254.29 314.37 254.96 314.1 255.74 314.1C257.12 314.1 258.14 314.89 258.14 316.65Z" fill="white"/>
<path d="M306.7 225.47H173.01C169.14 225.47 166 222.33 166 218.46V200.52C166 196.65 169.14 193.51 173.01 193.51H306.7C310.57 193.51 313.71 196.65 313.71 200.52V218.46C313.7 222.33 310.57 225.47 306.7 225.47Z" fill="#EBEBEB"/>
<path d="M306.7 225.47C306.7 225.47 306.78 225.46 306.93 225.45C307.08 225.43 307.3 225.44 307.6 225.39C308.18 225.32 309.06 225.12 310.07 224.56C311.06 224 312.2 223.04 312.93 221.52C313.3 220.77 313.55 219.89 313.61 218.93C313.65 217.97 313.62 216.92 313.62 215.83C313.59 211.44 313.62 206.05 313.54 199.84C313.37 198.32 312.69 196.8 311.52 195.66C310.36 194.51 308.73 193.77 307 193.71C303.46 193.71 299.73 193.71 295.8 193.71C264.37 193.73 220.97 193.76 173.03 193.79C170.11 193.75 167.37 195.81 166.57 198.57C166.14 199.93 166.31 201.41 166.28 202.89C166.28 204.36 166.28 205.82 166.28 207.28C166.28 210.2 166.28 213.1 166.28 215.97V218.12C166.27 218.83 166.32 219.51 166.51 220.18C166.84 221.51 167.62 222.72 168.65 223.6C169.68 224.49 170.98 225.04 172.33 225.19C173.68 225.27 175.11 225.21 176.48 225.23C179.25 225.23 182 225.23 184.72 225.23C190.16 225.23 195.48 225.24 200.67 225.24C221.44 225.26 240.15 225.28 255.86 225.3C271.56 225.33 284.27 225.36 293.07 225.38C297.45 225.4 300.86 225.42 303.19 225.43C304.34 225.44 305.21 225.45 305.82 225.46C306.39 225.45 306.7 225.47 306.7 225.47C306.7 225.47 306.4 225.49 305.8 225.5C305.19 225.51 304.32 225.51 303.17 225.53C300.84 225.54 297.44 225.56 293.05 225.58C284.25 225.6 271.54 225.63 255.84 225.66C240.13 225.68 221.42 225.69 200.65 225.72C195.46 225.72 190.13 225.73 184.7 225.73C181.98 225.73 179.23 225.73 176.46 225.73C175.06 225.71 173.7 225.77 172.25 225.69C170.81 225.53 169.41 224.94 168.29 223.98C167.18 223.03 166.35 221.73 165.99 220.3C165.79 219.59 165.74 218.83 165.75 218.11V215.96C165.75 213.09 165.75 210.19 165.75 207.27C165.75 205.81 165.75 204.35 165.75 202.88V200.67C165.76 199.92 165.84 199.14 166.07 198.41C166.94 195.44 169.89 193.22 173.03 193.26C220.96 193.29 264.36 193.32 295.8 193.34C299.73 193.35 303.47 193.36 307.01 193.37C308.82 193.44 310.53 194.22 311.73 195.43C312.94 196.63 313.66 198.22 313.82 199.8C313.88 206.07 313.81 211.42 313.81 215.82C313.8 216.92 313.83 217.95 313.77 218.93C313.7 219.91 313.43 220.81 313.05 221.58C312.29 223.12 311.12 224.09 310.1 224.64C309.07 225.19 308.18 225.37 307.59 225.43C307 225.49 306.7 225.47 306.7 225.47Z" fill="#263238"/>
<path d="M306.7 283.13H173.01C169.14 283.13 166 279.99 166 276.12V258.18C166 254.31 169.14 251.17 173.01 251.17H306.7C310.57 251.17 313.71 254.31 313.71 258.18V276.12C313.7 279.99 310.57 283.13 306.7 283.13Z" fill="#EBEBEB"/>
<path d="M306.7 283.13C306.7 283.13 306.78 283.12 306.93 283.11C307.08 283.09 307.3 283.1 307.6 283.05C308.18 282.98 309.06 282.78 310.07 282.22C311.06 281.66 312.2 280.7 312.93 279.18C313.3 278.43 313.55 277.55 313.61 276.59C313.65 275.63 313.62 274.58 313.62 273.49C313.59 269.1 313.62 263.71 313.54 257.5C313.37 255.98 312.69 254.46 311.52 253.32C310.36 252.17 308.73 251.43 307 251.37C303.46 251.37 299.73 251.37 295.8 251.37C264.37 251.39 220.97 251.42 173.03 251.45C170.11 251.41 167.37 253.47 166.57 256.23C166.14 257.59 166.31 259.07 166.28 260.55C166.28 262.02 166.28 263.48 166.28 264.94C166.28 267.86 166.28 270.76 166.28 273.63V275.78C166.27 276.49 166.32 277.17 166.51 277.84C166.84 279.17 167.62 280.38 168.65 281.26C169.68 282.15 170.98 282.7 172.33 282.85C173.68 282.93 175.11 282.87 176.48 282.89C179.25 282.89 182 282.89 184.72 282.89C190.16 282.89 195.48 282.9 200.67 282.9C221.44 282.92 240.15 282.94 255.86 282.96C271.56 283 284.27 283.02 293.07 283.04C297.45 283.06 300.86 283.08 303.19 283.09C304.34 283.1 305.21 283.11 305.82 283.12C306.39 283.11 306.7 283.13 306.7 283.13C306.7 283.13 306.4 283.15 305.8 283.16C305.19 283.17 304.32 283.17 303.17 283.19C300.84 283.2 297.44 283.22 293.05 283.24C284.25 283.26 271.54 283.29 255.84 283.32C240.13 283.34 221.42 283.35 200.65 283.38C195.46 283.38 190.13 283.39 184.7 283.39C181.98 283.39 179.23 283.39 176.46 283.39C175.06 283.37 173.7 283.43 172.25 283.35C170.81 283.19 169.41 282.6 168.29 281.64C167.18 280.69 166.35 279.39 165.99 277.96C165.79 277.25 165.74 276.49 165.75 275.77V273.62C165.75 270.75 165.75 267.85 165.75 264.93C165.75 263.47 165.75 262.01 165.75 260.54V258.33C165.76 257.58 165.84 256.8 166.07 256.07C166.94 253.1 169.89 250.88 173.03 250.92C220.96 250.95 264.36 250.98 295.8 251C299.73 251.01 303.47 251.02 307.01 251.03C308.82 251.1 310.53 251.88 311.73 253.09C312.94 254.29 313.66 255.88 313.82 257.46C313.88 263.73 313.81 269.08 313.81 273.48C313.8 274.58 313.83 275.61 313.77 276.59C313.7 277.57 313.43 278.47 313.05 279.24C312.29 280.78 311.12 281.75 310.1 282.3C309.07 282.85 308.18 283.03 307.59 283.09C307 283.15 306.7 283.13 306.7 283.13Z" fill="#263238"/>
<path d="M307.93 400.81C307.93 400.79 308.24 400.81 308.82 400.71C309.4 400.61 310.28 400.38 311.23 399.71C312.16 399.05 313.15 397.88 313.5 396.22C313.68 395.4 313.6 394.48 313.61 393.49C313.61 392.51 313.6 391.46 313.6 390.36C313.59 385.93 313.57 380.52 313.55 374.23C313.52 372.7 312.8 371.14 311.54 370.08C310.92 369.55 310.16 369.17 309.34 368.96C308.53 368.73 307.66 368.78 306.76 368.78C303.19 368.79 299.43 368.79 295.47 368.8C263.8 368.82 220.07 368.85 171.78 368.88C170.33 368.87 168.91 369.46 167.89 370.48C166.87 371.49 166.27 372.9 166.26 374.33C166.26 377.31 166.26 380.27 166.26 383.21C166.26 386.15 166.26 389.07 166.26 391.97V394.14C166.26 394.87 166.24 395.57 166.39 396.23C166.67 397.58 167.49 398.79 168.61 399.56C169.17 399.95 169.8 400.24 170.45 400.4C171.11 400.57 171.78 400.57 172.5 400.57C173.91 400.57 175.32 400.57 176.71 400.57C179.51 400.57 182.27 400.57 185.01 400.57C190.49 400.57 195.85 400.58 201.08 400.58C222.01 400.6 240.86 400.62 256.69 400.64C272.51 400.67 285.31 400.7 294.18 400.72C298.6 400.74 302.03 400.76 304.37 400.77C305.53 400.78 306.41 400.79 307.02 400.8C307.63 400.79 307.93 400.81 307.93 400.81C307.93 400.81 307.62 400.83 307.03 400.84C306.42 400.85 305.53 400.85 304.38 400.87C302.04 400.88 298.6 400.9 294.19 400.92C285.33 400.94 272.52 400.97 256.7 401C240.87 401.02 222.02 401.03 201.09 401.06C195.86 401.06 190.49 401.07 185.02 401.07C182.28 401.07 179.51 401.07 176.72 401.07C175.32 401.07 173.92 401.07 172.51 401.07C171.82 401.08 171.06 401.08 170.34 400.89C169.62 400.71 168.93 400.4 168.33 399.98C167.11 399.13 166.21 397.81 165.9 396.34C165.73 395.6 165.76 394.84 165.76 394.14V391.97C165.76 389.07 165.76 386.15 165.76 383.21C165.76 380.27 165.76 377.3 165.76 374.32C165.76 372.76 166.42 371.21 167.54 370.11C168.65 369 170.22 368.35 171.79 368.36C220.09 368.39 263.81 368.42 295.48 368.44C299.44 368.45 303.21 368.45 306.77 368.46C307.65 368.47 308.56 368.42 309.43 368.66C310.29 368.89 311.09 369.3 311.75 369.86C313.07 370.97 313.82 372.63 313.85 374.24C313.84 380.53 313.82 385.94 313.81 390.37C313.81 391.48 313.8 392.52 313.8 393.5C313.78 394.48 313.86 395.41 313.66 396.26C313.28 397.96 312.26 399.15 311.3 399.8C310.33 400.47 309.43 400.68 308.84 400.77C308.24 400.84 307.93 400.81 307.93 400.81Z" fill="#E0E0E0"/>
<path d="M272.71 384.71C272.71 384.85 257.76 384.97 239.33 384.97C220.89 384.97 205.94 384.85 205.94 384.71C205.94 384.57 220.88 384.45 239.33 384.45C257.76 384.45 272.71 384.57 272.71 384.71Z" fill="#E0E0E0"/>
<path d="M254.259 110.002C259.148 105.113 259.148 97.1854 254.259 92.2961C249.37 87.4068 241.442 87.4067 236.553 92.2961C231.664 97.1854 231.664 105.113 236.553 110.002C241.442 114.891 249.37 114.891 254.259 110.002Z" fill="#F5F5F5"/>
<path d="M253.5 110.65C253.13 106.8 249.85 103.54 245.41 103.54C240.96 103.54 237.92 106.9 237.32 110.68C237.32 110.68 240.07 113.72 245.41 113.67C250.76 113.63 253.5 110.65 253.5 110.65Z" fill="#E0E0E0"/>
<path d="M245.41 104.4C248.122 104.4 250.32 102.202 250.32 99.49C250.32 96.7783 248.122 94.58 245.41 94.58C242.698 94.58 240.5 96.7783 240.5 99.49C240.5 102.202 242.698 104.4 245.41 104.4Z" fill="#E0E0E0"/>
<path d="M253.44 110.22C253.38 110.24 253.37 109.31 252.67 107.91C252.3 107.23 251.73 106.45 250.9 105.73C250.07 105.02 248.98 104.36 247.7 103.94L247.45 103.86L247.68 103.74C248.46 103.32 249.17 102.65 249.64 101.79C250.11 100.93 250.32 99.87 250.16 98.81C250.02 97.75 249.47 96.71 248.62 95.96C247.78 95.2 246.63 94.74 245.44 94.74C244.25 94.74 243.1 95.2 242.26 95.96C241.41 96.71 240.87 97.75 240.72 98.8C240.55 99.85 240.76 100.91 241.22 101.78C241.45 102.21 241.75 102.6 242.08 102.93C242.41 103.26 242.79 103.51 243.17 103.76L243.39 103.9L243.14 103.97C241.82 104.32 240.73 104.99 239.94 105.74C239.14 106.49 238.62 107.31 238.26 108C237.91 108.7 237.72 109.29 237.6 109.69C237.54 109.89 237.5 110.05 237.48 110.15C237.45 110.25 237.44 110.31 237.44 110.31C237.44 110.31 237.44 110.25 237.45 110.15C237.47 110.04 237.49 109.88 237.54 109.68C237.64 109.27 237.81 108.67 238.15 107.95C238.49 107.24 239.01 106.39 239.81 105.61C240.61 104.83 241.73 104.13 243.08 103.75L243.05 103.95C242.67 103.71 242.27 103.45 241.92 103.1C241.57 102.76 241.26 102.35 241.01 101.9C240.52 100.99 240.29 99.88 240.46 98.76C240.61 97.65 241.18 96.55 242.08 95.75C242.97 94.95 244.19 94.46 245.44 94.46C246.7 94.46 247.92 94.95 248.81 95.76C249.71 96.56 250.28 97.66 250.42 98.78C250.59 99.89 250.36 101.01 249.86 101.92C249.36 102.83 248.61 103.52 247.79 103.95L247.77 103.74C249.1 104.2 250.18 104.88 251.03 105.61C251.87 106.35 252.44 107.16 252.8 107.87C252.96 108.24 253.12 108.55 253.19 108.85C253.28 109.14 253.36 109.39 253.38 109.6C253.41 109.79 253.43 109.95 253.45 110.07C253.45 110.17 253.45 110.22 253.44 110.22Z" fill="#263238"/>
<path d="M257.93 101.15C257.93 101.15 257.92 101.08 257.91 100.95C257.9 100.8 257.88 100.61 257.87 100.36C257.86 100.23 257.85 100.08 257.84 99.92C257.82 99.76 257.79 99.59 257.76 99.4C257.7 99.02 257.64 98.59 257.49 98.11C257.27 97.14 256.81 96 256.1 94.8C255.38 93.6 254.34 92.34 252.93 91.28C251.52 90.23 249.75 89.33 247.7 88.97C245.67 88.62 243.37 88.69 241.18 89.52C240.62 89.7 240.1 89.97 239.56 90.23C239.05 90.54 238.51 90.82 238.04 91.21C237.54 91.56 237.1 91.99 236.63 92.41C236.21 92.87 235.78 93.32 235.42 93.85C234.68 94.87 234.04 96.01 233.65 97.26C233.25 98.5 233.03 99.83 233.01 101.17C233.03 102.52 233.24 103.84 233.65 105.08C234.04 106.33 234.68 107.47 235.42 108.5C235.78 109.02 236.22 109.48 236.63 109.94C237.09 110.36 237.53 110.79 238.04 111.14C238.51 111.53 239.05 111.81 239.56 112.12C240.1 112.38 240.62 112.65 241.18 112.83C243.37 113.66 245.66 113.73 247.7 113.38C249.75 113.02 251.52 112.12 252.93 111.07C254.34 110.01 255.38 108.75 256.1 107.55C256.81 106.34 257.27 105.2 257.49 104.24C257.64 103.76 257.69 103.33 257.76 102.95C257.79 102.76 257.82 102.59 257.84 102.43C257.85 102.27 257.86 102.12 257.87 101.99C257.89 101.74 257.9 101.54 257.91 101.4C257.91 101.22 257.92 101.15 257.93 101.15C257.93 101.15 257.94 101.22 257.93 101.35C257.93 101.5 257.92 101.7 257.91 101.95C257.91 102.08 257.9 102.23 257.89 102.39C257.88 102.55 257.85 102.73 257.82 102.92C257.77 103.3 257.72 103.74 257.58 104.22C257.37 105.2 256.93 106.36 256.22 107.59C255.5 108.82 254.46 110.1 253.03 111.19C251.61 112.27 249.81 113.2 247.72 113.57C245.65 113.94 243.31 113.88 241.07 113.04C240.5 112.86 239.97 112.58 239.42 112.32C238.9 112.01 238.35 111.72 237.86 111.33C237.34 110.98 236.89 110.54 236.42 110.11C235.99 109.64 235.54 109.18 235.18 108.64C234.42 107.59 233.77 106.43 233.37 105.15C232.96 103.88 232.73 102.53 232.72 101.15C232.74 99.78 232.96 98.42 233.37 97.15C233.77 95.87 234.43 94.71 235.18 93.66C235.55 93.13 236 92.66 236.42 92.19C236.89 91.76 237.34 91.32 237.86 90.97C238.35 90.58 238.89 90.29 239.41 89.98C239.96 89.72 240.49 89.44 241.06 89.26C243.3 88.42 245.64 88.36 247.71 88.73C249.8 89.11 251.6 90.03 253.02 91.11C254.45 92.2 255.49 93.49 256.21 94.71C256.92 95.94 257.37 97.1 257.57 98.08C257.71 98.56 257.76 99 257.81 99.38C257.83 99.57 257.87 99.75 257.88 99.91C257.89 100.07 257.89 100.22 257.9 100.35C257.91 100.6 257.91 100.8 257.92 100.95C257.93 101.08 257.93 101.15 257.93 101.15Z" fill="#263238"/>
<path d="M322.76 153.22C322.76 153.36 287.59 153.48 244.22 153.48C200.83 153.48 165.67 153.36 165.67 153.22C165.67 153.08 200.83 152.96 244.22 152.96C287.59 152.96 322.76 153.08 322.76 153.22Z" fill="#E0E0E0"/>
<path d="M322.76 350.85C322.76 350.99 287.59 351.11 244.22 351.11C200.83 351.11 165.67 350.99 165.67 350.85C165.67 350.71 200.83 350.59 244.22 350.59C287.59 350.59 322.76 350.71 322.76 350.85Z" fill="#E0E0E0"/>
<path d="M180.85 266.64L183.09 267.9L182.51 268.94L180.23 267.6L180.25 270.16H179.12L179.14 267.6L176.86 268.94L176.28 267.9L178.54 266.64L176.28 265.4L176.86 264.35L179.14 265.69L179.12 263.15H180.25L180.23 265.69L182.51 264.35L183.09 265.4L180.85 266.64Z" fill="white"/>
<path d="M188.75 266.64L190.99 267.9L190.41 268.94L188.13 267.6L188.15 270.16H187.02L187.04 267.6L184.76 268.94L184.18 267.9L186.44 266.64L184.18 265.4L184.76 264.35L187.04 265.69L187.02 263.15H188.15L188.13 265.69L190.41 264.35L190.99 265.4L188.75 266.64Z" fill="white"/>
<path d="M196.65 266.64L198.89 267.9L198.31 268.94L196.03 267.6L196.05 270.16H194.92L194.94 267.6L192.66 268.94L192.08 267.9L194.34 266.64L192.08 265.4L192.66 264.35L194.94 265.69L194.92 263.15H196.05L196.03 265.69L198.31 264.35L198.89 265.4L196.65 266.64Z" fill="white"/>
<path d="M204.55 266.64L206.79 267.9L206.21 268.94L203.93 267.6L203.95 270.16H202.82L202.84 267.6L200.56 268.94L199.98 267.9L202.24 266.64L199.98 265.4L200.56 264.35L202.84 265.69L202.82 263.15H203.95L203.93 265.69L206.21 264.35L206.79 265.4L204.55 266.64Z" fill="white"/>
<path d="M181.3 209.46V212.04H180.7V209.52C180.7 208.58 180.21 208.1 179.36 208.1C178.4 208.1 177.8 208.69 177.8 209.71V212.04H177.2V207.59H177.77V208.41C178.09 207.87 178.69 207.56 179.46 207.56C180.55 207.56 181.3 208.19 181.3 209.46Z" fill="white"/>
<path d="M186.29 209.29V212.05H185.72V211.36C185.45 211.82 184.93 212.1 184.19 212.1C183.18 212.1 182.57 211.58 182.57 210.81C182.57 210.13 183.01 209.55 184.29 209.55H185.7V209.28C185.7 208.52 185.27 208.11 184.44 208.11C183.87 208.11 183.32 208.31 182.96 208.63L182.69 208.18C183.14 207.8 183.8 207.58 184.5 207.58C185.64 207.56 186.29 208.14 186.29 209.29ZM185.69 210.71V209.98H184.3C183.44 209.98 183.16 210.32 183.16 210.77C183.16 211.29 183.57 211.61 184.28 211.61C184.95 211.61 185.45 211.29 185.69 210.71Z" fill="white"/>
<path d="M195.26 209.46V212.04H194.66V209.52C194.66 208.58 194.19 208.1 193.38 208.1C192.47 208.1 191.89 208.69 191.89 209.71V212.04H191.29V209.52C191.29 208.58 190.82 208.1 190 208.1C189.1 208.1 188.51 208.69 188.51 209.71V212.04H187.91V207.59H188.48V208.4C188.79 207.87 189.37 207.55 190.11 207.55C190.85 207.55 191.42 207.86 191.69 208.49C192.01 207.92 192.65 207.55 193.45 207.55C194.55 207.56 195.26 208.19 195.26 209.46Z" fill="white"/>
<path d="M200.78 210.01H197.06C197.13 210.94 197.84 211.56 198.81 211.56C199.35 211.56 199.83 211.37 200.17 210.98L200.51 211.37C200.11 211.84 199.5 212.1 198.79 212.1C197.4 212.1 196.46 211.15 196.46 209.83C196.46 208.51 197.38 207.57 198.63 207.57C199.88 207.57 200.79 208.49 200.79 209.83C200.78 209.87 200.78 209.94 200.78 210.01ZM197.06 209.56H200.21C200.13 208.69 199.5 208.08 198.63 208.08C197.77 208.08 197.13 208.69 197.06 209.56Z" fill="white"/>
<path d="M209.47 209.8C209.47 211.24 208.94 212.08 208.07 212.08C207.52 212.08 207.15 211.74 207.11 211.16C206.77 211.74 206.16 212.08 205.42 212.08C204.22 212.08 203.32 211.17 203.32 209.89C203.32 208.62 204.22 207.72 205.42 207.72C206.15 207.72 206.75 208.04 207.09 208.61V207.76H207.64V210.96C207.64 211.43 207.88 211.6 208.16 211.6C208.68 211.6 209.02 210.95 209.02 209.81C209.02 207.82 207.59 206.5 205.55 206.5C203.48 206.5 202.07 207.89 202.07 209.89C202.07 211.89 203.47 213.3 205.52 213.3C206.03 213.3 206.65 213.18 207.14 212.93L207.28 213.34C206.77 213.6 206.08 213.73 205.51 213.73C203.19 213.73 201.6 212.13 201.6 209.89C201.6 207.64 203.21 206.07 205.55 206.07C207.85 206.07 209.47 207.59 209.47 209.8ZM207.11 209.9C207.11 208.88 206.42 208.22 205.5 208.22C204.56 208.22 203.89 208.89 203.89 209.9C203.89 210.91 204.57 211.6 205.5 211.6C206.41 211.59 207.11 210.93 207.11 209.9Z" fill="white"/>
<path d="M218.08 209.46V212.04H217.48V209.52C217.48 208.58 217.01 208.1 216.2 208.1C215.29 208.1 214.71 208.69 214.71 209.71V212.04H214.11V209.52C214.11 208.58 213.64 208.1 212.82 208.1C211.92 208.1 211.33 208.69 211.33 209.71V212.04H210.73V207.59H211.3V208.4C211.61 207.87 212.19 207.55 212.93 207.55C213.67 207.55 214.24 207.86 214.51 208.49C214.83 207.92 215.47 207.55 216.27 207.55C217.37 207.56 218.08 208.19 218.08 209.46Z" fill="white"/>
<path d="M223.07 209.29V212.05H222.5V211.36C222.23 211.82 221.71 212.1 220.97 212.1C219.96 212.1 219.35 211.58 219.35 210.81C219.35 210.13 219.79 209.55 221.07 209.55H222.48V209.28C222.48 208.52 222.05 208.11 221.22 208.11C220.65 208.11 220.1 208.31 219.74 208.63L219.47 208.18C219.92 207.8 220.58 207.58 221.28 207.58C222.42 207.56 223.07 208.14 223.07 209.29ZM222.47 210.71V209.98H221.08C220.22 209.98 219.94 210.32 219.94 210.77C219.94 211.29 220.35 211.61 221.06 211.61C221.73 211.61 222.23 211.29 222.47 210.71Z" fill="white"/>
<path d="M224.57 206.19C224.57 205.96 224.76 205.77 225.01 205.77C225.26 205.77 225.45 205.96 225.45 206.18C225.45 206.43 225.26 206.62 225.01 206.62C224.76 206.62 224.57 206.43 224.57 206.19ZM224.7 207.6H225.3V212.05H224.7V207.6Z" fill="white"/>
<path d="M226.97 205.77H227.57V212.04H226.97V205.77Z" fill="white"/>
<path d="M228.86 211.62C228.86 211.36 229.06 211.16 229.31 211.16C229.56 211.16 229.77 211.35 229.77 211.62C229.77 211.88 229.56 212.09 229.31 212.09C229.06 212.09 228.86 211.88 228.86 211.62Z" fill="white"/>
<path d="M230.47 209.82C230.47 208.49 231.43 207.56 232.76 207.56C233.51 207.56 234.15 207.86 234.5 208.44L234.05 208.74C233.75 208.29 233.27 208.08 232.76 208.08C231.79 208.08 231.08 208.77 231.08 209.81C231.08 210.86 231.79 211.54 232.76 211.54C233.28 211.54 233.75 211.34 234.05 210.89L234.5 211.19C234.14 211.76 233.51 212.07 232.76 212.07C231.43 212.09 230.47 211.15 230.47 209.82Z" fill="white"/>
<path d="M235.15 209.82C235.15 208.5 236.11 207.56 237.42 207.56C238.72 207.56 239.68 208.5 239.68 209.82C239.68 211.14 238.72 212.09 237.42 212.09C236.11 212.09 235.15 211.14 235.15 209.82ZM239.06 209.82C239.06 208.78 238.36 208.09 237.41 208.09C236.46 208.09 235.75 208.78 235.75 209.82C235.75 210.86 236.46 211.55 237.41 211.55C238.36 211.55 239.06 210.86 239.06 209.82Z" fill="white"/>
<path d="M248.24 209.46V212.04H247.64V209.52C247.64 208.58 247.17 208.1 246.36 208.1C245.45 208.1 244.87 208.69 244.87 209.71V212.04H244.27V209.52C244.27 208.58 243.8 208.1 242.98 208.1C242.08 208.1 241.49 208.69 241.49 209.71V212.04H240.89V207.59H241.46V208.4C241.77 207.87 242.35 207.55 243.09 207.55C243.83 207.55 244.4 207.86 244.67 208.49C244.99 207.92 245.63 207.55 246.43 207.55C247.53 207.56 248.24 208.19 248.24 209.46Z" fill="white"/>
<path d="M171.89 77.79C171.77 77.79 171.66 77.75 171.56 77.67L166.86 73.55C166.75 73.45 166.69 73.32 166.69 73.17C166.69 73.03 166.76 72.89 166.87 72.8L171.57 68.9C171.78 68.73 172.09 68.75 172.27 68.96C172.44 69.17 172.42 69.48 172.21 69.66L167.96 73.2L172.22 76.94C172.43 77.12 172.45 77.43 172.27 77.64C172.17 77.73 172.03 77.79 171.89 77.79Z" fill="#263238"/>
<path d="M308.28 73.28C308.28 74.66 307.16 75.79 305.77 75.79C304.39 75.79 303.26 74.67 303.26 73.28C303.26 71.9 304.38 70.77 305.77 70.77C307.16 70.77 308.28 71.89 308.28 73.28Z" fill="#263238"/>
<path d="M315.52 73.28C315.52 74.66 314.4 75.79 313.01 75.79C311.63 75.79 310.5 74.67 310.5 73.28C310.5 71.9 311.62 70.77 313.01 70.77C314.4 70.77 315.52 71.89 315.52 73.28Z" fill="#263238"/>
<path d="M322.76 73.28C322.76 74.66 321.64 75.79 320.25 75.79C318.87 75.79 317.74 74.67 317.74 73.28C317.74 71.9 318.86 70.77 320.25 70.77C321.64 70.77 322.76 71.89 322.76 73.28Z" fill="#263238"/>
<path d="M443.48 164.81H383.61C378.4 164.81 374.17 169.04 374.17 174.25V189.15C374.17 194.36 378.4 198.59 383.61 198.59H384.23V207.1L393.82 198.59H443.48C448.69 198.59 452.92 194.36 452.92 189.15V174.25C452.92 169.03 448.69 164.81 443.48 164.81Z" fill="white"/>
<path d="M443.48 164.81C443.48 164.81 443.64 164.8 443.95 164.81C444.26 164.8 444.73 164.85 445.33 164.95C445.63 165.01 445.96 165.1 446.33 165.19C446.68 165.33 447.09 165.43 447.49 165.64C448.31 166 449.21 166.56 450.06 167.37C450.91 168.18 451.72 169.24 452.29 170.57C452.87 171.89 453.09 173.49 453.05 175.15C453.06 178.48 453.07 182.28 453.09 186.5C453.08 187.56 453.13 188.63 453.07 189.75C453 190.87 452.74 192.01 452.26 193.09C451.31 195.24 449.47 197.13 447.09 198.08C445.91 198.56 444.6 198.8 443.29 198.79C442 198.79 440.68 198.79 439.34 198.8C436.67 198.8 433.91 198.81 431.08 198.81C419.74 198.82 407.18 198.83 393.83 198.84L394 198.78C390.94 201.5 387.7 204.38 384.42 207.3L383.99 207.68V207.1C383.99 206.07 383.99 204.96 383.99 203.84C383.99 202.04 383.99 200.25 383.99 198.58L384.25 198.84C382.41 198.91 380.49 198.51 378.88 197.59C377.26 196.68 375.94 195.31 375.07 193.7C374.65 192.89 374.34 192.03 374.14 191.14C373.97 190.26 373.91 189.33 373.93 188.47C373.93 186.72 373.93 184.99 373.93 183.27C373.93 181.55 373.93 179.85 373.93 178.16C373.93 177.32 373.93 176.48 373.93 175.64C373.93 174.81 373.92 173.98 374 173.13C374.38 169.75 376.63 166.76 379.58 165.45C381.03 164.74 382.68 164.53 384.21 164.56C385.74 164.56 387.25 164.56 388.74 164.57C391.72 164.57 394.61 164.58 397.4 164.58C402.98 164.59 408.17 164.6 412.91 164.61C422.37 164.64 430 164.67 435.3 164.69C437.92 164.71 439.96 164.73 441.37 164.74C442.05 164.75 442.57 164.76 442.95 164.77C443.3 164.79 443.48 164.81 443.48 164.81C443.48 164.81 443.3 164.83 442.94 164.84C442.57 164.85 442.04 164.85 441.36 164.87C439.95 164.88 437.91 164.9 435.29 164.92C430 164.94 422.36 164.97 412.9 165C408.16 165.01 402.97 165.02 397.39 165.03C394.6 165.03 391.71 165.04 388.73 165.04C387.24 165.04 385.73 165.04 384.2 165.05C382.68 165.03 381.16 165.22 379.77 165.9C376.96 167.15 374.83 170 374.48 173.2C374.4 173.99 374.41 174.82 374.42 175.66C374.42 176.49 374.42 177.33 374.42 178.18C374.42 179.87 374.42 181.57 374.42 183.29C374.42 185.01 374.42 186.74 374.42 188.49C374.4 189.38 374.46 190.21 374.62 191.06C374.81 191.9 375.1 192.71 375.5 193.48C376.32 195 377.58 196.3 379.11 197.16C380.65 198.03 382.41 198.4 384.23 198.34L384.49 198.33V198.6C384.49 200.27 384.49 202.06 384.49 203.86C384.49 204.98 384.49 206.09 384.49 207.12L384.06 206.93C387.35 204.01 390.59 201.13 393.65 198.42L393.72 198.35H393.82C407.17 198.36 419.73 198.37 431.07 198.38C433.9 198.38 436.66 198.39 439.33 198.39C441.99 198.31 444.65 198.72 446.93 197.73C449.21 196.82 450.99 195.02 451.91 192.96C452.38 191.93 452.64 190.83 452.71 189.75C452.77 188.67 452.73 187.57 452.75 186.52C452.76 182.3 452.78 178.5 452.79 175.17C452.85 173.51 452.64 171.98 452.09 170.68C451.55 169.38 450.77 168.33 449.94 167.53C449.11 166.72 448.24 166.16 447.43 165.79C447.04 165.58 446.64 165.47 446.29 165.33C445.93 165.23 445.6 165.14 445.31 165.07C444.12 164.8 443.47 164.85 443.48 164.81Z" fill="#263238"/>
<path d="M392.62 181.11L394.54 182.14L393.45 183.95L391.47 182.77L391.53 184.93H389.39L389.45 182.77L387.47 183.95L386.4 182.14L388.32 181.11L386.4 180.06L387.47 178.25L389.45 179.45L389.39 177.27H391.53L391.47 179.45L393.45 178.25L394.54 180.06L392.62 181.11Z" fill="#E0E0E0"/>
<path d="M401.52 181.11L403.44 182.14L402.35 183.95L400.37 182.77L400.43 184.93H398.29L398.35 182.77L396.37 183.95L395.3 182.14L397.22 181.11L395.3 180.06L396.37 178.25L398.35 179.45L398.29 177.27H400.43L400.37 179.45L402.35 178.25L403.44 180.06L401.52 181.11Z" fill="#E0E0E0"/>
<path d="M410.42 181.11L412.34 182.14L411.25 183.95L409.27 182.77L409.33 184.93H407.19L407.25 182.77L405.27 183.95L404.2 182.14L406.12 181.11L404.2 180.06L405.27 178.25L407.25 179.45L407.19 177.27H409.33L409.27 179.45L411.25 178.25L412.34 180.06L410.42 181.11Z" fill="#E0E0E0"/>
<path d="M419.32 181.11L421.24 182.14L420.15 183.95L418.17 182.77L418.23 184.93H416.09L416.15 182.77L414.17 183.95L413.1 182.14L415.02 181.11L413.1 180.06L414.17 178.25L416.15 179.45L416.09 177.27H418.23L418.17 179.45L420.15 178.25L421.24 180.06L419.32 181.11Z" fill="#E0E0E0"/>
<path d="M428.22 181.11L430.14 182.14L429.05 183.95L427.07 182.77L427.13 184.93H424.99L425.05 182.77L423.07 183.95L422 182.14L423.92 181.11L422 180.06L423.07 178.25L425.05 179.45L424.99 177.27H427.13L427.07 179.45L429.05 178.25L430.14 180.06L428.22 181.11Z" fill="#E0E0E0"/>
<path d="M437.12 181.11L439.04 182.14L437.95 183.95L435.97 182.77L436.03 184.93H433.89L433.95 182.77L431.97 183.95L430.9 182.14L432.82 181.11L430.9 180.06L431.97 178.25L433.95 179.45L433.89 177.27H436.03L435.97 179.45L437.95 178.25L439.04 180.06L437.12 181.11Z" fill="#E0E0E0"/>
<path d="M52.1 219.63C63.89 225.74 72.94 236.26 79.44 247.84C85.94 259.42 90.13 272.13 94.29 284.75L97.92 349.82C84.2 326.47 73.18 299.03 70.2 272.11C73.24 271.84 76.29 271.57 79.33 271.3C73.21 270.37 68.07 265.93 64.8 260.67C61.53 255.41 59.85 249.34 58.2 243.37C61.91 243.92 65.63 244.47 69.34 245.03C60.63 239.2 54.3 229.89 52.1 219.63Z" fill="#455A64"/>
<g opacity="0.3">
<path d="M52.1 219.63C63.89 225.74 72.94 236.26 79.44 247.84C85.94 259.42 90.13 272.13 94.29 284.75L97.92 349.82C84.2 326.47 73.18 299.03 70.2 272.11C73.24 271.84 76.29 271.57 79.33 271.3C73.21 270.37 68.07 265.93 64.8 260.67C61.53 255.41 59.85 249.34 58.2 243.37C61.91 243.92 65.63 244.47 69.34 245.03C60.63 239.2 54.3 229.89 52.1 219.63Z" fill="black"/>
</g>
<path d="M99.95 365.07C99.95 365.07 129.74 329.42 129.39 295.38H117.36C117.36 295.38 130.43 286.78 129.4 281.97C128.37 277.16 128.02 258.94 128.02 258.94L117.02 261.69C117.02 261.69 125.27 257.56 126.3 251.03C127.33 244.5 123.89 214.24 123.89 214.24C123.89 214.24 110.48 228.34 106.36 242.78C102.23 257.22 91.41 274.07 94.58 318.07C97.77 362.08 99.95 365.07 99.95 365.07Z" fill="#455A64"/>
<path d="M84.85 368.44C84.85 368.44 52.58 346.94 45.41 319.5L55.08 316.87C55.08 316.87 42.69 312.82 42.47 308.72C42.25 304.62 38.54 289.9 38.54 289.9L47.99 289.7C47.99 289.7 40.45 288.19 38.2 283.16C35.94 278.13 32.09 253.06 32.09 253.06C32.09 253.06 45.95 261.46 52.43 272.17C58.91 282.88 71.3 294.05 78.37 330.13C85.43 366.2 84.85 368.44 84.85 368.44Z" fill="#455A64"/>
<path d="M115.76 245.33C115.77 245.33 115.75 245.46 115.71 245.71C115.66 245.99 115.59 246.35 115.5 246.82C115.3 247.82 115.02 249.25 114.65 251.07C114.27 252.91 113.82 255.17 113.33 257.8C112.83 260.43 112.24 263.41 111.66 266.73C110.43 273.35 109.13 281.25 107.77 290.04C106.45 298.84 105.13 308.53 103.94 318.72C102.77 328.92 101.85 338.66 101.13 347.53C100.45 356.4 99.91 364.4 99.6 371.12C99.41 374.48 99.3 377.52 99.19 380.19C99.07 382.86 98.99 385.16 98.94 387.04C98.88 388.9 98.83 390.35 98.79 391.37C98.77 391.84 98.75 392.22 98.74 392.5C98.73 392.75 98.71 392.88 98.7 392.88C98.69 392.88 98.69 392.75 98.68 392.5C98.68 392.22 98.68 391.85 98.68 391.37C98.69 390.35 98.71 388.89 98.73 387.04C98.75 385.16 98.8 382.86 98.89 380.18C98.97 377.51 99.05 374.46 99.22 371.1C99.49 364.37 99.98 356.37 100.64 347.49C101.34 338.61 102.25 328.87 103.42 318.66C104.61 308.46 105.95 298.76 107.29 289.96C108.68 281.17 110.02 273.26 111.29 266.65C111.89 263.34 112.51 260.36 113.04 257.73C113.56 255.11 114.04 252.85 114.45 251.02C114.85 249.2 115.17 247.78 115.39 246.79C115.5 246.33 115.58 245.96 115.65 245.69C115.72 245.45 115.75 245.33 115.76 245.33Z" fill="#263238"/>
<path d="M104.09 386.9C104.09 386.9 131.35 355.97 139.81 337.27L133.42 334.54C138.05 335.3 142.8 333.31 146.39 330.29C149.98 327.27 152.62 323.29 155.2 319.37L146.78 317.95C154.43 315.8 161.18 310.58 165.17 303.7C155.24 305.33 146.25 310.79 138.85 317.61C132.85 323.13 127.77 329.54 122.9 336.09C120.52 339.29 118.44 342.69 116.7 346.28C112.13 355.76 104.07 375.55 104.09 386.9Z" fill="#455A64"/>
<path d="M44.98 271.06C44.99 271.06 45.05 271.15 45.15 271.35C45.27 271.57 45.42 271.86 45.62 272.22C46.04 273.02 46.62 274.16 47.37 275.61C48.89 278.55 51.01 282.85 53.56 288.19C56.12 293.53 59.05 299.94 62.18 307.12C65.29 314.3 68.59 322.26 71.86 330.68C75.11 339.11 78.02 347.22 80.55 354.63C83.06 362.05 85.2 368.76 86.9 374.44C88.61 380.11 89.93 384.72 90.78 387.91C91.2 389.48 91.53 390.72 91.76 391.59C91.86 391.99 91.94 392.31 92 392.55C92.05 392.77 92.07 392.88 92.07 392.88C92.07 392.88 92.02 392.77 91.95 392.56C91.88 392.32 91.78 392.01 91.66 391.61C91.4 390.74 91.04 389.52 90.58 387.95C89.67 384.77 88.29 380.18 86.54 374.53C84.8 368.88 82.62 362.17 80.09 354.77C77.53 347.38 74.61 339.28 71.37 330.86C68.1 322.44 64.82 314.49 61.74 307.3C58.63 300.12 55.74 293.7 53.22 288.34C50.71 282.98 48.64 278.66 47.18 275.69C46.47 274.22 45.91 273.07 45.52 272.26C45.34 271.89 45.21 271.59 45.1 271.36C45.02 271.17 44.97 271.07 44.98 271.06Z" fill="#263238"/>
<path d="M101.77 400.16C101.75 400.16 101.76 399.96 101.79 399.58C101.83 399.14 101.89 398.6 101.96 397.92C102.03 397.2 102.14 396.32 102.3 395.31C102.46 394.29 102.61 393.13 102.86 391.86C103.3 389.31 103.97 386.3 104.84 382.99C105.74 379.69 106.86 376.09 108.25 372.39C109.66 368.7 111.19 365.26 112.7 362.18C114.23 359.12 115.73 356.42 117.08 354.22C117.73 353.1 118.38 352.13 118.94 351.27C119.49 350.4 119.99 349.67 120.41 349.09C120.8 348.54 121.12 348.09 121.38 347.74C121.61 347.43 121.73 347.28 121.75 347.29C121.76 347.3 121.67 347.48 121.47 347.8C121.24 348.17 120.94 348.63 120.58 349.21C120.19 349.81 119.71 350.56 119.18 351.44C118.65 352.32 118.02 353.3 117.39 354.43C116.08 356.65 114.63 359.36 113.13 362.42C111.65 365.49 110.14 368.92 108.74 372.6C107.36 376.28 106.23 379.86 105.31 383.14C104.42 386.43 103.72 389.42 103.23 391.95C102.96 393.21 102.78 394.36 102.6 395.37C102.41 396.38 102.28 397.25 102.18 397.96C102.07 398.63 101.99 399.17 101.92 399.6C101.83 399.96 101.79 400.16 101.77 400.16Z" fill="#263238"/>
<path d="M125.46 392.88H65.8V405.05H125.46V392.88Z" fill="#0D9488"/>
<path d="M119.78 405.05L113.33 445.99H77.28L71.26 405.05H119.78Z" fill="#0D9488"/>
<path d="M69.46 405.05C69.46 404.91 80.75 404.79 94.67 404.79C108.59 404.79 119.88 404.91 119.88 405.05C119.88 405.19 108.6 405.31 94.67 405.31C80.75 405.31 69.46 405.2 69.46 405.05Z" fill="#263238"/>
<path d="M367.18 400.4C367.18 400.4 438.89 363.04 454.44 383.64C470 404.24 438.83 420.45 432.8 424.09C426.77 427.73 365.87 448.41 365.87 448.41L349.8 431.27L367.18 400.4Z" fill="#263238"/>
<path d="M395.46 420.39L424.05 435.79L450.17 441.45C452.05 441.86 453.2 443.77 452.66 445.63C452.36 446.67 451.59 447.49 450.57 447.84C444.09 450.1 420.19 458.29 418.16 457.04C415.81 455.6 386.92 442.8 386.92 442.8L395.46 420.39Z" fill="#0D9488"/>
<g opacity="0.6">
<path d="M452.67 445.62L416.22 456.04L417.45 456.66C418.51 457.2 419.73 457.35 420.88 457.08C423.97 456.34 432.48 454.12 450.54 447.92C451.59 447.56 452.39 446.69 452.67 445.62Z" fill="white"/>
</g>
<g opacity="0.6">
<path d="M409.91 445.35C410.78 444.88 412 445.2 412.5 446.05C413 446.9 412.69 448.14 411.83 448.63C410.97 449.11 409.5 448.77 409.09 447.87C408.68 446.97 409.13 445.53 410.09 445.27" fill="white"/>
</g>
<path d="M436.66 445.79C436.82 445.67 435.64 444.24 435.7 442.11C435.7 439.97 436.92 438.58 436.76 438.45C436.7 438.39 436.29 438.64 435.85 439.27C435.41 439.89 435.01 440.92 434.99 442.1C434.98 443.28 435.35 444.32 435.77 444.95C436.19 445.59 436.6 445.85 436.66 445.79Z" fill="#263238"/>
<path d="M441.58 445.7C441.78 445.63 441.31 444.22 441.64 442.5C441.94 440.78 442.87 439.63 442.71 439.49C442.61 439.33 441.28 440.41 440.93 442.37C440.57 444.34 441.43 445.82 441.58 445.7Z" fill="#263238"/>
<path d="M429.74 447.1C429.95 447.03 429.22 444.87 429.5 442.16C429.74 439.44 430.88 437.46 430.69 437.36C430.56 437.23 429.06 439.18 428.79 442.09C428.49 445 429.59 447.2 429.74 447.1Z" fill="#263238"/>
<path d="M420.66 443.14C420.87 443.15 421.02 441.21 422 439.09C422.96 436.96 424.32 435.58 424.18 435.42C424.08 435.27 422.39 436.5 421.35 438.79C420.3 441.08 420.47 443.17 420.66 443.14Z" fill="#263238"/>
<path d="M412.15 438.84C412.36 438.84 412.22 436.74 413.44 434.59C414.61 432.42 416.47 431.43 416.36 431.24C416.32 431.16 415.8 431.29 415.07 431.76C414.35 432.22 413.46 433.08 412.81 434.24C412.17 435.4 411.92 436.61 411.91 437.47C411.9 438.33 412.06 438.85 412.15 438.84Z" fill="#263238"/>
<path d="M411.79 433.82C411.81 433.78 411.45 433.52 410.72 433.22C409.99 432.93 408.85 432.61 407.41 432.63C406.71 432.67 405.86 432.64 405.06 433.26C404.66 433.56 404.43 434.2 404.64 434.74C404.84 435.27 405.26 435.62 405.71 435.86C407.56 436.77 410.14 436.09 411.46 434.16C412.74 432.2 412.52 429.72 411.35 428.09C411.03 427.7 410.59 427.32 409.99 427.3C409.38 427.27 408.89 427.76 408.75 428.21C408.44 429.13 408.66 429.93 408.77 430.62C409.06 432.03 409.59 433.07 410.01 433.74C410.43 434.41 410.75 434.72 410.78 434.69C410.91 434.63 409.73 433.23 409.26 430.53C409.17 429.86 409.04 429.08 409.29 428.43C409.41 428.11 409.67 427.91 409.96 427.93C410.25 427.94 410.58 428.18 410.83 428.5C411.77 429.86 411.98 432.12 410.86 433.76C409.77 435.4 407.5 435.99 406 435.27C405.64 435.09 405.33 434.82 405.22 434.52C405.11 434.23 405.2 433.91 405.44 433.7C405.95 433.25 406.75 433.18 407.42 433.13C410.17 433 411.76 433.96 411.79 433.82Z" fill="#263238"/>
<path d="M405.71 424.05C405.71 424.05 338.13 383.11 329 378.03C321.15 373.67 296.35 364.01 287.62 387.78C278.88 411.55 325.93 446.62 325.93 446.62L365.87 448.41L379.2 443.32L394.34 447.98L405.71 424.05Z" fill="#263238"/>
<path d="M358.2 449.25L327.91 460.96L306.62 477.13C305.09 478.3 302.89 477.92 301.83 476.31C301.24 475.41 301.11 474.29 301.51 473.28C304.01 466.89 313.33 443.41 315.59 442.67C318.21 441.82 346.72 428.2 346.72 428.2L358.2 449.25Z" fill="#0D9488"/>
<g opacity="0.6">
<path d="M301.83 476.3L317.61 441.83L316.34 442.36C315.24 442.81 314.34 443.64 313.79 444.7C312.34 447.53 308.5 455.44 301.46 473.19C301.06 474.21 301.2 475.39 301.83 476.3Z" fill="white"/>
</g>
<g opacity="0.6">
<path d="M329.84 443.99C329.63 444.96 328.59 445.67 327.62 445.5C326.65 445.33 325.91 444.28 326.1 443.31C326.29 442.34 327.51 441.44 328.46 441.72C329.41 442 330.21 443.27 329.79 444.17" fill="white"/>
</g>
<path d="M312.11 464.02C312.1 464.22 313.95 464.25 315.53 465.69C317.16 467.08 317.42 468.91 317.62 468.87C317.7 468.87 317.78 468.39 317.59 467.65C317.41 466.91 316.89 465.94 316 465.16C315.11 464.38 314.08 463.99 313.33 463.9C312.57 463.8 312.11 463.94 312.11 464.02Z" fill="#263238"/>
<path d="M308.98 467.82C308.91 468.02 310.28 468.58 311.37 469.95C312.49 471.29 312.75 472.75 312.96 472.72C313.15 472.74 313.19 471.04 311.92 469.5C310.67 467.94 308.99 467.63 308.98 467.82Z" fill="#263238"/>
<path d="M315.62 457.92C315.54 458.12 317.65 458.97 319.53 460.95C321.44 462.9 322.2 465.05 322.41 464.97C322.59 464.95 322.09 462.55 320.05 460.45C318.03 458.33 315.64 457.74 315.62 457.92Z" fill="#263238"/>
<path d="M324.53 453.59C324.38 453.74 325.76 455.12 326.73 457.24C327.73 459.35 327.89 461.29 328.1 461.28C328.28 461.3 328.44 459.21 327.38 456.94C326.33 454.66 324.63 453.43 324.53 453.59Z" fill="#263238"/>
<path d="M333.33 449.93C333.2 450.09 334.88 451.35 335.72 453.67C336.61 455.97 336.15 458.03 336.36 458.06C336.44 458.08 336.68 457.6 336.8 456.74C336.92 455.89 336.85 454.66 336.39 453.42C335.92 452.18 335.17 451.2 334.53 450.64C333.88 450.06 333.38 449.85 333.33 449.93Z" fill="#263238"/>
<path d="M337.38 452.92C337.4 452.96 337.83 452.86 338.53 452.49C339.23 452.12 340.21 451.47 341.13 450.36C341.55 449.81 342.13 449.17 342.18 448.17C342.21 447.67 341.87 447.08 341.33 446.89C340.8 446.7 340.26 446.79 339.78 446.98C337.89 447.8 336.72 450.19 337.33 452.45C337.98 454.7 340.02 456.14 342.01 456.31C342.51 456.32 343.09 456.23 343.5 455.79C343.92 455.35 343.87 454.66 343.62 454.26C343.12 453.42 342.37 453.07 341.78 452.71C340.52 452.02 339.38 451.74 338.6 451.63C337.81 451.51 337.37 451.56 337.37 451.6C337.33 451.74 339.16 451.75 341.52 453.15C342.08 453.52 342.77 453.93 343.09 454.54C343.25 454.84 343.24 455.16 343.03 455.38C342.84 455.59 342.43 455.69 342.03 455.66C340.39 455.5 338.53 454.17 338.01 452.26C337.48 450.36 338.5 448.26 340.02 447.59C340.39 447.43 340.8 447.38 341.1 447.48C341.4 447.59 341.58 447.86 341.58 448.18C341.59 448.86 341.12 449.51 340.72 450.05C339.06 452.22 337.3 452.8 337.38 452.92Z" fill="#263238"/>
<path d="M345.04 456.81C345.89 456.37 380.09 442.44 380.09 442.44L346.09 425.6L325.6 436.21L345.04 456.81Z" fill="#263238"/>
<path d="M302.75 415.64C302.75 415.64 302.91 415.68 303.22 415.78C303.55 415.89 303.99 416.04 304.57 416.23C305.78 416.65 307.52 417.25 309.75 418.02C314.26 419.6 320.75 421.88 328.75 424.69C344.8 430.36 366.94 438.17 391.39 446.8C392.41 447.11 393.42 447.42 394.43 447.73L394.12 447.87C398.11 439.47 401.95 431.4 405.5 423.94L405.59 424.26C389.63 414.5 375.92 406.11 366.19 400.16C361.36 397.18 357.51 394.81 354.85 393.17C353.55 392.36 352.54 391.73 351.84 391.29C351.51 391.08 351.26 390.92 351.07 390.8C350.9 390.69 350.81 390.63 350.82 390.62C350.82 390.61 350.92 390.66 351.1 390.76C351.3 390.87 351.56 391.02 351.89 391.22C352.6 391.64 353.63 392.25 354.95 393.03C357.63 394.64 361.5 396.97 366.37 399.9C376.13 405.82 389.87 414.14 405.87 423.84L406.06 423.96L405.96 424.16C402.42 431.62 398.59 439.7 394.6 448.1L394.5 448.3L394.28 448.23C393.27 447.92 392.26 447.61 391.24 447.29C389.68 446.84 388.17 446.27 386.66 445.74C385.15 445.2 383.65 444.67 382.16 444.14C379.18 443.08 376.25 442.04 373.37 441.01C367.61 438.96 362.05 436.98 356.76 435.09C346.18 431.31 336.65 427.9 328.64 425.03C320.66 422.15 314.19 419.83 309.69 418.21C307.47 417.4 305.75 416.77 304.55 416.33C303.98 416.12 303.54 415.95 303.22 415.83C302.9 415.72 302.75 415.64 302.75 415.64Z" fill="#455A64"/>
<path d="M345.04 456.81C345.01 456.83 344.56 456.4 343.77 455.6C342.92 454.73 341.8 453.57 340.44 452.17C337.65 449.26 333.82 445.21 329.61 440.72C328.13 439.14 326.7 437.61 325.38 436.19L325.15 435.94L325.45 435.79C329.59 433.78 333.18 432.04 335.83 430.76C337.07 430.18 338.08 429.71 338.86 429.34C339.57 429.02 339.96 428.86 339.98 428.88C339.99 428.91 339.63 429.12 338.94 429.49C338.18 429.89 337.18 430.41 335.97 431.04C333.34 432.37 329.78 434.16 325.67 436.24L325.74 435.85C327.07 437.27 328.5 438.79 329.99 440.37C334.2 444.86 337.98 448.95 340.71 451.92C342.02 453.37 343.1 454.56 343.91 455.46C344.67 456.3 345.07 456.78 345.04 456.81Z" fill="#455A64"/>
<path d="M414.04 390.49C414.1 390.62 405.68 394.28 395.24 398.66C384.8 403.04 376.3 406.48 376.24 406.35C376.18 406.22 384.6 402.56 395.04 398.18C405.48 393.8 413.98 390.35 414.04 390.49Z" fill="#455A64"/>
<path d="M362.03 287.45C361.32 287.45 336.65 287.21 331.67 292.19C326.69 297.17 316.35 373.44 316.35 373.44C321.67 374.45 325.12 376.41 328.36 378.02L370.29 402.47L388.44 393.04C390.95 391.65 391.57 388.32 389.73 386.12L413.88 298.83C413.88 298.83 409.24 295.04 402.12 292.43C395 289.83 362.03 287.45 362.03 287.45Z" fill="#455A64"/>
<path d="M405.71 295.55C405.71 295.55 413.13 297.19 415.97 301.77C422.63 312.5 443.09 350.61 446.53 359.74C450.17 369.41 446.26 374.91 443.63 378.99C440.8 383.38 425.25 383.37 418.2 375.83C415.18 372.6 398.34 357.32 398.34 357.32L405.71 295.55Z" fill="#455A64"/>
<path d="M414.15 309.7C414.17 309.71 414.07 309.97 413.87 310.45C413.65 310.98 413.35 311.68 412.97 312.57C412.22 314.42 411.16 317.11 409.96 320.47C407.54 327.19 404.58 336.61 401.44 347.05C398.36 357.49 395.58 366.94 393.54 373.84C392.52 377.27 391.68 380.03 391.07 381.94C390.77 382.85 390.53 383.58 390.35 384.13C390.18 384.63 390.08 384.89 390.06 384.88C390.04 384.87 390.11 384.61 390.24 384.1C390.4 383.55 390.61 382.81 390.87 381.89C391.43 379.92 392.21 377.15 393.18 373.75C395.13 366.87 397.8 357.37 400.93 346.91C404.07 336.47 407.09 327.06 409.6 320.35C410.84 317 411.95 314.32 412.77 312.49C413.18 311.62 413.51 310.93 413.76 310.41C414 309.94 414.13 309.69 414.15 309.7Z" fill="#263238"/>
<path d="M332.82 291.33C332.82 291.33 325.03 295.76 322.18 298.37C319.33 300.98 289.88 342.92 286.12 355.98C283.94 363.56 292.28 379.24 301.28 378.48C313.05 377.49 357.2 360.55 357.2 360.55L347.29 339.02L322.33 343.02L340.48 324.78L333.7 290.87" fill="#455A64"/>
<path d="M437.56 355.27C437.55 355.28 437.4 355.19 437.11 355C436.78 354.77 436.38 354.49 435.89 354.16C434.78 353.36 433.28 352.29 431.46 350.98C427.74 348.27 422.61 344.5 416.98 340.31C415.69 339.35 414.43 338.41 413.21 337.5L413.57 337.45C409.97 342.14 406.78 346.22 404.45 349.11C402.13 352 400.65 353.69 400.56 353.6C401.21 352.76 402.25 351.41 404.19 348.9C406.49 345.89 409.61 341.79 413.17 337.13L413.32 336.93L413.52 337.08C414.74 337.98 416 338.92 417.29 339.88C422.93 344.07 428.02 347.88 431.68 350.67C433.46 352.04 434.92 353.16 436.01 353.99C436.48 354.36 436.86 354.67 437.17 354.91C437.44 355.14 437.57 355.26 437.56 355.27Z" fill="#263238"/>
<path d="M367.67 331.37L347.87 340.24L355.77 357.41L368.15 349.23L367.67 331.37Z" fill="#B2655F"/>
<path d="M386.38 333.05L399.63 324.08C400.1 323.76 400.66 323.62 401.22 323.67L418.55 325.15C419.25 325.21 419.79 325.8 419.76 326.51C419.73 327.2 419.57 327.98 419.04 328.35C417.99 329.08 390.91 347.88 390.91 347.88L369.94 344.55L386.38 333.05Z" fill="#E0E0E0"/>
<path d="M367.67 331.37C367.67 331.37 374.82 326.07 376.5 325.78C378.18 325.49 385.74 325.52 385.74 325.52L392.09 329.15L388.16 331.82C385.43 331.22 384.64 330.15 384.64 330.15L380.25 330.44L367.67 331.37Z" fill="#B2655F"/>
<path d="M375.71 329.07L387.02 332.95L403.26 335.24C403.26 335.24 403.36 338.53 400.03 338.89C398.07 339.1 394.64 339.34 394.64 339.34C394.64 339.34 393.81 342.33 391.29 342.99C391.29 342.99 390.19 345.1 388.84 345.88C388.68 345.97 388.51 346.05 388.34 346.1C386.78 346.55 383.67 350.78 381.59 351.35C379.51 351.92 368.15 349.24 368.15 349.24L367.67 331.37L375.71 329.07Z" fill="#B2655F"/>
<path d="M379.04 338.29C379.05 338.24 379.93 338.48 381.37 338.77C382.81 339.06 384.82 339.37 387.05 339.52C389.29 339.66 391.32 339.62 392.78 339.51C394.24 339.41 395.15 339.28 395.15 339.33C395.15 339.35 394.93 339.4 394.53 339.48C394.12 339.56 393.53 339.65 392.8 339.73C391.33 339.89 389.28 339.98 387.03 339.83C384.78 339.68 382.76 339.34 381.32 338.99C380.6 338.82 380.03 338.66 379.63 338.53C379.25 338.39 379.04 338.31 379.04 338.29Z" fill="#8E4842"/>
<path d="M381.22 342.92C381.25 342.93 381.27 343.35 381.1 344.03C381.01 344.36 380.85 344.78 380.49 345.13C380.14 345.48 379.57 345.65 379.03 345.61C378.48 345.58 377.98 345.4 377.57 345.19C377.16 344.98 376.81 344.77 376.52 344.6C375.94 344.26 375.54 344.12 375.55 344.08C375.56 344.04 375.99 344.11 376.62 344.41C377.25 344.68 378.05 345.25 379.04 345.31C379.53 345.34 379.99 345.2 380.3 344.92C380.61 344.64 380.78 344.28 380.89 343.97C381.11 343.34 381.17 342.91 381.22 342.92Z" fill="#8E4842"/>
<path d="M389.57 344.03C389.58 344.07 389.11 344.2 388.34 344.34C387.57 344.48 386.49 344.63 385.29 344.71C384.09 344.79 383.01 344.79 382.22 344.75C381.44 344.71 380.95 344.65 380.95 344.61C380.95 344.52 382.89 344.57 385.26 344.41C387.64 344.26 389.55 343.94 389.57 344.03Z" fill="#8E4842"/>
<path d="M381 348.72C381.05 348.78 380.28 349.36 379.14 349.53C378 349.71 377.09 349.39 377.12 349.32C377.14 349.23 378.02 349.4 379.09 349.22C380.16 349.07 380.96 348.64 381 348.72Z" fill="#8E4842"/>
<path d="M385.07 348.52C385.08 348.6 384.54 348.75 383.85 348.84C383.17 348.93 382.6 348.94 382.59 348.85C382.58 348.77 383.12 348.62 383.81 348.53C384.5 348.44 385.06 348.43 385.07 348.52Z" fill="#8E4842"/>
<path d="M387.02 332.95C386.98 333.07 384.6 332.3 381.73 331.18C380.29 330.62 379 330.09 378.08 329.67C377.16 329.26 376.61 328.95 376.63 328.91C376.65 328.87 377.23 329.11 378.17 329.47C379.21 329.87 380.46 330.36 381.84 330.89C383.22 331.43 384.47 331.92 385.51 332.32C386.45 332.7 387.02 332.92 387.02 332.95Z" fill="#8E4842"/>
<path d="M403.59 337.03C403.59 337.03 402.33 336.6 403.68 334.62C405.03 332.65 408.81 335.04 408.81 335.04L413.64 337.92C413.64 337.92 414.73 340.43 413.38 341.1L412.39 342.32C412.39 342.32 414.27 344.23 413.51 345.9C412.75 347.58 410.88 347.33 410.88 347.33C410.88 347.33 411.1 350.71 410 352.01C408.9 353.31 407.9 353.43 407.9 353.43C407.9 353.43 406.98 356.23 403.73 357.06C400.49 357.89 398.79 357.95 397.91 356.58C397.03 355.22 396.48 353.48 396.48 353.48C396.48 353.48 389.53 349.83 389.38 347.98C389.23 346.13 389.55 345.96 389.55 345.96C389.55 345.96 388.99 344.42 389.69 343.29C390.39 342.16 393.15 343.14 393.15 343.14L402.01 345.22C402.01 345.22 394.92 341.88 394.07 340.79C393.22 339.7 394.13 338.37 396.98 338.7C399.83 339.04 408.44 340.65 408.44 340.65C408.44 340.65 408.01 339.79 407.44 339.55C406.86 339.31 405.08 338.27 405.08 338.27L403.59 337.03Z" fill="#B2655F"/>
<path d="M405.71 350.47C405.69 350.55 402.09 349.63 397.68 348.42C393.27 347.2 389.71 346.15 389.73 346.07C389.75 345.99 393.35 346.91 397.76 348.12C402.17 349.34 405.73 350.39 405.71 350.47Z" fill="#8E4842"/>
<path d="M401.48 355.3C401.46 355.38 400.29 355.1 398.89 354.63C398.19 354.4 397.56 354.16 397.12 353.95C396.9 353.85 396.72 353.75 396.61 353.67C396.55 353.63 396.51 353.59 396.49 353.55C396.46 353.51 396.49 353.46 396.5 353.48C396.45 353.51 397.6 353.86 399 354.33C400.38 354.81 401.5 355.22 401.48 355.3Z" fill="#8E4842"/>
<path d="M409.08 346.57C409.06 346.66 407.33 346.31 405.19 345.95C403.05 345.59 401.3 345.37 401.31 345.28C401.32 345.2 403.09 345.29 405.24 345.65C407.4 346 409.1 346.49 409.08 346.57Z" fill="#8E4842"/>
<path d="M411.25 341.98C411.19 342.05 410.49 341.56 409.51 341.21C408.53 340.85 407.68 340.77 407.68 340.68C407.67 340.6 408.58 340.54 409.61 340.92C410.65 341.29 411.3 341.93 411.25 341.98Z" fill="#8E4842"/>
<path d="M418.96 326.72C418.96 326.73 418.85 326.72 418.63 326.7C418.38 326.67 418.08 326.63 417.71 326.58C416.91 326.48 415.75 326.33 414.31 326.16C411.44 325.83 407.46 325.48 403.06 325.38C401.96 325.36 400.86 325.26 399.98 325.74C399.54 325.97 399.13 326.29 398.72 326.57C398.31 326.86 397.91 327.14 397.52 327.42C395.97 328.52 394.56 329.51 393.37 330.35C392.21 331.16 391.26 331.82 390.56 332.3C390.25 332.51 389.99 332.68 389.79 332.82C389.61 332.94 389.51 332.99 389.51 332.98C389.5 332.97 389.59 332.9 389.76 332.77C389.96 332.62 390.2 332.43 390.5 332.2C391.19 331.69 392.12 331.01 393.26 330.17C394.44 329.31 395.83 328.3 397.37 327.19C397.76 326.91 398.16 326.62 398.56 326.33C398.97 326.04 399.37 325.72 399.85 325.47C400.33 325.21 400.89 325.09 401.44 325.06C401.99 325.03 402.53 325.06 403.09 325.07C407.51 325.17 411.49 325.56 414.36 325.94C415.79 326.13 416.95 326.31 417.75 326.45C418.12 326.52 418.42 326.58 418.67 326.62C418.86 326.68 418.97 326.71 418.96 326.72Z" fill="#263238"/>
<path d="M408.15 328.26C408.02 328.02 407.66 327.9 407.31 327.94L407.34 327.93C407.29 327.94 407.25 327.95 407.2 327.96C407.18 327.96 407.16 327.97 407.14 327.97C406.88 328.03 406.63 328.15 406.46 328.35C406.25 328.61 406.21 329.02 406.44 329.26C406.56 329.39 406.75 329.46 406.93 329.49C407.28 329.55 407.67 329.48 407.94 329.24C408.21 329 408.32 328.58 408.15 328.26Z" fill="white"/>
<path d="M368.78 232.1C368.14 231.76 367.5 231.42 366.86 231.08C365.97 230.6 364.94 230.11 363.93 230.4C362.98 230.67 362.32 231.58 361.34 231.68C360.2 231.8 359.26 230.78 358.12 230.83C357.04 230.88 356.19 231.87 355.11 231.86C354.3 231.85 353.46 231.29 352.77 231.68C352.63 231.76 352.51 231.87 352.37 231.97C351.61 232.49 350.55 232.19 349.71 231.82C348.87 231.45 347.92 231.03 347.05 231.35C346.48 231.56 346.09 232.05 345.67 232.46C345.25 232.87 344.65 233.25 344.06 233.12C343.73 233.05 343.46 232.84 343.14 232.76C342.1 232.5 341.24 233.6 340.19 233.88C339.21 234.14 338.09 233.66 337.19 234.1C336.48 234.45 336.19 235.31 336.45 235.98C336.71 236.65 337.42 237.13 338.19 237.29C338.96 237.45 339.78 237.34 340.54 237.11C341.16 236.92 341.78 236.66 342.43 236.68C343.92 236.73 345.09 238.27 346.55 237.96C347.27 237.8 347.77 237.24 348.35 236.82C349.17 236.22 350.21 235.88 351.25 235.88C351.94 235.88 352.66 236.02 353.3 235.76C354.08 235.45 354.54 234.61 355.36 234.39C356.23 234.15 357.13 234.7 358.03 234.62C358.63 234.57 359.17 234.24 359.77 234.21C360.62 234.16 361.39 234.71 362.24 234.64C363.1 234.57 363.85 233.85 364.71 233.93C365.05 233.96 365.36 234.11 365.68 234.19C366.01 234.27 366.4 234.27 366.64 234.04C366.83 233.86 366.89 233.57 367.12 233.44C367.29 233.34 367.51 233.36 367.7 233.38C368.64 233.48 369.58 233.57 370.52 233.67L368.78 232.1Z" fill="#263238"/>
<path d="M371.81 232C370.87 231.3 369.6 230.58 368.52 231.16C368.13 231.37 367.85 231.72 367.45 231.91C366.55 232.34 365.47 231.78 364.51 232.04C363.7 232.26 363.17 233.01 362.41 233.39C361.2 233.99 359.44 233.64 358.67 234.7C358.26 235.28 358.19 236.21 357.47 236.36C357.22 236.41 356.96 236.34 356.71 236.27C355.86 236.06 354.95 236.03 354.08 236.19C353.58 236.28 353.08 236.44 352.71 236.77C351.99 237.42 351.97 238.53 351.28 239.21C350.25 240.23 348.41 239.74 347.09 240.39C346.46 240.7 346 241.25 345.48 241.71C344.49 242.58 343.25 243.15 342.08 243.78C340.91 244.42 339.75 245.19 339.1 246.31C338.45 247.43 338.48 248.96 339.48 249.74C339.95 250.11 340.72 250.24 341.16 249.82C341.32 249.67 341.41 249.48 341.56 249.32C341.86 249 342.32 248.89 342.73 248.73C343.14 248.56 343.57 248.25 343.57 247.84C343.57 247.58 343.42 247.27 343.63 247.09C343.71 247.02 343.83 247 343.94 246.99C345 246.88 346.3 246.93 346.87 246.06C347.12 245.68 347.14 245.22 347.3 244.8C347.56 244.11 348.22 243.55 348.97 243.38C349.61 243.23 350.35 243.33 350.87 242.93C351.46 242.48 351.47 241.62 352.01 241.12C352.9 240.28 354.66 240.89 355.46 239.98C355.66 239.75 355.77 239.46 356.02 239.29C356.73 238.82 357.61 239.79 358.45 239.63C359.17 239.49 359.45 238.66 359.96 238.15C360.6 237.52 361.61 237.41 362.43 237.01C363.47 236.5 364.24 235.51 365.35 235.18C366.31 234.89 367.49 235.09 368.2 234.41C368.47 234.15 368.66 233.77 369.02 233.66C369.24 233.59 369.46 233.64 369.68 233.67C370.76 233.82 371.91 233.58 372.85 233.02L371.81 232Z" fill="#263238"/>
<path d="M370.19 234.54C367.78 234.12 365.21 234.89 363.41 236.58C363 236.96 362.62 237.39 362.13 237.63C361.37 238 360.48 237.84 359.64 237.91C357.79 238.06 356.1 239.43 355.5 241.25C355.12 242.4 354.98 243.91 353.88 244.31C353.68 244.38 353.46 244.41 353.27 244.53C352.52 244.99 353.04 246.18 353.03 247.08C353.02 248.58 351.35 249.61 351.29 251.1C351.27 251.65 351.47 252.19 351.68 252.7C352.26 254.12 352.9 255.52 353.59 256.89C353.9 257.5 354.31 258.18 354.97 258.27C355.92 258.4 356.51 257.26 356.79 256.31C356.99 255.63 357.17 254.86 356.84 254.22C356.57 253.69 355.99 253.38 355.75 252.83C355.36 251.95 355.98 250.99 356.44 250.15C357.33 248.5 357.61 246.5 357.21 244.65C358.25 244.46 358.74 243.04 359.78 242.84C360.07 242.78 360.38 242.83 360.65 242.73C361.35 242.46 361.42 241.41 362.03 240.97C362.75 240.46 364.06 240.87 364.37 240.02C364.47 239.76 364.42 239.43 364.58 239.21C364.71 239.04 364.93 238.98 365.13 238.92C365.97 238.71 366.81 238.5 367.65 238.29C368.13 238.17 368.63 238.04 368.99 237.7C369.63 237.09 369.74 235.9 370.55 235.58L370.19 234.54Z" fill="#263238"/>
<path d="M372.86 229.53C372.76 228.04 372.48 226.27 371.17 225.66C370.39 225.3 369.46 225.49 368.7 225.1C367.24 224.37 367.12 222 365.67 221.26C364.29 220.55 362.34 221.67 361.21 220.57C360.62 220 360.54 219.05 360.05 218.38C359.47 217.59 358.43 217.34 357.48 217.28C356.53 217.22 355.54 217.28 354.66 216.9C353.17 216.24 352.2 214.38 350.59 214.26C349.23 214.16 348.15 215.36 347.29 216.46C347.08 216.74 346.85 217.03 346.8 217.38C346.7 218 347.17 218.58 347.69 218.89C348.77 219.53 350.17 219.43 351.19 220.18C351.56 220.46 351.87 220.84 352.28 221.06C352.86 221.37 353.59 221.3 354.15 221.65C355.24 222.32 355.22 224.15 356.3 224.84C357.33 225.49 358.67 224.71 359.84 224.99C361.44 225.37 362.32 227.6 363.96 227.66C364.69 227.69 365.36 227.26 366.08 227.19C367 227.1 367.94 227.66 368.35 228.53C368.61 229.09 368.66 229.75 368.96 230.3C369.35 230.99 370.1 231.38 370.85 231.49C371.6 231.6 372.36 231.48 373.11 231.36L372.86 229.53Z" fill="#263238"/>
<path d="M371.62 234.14C370.58 232.25 369.39 230.23 367.34 229.35C366.31 228.91 365.13 228.8 364.17 228.24C363.35 227.76 362.76 226.99 361.99 226.44C360.2 225.17 357.74 225.25 355.53 225.6C353.33 225.95 351.06 226.5 348.89 225.97C346.96 225.49 345.27 224.18 343.27 224.07C342.19 224.01 341.12 224.31 340.08 224.62C338.87 224.97 337.67 225.32 336.46 225.67C336.07 225.78 335.64 225.93 335.44 226.27C335.06 226.92 335.81 227.67 336.53 227.97C337.69 228.46 339.02 228.6 340.27 228.37C341.26 228.19 342.24 227.77 343.23 227.92C343.92 228.02 344.53 228.39 345.2 228.56C346.04 228.78 346.92 228.69 347.78 228.6C349.12 228.46 350.45 228.33 351.79 228.19C352.82 228.08 353.92 227.99 354.85 228.44C355.57 228.79 356.14 229.46 356.94 229.55C357.83 229.65 358.68 228.98 359.57 229.12C360.63 229.28 361.16 230.47 362.13 230.92C363.28 231.45 364.77 230.83 365.88 231.44C366.63 231.85 366.95 232.69 367.42 233.38C367.82 233.95 368.34 234.44 368.96 234.8C369.74 235.26 370.64 235.5 371.52 235.74L371.62 234.14Z" fill="#263238"/>
<path d="M373.74 225.74C373.26 225.08 372.53 224.4 372.73 223.61C372.83 223.22 373.15 222.9 373.22 222.5C373.34 221.78 372.62 221.22 372.34 220.54C372.02 219.73 372.34 218.74 371.88 218C371.41 217.22 370.35 217.11 369.47 216.89C368.51 216.65 367.53 216.09 367.23 215.14C367.03 214.5 367.18 213.8 367.11 213.13C366.95 211.38 365.24 210.02 363.49 209.95C362.98 209.93 362.45 209.99 361.98 209.78C361.13 209.38 360.94 208.29 360.46 207.49C359.81 206.4 358.43 205.79 357.19 206.05C356.59 206.17 355.94 206.79 356.28 207.3C356.42 207.5 356.68 207.59 356.87 207.74C357.55 208.32 357.06 209.49 357.46 210.28C357.88 211.12 359.14 211.26 359.53 212.12C359.83 212.77 359.48 213.58 359.76 214.24C360.1 215.05 361.16 215.22 362.04 215.28C362.92 215.34 363.97 215.52 364.3 216.34C364.44 216.7 364.41 217.1 364.47 217.48C364.58 218.15 365.02 218.76 365.63 219.06C366.48 219.49 367.67 219.41 368.17 220.22C368.74 221.13 367.93 222.42 368.43 223.37C368.8 224.07 369.7 224.25 370.36 224.67C370.51 224.77 370.66 224.89 370.7 225.06C370.75 225.24 370.67 225.43 370.58 225.6C370.05 226.68 369.38 227.92 369.9 229C370.11 229.44 370.48 229.77 370.82 230.11C371.91 231.22 372.71 232.61 373.14 234.11L374.07 230.04C374.77 228.68 374.63 226.96 373.74 225.74Z" fill="#263238"/>
<path d="M378.9 211.96C379.26 210.8 378.79 209.39 377.72 208.81C376.65 208.24 375.09 208.77 374.74 209.93C374.34 211.26 375.46 212.82 374.75 214.02C374.56 214.35 374.24 214.61 374.14 214.97C373.89 215.85 375 216.59 375.01 217.51C375.02 218.52 373.74 219.08 373.48 220.06C373.17 221.18 374.31 222.37 373.9 223.46C373.78 223.77 373.56 224.01 373.37 224.28C372.2 226 372.79 228.31 373.43 230.29L376.08 229.9C375.6 228.06 378.18 226.22 377.3 224.54C376.88 223.74 375.73 223.16 375.99 222.3C376.06 222.06 376.23 221.88 376.4 221.69C377.22 220.79 378.04 219.89 378.86 218.99C379.22 218.59 379.61 218.15 379.66 217.61C379.77 216.44 378.3 215.68 378.12 214.52C377.98 213.64 378.63 212.83 378.9 211.96Z" fill="#263238"/>
<path d="M379.81 226.98C379.56 226.11 378.43 225.85 377.54 225.98C375.08 226.36 373.28 228.41 371.71 230.34C369.98 232.46 368.24 234.59 366.85 236.95C366.54 237.48 366.25 238.03 366.17 238.63C366.1 239.23 366.29 239.91 366.79 240.25C367.29 240.59 368.11 240.45 368.34 239.89L369.07 239.71C371.45 235.66 374.65 232.09 378.41 229.28C379.18 228.71 380.07 227.9 379.81 226.98Z" fill="#0D9488"/>
<path d="M366.28 264.62C365.69 259.75 365.12 254.86 365.37 249.96C365.62 245.06 366.74 240.13 369.29 235.94C369.68 235.31 372.74 231.14 373.45 231.35C373.96 231.5 371.79 235.52 371.96 236.02C373.62 240.81 373.3 246.11 371.93 251C370.56 255.89 368.67 260.15 366.28 264.62Z" fill="#263238"/>
<path d="M388.07 296.56C388.77 293.17 389.33 290.49 389.36 290.5C389.36 290.5 401.25 291.6 404.27 280.19C405.73 274.68 407.81 263.09 409.57 252.58C411.46 241.28 404.35 230.43 393.24 227.64L392.14 227.36C380.06 225.06 371.36 234.04 369.4 246.18L361.18 288.42L380.04 308.15L388.07 296.56Z" fill="#B2655F"/>
<path d="M389.36 290.5C389.36 290.5 382.04 289.11 375.57 282.35C375.57 282.35 377.11 291.59 388.79 293.43L389.36 290.5Z" fill="#8E4842"/>
<path d="M403.72 261.66C403.53 262.53 402.64 263.09 401.73 262.91C400.82 262.73 400.23 261.88 400.42 261.01C400.61 260.14 401.5 259.58 402.41 259.76C403.32 259.93 403.91 260.78 403.72 261.66Z" fill="#263238"/>
<path d="M405.92 256.71C405.66 256.87 404.66 255.64 402.9 255.21C401.15 254.75 399.63 255.33 399.49 255.06C399.42 254.94 399.72 254.61 400.39 254.34C401.05 254.07 402.09 253.91 403.18 254.19C404.27 254.47 405.09 255.11 405.52 255.65C405.96 256.21 406.05 256.64 405.92 256.71Z" fill="#263238"/>
<path d="M387.77 258.59C387.58 259.46 386.69 260.02 385.78 259.84C384.87 259.66 384.28 258.81 384.47 257.94C384.66 257.07 385.55 256.51 386.46 256.69C387.37 256.87 387.96 257.72 387.77 258.59Z" fill="#263238"/>
<path d="M388.52 253.09C388.26 253.25 387.25 252.02 385.5 251.59C383.75 251.13 382.23 251.71 382.09 251.44C382.02 251.32 382.32 250.99 382.99 250.72C383.65 250.45 384.69 250.29 385.78 250.57C386.87 250.85 387.69 251.49 388.12 252.03C388.56 252.59 388.64 253.02 388.52 253.09Z" fill="#263238"/>
<path d="M391.43 268.19C391.45 268.09 392.59 268.17 394.42 268.39C394.88 268.46 395.33 268.47 395.48 268.19C395.67 267.89 395.6 267.36 395.51 266.78C395.36 265.59 395.21 264.34 395.04 263.03C394.42 257.7 394.09 253.36 394.31 253.34C394.53 253.32 395.2 257.62 395.82 262.95C395.96 264.26 396.1 265.51 396.23 266.71C396.27 267.26 396.42 267.92 396.02 268.53C395.81 268.84 395.42 269 395.12 269C394.81 269.02 394.56 268.96 394.33 268.91C392.52 268.56 391.41 268.29 391.43 268.19Z" fill="#263238"/>
<path d="M385.95 268.11C386.24 268.17 385.76 270.07 387.06 271.84C388.35 273.61 390.44 273.91 390.39 274.18C390.39 274.31 389.84 274.44 388.98 274.24C388.13 274.06 386.97 273.48 386.18 272.4C385.39 271.32 385.24 270.1 385.37 269.3C385.49 268.48 385.82 268.06 385.95 268.11Z" fill="#263238"/>
<path d="M390.22 245.93C389.93 246.36 388.23 245.7 386.1 245.43C383.98 245.12 382.16 245.3 382 244.81C381.93 244.57 382.33 244.2 383.12 243.9C383.9 243.61 385.08 243.43 386.35 243.61C387.62 243.79 388.71 244.27 389.38 244.76C390.06 245.25 390.35 245.72 390.22 245.93Z" fill="#263238"/>
<path d="M406.67 250.68C406.26 251 405.15 250.28 403.7 249.9C402.26 249.46 400.94 249.49 400.76 249C400.69 248.77 400.98 248.41 401.62 248.17C402.25 247.93 403.21 247.84 404.2 248.12C405.19 248.4 405.97 248.98 406.37 249.52C406.79 250.07 406.85 250.52 406.67 250.68Z" fill="#263238"/>
<path d="M368.2 254.88C368.03 254.75 360.92 250.58 359.21 258.46C357.49 266.35 365.76 266.44 365.83 266.22C365.88 266 368.2 254.88 368.2 254.88Z" fill="#B2655F"/>
<path d="M364.06 262.71C364.03 262.68 363.9 262.78 363.65 262.83C363.4 262.88 363 262.87 362.62 262.63C361.85 262.14 361.44 260.67 361.71 259.24C361.85 258.52 362.15 257.87 362.52 257.36C362.89 256.84 363.35 256.51 363.78 256.53C364.22 256.52 364.46 256.84 364.51 257.08C364.57 257.32 364.48 257.47 364.52 257.49C364.54 257.51 364.72 257.39 364.73 257.06C364.73 256.9 364.68 256.69 364.53 256.5C364.37 256.3 364.11 256.17 363.81 256.13C363.19 256.04 362.52 256.48 362.11 257.04C361.66 257.6 361.31 258.32 361.16 259.13C360.86 260.73 361.35 262.39 362.42 262.97C362.94 263.24 363.44 263.17 363.72 263.03C364 262.9 364.08 262.73 364.06 262.71Z" fill="#8E4842"/>
<path d="M407.18 238.42C408.61 237.98 405.63 233.04 402.79 230.96C398.49 227.82 391.51 224.98 386.88 225.31C381.3 225.71 376.37 227.42 372.72 231.66C369.07 235.91 366.91 241.29 365.92 246.8C365.62 248.48 365.43 250.26 366.03 251.86C366.77 253.84 368.66 255.38 368.06 257.77C367.84 258.64 367.91 259.58 368.38 260.35C369.5 262.19 371.57 261.11 372.69 259.83C375.07 257.1 376.04 253.44 376.93 249.93C377.56 247.43 378.2 244.88 378 242.31C377.89 240.91 377.53 239.54 377.49 238.14C377.46 236.74 377.81 235.23 378.87 234.31C379.04 234.16 379.31 233.98 379.65 233.79C382.3 232.3 385.55 232.36 388.15 233.94C392.27 236.44 399.38 240.38 401.68 239.28C404.99 237.7 405.97 236.43 405.97 236.43L407.18 238.42Z" fill="#263238"/>
<path d="M323.11 372.94C323.1 372.93 323.32 372.83 323.75 372.66C324.21 372.48 324.84 372.24 325.63 371.94C327.31 371.31 329.7 370.42 332.68 369.3C338.76 367.07 347.26 363.94 357.13 360.32L356.99 360.66C354.96 356.25 352.75 351.45 350.45 346.48C349.3 343.98 348.17 341.52 347.07 339.13L347.34 339.28C338.08 340.68 329.67 341.95 322.85 342.99L322.87 342.98C317.25 344.56 313.01 346.81 310.22 348.53C308.82 349.39 307.77 350.13 307.06 350.63C306.73 350.87 306.46 351.06 306.25 351.21C306.07 351.34 305.97 351.4 305.96 351.39C305.95 351.38 306.04 351.3 306.21 351.16C306.41 351 306.66 350.79 306.98 350.53C307.67 350 308.7 349.23 310.09 348.33C312.86 346.54 317.1 344.22 322.75 342.58H322.76H322.77C329.58 341.52 337.98 340.21 347.24 338.76L347.43 338.73L347.51 338.91C348.61 341.3 349.74 343.75 350.89 346.26C353.18 351.24 355.38 356.04 357.4 360.45L357.51 360.7L357.26 360.79C347.37 364.35 338.84 367.41 332.75 369.6C329.75 370.66 327.34 371.51 325.65 372.1C324.85 372.37 324.22 372.59 323.75 372.75C323.34 372.88 323.11 372.95 323.11 372.94Z" fill="#263238"/>
<path d="M337.76 327.95C337.81 328 337.04 328.94 335.75 330.41C334.45 331.88 332.63 333.88 330.56 336.05C328.49 338.22 326.57 340.13 325.11 341.45C324.38 342.11 323.76 342.62 323.29 342.92C323.05 343.06 322.87 343.2 322.65 343.15C322.54 343.08 322.59 342.99 322.6 342.96C322.61 342.92 322.63 342.91 322.64 342.91C322.66 342.9 322.64 343.04 322.7 343.06C322.78 343.06 322.98 342.92 323.18 342.76C323.6 342.42 324.17 341.87 324.87 341.19C326.26 339.82 328.13 337.86 330.2 335.7C332.21 333.6 334.03 331.7 335.5 330.17C336.84 328.75 337.71 327.9 337.76 327.95Z" fill="#263238"/>
<path d="M342.52 318.12C342.42 318.1 342.73 316.55 342.73 314.02C342.74 312.76 342.62 311.26 342.36 309.61C342.06 307.97 341.61 306.19 340.93 304.39C340.23 302.6 339.37 300.97 338.49 299.56C337.58 298.16 336.67 296.97 335.81 296.04C334.11 294.17 332.84 293.22 332.91 293.14C332.93 293.11 333.26 293.33 333.83 293.76C334.12 293.97 334.47 294.24 334.83 294.59C335.2 294.93 335.65 295.31 336.08 295.78C336.98 296.69 337.94 297.88 338.89 299.29C339.81 300.72 340.7 302.37 341.41 304.19C342.1 306.02 342.55 307.84 342.83 309.52C343.07 311.2 343.16 312.73 343.1 314.01C343.1 314.65 343.02 315.23 342.98 315.73C342.94 316.24 342.86 316.67 342.79 317.02C342.65 317.74 342.55 318.13 342.52 318.12Z" fill="#263238"/>
<path d="M368.03 392.69C368.04 392.6 369.29 392.73 371.31 392.68C373.32 392.63 376.11 392.33 379.06 391.46C382.01 390.58 384.51 389.33 386.23 388.28C387.95 387.23 388.93 386.44 388.99 386.51C389.01 386.54 388.79 386.76 388.36 387.13C387.94 387.51 387.28 388.01 386.43 388.59C384.74 389.74 382.21 391.07 379.21 391.96C376.21 392.84 373.36 393.09 371.32 393.05C370.3 393.03 369.47 392.96 368.91 392.88C368.34 392.79 368.03 392.72 368.03 392.69Z" fill="#263238"/>
<path d="M382.88 370.61C382.91 370.63 382.67 370.94 382.21 371.47C381.76 372 381.08 372.74 380.22 373.65C378.51 375.46 376.06 377.89 373.22 380.43C370.38 382.97 367.7 385.13 365.71 386.64C364.72 387.39 363.9 387.99 363.33 388.38C362.76 388.78 362.43 388.98 362.41 388.95C362.39 388.92 362.67 388.66 363.21 388.22C363.84 387.71 364.6 387.08 365.49 386.35C367.41 384.78 370.05 382.57 372.88 380.04C375.7 377.51 378.18 375.13 379.96 373.39C380.79 372.58 381.49 371.9 382.07 371.33C382.56 370.84 382.85 370.58 382.88 370.61Z" fill="#263238"/>
</svg>
