<?xml version="1.0" encoding="utf-8"?>
<!-- Generator: Adobe Illustrator 25.4.1, SVG Export Plug-In . SVG Version: 6.00 Build 0)  -->
<svg version="1.1" id="_x3C_Layer_x3E_" xmlns="http://www.w3.org/2000/svg" xmlns:xlink="http://www.w3.org/1999/xlink" x="0px"
	 y="0px" viewBox="0 0 2760 1840" style="enable-background:new 0 0 2760 1840;" xml:space="preserve">
<style type="text/css">
	.st0{opacity:0.2;}
	.st1{fill:#6376E5;}
	.st2{opacity:0.8;}
	.st3{fill:#F8FCFF;}
	.st4{fill:#233862;}
	.st5{fill:#F77D48;}
	.st6{fill:#FFB27D;}
	.st7{fill:#739AF0;}
	.st8{fill:#1C468A;}
	.st9{fill:#ED975D;}
	.st10{fill:#163560;}
	.st11{fill:#FFFFFF;}
	.st12{fill:#0B0755;}
	.st13{opacity:0.9;}
	.st14{fill:#75A8F2;}
	.st15{fill:#AEC3FF;}
	.st16{fill:#D2E0FF;}
	.st17{fill:#9AB6F4;}
	.st18{fill:#8BAAEF;}
	.st19{fill:#243F66;}
	.st20{fill:#94BBFF;}
	.st21{opacity:0.5;}
	.st22{fill:#4F7FD3;}
	.st23{fill:#1B2F56;}
	.st24{fill:#8C9DF4;}
	.st25{fill:#F99746;}
	.st26{fill:#2B478B;}
	.st27{fill:#EEF5FF;}
	.st28{fill:#10213A;}
	.st29{fill:#254272;}
	.st30{fill:#C96643;}
	.st31{fill:#264F7F;}
</style>
<g>
	<g class="st0">
		<path class="st1" d="M2576.32,1565.71c-6.26,12-12.53,22.65-18.43,31.89c-0.17,0.28-0.35,0.54-0.52,0.82
			c-17.07,26.6-45.73,42.49-76.33,42.43l-2025.93-3.15c-128.53-0.2-239.96-93.4-268.24-224.65
			c-24.82-115.21-26.06-261.03,56.08-403.49c43.63-75.7,110.82-150.46,210.53-219.17c196.81-135.65-12.32-225.18,144.18-376.17
			c179.85-173.52,376.12,18.43,576.11-60.24c35.33-13.9,70.79-36.26,106.28-70.56c34.39-33.17,74.6-59.45,119.8-79.42
			c60.08-26.45,125.46-40.34,192.08-45.08c223.46-15.72,474.94,72.68,604.72,201.87c26.12,26.02,144.93,160.62,51.29,345.64
			c-50.26,99.29,121.17,194.8,227.79,303.14c18.82,19.12,35.62,38.64,48.82,58.65C2673.67,1294.19,2625.6,1471.36,2576.32,1565.71z"
			/>
	</g>
	<g class="st2">
		<path class="st3" d="M575.47,692.95c0,0,12.64-32.36,42.85-28.77c0,0,43.87-53.94,90.65-7.19c0,0,49.73-11.58,86.55,10.03
			c24.55,14.41,32.66,29.53,32.66,29.53L575.47,692.95z"/>
	</g>
	<g class="st2">
		<path class="st3" d="M662.32,804.91c0,0,23.47-50.61,79.61-44.99c0,0,81.5-84.35,168.4-11.25c0,0,92.38-18.11,160.8,15.68
			c45.61,22.53,60.68,46.17,60.68,46.17L662.32,804.91z"/>
	</g>
	<g class="st2">
		<path class="st3" d="M1427.84,1002.25c0,0,41.57-98.73,140.96-87.76c0,0,144.3-164.55,298.18-21.94c0,0,163.57-35.34,284.71,30.59
			c80.77,43.96,107.44,90.07,107.44,90.07L1427.84,1002.25z"/>
	</g>
	<g class="st2">
		<path class="st3" d="M1440.56,424.58c0,0,30.34-72,102.89-64c0,0,105.33-120,217.66-16c0,0,119.4-25.77,207.83,22.31
			c58.96,32.06,78.43,65.69,78.43,65.69L1440.56,424.58z"/>
	</g>
	<g class="st2">
		<path class="st3" d="M1825.04,550.74c0,0,14.38-37.34,48.77-33.19c0,0,49.93-62.23,103.17-8.3c0,0,56.59-13.36,98.51,11.57
			c27.94,16.62,37.17,34.06,37.17,34.06L1825.04,550.74z"/>
	</g>
	<g>
		<path class="st1" d="M2576.32,1568.38c-6.26,12.01-12.53,22.65-18.43,31.9c-0.17,0.27-0.35,0.54-0.52,0.81
			c-17.07,26.6-45.73,42.49-76.33,42.44l-2025.94-3.15c-128.53-0.2-239.96-93.41-268.24-224.66
			c-17.04-79.1-22.97-172.64,1.59-269.61c11.2-44.27,28.75-89.24,54.5-133.89h2232.78c18.81,19.11,35.61,38.64,48.82,58.65
			c16.97,25.73,31.4,50.82,43.55,75.24C2662.71,1336.13,2619.99,1484.77,2576.32,1568.38z"/>
	</g>
	<g>
		<path class="st4" d="M553.65,1477.1c0,0-5.69,43.98,67.79,53.81c73.48,9.83,91.9-38.81,91.9-38.81l-3.03-2.97
			c0,0-38.16,23.67-71.8,6.6C604.88,1478.65,561.41,1452.26,553.65,1477.1z"/>
	</g>
	<g>
		<path class="st5" d="M708.11,1465.46c0,0-5.43,13.45,2.2,23.67c7.63,10.22,26.52,3.75,26.52,3.75S714.83,1487.71,708.11,1465.46z"
			/>
	</g>
	<g>
		<path class="st5" d="M606.17,1479.17c0,0,11.13-7.5,24.71-4.79c0,0-0.77,7.4-11.06,11.66L606.17,1479.17z"/>
	</g>
	<g>
		<path class="st5" d="M580.32,1518.62c0,0-1.45,8.74,8.25,14.95c0,0,3.47-2.71,3-9.8L580.32,1518.62z"/>
	</g>
	<g>
		<path class="st4" d="M807.03,1509.45c0,0-22.6-38.16-86.55-0.65c-63.94,37.51-48.5,87.17-48.5,87.17l4.22,0.48
			c0,0,15.49-42.15,52.5-49.42C765.72,1539.78,816.21,1533.8,807.03,1509.45z"/>
	</g>
	<g>
		<path class="st5" d="M692.51,1613.75c0,0-4-13.95-16.31-17.3c-12.31-3.35-23.2,13.38-23.2,13.38S673.51,1600.36,692.51,1613.75z"
			/>
	</g>
	<g>
		<path class="st5" d="M764.38,1540.17c0,0-4.15,12.76-16.52,18.99c0,0-3.95-6.31,1.54-15.99L764.38,1540.17z"/>
	</g>
	<g>
		<path class="st5" d="M760.45,1493.17c0,0-4.24-7.78-15.71-6.69c0,0-1.06,4.27,3.67,9.56L760.45,1493.17z"/>
	</g>
	<g>
		<path class="st4" d="M837.21,1621.96c0,0,37.58,23.56,77.22-39.08c39.64-62.64,3.16-99.71,3.16-99.71l-3.97,1.51
			c0,0,5.55,44.56-24.02,67.98C860.03,1576.07,817.89,1604.52,837.21,1621.96z"/>
	</g>
	<g>
		<path class="st5" d="M891.19,1476.77c0,0,9.95,10.56,22.43,7.9c12.47-2.66,14.49-22.52,14.49-22.52S914.22,1479.96,891.19,1476.77
			z"/>
	</g>
	<g>
		<path class="st5" d="M861.04,1575.11c0,0-2.16-13.25,5.98-24.45c0,0,6.4,3.8,5.96,14.92L861.04,1575.11z"/>
	</g>
	<g>
		<path class="st5" d="M886.07,1615.08c0,0,7.33,4.97,17.03-1.25c0,0-1.02-4.29-7.65-6.82L886.07,1615.08z"/>
	</g>
	<g>
		<path class="st4" d="M895.66,1500.17c0,0-22.13-23.49-61.57,13.33c-39.43,36.83-20.55,69.64-20.55,69.64l3.07-0.33
			c0,0,4.28-32.41,29.41-43.46C871.15,1528.29,906.06,1516,895.66,1500.17z"/>
	</g>
	<g>
		<path class="st5" d="M830.96,1592.5c0,0-5.07-9.26-14.34-9.68c-9.27-0.42-14.35,13.2-14.35,13.2S815.33,1586.02,830.96,1592.5z"/>
	</g>
	<g>
		<path class="st5" d="M870.26,1528.78c0,0-0.91,9.73-8.71,16.12c0,0-3.81-3.85-1.46-11.6L870.26,1528.78z"/>
	</g>
	<g>
		<path class="st5" d="M859.98,1496.03c0,0-4.25-4.85-12.22-2.25c0,0-0.07,3.21,4.13,6.21L859.98,1496.03z"/>
	</g>
	<g>
		<path class="st4" d="M947.83,1490.92c0,0,2.26,44.29,76.32,40.83c74.05-3.46,83.48-54.61,83.48-54.61l-3.51-2.38
			c0,0-33.32,30.11-69.46,19.33C998.51,1483.29,951.03,1465.09,947.83,1490.92z"/>
	</g>
	<g>
		<path class="st5" d="M1097.72,1451.85c0,0-2.94,14.21,6.4,22.9c9.34,8.69,26.76-1.05,26.76-1.05S1108.32,1472.54,1097.72,1451.85z
			"/>
	</g>
	<g>
		<path class="st5" d="M999.87,1483.56c0,0,9.61-9.37,23.46-9.13c0,0,0.56,7.42-8.8,13.44L999.87,1483.56z"/>
	</g>
	<g>
		<path class="st5" d="M981.5,1527c0,0,0.14,8.85,10.79,13.23c0,0,2.93-3.29,1.2-10.17L981.5,1527z"/>
	</g>
	<g>
		<path class="st4" d="M1172.57,1524.33c0,0-25.22-36.48-86.38,5.42c-61.16,41.9-42.27,90.36-42.27,90.36l4.24,0.18
			c0,0,12.49-43.14,48.91-52.98C1133.48,1557.48,1183.44,1547.98,1172.57,1524.33z"/>
	</g>
	<g>
		<path class="st5" d="M1132.18,1557.96c0,0-3.24,13.02-15.15,20.1c0,0-4.38-6.01,0.41-16.06L1132.18,1557.96z"/>
	</g>
	<g>
		<path class="st5" d="M1124.96,1511.36c0,0-4.77-7.46-16.14-5.57c0,0-0.76,4.34,4.34,9.28L1124.96,1511.36z"/>
	</g>
	<g>
		<path class="st4" d="M840.35,1472.57c0,0,4.09-44.16-69.7-51.31c-73.79-7.15-90.43,42.13-90.43,42.13l3.14,2.86
			c0,0,37.27-25.05,71.51-9.21C789.1,1472.89,833.5,1497.67,840.35,1472.57z"/>
	</g>
	<g>
		<path class="st5" d="M686.42,1489.83c0,0,4.94-13.64-3.06-23.58c-8-9.93-26.64-2.78-26.64-2.78S678.88,1467.84,686.42,1489.83z"/>
	</g>
	<g>
		<path class="st5" d="M787.79,1472.42c0,0-10.85,7.9-24.52,5.68c0,0,0.51-7.42,10.63-12.05L787.79,1472.42z"/>
	</g>
	<g>
		<path class="st5" d="M812.18,1432.05c0,0,1.13-8.78-8.79-14.63c0,0-3.37,2.84-2.64,9.9L812.18,1432.05z"/>
	</g>
	<g>
		<path class="st6" d="M1788.92,841.97c0,0,6.63-10.28,2.37-11.97c-4.27-1.69-9.19-2.72-8.68,0.91c0.52,3.63,1.43,7.91,1.43,7.91
			L1788.92,841.97z"/>
	</g>
	<g>
		<path class="st7" d="M1782.53,837.31c0,0-12.62,9.86-19.72,10.38c-4.29,0.31-19.71-19.61-27.29-22.13
			c-1.66-0.55-7.24-2.07-7.24-2.07l4.07,24.57c0,0,20.29,14.68,31.58,13.71c12.88-1.11,24.98-19.79,24.98-19.79L1782.53,837.31z"/>
	</g>
	<g>
		<path class="st8" d="M1736.33,880.62l49.17,120.02c0,0-0.43,4.76-9,6.22c0,0-15.36-15.48-28.14-35.65c-0.21-0.33-0.42-0.67-0.63-1
			c-4.56-7.31-10.81-17.56-16.97-27.73c-11.2-18.49-22.11-36.74-22.11-36.74L1736.33,880.62z"/>
	</g>
	<g>
		<path class="st8" d="M1730.39,890.8l21.84,127.98c0,0-6.52,6.03-12.59,3.94c0,0-19.38-38.97-21.43-54.68
			c-1.66-12.71-33.82-69.12-16.61-78.81C1718.81,879.53,1730.39,890.8,1730.39,890.8z"/>
	</g>
	<g>
		<path class="st7" d="M1741.18,898.11c-6.02,3.57-13.94,6.3-27.29,6.23c-12.83-0.07-20.85-3.11-20.63-6.19
			c0.11-1.53,0.2-3.11,0.27-4.75c0.3-7.08,0.08-15.46-2.09-27.39c-0.56-3.1-1.24-6.38-1.82-9.24l0-0.01h0
			c-0.7-3.48-1.26-6.33-1.28-7.41c0,0,2.96-18.41,5.81-21.51c1.02-1.11,2.56-2.08,4.44-2.89c0.01,0,0.01,0,0.02-0.01
			c8.94-3.84,25.77-4.1,33.58,1.89c1.06,0.82,5.01,6.66,5.5,13.2C1738.38,849.14,1745.09,895.79,1741.18,898.11z"/>
	</g>
	<g>
		<path class="st6" d="M1705.68,823.75c-0.66-1.32,2.31-2.91,2.91-11.44c0.01-0.11,0.8,0.21,1.98,0.77
			c3.51,1.64,10.5,5.29,10.81,5.46c0.01,0,0.01,0,0.01,0s-0.27,1.76-0.62,4.96c-0.03,0.28-0.06,0.58-0.09,0.88
			c-0.04,0.38-0.09,0.77-0.12,1.18C1720.13,831.97,1708.78,829.94,1705.68,823.75z"/>
	</g>
	<g>
		<path class="st9" d="M1720.76,823.48c-5.78,0.12-12.31-9.73-12.31-9.73c0.7-0.32,1.4-0.54,2.11-0.68
			c3.51,1.64,10.5,5.29,10.81,5.46c0.01,0,0.01,0,0.01,0S1721.11,820.29,1720.76,823.48z"/>
	</g>
	<g>
		<path class="st6" d="M1723.74,818.56c0,0-2.44,0.34-5.41,0.13c-4.35-0.31-9.83-1.8-10.52-7.28c-1.15-9.22-3.83-15.16,5.55-16.88
			c5.02-0.92,8.01-0.4,9.87,0.74c1.62,0.98,2.39,2.44,2.92,3.82C1727.3,802.08,1727.56,817.78,1723.74,818.56z"/>
	</g>
	<g>
		<path class="st10" d="M1727.31,791.84c2.57,3.51-0.31,8.37-4.62,7.79c-1.73-0.23-3.11-0.59-4.17-0.36
			c-2.35,0.51-3.49,4.04-3.77,5.18c-0.28,1.14-0.63,2.08-3.41,0.78c-0.46-0.21-0.81-0.25-1.07-0.16c-1.36,0.47-0.54,4.28-0.23,5.13
			c0,0,0.15,2.64-1.59,3.54c-0.21,0.11-3.41,0.78-8.23-11.5c-0.76-1.93-1.02-5.97,1.46-9.3c2.48-3.33,10.35-5.9,16.85-6.02
			C1722.54,786.85,1725.39,789.22,1727.31,791.84z"/>
	</g>
	<g>
		<path class="st11" d="M1724.96,813.02c0,0-0.05,1.15-2.83,1.5c0,0-2.33,0.29-2.49-0.93
			C1719.65,813.59,1721.72,812.3,1724.96,813.02z"/>
	</g>
	<g>
		<path class="st5" d="M1702.27,823.67c0,0,9.62,15.25,12.67,42.98c3.05,27.73,2.23,47.44,2.23,47.44s-21.67,4.92-29.71-3.74
			l3.13-48.77c0,0,9.76,1.29,0.53-32.83C1691.12,828.75,1695.07,825.28,1702.27,823.67z"/>
	</g>
	<g>
		<path class="st5" d="M1721.1,822.67c0,0,5.33-0.61,9.59,0.83c4.96,1.68,5.53,3.43,5.53,3.43c8.24,18.29,16.96,69.11,16.96,69.11
			c-2.69,10.1-14.43,13.71-14.43,13.71C1737.03,862.22,1721.1,822.67,1721.1,822.67z"/>
	</g>
	<g>
		<g>
			<path class="st10" d="M1700.34,891.79l-4.58-2.43c0.2-0.38,5.06-9.45,15.9-22.7c9.96-12.17,27.07-30.3,52.04-47.53
				c28.04-19.35,60.08-33.66,95.23-42.52c43.86-11.06,92.71-13.63,145.19-7.64l-0.59,5.16c-51.77-5.92-99.93-3.4-143.13,7.46
				c-34.52,8.68-65.98,22.7-93.5,41.64C1720,855.5,1700.53,891.43,1700.34,891.79z"/>
		</g>
	</g>
	<g>
		<path class="st12" d="M1692.93,900.98l-0.5-0.29c-1.44-0.83-1.94-2.69-1.11-4.14l7.71-13.35c0.83-1.44,2.69-1.94,4.14-1.11
			l0.5,0.29c1.44,0.83,1.94,2.69,1.11,4.14l-7.71,13.35C1696.23,901.32,1694.37,901.81,1692.93,900.98z"/>
	</g>
	<g>
		<path class="st10" d="M1776.05,835.88c-1.98-3.97-0.37-8.8,3.6-10.79c3.97-1.98,8.8-0.37,10.79,3.6c1.98,3.97,0.37,8.8-3.61,10.79
			C1782.86,841.47,1778.03,839.85,1776.05,835.88z"/>
	</g>
	<g>
		<g>
			<path class="st6" d="M1686.68,890.4c0,0,3.4,2.17,4.23,1.98c2.42-0.56,3.57-2.62,5.85-2.57c2.28,0.05,7.24,2.31,6.72,2.92
				c-1.89,2.23-5.08,1.28-6.46,2.65c-0.96,0.96-1.46,2.86-5.18,2.7c-3.71-0.16-7.16-3-7.16-3L1686.68,890.4z"/>
		</g>
		<g>
			<path class="st6" d="M1692.42,892.01c0,0,1.49-2.63,1.67-3.38c0.18-0.75,0.62,0.35,0.51,1.12c-0.11,0.77,0.12,1.36,0.12,1.36
				L1692.42,892.01z"/>
		</g>
	</g>
	<g class="st13">
		<path class="st14" d="M2568.1,1146.11H188.45c11.2-44.27,28.75-89.24,54.5-133.89h2232.78c18.81,19.11,35.61,38.64,48.82,58.65
			C2541.52,1096.6,2555.95,1121.69,2568.1,1146.11z"/>
	</g>
	<g>
		<path class="st7" d="M1698.62,824.93c0,0-13.99,4.83-23.29,19.39c-9.29,14.56-12.01,24.18-7.6,30.92
			c4.4,6.74,12.89,18.61,20.73,23.36c0,0,3.72-1.03,3.08-6.77c0,0-10.42-19.16-10.25-21.84c0.32-5,12.73-18.37,15.46-21.14
			C1699.47,846.08,1698.62,824.93,1698.62,824.93z"/>
	</g>
	<g>
		<path class="st5" d="M1694.48,857.41l17.54-7.77c-4.02-16.9-9.74-25.97-9.74-25.97c-7.19,1.6-11.15,5.07-11.15,5.07
			C1695.53,845.06,1695.6,853.28,1694.48,857.41z"/>
	</g>
	<g>
		<path class="st6" d="M1792.66,831.76c0,0-1.39-6.5-6.41-5.52c-5.02,0.98,0.52,5.71,1.88,7.13c1.36,1.43,2.01,4.28,2.01,4.28
			L1792.66,831.76z"/>
	</g>
	<g>
		<path class="st10" d="M1965.86,777.28L1965.86,777.28c0.79,0,1.43-0.64,1.43-1.43v-5.18c0-0.79-0.65-1.43-1.43-1.43l0,0
			c-0.79,0-1.43,0.64-1.43,1.43v5.18C1964.43,776.63,1965.07,777.28,1965.86,777.28z"/>
	</g>
	<g>
		<path class="st10" d="M1903.84,779.22L1903.84,779.22c0.76-0.2,1.23-0.98,1.03-1.75l-1.29-5.01c-0.2-0.76-0.98-1.23-1.75-1.03l0,0
			c-0.76,0.2-1.23,0.98-1.03,1.75l1.29,5.01C1902.29,778.95,1903.08,779.41,1903.84,779.22z"/>
	</g>
	<g>
		<path class="st10" d="M1850.02,790.96L1850.02,790.96c0.76-0.2,1.23-0.98,1.03-1.75l-1.29-5.01c-0.2-0.76-0.98-1.23-1.75-1.03l0,0
			c-0.76,0.2-1.23,0.98-1.03,1.75l1.29,5.01C1848.47,790.69,1849.26,791.15,1850.02,790.96z"/>
	</g>
	<g>
		
			<rect x="407.21" y="1062.88" transform="matrix(0.1626 -0.9867 0.9867 0.1626 -589.5502 1434.6545)" class="st15" width="286.47" height="3.55"/>
	</g>
	<g>
		
			<rect x="424.94" y="1066.34" transform="matrix(0.1423 -0.9898 0.9898 0.1423 -562.2429 1505.1693)" class="st15" width="324.89" height="21.32"/>
	</g>
	<g>
		
			<rect x="816.13" y="915.66" transform="matrix(0.9966 -0.0826 0.0826 0.9966 -86.1152 71.9549)" class="st15" width="21.32" height="322.69"/>
	</g>
	<g>
		<rect x="552.25" y="909.15" class="st15" width="303.85" height="28.35"/>
	</g>
	<g>
		<rect x="664.28" y="937.5" class="st15" width="28.78" height="12.92"/>
	</g>
	<g>
		
			<rect x="592.95" y="956.51" transform="matrix(0.6775 -0.7355 0.7355 0.6775 -501.3328 773.1727)" class="st15" width="76.18" height="3.55"/>
	</g>
	<g>
		
			<rect x="787.61" y="920.76" transform="matrix(0.7221 -0.6918 0.6918 0.7221 -441.2986 811.5379)" class="st15" width="3.55" height="68.5"/>
	</g>
	<g>
		<rect x="631.04" y="956.29" class="st15" width="162.21" height="3.55"/>
	</g>
	<g>
		<g>
			<rect x="1171.63" y="572.41" class="st15" width="11.39" height="184.09"/>
		</g>
		<g>
			<rect x="1152.24" y="613.05" class="st15" width="28.7" height="2.53"/>
		</g>
		<g>
			<rect x="1145.6" y="636.13" class="st15" width="35.34" height="2.53"/>
		</g>
		<g>
			<rect x="1132.1" y="657.33" class="st15" width="48.84" height="2.53"/>
		</g>
		<g>
			
				<rect x="1206.7" y="488.82" transform="matrix(-1 -1.224647e-16 1.224647e-16 -1 2429.9473 1245.3223)" class="st15" width="16.56" height="267.69"/>
		</g>
		<g>
			
				<rect x="1209.72" y="547.9" transform="matrix(-1 -1.224647e-16 1.224647e-16 -1 2461.1816 1099.4785)" class="st15" width="41.74" height="3.68"/>
		</g>
		<g>
			
				<rect x="1209.72" y="581.47" transform="matrix(-1 -1.224647e-16 1.224647e-16 -1 2470.8359 1166.625)" class="st15" width="51.39" height="3.68"/>
		</g>
		<g>
			
				<rect x="1209.72" y="612.29" transform="matrix(-1 -1.224647e-16 1.224647e-16 -1 2490.4619 1228.2509)" class="st15" width="71.02" height="3.68"/>
		</g>
		<g>
			<g>
				<rect x="1181.08" y="756.51" class="st15" width="344.67" height="457.16"/>
			</g>
			<g>
				<rect x="1032.8" y="756.51" class="st16" width="312.5" height="457.16"/>
			</g>
			<g>
				<rect x="1256.2" y="809.63" class="st15" width="52.96" height="89.52"/>
			</g>
			<g>
				<rect x="1175.81" y="809.63" class="st15" width="26.48" height="44.76"/>
			</g>
			<g>
				<rect x="1375.42" y="809.63" class="st17" width="26.48" height="44.76"/>
			</g>
			<g>
				<rect x="1118.3" y="809.63" class="st15" width="26.48" height="44.76"/>
			</g>
			<g>
				<rect x="1063.64" y="809.63" class="st15" width="26.48" height="44.76"/>
			</g>
			<g>
				<rect x="1175.81" y="922.16" class="st15" width="26.48" height="44.76"/>
			</g>
			<g>
				<rect x="1118.3" y="922.16" class="st15" width="26.48" height="44.76"/>
			</g>
			<g>
				<rect x="1063.64" y="922.16" class="st15" width="26.48" height="44.76"/>
			</g>
			<g>
				<polygon class="st17" points="1345.3,756.51 1380.04,727.34 1563.09,727.34 1525.76,756.51 				"/>
			</g>
			<g>
				<polygon class="st16" points="1380.04,727.34 1032.8,727.34 1032.8,756.51 1345.3,756.51 				"/>
			</g>
			<g>
				<rect x="1009.17" y="712.68" class="st4" width="577.54" height="14.66"/>
			</g>
		</g>
	</g>
	<g>
		<path class="st18" d="M1174.24,1173.99l193.94-178.03c14.9-13.68,33.45-21.82,52.93-23.23l709.32-51.39
			c11.1-0.8,20.52,8.74,20.52,20.79v55.56l-663.43,46.49c-31.3,2.19-61.06,15.52-84.65,37.91l-63.45,60.22
			c-13.72,13.02-30.98,20.86-49.17,22.32L1174.24,1173.99z"/>
	</g>
	<g>
		<path class="st8" d="M1158.98,1088.53l19.53,128.22c0,0,2.82,3.86,10.92,0.71c0,0,5.21-21.17,5.8-45.04
			c0.01-0.39,0.02-0.79,0.02-1.18c0.15-8.62,0.25-20.61,0.3-32.51c0.1-21.62,0.07-42.88,0.07-42.88L1158.98,1088.53z"/>
	</g>
	<g>
		<path class="st7" d="M1107.64,1082.99c0.16,0.2,19.54-0.45,24.77-2.61c3.33-1.38,9.54-4.55,16.12-10.47
			c3.67-3.3,7.48-7.38,11.05-12.28c3.14-4.31,2.49-6.6,4.32-12.41c5.7-18.03-10.43-19.23-17.18-13.81
			c-4.67,3.75-6.78,8.11-8.15,13.5c-1.62,6.38-2.41,13.13-9.19,21.08c-5.11,5.99-21.73,9.78-21.73,9.78V1082.99z"/>
	</g>
	<g>
		<path class="st8" d="M1169.3,1094.21l47.07,120.99c0,0,8.69,1.82,12.82-3.1c0,0-3.42-43.39-9.73-57.92
			c-5.11-11.76-6.53-76.68-26.27-76.14C1173.44,1078.58,1169.3,1094.21,1169.3,1094.21z"/>
	</g>
	<g>
		<path class="st7" d="M1161.82,1105.17c6.93,0.99,15.29,0.47,27.59-4.71c11.82-4.98,18.06-10.86,16.69-13.62
			c-0.69-1.38-1.38-2.79-2.07-4.29c-2.99-6.43-6-14.25-8.58-26.1c-0.67-3.08-1.3-6.37-1.86-9.23l0-0.01l0,0
			c-0.68-3.48-1.26-6.33-1.66-7.34c0,0-9.79-15.87-13.62-17.64c-1.37-0.63-3.16-0.94-5.21-0.97c-0.01,0-0.01,0-0.02,0
			c-9.73-0.12-25.37,6.1-30.29,14.62c-0.67,1.16-2.07,8.07-0.02,14.3C1145.64,1058.88,1157.33,1104.53,1161.82,1105.17z"/>
	</g>
	<g>
		<g>
			<path class="st19" d="M748.82,1206.6h19.57c1.4-0.95-0.38-10.25-0.38-10.25s-5.34-2.03-6.26,2.09c-0.93,4.12-6.8,5.43-9.92,5.93
				C749.71,1204.73,749.03,1205.9,748.82,1206.6z"/>
		</g>
		<g>
			<path class="st8" d="M752.06,1103.37l9.14,94.91c0,0,1.91,2.95,7.99,0.96c0,0,4.69-15.33,6.09-32.83
				c0.02-0.29,0.04-0.58,0.07-0.87c0.46-6.32,1.02-15.12,1.54-23.85c0.95-15.86,1.79-31.47,1.79-31.47L752.06,1103.37z"/>
		</g>
		<g>
			<path class="st4" d="M763.84,1121.52c0,0,3.13,21.14,4.22,27.57c2.3,13.68,7.22,17.32,7.22,17.32c0.02-0.29,0.04-0.58,0.07-0.87
				c0.46-6.32,1.02-15.12,1.54-23.85L763.84,1121.52z"/>
		</g>
		<g>
			<path class="st6" d="M719.65,1078.08c0,0-1.81-2.2-2.79-2.51c-0.98-0.31-2.86-1.77-3.11-1.17c-0.25,0.6,1.27,1.53,1.19,2.22
				c-0.04,0.3-1.21,0.32-2.5,0.3c-1.65-0.02-3.65-0.9-3.73-0.5c-0.27,1.47,1.89,4.14,4.13,4.38c1.81,0.19,4.32-0.18,7.34,0.14
				C721.23,1081.05,719.65,1078.08,719.65,1078.08z"/>
		</g>
		<g>
			<path class="st20" d="M718.41,1081.32c0.06,0.18,6.57,1.27,12.2,2.06c3.32,0.47,6.33,0.83,7.55,0.84
				c2.65,0.03,7.72-0.86,13.72-3.39c3.34-1.41,6.97-3.32,10.63-5.87c3.22-2.24,3.32-3.99,5.99-7.58c8.3-11.15-2.61-15.87-8.61-13.73
				c-4.15,1.48-6.67,4-8.92,7.42c-2.66,4.04-4.83,8.54-11.46,12.43c-5,2.93-19.88,3.73-19.88,3.73s-0.88,0.63-1.09,1.71
				C718.3,1080.13,718.41,1081.32,718.41,1081.32z"/>
		</g>
		<g>
			<path class="st19" d="M777.85,1206.6h19.57c1.4-0.95-0.38-10.25-0.38-10.25s-5.34-2.03-6.26,2.09c-0.93,4.12-6.8,5.43-9.92,5.93
				C778.74,1204.73,778.06,1205.9,777.85,1206.6z"/>
		</g>
		<g>
			<path class="st8" d="M759.4,1107.95l29.64,90.73c0,0,6.31,1.69,9.54-1.75c0,0-0.75-31.99-4.8-42.91
				c-3.27-8.84-1.69-56.55-16.2-56.96C763.08,1096.65,759.4,1107.95,759.4,1107.95z"/>
		</g>
		<g>
			<path class="st20" d="M752.62,1108.53c4.57,2.36,10.51,4.01,20.3,3.37c9.41-0.61,15.16-3.19,14.87-5.44
				c-0.14-1.12-0.28-2.27-0.41-3.48c-0.53-5.18-0.74-11.34,0.33-20.2c0.28-2.3,0.63-4.74,0.93-6.86v-0.01h0
				c0.36-2.58,0.65-4.7,0.62-5.5c0,0-2.98-13.38-5.21-15.53c-0.8-0.77-1.97-1.41-3.39-1.93c-0.01,0-0.01,0-0.01,0
				c-6.73-2.43-19.09-1.88-24.56,2.86c-0.75,0.65-3.38,5.11-3.46,9.93C752.53,1072.47,749.65,1107,752.62,1108.53z"/>
		</g>
		<g>
			<path class="st6" d="M775.89,1052.47c0.67-0.85-1.23-2.44-0.38-8.67c0.01-0.08-0.61,0.03-1.54,0.25
				c-2.77,0.66-8.35,2.24-8.6,2.31c0,0-0.01,0-0.01,0s-0.07,1.31-0.3,3.66c-0.02,0.21-0.04,0.42-0.06,0.65
				c-0.03,0.27-0.05,0.57-0.09,0.87C764.25,1056.22,772.73,1056.46,775.89,1052.47z"/>
		</g>
		<g>
			<path class="st9" d="M765.07,1050.02c4.14,0.95,10.32-5.16,10.32-5.16c-0.45-0.34-0.93-0.6-1.42-0.8
				c-2.77,0.66-8.35,2.24-8.6,2.31c0,0-0.01,0-0.01,0S765.3,1047.67,765.07,1050.02z"/>
		</g>
		<g>
			<path class="st6" d="M763.66,1046.03c0,0,1.7,0.61,3.87,0.9c3.17,0.43,7.35,0.18,8.66-3.67c2.21-6.46,5.03-10.34-1.47-12.98
				c-3.48-1.41-5.71-1.49-7.22-0.95c-1.31,0.46-2.09,1.4-2.67,2.32C763.57,1033.64,761.03,1044.9,763.66,1046.03z"/>
		</g>
		<g>
			<path class="st10" d="M765.09,1026.27c-2.37,2.14-1.03,6.07,2.16,6.3c1.28,0.09,2.33,0.04,3.05,0.36
				c1.62,0.72,1.91,3.43,1.94,4.29c0.03,0.86,0.14,1.59,2.34,1.07c0.36-0.08,0.62-0.06,0.8,0.05c0.91,0.54-0.25,3.16-0.6,3.73
				c0,0-0.5,1.88,0.62,2.79c0.14,0.11,2.34,1.07,7.64-7.05c0.83-1.27,1.63-4.15,0.34-6.91c-1.29-2.76-6.57-5.79-11.22-6.85
				C769.27,1023.39,766.87,1024.67,765.09,1026.27z"/>
		</g>
		<g>
			<path class="st11" d="M763.61,1041.86c0,0-0.14,0.84,1.81,1.5c0,0,1.63,0.56,1.93-0.3
				C767.35,1043.07,766.06,1041.83,763.61,1041.86z"/>
		</g>
		<g class="st21">
			<path class="st22" d="M730.61,1083.37c3.32,0.47,6.33,0.83,7.55,0.84c2.65,0.03,7.72-0.86,13.72-3.39
				c0.25-0.85,0.49-6.21-0.03-6.57c-1.59-1.09-4.75,5.08-10.05,6.68C737.29,1082.3,732.07,1083.15,730.61,1083.37z"/>
		</g>
		<g class="st21">
			<path class="st22" d="M785.66,1103.42c0.74,0.21,1.31-0.01,1.73-0.44c-0.53-5.18-0.74-11.34,0.33-20.2
				c0.28-2.3,0.63-4.74,0.93-6.86v-0.01c0,0-4.44-3.82-5.96-0.67c-1.52,3.16,2.83,11.53,0.43,16.53
				C780.73,1096.79,782.97,1102.67,785.66,1103.42z"/>
		</g>
		<g>
			<path class="st5" d="M777.13,1052.05c0,0-10,31.35-6.5,64.21c0,0,11.11,2.42,21.66-2.42l-4.15-34.66c0,0-11.21-11.11,0.51-22.36
				C788.64,1056.82,783.72,1051.78,777.13,1052.05z"/>
		</g>
		<g>
			<path class="st6" d="M792.28,1100.48c0,0-2.4,1.74-3.01,1.64c-1.8-0.3-2.74-1.77-4.41-1.63c-1.67,0.14-5.21,2.01-4.8,2.44
				c1.49,1.55,3.78,0.71,4.86,1.66c0.75,0.66,1.2,2.03,3.92,1.75c2.72-0.28,5.12-2.51,5.12-2.51L792.28,1100.48z"/>
		</g>
		<g>
			<path class="st6" d="M788.13,1101.91c0,0-1.21-1.87-1.37-2.41c-0.16-0.54-0.44,0.28-0.33,0.84c0.11,0.56-0.03,1.01-0.03,1.01
				L788.13,1101.91z"/>
		</g>
		<g>
			<path class="st20" d="M780.64,1052.96c0,0,10.48,2.93,17.94,13.2s9.87,17.22,6.94,22.36c-2.94,5.14-8.65,14.22-14.19,18.05
				c0,0-2.77-0.59-2.55-4.83c0,0,6.81-14.52,6.56-16.48c-0.46-3.66-10.15-12.92-12.27-14.83
				C780.95,1068.51,780.64,1052.96,780.64,1052.96z"/>
		</g>
		<g>
			<path class="st5" d="M789.68,1092.07c-6.38-0.35-14.31-0.8-19.41-1.08c1.47-22.02,6.87-38.94,6.87-38.94
				c6.59-0.27,11.52,4.77,11.52,4.77c-11.73,11.25-0.52,22.35-0.52,22.35L789.68,1092.07z"/>
		</g>
		<g>
			<path class="st5" d="M763.84,1052.33c0,0-9.51,49.14-6.01,63.79c0,0-7.65,0.39-11.41-4.93c0,0,6-50.96,9.56-55.63
				C755.97,1055.57,759.09,1052.04,763.84,1052.33z"/>
		</g>
	</g>
	<g>
		<path class="st6" d="M1166.75,1022.77c0.49-1.4-2.67-2.59-4.35-10.98c-0.02-0.11-0.76,0.31-1.86,1.01
			c-3.27,2.08-9.73,6.6-10.02,6.8c-0.01,0-0.01,0-0.01,0s0.5,1.71,1.25,4.83c0.07,0.28,0.14,0.56,0.21,0.86
			c0.09,0.37,0.19,0.75,0.27,1.16C1153.46,1032.77,1164.46,1029.3,1166.75,1022.77z"/>
	</g>
	<g>
		<path class="st9" d="M1151.75,1024.44c5.74-0.62,10.96-11.23,10.96-11.23c-0.73-0.23-1.46-0.36-2.18-0.4
			c-3.27,2.08-9.73,6.6-10.02,6.8c-0.01,0-0.01,0-0.01,0S1151,1021.32,1151.75,1024.44z"/>
	</g>
	<g>
		<path class="st6" d="M1148.16,1019.94c0,0,2.46,0.03,5.38-0.57c4.27-0.86,9.52-3.05,9.5-8.57c-0.04-9.29,1.86-15.53-7.67-16.03
			c-5.1-0.27-8,0.63-9.7,2c-1.48,1.18-2.06,2.72-2.41,4.17C1142.52,1004.05,1144.28,1019.66,1148.16,1019.94z"/>
	</g>
	<g>
		<path class="st10" d="M1141.2,993.9c-2.1,3.81,1.38,8.26,5.58,7.14c1.68-0.45,3.01-0.99,4.09-0.89c2.4,0.2,3.98,3.56,4.4,4.65
			c0.42,1.09,0.89,1.98,3.48,0.34c0.43-0.27,0.77-0.35,1.05-0.29c1.41,0.29,1.08,4.17,0.88,5.06c0,0,0.19,2.64,2.03,3.31
			c0.22,0.08,3.48,0.33,6.68-12.47c0.5-2.01,0.25-6.05-2.64-9.03c-2.88-2.98-11.02-4.52-17.48-3.81
			C1145.29,988.34,1142.76,991.06,1141.2,993.9z"/>
	</g>
	<g>
		<path class="st11" d="M1146.24,1014.6c0,0,0.2,1.14,3,1.13c0,0,2.35-0.01,2.35-1.24
			C1151.58,1014.48,1149.37,1013.47,1146.24,1014.6z"/>
	</g>
	<g>
		<path class="st5" d="M1169.22,1021.51c0,0-3.04,17.77,4.78,44.55c7.82,26.78,16.13,44.67,16.13,44.67s21.91-3.77,26-14.85
			l-21.6-43.84c0,0-8.52,4.93-13.07-30.11C1181.46,1021.92,1176.48,1020.23,1169.22,1021.51z"/>
	</g>
	<g>
		<path class="st5" d="M1151.44,1027.81c0,0-4.4,2.29-7.39,5.65c-3.21,3.6-3.9,6.59-3.9,6.59c-0.59,20.05,9.79,67.82,9.79,67.82
			c6.36,8.3,18.59,7.13,18.59,7.13C1151.89,1070.43,1151.44,1027.81,1151.44,1027.81z"/>
	</g>
	<g>
		<path class="st4" d="M934.65,1142.38c0,0-5.84,28.48-7.79,37.12c-4.16,18.41-11.11,22.98-11.11,22.98
			c-0.01-0.39-0.02-0.79-0.02-1.18c-0.15-8.62-0.25-20.61-0.3-32.5L934.65,1142.38z"/>
	</g>
	<g>
		<path class="st23" d="M2143.01,952.34c19.52-1.26,31.67,20.8,20.17,36.62l-183.68,252.67l-101.69,139.9
			c0,0-1256.18,19.87-1305.83,0c-13.43-5.37-25.21-19.09-35.23-36.25c-8.07-13.76-15.01-29.74-20.78-45.41
			c-8.39-22.75-14.33-44.83-17.66-58.47c-2.09-8.58-3.15-17.37-3.15-26.2v-12c0-17.03,13.14-31.19,30.12-32.45l721.15-53.67
			c28.24-2.1,55.03-13.33,76.33-31.98l73.68-64.54c15.94-13.96,36.04-22.27,57.19-23.64L2143.01,952.34z"/>
	</g>
	<g>
		<path class="st5" d="M1979.5,1241.63l-101.69,139.9c0,0-1256.18,19.87-1305.83,0c-13.43-5.37-25.21-19.09-35.23-36.25
			c112.11-2.08,280-5.24,451.02-10.55C1591.71,1315.99,1979.5,1241.63,1979.5,1241.63z"/>
	</g>
	<g>
		<g>
			<path class="st24" d="M793.53,1232.69c-2.27-8.83-7.15-16.62-13.77-22.49c-7.96-7.05-18.42-11.34-29.87-11.34
				c-11.21,0-21.46,4.11-29.35,10.89c-9.38,8.07-15.41,19.91-15.7,33.16c-0.02,0.34-0.02,0.68-0.02,1.01
				c0,18.3,10.95,34.07,26.63,41.12c5.63,2.53,11.87,3.94,18.43,3.94c6.78,0,13.22-1.51,18.98-4.2
				c15.39-7.17,26.07-22.79,26.07-40.86C794.94,1240.04,794.45,1236.27,793.53,1232.69z M762.29,1268.86
				c-3.74,1.87-7.95,2.93-12.41,2.93c-4.08,0-7.94-0.88-11.43-2.44c-9-4.07-15.48-12.79-16.34-23.08c-0.08-0.77-0.11-1.56-0.11-2.35
				c0-8.44,3.78-16.02,9.73-21.13c4.88-4.2,11.23-6.73,18.14-6.73c7.08,0,13.54,2.65,18.46,7.02c4.77,4.22,8.08,10.05,9.08,16.62
				c0.21,1.38,0.32,2.79,0.32,4.22C777.75,1254.83,771.45,1264.3,762.29,1268.86z"/>
		</g>
		<g>
			<path class="st5" d="M722.02,1243.91c0,0.79,0.03,1.57,0.11,2.35l-17.28-3.36c0.29-13.25,6.32-25.09,15.7-33.16l11.21,13.04
				C725.8,1227.89,722.02,1235.47,722.02,1243.91z"/>
		</g>
		<g>
			<path class="st5" d="M793.53,1232.69l-16.09,7c-1-6.57-4.31-12.39-9.08-16.62l11.41-12.88
				C786.38,1216.07,791.25,1223.86,793.53,1232.69z"/>
		</g>
		<g>
			<path class="st5" d="M768.87,1284.78c-5.77,2.7-12.2,4.2-18.98,4.2c-6.56,0-12.8-1.41-18.43-3.94l7-15.7
				c3.49,1.56,7.35,2.44,11.43,2.44c4.46,0,8.67-1.05,12.41-2.93L768.87,1284.78z"/>
		</g>
	</g>
	<g>
		<g>
			<path class="st24" d="M654.2,1241.69c-2.27-8.83-7.15-16.62-13.77-22.49c-7.96-7.05-18.42-11.34-29.87-11.34
				c-11.21,0-21.47,4.11-29.35,10.89c-9.38,8.07-15.41,19.91-15.7,33.16c-0.02,0.34-0.02,0.68-0.02,1.01
				c0,18.3,10.95,34.07,26.63,41.13c5.63,2.53,11.87,3.94,18.43,3.94c6.78,0,13.22-1.51,18.98-4.2
				c15.39-7.17,26.07-22.79,26.07-40.87C655.62,1249.04,655.13,1245.27,654.2,1241.69z M622.97,1277.85
				c-3.74,1.88-7.95,2.93-12.4,2.93c-4.08,0-7.94-0.88-11.43-2.45c-9-4.07-15.48-12.79-16.34-23.08c-0.08-0.77-0.11-1.55-0.11-2.35
				c0-8.44,3.78-16.02,9.73-21.13c4.88-4.2,11.23-6.73,18.14-6.73c7.08,0,13.54,2.65,18.46,7.02c4.77,4.22,8.08,10.05,9.08,16.62
				c0.21,1.38,0.32,2.79,0.32,4.22C638.43,1263.83,632.13,1273.29,622.97,1277.85z"/>
		</g>
		<g>
			<path class="st5" d="M582.69,1252.91c0,0.79,0.03,1.58,0.11,2.35l-17.28-3.36c0.29-13.25,6.32-25.09,15.7-33.16l11.21,13.04
				C586.47,1236.89,582.69,1244.47,582.69,1252.91z"/>
		</g>
		<g>
			<path class="st5" d="M654.2,1241.69l-16.09,7c-1.01-6.57-4.31-12.39-9.08-16.62l11.41-12.88
				C647.05,1225.07,651.93,1232.86,654.2,1241.69z"/>
		</g>
		<g>
			<path class="st5" d="M629.55,1293.78c-5.77,2.7-12.2,4.2-18.98,4.2c-6.56,0-12.8-1.41-18.43-3.94l7-15.7
				c3.49,1.57,7.35,2.45,11.43,2.45c4.45,0,8.67-1.05,12.4-2.93L629.55,1293.78z"/>
		</g>
	</g>
	<g>
		<polygon class="st15" points="661.19,995.2 658.15,993.59 678.54,955.01 703.1,991.86 700.24,993.77 678.88,961.73 		"/>
	</g>
	<g>
		<path class="st4" d="M1801.6,1529.44c0,0-33.38,1.69-45.23,14.89h27.14C1783.5,1544.33,1792.59,1535.43,1801.6,1529.44z"/>
	</g>
	<g>
		<path class="st5" d="M1862.8,1544.33c0,0,2.14-11.17-0.16-28.75c0,0-40.14-10.45-79.13,28.75H1862.8z"/>
	</g>
	<g>
		<path class="st12" d="M1833.2,1526.57c0-1.58-1.28-2.87-2.87-2.87s-2.87,1.28-2.87,2.87c0,1.58,1.28,2.87,2.87,2.87
			S1833.2,1528.16,1833.2,1526.57z"/>
	</g>
	<g>
		<path class="st5" d="M1870.81,1526.57c0,0-1.29,13.24-8.01,17.76l-2.45-10.96C1860.35,1533.38,1861.92,1534.7,1870.81,1526.57z"/>
	</g>
	<g>
		<path class="st5" d="M1712.4,1544.33c0,0-29.48-17.57-26.5-48.53l-11.92-2.87c0,0-16.63,24.24-7.74,51.4H1712.4z"/>
	</g>
	<g>
		<path class="st4" d="M1707.81,1476.88c0,0-8.65,14.91-21.91,18.92l-11.92-2.87c0,0-5.92-5.73-3.63-24.47
			C1670.35,1468.47,1684.11,1487.58,1707.81,1476.88z"/>
	</g>
	<g>
		<g>
			<path class="st11" d="M1651.06,510.37c0,0-0.28,11.15-29.38,15.67c-10.7,1.66-19.58,2.59-26.8,3.49
				c-12.43,1.55-19.96,3.01-23.39,7.96c-5.43,7.84-25.02,25.81-29.84,25.92c-4.82,0.11-27.33-20.77-27.33-20.77
				s19.79-6.66,28.83-25.35c5.72-11.82,47.37-11.46,77.21-9.6C1637.7,508.78,1651.06,510.37,1651.06,510.37z"/>
		</g>
		<g>
			<path class="st11" d="M1523.64,573.17c-8.15,6.88-34.26,15.44-43.79,15.23c-5.71-0.13-11.03,4.56-18.84,12.82
				c-0.01,0.01-0.02,0.02-0.02,0.02c-5.23,5.54-11.57,12.68-19.89,21.05c-20.75,20.89-29.94,14.57-29.94,14.57
				s6.34-11.34,15.39-25.65c0,0,0,0,0,0c16.02-25.31,40.55-59.93,53.6-57.6c20.44,3.66,33.45-8.12,33.45-8.12
				S1530.19,567.63,1523.64,573.17z"/>
		</g>
		<g>
			<path class="st11" d="M1496.44,545.49c0,0,4.03,12.2,11.3,19.13c7.28,6.93,30.08,12.81,32.14,16.13
				c2.07,3.32,7.49,15.22,7.49,15.22s17.78,0.45,23.96-12.81c0,0-18.54-10.85-21.25-15.82c-2.71-4.97-20.65-23.81-37.68-27.58
				c0,0-2.81-1.66-4.72-2.56c-1.91-0.9-9.85,0.6-11.86,3.72C1493.82,544.02,1496.44,545.49,1496.44,545.49z"/>
		</g>
		<g>
			<path class="st25" d="M1488.2,541.61c0,0,0.9-1.61,3.72-1.91c2.81-0.3,6.73,0,6.73,0s1.41,1.71,1,2.61c-0.4,0.9-1,4.34-3.21,3.17
				C1494.23,544.33,1488.2,541.61,1488.2,541.61z"/>
		</g>
		<g>
			<path class="st26" d="M1460.98,601.24c-5.23,5.54-11.57,12.68-19.89,21.05c-20.75,20.89-29.94,14.57-29.94,14.57
				s6.34-11.34,15.39-25.65c0,0,0,0,0,0S1442.14,619.43,1460.98,601.24z"/>
		</g>
		<g>
			<path class="st26" d="M1651.06,510.37c0,0-0.28,11.15-29.38,15.67c-10.7,1.66-19.58,2.59-26.8,3.49
				c22.32-3.57,25.13-17.93,25.48-21.83C1637.7,508.78,1651.06,510.37,1651.06,510.37z"/>
		</g>
	</g>
	<g>
		<g>
			<path class="st11" d="M780.61,502.93c0,0,0.22,8.59,22.63,12.07c8.24,1.28,15.08,2,20.65,2.69c9.58,1.19,15.38,2.32,18.02,6.13
				c4.18,6.04,19.27,19.88,22.99,19.97c3.71,0.09,21.05-16,21.05-16s-15.25-5.13-22.21-19.53c-4.4-9.1-36.49-8.83-59.47-7.39
				C790.89,501.71,780.61,502.93,780.61,502.93z"/>
		</g>
		<g>
			<path class="st11" d="M878.76,551.31c6.28,5.3,26.39,11.89,33.73,11.73c4.39-0.1,8.5,3.51,14.51,9.88
				c0.01,0.01,0.01,0.01,0.02,0.02c4.03,4.26,8.92,9.76,15.32,16.22c15.98,16.09,23.06,11.22,23.06,11.22s-4.88-8.73-11.85-19.76
				c0,0,0,0,0,0c-12.34-19.5-31.23-46.17-41.29-44.37c-15.74,2.82-25.77-6.25-25.77-6.25S873.71,547.04,878.76,551.31z"/>
		</g>
		<g>
			<path class="st11" d="M899.71,529.99c0,0-3.1,9.4-8.71,14.74c-5.61,5.34-23.17,9.87-24.76,12.42
				c-1.59,2.55-5.77,11.72-5.77,11.72s-13.7,0.35-18.46-9.87c0,0,14.28-8.36,16.37-12.19c2.09-3.83,15.9-18.34,29.02-21.24
				c0,0,2.17-1.28,3.64-1.97c1.47-0.7,7.58,0.47,9.13,2.86C901.72,528.86,899.71,529.99,899.71,529.99z"/>
		</g>
		<g>
			<path class="st25" d="M906.06,527c0,0-0.7-1.24-2.86-1.47s-5.19,0-5.19,0s-1.08,1.32-0.77,2.01c0.31,0.7,0.77,3.34,2.48,2.44
				C901.41,529.09,906.06,527,906.06,527z"/>
		</g>
		<g>
			<path class="st26" d="M927.02,572.93c4.03,4.26,8.92,9.76,15.32,16.22c15.98,16.09,23.06,11.22,23.06,11.22
				s-4.88-8.73-11.85-19.76c0,0,0,0,0,0S941.53,586.94,927.02,572.93z"/>
		</g>
		<g>
			<path class="st26" d="M780.61,502.93c0,0,0.22,8.59,22.63,12.07c8.24,1.28,15.08,2,20.65,2.69
				c-17.2-2.75-19.36-13.81-19.63-16.82C790.89,501.71,780.61,502.93,780.61,502.93z"/>
		</g>
	</g>
	<g>
		<g>
			<path class="st27" d="M2133.87,648.54c0.04,2.27-0.27,4.25-1.07,5.74c-5.21,9.65-20.59,13.82-24.24,22.94
				c-3.65,9.12-4.8,14.86-4.8,14.86l-15.27-4.69l-14.86-16.16c0,0,16.68-11.99,24.24-17.21c3.77-2.6,9.95-12.42,15.2-21.59
				c5.25-9.2,9.57-17.77,9.57-17.77S2133.63,636.09,2133.87,648.54z"/>
		</g>
		<g>
			<path class="st26" d="M2133.87,648.54c-5.66-19.39-20.57-16.17-20.81-16.12c5.25-9.2,9.57-17.77,9.57-17.77
				S2133.63,636.09,2133.87,648.54z"/>
		</g>
		<g>
			<path class="st11" d="M2099.62,691.3c0,0-41.12,6.16-45.82,4.6c-4.69-1.56-4.69-19.16-14.07-31.28c-1.12-1.44-2.3-3.39-3.52-5.7
				c0,0,0,0,0-0.01c-9.04-17.1-19.86-53.81-16.42-48.64c1.43,2.15,9.41,7.54,19.21,14.23c16.96,11.58,39.35,27.04,42.57,36.21
				C2086.65,675.17,2099.62,691.3,2099.62,691.3z"/>
		</g>
		<g>
			<path class="st26" d="M2036.2,658.91c-9.04-17.1-19.86-53.81-16.42-48.64c1.43,2.15,9.41,7.54,19.21,14.23
				C2037.91,626.12,2030.06,638,2036.2,658.91z"/>
		</g>
		<g>
			<path class="st11" d="M2125.06,695.43c0,0-1.39-7.13-10.43-9.3c-9.04-2.17-61.17,5.73-72.64,4.65
				c-11.47-1.09-22.09-5.95-22.86-2.65c-0.77,3.3-1.47,12.86,4.79,13.73c6.26,0.87,11.9-3.65,15.08-2.26
				c3.17,1.39,21.77,9.91,50.62,6.78C2118.46,703.25,2127.83,700.42,2125.06,695.43z"/>
		</g>
		<g>
			<path class="st25" d="M2133.88,702.42c0,0-1.73-4.3-4.34-5.48c-2.61-1.17-5.36-3.83-5.36-3.83s-1.54,4.92-0.63,6.66
				L2133.88,702.42z"/>
		</g>
	</g>
	<g>
		<g>
			<path class="st28" d="M1567.28,1073.87c0.94,18.43-13.24,34.13-31.67,35.08s-34.14-13.24-35.08-31.67
				c-0.94-18.43,13.24-34.14,31.67-35.08C1550.63,1041.26,1566.34,1055.44,1567.28,1073.87z"/>
		</g>
		<g>
			<path class="st28" d="M1780.39,1062.98c0.94,18.43-13.24,34.13-31.67,35.08c-18.43,0.94-34.14-13.24-35.08-31.67
				c-0.94-18.43,13.24-34.14,31.67-35.08C1763.75,1030.37,1779.45,1044.55,1780.39,1062.98z"/>
		</g>
		<g>
			<path class="st28" d="M1971.72,1053.21c0.94,18.43-13.24,34.13-31.67,35.08c-18.43,0.94-34.13-13.24-35.08-31.67
				c-0.94-18.43,13.24-34.14,31.67-35.08S1970.78,1034.78,1971.72,1053.21z"/>
		</g>
	</g>
	<g>
		<path class="st29" d="M1112.91,1102.49c-0.2,0.16-15.14-1.86-20.37-4.02c-3.33-1.38-9.54-4.55-16.12-10.47
			c-3.67-3.3-7.48-7.38-11.05-12.28c-3.14-4.31-2.48-6.6-4.32-12.41c-5.7-18.03,10.43-19.23,17.18-13.81
			c4.67,3.75,6.78,8.11,8.15,13.5c1.62,6.38,2.41,13.13,9.19,21.08c5.11,5.99,21.36,10.78,21.36,10.78
			S1117.31,1099.07,1112.91,1102.49z"/>
	</g>
	<g>
		<path class="st3" d="M2421.44,1267.76c0,0-53.87-4.84-105.82,0c-51.95,4.85-106,0-106,0s59.89,21.41,105.91,16.89
			C2361.54,1280.13,2372.15,1271.95,2421.44,1267.76z"/>
	</g>
	<g>
		<path class="st3" d="M2315.53,1310.36c0,0-53.87-4.85-105.82,0c-51.95,4.84-106,0-106,0s59.89,21.41,105.91,16.89
			C2255.63,1322.73,2266.24,1314.54,2315.53,1310.36z"/>
	</g>
	<g>
		<path class="st1" d="M536.74,1379.81c0,0,10.95-17.05,64.28-7.88c53.33,9.17,135.33,13.46,177.77,7.88
			c42.43-5.58,185.68-4.63,293.27,2.5c107.59,7.12,411.82-28.49,498.26-13.08c86.44,15.4,306.69-23.8,360.01-3.91
			s12.58,41.57,12.58,41.57H553.54L536.74,1379.81z"/>
	</g>
	<g>
		<path class="st3" d="M2560.76,1348.86c0,0-53.87-4.84-105.82,0c-51.96,4.85-106,0-106,0s59.89,21.41,105.91,16.89
			C2500.87,1361.23,2511.47,1353.05,2560.76,1348.86z"/>
	</g>
	<g>
		<path class="st3" d="M333.51,1066.33c0,0-13.45-2.49-26.43,0c-12.98,2.49-26.47,0-26.47,0s14.96,11.01,26.45,8.68
			C318.55,1072.69,321.2,1068.48,333.51,1066.33z"/>
	</g>
	<g>
		<path class="st3" d="M314.4,1173.45c0,0-16.72-3.1-32.86,0c-16.13,3.1-32.91,0-32.91,0s18.6,13.68,32.88,10.79
			C295.8,1181.36,299.09,1176.13,314.4,1173.45z"/>
	</g>
	<g>
		<path class="st3" d="M390.08,1192.47c0,0-22.42-3.1-44.04,0c-21.62,3.09-44.11,0-44.11,0s24.92,13.68,44.07,10.79
			C365.16,1200.37,369.57,1195.14,390.08,1192.47z"/>
	</g>
	<g>
		<path class="st3" d="M441.24,1066.33c0,0-13.45-2.49-26.43,0c-12.98,2.49-26.47,0-26.47,0s14.96,11.01,26.45,8.68
			C426.28,1072.69,428.93,1068.48,441.24,1066.33z"/>
	</g>
	<g>
		<path class="st3" d="M404.6,1051.2c0,0-16.35-2.49-32.12,0c-15.77,2.49-32.18,0-32.18,0s18.18,11,32.15,8.68
			C386.42,1057.56,389.64,1053.36,404.6,1051.2z"/>
	</g>
	<g>
		<g>
			<path class="st3" d="M2348.57,1050.9c0,0-29.05-2.61-57.07,0c-28.02,2.61-57.17,0-57.17,0s32.3,11.55,57.12,9.11
				C2316.27,1057.58,2321.99,1053.16,2348.57,1050.9z"/>
		</g>
		<g>
			<path class="st3" d="M2316.26,1073.88c0,0-29.05-2.61-57.07,0c-28.02,2.61-57.17,0-57.17,0s32.3,11.55,57.12,9.11
				C2283.96,1080.55,2289.68,1076.14,2316.26,1073.88z"/>
		</g>
		<g>
			<path class="st3" d="M2403.98,1094.64c0,0-29.05-2.61-57.07,0c-28.02,2.61-57.17,0-57.17,0s32.3,11.55,57.12,9.11
				C2371.68,1101.32,2377.39,1096.9,2403.98,1094.64z"/>
		</g>
	</g>
	<g>
		<g>
			<path class="st3" d="M2303,1529.09c0,0-62.25-5.6-122.3,0c-60.04,5.6-122.5,0-122.5,0s69.21,24.74,122.4,19.52
				C2233.79,1543.39,2246.04,1533.93,2303,1529.09z"/>
		</g>
		<g>
			<path class="st3" d="M1467.42,1424.1c0,0-53.23-5.6-104.57,0c-51.34,5.6-104.74,0-104.74,0s59.18,24.74,104.65,19.52
				C1408.25,1438.4,1418.72,1428.94,1467.42,1424.1z"/>
		</g>
		<g>
			<path class="st3" d="M1572.86,1479c0,0-62.25-5.6-122.29,0c-60.04,5.6-122.5,0-122.5,0s69.21,24.74,122.4,19.52
				C1503.65,1493.3,1515.9,1483.84,1572.86,1479z"/>
		</g>
	</g>
	<g>
		<path class="st6" d="M1107.64,1077.04c0,0-6.74-3.41-8.47-0.9c-1.73,2.51,0.61,6.86,2.68,7.03s5.79-1.24,5.79-1.24V1077.04z"/>
	</g>
	<g>
		<path class="st3" d="M1976.72,1359.65c0,0-11.43-21.5-84.23-4.33c-50.79,11.98-107.02-18.21-140.23,16.21
			c0,0,29.75-6.05,103.76,9.63C1901.26,1390.76,1927.43,1363.84,1976.72,1359.65z"/>
	</g>
	<g>
		<path class="st6" d="M1117.31,1094.97c0,0,6.74-3.41,8.47-0.9c1.73,2.51-0.61,6.86-2.68,7.03c-2.08,0.17-5.79-1.24-5.79-1.24
			V1094.97z"/>
	</g>
	<g>
		<path class="st3" d="M553.72,1371.09c0,0-126.51,35.77-183.58,12.13c-57.07-23.64,16.6-17.42,49.11-7.73
			C451.77,1385.17,553.72,1371.09,553.72,1371.09z"/>
	</g>
	<g>
		<path class="st3" d="M440.47,1366.7c0,0-92-5.53-109.99-25.59C312.5,1321.05,387.9,1325.89,440.47,1366.7z"/>
	</g>
	<g>
		<path class="st3" d="M327.77,1395.02c0,0-80.97-56.27-92.21-19.32C224.32,1412.66,258.23,1376.57,327.77,1395.02z"/>
	</g>
	<g>
		<path class="st15" d="M509.61,1497.33l-2.64-1.65c51-81.73,135.22-109.05,232.75-140.68c56.34-18.27,114.61-37.17,175-68.47
			c86.11-44.63,132.46-98.64,156.18-136.09c20.56-32.46,29.37-60.83,31.16-71.29l3.07,0.52c-1.81,10.63-10.71,39.42-31.5,72.27
			c-23.92,37.82-70.66,92.35-157.47,137.34c-60.62,31.42-119.01,50.35-175.48,68.67C643.73,1389.41,560,1416.56,509.61,1497.33z"/>
	</g>
	<g>
		<path class="st15" d="M1147.01,1106.03c-7,0-14.02-1.12-20.85-3.76c-16-6.18-23.26-17.62-23.56-18.11l2.64-1.64
			c0.07,0.11,7.1,11.14,22.2,16.91c20.04,7.66,45.25,2.61,72.89-14.59l1.64,2.64C1187.18,1096.69,1167.19,1106.03,1147.01,1106.03z"
			/>
	</g>
	<g>
		<path class="st15" d="M1184.22,1540.95l-2.68-1.58c9.21-15.67,14.3-35.55,15.56-60.78c1.58-31.58-3.15-71.52-14.05-118.7
			c-6.87-29.72-12.57-84.4-0.72-176.17c7.07-54.82,17.22-97.51,17.32-97.94l3.03,0.72c-0.4,1.69-40.22,170.43-16.59,272.67
			C1206.01,1445.46,1205.41,1504.92,1184.22,1540.95z"/>
	</g>
	<g>
		<path class="st15" d="M750.89,1543.58l-3-0.85c28.45-100.26,115.11-146.94,198.91-192.09c21.42-11.54,43.57-23.47,63.99-35.98
			c22.29-13.65,41.65-33.64,57.56-59.39c12.75-20.65,23.33-45.04,31.42-72.48c13.79-46.77,15.61-86.66,15.62-87.06l3.11,0.13
			c-0.02,0.4-1.85,40.68-15.75,87.81c-8.17,27.71-18.86,52.35-31.76,73.23c-16.16,26.17-35.87,46.5-58.58,60.41
			c-20.49,12.56-42.68,24.51-64.13,36.07C865.05,1398.22,778.99,1444.59,750.89,1543.58z"/>
	</g>
	<g>
		<path class="st15" d="M1010.06,1554.92c-11.36-94.57,46.85-160.81,78.12-196.39c28.54-32.48,40.86-99.84,46.17-150.64
			c5.77-55.18,4.72-103.22,4.71-103.7l3.11-0.07c0.01,0.48,1.06,48.72-4.73,104.1c-7.79,74.54-23.58,125.8-46.92,152.37
			c-30.95,35.22-88.56,100.78-77.36,193.96L1010.06,1554.92z"/>
	</g>
	<g>
		<path class="st15" d="M1138.85,1140.56c-4.35,0-8.5-0.62-12.46-1.88c-23.4-7.41-30.93-33.85-31.23-34.97l3-0.83
			c0.07,0.26,7.41,25.96,29.2,32.84c17.85,5.64,40.3-2.53,66.72-24.28l1.98,2.4C1174.46,1131.61,1155.29,1140.56,1138.85,1140.56z"
			/>
	</g>
	<g>
		<path class="st15" d="M1130.25,1183.2c-7.9,0-15.13-1.49-21.68-4.46c-24.5-11.13-30.08-38.84-30.31-40.01l3.06-0.59
			c0.05,0.27,5.53,27.33,28.56,37.78c19.15,8.68,44.78,3.8,76.15-14.51l1.57,2.69C1165.81,1176.82,1146.61,1183.2,1130.25,1183.2z"
			/>
	</g>
	<g>
		<path class="st15" d="M1116.09,1236.38c-8.96,0-17.34-1.58-25.12-4.75c-32.14-13.1-42.15-49.41-42.25-49.77l3.01-0.8
			c0.09,0.35,9.74,35.21,40.44,47.7c23.41,9.52,52.79,3.94,87.34-16.6l1.59,2.68C1156.97,1229.18,1135.21,1236.38,1116.09,1236.38z"
			/>
	</g>
	<g>
		<path class="st15" d="M1107.84,1303.96c-19.77,0-37.5-4.1-53.08-12.32c-40.12-21.15-51.25-62.83-51.36-63.25l3.01-0.78
			c0.1,0.41,10.93,40.81,49.84,61.3c31.26,16.46,71.62,15.9,119.95-1.68l1.06,2.93C1151.96,1299.36,1128.76,1303.96,1107.84,1303.96
			z"/>
	</g>
	<g>
		<path class="st15" d="M1106.08,1369.9c-43.82,0-79.43-9.91-106.37-29.68c-41.56-30.5-46.49-74.34-46.53-74.78l3.1-0.32
			c0.04,0.43,4.88,42.97,45.34,72.63c40.86,29.95,102.31,36.78,182.64,20.28l0.63,3.05
			C1156.23,1366.96,1129.93,1369.9,1106.08,1369.9z"/>
	</g>
	<g>
		<path class="st15" d="M1063.23,1437.97c-29.95,0-56.78-2.17-80.34-6.5c-43.26-7.97-75.59-23.22-96.09-45.32
			c-32.32-34.85-23.61-75.09-23.52-75.49l3.04,0.69c-0.09,0.39-8.41,39.12,22.82,72.74c20.05,21.59,51.81,36.51,94.39,44.34
			c54.06,9.94,125.59,8.37,212.6-4.67l0.46,3.08C1147.04,1434.25,1102.46,1437.97,1063.23,1437.97z"/>
	</g>
	<g>
		<path class="st15" d="M1042.34,1489.78c-63.8,0-118.25-4.24-162.82-12.72c-59.57-11.34-101.36-30.14-124.2-55.9
			c-11.36-12.81-23.67-34.11-17.82-62.87c0.11-0.57,0.25-1.21,0.26-1.38c-0.01,0.18,0.07,0.73,0.57,1.12l0.93-1.19l-0.49-1.52
			l1.56,0.33c0.76,0.68,0.62,1.38,0.23,3.27c-4.49,22.08,1.26,42.33,17.1,60.19c65.94,74.34,276.07,74.01,440.73,60.64l0.25,3.1
			C1141.61,1487.47,1089.42,1489.78,1042.34,1489.78z"/>
	</g>
	<g>
		<path class="st15" d="M902.12,1539.71c-14.44,0-28.47-0.27-42.1-0.82c-74.98-2.99-137.9-14.19-187.02-33.28
			c-24.2-9.4-57.94-25.96-81.25-51.41c-14.06-15.34-17.62-26.55-17.76-27.02l2.97-0.92c0.07,0.21,3.66,11.28,17.35,26.12
			c23.03,24.99,56.41,41.27,80.35,50.53c48.84,18.89,111.43,29.95,186.02,32.89c93.29,3.67,205.71-5.43,334.12-27.07l0.52,3.07
			C1085.21,1530.35,986.82,1539.71,902.12,1539.71z M575.47,1426.72l1.49-0.46v0L575.47,1426.72z"/>
	</g>
	<g>
		<path class="st6" d="M1206.29,1079.94c0,0-4.57,1.87-5.78,3.4c-1.21,1.53-5.71,6.28-4.5,7.32c1.21,1.04,6.14,1.56,8.3,0
			c2.16-1.56,4.24-8.04,4.24-8.04L1206.29,1079.94z"/>
	</g>
	<g>
		<path class="st7" d="M1173.07,1021.27c0,0,14.77-0.91,28.94,8.98c14.16,9.88,20.36,17.73,18.88,25.64
			c-1.48,7.91-4.77,22.13-10.19,29.52c0,0-3.83,0.47-5.44-5.07c0,0,2.28-21.69,1.09-24.1c-2.22-4.49-18.8-12.08-22.38-13.6
			C1180.39,1041.13,1173.07,1021.27,1173.07,1021.27z"/>
	</g>
	<g>
		<path class="st5" d="M1189.35,1049.68l-19.17-0.45c-2.77-17.15-0.96-27.72-0.96-27.72c7.26-1.28,12.25,0.41,12.25,0.41
			C1183.64,1038.68,1186.73,1046.29,1189.35,1049.68z"/>
	</g>
	<g>
		<path class="st6" d="M1203.75,1081.12c0,0-4.67,0.55-5.37,1.98c-0.69,1.43-1.69,3.93-1.69,3.93l2.16-1.04L1203.75,1081.12z"/>
	</g>
	<g>
		<path class="st6" d="M1099.16,1076.13c0,0-1.99,2.51-0.22,5.4c1.77,2.9,6.01,3.07,7.05,1.86c1.04-1.21-1.6-6.18-3.11-6.7
			C1101.37,1076.18,1099.94,1075.7,1099.16,1076.13z"/>
	</g>
	<g>
		<path class="st8" d="M1065.97,1106.46l-2.52,16.52v0.01l-1.18,7.79l-5.21,0.38l-9.07,0.67l-18.66,1.39
			c-0.01-2.08-0.01-4.04-0.01-5.87c-0.01-5.48,0-9.72,0-11.92c0-1.08,0-1.66,0-1.66l12.6-2.51l12.35-2.47l10.31-2.05
			L1065.97,1106.46z"/>
	</g>
	<g>
		<path class="st8" d="M1055.65,1112.14l-4.25,10.94l-3.41,8.77l-18.66,1.39l-17.12,1.28c0.81-4.58,1.71-9.15,2.78-13.45
			c1.22-4.97,2.65-9.6,4.35-13.49c3.09-7.1,7.09-11.75,12.43-11.6c6.11,0.17,10.72,1.77,14.18,3.92c4.4,2.73,6.93,6.32,8.31,8.9
			C1055.29,1110.76,1055.65,1112.14,1055.65,1112.14z"/>
	</g>
	<g>
		<path class="st23" d="M1063.13,1123.1c-6.93,0.99-15.29,0.47-27.59-4.71c-11.82-4.98-18.06-10.86-16.68-13.62
			c0.69-1.38,1.38-2.79,2.07-4.29c2.99-6.43,6-14.25,8.58-26.1c0.67-3.08,1.3-6.37,1.86-9.23l0-0.01l0,0
			c0.68-3.49,1.26-6.33,1.66-7.34c0,0,9.79-15.87,13.62-17.64c1.37-0.63,3.16-0.94,5.21-0.97c0.01,0,0.01,0,0.02,0
			c9.73-0.12,25.37,6.1,30.29,14.62c0.67,1.16,2.07,8.07,0.02,14.3C1079.31,1076.81,1067.62,1122.46,1063.13,1123.1z"/>
	</g>
	<g>
		<path class="st6" d="M1058.21,1040.7c-0.49-1.4,2.67-2.59,4.35-10.98c0.02-0.11,0.76,0.31,1.86,1.01c3.27,2.08,9.73,6.6,10.02,6.8
			c0.01,0,0.01,0,0.01,0s-0.5,1.71-1.25,4.83c-0.07,0.27-0.14,0.56-0.21,0.86c-0.09,0.37-0.19,0.75-0.27,1.16
			C1071.49,1050.7,1060.49,1047.23,1058.21,1040.7z"/>
	</g>
	<g>
		<path class="st9" d="M1073.2,1042.37c-5.74-0.62-10.96-11.24-10.96-11.24c0.73-0.23,1.46-0.36,2.18-0.4
			c3.27,2.08,9.73,6.6,10.02,6.8c0.01,0,0.01,0,0.01,0S1073.95,1039.25,1073.2,1042.37z"/>
	</g>
	<g>
		<path class="st6" d="M1076.79,1037.87c0,0-2.46,0.03-5.38-0.57c-4.27-0.86-9.52-3.05-9.5-8.57c0.04-9.29-1.86-15.53,7.67-16.03
			c5.1-0.27,8,0.63,9.7,2c1.48,1.18,2.06,2.72,2.41,4.17C1082.43,1021.98,1080.67,1037.59,1076.79,1037.87z"/>
	</g>
	<g>
		<path class="st30" d="M1083.75,1011.83c2.1,3.81-1.38,8.26-5.58,7.14c-1.68-0.45-3.01-0.99-4.09-0.89c-2.4,0.2-3.98,3.56-4.4,4.65
			c-0.42,1.1-0.89,1.98-3.48,0.34c-0.42-0.27-0.77-0.35-1.04-0.29c-1.41,0.29-1.08,4.17-0.88,5.06c0,0-0.19,2.64-2.04,3.31
			c-0.22,0.08-3.48,0.33-6.68-12.47c-0.5-2.01-0.25-6.05,2.64-9.03c2.89-2.98,11.02-4.52,17.48-3.8
			C1079.66,1006.27,1082.19,1008.98,1083.75,1011.83z"/>
	</g>
	<g>
		<path class="st11" d="M1078.71,1032.53c0,0-0.2,1.14-3,1.13c0,0-2.35-0.01-2.35-1.24
			C1073.37,1032.41,1075.58,1031.4,1078.71,1032.53z"/>
	</g>
	<g>
		<path class="st5" d="M1055.73,1039.44c0,0,3.04,17.77-4.78,44.55c-7.82,26.78-16.13,44.67-16.13,44.67s-21.91-3.76-26-14.85
			l21.59-43.84c0,0,8.52,4.93,13.08-30.11C1043.49,1039.85,1048.47,1038.16,1055.73,1039.44z"/>
	</g>
	<g>
		<path class="st5" d="M1081.38,1091.86c-0.39,2.49-0.81,4.95-1.24,7.35c-0.58,3.35-1.16,6.57-1.72,9.53
			c-1.87,9.92-3.42,17.06-3.42,17.06c-1.5,1.96-3.33,3.39-5.24,4.43l-7.49,0.56l-5.21,0.38c0.94-2.58,1.84-5.16,2.67-7.72
			c1.86-5.68,3.46-11.28,4.86-16.71c0.11-0.45,0.23-0.88,0.34-1.32c1.09-4.38,2.05-8.63,2.88-12.73c0.82-3.98,1.51-7.82,2.11-11.47
			v-0.01c2.85-17.35,3.44-30.29,3.57-34.22c0.03-0.83,0.03-1.26,0.03-1.26s0.02,0.01,0.05,0.03c0.03,0.01,0.08,0.04,0.15,0.07
			c0.88,0.49,4.58,2.59,7.19,5.54c2.91,3.26,3.74,6.01,3.86,6.51c0.01,0.01,0.01,0.02,0.01,0.03c0.02,0.03,0.02,0.05,0.02,0.05
			C1085.04,1066.29,1083.39,1079.39,1081.38,1091.86z"/>
	</g>
	<g>
		<path class="st5" d="M1035.6,1067.61l19.17-0.45c2.77-17.15,0.96-27.72,0.96-27.72c-6.21-1.1-13.32,0.42-13.32,0.42
			C1040.23,1056.62,1038.22,1064.22,1035.6,1067.61z"/>
	</g>
	<g>
		<g>
			<path class="st6" d="M1087.28,1104.96c0,0,4.81-1.14,6.68-0.6c1.87,0.54,8.3,1.78,7.92,3.33c-0.38,1.55-4.08,4.84-6.75,4.84
				c-2.66-0.01-8.13-4.07-8.13-4.07L1087.28,1104.96z"/>
		</g>
		<g>
			<path class="st6" d="M1090.14,1104.96c0,0,4.12-2.28,5.51-1.52c1.39,0.76,3.66,2.21,3.66,2.21l-2.36,0.42L1090.14,1104.96z"/>
		</g>
	</g>
	<g>
		<path class="st29" d="M1045.96,1039.29c0,0-12.28,0.62-16.65,10.39c-4.37,9.77,4.97,42.28,18.33,49.37
			c13.36,7.09,40.94,11.68,40.94,11.68l2.25-6.58c0,0-32.01-13.78-34.42-20.81C1054,1076.31,1045.96,1039.29,1045.96,1039.29z"/>
	</g>
	<g>
		<path class="st6" d="M1122.82,1093.23c0,0,2.55-0.78,4.15,1.54c1.6,2.31,0.33,5.71-0.93,6.15c-1.26,0.44-4.13-3.21-4.02-4.57
			C1122.12,1094.98,1122.24,1093.71,1122.82,1093.23z"/>
	</g>
	<g>
		<path class="st15" d="M656.71,984.38c0,0-50.35,120.69-32.97,143.76c17.37,23.08,86.88,21.5,107.41,8.86
			c20.53-12.64-26.85-152.62-26.85-152.62H656.71z"/>
	</g>
	<g>
		<g>
			<path class="st4" d="M638.57,1099.11l-0.29-1c0.51-0.15,51.27-15.27,68.61-58.73l0.96,0.38
				C690.32,1083.71,639.09,1098.96,638.57,1099.11z"/>
		</g>
		<g>
			<path class="st4" d="M638.57,1077.5l-0.29-1c0.4-0.12,39.83-12.23,62.41-56.23l0.92,0.47
				C678.82,1065.16,638.97,1077.39,638.57,1077.5z"/>
		</g>
		<g>
			<path class="st4" d="M718.09,1087.4c-46.44-18.29-62.54-56.73-62.7-57.11l0.96-0.39c0.15,0.38,16.11,38.42,62.12,56.54
				L718.09,1087.4z"/>
		</g>
		<g>
			<path class="st4" d="M731.28,1120.9c-49.12-8.86-72.42-43.42-72.65-43.77l0.87-0.57c0.23,0.34,23.3,34.54,71.97,43.32
				L731.28,1120.9z"/>
		</g>
		<g>
			<path class="st4" d="M697.46,1133.78c-48.44-12.02-69.46-48.01-69.67-48.37l0.9-0.51c0.21,0.36,21.02,35.97,69.02,47.88
				L697.46,1133.78z"/>
		</g>
		<g>
			<path class="st4" d="M634.23,1118.88l-0.02-1.04c0.17,0,17.37-0.49,35.94-8.43c17.1-7.31,38.92-22.62,45.75-54.05l1.01,0.22
				c-6.92,31.88-29.04,47.4-46.39,54.8C651.77,1118.39,634.4,1118.88,634.23,1118.88z"/>
		</g>
		<g>
			<path class="st4" d="M659.53,1132.36c-0.86,0-1.35-0.02-1.4-0.02l0.05-1.04c0.49,0.02,48.95,2.01,60.63-38.02l1,0.29
				C709.03,1130.5,667.7,1132.36,659.53,1132.36z"/>
		</g>
	</g>
	<g>
		<g>
			<path class="st31" d="M1860.56,1524.24l-0.44-1.06c102.21-42.2,172.37-111.38,208.53-205.59
				c20.53-53.49,30.22-115.48,28.79-184.2c-1.14-55.02-9.37-114.44-24.44-176.65c-24.58-101.44-59.69-177.48-62.95-184.43
				c-11.65,5.33-27.35,6.8-44.29,4.1c-27.04-4.29-51.54-3.31-84.59,3.42c-58.2,11.85-108.59,47.52-109.09,47.88l-0.67-0.94
				c0.51-0.35,51.08-36.16,109.54-48.07c33.19-6.74,57.8-7.76,84.99-3.42c16.97,2.69,32.65,1.19,44.14-4.26l0.52-0.25l0.25,0.52
				c0.37,0.78,37.57,79.14,63.27,185.17c15.09,62.29,23.33,121.8,24.47,176.9c1.43,68.88-8.28,131.01-28.86,184.64
				C2033.45,1412.53,1963.08,1481.91,1860.56,1524.24z"/>
		</g>
	</g>
	<g>
		<path class="st10" d="M1776.85,834.36L1776.85,834.36c1.61-0.74,2.33-2.67,1.58-4.28l-3.6-7.82c-0.74-1.61-2.67-2.33-4.28-1.58
			l0,0c-1.61,0.74-2.33,2.67-1.58,4.28l3.59,7.82C1773.31,834.39,1775.24,835.1,1776.85,834.36z"/>
	</g>
	<g>
		
			<rect x="1775.95" y="814.86" transform="matrix(0.8948 -0.4465 0.4465 0.8948 -179.7348 880.2739)" class="st10" width="3.82" height="13.26"/>
	</g>
	<g class="st13">
		<path class="st1" d="M347.86,1562.01c1.34-16.64,8.89-33.74,57.18-38.28c0,0,11.86-44.06,62.69-42.54
			c50.83,1.53,72.86,46.01,72.86,46.01s23.3-9.23,43.21,7.79c0,0,21.6-24.72,48.71-17.42c27.11,7.29,36,29,36,29
			s24.99-36.69,82.6-16.84c0,0,25.33-24.72,51.64-13.78c26.3,10.94,28.85,30.62,28.85,30.62s21.18-20.26,52.1-12.06
			c30.92,8.19,18.79,20.35,18.79,20.35s18.6-18.24,49.04-5.27c0,0,19.15-21.14,55.72-9.96c0,0,19.62-28.22,53.51-18.04
			c33.89,10.18,41.94,27.2,41.94,27.2s37.7-19.68,56.34-2.14c0,0,66.08-22.17,99.54,11.06c0,0,106.73-3.35,69.68,31.17
			c-66.37,61.84-628.47,44.51-955.1,26.3C349.09,1613.82,346.68,1576.56,347.86,1562.01z"/>
	</g>
</g>
</svg>
