<?xml version="1.0" encoding="utf-8"?>
<!-- Generator: Adobe Illustrator 25.4.1, SVG Export Plug-In . SVG Version: 6.00 Build 0)  -->
<svg version="1.1" xmlns="http://www.w3.org/2000/svg" xmlns:xlink="http://www.w3.org/1999/xlink" x="0px" y="0px"
	 viewBox="0 0 500 500" style="enable-background:new 0 0 500 500;" xml:space="preserve">
<style type="text/css">
	.st0{fill:#92E3A9;}
	.st1{opacity:0.7;fill:#FFFFFF;}
	.st2{fill:#FFFFFF;stroke:#263238;stroke-linecap:round;stroke-linejoin:round;stroke-miterlimit:10;}
	.st3{fill:#263238;stroke:#263238;stroke-linecap:round;stroke-linejoin:round;stroke-miterlimit:10;}
	.st4{fill:#263238;stroke:#263238;stroke-miterlimit:10;}
	.st5{fill:#92E3A9;stroke:#263238;stroke-linecap:round;stroke-linejoin:round;stroke-miterlimit:10;}
	.st6{fill:#ADADAD;stroke:#263238;stroke-linecap:round;stroke-linejoin:round;stroke-miterlimit:10;}
	.st7{fill:#263238;}
	.st8{fill:none;stroke:#263238;stroke-linecap:round;stroke-linejoin:round;stroke-miterlimit:10;}
</style>
<g id="Background_Simple">
	<g>
		<path class="st0" d="M481.9,244.87c-4.29,43.7-23.45,94.96-63.42,119.51c-60.39,37.11-54.09,90.98-172.95,118.33
			c-18.53,4.27-36.16,6.38-52.82,6.61c-8.96,0.13-17.64-0.3-26.02-1.24c-76.11-8.42-128.3-58.49-148.4-120.31
			C-8.17,286.48,39.88,231.14,71.79,197.7c31.92-33.44,53.6-135.11,170.25-162.89c17.79-4.23,36.01-6.68,54.29-6.82
			c41.71-0.34,87.48,11.61,119.56,38.62c2.41,2.03,4.75,4.14,7.04,6.31C467.62,115.52,487.75,185.3,481.9,244.87z"/>
		<path class="st1" d="M481.9,244.87c-4.29,43.7-23.45,94.96-63.42,119.51c-60.39,37.11-54.09,90.98-172.95,118.33
			c-18.53,4.27-36.16,6.38-52.82,6.61c-8.96,0.13-17.64-0.3-26.02-1.24c-76.11-8.42-128.3-58.49-148.4-120.31
			C-8.17,286.48,39.88,231.14,71.79,197.7c31.92-33.44,53.6-135.11,170.25-162.89c17.79-4.23,36.01-6.68,54.29-6.82
			c41.71-0.34,87.48,11.61,119.56,38.62c2.41,2.03,4.75,4.14,7.04,6.31C467.62,115.52,487.75,185.3,481.9,244.87z"/>
	</g>
</g>
<g id="Sea_Foam">
	<g>
		<path class="st2" d="M342.23,448.48c0,0-6.43-26.36-25.71-26.36c-19.29,0-23.14,14.79-30.21,16.71
			c-7.07,1.93-25.07-7.71-33.43-2.57c-8.36,5.14-9,8.36-12.86,9c-3.86,0.64-13.5-6.43-22.5-2.57c-9,3.86-9,5.79-12.21,7.07
			c-3.21,1.29-9.64-4.5-15.43-2.57c-5.79,1.93-15.43,7.07-15.43,7.07H358.3L342.23,448.48z"/>
		<g>
			<path class="st2" d="M328.66,415.32c0,2.04-2.13,3.69-4.76,3.69c-2.63,0-4.76-1.65-4.76-3.69s2.13-3.69,4.76-3.69
				C326.53,411.63,328.66,413.28,328.66,415.32z"/>
			<ellipse class="st2" cx="325.59" cy="439.59" rx="4.76" ry="3.69"/>
			<path class="st2" d="M306.16,419.01c0,1.53-1.6,2.77-3.57,2.77c-1.97,0-3.57-1.24-3.57-2.77s1.6-2.77,3.57-2.77
				C304.56,416.24,306.16,417.48,306.16,419.01z"/>
			<ellipse class="st2" cx="334.8" cy="443.27" rx="3.57" ry="2.77"/>
			<path class="st2" d="M346.17,428.68c0,0.76-0.8,1.38-1.79,1.38c-0.99,0-1.79-0.62-1.79-1.38c0-0.76,0.8-1.38,1.79-1.38
				C345.37,427.3,346.17,427.92,346.17,428.68z"/>
			<path class="st2" d="M320.92,426.99c0,0.76-0.8,1.38-1.79,1.38c-0.99,0-1.79-0.62-1.79-1.38c0-0.76,0.8-1.38,1.79-1.38
				C320.12,425.61,320.92,426.23,320.92,426.99z"/>
			<path class="st2" d="M359.63,448.03c0,0.76-0.8,1.38-1.79,1.38c-0.99,0-1.79-0.62-1.79-1.38c0-0.76,0.8-1.38,1.79-1.38
				C358.83,446.65,359.63,447.27,359.63,448.03z"/>
			<ellipse class="st2" cx="364.82" cy="442.25" rx="3.24" ry="2.51"/>
			<path class="st2" d="M299.06,433.75c0,1.53-1.6,2.77-3.57,2.77c-1.97,0-3.57-1.24-3.57-2.77c0-1.53,1.6-2.77,3.57-2.77
				C297.46,430.98,299.06,432.22,299.06,433.75z"/>
		</g>
		<path class="st2" d="M122.54,451.16c0,0-3.45-14.15-13.8-14.15s-12.42,7.94-16.22,8.97c-3.8,1.04-13.46-4.14-17.95-1.38
			c-4.49,2.76-4.83,4.49-6.9,4.83c-2.07,0.35-7.25-3.45-12.08-1.38c-4.83,2.07-4.83,3.11-6.56,3.8c-1.73,0.69-5.18-2.42-8.28-1.38
			c-3.11,1.04-8.28,3.8-8.28,3.8h98.7L122.54,451.16z"/>
	</g>
</g>
<g id="Clouds">
	<g>
		<path class="st2" d="M458.73,106.78c0,0-22.4-44.63-51.73-55.75C377.68,39.9,360.3,82.5,354.72,88.79
			c-5.57,6.29-13.27-9.75-26.52-3.45c-13.25,6.3-12.54,16.07-16.72,18.17c-4.18,2.1-9.08-4.17-16.75-1.37
			c-7.67,2.8-13.24,9.79-13.24,9.79l-25.82,2.83l222.62-0.34C478.29,114.42,462.93,115.14,458.73,106.78z"/>
		<g>
			<path class="st3" d="M458.73,106.78c0,0-22.4-44.63-51.73-55.75c-6.37-2.42-12.17-2.29-17.42-0.56
				c4.46,1.04,17.59,5.4,33.34,22.45c19.47,21.09,25.52,31.68,14.18,34.7c-11.34,3.02-20.41-5.29-31.76-0.76
				c-6.34,2.54-13.15,5.54-17.92,7.7l89.02-0.14C472.25,114.32,462.04,113.36,458.73,106.78z"/>
			<path class="st2" d="M478.29,114.42l-1.84,0C477.58,114.45,478.29,114.42,478.29,114.42z"/>
		</g>
		<path class="st3" d="M388.72,104.59c0,0-10.59-10.59-21.93-11.34c-11.34-0.76-18.15,7.56-18.15,7.56S369.06,90.98,388.72,104.59z"
			/>
		<path class="st2" d="M149.44,338.7c0,0-14.96-29.8-34.54-37.23c-19.58-7.43-31.19,21.02-34.91,25.22
			c-3.72,4.2-8.86-6.51-17.71-2.3c-8.85,4.21-8.37,10.73-11.17,12.13s-6.06-2.79-11.18-0.92s-8.84,6.54-8.84,6.54l-17.24,1.89
			l148.65-0.23C162.5,343.81,152.25,344.29,149.44,338.7z"/>
		<g>
			<path class="st4" d="M162.5,343.81l-1.23,0C162.03,343.83,162.5,343.81,162.5,343.81z"/>
			<path class="st4" d="M149.44,338.7c0,0-14.96-29.8-34.54-37.23c-5.33-2.02-10.06-1.37-14.21,0.7c2.54,0.15,11.77,1.2,17.14,8.55
				c6.27,8.58,4.29,17.48,9.89,17.81c5.61,0.33,10.22-1.65,13.19,4.62c2.05,4.33,7.56,8.5,10.78,10.67l9.56-0.01
				C158.47,343.74,151.65,343.1,149.44,338.7z"/>
		</g>
		<path class="st4" d="M81.56,329.86c0,0,7.59,0.66,10.22,3.3c2.64,2.64,13.19,5.94,15.5,4.95c2.31-0.99-13.52-7.92-18.14-10.55
			C84.53,324.91,81.56,329.86,81.56,329.86z"/>
		<path class="st2" d="M422.07,198.23c0,0-2.97-10.9-14.76-10.41c-11.79,0.49-11.8,10.45-15.39,11.88
			c-3.59,1.43-8.81-1.88-11.92-0.46c-3.12,1.43-2.58,5.22-5.63,7.12c-3.05,1.9-3.66-2.37-8.54,0.01c-4.88,2.38-6.37,5.23-6.37,5.23
			l80.15-0.12c0,0-0.4-9.48-5-11.85C430,197.27,426.67,203.92,422.07,198.23z"/>
		<path class="st3" d="M434.6,199.64c-4.6-2.36-7.93,4.28-12.53-1.4c0,0-2.97-10.9-14.76-10.41c0,0,6.79,3.75,8.5,8.91
			c1.72,5.16,1.72,5.16,1.72,5.16s5.16-2.15,9.03,1.72c2.97,2.97,3.66,6.43,3.82,7.89l9.23-0.01
			C439.6,211.48,439.21,202,434.6,199.64z"/>
		<path class="st2" d="M84.05,131.05c0,0-2.97-10.9-14.76-10.41c-11.79,0.49-11.8,10.45-15.39,11.88
			c-3.59,1.43-8.81-1.88-11.92-0.46c-3.12,1.43-2.58,5.22-5.63,7.12c-3.05,1.9-3.66-2.37-8.54,0.01c-4.88,2.38-6.37,5.23-6.37,5.23
			l80.15-0.12c0,0-0.4-9.48-5-11.85S88.65,136.73,84.05,131.05z"/>
		<path class="st3" d="M96.58,132.45c-4.6-2.36-7.93,4.28-12.53-1.4c0,0-2.97-10.9-14.76-10.41c-3.55,0.15-6.03,1.16-7.86,2.53
			l0.39,0.41c0,0,7.25-4.53,13.29,0.91c3.34,3,1.81,7.55,3.32,9.97c1.51,2.42,4.83-1.51,7.85,1.21c3.02,2.72,3.02,2.72,3.02,2.72
			s3.62-3.32,6.65-1.21s5.64,7.12,5.64,7.12S101.18,134.81,96.58,132.45z"/>
	</g>
</g>
<g id="Boat">
	<g>
		<path class="st3" d="M131.21,41.51c0,0,9.32,4.66,14.82,4.24c5.51-0.42,15.67-10.16,22.02-10.59s10.59,7.2,14.82,11.01
			c4.24,3.81,21.6-5.08,30.92-1.69c9.32,3.39,16.52,13.13,16.52,13.13s-12.28-10.59-22.02-7.62s-16.94,7.62-24.99,11.44
			c-8.05,3.81-12.28-3.81-17.79-1.69c-5.51,2.12-10.59,6.78-16.94,8.47c-6.35,1.69-12.71-1.27-12.71-1.27L131.21,41.51z"/>
		<path class="st5" d="M127.44,42.18l31.36,354.85l22.16-1.08L131.89,41.68c-0.17-1.21-1.28-2.06-2.49-1.91l0,0
			C128.2,39.92,127.34,40.99,127.44,42.18z"/>
		<polygon class="st3" points="158.8,397.03 180.96,395.95 176.71,365.61 155.49,358.44 		"/>
		<g>
			<path class="st3" d="M61.92,191.48c0,0,39.31,37.62,1.68,96.02l139.82,29.2c0,0,30.32-71.31,6.18-133.64L61.92,191.48z"/>
			<g>
				<path class="st6" d="M216.9,320.38c-0.13,0-0.26-0.01-0.39-0.04L53.67,287.77c-1.08-0.22-1.79-1.27-1.57-2.35
					c0.22-1.08,1.27-1.78,2.35-1.57l162.84,32.57c1.08,0.22,1.79,1.27,1.57,2.35C218.67,319.72,217.84,320.38,216.9,320.38z"/>
			</g>
			<g>
				<g>
					<path class="st6" d="M46.8,192.23c-2.56,0-4.72-1.99-4.89-4.58c-0.18-2.7,1.87-5.04,4.57-5.21l164.28-10.8
						c2.71-0.18,5.04,1.87,5.21,4.57c0.18,2.7-1.87,5.04-4.57,5.21l-164.28,10.8C47.02,192.22,46.91,192.23,46.8,192.23z"/>
				</g>
				<g>
					<path class="st7" d="M105.98,188.35c1.53-3.99,0.91-7.33-0.41-9.8l-3.78,0.25c0.35,0.43,0.71,0.94,1.01,1.55
						c1.23,2.46,1.05,5.23-0.52,8.25L105.98,188.35z"/>
					<path class="st7" d="M125.77,187.05c1.55-3.99,0.95-7.33-0.35-9.8l-3.76,0.25c0.33,0.42,0.67,0.91,0.96,1.48
						c1.24,2.48,1.05,5.27-0.56,8.32L125.77,187.05z"/>
					<path class="st7" d="M86.2,189.65c1.51-3.99,0.86-7.34-0.47-9.8l-3.8,0.25c0.37,0.44,0.74,0.97,1.06,1.61
						c1.23,2.44,1.05,5.19-0.49,8.18L86.2,189.65z"/>
					<path class="st7" d="M66.42,190.95c1.49-4,0.82-7.34-0.53-9.79l-3.81,0.25c0.38,0.45,0.78,1,1.11,1.67
						c1.22,2.42,1.05,5.15-0.46,8.12L66.42,190.95z"/>
					<path class="st7" d="M184.94,173.33l-3.71,0.24c0.28,0.38,0.57,0.81,0.81,1.3c1.27,2.53,1.05,5.38-0.65,8.5l0.03,0.02
						l3.69-0.24C186.72,179.18,186.2,175.83,184.94,173.33z"/>
					<path class="st7" d="M204.78,172.03l-3.7,0.24c0.27,0.36,0.54,0.77,0.77,1.24c1.27,2.53,1.05,5.38-0.65,8.5l0.13,0.07
						l3.55-0.23C206.52,177.88,206.02,174.53,204.78,172.03z"/>
					<path class="st7" d="M165.33,184.45c1.59-3.98,1.04-7.32-0.23-9.81l-3.73,0.25c0.3,0.39,0.6,0.84,0.86,1.36
						c1.26,2.51,1.05,5.36-0.62,8.45L165.33,184.45z"/>
					<path class="st7" d="M145.55,185.75c1.57-3.98,1-7.33-0.29-9.81l-3.75,0.25c0.32,0.4,0.64,0.88,0.91,1.42
						c1.25,2.49,1.05,5.32-0.59,8.38L145.55,185.75z"/>
				</g>
			</g>
		</g>
		<path class="st3" d="M204.2,31.06c0,0,11.27,5.64,17.93,5.12c6.66-0.51,18.96-12.3,26.64-12.81c7.68-0.51,12.81,8.71,17.93,13.32
			c5.12,4.61,26.13-6.15,37.4-2.05c11.27,4.1,19.98,15.88,19.98,15.88s-14.86-12.81-26.64-9.22c-11.78,3.59-20.49,9.22-30.23,13.83
			s-14.86-4.61-21.52-2.05c-6.66,2.56-12.81,8.2-20.49,10.25c-7.68,2.05-15.37-1.54-15.37-1.54L204.2,31.06z"/>
		<path class="st5" d="M200.44,27.04l32.66,369.98l23.19-1.13l-51.2-369.38c-0.18-1.27-1.34-2.16-2.61-2l0,0
			C201.23,24.68,200.33,25.79,200.44,27.04z"/>
		<polygon class="st3" points="233.1,397.03 256.29,395.9 253.64,377.02 231.49,378.23 		"/>
		<g>
			<path class="st5" d="M174.29,78.29c0.01,0.28,0.02,0.56,0.04,0.85c1.28,17.29,17.72,30.17,36.72,28.77
				c19.01-1.4,33.38-16.56,32.1-33.85c-0.02-0.28-0.06-0.56-0.09-0.84L174.29,78.29z"/>
			<g>
				<path class="st5" d="M174.28,80.79c-1.3,0-2.39-1-2.49-2.32c-0.1-1.38,0.93-2.58,2.31-2.68l68.78-5.08
					c1.39-0.11,2.58,0.93,2.68,2.31c0.1,1.38-0.93,2.58-2.31,2.68l-68.78,5.08C174.41,80.79,174.34,80.79,174.28,80.79z"/>
			</g>
		</g>
		<g>
			<path class="st5" d="M107.35,88.41c0.01,0.23,0.01,0.47,0.03,0.7c1.06,14.33,14.68,25,30.43,23.84
				c15.75-1.16,27.66-13.72,26.6-28.05c-0.02-0.24-0.05-0.47-0.07-0.7L107.35,88.41z"/>
			<g>
				<path class="st5" d="M107.35,90.49c-1.07,0-1.98-0.83-2.06-1.92c-0.08-1.14,0.77-2.13,1.91-2.22l56.99-4.21
					c1.15-0.09,2.13,0.77,2.22,1.91c0.08,1.14-0.77,2.13-1.91,2.22l-56.99,4.21C107.45,90.48,107.4,90.49,107.35,90.49z"/>
			</g>
		</g>
		<g>
			<path class="st3" d="M132.86,155.05c0,0,41.94,45.96,54.58,102.26c12.64,56.3-10.34,94.21-10.34,94.21l178.09-18.96
				c0,0,24.13-21.26,18.96-82.72c-5.17-61.47-64.92-108-64.92-108L132.86,155.05z"/>
			<g>
				<path class="st6" d="M170.77,354.09c-1.01,0-1.88-0.76-1.99-1.79c-0.11-1.1,0.68-2.08,1.78-2.2L362.44,330
					c1.09-0.11,2.08,0.68,2.2,1.78c0.12,1.1-0.68,2.08-1.78,2.2l-191.88,20.11C170.91,354.09,170.84,354.09,170.77,354.09z"/>
			</g>
			<g>
				<g>
					<path class="st6" d="M120.21,160.47c-3.13,0-5.77-2.43-5.98-5.61c-0.22-3.31,2.29-6.16,5.59-6.38l201.07-13.21
						c3.31-0.22,6.16,2.29,6.38,5.59c0.22,3.31-2.29,6.16-5.59,6.38l-201.07,13.21C120.48,160.47,120.34,160.47,120.21,160.47z"/>
				</g>
				<g>
					<path class="st7" d="M192.65,155.73c1.87-4.88,1.11-8.98-0.5-11.99l-4.63,0.3c0.43,0.53,0.87,1.15,1.24,1.89
						c1.51,3.01,1.29,6.41-0.64,10.1L192.65,155.73z"/>
					<path class="st7" d="M216.86,154.14c1.89-4.88,1.16-8.97-0.43-12l-4.61,0.3c0.41,0.51,0.82,1.11,1.18,1.82
						c1.52,3.03,1.29,6.46-0.68,10.18L216.86,154.14z"/>
					<path class="st7" d="M168.43,157.32c1.85-4.89,1.06-8.98-0.57-11.99l-4.65,0.31c0.45,0.54,0.91,1.19,1.3,1.97
						c1.5,2.99,1.29,6.36-0.6,10.01L168.43,157.32z"/>
					<path class="st7" d="M144.22,158.91c1.82-4.89,1-8.99-0.64-11.98l-4.67,0.31c0.47,0.55,0.95,1.23,1.36,2.04
						c1.49,2.96,1.29,6.31-0.56,9.93L144.22,158.91z"/>
					<path class="st7" d="M289.29,137.35l-4.54,0.3c0.35,0.46,0.69,0.99,0.99,1.59c1.55,3.09,1.29,6.59-0.79,10.4l0.04,0.02
						l4.51-0.3C291.46,144.5,290.82,140.4,289.29,137.35z"/>
					<path class="st7" d="M313.57,135.75l-4.53,0.3c0.33,0.44,0.66,0.95,0.94,1.52c1.55,3.09,1.29,6.59-0.79,10.4l0.17,0.09
						l4.35-0.29C315.7,142.91,315.08,138.82,313.57,135.75z"/>
					<path class="st7" d="M265.28,150.95c1.94-4.87,1.27-8.96-0.28-12.01l-4.56,0.3c0.37,0.48,0.74,1.03,1.05,1.67
						c1.54,3.08,1.29,6.55-0.76,10.34L265.28,150.95z"/>
					<path class="st7" d="M241.07,152.54c1.92-4.87,1.22-8.97-0.35-12l-4.58,0.3c0.39,0.5,0.78,1.07,1.12,1.74
						c1.53,3.05,1.29,6.51-0.72,10.26L241.07,152.54z"/>
				</g>
			</g>
		</g>
		<g>
			<g>
				<path class="st5" d="M93.37,320.63l48.85,23.02l-0.56,13.48l25.83,9.55l-1.12,18.53c0,0,78.61,11.23,116.8-0.56l1.68-13.48
					l97.14-38.18l63.52-46.3c1.45-1.06,3.51-0.61,4.38,0.97l0,0c0.68,1.22,0.42,2.76-0.62,3.69l-60.54,54c0,0-1.12,25.27-14.6,60.64
					c-13.48,35.38-29.76,48.29-29.76,48.29H127.62C127.62,454.27,59.67,407.1,93.37,320.63z"/>
				<g>
					<circle class="st6" cx="169.17" cy="415.52" r="14.6"/>
					<circle class="st3" cx="169.17" cy="415.52" r="10"/>
				</g>
				<g>
					<circle class="st6" cx="213.07" cy="415.52" r="14.6"/>
					<circle class="st3" cx="213.07" cy="415.52" r="10"/>
				</g>
				<g>
					<circle class="st6" cx="256.98" cy="415.52" r="14.6"/>
					<circle class="st3" cx="256.98" cy="415.52" r="10"/>
				</g>
				<path class="st8" d="M93.93,339.16c0,0,27.51,14.04,39.31,17.97"/>
				<path class="st8" d="M90.56,355.44c0,0,32.01,16.85,69.07,28.08"/>
				<path class="st8" d="M291.02,381.83c0,0,64.01-19.65,87.04-33.13"/>
				<path class="st8" d="M90,377.34c0,0,34.92,17.99,61.77,23.58"/>
				<path class="st8" d="M288.22,404.29c0,0,59.52-15.72,89.84-32.57"/>
				<path class="st8" d="M381.43,361.06c0,0-14.6,62.33-34.81,83.67"/>
				<line class="st8" x1="383.11" y1="353.76" x2="383.11" y2="340.28"/>
				<path class="st8" d="M98.42,404.29c0,0,20.21,10.67,48.85,17.97"/>
				<path class="st8" d="M283.16,423.39c0,0,48.85-5.05,81.42-18.53"/>
				<path class="st8" d="M346.05,434.06c-155.54,23.02-233.03-1.68-233.03-1.68"/>
			</g>
		</g>
	</g>
</g>
<g id="Sea">
	<g>
		<line class="st8" x1="483.29" y1="454.27" x2="10.21" y2="454.27"/>
		<line class="st8" x1="75.22" y1="464.69" x2="128" y2="464.69"/>
		<line class="st8" x1="202.02" y1="466.62" x2="158.25" y2="466.62"/>
		<line class="st8" x1="122.2" y1="478.21" x2="189.79" y2="478.21"/>
		<line class="st8" x1="245.78" y1="463.4" x2="229.69" y2="463.4"/>
		<line class="st8" x1="271.53" y1="459.54" x2="205.88" y2="459.54"/>
		<line class="st8" x1="141.51" y1="461.47" x2="171.76" y2="461.47"/>
		<line class="st8" x1="54.62" y1="471.77" x2="102.25" y2="471.77"/>
		<line class="st8" x1="54.62" y1="460.19" x2="35.31" y2="460.19"/>
		<line class="st8" x1="292.13" y1="458.9" x2="325.59" y2="458.9"/>
		<line class="st8" x1="276.68" y1="467.27" x2="366.14" y2="467.27"/>
		<line class="st8" x1="348.77" y1="462.12" x2="379.66" y2="462.12"/>
		<line class="st8" x1="229.05" y1="474.35" x2="275.39" y2="474.35"/>
		<line class="st8" x1="388.67" y1="468.55" x2="403.48" y2="468.55"/>
		<line class="st8" x1="392.53" y1="459.54" x2="442.09" y2="459.54"/>
		<line class="st8" x1="453.68" y1="467.27" x2="426" y2="467.27"/>
		<line class="st8" x1="315.94" y1="480.78" x2="375.8" y2="480.78"/>
		<line class="st8" x1="203.95" y1="489.15" x2="234.84" y2="489.15"/>
		<line class="st8" x1="414.42" y1="489.79" x2="384.81" y2="489.79"/>
		<line class="st8" x1="81.65" y1="490.44" x2="126.07" y2="490.44"/>
	</g>
</g>
<g id="Skull">
	<g>
		<path class="st2" d="M305.86,216.04c1.17-11.58-6.29-17.17-6.29-17.17s0.62-35.65-37.05-34.11c0,0-16.71-2.19-28.29,14.18
			c-11.57,16.36-2.95,29.67-1.59,32.31c1.36,2.64-3.22,7.8,1.96,15.79c5.18,7.99,17.9,9.55,21.57,9.06
			c3.67-0.49,5.53-1.46,5.53-1.46s0.01,9.47,0.17,14.94c0.16,5.47,7.59,1.95,7.59,1.95s3.49,4.23,7.16,3.75
			c3.67-0.49,6.73-4.29,6.73-4.29s3.21,2.03,6.53,1.16c3.32-0.88,6.02-4.71,6.02-4.71s4.75-0.05,4.86-2.96
			c0.11-2.91-8.21-14.74-8.21-14.74S304.69,227.62,305.86,216.04z M259.01,224.69c-3.51,0.56-7.15-0.17-10.47-1.54
			c-2.5-1.04-4.99-2.56-6.26-4.99c-1.16-2.21-1.13-4.93-0.21-7.22c2.64-6.62,9.87-5.43,16.23-3.3c3.78,1.26,7.04,0.92,9.07,4.42
			c0.39,0.67,0.73,1.38,0.96,2.12c0.2,0.65,0.31,1.32,0.28,2C268.35,220.94,262.94,224.06,259.01,224.69z M277.25,229.1
			c0,0-0.6,6.15-3.44,4.15c-2.85-2.01,0.48-12.72,0.48-12.72s6.08,3.31,8.03,9.63C284.27,236.48,277.25,229.1,277.25,229.1z
			 M296.48,214.09c-2.14,2.35-4.84,4.25-8.05,4.95c-3.59,0.79-9.61-0.13-12.06-4.29c-0.35-0.59-0.57-1.22-0.71-1.87
			c-0.16-0.73-0.2-1.48-0.19-2.21c0.05-3.79,3.32-6.01,5.89-8.43c4.33-4.05,9.46-6.17,14.79-1.2c1.85,1.72,3.16,4.12,3.23,6.48
			C299.46,210.12,298.09,212.32,296.48,214.09z"/>
		<path class="st2" d="M325.97,282.92c-6.23,0.69-8.73,8.9-8.73,8.9l-27.87-16.03l30.81-32.59c0,0,7.54,3.41,11.24,2.19
			s5.09-9.14,2.26-11.51c-2.83-2.37-7.23-1.93-7.23-1.93s1.38-7.56-3.59-11.16c-4.98-3.6-11.01,1.47-11.51,5.07
			c-0.5,3.61,2.58,8.91,2.58,8.91l-33.24,38.98l-42.64-21.37c0,0-2.65-16.93-8.07-18.38c-5.42-1.45-11.5,4.71-8.76,9.63
			c2.74,4.91,4.49,6.85,4.49,6.85s-6.44,6.14-2.98,11.1c3.46,4.96,12.14-2.48,12.14-2.48l40.42,20.75l-25.37,25.4
			c0,0-1.88-8.14-6.28-7.7c-4.4,0.44-9.49,9.58-5.97,13.09c3.52,3.51,9.81,1.37,9.81,1.37s0.74,9.52,6.96,9.2
			c6.22-0.32,5.75-7.27,5.09-9.14c-0.66-1.86-2.01-4.87-2.01-4.87l24.17-24.07l34.49,17.71c0,0-4.52,3.71-3.94,7.76
			c0.58,4.04,7.36,8.13,10.78,4.71c3.42-3.42,1.56-12.28,1.56-12.28s7.37-1.7,8.29-6.74C333.76,289.26,332.2,282.23,325.97,282.92z"
			/>
	</g>
</g>
</svg>
