<?xml version="1.0" encoding="utf-8"?>
<!-- Generator: Adobe Illustrator 25.4.1, SVG Export Plug-In . SVG Version: 6.00 Build 0)  -->
<svg version="1.1" xmlns="http://www.w3.org/2000/svg" xmlns:xlink="http://www.w3.org/1999/xlink" x="0px" y="0px"
	 viewBox="0 0 750 500" style="enable-background:new 0 0 750 500;" xml:space="preserve">
<g id="BACKGROUND">
</g>
<g id="OBJECTS">
	<g>
		<g>
			<g>
				<g>
					<g>
						<polygon style="fill:#FDA635;" points="152.76,303.79 98.89,302.79 99,272.38 153.1,271.06 						"/>
						<g>
							<g>
								<polygon style="fill:#FFD13F;" points="147.75,300.83 149.76,300.86 150.02,274.34 148,274.38 								"/>
								<polygon style="fill:#EF701B;" points="148.09,300.84 149.76,300.86 150.02,274.34 148.35,274.38 								"/>
							</g>
							<g>
								<polygon style="fill:#FFD13F;" points="143.28,300.77 145.26,300.8 145.51,274.43 143.51,274.47 								"/>
								<polygon style="fill:#EF701B;" points="143.62,300.77 145.26,300.8 145.51,274.43 143.86,274.47 								"/>
							</g>
							<g>
								<polygon style="fill:#FFD13F;" points="138.86,300.7 140.82,300.73 141.05,274.52 139.08,274.56 								"/>
								<polygon style="fill:#EF701B;" points="139.19,300.71 140.82,300.73 141.05,274.52 139.42,274.56 								"/>
							</g>
							<g>
								<polygon style="fill:#FFD13F;" points="134.49,300.64 136.43,300.67 136.65,274.61 134.7,274.65 								"/>
								<polygon style="fill:#EF701B;" points="134.82,300.64 136.43,300.67 136.65,274.61 135.03,274.64 								"/>
							</g>
							<g>
								<polygon style="fill:#FFD13F;" points="130.18,300.57 132.09,300.6 132.29,274.7 130.37,274.74 								"/>
								<polygon style="fill:#EF701B;" points="130.5,300.58 132.09,300.6 132.29,274.7 130.7,274.73 								"/>
							</g>
							<g>
								<polygon style="fill:#FFD13F;" points="125.91,300.51 127.81,300.54 127.99,274.79 126.09,274.83 								"/>
								<polygon style="fill:#EF701B;" points="126.24,300.52 127.81,300.54 127.99,274.79 126.42,274.82 								"/>
							</g>
							<g>
								<polygon style="fill:#FFD13F;" points="121.69,300.45 123.57,300.48 123.74,274.87 121.86,274.91 								"/>
								<polygon style="fill:#EF701B;" points="122.01,300.45 123.57,300.48 123.74,274.87 122.18,274.9 								"/>
							</g>
							<g>
								<polygon style="fill:#FFD13F;" points="117.52,300.39 119.38,300.41 119.53,274.96 117.68,274.99 								"/>
								<polygon style="fill:#EF701B;" points="117.84,300.39 119.38,300.41 119.53,274.96 117.99,274.99 								"/>
							</g>
							<g>
								<polygon style="fill:#FFD13F;" points="113.4,300.33 115.24,300.35 115.38,275.04 113.54,275.08 								"/>
								<polygon style="fill:#EF701B;" points="113.72,300.33 115.24,300.35 115.38,275.04 113.86,275.07 								"/>
							</g>
							<g>
								<polygon style="fill:#FFD13F;" points="109.33,300.26 111.14,300.29 111.27,275.12 109.45,275.16 								"/>
								<polygon style="fill:#EF701B;" points="109.64,300.27 111.14,300.29 111.27,275.12 109.76,275.15 								"/>
							</g>
							<g>
								<polygon style="fill:#FFD13F;" points="105.3,300.2 107.09,300.23 107.21,275.21 105.41,275.24 								"/>
								<polygon style="fill:#EF701B;" points="105.61,300.21 107.09,300.23 107.21,275.21 105.72,275.24 								"/>
							</g>
							<g>
								<polygon style="fill:#FFD13F;" points="101.31,300.15 103.09,300.17 103.19,275.29 101.41,275.32 								"/>
								<polygon style="fill:#EF701B;" points="101.62,300.15 103.09,300.17 103.19,275.29 101.72,275.32 								"/>
							</g>
						</g>
					</g>
					<g>
						<polygon style="fill:#FFD13F;" points="182.66,304.35 152.76,303.79 153.1,271.06 183.13,270.33 						"/>
						<polygon style="fill:#EF701B;" points="167.77,304.07 167.07,304.06 167.47,270.71 168.17,270.7 						"/>
						<polygon style="fill:#FFF5DF;" points="164.17,299.48 155.92,299.37 155.95,296.51 164.21,296.59 						"/>
						<polygon style="fill:#FFF5DF;" points="179.61,299.68 171.02,299.57 171.05,296.65 179.65,296.73 						"/>
					</g>
				</g>
				<g>
					<g>
						<polygon style="fill:#EA3D3D;" points="118,303.15 68.77,302.23 68.77,273.12 118.18,271.91 						"/>
						<g>
							<g>
								<polygon style="fill:#FC7070;" points="113.42,300.33 115.25,300.35 115.39,275.04 113.55,275.08 								"/>
								<polygon style="fill:#B72727;" points="113.73,300.33 115.25,300.35 115.39,275.04 113.87,275.07 								"/>
							</g>
							<g>
								<polygon style="fill:#FC7070;" points="109.34,300.26 111.15,300.29 111.28,275.12 109.47,275.16 								"/>
								<polygon style="fill:#B72727;" points="109.65,300.27 111.15,300.29 111.28,275.12 109.78,275.15 								"/>
							</g>
							<g>
								<polygon style="fill:#FC7070;" points="105.31,300.21 107.1,300.23 107.22,275.21 105.42,275.24 								"/>
								<polygon style="fill:#B72727;" points="105.62,300.21 107.1,300.23 107.22,275.21 105.73,275.24 								"/>
							</g>
							<g>
								<polygon style="fill:#FC7070;" points="101.33,300.15 103.1,300.17 103.2,275.29 101.43,275.32 								"/>
								<polygon style="fill:#B72727;" points="101.63,300.15 103.1,300.17 103.2,275.29 101.73,275.32 								"/>
							</g>
							<g>
								<polygon style="fill:#FC7070;" points="97.39,300.09 99.14,300.11 99.23,275.37 97.47,275.4 								"/>
								<polygon style="fill:#B72727;" points="97.69,300.09 99.14,300.11 99.23,275.37 97.78,275.4 								"/>
							</g>
							<g>
								<polygon style="fill:#FC7070;" points="93.49,300.03 95.22,300.06 95.3,275.45 93.57,275.48 								"/>
								<polygon style="fill:#B72727;" points="93.79,300.03 95.22,300.06 95.3,275.45 93.86,275.47 								"/>
							</g>
							<g>
								<polygon style="fill:#FC7070;" points="89.64,299.97 91.35,300 91.42,275.52 89.7,275.56 								"/>
								<polygon style="fill:#B72727;" points="89.93,299.98 91.35,300 91.42,275.52 89.99,275.55 								"/>
							</g>
							<g>
								<polygon style="fill:#FC7070;" points="85.83,299.92 87.52,299.94 87.58,275.6 85.88,275.64 								"/>
								<polygon style="fill:#B72727;" points="86.12,299.92 87.52,299.94 87.58,275.6 86.17,275.63 								"/>
							</g>
							<g>
								<polygon style="fill:#FC7070;" points="82.06,299.86 83.73,299.89 83.78,275.68 82.09,275.71 								"/>
								<polygon style="fill:#B72727;" points="82.34,299.86 83.73,299.89 83.78,275.68 82.38,275.71 								"/>
							</g>
							<g>
								<polygon style="fill:#FC7070;" points="78.33,299.81 79.98,299.83 80.02,275.75 78.35,275.79 								"/>
								<polygon style="fill:#B72727;" points="78.61,299.81 79.98,299.83 80.02,275.75 78.64,275.78 								"/>
							</g>
							<g>
								<polygon style="fill:#FC7070;" points="74.64,299.75 76.28,299.78 76.3,275.83 74.65,275.86 								"/>
								<polygon style="fill:#B72727;" points="74.92,299.76 76.28,299.78 76.3,275.83 74.94,275.86 								"/>
							</g>
							<g>
								<polygon style="fill:#FC7070;" points="70.99,299.7 72.61,299.72 72.62,275.9 70.99,275.94 								"/>
								<polygon style="fill:#B72727;" points="71.26,299.7 72.61,299.72 72.62,275.9 71.27,275.93 								"/>
							</g>
						</g>
					</g>
					<g>
						<polygon style="fill:#FC7070;" points="145.17,303.65 118,303.15 118.18,271.91 145.48,271.25 						"/>
						<polygon style="fill:#B72727;" points="131.65,303.4 131.02,303.39 131.26,271.6 131.9,271.58 						"/>
						<polygon style="fill:#FFA4A4;" points="128.37,299.02 120.85,298.93 120.87,296.2 128.39,296.27 						"/>
						<polygon style="fill:#FFA4A4;" points="142.39,299.2 134.59,299.1 134.61,296.32 142.41,296.39 						"/>
					</g>
				</g>
				<g>
					<g>
						<polygon style="fill:#583D71;" points="138.42,271.42 86.32,272.69 86.38,242.61 138.69,239.07 						"/>
						<g>
							<g>
								<polygon style="fill:#8C71A9;" points="133.57,268.71 135.51,268.65 135.72,242.44 133.78,242.56 								"/>
								<polygon style="fill:#342447;" points="133.9,268.7 135.51,268.65 135.72,242.44 134.11,242.54 								"/>
							</g>
							<g>
								<polygon style="fill:#8C71A9;" points="129.25,268.83 131.17,268.78 131.37,242.71 129.44,242.84 								"/>
								<polygon style="fill:#342447;" points="129.58,268.82 131.17,268.78 131.37,242.71 129.77,242.81 								"/>
							</g>
							<g>
								<polygon style="fill:#8C71A9;" points="124.98,268.95 126.88,268.9 127.06,242.99 125.16,243.11 								"/>
								<polygon style="fill:#342447;" points="125.3,268.94 126.88,268.9 127.06,242.99 125.48,243.09 								"/>
							</g>
							<g>
								<polygon style="fill:#8C71A9;" points="120.76,269.07 122.63,269.02 122.8,243.26 120.92,243.38 								"/>
								<polygon style="fill:#342447;" points="121.08,269.06 122.63,269.02 122.8,243.26 121.24,243.36 								"/>
							</g>
							<g>
								<polygon style="fill:#8C71A9;" points="116.59,269.19 118.44,269.13 118.59,243.52 116.73,243.64 								"/>
								<polygon style="fill:#342447;" points="116.9,269.18 118.44,269.13 118.59,243.52 117.05,243.62 								"/>
							</g>
							<g>
								<polygon style="fill:#8C71A9;" points="112.46,269.3 114.29,269.25 114.43,243.79 112.59,243.9 								"/>
								<polygon style="fill:#342447;" points="112.77,269.29 114.29,269.25 114.43,243.79 112.91,243.88 								"/>
							</g>
							<g>
								<polygon style="fill:#8C71A9;" points="108.38,269.42 110.19,269.37 110.32,244.05 108.5,244.16 								"/>
								<polygon style="fill:#342447;" points="108.69,269.41 110.19,269.37 110.32,244.05 108.81,244.14 								"/>
							</g>
							<g>
								<polygon style="fill:#8C71A9;" points="104.35,269.53 106.14,269.48 106.26,244.31 104.46,244.42 								"/>
								<polygon style="fill:#342447;" points="104.66,269.52 106.14,269.48 106.26,244.31 104.77,244.4 								"/>
							</g>
							<g>
								<polygon style="fill:#8C71A9;" points="100.36,269.64 102.13,269.59 102.24,244.56 100.46,244.67 								"/>
								<polygon style="fill:#342447;" points="100.67,269.64 102.13,269.59 102.24,244.56 100.76,244.65 								"/>
							</g>
							<g>
								<polygon style="fill:#8C71A9;" points="96.42,269.76 98.17,269.71 98.26,244.81 96.5,244.92 								"/>
								<polygon style="fill:#342447;" points="96.72,269.75 98.17,269.71 98.26,244.81 96.8,244.91 								"/>
							</g>
							<g>
								<polygon style="fill:#8C71A9;" points="92.52,269.87 94.25,269.82 94.33,245.06 92.59,245.17 								"/>
								<polygon style="fill:#342447;" points="92.82,269.86 94.25,269.82 94.33,245.06 92.89,245.15 								"/>
							</g>
							<g>
								<polygon style="fill:#8C71A9;" points="88.66,269.97 90.38,269.93 90.44,245.31 88.72,245.42 								"/>
								<polygon style="fill:#342447;" points="88.96,269.97 90.38,269.93 90.44,245.31 89.02,245.4 								"/>
							</g>
						</g>
					</g>
					<g>
						<polygon style="fill:#8C71A9;" points="167.28,270.72 138.42,271.42 138.69,239.07 167.68,237.11 						"/>
						<polygon style="fill:#342447;" points="152.91,271.07 152.24,271.08 152.58,238.13 153.25,238.08 						"/>
						<polygon style="fill:#BFA4E0;" points="149.44,266.68 141.46,266.92 141.49,264.1 149.46,263.83 						"/>
						<polygon style="fill:#BFA4E0;" points="164.33,266.23 156.04,266.48 156.07,263.6 164.37,263.32 						"/>
					</g>
				</g>
			</g>
			<g>
				<g>
					
						<line style="fill:none;stroke:#162A45;stroke-width:0.75;stroke-linecap:round;stroke-linejoin:round;stroke-miterlimit:10;" x1="201.55" y1="165.55" x2="199.86" y2="72.52"/>
					
						<polygon style="fill:none;stroke:#162A45;stroke-width:0.75;stroke-linecap:round;stroke-linejoin:round;stroke-miterlimit:10;" points="
						225.62,104.96 175.28,104.91 174.54,86.04 225.67,86.09 					"/>
					
						<line style="fill:none;stroke:#162A45;stroke-width:0.75;stroke-linecap:round;stroke-linejoin:round;stroke-miterlimit:10;" x1="169.31" y1="78.8" x2="230.64" y2="78.87"/>
					
						<polygon style="fill:none;stroke:#162A45;stroke-width:0.75;stroke-linecap:round;stroke-linejoin:round;stroke-miterlimit:10;" points="
						219.64,137.69 182.44,137.66 181.98,124.14 219.61,124.18 					"/>
					
						<line style="fill:none;stroke:#162A45;stroke-width:0.75;stroke-linecap:round;stroke-linejoin:round;stroke-miterlimit:10;" x1="178.17" y1="118.99" x2="223.23" y2="119.04"/>
					
						<line style="fill:none;stroke:#162A45;stroke-width:0.75;stroke-linecap:round;stroke-linejoin:round;stroke-miterlimit:10;" x1="185.01" y1="148.09" x2="217.45" y2="148.12"/>
				</g>
				<g>
					<polygon style="fill:#FC7070;" points="252.46,162.94 229.29,162.92 229.64,106.37 253.94,106.4 					"/>
					<polygon style="fill:#FFFFFF;" points="253.5,123.28 229.54,123.26 229.59,114.82 253.72,114.84 					"/>
					<polygon style="fill:#FFFFFF;" points="253.06,139.84 229.44,139.82 229.49,131.62 253.28,131.64 					"/>
					<polygon style="fill:#FFFFFF;" points="252.64,155.95 229.34,155.93 229.39,147.95 252.85,147.97 					"/>
				</g>
				<g>
					<g>
						<polygon style="fill:#A1C5EB;" points="247.3,320.54 167.91,320.54 160.41,184.05 250.75,184.1 						"/>
						<polygon style="fill:#FFFFFF;" points="292.91,320.54 201.67,320.54 198.83,184.07 302.64,184.14 						"/>
					</g>
					<g>
						<polygon style="fill:#FFFFFF;" points="295.69,161.83 212.43,161.77 212.63,184.08 287.54,184.13 						"/>
						<polygon style="fill:#A1C5EB;" points="220.5,161.78 168.43,161.74 169.48,184.05 213.8,184.08 						"/>
						<g>
							<polygon style="fill:#162A45;" points="229.3,180.91 219.7,180.9 224.04,166.4 233.77,166.4 							"/>
							<polygon style="fill:#162A45;" points="243.23,180.92 233.62,180.91 238.14,166.41 247.87,166.41 							"/>
							<polygon style="fill:#162A45;" points="257.15,180.93 247.55,180.92 252.24,166.42 261.97,166.43 							"/>
							<polygon style="fill:#162A45;" points="271.07,180.94 261.47,180.93 266.34,166.43 276.07,166.44 							"/>
							<polygon style="fill:#162A45;" points="284.98,180.95 275.39,180.94 280.44,166.44 290.16,166.45 							"/>
						</g>
					</g>
					<g>
						<polygon style="fill:#A1C5EB;" points="135.25,184.03 172.86,184.05 182.06,211.66 145.37,211.64 						"/>
						<polygon style="fill:#FFFFFF;" points="156.4,184.04 201.88,184.07 202.38,211.67 165.7,211.65 						"/>
					</g>
					<g>
						<polygon style="fill:#FFFFFF;" points="337.69,184.16 286.09,184.13 284.53,211.71 325.81,211.73 						"/>
					</g>
					<g>
						<polygon style="fill:#162A45;" points="171.14,226.23 169.29,226.23 169.01,220.61 170.88,220.61 						"/>
						<polygon style="fill:#162A45;" points="181.42,226.23 179.57,226.23 179.35,220.61 181.21,220.61 						"/>
						<polygon style="fill:#162A45;" points="191.7,226.24 189.85,226.23 189.68,220.62 191.54,220.62 						"/>
						<polygon style="fill:#162A45;" points="171.86,241.49 170.03,241.49 169.77,236.03 171.6,236.03 						"/>
						<polygon style="fill:#162A45;" points="182,241.49 180.17,241.49 179.95,236.03 181.79,236.03 						"/>
						<polygon style="fill:#162A45;" points="192.13,241.5 190.31,241.5 190.14,236.03 191.98,236.04 						"/>
						<polygon style="fill:#162A45;" points="172.56,256.33 170.76,256.33 170.5,251.02 172.31,251.02 						"/>
						<polygon style="fill:#162A45;" points="182.56,256.33 180.75,256.33 180.55,251.02 182.36,251.02 						"/>
						<polygon style="fill:#162A45;" points="192.55,256.33 190.75,256.33 190.59,251.02 192.4,251.02 						"/>
						<polygon style="fill:#162A45;" points="173.24,270.76 171.47,270.76 171.21,265.59 173,265.59 						"/>
						<polygon style="fill:#162A45;" points="183.1,270.76 181.32,270.76 181.12,265.6 182.91,265.6 						"/>
						<polygon style="fill:#162A45;" points="192.96,270.77 191.18,270.77 191.03,265.6 192.81,265.6 						"/>
						<polygon style="fill:#162A45;" points="173.91,284.8 172.15,284.8 171.91,279.78 173.67,279.78 						"/>
						<polygon style="fill:#162A45;" points="183.63,284.81 181.88,284.8 181.68,279.78 183.44,279.78 						"/>
						<polygon style="fill:#162A45;" points="193.36,284.81 191.6,284.81 191.45,279.78 193.21,279.78 						"/>
					</g>
					<g>
						<polygon style="fill:#162A45;" points="221.52,205.68 215.84,205.68 215.8,199.6 221.52,199.6 						"/>
						<polygon style="fill:#162A45;" points="253.04,205.7 247.36,205.69 247.5,199.61 253.21,199.62 						"/>
						<polygon style="fill:#162A45;" points="284.56,205.71 278.87,205.71 279.18,199.63 284.9,199.63 						"/>
						<polygon style="fill:#162A45;" points="221.54,222.18 215.93,222.18 215.9,216.27 221.53,216.28 						"/>
						<polygon style="fill:#162A45;" points="252.59,222.19 246.99,222.19 247.12,216.29 252.75,216.29 						"/>
						<polygon style="fill:#162A45;" points="283.63,222.21 278.03,222.2 278.33,216.3 283.96,216.31 						"/>
						<polygon style="fill:#162A45;" points="221.55,238.19 216.03,238.19 215.99,232.46 221.54,232.46 						"/>
						<polygon style="fill:#162A45;" points="252.14,238.2 246.62,238.2 246.75,232.47 252.3,232.47 						"/>
						<polygon style="fill:#162A45;" points="282.72,238.21 277.21,238.21 277.5,232.48 283.05,232.49 						"/>
						<polygon style="fill:#162A45;" points="221.56,253.74 216.12,253.74 216.09,248.17 221.55,248.17 						"/>
						<polygon style="fill:#162A45;" points="251.71,253.75 246.27,253.74 246.4,248.18 251.86,248.18 						"/>
						<polygon style="fill:#162A45;" points="281.85,253.76 276.41,253.75 276.7,248.19 282.16,248.19 						"/>
						<polygon style="fill:#162A45;" points="221.57,268.84 216.21,268.84 216.17,263.43 221.56,263.44 						"/>
						<polygon style="fill:#162A45;" points="251.29,268.85 245.93,268.85 246.05,263.44 251.44,263.44 						"/>
						<polygon style="fill:#162A45;" points="281,268.85 275.64,268.85 275.91,263.45 281.3,263.45 						"/>
						<polygon style="fill:#162A45;" points="221.58,283.52 216.29,283.52 216.26,278.26 221.57,278.26 						"/>
						<polygon style="fill:#162A45;" points="250.88,283.52 245.59,283.52 245.71,278.27 251.02,278.27 						"/>
						<polygon style="fill:#162A45;" points="280.17,283.53 274.89,283.53 275.16,278.27 280.47,278.28 						"/>
					</g>
				</g>
			</g>
			<g>
				<g>
					<g>
						<rect x="549.38" y="211.56" style="fill:#FFD13F;" width="2.9" height="32.24"/>
						<rect x="549.38" y="211.56" style="fill:#FDA635;" width="2.9" height="3.83"/>
					</g>
					<g>
						<rect x="456.07" y="211.56" style="fill:#FFD13F;" width="6.51" height="32.24"/>
						<rect x="456.07" y="211.56" style="fill:#FDA635;" width="6.51" height="3.71"/>
					</g>
					<g>
						<path style="fill:#583D71;" d="M460.41,178.5h-1.84c-2.22,0-4.03,1.8-4.03,4.03v0.55h9.9v-0.55
							C464.44,180.3,462.63,178.5,460.41,178.5z"/>
						<polygon style="fill:#FFD13F;" points="464.44,206.29 464.44,183.08 454.54,183.08 454.54,211.56 455.84,211.56 
							464.44,211.56 549.51,211.56 549.51,206.29 						"/>
						<rect x="545.37" y="206.29" style="fill:#583D71;" width="10.91" height="5.28"/>
					</g>
				</g>
				<g>
					<g>
						
							<rect x="231.38" y="211.56" transform="matrix(-1 -1.224647e-16 1.224647e-16 -1 465.6681 511.2114)" style="fill:#FFD13F;" width="2.9" height="88.08"/>
						
							<rect x="231.38" y="211.56" transform="matrix(-1 -1.224647e-16 1.224647e-16 -1 465.6681 426.9586)" style="fill:#FDA635;" width="2.9" height="3.83"/>
					</g>
					<g>
						
							<rect x="312.38" y="211.56" transform="matrix(-1 -1.224647e-16 1.224647e-16 -1 631.2712 455.3656)" style="fill:#FFD13F;" width="6.51" height="32.24"/>
						
							<rect x="312.38" y="211.56" transform="matrix(-1 -1.224647e-16 1.224647e-16 -1 631.2712 426.835)" style="fill:#FDA635;" width="6.51" height="3.71"/>
					</g>
					<g>
						<path style="fill:#583D71;" d="M314.55,178.5h1.84c2.22,0,4.03,1.8,4.03,4.03v0.55h-9.9v-0.55
							C310.52,180.3,312.32,178.5,314.55,178.5z"/>
						<polygon style="fill:#FFD13F;" points="310.52,206.29 310.52,183.08 320.42,183.08 320.42,211.56 319.12,211.56 
							310.52,211.56 234.15,211.56 234.15,206.29 						"/>
						
							<rect x="227.38" y="206.29" transform="matrix(-1 -1.224647e-16 1.224647e-16 -1 465.6681 417.8535)" style="fill:#583D71;" width="10.91" height="5.28"/>
					</g>
				</g>
			</g>
			<g>
				<g>
					
						<line style="fill:none;stroke:#162A45;stroke-width:0.75;stroke-linecap:round;stroke-linejoin:round;stroke-miterlimit:10;" x1="622.64" y1="255.3" x2="623.69" y2="196.54"/>
					
						<polygon style="fill:none;stroke:#162A45;stroke-width:0.75;stroke-linecap:round;stroke-linejoin:round;stroke-miterlimit:10;" points="
						640.13,215.31 607.29,217.45 607.39,206.08 640.46,203.39 					"/>
					
						<line style="fill:none;stroke:#162A45;stroke-width:0.75;stroke-linecap:round;stroke-linejoin:round;stroke-miterlimit:10;" x1="604.4" y1="202.04" x2="643.93" y2="198.59"/>
					
						<polygon style="fill:none;stroke:#162A45;stroke-width:0.75;stroke-linecap:round;stroke-linejoin:round;stroke-miterlimit:10;" points="
						635.5,236.66 610.85,237.56 610.94,229.08 635.72,227.88 					"/>
					
						<line style="fill:none;stroke:#162A45;stroke-width:0.75;stroke-linecap:round;stroke-linejoin:round;stroke-miterlimit:10;" x1="608.68" y1="226" x2="638.28" y2="224.43"/>
				</g>
				<g>
					<polygon style="fill:#FDA635;" points="636.3,263.29 590.39,263.29 590.39,247.96 636.72,246.92 					"/>
					<polygon style="fill:#FFD13F;" points="649.39,263.29 601.87,263.29 601.97,247.7 649.94,246.63 					"/>
				</g>
			</g>
			<g>
				<g>
					<g>
						<polygon style="fill:#583D71;" points="485.76,308.58 427.14,307.07 426.22,273.77 484.51,274.09 						"/>
						<g>
							<g>
								<polygon style="fill:#8C71A9;" points="480.35,305.39 482.47,305.44 481.47,277.43 479.36,277.41 								"/>
								<polygon style="fill:#342447;" points="480.71,305.4 482.47,305.44 481.47,277.43 479.72,277.41 								"/>
							</g>
							<g>
								<polygon style="fill:#8C71A9;" points="475.62,305.27 477.73,305.32 476.75,277.39 474.66,277.38 								"/>
								<polygon style="fill:#342447;" points="475.99,305.28 477.73,305.32 476.75,277.39 475.02,277.38 								"/>
							</g>
							<g>
								<polygon style="fill:#8C71A9;" points="470.92,305.16 473.02,305.21 472.06,277.36 469.98,277.34 								"/>
								<polygon style="fill:#342447;" points="471.28,305.17 473.02,305.21 472.06,277.36 470.34,277.35 								"/>
							</g>
							<g>
								<polygon style="fill:#8C71A9;" points="466.25,305.05 468.33,305.1 467.4,277.32 465.33,277.31 								"/>
								<polygon style="fill:#342447;" points="466.61,305.06 468.33,305.1 467.4,277.32 465.69,277.31 								"/>
							</g>
							<g>
								<polygon style="fill:#8C71A9;" points="461.6,304.94 463.67,304.99 462.76,277.29 460.7,277.27 								"/>
								<polygon style="fill:#342447;" points="461.96,304.95 463.67,304.99 462.76,277.29 461.06,277.28 								"/>
							</g>
							<g>
								<polygon style="fill:#8C71A9;" points="456.98,304.83 459.04,304.88 458.15,277.26 456.1,277.24 								"/>
								<polygon style="fill:#342447;" points="457.34,304.84 459.04,304.88 458.15,277.26 456.46,277.24 								"/>
							</g>
							<g>
								<polygon style="fill:#8C71A9;" points="452.39,304.72 454.43,304.77 453.57,277.22 451.53,277.21 								"/>
								<polygon style="fill:#342447;" points="452.74,304.73 454.43,304.77 453.57,277.22 451.88,277.21 								"/>
							</g>
							<g>
								<polygon style="fill:#8C71A9;" points="447.82,304.61 449.85,304.66 449.01,277.19 446.98,277.17 								"/>
								<polygon style="fill:#342447;" points="448.17,304.62 449.85,304.66 449.01,277.19 447.33,277.18 								"/>
							</g>
							<g>
								<polygon style="fill:#8C71A9;" points="443.27,304.5 445.3,304.55 444.47,277.15 442.45,277.14 								"/>
								<polygon style="fill:#342447;" points="443.62,304.51 445.3,304.55 444.47,277.15 442.8,277.14 								"/>
							</g>
							<g>
								<polygon style="fill:#8C71A9;" points="438.75,304.39 440.76,304.44 439.96,277.12 437.95,277.11 								"/>
								<polygon style="fill:#342447;" points="439.1,304.4 440.76,304.44 439.96,277.12 438.3,277.11 								"/>
							</g>
							<g>
								<polygon style="fill:#8C71A9;" points="434.25,304.29 436.26,304.33 435.47,277.09 433.48,277.07 								"/>
								<polygon style="fill:#342447;" points="434.6,304.29 436.26,304.33 435.47,277.09 433.82,277.08 								"/>
							</g>
							<g>
								<polygon style="fill:#8C71A9;" points="429.78,304.18 431.77,304.23 431.01,277.06 429.03,277.04 								"/>
								<polygon style="fill:#342447;" points="430.13,304.19 431.77,304.23 431.01,277.06 429.37,277.04 								"/>
							</g>
						</g>
					</g>
					<g>
						<polygon style="fill:#8C71A9;" points="516.43,309.37 485.76,308.58 484.51,274.09 515,274.25 						"/>
						<polygon style="fill:#342447;" points="501.31,308.98 500.6,308.96 499.27,274.17 499.98,274.17 						"/>
						<polygon style="fill:#BFA4E0;" points="497.38,304.11 488.83,303.92 488.72,300.89 497.27,301.07 						"/>
						<polygon style="fill:#BFA4E0;" points="513.1,304.47 504.39,304.28 504.27,301.22 512.98,301.41 						"/>
					</g>
				</g>
				<g>
					<g>
						<polygon style="fill:#EA3D3D;" points="478.66,274.05 420.76,273.74 419.88,240.88 477.46,240.03 						"/>
						<g>
							<g>
								<polygon style="fill:#FC7070;" points="473.32,271.01 475.41,271.02 474.45,243.39 472.37,243.41 								"/>
								<polygon style="fill:#B72727;" points="473.68,271.01 475.41,271.02 474.45,243.39 472.72,243.41 								"/>
							</g>
							<g>
								<polygon style="fill:#FC7070;" points="468.65,271 470.73,271 469.79,243.45 467.72,243.47 								"/>
								<polygon style="fill:#B72727;" points="469.01,271 470.73,271 469.79,243.45 468.08,243.47 								"/>
							</g>
							<g>
								<polygon style="fill:#FC7070;" points="464.01,270.98 466.08,270.99 465.16,243.5 463.1,243.53 								"/>
								<polygon style="fill:#B72727;" points="464.37,270.98 466.08,270.99 465.16,243.5 463.46,243.53 								"/>
							</g>
							<g>
								<polygon style="fill:#FC7070;" points="459.4,270.96 461.45,270.97 460.56,243.56 458.51,243.59 								"/>
								<polygon style="fill:#B72727;" points="459.75,270.96 461.45,270.97 460.56,243.56 458.86,243.59 								"/>
							</g>
							<g>
								<polygon style="fill:#FC7070;" points="454.81,270.95 456.85,270.95 455.98,243.62 453.94,243.65 								"/>
								<polygon style="fill:#B72727;" points="455.16,270.95 456.85,270.95 455.98,243.62 454.29,243.64 								"/>
							</g>
							<g>
								<polygon style="fill:#FC7070;" points="450.24,270.93 452.28,270.94 451.42,243.68 449.4,243.71 								"/>
								<polygon style="fill:#B72727;" points="450.59,270.93 452.28,270.94 451.42,243.68 449.74,243.7 								"/>
							</g>
							<g>
								<polygon style="fill:#FC7070;" points="445.7,270.91 447.72,270.92 446.89,243.74 444.88,243.76 								"/>
								<polygon style="fill:#B72727;" points="446.05,270.92 447.72,270.92 446.89,243.74 445.22,243.76 								"/>
							</g>
							<g>
								<polygon style="fill:#FC7070;" points="441.19,270.9 443.2,270.91 442.39,243.8 440.38,243.82 								"/>
								<polygon style="fill:#B72727;" points="441.53,270.9 443.2,270.91 442.39,243.8 440.73,243.82 								"/>
							</g>
							<g>
								<polygon style="fill:#FC7070;" points="436.7,270.88 438.7,270.89 437.9,243.85 435.91,243.88 								"/>
								<polygon style="fill:#B72727;" points="437.04,270.88 438.7,270.89 437.9,243.85 436.26,243.87 								"/>
							</g>
							<g>
								<polygon style="fill:#FC7070;" points="432.23,270.87 434.22,270.87 433.45,243.91 431.47,243.94 								"/>
								<polygon style="fill:#B72727;" points="432.57,270.87 434.22,270.87 433.45,243.91 431.81,243.93 								"/>
							</g>
							<g>
								<polygon style="fill:#FC7070;" points="427.79,270.85 429.77,270.86 429.02,243.97 427.05,243.99 								"/>
								<polygon style="fill:#B72727;" points="428.13,270.85 429.77,270.86 429.02,243.97 427.38,243.99 								"/>
							</g>
							<g>
								<polygon style="fill:#FC7070;" points="423.37,270.83 425.34,270.84 424.61,244.02 422.65,244.05 								"/>
								<polygon style="fill:#B72727;" points="423.71,270.83 425.34,270.84 424.61,244.02 422.98,244.04 								"/>
							</g>
						</g>
					</g>
					<g>
						<polygon style="fill:#FC7070;" points="508.93,274.22 478.66,274.05 477.46,240.03 507.56,239.58 						"/>
						<polygon style="fill:#B72727;" points="494.01,274.14 493.31,274.13 492.02,239.81 492.73,239.8 						"/>
						<polygon style="fill:#FFA4A4;" points="490.13,269.42 481.69,269.39 481.59,266.41 490.02,266.42 						"/>
						<polygon style="fill:#FFA4A4;" points="505.65,269.46 497.06,269.43 496.94,266.42 505.53,266.43 						"/>
					</g>
				</g>
				<g>
					<g>
						<polygon style="fill:#583D71;" points="403.3,273.65 350.38,273.36 349.86,241.91 402.52,241.13 						"/>
						<g>
							<g>
								<polygon style="fill:#8C71A9;" points="398.46,270.74 400.36,270.75 399.74,244.34 397.84,244.37 								"/>
								<polygon style="fill:#342447;" points="398.78,270.75 400.36,270.75 399.74,244.34 398.16,244.36 								"/>
							</g>
							<g>
								<polygon style="fill:#8C71A9;" points="394.2,270.73 396.09,270.74 395.49,244.4 393.6,244.42 								"/>
								<polygon style="fill:#342447;" points="394.52,270.73 396.09,270.74 395.49,244.4 393.92,244.42 								"/>
							</g>
							<g>
								<polygon style="fill:#8C71A9;" points="389.96,270.71 391.84,270.72 391.25,244.45 389.38,244.47 								"/>
								<polygon style="fill:#342447;" points="390.28,270.71 391.84,270.72 391.25,244.45 389.7,244.47 								"/>
							</g>
							<g>
								<polygon style="fill:#8C71A9;" points="385.74,270.7 387.62,270.71 387.05,244.5 385.18,244.53 								"/>
								<polygon style="fill:#342447;" points="386.06,270.7 387.62,270.71 387.05,244.5 385.5,244.52 								"/>
							</g>
							<g>
								<polygon style="fill:#8C71A9;" points="381.55,270.68 383.41,270.69 382.86,244.56 381,244.58 								"/>
								<polygon style="fill:#342447;" points="381.87,270.68 383.41,270.69 382.86,244.56 381.32,244.58 								"/>
							</g>
							<g>
								<polygon style="fill:#8C71A9;" points="377.38,270.67 379.23,270.68 378.7,244.61 376.85,244.63 								"/>
								<polygon style="fill:#342447;" points="377.69,270.67 379.23,270.68 378.7,244.61 377.16,244.63 								"/>
							</g>
							<g>
								<polygon style="fill:#8C71A9;" points="373.23,270.65 375.07,270.66 374.55,244.66 372.71,244.69 								"/>
								<polygon style="fill:#342447;" points="373.54,270.65 375.07,270.66 374.55,244.66 373.03,244.68 								"/>
							</g>
							<g>
								<polygon style="fill:#8C71A9;" points="369.1,270.64 370.93,270.65 370.43,244.72 368.6,244.74 								"/>
								<polygon style="fill:#342447;" points="369.41,270.64 370.93,270.65 370.43,244.72 368.92,244.74 								"/>
							</g>
							<g>
								<polygon style="fill:#8C71A9;" points="364.99,270.62 366.82,270.63 366.33,244.77 364.51,244.79 								"/>
								<polygon style="fill:#342447;" points="365.3,270.62 366.82,270.63 366.33,244.77 364.82,244.79 								"/>
							</g>
							<g>
								<polygon style="fill:#8C71A9;" points="360.9,270.61 362.72,270.62 362.25,244.82 360.44,244.84 								"/>
								<polygon style="fill:#342447;" points="361.22,270.61 362.72,270.62 362.25,244.82 360.75,244.84 								"/>
							</g>
							<g>
								<polygon style="fill:#8C71A9;" points="356.84,270.59 358.65,270.6 358.2,244.87 356.39,244.9 								"/>
								<polygon style="fill:#342447;" points="357.15,270.6 358.65,270.6 358.2,244.87 356.7,244.89 								"/>
							</g>
							<g>
								<polygon style="fill:#8C71A9;" points="352.79,270.58 354.6,270.59 354.16,244.93 352.37,244.95 								"/>
								<polygon style="fill:#342447;" points="353.1,270.58 354.6,270.59 354.16,244.93 352.67,244.94 								"/>
							</g>
						</g>
					</g>
					<g>
						<polygon style="fill:#8C71A9;" points="430.92,273.8 403.3,273.65 402.52,241.13 429.98,240.73 						"/>
						<polygon style="fill:#342447;" points="417.31,273.72 416.67,273.72 415.81,240.94 416.45,240.93 						"/>
						<polygon style="fill:#BFA4E0;" points="413.82,269.22 406.12,269.2 406.05,266.34 413.75,266.35 						"/>
						<polygon style="fill:#BFA4E0;" points="427.97,269.25 420.13,269.23 420.06,266.36 427.89,266.36 						"/>
					</g>
				</g>
				<g>
					<g>
						<polygon style="fill:#583D71;" points="553.34,274.46 490.31,274.12 489.04,239.86 551.7,238.93 						"/>
						<g>
							<g>
								<polygon style="fill:#8C71A9;" points="547.49,271.28 549.77,271.29 548.45,242.44 546.18,242.47 								"/>
								<polygon style="fill:#342447;" points="547.88,271.28 549.77,271.29 548.45,242.44 546.57,242.46 								"/>
							</g>
							<g>
								<polygon style="fill:#8C71A9;" points="542.4,271.26 544.67,271.27 543.38,242.5 541.12,242.53 								"/>
								<polygon style="fill:#342447;" points="542.79,271.26 544.67,271.27 543.38,242.5 541.51,242.53 								"/>
							</g>
							<g>
								<polygon style="fill:#8C71A9;" points="537.35,271.24 539.6,271.25 538.33,242.57 536.09,242.6 								"/>
								<polygon style="fill:#342447;" points="537.74,271.24 539.6,271.25 538.33,242.57 536.48,242.59 								"/>
							</g>
							<g>
								<polygon style="fill:#8C71A9;" points="532.32,271.23 534.56,271.23 533.32,242.63 531.09,242.66 								"/>
								<polygon style="fill:#342447;" points="532.71,271.23 534.56,271.23 533.32,242.63 531.47,242.66 								"/>
							</g>
							<g>
								<polygon style="fill:#8C71A9;" points="527.32,271.21 529.55,271.22 528.33,242.7 526.12,242.72 								"/>
								<polygon style="fill:#342447;" points="527.71,271.21 529.55,271.22 528.33,242.7 526.5,242.72 								"/>
							</g>
							<g>
								<polygon style="fill:#8C71A9;" points="522.35,271.19 524.57,271.2 523.37,242.76 521.17,242.79 								"/>
								<polygon style="fill:#342447;" points="522.73,271.19 524.57,271.2 523.37,242.76 521.55,242.78 								"/>
							</g>
							<g>
								<polygon style="fill:#8C71A9;" points="517.41,271.17 519.61,271.18 518.44,242.82 516.25,242.85 								"/>
								<polygon style="fill:#342447;" points="517.79,271.17 519.61,271.18 518.44,242.82 516.63,242.85 								"/>
							</g>
							<g>
								<polygon style="fill:#8C71A9;" points="512.5,271.15 514.69,271.16 513.54,242.89 511.36,242.91 								"/>
								<polygon style="fill:#342447;" points="512.87,271.16 514.69,271.16 513.54,242.89 511.74,242.91 								"/>
							</g>
							<g>
								<polygon style="fill:#8C71A9;" points="507.61,271.14 509.79,271.14 508.67,242.95 506.5,242.98 								"/>
								<polygon style="fill:#342447;" points="507.99,271.14 509.79,271.14 508.67,242.95 506.87,242.97 								"/>
							</g>
							<g>
								<polygon style="fill:#8C71A9;" points="502.76,271.12 504.92,271.13 503.82,243.01 501.67,243.04 								"/>
								<polygon style="fill:#342447;" points="503.13,271.12 504.92,271.13 503.82,243.01 502.04,243.03 								"/>
							</g>
							<g>
								<polygon style="fill:#8C71A9;" points="497.93,271.1 500.08,271.11 499,243.07 496.86,243.1 								"/>
								<polygon style="fill:#342447;" points="498.29,271.1 500.08,271.11 499,243.07 497.23,243.09 								"/>
							</g>
							<g>
								<polygon style="fill:#8C71A9;" points="493.12,271.08 495.26,271.09 494.21,243.13 492.08,243.16 								"/>
								<polygon style="fill:#342447;" points="493.49,271.09 495.26,271.09 494.21,243.13 492.44,243.16 								"/>
							</g>
						</g>
					</g>
					<g>
						<polygon style="fill:#8C71A9;" points="586.38,274.63 553.34,274.46 551.7,238.93 584.53,238.45 						"/>
						<polygon style="fill:#342447;" points="570.09,274.55 569.32,274.54 567.58,238.7 568.35,238.68 						"/>
						<polygon style="fill:#BFA4E0;" points="565.81,269.61 556.61,269.59 556.46,266.47 565.66,266.48 						"/>
						<polygon style="fill:#BFA4E0;" points="582.75,269.66 573.37,269.63 573.21,266.49 582.59,266.5 						"/>
					</g>
				</g>
				<g>
					<g>
						<polygon style="fill:#FDA635;" points="425.59,307.03 370.99,305.63 370.37,273.47 424.69,273.76 						"/>
						<g>
							<g>
								<polygon style="fill:#FFD13F;" points="420.58,303.96 422.55,304.01 421.83,276.99 419.87,276.97 								"/>
								<polygon style="fill:#EF701B;" points="420.92,303.97 422.55,304.01 421.83,276.99 420.2,276.98 								"/>
							</g>
							<g>
								<polygon style="fill:#FFD13F;" points="416.19,303.85 418.14,303.9 417.44,276.96 415.49,276.94 								"/>
								<polygon style="fill:#EF701B;" points="416.52,303.86 418.14,303.9 417.44,276.96 415.82,276.94 								"/>
							</g>
							<g>
								<polygon style="fill:#FFD13F;" points="411.81,303.75 413.76,303.8 413.07,276.92 411.13,276.91 								"/>
								<polygon style="fill:#EF701B;" points="412.15,303.76 413.76,303.8 413.07,276.92 411.47,276.91 								"/>
							</g>
							<g>
								<polygon style="fill:#FFD13F;" points="407.46,303.64 409.4,303.69 408.73,276.89 406.8,276.88 								"/>
								<polygon style="fill:#EF701B;" points="407.79,303.65 409.4,303.69 408.73,276.89 407.13,276.88 								"/>
							</g>
							<g>
								<polygon style="fill:#FFD13F;" points="403.13,303.54 405.06,303.59 404.41,276.86 402.49,276.85 								"/>
								<polygon style="fill:#EF701B;" points="403.46,303.55 405.06,303.59 404.41,276.86 402.82,276.85 								"/>
							</g>
							<g>
								<polygon style="fill:#FFD13F;" points="398.83,303.44 400.75,303.48 400.12,276.83 398.21,276.81 								"/>
								<polygon style="fill:#EF701B;" points="399.16,303.45 400.75,303.48 400.12,276.83 398.53,276.82 								"/>
							</g>
							<g>
								<polygon style="fill:#FFD13F;" points="394.55,303.34 396.45,303.38 395.84,276.8 393.94,276.78 								"/>
								<polygon style="fill:#EF701B;" points="394.88,303.34 396.45,303.38 395.84,276.8 394.27,276.78 								"/>
							</g>
							<g>
								<polygon style="fill:#FFD13F;" points="390.29,303.23 392.19,303.28 391.59,276.76 389.7,276.75 								"/>
								<polygon style="fill:#EF701B;" points="390.62,303.24 392.19,303.28 391.59,276.76 390.03,276.75 								"/>
							</g>
							<g>
								<polygon style="fill:#FFD13F;" points="386.05,303.13 387.94,303.18 387.36,276.73 385.49,276.72 								"/>
								<polygon style="fill:#EF701B;" points="386.38,303.14 387.94,303.18 387.36,276.73 385.81,276.72 								"/>
							</g>
							<g>
								<polygon style="fill:#FFD13F;" points="381.84,303.03 383.72,303.08 383.16,276.7 381.29,276.69 								"/>
								<polygon style="fill:#EF701B;" points="382.16,303.04 383.72,303.08 383.16,276.7 381.61,276.69 								"/>
							</g>
							<g>
								<polygon style="fill:#FFD13F;" points="377.65,302.93 379.51,302.98 378.97,276.67 377.11,276.66 								"/>
								<polygon style="fill:#EF701B;" points="377.97,302.94 379.51,302.98 378.97,276.67 377.43,276.66 								"/>
							</g>
							<g>
								<polygon style="fill:#FFD13F;" points="373.48,302.83 375.34,302.88 374.81,276.64 372.96,276.63 								"/>
								<polygon style="fill:#EF701B;" points="373.8,302.84 375.34,302.88 374.81,276.64 373.28,276.63 								"/>
							</g>
						</g>
					</g>
					<g>
						<polygon style="fill:#FFD13F;" points="454.11,307.76 425.59,307.03 424.69,273.76 453.04,273.92 						"/>
						<polygon style="fill:#EF701B;" points="440.06,307.4 439.39,307.39 438.41,273.84 439.07,273.84 						"/>
						<polygon style="fill:#FFF5DF;" points="436.44,302.72 428.49,302.54 428.41,299.62 436.35,299.79 						"/>
						<polygon style="fill:#FFF5DF;" points="451.05,303.05 442.96,302.87 442.87,299.92 450.96,300.1 						"/>
					</g>
				</g>
				<g>
					<g>
						<polygon style="fill:#FDA635;" points="379.72,241.47 328.52,242.23 328.11,211.48 379.06,209.71 						"/>
						<g>
							<g>
								<polygon style="fill:#FFD13F;" points="375.04,238.73 376.89,238.7 376.36,212.9 374.52,212.96 								"/>
								<polygon style="fill:#EF701B;" points="375.36,238.72 376.89,238.7 376.36,212.9 374.84,212.95 								"/>
							</g>
							<g>
								<polygon style="fill:#FFD13F;" points="370.92,238.79 372.76,238.76 372.25,213.04 370.42,213.1 								"/>
								<polygon style="fill:#EF701B;" points="371.24,238.79 372.76,238.76 372.25,213.04 370.73,213.09 								"/>
							</g>
							<g>
								<polygon style="fill:#FFD13F;" points="366.82,238.86 368.65,238.83 368.16,213.17 366.34,213.23 								"/>
								<polygon style="fill:#EF701B;" points="367.14,238.86 368.65,238.83 368.16,213.17 366.65,213.22 								"/>
							</g>
							<g>
								<polygon style="fill:#FFD13F;" points="362.74,238.93 364.56,238.9 364.09,213.31 362.28,213.37 								"/>
								<polygon style="fill:#EF701B;" points="363.06,238.92 364.56,238.9 364.09,213.31 362.59,213.35 								"/>
							</g>
							<g>
								<polygon style="fill:#FFD13F;" points="358.69,239 360.49,238.97 360.04,213.44 358.24,213.5 								"/>
								<polygon style="fill:#EF701B;" points="359,238.99 360.49,238.97 360.04,213.44 358.55,213.49 								"/>
							</g>
							<g>
								<polygon style="fill:#FFD13F;" points="354.65,239.06 356.45,239.03 356.01,213.57 354.22,213.63 								"/>
								<polygon style="fill:#EF701B;" points="354.96,239.06 356.45,239.03 356.01,213.57 354.52,213.62 								"/>
							</g>
							<g>
								<polygon style="fill:#FFD13F;" points="350.64,239.13 352.42,239.1 352,213.7 350.22,213.76 								"/>
								<polygon style="fill:#EF701B;" points="350.94,239.12 352.42,239.1 352,213.7 350.52,213.75 								"/>
							</g>
							<g>
								<polygon style="fill:#FFD13F;" points="346.64,239.2 348.42,239.17 348.01,213.83 346.24,213.89 								"/>
								<polygon style="fill:#EF701B;" points="346.95,239.19 348.42,239.17 348.01,213.83 346.54,213.88 								"/>
							</g>
							<g>
								<polygon style="fill:#FFD13F;" points="342.67,239.26 344.44,239.23 344.04,213.96 342.28,214.02 								"/>
								<polygon style="fill:#EF701B;" points="342.97,239.26 344.44,239.23 344.04,213.96 342.58,214.01 								"/>
							</g>
							<g>
								<polygon style="fill:#FFD13F;" points="338.71,239.33 340.47,239.3 340.1,214.09 338.34,214.15 								"/>
								<polygon style="fill:#EF701B;" points="339.02,239.32 340.47,239.3 340.1,214.09 338.64,214.14 								"/>
							</g>
							<g>
								<polygon style="fill:#FFD13F;" points="334.78,239.39 336.53,239.36 336.17,214.22 334.42,214.28 								"/>
								<polygon style="fill:#EF701B;" points="335.08,239.39 336.53,239.36 336.17,214.22 334.72,214.27 								"/>
							</g>
							<g>
								<polygon style="fill:#FFD13F;" points="330.86,239.46 332.61,239.43 332.26,214.35 330.52,214.41 								"/>
								<polygon style="fill:#EF701B;" points="331.16,239.45 332.61,239.43 332.26,214.35 330.82,214.4 								"/>
							</g>
						</g>
					</g>
					<g>
						<polygon style="fill:#FFD13F;" points="406.41,241.08 379.72,241.47 379.06,209.71 405.61,208.79 						"/>
						<polygon style="fill:#EF701B;" points="393.26,241.27 392.64,241.28 391.91,209.27 392.53,209.25 						"/>
						<polygon style="fill:#FFF5DF;" points="389.9,236.93 382.45,237.06 382.39,234.28 389.84,234.14 						"/>
						<polygon style="fill:#FFF5DF;" points="403.57,236.69 396,236.83 395.94,234.02 403.51,233.87 						"/>
					</g>
				</g>
				<g>
					<g>
						<polygon style="fill:#EA3D3D;" points="377.4,305.79 325.92,304.47 325.52,273.23 376.74,273.51 						"/>
						<g>
							<g>
								<polygon style="fill:#FC7070;" points="372.7,302.81 374.55,302.86 374.03,276.64 372.18,276.62 								"/>
								<polygon style="fill:#B72727;" points="373.01,302.82 374.55,302.86 374.03,276.64 372.5,276.62 								"/>
							</g>
							<g>
								<polygon style="fill:#FC7070;" points="368.55,302.71 370.4,302.76 369.89,276.61 368.06,276.59 								"/>
								<polygon style="fill:#B72727;" points="368.87,302.72 370.4,302.76 369.89,276.61 368.37,276.59 								"/>
							</g>
							<g>
								<polygon style="fill:#FC7070;" points="364.43,302.62 366.27,302.66 365.78,276.57 363.95,276.56 								"/>
								<polygon style="fill:#B72727;" points="364.75,302.62 366.27,302.66 365.78,276.57 364.27,276.56 								"/>
							</g>
							<g>
								<polygon style="fill:#FC7070;" points="360.33,302.52 362.16,302.56 361.69,276.54 359.87,276.53 								"/>
								<polygon style="fill:#B72727;" points="360.64,302.53 362.16,302.56 361.69,276.54 360.18,276.53 								"/>
							</g>
							<g>
								<polygon style="fill:#FC7070;" points="356.25,302.42 358.07,302.46 357.61,276.51 355.81,276.5 								"/>
								<polygon style="fill:#B72727;" points="356.56,302.43 358.07,302.46 357.61,276.51 356.12,276.5 								"/>
							</g>
							<g>
								<polygon style="fill:#FC7070;" points="352.19,302.32 354,302.37 353.56,276.48 351.76,276.47 								"/>
								<polygon style="fill:#B72727;" points="352.5,302.33 354,302.37 353.56,276.48 352.07,276.47 								"/>
							</g>
							<g>
								<polygon style="fill:#FC7070;" points="348.16,302.23 349.95,302.27 349.53,276.45 347.74,276.44 								"/>
								<polygon style="fill:#B72727;" points="348.46,302.23 349.95,302.27 349.53,276.45 348.05,276.44 								"/>
							</g>
							<g>
								<polygon style="fill:#FC7070;" points="344.14,302.13 345.93,302.17 345.52,276.43 343.74,276.41 								"/>
								<polygon style="fill:#B72727;" points="344.45,302.14 345.93,302.17 345.52,276.43 344.05,276.41 								"/>
							</g>
							<g>
								<polygon style="fill:#FC7070;" points="340.14,302.04 341.92,302.08 341.54,276.4 339.76,276.38 								"/>
								<polygon style="fill:#B72727;" points="340.45,302.04 341.92,302.08 341.54,276.4 340.07,276.39 								"/>
							</g>
							<g>
								<polygon style="fill:#FC7070;" points="336.17,301.94 337.94,301.98 337.57,276.37 335.8,276.35 								"/>
								<polygon style="fill:#B72727;" points="336.47,301.95 337.94,301.98 337.57,276.37 336.11,276.36 								"/>
							</g>
							<g>
								<polygon style="fill:#FC7070;" points="332.21,301.85 333.97,301.89 333.62,276.34 331.86,276.32 								"/>
								<polygon style="fill:#B72727;" points="332.52,301.85 333.97,301.89 333.62,276.34 332.17,276.33 								"/>
							</g>
							<g>
								<polygon style="fill:#FC7070;" points="328.28,301.75 330.03,301.79 329.69,276.31 327.95,276.3 								"/>
								<polygon style="fill:#B72727;" points="328.58,301.76 330.03,301.79 329.69,276.31 328.25,276.3 								"/>
							</g>
						</g>
					</g>
					<g>
						<polygon style="fill:#FC7070;" points="404.24,306.48 377.4,305.79 376.74,273.51 403.45,273.65 						"/>
						<polygon style="fill:#B72727;" points="391.02,306.14 390.4,306.13 389.67,273.58 390.3,273.58 						"/>
						<polygon style="fill:#FFA4A4;" points="387.64,301.6 380.15,301.43 380.09,298.6 387.58,298.76 						"/>
						<polygon style="fill:#FFA4A4;" points="401.39,301.91 393.78,301.74 393.71,298.89 401.33,299.05 						"/>
					</g>
				</g>
				<g>
					<g>
						<polygon style="fill:#EA3D3D;" points="343.09,273.32 293.98,273.06 293.73,242.74 342.61,242.02 						"/>
						<g>
							<g>
								<polygon style="fill:#FC7070;" points="338.62,270.53 340.39,270.54 340.01,245.11 338.25,245.13 								"/>
								<polygon style="fill:#B72727;" points="338.93,270.53 340.39,270.54 340.01,245.11 338.55,245.12 								"/>
							</g>
							<g>
								<polygon style="fill:#FC7070;" points="334.67,270.51 336.43,270.52 336.07,245.16 334.31,245.18 								"/>
								<polygon style="fill:#B72727;" points="334.97,270.52 336.43,270.52 336.07,245.16 334.62,245.18 								"/>
							</g>
							<g>
								<polygon style="fill:#FC7070;" points="330.74,270.5 332.49,270.51 332.14,245.21 330.4,245.23 								"/>
								<polygon style="fill:#B72727;" points="331.04,270.5 332.49,270.51 332.14,245.21 330.7,245.23 								"/>
							</g>
							<g>
								<polygon style="fill:#FC7070;" points="326.83,270.49 328.57,270.49 328.24,245.26 326.5,245.28 								"/>
								<polygon style="fill:#B72727;" points="327.13,270.49 328.57,270.49 328.24,245.26 326.8,245.28 								"/>
							</g>
							<g>
								<polygon style="fill:#FC7070;" points="322.94,270.47 324.67,270.48 324.36,245.31 322.63,245.33 								"/>
								<polygon style="fill:#B72727;" points="323.24,270.47 324.67,270.48 324.36,245.31 322.93,245.33 								"/>
							</g>
							<g>
								<polygon style="fill:#FC7070;" points="319.07,270.46 320.79,270.46 320.49,245.36 318.77,245.38 								"/>
								<polygon style="fill:#B72727;" points="319.36,270.46 320.79,270.46 320.49,245.36 319.07,245.37 								"/>
							</g>
							<g>
								<polygon style="fill:#FC7070;" points="315.22,270.44 316.93,270.45 316.65,245.41 314.94,245.43 								"/>
								<polygon style="fill:#B72727;" points="315.51,270.45 316.93,270.45 316.65,245.41 315.23,245.42 								"/>
							</g>
							<g>
								<polygon style="fill:#FC7070;" points="311.39,270.43 313.09,270.44 312.82,245.45 311.12,245.48 								"/>
								<polygon style="fill:#B72727;" points="311.68,270.43 313.09,270.44 312.82,245.45 311.41,245.47 								"/>
							</g>
							<g>
								<polygon style="fill:#FC7070;" points="307.57,270.42 309.27,270.42 309.01,245.5 307.32,245.52 								"/>
								<polygon style="fill:#B72727;" points="307.86,270.42 309.27,270.42 309.01,245.5 307.61,245.52 								"/>
							</g>
							<g>
								<polygon style="fill:#FC7070;" points="303.78,270.4 305.47,270.41 305.22,245.55 303.54,245.57 								"/>
								<polygon style="fill:#B72727;" points="304.07,270.4 305.47,270.41 305.22,245.55 303.83,245.57 								"/>
							</g>
							<g>
								<polygon style="fill:#FC7070;" points="300,270.39 301.68,270.4 301.46,245.6 299.78,245.62 								"/>
								<polygon style="fill:#B72727;" points="300.29,270.39 301.68,270.4 301.46,245.6 300.07,245.62 								"/>
							</g>
							<g>
								<polygon style="fill:#FC7070;" points="296.25,270.38 297.92,270.38 297.71,245.65 296.04,245.67 								"/>
								<polygon style="fill:#B72727;" points="296.53,270.38 297.92,270.38 297.71,245.65 296.33,245.67 								"/>
							</g>
						</g>
					</g>
					<g>
						<polygon style="fill:#FC7070;" points="368.67,273.46 343.09,273.32 342.61,242.02 368.06,241.64 						"/>
						<polygon style="fill:#B72727;" points="356.07,273.39 355.48,273.39 354.94,241.84 355.53,241.83 						"/>
						<polygon style="fill:#FFA4A4;" points="352.87,269.06 345.73,269.04 345.69,266.29 352.82,266.3 						"/>
						<polygon style="fill:#FFA4A4;" points="365.97,269.09 358.72,269.07 358.67,266.3 365.92,266.31 						"/>
					</g>
				</g>
				<g>
					<g>
						<polygon style="fill:#583D71;" points="321.22,304.35 273.26,303.11 273.11,272.95 320.85,273.2 						"/>
						<g>
							<g>
								<polygon style="fill:#8C71A9;" points="316.87,301.48 318.59,301.52 318.3,276.22 316.58,276.21 								"/>
								<polygon style="fill:#342447;" points="317.16,301.49 318.59,301.52 318.3,276.22 316.87,276.21 								"/>
							</g>
							<g>
								<polygon style="fill:#8C71A9;" points="313.01,301.39 314.73,301.43 314.45,276.2 312.74,276.18 								"/>
								<polygon style="fill:#342447;" points="313.3,301.39 314.73,301.43 314.45,276.2 313.03,276.19 								"/>
							</g>
							<g>
								<polygon style="fill:#8C71A9;" points="309.17,301.3 310.88,301.34 310.62,276.17 308.91,276.16 								"/>
								<polygon style="fill:#342447;" points="309.47,301.3 310.88,301.34 310.62,276.17 309.21,276.16 								"/>
							</g>
							<g>
								<polygon style="fill:#8C71A9;" points="305.35,301.2 307.05,301.24 306.8,276.14 305.11,276.13 								"/>
								<polygon style="fill:#342447;" points="305.65,301.21 307.05,301.24 306.8,276.14 305.4,276.13 								"/>
							</g>
							<g>
								<polygon style="fill:#8C71A9;" points="301.55,301.11 303.25,301.15 303.01,276.11 301.33,276.1 								"/>
								<polygon style="fill:#342447;" points="301.85,301.12 303.25,301.15 303.01,276.11 301.62,276.1 								"/>
							</g>
							<g>
								<polygon style="fill:#8C71A9;" points="297.77,301.02 299.46,301.06 299.24,276.08 297.56,276.07 								"/>
								<polygon style="fill:#342447;" points="298.06,301.03 299.46,301.06 299.24,276.08 297.85,276.07 								"/>
							</g>
							<g>
								<polygon style="fill:#8C71A9;" points="294.01,300.93 295.69,300.97 295.48,276.06 293.81,276.04 								"/>
								<polygon style="fill:#342447;" points="294.3,300.94 295.69,300.97 295.48,276.06 294.1,276.05 								"/>
							</g>
							<g>
								<polygon style="fill:#8C71A9;" points="290.27,300.84 291.94,300.88 291.74,276.03 290.08,276.02 								"/>
								<polygon style="fill:#342447;" points="290.56,300.85 291.94,300.88 291.74,276.03 290.37,276.02 								"/>
							</g>
							<g>
								<polygon style="fill:#8C71A9;" points="286.55,300.75 288.21,300.79 288.03,276 286.37,275.99 								"/>
								<polygon style="fill:#342447;" points="286.83,300.76 288.21,300.79 288.03,276 286.66,275.99 								"/>
							</g>
							<g>
								<polygon style="fill:#8C71A9;" points="282.84,300.67 284.49,300.71 284.33,275.97 282.68,275.96 								"/>
								<polygon style="fill:#342447;" points="283.12,300.67 284.49,300.71 284.33,275.97 282.96,275.96 								"/>
							</g>
							<g>
								<polygon style="fill:#8C71A9;" points="279.15,300.58 280.8,300.62 280.64,275.95 279.01,275.94 								"/>
								<polygon style="fill:#342447;" points="279.44,300.58 280.8,300.62 280.64,275.95 279.29,275.94 								"/>
							</g>
							<g>
								<polygon style="fill:#8C71A9;" points="275.48,300.49 277.12,300.53 276.98,275.92 275.35,275.91 								"/>
								<polygon style="fill:#342447;" points="275.77,300.5 277.12,300.53 276.98,275.92 275.63,275.91 								"/>
							</g>
						</g>
					</g>
					<g>
						<polygon style="fill:#8C71A9;" points="346.19,304.99 321.22,304.35 320.85,273.2 345.69,273.34 						"/>
						<polygon style="fill:#342447;" points="333.89,304.67 333.31,304.66 332.88,273.27 333.46,273.27 						"/>
						<polygon style="fill:#BFA4E0;" points="330.78,300.3 323.82,300.14 323.78,297.41 330.74,297.55 						"/>
						<polygon style="fill:#BFA4E0;" points="343.57,300.59 336.49,300.43 336.45,297.67 343.53,297.82 						"/>
					</g>
				</g>
				<g>
					<g>
						<polygon style="fill:#EA3D3D;" points="284.57,303.41 238.85,302.23 238.85,272.76 284.37,273.01 						"/>
						<g>
							<g>
								<polygon style="fill:#FC7070;" points="280.44,300.61 282.08,300.65 281.93,275.96 280.29,275.94 								"/>
								<polygon style="fill:#B72727;" points="280.72,300.62 282.08,300.65 281.93,275.96 280.57,275.95 								"/>
							</g>
							<g>
								<polygon style="fill:#FC7070;" points="276.76,300.52 278.4,300.56 278.26,275.93 276.63,275.92 								"/>
								<polygon style="fill:#B72727;" points="277.04,300.53 278.4,300.56 278.26,275.93 276.91,275.92 								"/>
							</g>
							<g>
								<polygon style="fill:#FC7070;" points="273.11,300.43 274.73,300.47 274.61,275.9 272.98,275.89 								"/>
								<polygon style="fill:#B72727;" points="273.39,300.44 274.73,300.47 274.61,275.9 273.26,275.89 								"/>
							</g>
							<g>
								<polygon style="fill:#FC7070;" points="269.47,300.35 271.09,300.38 270.97,275.88 269.36,275.86 								"/>
								<polygon style="fill:#B72727;" points="269.74,300.35 271.09,300.38 270.97,275.88 269.63,275.87 								"/>
							</g>
							<g>
								<polygon style="fill:#FC7070;" points="265.84,300.26 267.46,300.3 267.36,275.85 265.75,275.84 								"/>
								<polygon style="fill:#B72727;" points="266.12,300.27 267.46,300.3 267.36,275.85 266.02,275.84 								"/>
							</g>
							<g>
								<polygon style="fill:#FC7070;" points="262.24,300.17 263.85,300.21 263.76,275.82 262.16,275.81 								"/>
								<polygon style="fill:#B72727;" points="262.52,300.18 263.85,300.21 263.76,275.82 262.43,275.81 								"/>
							</g>
							<g>
								<polygon style="fill:#FC7070;" points="258.65,300.09 260.25,300.13 260.18,275.8 258.58,275.78 								"/>
								<polygon style="fill:#B72727;" points="258.93,300.09 260.25,300.13 260.18,275.8 258.86,275.79 								"/>
							</g>
							<g>
								<polygon style="fill:#FC7070;" points="255.09,300 256.67,300.04 256.61,275.77 255.03,275.76 								"/>
								<polygon style="fill:#B72727;" points="255.36,300.01 256.67,300.04 256.61,275.77 255.3,275.76 								"/>
							</g>
							<g>
								<polygon style="fill:#FC7070;" points="251.53,299.92 253.12,299.96 253.06,275.74 251.49,275.73 								"/>
								<polygon style="fill:#B72727;" points="251.81,299.92 253.12,299.96 253.06,275.74 251.76,275.73 								"/>
							</g>
							<g>
								<polygon style="fill:#FC7070;" points="248,299.83 249.57,299.87 249.54,275.72 247.97,275.71 								"/>
								<polygon style="fill:#B72727;" points="248.27,299.84 249.57,299.87 249.54,275.72 248.24,275.71 								"/>
							</g>
							<g>
								<polygon style="fill:#FC7070;" points="244.48,299.75 246.05,299.79 246.02,275.69 244.46,275.68 								"/>
								<polygon style="fill:#B72727;" points="244.75,299.76 246.05,299.79 246.02,275.69 244.73,275.68 								"/>
							</g>
							<g>
								<polygon style="fill:#FC7070;" points="240.98,299.67 242.54,299.7 242.53,275.67 240.97,275.66 								"/>
								<polygon style="fill:#B72727;" points="241.25,299.67 242.54,299.7 242.53,275.67 241.24,275.66 								"/>
							</g>
						</g>
					</g>
					<g>
						<polygon style="fill:#FC7070;" points="308.35,304.02 284.57,303.41 284.37,273.01 308.03,273.14 						"/>
						<polygon style="fill:#B72727;" points="296.64,303.72 296.09,303.7 295.83,273.07 296.39,273.07 						"/>
						<polygon style="fill:#FFA4A4;" points="293.7,299.45 287.07,299.29 287.05,296.63 293.68,296.77 						"/>
						<polygon style="fill:#FFA4A4;" points="305.88,299.72 299.14,299.57 299.11,296.88 305.86,297.03 						"/>
					</g>
				</g>
				<g>
					<g>
						<polygon style="fill:#FDA635;" points="293.81,273.06 247.72,272.81 247.68,243.42 293.57,242.74 						"/>
						<g>
							<g>
								<polygon style="fill:#FFD13F;" points="289.64,270.35 291.3,270.36 291.11,245.73 289.46,245.75 								"/>
								<polygon style="fill:#EF701B;" points="289.93,270.35 291.3,270.36 291.11,245.73 289.74,245.75 								"/>
							</g>
							<g>
								<polygon style="fill:#FFD13F;" points="285.94,270.34 287.59,270.35 287.41,245.78 285.77,245.8 								"/>
								<polygon style="fill:#EF701B;" points="286.22,270.34 287.59,270.35 287.41,245.78 286.05,245.8 								"/>
							</g>
							<g>
								<polygon style="fill:#FFD13F;" points="282.25,270.33 283.89,270.33 283.73,245.83 282.09,245.85 								"/>
								<polygon style="fill:#EF701B;" points="282.53,270.33 283.89,270.33 283.73,245.83 282.37,245.84 								"/>
							</g>
							<g>
								<polygon style="fill:#FFD13F;" points="278.58,270.31 280.21,270.32 280.07,245.87 278.44,245.89 								"/>
								<polygon style="fill:#EF701B;" points="278.86,270.31 280.21,270.32 280.07,245.87 278.72,245.89 								"/>
							</g>
							<g>
								<polygon style="fill:#FFD13F;" points="274.93,270.3 276.56,270.31 276.42,245.92 274.8,245.94 								"/>
								<polygon style="fill:#EF701B;" points="275.21,270.3 276.56,270.31 276.42,245.92 275.08,245.94 								"/>
							</g>
							<g>
								<polygon style="fill:#FFD13F;" points="271.3,270.29 272.92,270.29 272.79,245.97 271.18,245.99 								"/>
								<polygon style="fill:#EF701B;" points="271.58,270.29 272.92,270.29 272.79,245.97 271.46,245.98 								"/>
							</g>
							<g>
								<polygon style="fill:#FFD13F;" points="267.68,270.27 269.29,270.28 269.18,246.01 267.58,246.03 								"/>
								<polygon style="fill:#EF701B;" points="267.96,270.27 269.29,270.28 269.18,246.01 267.86,246.03 								"/>
							</g>
							<g>
								<polygon style="fill:#FFD13F;" points="264.09,270.26 265.69,270.27 265.59,246.06 264,246.08 								"/>
								<polygon style="fill:#EF701B;" points="264.36,270.26 265.69,270.27 265.59,246.06 264.27,246.08 								"/>
							</g>
							<g>
								<polygon style="fill:#FFD13F;" points="260.51,270.25 262.1,270.25 262.02,246.1 260.43,246.13 								"/>
								<polygon style="fill:#EF701B;" points="260.78,270.25 262.1,270.25 262.02,246.1 260.7,246.12 								"/>
							</g>
							<g>
								<polygon style="fill:#FFD13F;" points="256.94,270.24 258.53,270.24 258.46,246.15 256.88,246.17 								"/>
								<polygon style="fill:#EF701B;" points="257.22,270.24 258.53,270.24 258.46,246.15 257.15,246.17 								"/>
							</g>
							<g>
								<polygon style="fill:#FFD13F;" points="253.4,270.22 254.98,270.23 254.92,246.2 253.35,246.22 								"/>
								<polygon style="fill:#EF701B;" points="253.67,270.22 254.98,270.23 254.92,246.2 253.62,246.21 								"/>
							</g>
							<g>
								<polygon style="fill:#FFD13F;" points="249.87,270.21 251.44,270.22 251.4,246.24 249.83,246.26 								"/>
								<polygon style="fill:#EF701B;" points="250.14,270.21 251.44,270.22 251.4,246.24 250.1,246.26 								"/>
							</g>
						</g>
					</g>
					<g>
						<polygon style="fill:#FFD13F;" points="317.78,273.19 293.81,273.06 293.57,242.74 317.42,242.39 						"/>
						<polygon style="fill:#EF701B;" points="305.98,273.12 305.42,273.12 305.12,242.57 305.68,242.56 						"/>
						<polygon style="fill:#FFF5DF;" points="303.01,268.92 296.32,268.91 296.3,266.25 302.98,266.26 						"/>
						<polygon style="fill:#FFF5DF;" points="315.29,268.96 308.49,268.94 308.46,266.26 315.26,266.27 						"/>
					</g>
				</g>
			</g>
			<g>
				<path style="fill:#241933;" d="M701.29,256.16c-16.22,52.81-42.93,83.38-66.89,92.66l-6.88,3.51
					c-5.16,2.62-10.05,5.87-14.65,9.69c-4.39,3.65-8.5,7.83-12.28,12.5c-0.17,0.21-0.33,0.41-0.5,0.62
					c-15.52,19.54-36.66,30.51-58.72,30.51H107.18l-6.09-5.97c-6.89-6.76-12.95-14.24-18.12-22.33
					c-17.62-27.51-25.06-61.82-20.84-97.12l53.75-2.11c8.29,12.64,20.72,19.65,34.52,19.36l246.29-5.08
					c11.44-0.24,22.81-3.01,33.6-8.1c10.8-5.09,20.99-12.49,30.03-21.94L701.29,256.16z"/>
				<g>
					<path style="fill:#241933;" d="M455.64,278.4l-337.92,7.74c-0.52,0.01-0.9-0.48-0.83-1.1c0.06-0.62,0.54-1.13,1.06-1.14
						l337.72-7.88c0.59-0.01,1.07,0.51,1.06,1.16C456.72,277.85,456.23,278.39,455.64,278.4z"/>
					<path style="fill:#241933;" d="M430.1,295.21c-0.59,0.01-1.06-0.51-1.05-1.17l0.33-16.21c0.01-0.65,0.5-1.19,1.09-1.21
						c0.59-0.01,1.05,0.5,1.04,1.16l-0.32,16.22C431.18,294.65,430.69,295.19,430.1,295.21z"/>
					<path style="fill:#241933;" d="M415.61,295.5c-0.59,0.01-1.05-0.51-1.04-1.17l0.39-16.17c0.02-0.65,0.5-1.19,1.09-1.2
						c0.59-0.01,1.05,0.5,1.03,1.15l-0.38,16.18C416.69,294.94,416.2,295.48,415.61,295.5z"/>
					<path style="fill:#241933;" d="M401.19,295.78c-0.59,0.01-1.04-0.51-1.03-1.17l0.46-16.13c0.02-0.65,0.5-1.19,1.09-1.2
						c0.58-0.01,1.04,0.5,1.02,1.15l-0.45,16.14C402.27,295.23,401.78,295.77,401.19,295.78z"/>
					<path style="fill:#241933;" d="M386.85,296.07c-0.58,0.01-1.04-0.51-1.02-1.16l0.52-16.09c0.02-0.65,0.51-1.18,1.09-1.2
						c0.58-0.01,1.03,0.5,1.01,1.15l-0.51,16.1C387.92,295.52,387.44,296.06,386.85,296.07z"/>
					<path style="fill:#241933;" d="M372.59,296.36c-0.58,0.01-1.03-0.51-1.01-1.16l0.58-16.05c0.02-0.65,0.51-1.18,1.08-1.19
						c0.58-0.01,1.02,0.5,1,1.15l-0.57,16.06C373.66,295.81,373.17,296.34,372.59,296.36z"/>
					<path style="fill:#241933;" d="M358.4,296.64c-0.58,0.01-1.02-0.51-1-1.16l0.64-16.01c0.03-0.65,0.51-1.18,1.08-1.19
						c0.57-0.01,1.02,0.5,0.99,1.14l-0.63,16.02C359.46,296.09,358.97,296.63,358.4,296.64z"/>
					<path style="fill:#241933;" d="M344.28,296.92c-0.57,0.01-1.01-0.5-0.99-1.15l0.69-15.97c0.03-0.64,0.51-1.17,1.08-1.19
						c0.57-0.01,1.01,0.5,0.98,1.14l-0.69,15.98C345.34,296.37,344.85,296.91,344.28,296.92z"/>
					<path style="fill:#241933;" d="M330.23,297.2c-0.57,0.01-1.01-0.5-0.98-1.15l0.75-15.93c0.03-0.64,0.51-1.17,1.08-1.19
						c0.57-0.01,1,0.5,0.97,1.14l-0.74,15.94C331.29,296.66,330.8,297.19,330.23,297.2z"/>
					<path style="fill:#241933;" d="M316.26,297.48c-0.57,0.01-1-0.5-0.97-1.15l0.81-15.89c0.03-0.64,0.52-1.17,1.08-1.18
						c0.56-0.01,1,0.49,0.96,1.14l-0.8,15.9C317.31,296.94,316.83,297.47,316.26,297.48z"/>
					<path style="fill:#241933;" d="M302.36,297.76c-0.56,0.01-0.99-0.5-0.96-1.15l0.87-15.85c0.04-0.64,0.52-1.17,1.08-1.18
						c0.56-0.01,0.99,0.49,0.95,1.13l-0.86,15.86C303.41,297.22,302.92,297.75,302.36,297.76z"/>
					<path style="fill:#241933;" d="M288.53,298.04c-0.56,0.01-0.99-0.5-0.95-1.14l0.92-15.81c0.04-0.64,0.52-1.16,1.08-1.18
						c0.56-0.01,0.98,0.49,0.94,1.13l-0.92,15.82C289.58,297.49,289.09,298.02,288.53,298.04z"/>
					<path style="fill:#241933;" d="M274.77,298.31c-0.56,0.01-0.98-0.5-0.94-1.14l0.98-15.77c0.04-0.64,0.52-1.16,1.08-1.17
						c0.56-0.01,0.97,0.49,0.94,1.13l-0.97,15.78C275.81,297.77,275.33,298.3,274.77,298.31z"/>
					<path style="fill:#241933;" d="M261.08,298.58c-0.56,0.01-0.97-0.5-0.93-1.14l1.04-15.73c0.04-0.63,0.52-1.16,1.08-1.17
						c0.55-0.01,0.97,0.49,0.93,1.12l-1.03,15.74C262.12,298.05,261.64,298.57,261.08,298.58z"/>
					<path style="fill:#241933;" d="M247.46,298.86c-0.55,0.01-0.96-0.5-0.92-1.13l1.09-15.7c0.04-0.63,0.53-1.15,1.08-1.17
						c0.55-0.01,0.96,0.49,0.92,1.12l-1.08,15.7C248.5,298.32,248.02,298.84,247.46,298.86z"/>
					<path style="fill:#241933;" d="M233.91,299.13c-0.55,0.01-0.96-0.5-0.91-1.13l1.15-15.66c0.05-0.63,0.53-1.15,1.07-1.16
						c0.55-0.01,0.95,0.49,0.91,1.12l-1.14,15.66C234.95,298.59,234.46,299.12,233.91,299.13z"/>
					<path style="fill:#241933;" d="M220.43,299.4c-0.55,0.01-0.95-0.49-0.9-1.13l1.2-15.62c0.05-0.63,0.53-1.15,1.07-1.16
						c0.54-0.01,0.95,0.49,0.9,1.12l-1.19,15.62C221.46,298.86,220.98,299.39,220.43,299.4z"/>
					<path style="fill:#241933;" d="M207.02,299.66c-0.54,0.01-0.94-0.49-0.89-1.13l1.25-15.58c0.05-0.63,0.53-1.15,1.07-1.16
						c0.54-0.01,0.94,0.49,0.89,1.11l-1.24,15.59C208.05,299.13,207.56,299.65,207.02,299.66z"/>
					<path style="fill:#241933;" d="M193.67,299.93c-0.54,0.01-0.94-0.49-0.88-1.12l1.3-15.54c0.05-0.63,0.53-1.14,1.07-1.16
						c0.54-0.01,0.93,0.48,0.88,1.11l-1.3,15.55C194.7,299.4,194.21,299.92,193.67,299.93z"/>
					<path style="fill:#241933;" d="M180.39,300.2c-0.54,0.01-0.93-0.49-0.88-1.12l1.36-15.5c0.05-0.62,0.53-1.14,1.07-1.15
						c0.54-0.01,0.93,0.48,0.87,1.11l-1.35,15.51C181.41,299.67,180.93,300.19,180.39,300.2z"/>
					<path style="fill:#241933;" d="M167.18,300.46c-0.54,0.01-0.92-0.49-0.87-1.12l1.41-15.47c0.06-0.62,0.54-1.14,1.07-1.15
						c0.53-0.01,0.92,0.48,0.86,1.11l-1.4,15.47C168.2,299.93,167.72,300.45,167.18,300.46z"/>
					<path style="fill:#241933;" d="M154.03,300.72c-0.53,0.01-0.92-0.49-0.86-1.12l1.46-15.43c0.06-0.62,0.54-1.14,1.07-1.15
						c0.53-0.01,0.91,0.48,0.86,1.1l-1.45,15.44C155.05,300.2,154.57,300.71,154.03,300.72z"/>
					<path style="fill:#241933;" d="M140.95,300.98c-0.53,0.01-0.91-0.49-0.85-1.11l1.51-15.39c0.06-0.62,0.54-1.13,1.07-1.14
						c0.53-0.01,0.91,0.48,0.85,1.1l-1.5,15.4C141.96,300.46,141.48,300.97,140.95,300.98z"/>
					<path style="fill:#241933;" d="M127.94,301.24c-0.53,0.01-0.9-0.49-0.84-1.11l1.56-15.36c0.06-0.62,0.54-1.13,1.07-1.14
						c0.53-0.01,0.9,0.48,0.84,1.1l-1.55,15.36C128.94,300.72,128.47,301.23,127.94,301.24z"/>
				</g>
				<path style="fill:#EA3D3D;" d="M600.59,374.52c-0.17,0.21-0.33,0.41-0.5,0.62c-15.52,19.54-36.66,30.51-58.72,30.51H107.18
					l-6.09-5.97c-6.89-6.76-12.95-14.24-18.12-22.33L600.59,374.52z"/>
				<g>
					<path style="fill:#47315D;" d="M233.4,316.52l-29.87,0.5c-2.24,0.04-3.88-2.05-3.66-4.67l0,0c0.21-2.61,2.19-4.76,4.43-4.8
						l29.79-0.55c2.26-0.04,3.94,2.05,3.75,4.68l0,0C237.66,314.31,235.67,316.48,233.4,316.52z"/>
					<path style="fill:#47315D;" d="M287.29,315.62l-30.47,0.51c-2.28,0.04-3.99-2.07-3.81-4.71l0,0c0.18-2.63,2.17-4.8,4.45-4.84
						l30.4-0.56c2.31-0.04,4.05,2.07,3.9,4.72l0,0C291.6,313.39,289.6,315.58,287.29,315.62z"/>
					<path style="fill:#47315D;" d="M342.27,314.7l-31.1,0.52c-2.33,0.04-4.1-2.09-3.96-4.76l0,0c0.14-2.66,2.14-4.85,4.46-4.89
						l31.02-0.57c2.35-0.04,4.17,2.09,4.06,4.77l0,0C346.64,312.45,344.63,314.66,342.27,314.7z"/>
				</g>
				<g>
					<path style="fill:#47315D;" d="M571.28,275.24c0.06,3.34-2.63,6.12-5.99,6.19c-3.36,0.07-6.13-2.58-6.18-5.91
						c-0.05-3.33,2.63-6.09,5.98-6.17C568.45,269.27,571.22,271.91,571.28,275.24z"/>
					<path style="fill:#47315D;" d="M595.48,274.69c0.08,3.36-2.61,6.14-6.01,6.22c-3.39,0.07-6.2-2.59-6.27-5.93
						c-0.07-3.34,2.61-6.12,5.99-6.2C592.58,268.69,595.4,271.34,595.48,274.69z"/>
					<path style="fill:#47315D;" d="M619.88,274.12c0.1,3.37-2.59,6.17-6.02,6.24c-3.42,0.08-6.27-2.6-6.36-5.96
						c-0.09-3.36,2.59-6.14,6.01-6.22C616.92,268.1,619.78,270.76,619.88,274.12z"/>
				</g>
			</g>
		</g>
		<path style="fill:#FFFFFF;" d="M595.68,403.36c-2.07-6.65-8.35-11.08-14.61-11.76c-6.26-0.68-12.74,3.02-15.92,9.09
			c-0.97-1.75-2.83-2.05-4.67-1.98c-1.84,0.07-3.61,1.31-4.47,3.13c-4.34-3.96-11.58-3.21-15.45,1.31
			c-11.53,0.5-23.2,1.59-34.73,2.09c-3.85-5.35-10.32-8.21-16.45-8.59c-6.14-0.38-12.38,2.27-16.73,7.12
			c-3.87-2.26-8.82-1.77-12.6,0.67c-2.28-2.81-6.09-3.02-8.84-0.22l-394.75,1.42l545.44,1.34C600.59,404.6,598.16,403,595.68,403.36
			z"/>
	</g>
	<g>
		<path style="fill:#FFFFFF;" d="M95.28,111.37H35.93c0.84-2.15,2.79-3.82,5-4.48c2.21-0.67,4.57-0.65,6.88-0.63
			c0.89-4,4.42-7.05,8.28-8.42c3.86-1.36,8.09-1.23,12.14-0.61c3.77-3.1,8.2-5.94,13.08-6.08c4.88-0.13,9.95,2.1,12.5,6.26
			C96.27,101.43,96.16,106.75,95.28,111.37z"/>
		<path style="fill:#FFFFFF;" d="M395.46,131.18h-47.74c-0.12-0.62,0.57-1.52,1-1.98c0.43-0.45,1.01-0.74,1.59-0.98
			c1.9-0.77,4-1.06,6.04-0.81c0.16-5.13,3.83-9.96,8.78-11.32c4.95-1.35,10.65,0.86,13.4,5.19c1.91-1.13,4.74-1.22,6.65-0.09
			c1.91,1.13,3.12,3.34,3.05,5.56c1.53,0.11,3.04,0.23,4.45,0.84C394.11,128.21,395.24,129.67,395.46,131.18z"/>
		<path style="fill:#FFFFFF;" d="M142.18,72.18H61.22c0.76-2.18,3.42-3.8,5.65-3.24c-0.6-3.51,1.09-7.15,3.77-9.5
			c2.68-2.34,6.33-3.41,9.9-3.35c3.56,0.06,7.04,1.16,10.24,2.74c1.31-1.2,2.94-1.43,4.68-1.06c1.74,0.37,3.26,1.62,3.97,3.25
			c2.77-3.58,7.66-5.35,12.11-4.54c4.45,0.81,8.32,4.26,9.64,8.59c1.75-0.94,3.83-0.9,5.7-0.25c1.87,0.65,3.45,2.11,4.24,3.93
			c1.97-0.34,3.93-0.47,5.91-0.22C139.02,68.8,141.13,70.47,142.18,72.18z"/>
		<path style="fill:#FFFFFF;" d="M475.42,60.58h72.59c-1.02-2.64-3.41-4.67-6.12-5.48c-2.71-0.82-5.59-0.79-8.41-0.77
			c-1.09-4.89-5.4-8.63-10.12-10.29c-4.72-1.67-9.9-1.5-14.85-0.75c-4.61-3.79-10.03-7.27-15.99-7.43
			c-5.97-0.16-12.17,2.56-15.29,7.65C474.21,48.42,474.34,54.93,475.42,60.58z"/>
		<path style="fill:#FFFFFF;" d="M542.46,78.87h47.74c0.12-0.62-0.57-1.52-1-1.98c-0.43-0.45-1.01-0.74-1.59-0.98
			c-1.9-0.77-4-1.06-6.04-0.81c-0.16-5.13-3.83-9.96-8.78-11.32c-4.95-1.35-10.65,0.86-13.4,5.19c-1.91-1.13-4.74-1.22-6.65-0.09
			c-1.91,1.13-3.12,3.34-3.05,5.56c-1.53,0.11-3.04,0.23-4.45,0.84C543.82,75.9,542.69,77.36,542.46,78.87z"/>
		<path style="fill:#FFFFFF;" d="M629.83,176.92h99.01c-0.93-2.67-4.18-4.65-6.92-3.96c0.73-4.3-1.33-8.75-4.61-11.61
			c-3.28-2.86-7.75-4.17-12.1-4.1c-4.36,0.07-8.62,1.42-12.52,3.36c-1.6-1.47-3.59-1.74-5.72-1.29c-2.13,0.45-3.99,1.98-4.86,3.97
			c-3.38-4.38-9.36-6.55-14.81-5.55c-5.45,1-10.18,5.21-11.79,10.51c-2.14-1.15-4.68-1.1-6.97-0.3c-2.29,0.79-4.22,2.58-5.19,4.81
			c-2.41-0.42-4.8-0.58-7.23-0.27C633.69,172.78,631.12,174.84,629.83,176.92z"/>
	</g>
</g>
</svg>
