<?xml version="1.0" encoding="utf-8"?>
<!-- Generator: Adobe Illustrator 25.4.1, SVG Export Plug-In . SVG Version: 6.00 Build 0)  -->
<svg version="1.1" xmlns="http://www.w3.org/2000/svg" xmlns:xlink="http://www.w3.org/1999/xlink" x="0px" y="0px"
	 viewBox="0 0 500 500" style="enable-background:new 0 0 500 500;" xml:space="preserve">
<g id="Background_Simple">
	<g>
		<path style="fill:#92E3A9;" d="M34.43,342c-46.69-101.66-5.89-222.41,93.28-274.18c14.6-7.62,30.78-14.71,48.65-20.81
			c117-40,217,40,248,110s65,153,52,207s-49,116-144,120s-123-59-175-70s-91-3-122-70C35.05,343.33,34.74,342.66,34.43,342z"/>
		<path style="opacity:0.7;fill:#FFFFFF;" d="M34.43,342c-46.69-101.66-5.89-222.41,93.28-274.18c14.6-7.62,30.78-14.71,48.65-20.81
			c117-40,217,40,248,110s65,153,52,207s-49,116-144,120s-123-59-175-70s-91-3-122-70C35.05,343.33,34.74,342.66,34.43,342z"/>
	</g>
</g>
<g id="Clouds">
	<g>
		<path style="fill:none;stroke:#263238;stroke-miterlimit:10;" d="M465.94,104.66c0.64-3.65,1.57-12.72-3.94-17.17
			c-7-5.65-11.97,4.52-18.07-3.39c-6.1-7.91-7.91-25.07-25.98-24.85c-18.07,0.23-19.43,10.39-19.43,13.78
			c0,3.39-5.42,5.87-6.55,5.87c-1.13,0-7.45-2.94-9.71,3.61c-2.26,6.55-0.73,10.34-4.32,10.48c-3.59,0.14-8.05-4.76-12.93-2.31
			c-4.89,2.45-4.89,7.64-6.92,9.45c-2.03,1.81-5.42-1.36-9.94,0.45c-2.74,1.1-3.56,2.85-3.79,4.07H465.94z"/>
		<path style="fill:none;stroke:#263238;stroke-miterlimit:10;" d="M256.63,106.1c0.45-2.56,1.1-8.92-2.76-12.04
			c-4.91-3.96-8.4,3.17-12.67-2.38c-4.28-5.55-5.55-17.59-18.22-17.43s-13.63,7.29-13.63,9.66c0,2.38-3.8,4.12-4.59,4.12
			c-0.79,0-5.23-2.06-6.81,2.53c-1.58,4.59-0.51,7.25-3.03,7.35c-2.52,0.1-5.64-3.34-9.07-1.62c-3.43,1.72-3.43,5.36-4.85,6.63
			c-1.43,1.27-3.8-0.95-6.97,0.32c-1.92,0.77-2.5,2-2.66,2.85H256.63z"/>
		<path style="fill:none;stroke:#263238;stroke-miterlimit:10;" d="M77.54,106.1c0.31-1.78,0.77-6.19-1.92-8.36
			c-3.41-2.75-5.83,2.2-8.8-1.65c-2.97-3.85-3.85-12.21-12.65-12.1c-8.8,0.11-9.46,5.06-9.46,6.71c0,1.65-2.64,2.86-3.19,2.86
			c-0.55,0-3.63-1.43-4.73,1.76c-1.1,3.19-0.35,5.03-2.1,5.1c-1.75,0.07-3.92-2.32-6.3-1.12c-2.38,1.19-2.38,3.72-3.37,4.6
			c-0.99,0.88-2.64-0.66-4.84,0.22c-1.33,0.53-1.73,1.39-1.85,1.98H77.54z"/>
		<path style="fill:none;stroke:#263238;stroke-miterlimit:10;" d="M395.63,175.1c0.45-2.56,1.1-8.92-2.76-12.04
			c-4.91-3.96-8.4,3.17-12.67-2.38c-4.28-5.55-5.55-17.59-18.22-17.43c-12.67,0.16-13.63,7.29-13.63,9.66c0,2.38-3.8,4.12-4.59,4.12
			c-0.79,0-5.23-2.06-6.81,2.53c-1.58,4.59-0.51,7.25-3.03,7.35c-2.52,0.1-5.64-3.34-9.07-1.62c-3.43,1.72-3.43,5.36-4.85,6.63
			c-1.43,1.27-3.8-0.95-6.97,0.32c-1.92,0.77-2.5,2-2.66,2.85H395.63z"/>
		<path style="fill:none;stroke:#263238;stroke-miterlimit:10;" d="M412.5,59.52c-1.35-2.69-2.59-6.3-7.26-6.24
			c-5.72,0.07-6.15,3.29-6.15,4.36c0,1.07-1.72,1.86-2.07,1.86c-0.36,0-2.36-0.93-3.08,1.14c-0.72,2.07-0.23,3.27-1.37,3.32
			c-1.14,0.04-2.55-1.51-4.1-0.73c-1.55,0.78-1.55,2.42-2.19,2.99c-0.64,0.57-1.72-0.43-3.15,0.14c-0.87,0.35-1.13,0.9-1.2,1.29
			h17.26"/>
	</g>
</g>
<g id="Sea">
	<g>
		<line style="fill:none;stroke:#263238;stroke-miterlimit:10;" x1="10" y1="297.76" x2="483" y2="297.76"/>
		<line style="fill:none;stroke:#263238;stroke-miterlimit:10;" x1="474" y1="333.58" x2="422" y2="333.58"/>
		<line style="fill:none;stroke:#263238;stroke-miterlimit:10;" x1="337" y1="336.58" x2="394" y2="336.58"/>
		<line style="fill:none;stroke:#263238;stroke-miterlimit:10;" x1="385" y1="373.58" x2="438" y2="373.58"/>
		<line style="fill:none;stroke:#263238;stroke-miterlimit:10;" x1="459" y1="365.58" x2="326" y2="365.58"/>
		<line style="fill:none;stroke:#263238;stroke-miterlimit:10;" x1="317" y1="375.58" x2="364" y2="375.58"/>
		<line style="fill:none;stroke:#263238;stroke-miterlimit:10;" x1="398" y1="352.58" x2="271" y2="352.58"/>
		<line style="fill:none;stroke:#263238;stroke-miterlimit:10;" x1="320" y1="336.58" x2="312" y2="336.58"/>
		<line style="fill:none;stroke:#263238;stroke-miterlimit:10;" x1="191" y1="372.58" x2="290" y2="372.58"/>
		<line style="fill:none;stroke:#263238;stroke-miterlimit:10;" x1="462" y1="405.58" x2="400" y2="405.58"/>
		<line style="fill:none;stroke:#263238;stroke-miterlimit:10;" x1="479" y1="327.58" x2="463" y2="327.58"/>
		<line style="fill:none;stroke:#263238;stroke-miterlimit:10;" x1="362" y1="327.58" x2="282" y2="327.58"/>
		<line style="fill:none;stroke:#263238;stroke-miterlimit:10;" x1="214" y1="357.58" x2="198" y2="357.58"/>
		<line style="fill:none;stroke:#263238;stroke-miterlimit:10;" x1="233" y1="343.58" x2="189" y2="343.58"/>
		<line style="fill:none;stroke:#263238;stroke-miterlimit:10;" x1="91" y1="347.58" x2="174" y2="347.58"/>
		<line style="fill:none;stroke:#263238;stroke-miterlimit:10;" x1="170" y1="371.58" x2="162" y2="371.58"/>
		<line style="fill:none;stroke:#263238;stroke-miterlimit:10;" x1="79" y1="367.58" x2="101" y2="367.58"/>
		<line style="fill:none;stroke:#263238;stroke-miterlimit:10;" x1="20" y1="350.58" x2="60" y2="350.58"/>
		<line style="fill:none;stroke:#263238;stroke-miterlimit:10;" x1="28" y1="342.58" x2="47" y2="342.58"/>
		<line style="fill:none;stroke:#263238;stroke-miterlimit:10;" x1="349" y1="397.58" x2="226" y2="397.58"/>
	</g>
</g>
<g id="Ship_2">
	<g>
		<rect x="136.4" y="278.16" style="fill:#FFFFFF;stroke:#263238;stroke-miterlimit:10;" width="10.29" height="18.13"/>
		<rect x="143.04" y="286.21" style="fill:#FFFFFF;stroke:#263238;stroke-miterlimit:10;" width="31.93" height="7.76"/>
		<g>
			<polyline style="fill:none;stroke:#263238;stroke-miterlimit:10;" points="196.6,271 196.6,234.52 204.21,234.52 211.81,270.55 
							"/>
			<line style="fill:none;stroke:#263238;stroke-miterlimit:10;" x1="196.78" y1="242.88" x2="205.85" y2="242.88"/>
			<line style="fill:none;stroke:#263238;stroke-miterlimit:10;" x1="196.92" y1="249.58" x2="206.97" y2="249.58"/>
			<line style="fill:none;stroke:#263238;stroke-miterlimit:10;" x1="196.64" y1="257.82" x2="209.2" y2="257.82"/>
			<line style="fill:none;stroke:#263238;stroke-miterlimit:10;" x1="196.92" y1="264.1" x2="210.46" y2="264.1"/>
			<polyline style="fill:none;stroke:#263238;stroke-miterlimit:10;" points="204.74,236.74 197.89,242.74 205.71,249.44 
				197.89,257.82 208.51,264.24 199.99,269.83 			"/>
		</g>
		<polygon style="fill:#FFFFFF;stroke:#263238;stroke-miterlimit:10;" points="190.6,262.94 180.66,262.94 177.35,281.51 
			193.91,281.51 		"/>
		<rect x="194.81" y="269.43" style="fill:#FFFFFF;stroke:#263238;stroke-miterlimit:10;" width="18.13" height="6.49"/>
		<rect x="181.83" y="273.68" style="fill:#FFFFFF;stroke:#263238;stroke-miterlimit:10;" width="31.55" height="8.5"/>
		<rect x="167.21" y="282.04" style="fill:#FFFFFF;stroke:#263238;stroke-miterlimit:10;" width="54.01" height="14.92"/>
		<rect x="224.27" y="286.21" style="fill:#FFFFFF;stroke:#263238;stroke-miterlimit:10;" width="25.59" height="7.76"/>
		<rect x="165.41" y="279.65" style="fill:#FFFFFF;stroke:#263238;stroke-miterlimit:10;" width="58.48" height="2.69"/>
		<g>
			<polygon style="fill:#FFFFFF;stroke:#263238;stroke-miterlimit:10;" points="262.84,272.79 267.09,256.23 287.01,256.23 
				296.85,260.25 307.37,260.25 316.77,271.44 			"/>
			<path style="fill:#FFFFFF;stroke:#263238;stroke-miterlimit:10;" d="M255.23,295.46l3.28-20.59l-2.98-3.88h66.54l13.73,12.53
				h28.35l2.39,5.37l-14.62,2.09l-3.58,4.48C348.33,295.46,254.33,294.57,255.23,295.46z"/>
			<g>
				<polyline style="fill:#FFFFFF;stroke:#263238;stroke-miterlimit:10;" points="313.16,271.2 324.3,283.35 334.8,283.35 				"/>
				<line style="fill:#FFFFFF;stroke:#263238;stroke-miterlimit:10;" x1="258.51" y1="274.87" x2="316.33" y2="274.87"/>
			</g>
		</g>
		<rect x="64.34" y="289.12" style="fill:none;stroke:#263238;stroke-miterlimit:10;" width="66.24" height="5.82"/>
		<rect x="390.27" y="279.13" style="fill:#FFFFFF;stroke:#263238;stroke-miterlimit:10;" width="23.99" height="1.2"/>
		<polygon style="fill:#FFFFFF;stroke:#263238;stroke-miterlimit:10;" points="377.19,282.84 377.19,278.15 390.49,278.15 
			392.78,282.51 		"/>
		<path style="fill:#FFFFFF;stroke:#263238;stroke-miterlimit:10;" d="M62.29,294.86l283.39-2.17l3.91-4.77l127.59-3.47
			c0,0-29.51,20.4-34.72,28.64c-5.21,8.25-5.21,6.94-5.21,6.94H80.95c0,0-5.64-9.55-11.72-15.19S62.29,294.86,62.29,294.86z"/>
		<g>
			<polyline style="fill:none;stroke:#263238;stroke-miterlimit:10;" points="418.37,286.07 418.37,281.92 475.98,279.96 
				475.98,284.11 			"/>
			<line style="fill:none;stroke:#263238;stroke-miterlimit:10;" x1="423.82" y1="281.92" x2="423.82" y2="286.07"/>
			<line style="fill:none;stroke:#263238;stroke-miterlimit:10;" x1="429.93" y1="281.92" x2="429.93" y2="286.07"/>
			<line style="fill:none;stroke:#263238;stroke-miterlimit:10;" x1="436.05" y1="281.37" x2="436.05" y2="285.51"/>
			<line style="fill:none;stroke:#263238;stroke-miterlimit:10;" x1="442.16" y1="281.05" x2="442.16" y2="285.2"/>
			<line style="fill:none;stroke:#263238;stroke-miterlimit:10;" x1="448.27" y1="280.65" x2="448.27" y2="284.8"/>
			<line style="fill:none;stroke:#263238;stroke-miterlimit:10;" x1="454.38" y1="280.75" x2="454.38" y2="284.9"/>
			<line style="fill:none;stroke:#263238;stroke-miterlimit:10;" x1="460.49" y1="280.43" x2="460.49" y2="284.58"/>
			<line style="fill:none;stroke:#263238;stroke-miterlimit:10;" x1="466.6" y1="280.34" x2="466.6" y2="284.48"/>
			<line style="fill:none;stroke:#263238;stroke-miterlimit:10;" x1="472.71" y1="279.94" x2="472.71" y2="284.09"/>
		</g>
		<polygon style="fill:#FFFFFF;stroke:#263238;stroke-miterlimit:10;" points="265.08,265.4 325.05,265.4 322.07,271 263.29,270.77 
					"/>
		<rect x="266.42" y="239.89" style="fill:#FFFFFF;stroke:#263238;stroke-miterlimit:10;" width="5.59" height="16.78"/>
		<circle style="fill:#FFFFFF;stroke:#263238;stroke-miterlimit:10;" cx="280.97" cy="232.73" r="5.15"/>
		<rect x="274.03" y="241.01" style="fill:#FFFFFF;stroke:#263238;stroke-miterlimit:10;" width="13.88" height="15.22"/>
		<polygon style="fill:#FFFFFF;stroke:#263238;stroke-miterlimit:10;" points="286.72,235.41 275.44,235.41 274.03,241.01 
			288.13,241.01 		"/>
		<polygon style="fill:#FFFFFF;stroke:#263238;stroke-miterlimit:10;" points="270.45,217.24 267.93,217.24 267.62,239.88 
			270.76,239.88 		"/>
		<rect x="266.75" y="216.48" style="fill:#FFFFFF;stroke:#263238;stroke-miterlimit:10;" width="4.77" height="1.3"/>
		<polygon style="fill:#FFFFFF;stroke:#263238;stroke-miterlimit:10;" points="261.77,224.39 261.77,225.36 267.08,226.99 
			270.76,226.99 273.04,225.36 273.04,224.5 		"/>
		<line style="fill:none;stroke:#263238;stroke-miterlimit:10;" x1="268.16" y1="216.37" x2="268.16" y2="203.58"/>
		<line style="fill:none;stroke:#263238;stroke-miterlimit:10;" x1="266.1" y1="206.83" x2="270.22" y2="206.83"/>
		<polygon style="fill:#FFFFFF;stroke:#263238;stroke-miterlimit:10;" points="266.42,239.89 261.88,239.89 261.88,241.62 
			266.43,243.46 		"/>
		<rect x="299.8" y="267.3" style="fill:#FFFFFF;stroke:#263238;stroke-miterlimit:10;" width="3.25" height="2.06"/>
		<rect x="304.89" y="267.3" style="fill:#FFFFFF;stroke:#263238;stroke-miterlimit:10;" width="3.25" height="2.06"/>
		<rect x="309.99" y="267.3" style="fill:#FFFFFF;stroke:#263238;stroke-miterlimit:10;" width="3.25" height="2.06"/>
		<rect x="315.08" y="267.3" style="fill:#FFFFFF;stroke:#263238;stroke-miterlimit:10;" width="3.25" height="2.06"/>
		<rect x="198.31" y="231.99" style="fill:none;stroke:#263238;stroke-miterlimit:10;" width="5.59" height="2.23"/>
		<rect x="188.68" y="228.92" style="fill:none;stroke:#263238;stroke-miterlimit:10;" width="17.18" height="1.26"/>
		<polygon style="fill:none;stroke:#263238;stroke-miterlimit:10;" points="198.31,231.99 192.31,230.31 205.85,230.31 
			203.9,231.99 		"/>
		<polygon style="fill:none;stroke:#263238;stroke-miterlimit:10;" points="180.59,263.36 173.39,263.36 173.39,264.4 
			179.98,265.78 		"/>
		<polygon style="fill:#FFFFFF;stroke:#263238;stroke-miterlimit:10;" points="372.61,287.42 372.61,282.51 396.6,282.51 
			396.6,283.27 398.89,282.29 401.18,282.29 401.18,286.87 		"/>
	</g>
</g>
<g id="Character">
	<g>
		
			<ellipse style="fill:#FFFFFF;stroke:#263238;stroke-linecap:round;stroke-linejoin:round;stroke-miterlimit:10;" cx="134.84" cy="47.94" rx="18.62" ry="9.83"/>
		<path style="fill:#FFFFFF;stroke:#263238;stroke-linecap:round;stroke-linejoin:round;stroke-miterlimit:10;" d="M118.1,62.93
			l-8.66-13.82c0,0,8.66-7.02,25.76-6.79c17.09,0.23,25.99,7.96,25.99,7.96l-8.57,12.48L118.1,62.93z"/>
		<path style="fill:#FFFFFF;stroke:#263238;stroke-linecap:round;stroke-linejoin:round;stroke-miterlimit:10;" d="M185.54,224.18
			c0,0-2.81,8.9-2.81,11.47c0,2.58,0.7,5.39-0.23,8.2c-0.94,2.81-1.64,3.98-0.23,4.45c1.4,0.47,3.98-4.92,3.98-4.92v5.15
			c0,0-3.51,2.58-2.81,4.21c0.7,1.64,7.49-2.11,7.49-2.11s3.75-6.79,4.45-7.49s2.11-18.03,2.11-18.03L185.54,224.18z"/>
		<polygon style="fill:#FFFFFF;stroke:#263238;stroke-linecap:round;stroke-linejoin:round;stroke-miterlimit:10;" points="
			185.07,216.92 184.83,225.81 197.42,227.83 198.88,217.62 		"/>
		<g>
			<g>
				<path style="fill:#263238;stroke:#263238;stroke-linecap:round;stroke-linejoin:round;stroke-miterlimit:10;" d="M116.95,363.65
					l-3.04,3.76c0,0,0.16,10.46-1.17,11.79c-3.12,3.12-6.86,7.95-6.5,9.76c0.36,1.81-0.36,3.62,0.72,3.98c1.08,0.36,28.79,0,28.79,0
					s3.25-0.72,3.25-3.62c0-2.89,0-24.23,0-24.23L116.95,363.65z"/>
				<path style="fill:#757575;stroke:#263238;stroke-linecap:round;stroke-linejoin:round;stroke-miterlimit:10;" d="M106.34,389.96
					c0.05,1.43-0.26,2.68,0.62,2.98c1.08,0.36,28.79,0,28.79,0s2.76-0.62,3.19-2.98H106.34z"/>
			</g>
			<path style="fill:none;stroke:#7D7D7D;stroke-linecap:round;stroke-linejoin:round;stroke-miterlimit:10;" d="M114.3,378.72
				c0,0,10.14-3.9,19.51,0.94"/>
		</g>
		<g>
			<g>
				<path style="fill:#263238;stroke:#263238;stroke-linecap:round;stroke-linejoin:round;stroke-miterlimit:10;" d="M161.82,363.65
					l3.04,3.76c0,0-0.16,10.46,1.17,11.79c3.12,3.12,6.86,7.95,6.5,9.76c-0.36,1.81,0.36,3.62-0.72,3.98c-1.08,0.36-28.79,0-28.79,0
					s-3.25-0.72-3.25-3.62c0-2.89,0-24.23,0-24.23L161.82,363.65z"/>
				<path style="fill:#757575;stroke:#263238;stroke-linecap:round;stroke-linejoin:round;stroke-miterlimit:10;" d="M172.43,389.96
					c-0.05,1.43,0.26,2.68-0.62,2.98c-1.08,0.36-28.79,0-28.79,0s-2.76-0.62-3.19-2.98H172.43z"/>
			</g>
			<path style="fill:none;stroke:#7D7D7D;stroke-linecap:round;stroke-linejoin:round;stroke-miterlimit:10;" d="M164.47,378.72
				c0,0-10.14-3.9-19.51,0.94"/>
		</g>
		<path style="fill:#FFFFFF;stroke:#263238;stroke-linecap:round;stroke-linejoin:round;stroke-miterlimit:10;" d="M105.92,205.53
			c0,0,0.94,49.88,0.94,52.45s3.04,47.77,4.45,55.73c1.4,7.96,4.21,40.49,4.21,40.49s-3.28,2.11-3.28,3.28s0.7,10.16,0.7,10.16
			s6.79,2.95,8.9,3.42c2.11,0.47,15.22-0.7,16.63-0.94c1.4-0.23,13.82,1.4,15.69,1.17c1.87-0.23,5.62-1.4,6.56-2.11
			c0.94-0.7,4.77-0.47,4.77-0.47s-1.02-8.43-1.02-9.83c0-1.4-3.04-4.21-3.04-5.39s5.85-55.24,5.85-57.81
			c0-2.58,3.04-64.39,3.04-64.39V206.7L105.92,205.53z"/>
		<g>
			<path style="fill:#FFFFFF;stroke:#263238;stroke-linecap:round;stroke-linejoin:round;stroke-miterlimit:10;" d="M203.52,210.99
				c0,2.89-1.09,7.6-2.54,8.32c-1.45,0.73-17.38-1.08-18.83-2.71c-1.45-1.63-1.09-22.64-1.09-23.18c0-0.54-7.24-36.06-7.24-36.06
				l-2.17,50.88c0,0-5.25,1.45-9.6,1.82c-4.35,0.36-19.38,3.07-31.87,1.44c-12.49-1.63-26.44-3.07-26.44-3.07l-1.27-67.91
				c0,0-2.71-2.9-4.88-2.9c-2.18,0-20.29-1.45-28.98-2.35c-8.69-0.91-17.2-3.08-19.55-3.8c-2.36-0.73-5.07-2.18-3.63-5.44
				c1.45-3.25,31.87-18.83,31.87-18.83s23.18-5.61,25.54-5.61c2.35,0,13.76-0.18,13.76-0.18s17.2-0.73,22.27-0.73
				c5.07,0,26.8,0.73,31.51,1.63c4.71,0.91,8.33,1.27,10.86,2.36c2.54,1.08,5.07,3.08,7.07,6.33c1.99,3.26,5.79,21.01,6.15,22.1
				c0.37,1.08,5.44,16.11,7.25,28.43c0.8,5.41,1.24,15.05,1.49,24.42c0.04,1.36,0.07,2.72,0.09,4.05c0.02,0.68,0.03,1.36,0.05,2.04
				c0.02,1.39,0.05,2.76,0.07,4.08c0.01,0.7,0.02,1.38,0.02,2.05c0.02,1.45,0.04,2.83,0.05,4.11v0.01
				C203.52,206.88,203.52,210.17,203.52,210.99z"/>
			<g>
				<path style="fill:#FFFFFF;stroke:#263238;stroke-linecap:round;stroke-linejoin:round;stroke-miterlimit:10;" d="M158.02,144.67
					c0-1.97-1.6-3.58-3.58-3.58s-3.58,1.6-3.58,3.58s1.6,3.58,3.58,3.58S158.02,146.64,158.02,144.67z"/>
				<polygon style="fill:#92E3A9;stroke:#263238;stroke-linecap:round;stroke-linejoin:round;stroke-miterlimit:10;" points="
					157.54,136.56 154.44,140.38 151.11,136.56 151.11,127.27 157.54,127.27 				"/>
			</g>
			<g>
				<path style="fill:#FFFFFF;stroke:#263238;stroke-linecap:round;stroke-linejoin:round;stroke-miterlimit:10;" d="M167.55,144.67
					c0-1.97-1.6-3.58-3.58-3.58s-3.58,1.6-3.58,3.58s1.6,3.58,3.58,3.58S167.55,146.64,167.55,144.67z"/>
				<polygon style="fill:#263238;stroke:#263238;stroke-miterlimit:10;" points="167.08,136.56 163.98,140.38 160.64,136.56 
					160.64,127.27 167.08,127.27 				"/>
				<g>
					<polygon style="fill:#92E3A9;stroke:#263238;stroke-linecap:round;stroke-linejoin:round;stroke-miterlimit:10;" points="
						164.4,139.86 164.4,127.27 162.99,127.27 162.99,139.25 163.98,140.38 					"/>
					<polygon style="fill:#92E3A9;stroke:#263238;stroke-linecap:round;stroke-linejoin:round;stroke-miterlimit:10;" points="
						166.51,127.27 165.1,127.27 165.1,138.99 166.51,137.26 					"/>
					<polygon style="fill:#92E3A9;stroke:#263238;stroke-linecap:round;stroke-linejoin:round;stroke-miterlimit:10;" points="
						160.88,136.84 162.29,138.45 162.29,127.27 160.88,127.27 					"/>
				</g>
			</g>
			<g>
				<path style="fill:#92E3A9;stroke:#263238;stroke-linecap:round;stroke-linejoin:round;stroke-miterlimit:10;" d="M186.56,133.48
					v4.17l10.77,4.72c-0.52-1.8-1.01-3.43-1.43-4.8L186.56,133.48z"/>
				<path style="fill:#92E3A9;stroke:#263238;stroke-linecap:round;stroke-linejoin:round;stroke-miterlimit:10;" d="M199.8,151.79
					l-13.24-5.8v4.17l14.24,6.24C200.5,154.86,200.16,153.31,199.8,151.79z"/>
				<path style="fill:#92E3A9;stroke:#263238;stroke-linecap:round;stroke-linejoin:round;stroke-miterlimit:10;" d="M186.56,139.73
					v4.17l12.67,5.55c-0.41-1.63-0.82-3.21-1.24-4.71L186.56,139.73z"/>
			</g>
			<g>
				<path style="fill:#92E3A9;stroke:#263238;stroke-linecap:round;stroke-linejoin:round;stroke-miterlimit:10;" d="M203.29,190
					l-6.38,8.13v-4.17l6.29-8.01C203.24,187.31,203.27,188.67,203.29,190z"/>
				<path style="fill:#92E3A9;stroke:#263238;stroke-linecap:round;stroke-linejoin:round;stroke-miterlimit:10;" d="M203.48,202.28
					L203.48,202.28l-6.57,8.36v-4.17l6.52-8.3C203.45,199.62,203.47,201,203.48,202.28z"/>
				<path style="fill:#92E3A9;stroke:#263238;stroke-linecap:round;stroke-linejoin:round;stroke-miterlimit:10;" d="M203.41,196.12
					l-6.5,8.27v-4.17l6.43-8.18C203.36,193.43,203.39,194.8,203.41,196.12z"/>
			</g>
			<polyline style="fill:none;stroke:#263238;stroke-linecap:round;stroke-linejoin:round;stroke-miterlimit:10;" points="
				102.47,140.52 100.66,128.03 94.57,118.15 			"/>
			
				<line style="fill:none;stroke:#263238;stroke-linecap:round;stroke-linejoin:round;stroke-miterlimit:10;" x1="93.08" y1="115.73" x2="91.61" y2="113.36"/>
			
				<line style="fill:none;stroke:#263238;stroke-linecap:round;stroke-linejoin:round;stroke-miterlimit:10;" x1="100.66" y1="128.03" x2="89.44" y2="120.6"/>
			
				<line style="fill:none;stroke:#263238;stroke-linecap:round;stroke-linejoin:round;stroke-miterlimit:10;" x1="177.78" y1="124.65" x2="178.71" y2="120.42"/>
			<polyline style="fill:none;stroke:#263238;stroke-linecap:round;stroke-linejoin:round;stroke-miterlimit:10;" points="
				173.82,157.36 174.36,140.16 177.17,127.41 			"/>
			
				<line style="fill:none;stroke:#263238;stroke-linecap:round;stroke-linejoin:round;stroke-miterlimit:10;" x1="174.54" y1="140.88" x2="179.25" y2="130.02"/>
		</g>
		<g>
			<path style="fill:#92E3A9;stroke:#263238;stroke-linecap:round;stroke-linejoin:round;stroke-miterlimit:10;" d="M115.75,106.25
				c0,0,6.09,10.54,11.94,17.33c5.85,6.79,12.18,7.96,14.05,7.49c1.87-0.47,16.39-14.99,19.2-18.03c2.81-3.04,5.15-9.37,5.15-9.37
				h-7.26c0,0-10.77,16.16-12.41,19.2c-1.64,3.04-3.51,5.62-3.51,5.62l-4.21-0.47c0,0-3.75-1.87-6.79-5.62
				c-3.04-3.75-9.37-16.39-9.37-16.39L115.75,106.25z"/>
			<path style="fill:#92E3A9;stroke:#263238;stroke-linecap:round;stroke-linejoin:round;stroke-miterlimit:10;" d="M138.29,129.59
				c0,0-20.16,20.27-19.22,22.05c0.94,1.78,2.17,9.74,2.17,9.74l19.45-31.37l-15.08,40.38c0,0,10.5-9.4,12.5-13.9
				c2-4.5,5.83-27.21,5.83-27.21S141.87,124.05,138.29,129.59z"/>
			<path style="fill:#92E3A9;stroke:#263238;stroke-linecap:round;stroke-linejoin:round;stroke-miterlimit:10;" d="M143.85,127.79
				c0,0-3.75-1.87-6.09-0.23c-2.34,1.64-0.94,3.28,0.23,3.75c1.17,0.47,0.7,0.47,3.75-0.23S144.09,129.19,143.85,127.79z"/>
		</g>
		<path style="fill:#FFFFFF;stroke:#263238;stroke-linecap:round;stroke-linejoin:round;stroke-miterlimit:10;" d="M125.12,92.9
			c0,0-2.81,0.7-4.21,2.81c-1.4,2.11-4.68,4.22-11.01,7.26s-6.56,4.68-2.81,4.68c3.75,0,11.94,0.94,12.88,0.94
			c0.94,0,7.49,3.28,10.3,5.62c2.81,2.34,4.45,5.15,4.45,5.15l9.13-0.94c0,0,5.15-5.15,6.09-6.56c0.94-1.4,6.09-4.92,6.09-4.92
			s17.8-1.87,18.26-2.58c0.47-0.7-8.66-3.75-12.41-7.02c-3.75-3.28-10.77-6.79-12.88-7.26c-2.11-0.47-21.07,0.47-21.07,0.47
			L125.12,92.9z"/>
		<g>
			<path style="fill:#FFFFFF;stroke:#263238;stroke-linecap:round;stroke-linejoin:round;stroke-miterlimit:10;" d="M122.78,86.34
				c0,0,1.4,14.99,1.4,16.63s11.71,18.73,13.11,20.37c1.4,1.64,4.68,2.58,5.15,0.7c0.47-1.87,9.13-19.67,9.13-19.67l-0.23-20.84
				c0,0-10.54,7.96-12.88,8.9c-2.34,0.94-14.75-8.2-14.75-8.2S122.55,85.41,122.78,86.34z"/>
			<path style="fill:#263238;stroke:#263238;stroke-linecap:round;stroke-linejoin:round;stroke-miterlimit:10;" d="M123.72,84.23
				c0,0-1.17,1.17-0.94,2.11c0,0,0.15,1.64,0.36,3.89c3.37,5.14,11.03,16.24,14.49,16.42c3.5,0.18,10.72-12.36,13.77-17.98
				l-0.06-5.13c0,0-10.54,7.96-12.88,8.9C136.13,93.37,123.72,84.23,123.72,84.23z"/>
		</g>
		<g>
			<path style="fill:#FFFFFF;stroke:#263238;stroke-linecap:round;stroke-linejoin:round;stroke-miterlimit:10;" d="M119.03,65.74
				c0,0-3.51-3.28-4.45,1.64c-0.94,4.92,5.39,10.07,5.39,10.07L119.03,65.74z"/>
			<path style="fill:#FFFFFF;stroke:#263238;stroke-linecap:round;stroke-linejoin:round;stroke-miterlimit:10;" d="M152.05,65.97
				c0,0,4.92-4.21,5.39,1.17c0.47,5.39-5.39,9.83-5.39,9.83V65.97z"/>
			<path style="fill:#FFFFFF;stroke:#263238;stroke-linecap:round;stroke-linejoin:round;stroke-miterlimit:10;" d="M118.38,64.97
				c0,0,1.56,17.59,2.92,20.19c1.36,2.6,8.67,13.03,13.1,14.28c4.43,1.25,5.85,0.1,7.27-0.81c1.42-0.91,9.55-10.61,10.08-13.87
				c0.53-3.27,0.86-22,0.86-22l-34.51,0.16L118.38,64.97z"/>
			
				<line style="fill:none;stroke:#263238;stroke-linecap:round;stroke-linejoin:round;stroke-miterlimit:10;" x1="139.4" y1="67.61" x2="139.4" y2="77.91"/>
			<path style="fill:none;stroke:#263238;stroke-linecap:round;stroke-linejoin:round;stroke-miterlimit:10;" d="M133.79,81.66
				c0,0,2.58,0.94,3.75,1.17c1.17,0.23,3.75-1.64,3.75-1.64"/>
			<path style="fill:none;stroke:#263238;stroke-linecap:round;stroke-linejoin:round;stroke-miterlimit:10;" d="M130.98,86.58
				c0,0,2.58,1.64,6.09,1.64c3.51,0,6.56-1.87,6.56-1.87"/>
			<path style="fill:#263238;" d="M144.69,72.18c0,1.05-0.45,1.91-1.02,1.91s-1.02-0.85-1.02-1.91s0.46-1.91,1.02-1.91
				S144.69,71.13,144.69,72.18z"/>
			<path style="fill:#263238;" d="M130.72,72.18c0,1.05-0.45,1.91-1.02,1.91s-1.02-0.85-1.02-1.91s0.45-1.91,1.02-1.91
				S130.72,71.13,130.72,72.18z"/>
			<path style="fill:none;stroke:#263238;stroke-linecap:round;stroke-linejoin:round;stroke-miterlimit:10;" d="M140.37,66.59
				c0,0,4.83-2.67,7.62,0.38"/>
			<path style="fill:none;stroke:#263238;stroke-linecap:round;stroke-linejoin:round;stroke-miterlimit:10;" d="M132.11,65.96
				c0,0-5.33-2.03-7.88,0.64"/>
		</g>
		<g>
			<g>
				<path style="fill:#FFFFFF;stroke:#263238;stroke-linecap:round;stroke-linejoin:round;stroke-miterlimit:10;" d="M91.79,78.95
					c0,0,15.75-7.61,16.48-8.15c0.72-0.54,11.41-4.16,12.49-4.71c1.09-0.54,13.4-1.27,13.4-1.27s1.09,0.91-0.54,1.81
					c-1.63,0.91-9.6,3.62-10.14,3.98c-0.54,0.36-2.54,1.27-2.54,1.27s5.25-1.09,5.98,0c0.72,1.09-0.91,2.17-3.26,3.26
					c-2.35,1.09-5.43,2.35-6.34,2.9c-0.91,0.54-1.99,2.72-5.43,4.35c-3.44,1.63-8.15,1.45-8.15,1.45l-7.61,2.9L91.79,78.95z"/>
				<path style="fill:none;stroke:#263238;stroke-linecap:round;stroke-linejoin:round;stroke-miterlimit:10;" d="M119.86,72.25
					c0,0-5.98,2.9-6.88,3.62c-0.91,0.72-3.44,4.35-7.97,5.25c-4.53,0.91-6.34,0.54-6.34,0.54"/>
			</g>
			<g>
				<polygon style="fill:#FFFFFF;stroke:#263238;stroke-linecap:round;stroke-linejoin:round;stroke-miterlimit:10;" points="
					93.6,78.05 100.12,91.09 89.8,96.16 82.92,82.21 				"/>
				<g>
					<polygon style="fill:#92E3A9;stroke:#263238;stroke-linecap:round;stroke-linejoin:round;stroke-miterlimit:10;" points="
						89.8,79.53 96.8,92.72 98.6,91.83 91.68,78.8 					"/>
					<polygon style="fill:#92E3A9;stroke:#263238;stroke-linecap:round;stroke-linejoin:round;stroke-miterlimit:10;" points="
						92.11,95.02 93.91,94.14 86.57,80.79 84.69,81.52 					"/>
				</g>
			</g>
			<path style="fill:#FFFFFF;stroke:#263238;stroke-linecap:round;stroke-linejoin:round;stroke-miterlimit:10;" d="M63.54,126.94
				c2.9-3.26,5.79-8.51,5.79-8.51s18.47-14.49,20.28-16.48c1.81-1.99,1.45-3.62,1.09-5.25c-0.36-1.63-7.79-14.49-7.79-14.49
				s-0.18-2.17-2.9-1.99C77.3,80.4,54.31,98.15,50.5,102.31c-3.8,4.16-11.23,10.14-11.95,12.49c-0.72,2.35-1.09,10.32,0.54,12.68
				c1.63,2.35,12.49,6.16,17.75,5.79c5.25-0.36,5.98-1.27,5.98-1.27"/>
			<path style="fill:none;stroke:#263238;stroke-linecap:round;stroke-linejoin:round;stroke-miterlimit:10;" d="M69.34,118.43
				c0,0-7.91,4.91-12.83,7.02"/>
		</g>
		
			<line style="fill:none;stroke:#263238;stroke-linecap:round;stroke-linejoin:round;stroke-miterlimit:10;" x1="132.46" y1="232.85" x2="144.95" y2="235.66"/>
		
			<line style="fill:none;stroke:#263238;stroke-linecap:round;stroke-linejoin:round;stroke-miterlimit:10;" x1="139.33" y1="234.72" x2="139.33" y2="369.19"/>
		<g>
			<polygon style="fill:#92E3A9;stroke:#263238;stroke-linecap:round;stroke-linejoin:round;stroke-miterlimit:10;" points="
				185.01,219.03 184.96,221.05 198.11,223 198.39,221.02 			"/>
			<polygon style="fill:#92E3A9;stroke:#263238;stroke-linecap:round;stroke-linejoin:round;stroke-miterlimit:10;" points="
				197.67,226.1 197.95,224.12 184.93,222.2 184.87,224.21 			"/>
		</g>
	</g>
</g>
<g id="Ship_1">
	<g>
		<path style="fill:#263238;stroke:#263238;stroke-miterlimit:10;" d="M247,392.94V313.5h24c1.66,0,3-1.34,3-3s-1.34-3-3-3h-24
			v-67.96h24c1.66,0,3-1.34,3-3c0-1.66-1.34-3-3-3H13v6h37v67.96H13v6h37v79.44H13V470h260.24v-77.06H247z M239,392.94H77V313.5h162
			V392.94z M239,307.5H77v-67.96h162V307.5z"/>
		<g>
			<path style="fill:none;stroke:#595959;stroke-miterlimit:10;" d="M29,409c0-2.95-2.39-5.33-5.33-5.33
				c-2.95,0-5.33,2.39-5.33,5.33s2.39,5.33,5.33,5.33C26.61,414.33,29,411.95,29,409z"/>
			<circle style="fill:none;stroke:#595959;stroke-miterlimit:10;" cx="43" cy="409" r="5.33"/>
			<path style="fill:none;stroke:#595959;stroke-miterlimit:10;" d="M67.67,409c0-2.95-2.39-5.33-5.33-5.33
				c-2.95,0-5.33,2.39-5.33,5.33s2.39,5.33,5.33,5.33C65.28,414.33,67.67,411.95,67.67,409z"/>
			<path style="fill:none;stroke:#595959;stroke-miterlimit:10;" d="M87,409c0-2.95-2.39-5.33-5.33-5.33
				c-2.95,0-5.33,2.39-5.33,5.33s2.39,5.33,5.33,5.33C84.61,414.33,87,411.95,87,409z"/>
			<circle style="fill:none;stroke:#595959;stroke-miterlimit:10;" cx="101" cy="409" r="5.33"/>
			<path style="fill:none;stroke:#595959;stroke-miterlimit:10;" d="M125.67,409c0-2.95-2.39-5.33-5.33-5.33
				c-2.95,0-5.33,2.39-5.33,5.33s2.39,5.33,5.33,5.33C123.28,414.33,125.67,411.95,125.67,409z"/>
			<path style="fill:none;stroke:#595959;stroke-miterlimit:10;" d="M145,409c0-2.95-2.39-5.33-5.33-5.33
				c-2.95,0-5.33,2.39-5.33,5.33s2.39,5.33,5.33,5.33C142.61,414.33,145,411.95,145,409z"/>
			<circle style="fill:none;stroke:#595959;stroke-miterlimit:10;" cx="159" cy="409" r="5.33"/>
			<path style="fill:none;stroke:#595959;stroke-miterlimit:10;" d="M183.67,409c0-2.95-2.39-5.33-5.33-5.33
				c-2.95,0-5.33,2.39-5.33,5.33s2.39,5.33,5.33,5.33C181.28,414.33,183.67,411.95,183.67,409z"/>
			<path style="fill:none;stroke:#595959;stroke-miterlimit:10;" d="M203,409c0-2.95-2.39-5.33-5.33-5.33
				c-2.95,0-5.33,2.39-5.33,5.33s2.39,5.33,5.33,5.33C200.61,414.33,203,411.95,203,409z"/>
			<circle style="fill:none;stroke:#595959;stroke-miterlimit:10;" cx="217" cy="409" r="5.33"/>
			<path style="fill:none;stroke:#595959;stroke-miterlimit:10;" d="M241.67,409c0-2.95-2.39-5.33-5.33-5.33
				c-2.95,0-5.33,2.39-5.33,5.33s2.39,5.33,5.33,5.33C239.28,414.33,241.67,411.95,241.67,409z"/>
			<path style="fill:none;stroke:#595959;stroke-miterlimit:10;" d="M261,409c0-2.95-2.39-5.33-5.33-5.33
				c-2.95,0-5.33,2.39-5.33,5.33s2.39,5.33,5.33,5.33C258.61,414.33,261,411.95,261,409z"/>
		</g>
		
			<rect x="9.24" y="225.55" style="fill:#92E3A9;stroke:#263238;stroke-linecap:round;stroke-linejoin:round;stroke-miterlimit:10;" width="265.33" height="14.71"/>
		
			<rect x="9.24" y="303.99" style="fill:#92E3A9;stroke:#263238;stroke-linecap:round;stroke-linejoin:round;stroke-miterlimit:10;" width="265.33" height="10.7"/>
		
			<rect x="9.24" y="392.38" style="fill:#92E3A9;stroke:#263238;stroke-linecap:round;stroke-linejoin:round;stroke-miterlimit:10;" width="265.33" height="6.7"/>
		
			<rect x="9.24" y="419.31" style="fill:#92E3A9;stroke:#263238;stroke-linecap:round;stroke-linejoin:round;stroke-miterlimit:10;" width="265.33" height="6.7"/>
	</g>
</g>
</svg>
