<?xml version="1.0" encoding="utf-8"?>
<!-- Generator: Adobe Illustrator 25.4.1, SVG Export Plug-In . SVG Version: 6.00 Build 0)  -->
<svg version="1.1" xmlns="http://www.w3.org/2000/svg" xmlns:xlink="http://www.w3.org/1999/xlink" x="0px" y="0px"
	 viewBox="0 0 750 500" style="enable-background:new 0 0 750 500;" xml:space="preserve">
<g id="Background_Complete">
	<circle style="fill:#F5F5F5;" cx="64.02" cy="214.87" r="3.23"/>
	<path style="fill:#F5F5F5;" d="M102.39,214.46c0,1.91-1.55,3.46-3.46,3.46c-1.91,0-3.46-1.55-3.46-3.46c0-1.91,1.55-3.46,3.46-3.46
		C100.84,211.01,102.39,212.55,102.39,214.46z"/>
	<path style="fill:#F5F5F5;" d="M63.01,233.04c0,1.22-0.99,2.21-2.21,2.21c-1.22,0-2.21-0.99-2.21-2.21s0.99-2.21,2.21-2.21
		C62.01,230.83,63.01,231.82,63.01,233.04z"/>
	<circle style="fill:#F5F5F5;" cx="121.95" cy="220.94" r="2.21"/>
	<path style="fill:#F5F5F5;" d="M559.97,397.87c9.86-4.09,8.57-2.64,17.91-9.68c7.88-5.95,18.59-9.39,27.45-13.57
		c2.53-1.19,5.48-0.64,7.45,1.35c3.95,3.98,10.42,5.53,15.61,3.23c4.27-1.89,7.28-5.77,11.04-8.53c3.77-2.75,9.45-4.18,12.85-0.98
		c1.07,1.01,1.79,2.38,2.99,3.24c3.69,2.64,8.49-1.02,11.76-4.18c9.56-9.23,21.41-16.07,34.18-19.75
		c4.54-1.31,10.13-1.99,13.07,2.23c1.08,1.54,1.49,3.45,1.37,5.33c-0.25,4.12-2.58,7.49-4.85,10.75c4.63-2.34,9.61-4.75,14.93-2.8
		c1.08,0.39,2.04,1.06,2.78,1.94c6.49,7.75-4.99,11.24-10.51,13.36c0.01-1.76-76.92,5.19-105.81,9.28
		C586.53,392.7,559.97,397.87,559.97,397.87z"/>
	<g>
		<g>
			<path style="fill:#EBEBEB;" d="M296.97,431.15c0,0-1.49,3.37,1.15,7.59c2.63,4.22,2.26,7.16,2.26,7.16l-5.81-1.46
				c0,0-3.36,2.81,1.75,7.82l4.14-4.09c0,0,2.21,3.44,0.39,6.95c-1.82,3.51,3.03,9.28,3.03,9.28s13.64-1.98,22.71-12.65
				c2.89-3.31,4.92-6.81,5.99-9.56C332.58,442.18,321.19,425.13,296.97,431.15z"/>
		</g>
		<g>
			<path style="fill:#E0E0E0;" d="M328.34,439.72c-0.16-0.17-0.38-0.28-0.63-0.07c-0.26,0.29-0.07,1.02,0.05,1.29
				c0.12,0.27,0.48,0.46,0.73,0.29c0.27-0.18,0.22-0.58,0.14-0.89C328.57,440.12,328.51,439.88,328.34,439.72z"/>
		</g>
		<g>
			<g>
				<path style="fill:#E0E0E0;" d="M298.32,448.82c0.05,0.08-0.62,0.59-1.39,1.3c-0.77,0.71-1.45,1.24-1.52,1.17
					c-0.06-0.07,0.5-0.7,1.29-1.42C297.49,449.14,298.27,448.73,298.32,448.82z"/>
			</g>
		</g>
		<g>
			<g>
				<path style="fill:#E0E0E0;" d="M297.8,447.95c0.03,0.09-0.78,0.39-1.8,0.68c-1.02,0.28-1.86,0.44-1.89,0.35
					c-0.03-0.09,0.78-0.39,1.8-0.68C296.93,448.02,297.77,447.86,297.8,447.95z"/>
			</g>
		</g>
		<g>
			<g>
				<path style="fill:#E0E0E0;" d="M297.87,447.05c-0.03,0.08-0.96-0.06-2.14-0.27c-0.59-0.11-1.12-0.26-1.48-0.41
					c-0.37-0.15-0.57-0.31-0.55-0.34c0.04-0.07,0.93,0.23,2.1,0.43C296.95,446.65,297.9,446.94,297.87,447.05z"/>
			</g>
		</g>
		<g>
			<path style="fill:#F5F5F5;" d="M305.71,463.37c-1.01-3.39-1.69-6.89-2.01-10.42c-0.36-3.95-0.29-8.01-1.56-11.76
				c-0.43-1.27-1-2.48-1.39-3.76c-0.39-1.28-0.58-2.66-0.23-3.95c0.28,4.26,3.26,7.86,4.26,12
				C306.22,451.38,304.47,457.44,305.71,463.37"/>
		</g>
		<g>
			<path style="fill:#F5F5F5;" d="M316.45,459.22c-3.81-8.95-4.91-17.86-4.77-27.59c0.01-0.38,0.04-0.81,0.35-1.02
				c0.39-0.27,0.96,0.04,1.15,0.48c0.19,0.44,0.11,0.94,0.05,1.41c-0.57,4.75,1.24,9.42,2.19,14.1
				C316.26,450.67,316.27,455.06,316.45,459.22"/>
		</g>
		<g>
			<path style="fill:#F5F5F5;" d="M327.29,450.59c-2.19-5.43-3.89-11.06-5.08-16.8c1.57,2.49,3.06,5.06,4.1,7.81
				c1.04,2.76,1.63,5.72,1.36,8.66"/>
		</g>
		<g>
			<g>
				<path style="fill:#E0E0E0;" d="M327.04,437.85c-0.01,0.02-0.39-0.15-1.09-0.44c-0.7-0.3-1.71-0.72-2.98-1.18
					c-1.27-0.46-2.81-0.95-4.54-1.39c-1.73-0.42-3.67-0.89-5.71-0.78c-2.05,0.09-3.86,1.01-5.21,2.13c-1.37,1.12-2.35,2.41-3.1,3.53
					c-0.75,1.12-1.28,2.08-1.66,2.74c-0.38,0.66-0.59,1.02-0.61,1.01c-0.01-0.01,0.03-0.1,0.11-0.28c0.11-0.22,0.23-0.47,0.38-0.79
					c0.35-0.67,0.85-1.65,1.58-2.81c0.73-1.14,1.71-2.48,3.11-3.64c1.38-1.16,3.27-2.13,5.39-2.23c2.11-0.11,4.07,0.38,5.8,0.81
					c1.74,0.45,3.28,0.97,4.55,1.46c1.27,0.49,2.27,0.95,2.95,1.28c0.34,0.17,0.6,0.3,0.78,0.4
					C326.96,437.78,327.05,437.84,327.04,437.85z"/>
			</g>
		</g>
		<g>
			<g>
				<path style="fill:#E0E0E0;" d="M327,446.78c0.01,0.01-0.03,0.08-0.13,0.23c-0.1,0.14-0.23,0.35-0.43,0.61
					c-0.38,0.52-0.98,1.24-1.8,2.05c-1.63,1.63-4.25,3.59-7.59,4.79c-3.34,1.2-6.62,1.37-8.91,1.15c-1.15-0.11-2.07-0.28-2.7-0.43
					c-0.32-0.07-0.55-0.15-0.72-0.19c-0.16-0.05-0.25-0.08-0.24-0.09c0.01-0.03,0.36,0.05,0.99,0.16c0.63,0.11,1.55,0.25,2.69,0.32
					c2.27,0.16,5.49-0.04,8.78-1.23c3.29-1.18,5.89-3.08,7.54-4.65c0.83-0.78,1.45-1.47,1.87-1.96
					C326.76,447.04,326.98,446.76,327,446.78z"/>
			</g>
		</g>
	</g>
	<g>
		<path style="fill:#E0E0E0;" d="M56.3,344.64C56.3,344.64,57.44,343.58,56.3,344.64c-1.51,1.4,7.34,15.02,5.12,16.19
			c-2.21,1.16-15.96,7.69-14.33,7.92c1.63,0.23,16.42-3.61,16.89-2.45c0.47,1.16,1.63,17.94,3.38,17.35
			c1.75-0.58,1.16-17.01,3.61-16.42c2.45,0.58,15.84,4.78,16.54,3.49c0.7-1.28-13.94-7.36-14.33-9.55
			c-0.35-1.98,6.99-15.14,5.82-14.79c-1.16,0.35-10.02,10.87-11.76,10.48C65.16,356.4,57.7,344.06,56.3,344.64z"/>
	</g>
	<path style="fill:#E0E0E0;" d="M257.3,426.17c0,2.09-1.7,3.79-3.79,3.79s-3.79-1.7-3.79-3.79c0-2.09,1.7-3.79,3.79-3.79
		S257.3,424.08,257.3,426.17z"/>
	<circle style="fill:#E0E0E0;" cx="678.07" cy="428.5" r="3.79"/>
	<path style="fill:#E0E0E0;" d="M241.52,410.25c0,1.05-0.85,1.9-1.9,1.9c-1.05,0-1.9-0.85-1.9-1.9c0-1.05,0.85-1.9,1.9-1.9
		C240.67,408.36,241.52,409.2,241.52,410.25z"/>
	<path style="fill:#E0E0E0;" d="M688.45,418.7c0,1.05-0.85,1.9-1.9,1.9s-1.9-0.85-1.9-1.9c0-1.05,0.85-1.9,1.9-1.9
		S688.45,417.65,688.45,418.7z"/>
	<path style="fill:#E0E0E0;" d="M169.75,407.05c0,1.05-0.85,1.9-1.9,1.9c-1.05,0-1.9-0.85-1.9-1.9c0-1.05,0.85-1.9,1.9-1.9
		C168.9,405.15,169.75,406,169.75,407.05z"/>
	<path style="fill:#F5F5F5;" d="M223.21,303.86c-2.11-9.41-9.51-17.46-18.71-20.35c-2.65-0.83-5.61-1.37-7.49-3.43
		c-1.79-1.96-2.12-4.81-2.35-7.45c-0.23-2.64-0.53-5.49-2.28-7.49c-1.75-2-5.51-2.37-6.79-0.05c-1.38-5.87-3.33-13.45-7.16-18.56
		c-1.32-1.76-4-1.48-5.06,0.45c-1.56,2.82-4.53,5.62-6.54,5.41c-3.22-0.34-5.64-3.1-7.23-5.92c-1.97-3.51-3.19-7.4-5.06-10.97
		c-1.58-3.01-3.79-5.93-7.3-6.68c-2.09-0.45-4.34,0.2-5.6,1.93c-2.31,3.15,0.04,7.21,1.97,10.46c1.93,3.25,3.14,8.22-0.34,10.08
		c-1.54,0.83-3.43,0.61-4.89-0.35c-4.68-3.09-4.43-9.51-9.33-12.32c-1.55-0.89-3.5-0.92-4.95,0.12c-3.9,2.8,0.91,9.21-2.56,11.33
		c-1.16,0.71-2.64,0.45-3.68-0.42c-1.83-1.53-2.19-3.84-2.95-5.93c-1.45-3.97-4.37-7.21-7.29-10.26c-2.34-2.45-4.9-4.97-8.51-5.13
		c-1.68-0.07-3.36,0.57-4.37,1.92c-2.01,2.68-0.35,5.85,1.6,8.1c2.09,2.42,4.74,4.72,4.27,8.33c-0.22,1.66-1.64,2.99-3.31,2.93
		c-3.31-0.12-3.3-4.94-6.87-5.02c-1.99-0.05-3.72,1.35-4.38,3.23c-1.06,3.02,0.25,6.12,1.52,8.94c-5.18-3.13-10.36-6.25-15.54-9.38
		c-3.06-1.85-6.7,1.52-4.99,4.66c0.01,0.02,0.03,0.05,0.04,0.07c-2.9-0.1-4.7-3.03-6.45-5.34c-1.77-2.34-5.18-4.42-7.39-2.44
		c-1.2,1.08-1.4,2.86-0.72,4.33c1.11,2.41,3.53,3.48,5.82,4.45c18.69,7.93,37.38,15.86,56.07,23.79
		c15.24,6.47,30.63,12.98,46.9,16.05c11.49,2.17,23.24,2.58,34.8,4.38c11.55,1.8,23.21,5.17,32.39,12.41L223.21,303.86z"/>
	<g>
		<path style="fill:#EBEBEB;" d="M479.31,58.4c0.51-3.72-4.73-6.77-8.68-7.09c-1.88-0.15-3.83,0.14-5.61-0.48
			c-3.86-1.34-5.4-6.33-9.16-7.92c-2.81-1.19-6.05-0.13-8.78,1.24c-2.73,1.37-5.42,3.1-8.47,3.3c-2.65,0.17-5.53-0.81-7.85,0.48
			c-1.73,0.97-2.63,2.96-4.23,4.13c-1.56,1.15-3.59,1.39-5.53,1.5c-1.93,0.11-3.94,0.12-5.7,0.93c-1.76,0.81-3.22,2.67-2.85,4.57
			L479.31,58.4z"/>
	</g>
	<g>
		<path style="fill:#F5F5F5;" d="M348.66,167.77c0.75-5.44-6.92-9.91-12.69-10.37c-2.75-0.22-5.6,0.2-8.21-0.71
			c-5.64-1.97-7.9-9.26-13.4-11.58c-4.12-1.74-8.85-0.19-12.84,1.82c-3.99,2.01-7.93,4.54-12.39,4.82
			c-3.88,0.25-8.09-1.19-11.48,0.7c-2.53,1.41-3.85,4.32-6.18,6.04c-2.28,1.68-5.25,2.04-8.08,2.19c-2.83,0.15-5.76,0.18-8.33,1.36
			s-4.71,3.9-4.17,6.68L348.66,167.77z"/>
	</g>
	<g>
		<path style="fill:#F5F5F5;" d="M144.93,78.59c0.65-4.73-6.02-8.62-11.04-9.02c-2.39-0.19-4.87,0.17-7.14-0.62
			c-4.91-1.71-6.87-8.05-11.66-10.07c-3.58-1.51-7.7-0.17-11.17,1.58c-3.47,1.75-6.9,3.95-10.78,4.19
			c-3.37,0.22-7.04-1.03-9.99,0.61c-2.2,1.23-3.35,3.76-5.38,5.26c-1.98,1.46-4.57,1.77-7.03,1.91c-2.46,0.13-5.01,0.16-7.25,1.18
			c-2.24,1.03-4.09,3.39-3.63,5.81L144.93,78.59z"/>
	</g>
	<g>
		<path style="fill:#EBEBEB;" d="M665.11,216.63c0.79-5.74-7.31-10.47-13.4-10.96c-2.9-0.23-5.92,0.21-8.67-0.75
			c-5.96-2.08-8.34-9.78-14.16-12.23c-4.35-1.83-9.35-0.2-13.57,1.92c-4.22,2.12-8.38,4.79-13.09,5.09
			c-4.1,0.26-8.55-1.26-12.13,0.74c-2.67,1.49-4.07,4.57-6.53,6.38c-2.41,1.78-5.55,2.15-8.54,2.32c-2.99,0.16-6.08,0.19-8.8,1.44
			c-2.72,1.25-4.97,4.12-4.41,7.06L665.11,216.63z"/>
	</g>
</g>
<g id="Background_Simple" style="display:none;">
	<path style="display:inline;fill:#F5F5F5;" d="M590.17,169.35l-0.92-4.46c-7.78-37.6-35.09-68.3-71.67-78.75
		c-4.7-1.34-9.5-2.35-14.36-2.99c-35-4.6-72.05,9.95-94.97,37.28c-13.48,16.08-22.99,36.72-41.31,46.78
		c-23.84,13.08-52.98,3.41-78.14-6.43c-25.15-9.83-54.34-19.44-78.13-6.25c-14.9,8.26-24.35,24.17-29.22,40.59
		c-12.89,43.47,3.28,92.19,34.35,124.59c31.07,32.4,74.99,49.92,119.33,56.28c62.12,8.91,128.65-3.59,179.4-41.38
		C565.29,296.82,597.68,232.27,590.17,169.35z"/>
	<circle style="display:inline;fill:#F5F5F5;" cx="660.64" cy="126.15" r="35.32"/>
	<circle style="display:inline;fill:#F5F5F5;" cx="95.2" cy="203.76" r="32.44"/>
</g>
<g id="Fishes">
	<g>
		<g>
			<path style="fill:#FF725E;" d="M200.38,419.89c0,0-3.11,4.16-0.83,10.81c2.29,6.64,0.85,10.57,0.85,10.57l-7.53-3.85
				c0,0-5.52,2.8-0.06,11.32l7-4.32c0,0,1.95,5.44-1.67,9.69c-3.62,4.25,1.23,13.74,1.23,13.74s19.41,1.59,35.28-10.22
				c5.03-3.64,8.94-7.82,11.27-11.26C245.91,446.35,235.64,419.27,200.38,419.89z"/>
		</g>
		<g>
			<path style="fill:#263238;" d="M240.86,441.61c-0.17-0.28-0.44-0.5-0.85-0.29c-0.44,0.32-0.42,1.38-0.34,1.8
				c0.08,0.41,0.52,0.78,0.91,0.64c0.42-0.16,0.48-0.72,0.47-1.18C241.05,442.25,241.04,441.9,240.86,441.61z"/>
		</g>
		<g>
			<g>
				<path style="fill:#263238;" d="M196.64,444.63c0.04,0.12-1.04,0.62-2.32,1.35c-1.29,0.73-2.39,1.25-2.46,1.13
					c-0.06-0.11,0.92-0.81,2.22-1.55C195.4,444.82,196.6,444.5,196.64,444.63z"/>
			</g>
		</g>
		<g>
			<g>
				<path style="fill:#263238;" d="M196.2,443.27c0.01,0.13-1.2,0.3-2.69,0.36c-1.49,0.07-2.7,0.02-2.71-0.12
					c-0.01-0.13,1.2-0.3,2.69-0.36C194.98,443.09,196.19,443.14,196.2,443.27z"/>
			</g>
		</g>
		<g>
			<g>
				<path style="fill:#263238;" d="M196.58,442.05c-0.06,0.1-1.31-0.39-2.87-1.05c-0.77-0.34-1.46-0.71-1.91-1.04
					c-0.46-0.33-0.69-0.6-0.65-0.65c0.08-0.08,1.21,0.6,2.76,1.25C195.45,441.22,196.66,441.92,196.58,442.05z"/>
			</g>
		</g>
		<g style="opacity:0.6;">
			<path style="fill:#FFFFFF;" d="M202.2,467.01c-0.32-4.99-0.14-10.02,0.54-14.98c0.76-5.55,2.14-11.11,1.58-16.69
				c-0.19-1.88-0.6-3.73-0.72-5.61c-0.13-1.88,0.04-3.85,0.94-5.5c-0.97,5.95,2,11.85,2.07,17.88
				C206.7,450.66,202.38,458.45,202.2,467.01"/>
		</g>
		<g style="opacity:0.6;">
			<path style="fill:#FFFFFF;" d="M218.31,464.7c-2.42-13.53-1.1-26.15,2.17-39.5c0.13-0.52,0.32-1.1,0.81-1.3
				c0.62-0.25,1.32,0.36,1.44,1.02c0.12,0.66-0.15,1.32-0.37,1.95c-2.29,6.36-1.28,13.35-1.45,20.11
				C220.75,452.87,219.38,458.91,218.31,464.7"/>
		</g>
		<g style="opacity:0.6;">
			<path style="fill:#FFFFFF;" d="M235.96,456.25c-1.3-8.18-1.86-16.47-1.68-24.74c1.37,3.93,2.61,7.93,3.17,12.06
				c0.56,4.12,0.44,8.4-0.86,12.35"/>
		</g>
		<g>
			<g>
				<path style="fill:#263238;" d="M239.66,438.63c-0.02,0.03-0.5-0.33-1.36-0.96c-0.86-0.63-2.12-1.53-3.73-2.57
					c-1.61-1.03-3.56-2.2-5.81-3.35c-2.25-1.12-4.77-2.38-7.61-2.88c-2.84-0.52-5.63,0.17-7.85,1.28c-2.25,1.11-4.01,2.58-5.39,3.88
					c-1.39,1.31-2.42,2.46-3.16,3.24c-0.73,0.79-1.14,1.21-1.16,1.19c-0.01-0.01,0.07-0.13,0.25-0.36c0.21-0.26,0.47-0.58,0.78-0.96
					c0.69-0.82,1.69-2.01,3.06-3.36c1.37-1.34,3.13-2.87,5.43-4.03c2.26-1.16,5.17-1.9,8.13-1.36c2.94,0.52,5.48,1.81,7.73,2.96
					c2.25,1.17,4.2,2.38,5.79,3.46c1.59,1.08,2.82,2.02,3.66,2.7c0.42,0.34,0.73,0.61,0.94,0.8
					C239.56,438.51,239.67,438.62,239.66,438.63z"/>
			</g>
		</g>
		<g>
			<g>
				<path style="fill:#263238;" d="M236.78,450.91c0.01,0.01-0.07,0.11-0.25,0.27c-0.18,0.16-0.43,0.41-0.78,0.7
					c-0.69,0.59-1.75,1.39-3.13,2.26c-2.75,1.73-6.99,3.6-11.97,4.19c-4.98,0.6-9.54-0.21-12.63-1.24
					c-1.55-0.51-2.77-1.04-3.58-1.45c-0.41-0.2-0.72-0.38-0.93-0.5c-0.21-0.12-0.31-0.19-0.31-0.2c0.02-0.03,0.48,0.17,1.31,0.53
					c0.83,0.36,2.05,0.83,3.6,1.3c3.08,0.94,7.57,1.68,12.47,1.09c4.9-0.59,9.09-2.37,11.86-4.01c1.39-0.82,2.47-1.57,3.19-2.11
					C236.36,451.2,236.76,450.89,236.78,450.91z"/>
			</g>
		</g>
	</g>
	<g>
		<g>
			<path style="fill:#FF725E;" d="M644.43,431.13c0,0-1.84,3.05,0.16,7.42c2.01,4.37,1.29,7.15,1.29,7.15l-5.39-2.12
				c0,0-3.57,2.28,0.72,7.72l4.48-3.41c0,0,1.69,3.58-0.49,6.72c-2.18,3.14,1.76,9.28,1.76,9.28s13.34-0.22,23.36-9.33
				c3.18-2.82,5.57-5.93,6.93-8.43C677.25,446.11,668.43,428.34,644.43,431.13z"/>
		</g>
		<g>
			<path style="fill:#263238;" d="M673.49,443.22c-0.14-0.18-0.33-0.31-0.6-0.14c-0.28,0.25-0.2,0.97-0.11,1.25
				c0.08,0.28,0.4,0.5,0.66,0.37c0.28-0.14,0.28-0.53,0.24-0.83C673.66,443.64,673.63,443.4,673.49,443.22z"/>
		</g>
		<g>
			<g>
				<path style="fill:#263238;" d="M643.55,448.25c0.04,0.08-0.67,0.49-1.49,1.08c-0.83,0.58-1.55,1.01-1.6,0.93
					c-0.05-0.07,0.57-0.61,1.41-1.2C642.71,448.46,643.51,448.16,643.55,448.25z"/>
			</g>
		</g>
		<g>
			<g>
				<path style="fill:#263238;" d="M643.15,447.35c0.01,0.09-0.8,0.28-1.81,0.43c-1.01,0.15-1.84,0.19-1.85,0.1s0.8-0.28,1.81-0.43
					C642.31,447.3,643.14,447.26,643.15,447.35z"/>
			</g>
		</g>
		<g>
			<g>
				<path style="fill:#263238;" d="M643.33,446.49c-0.03,0.07-0.92-0.18-2.02-0.52c-0.55-0.18-1.04-0.39-1.37-0.58
					c-0.34-0.19-0.51-0.36-0.49-0.4c0.05-0.06,0.86,0.33,1.96,0.67C642.5,446,643.37,446.4,643.33,446.49z"/>
			</g>
		</g>
		<g style="opacity:0.6;">
			<path style="fill:#FFFFFF;" d="M648.84,463.13c-0.55-3.38-0.77-6.82-0.64-10.25c0.14-3.84,0.71-7.72-0.04-11.48
				c-0.25-1.27-0.66-2.5-0.87-3.78c-0.21-1.27-0.23-2.62,0.27-3.82c-0.26,4.12,2.16,7.94,2.61,12.05
				C650.81,451.68,648.38,457.28,648.84,463.13"/>
		</g>
		<g style="opacity:0.6;">
			<path style="fill:#FFFFFF;" d="M659.67,460.47c-2.55-9.06-2.5-17.75-1.17-27.07c0.05-0.36,0.14-0.77,0.46-0.94
				c0.41-0.21,0.92,0.16,1.05,0.6c0.13,0.44-0.01,0.91-0.12,1.36c-1.14,4.49,0.02,9.19,0.36,13.81
				C660.54,452.24,660.01,456.45,659.67,460.47"/>
		</g>
		<g style="opacity:0.6;">
			<path style="fill:#FFFFFF;" d="M671.13,453.53c-1.43-5.49-2.37-11.1-2.8-16.75c1.2,2.59,2.31,5.23,2.97,8.01
				c0.66,2.77,0.86,5.69,0.24,8.48"/>
		</g>
		<g>
			<g>
				<path style="fill:#263238;" d="M672.47,441.27c-0.01,0.02-0.36-0.19-0.99-0.56c-0.63-0.37-1.55-0.9-2.71-1.5
					c-1.16-0.6-2.58-1.26-4.19-1.89c-1.61-0.61-3.41-1.3-5.38-1.45c-1.97-0.17-3.83,0.49-5.27,1.4c-1.46,0.91-2.56,2.03-3.42,3.01
					c-0.86,0.98-1.49,1.84-1.93,2.42c-0.44,0.58-0.69,0.9-0.71,0.89c-0.01-0.01,0.04-0.1,0.14-0.26c0.13-0.19,0.28-0.43,0.47-0.71
					c0.42-0.61,1.02-1.48,1.86-2.5c0.84-1.01,1.94-2.17,3.43-3.11c1.46-0.95,3.4-1.64,5.45-1.47c2.04,0.15,3.86,0.87,5.47,1.5
					c1.62,0.65,3.03,1.34,4.18,1.97c1.16,0.63,2.06,1.19,2.67,1.6c0.31,0.2,0.54,0.37,0.7,0.48
					C672.4,441.19,672.47,441.26,672.47,441.27z"/>
			</g>
		</g>
		<g>
			<g>
				<path style="fill:#263238;" d="M671.33,449.83c0.01,0.01-0.04,0.08-0.15,0.2c-0.11,0.12-0.26,0.31-0.49,0.53
					c-0.43,0.45-1.1,1.07-1.99,1.75c-1.76,1.37-4.53,2.92-7.88,3.66c-3.36,0.74-6.52,0.5-8.69,0c-1.09-0.24-1.96-0.52-2.54-0.75
					c-0.29-0.11-0.51-0.21-0.66-0.28c-0.15-0.07-0.23-0.11-0.22-0.12c0.01-0.02,0.34,0.09,0.93,0.27c0.59,0.19,1.46,0.43,2.54,0.64
					c2.16,0.43,5.27,0.64,8.57-0.09c3.3-0.73,6.04-2.23,7.81-3.53c0.9-0.65,1.58-1.23,2.04-1.65
					C671.06,450.05,671.31,449.82,671.33,449.83z"/>
			</g>
		</g>
	</g>
	<g>
		<g>
			<path style="fill:#455A64;" d="M134.38,402.82c0,0-3.03,2.09-3,7.06c0.03,4.97-1.83,7.28-1.83,7.28l-4.18-4.29
				c0,0-4.34,0.63-2.61,7.57l5.67-1.31c0,0,0.07,4.09-3.32,6.12c-3.39,2.03-2.29,9.49-2.29,9.49s12.66,5.46,25.97,1.14
				c4.2-1.3,7.76-3.22,10.11-5C158.92,430.89,158.16,410.4,134.38,402.82z"/>
		</g>
		<g>
			<path style="fill:#263238;" d="M156.61,426.57c-0.05-0.23-0.18-0.44-0.5-0.39c-0.37,0.11-0.6,0.83-0.64,1.13
				c-0.04,0.3,0.17,0.64,0.47,0.63c0.32-0.01,0.49-0.38,0.58-0.68C156.59,427.03,156.66,426.8,156.61,426.57z"/>
		</g>
		<g>
			<g>
				<path style="fill:#263238;" d="M126.27,418.57c0,0.09-0.84,0.18-1.86,0.38c-1.03,0.2-1.89,0.3-1.9,0.2
					c-0.01-0.09,0.8-0.34,1.84-0.53C125.39,418.41,126.27,418.48,126.27,418.57z"/>
			</g>
		</g>
		<g>
			<g>
				<path style="fill:#263238;" d="M126.28,417.56c-0.03,0.09-0.87-0.07-1.88-0.36c-1.01-0.29-1.82-0.6-1.79-0.69
					c0.03-0.09,0.87,0.07,1.88,0.36C125.5,417.16,126.3,417.47,126.28,417.56z"/>
			</g>
		</g>
		<g>
			<g>
				<path style="fill:#263238;" d="M126.81,416.83c-0.06,0.05-0.79-0.56-1.68-1.35c-0.44-0.41-0.82-0.81-1.05-1.13
					c-0.24-0.32-0.33-0.56-0.29-0.58c0.07-0.04,0.67,0.68,1.57,1.46C126.24,416.01,126.89,416.76,126.81,416.83z"/>
			</g>
		</g>
		<g style="opacity:0.6;">
			<path style="fill:#FFFFFF;" d="M124.93,434.84c0.92-3.42,2.18-6.75,3.75-9.92c1.77-3.55,3.95-6.97,4.84-10.83
				c0.3-1.3,0.44-2.64,0.79-3.93c0.34-1.29,0.9-2.57,1.88-3.48c-2,3.77-1.35,8.4-2.66,12.46
				C131.65,424.89,126.98,429.14,124.93,434.84"/>
		</g>
		<g style="opacity:0.6;">
			<path style="fill:#FFFFFF;" d="M136.26,436.94c1.45-9.62,5.19-17.78,10.4-26c0.2-0.32,0.46-0.67,0.84-0.69
				c0.47-0.02,0.8,0.54,0.73,1.01c-0.07,0.47-0.4,0.85-0.69,1.23c-2.98,3.74-3.88,8.67-5.53,13.16
				C140.57,429.56,138.28,433.3,136.26,436.94"/>
		</g>
		<g style="opacity:0.6;">
			<path style="fill:#FFFFFF;" d="M150,435.27c0.98-5.78,2.49-11.46,4.48-16.97c0.03,2.95-0.05,5.91-0.61,8.8
				c-0.56,2.89-1.61,5.73-3.38,8.09"/>
		</g>
		<g>
			<g>
				<path style="fill:#263238;" d="M156.48,424.29c-0.02,0.01-0.26-0.33-0.7-0.95c-0.44-0.62-1.08-1.51-1.92-2.57
					c-0.84-1.06-1.89-2.28-3.14-3.56c-1.26-1.26-2.66-2.68-4.45-3.65c-1.79-1-3.81-1.16-5.55-0.92c-1.76,0.24-3.27,0.82-4.49,1.38
					c-1.23,0.56-2.18,1.1-2.85,1.46c-0.67,0.36-1.04,0.56-1.05,0.54c-0.01-0.01,0.08-0.07,0.25-0.18c0.2-0.13,0.45-0.28,0.74-0.47
					c0.65-0.39,1.59-0.96,2.81-1.56c1.22-0.59,2.75-1.21,4.55-1.47c1.78-0.27,3.9-0.1,5.76,0.93c1.86,1.01,3.26,2.46,4.51,3.74
					c1.25,1.3,2.28,2.55,3.1,3.63c0.82,1.08,1.43,2,1.84,2.64c0.2,0.32,0.35,0.57,0.45,0.75
					C156.44,424.19,156.49,424.29,156.48,424.29z"/>
			</g>
		</g>
		<g>
			<g>
				<path style="fill:#263238;" d="M151.76,431.88c0,0.01-0.07,0.05-0.23,0.13c-0.16,0.07-0.38,0.18-0.68,0.29
					c-0.6,0.24-1.49,0.54-2.61,0.8c-2.24,0.54-5.5,0.83-8.98,0.1c-3.48-0.73-6.35-2.3-8.19-3.69c-0.93-0.69-1.62-1.32-2.07-1.78
					c-0.23-0.22-0.39-0.42-0.51-0.54c-0.11-0.13-0.17-0.2-0.16-0.21c0.02-0.02,0.28,0.22,0.76,0.65c0.48,0.43,1.19,1.02,2.12,1.69
					c1.85,1.33,4.7,2.84,8.12,3.56c3.42,0.72,6.63,0.47,8.86,0c1.12-0.23,2.01-0.49,2.62-0.69
					C151.42,431.97,151.75,431.85,151.76,431.88z"/>
			</g>
		</g>
	</g>
</g>
<g id="Sun">
	<g>
		<g>
			
				<ellipse transform="matrix(0.7071 -0.7071 0.7071 0.7071 108.4658 466.0412)" style="fill:#FF725E;" cx="616.79" cy="102.09" rx="21.94" ry="21.94"/>
		</g>
		<g>
			<g>
				<path style="fill:#FF725E;" d="M613.67,151.14c-0.13,0-0.23-4.05-0.23-9.05c0-5,0.1-9.05,0.23-9.05s0.23,4.05,0.23,9.05
					C613.9,147.09,613.8,151.14,613.67,151.14z"/>
			</g>
		</g>
		<g>
			<g>
				<path style="fill:#FF725E;" d="M601.03,127.94c0.11,0.06-1.95,3.84-4.61,8.44c-2.66,4.6-4.9,8.27-5.01,8.21
					c-0.11-0.06,1.95-3.84,4.61-8.44C598.68,131.56,600.92,127.88,601.03,127.94z"/>
			</g>
		</g>
		<g>
			<g>
				<path style="fill:#FF725E;" d="M588.06,119.87c0.08,0.1-2.21,2.06-5.12,4.37c-2.91,2.31-5.33,4.11-5.41,4.01
					c-0.08-0.1,2.21-2.05,5.12-4.37C585.55,121.56,587.98,119.77,588.06,119.87z"/>
			</g>
		</g>
		<g>
			<g>
				<path style="fill:#FF725E;" d="M635.55,142.23c-0.07,0.01-0.26-0.85-0.58-2.23c-0.32-1.38-0.76-3.28-1.32-5.37
					c-0.56-2.09-1.13-3.96-1.55-5.31c-0.42-1.35-0.68-2.19-0.62-2.22c0.06-0.02,0.42,0.78,0.93,2.11c0.5,1.33,1.12,3.2,1.69,5.29
					c0.56,2.1,0.96,4.02,1.2,5.43C635.53,141.34,635.61,142.22,635.55,142.23z"/>
			</g>
		</g>
		<g>
			<g>
				<path style="fill:#FF725E;" d="M657.8,126.44c-0.08,0.1-2.99-2.3-6.48-5.36c-3.5-3.06-6.26-5.61-6.18-5.71
					c0.08-0.1,2.99,2.3,6.48,5.36C655.12,123.79,657.89,126.34,657.8,126.44z"/>
			</g>
		</g>
		<g>
			<g>
				<path style="fill:#FF725E;" d="M666.32,104.74c-0.01,0.07-1.02-0.11-2.65-0.38c-1.62-0.27-3.87-0.62-6.37-0.91
					c-2.5-0.28-4.76-0.45-6.41-0.56c-1.64-0.11-2.66-0.16-2.66-0.23c0-0.06,1.02-0.12,2.68-0.1c1.65,0.02,3.94,0.14,6.45,0.43
					c2.51,0.29,4.76,0.69,6.37,1.04C665.35,104.39,666.34,104.68,666.32,104.74z"/>
			</g>
		</g>
		<g>
			<g>
				<path style="fill:#FF725E;" d="M666.35,83.41c0.03,0.12-4.72,1.39-10.61,2.82c-5.89,1.43-10.69,2.5-10.72,2.37
					c-0.03-0.12,4.72-1.39,10.61-2.82C661.52,84.35,666.32,83.28,666.35,83.41z"/>
			</g>
		</g>
		<g>
			<g>
				<path style="fill:#FF725E;" d="M641.56,58.55c0.11,0.07-2.17,3.69-5.07,8.09c-2.91,4.4-5.35,7.91-5.46,7.84
					c-0.11-0.07,2.17-3.69,5.07-8.1C639.01,61.99,641.46,58.48,641.56,58.55z"/>
			</g>
		</g>
		<g>
			<g>
				<path style="fill:#FF725E;" d="M616.97,53.36c0.07,0,0.06,1.15,0.03,3.01c-0.03,1.86-0.06,4.42-0.06,7.25
					c0,2.83,0.05,5.4,0.08,7.26c0.03,1.86,0.04,3.01-0.03,3.01c-0.06,0-0.19-1.14-0.3-3c-0.11-1.86-0.21-4.43-0.21-7.27
					c0-2.84,0.09-5.41,0.2-7.27C616.78,54.5,616.9,53.35,616.97,53.36z"/>
			</g>
		</g>
		<g>
			<g>
				<path style="fill:#FF725E;" d="M598.34,76.56c-0.11,0.07-2.42-3.52-5.16-8c-2.74-4.49-4.88-8.18-4.77-8.24
					c0.11-0.07,2.42,3.52,5.16,8C596.31,72.8,598.45,76.49,598.34,76.56z"/>
			</g>
		</g>
		<g>
			<g>
				<path style="fill:#FF725E;" d="M587.21,86.02c-0.01,0.06-0.91-0.07-2.33-0.37c-1.43-0.3-3.38-0.78-5.52-1.41
					c-2.13-0.63-4.04-1.29-5.4-1.81c-1.36-0.52-2.18-0.9-2.16-0.95c0.02-0.06,0.88,0.2,2.27,0.65c1.38,0.44,3.3,1.05,5.42,1.68
					c2.12,0.63,4.06,1.15,5.46,1.53C586.36,85.71,587.22,85.95,587.21,86.02z"/>
			</g>
		</g>
		<g>
			<g>
				<path style="fill:#FF725E;" d="M582.35,102.87c0.01,0.13-3.12,0.53-7,0.91c-3.88,0.37-7.03,0.57-7.04,0.45
					c-0.01-0.13,3.12-0.53,7-0.91C579.18,102.94,582.34,102.74,582.35,102.87z"/>
			</g>
		</g>
	</g>
</g>
<g id="Birds">
	<g>
		<path style="fill:#263238;" d="M206.43,132.6c-1.94-0.5-4.89-0.95-8.49-0.52c-3.57,0.42-7.84,1.82-11.59,4.86
			c-3.58,2.86-6.64,7.16-8.02,12.28c-2.13-4.77-5.64-8.56-9.45-10.99c-4.03-2.61-8.35-3.66-11.93-3.84c-3.6-0.2-6.5,0.39-8.42,0.96
			c-0.96,0.28-1.69,0.56-2.17,0.77c-0.48,0.21-0.73,0.33-0.72,0.35c0.02,0.06,1.04-0.39,2.96-0.9c1.91-0.5,4.79-1.01,8.33-0.76
			c3.52,0.24,7.73,1.31,11.65,3.89c3.91,2.53,7.51,6.51,9.54,11.52l0.35,0.86l0.23-0.9c0.01-0.04,0.02-0.09,0.04-0.14
			c1.24-5.27,4.34-9.72,7.97-12.66c3.63-2.99,7.79-4.4,11.29-4.87c3.53-0.48,6.44-0.1,8.38,0.32c1.95,0.43,2.98,0.86,3,0.8
			c0.01-0.02-0.25-0.13-0.74-0.33C208.15,133.09,207.41,132.84,206.43,132.6z"/>
		<path style="fill:#263238;" d="M292.77,87.44c-0.27-0.12-0.67-0.27-1.21-0.41c-1.07-0.29-2.7-0.56-4.69-0.33
			c-1.98,0.22-4.36,0.99-6.44,2.67c-1.91,1.52-3.55,3.77-4.36,6.46c-1.2-2.49-3.07-4.47-5.1-5.76c-2.24-1.44-4.64-2.01-6.62-2.1
			c-2-0.1-3.6,0.24-4.65,0.58c-0.53,0.16-0.93,0.33-1.19,0.45c-0.26,0.12-0.4,0.2-0.39,0.22c0.02,0.05,0.59-0.18,1.64-0.44
			c1.05-0.26,2.63-0.52,4.56-0.37c1.92,0.14,4.22,0.74,6.35,2.15c2.13,1.39,4.09,3.56,5.19,6.28l0.35,0.86l0.23-0.9l0.02-0.08
			c0.67-2.87,2.36-5.29,4.33-6.89c1.97-1.63,4.23-2.41,6.14-2.68c1.93-0.27,3.52-0.08,4.58,0.13c1.07,0.22,1.64,0.44,1.66,0.39
			C293.17,87.63,293.03,87.56,292.77,87.44z"/>
		<path style="fill:#263238;" d="M236.6,70.5c-1.1,1.13-2.58,2.87-4.12,5.24c-2.79,4.21-5.58,10.76-6.02,18.39
			c-0.76-3.19-1.94-6.12-3.35-8.65c-1.81-3.24-3.93-5.86-5.94-7.8c-2-1.95-3.83-3.3-5.16-4.12c-0.65-0.44-1.2-0.7-1.55-0.9
			c-0.36-0.2-0.55-0.29-0.56-0.27c-0.03,0.05,0.71,0.49,1.98,1.37c1.27,0.88,3.05,2.26,4.99,4.23c1.94,1.96,4,4.56,5.75,7.77
			c1.76,3.2,3.15,7.02,3.78,11.19l0.61-0.05c0-0.08,0-0.17,0-0.26c-0.1-8.54,2.87-15.99,5.84-20.66c1.48-2.37,2.89-4.14,3.93-5.31
			c1.04-1.17,1.65-1.79,1.61-1.83c-0.01-0.02-0.18,0.12-0.49,0.4C237.6,69.52,237.13,69.92,236.6,70.5z"/>
	</g>
</g>
<g id="Character">
	<g>
		<path style="fill:#FFBE9D;" d="M288.52,205.35c-0.83-1.07-1.99-1.87-3.28-2.27l-0.71,1.32c-0.29,0.22-0.33,0.69-0.08,0.95
			c0.25,0.26,0.73,0.25,0.96-0.03c-0.01,0.4-0.02,0.81-0.04,1.21c0.36,0.1,0.77,0.02,1.07-0.2c-0.29,0.64-0.41,1.35-0.35,2.04
			c0.02,0.2,0.07,0.44,0.26,0.53c0.25,0.12,0.52-0.11,0.7-0.32c0.46-0.54,0.93-1.08,1.39-1.62c0.2-0.24,0.42-0.5,0.43-0.81
			C288.88,205.86,288.71,205.59,288.52,205.35z"/>
		<path style="fill:#455A64;" d="M114.8,286.96c0,0,10.1,23.94,21.04,36.91s83.9,28.78,107.41,34.86
			c23.51,6.08,232.65,45.8,258.18,46.21s42.15,0.81,53.91,0c11.75-0.81,41.28-30.54,41.28-30.54l-374.04-79.12L114.8,286.96z"/>
		<path style="fill:#FF725E;" d="M114.8,286.96c0,0,9.6-16.54,43.01-33.56c8.46-4.31,78.52-37.79,94.48-40.4
			c0,0,2.93-0.33,1.63,4.89c-1.3,5.21,1.2,9.41,4.96,11.59c3.59,2.08,8.85,3.36,18.62-2.83l22.78,14.55l73.21,39.24l141.73,28.02
			l17.92,31.28c0,0,56.38,19.14,62.56,26.06c5.81,6.52,5.21,13.03-25.74,11.4c-30.95-1.63-132.6-25.74-132.6-25.74L176.7,303.9
			C154,300.54,133.31,294.95,114.8,286.96z"/>
		<g style="opacity:0.3;">
			<path d="M336.05,312.06c33.3,8.25,68.18,10.08,102.15,5.36c20.02-2.79,41.1-9.32,61.23-7.38l-36.2-6.96L336.05,312.06z"/>
		</g>
		<path style="fill:#263238;" d="M344.51,265.23c0,0-66.41,14.06-60.73,26.63c5.67,12.56,54.31,22.7,79.44,23.91
			c25.13,1.22,102.54-11.75,102.54-11.75l52.26,9.34c0,0,1.25-11.77,7.73-14.2c6.48-2.43,12.97,1.98,13.78-3.87
			c0.81-5.85-5.67-10.72-28.78-13.56c-23.1-2.84-42.18-2.83-52.69-1.22c-15.81,2.43-67.69,0-81.47-6.08
			C362.81,268.35,355.33,262.7,344.51,265.23z"/>
		<g>
			<path style="fill:#455A64;" d="M463.23,284.72c0.01,0.02-0.2,0.12-0.6,0.3c-0.45,0.2-1.04,0.45-1.76,0.76
				c-1.53,0.66-3.77,1.55-6.56,2.59c-5.57,2.09-13.39,4.7-22.2,6.95c-8.81,2.25-16.92,3.72-22.82,4.55c-2.95,0.42-5.34,0.71-7,0.87
				c-0.79,0.07-1.42,0.13-1.91,0.18c-0.44,0.03-0.67,0.04-0.67,0.03c0-0.02,0.22-0.06,0.66-0.13c0.49-0.07,1.12-0.16,1.9-0.27
				c1.65-0.22,4.03-0.57,6.97-1.03c5.87-0.93,13.95-2.45,22.74-4.69c8.79-2.25,16.61-4.79,22.2-6.79c2.8-1,5.06-1.84,6.61-2.44
				c0.74-0.28,1.33-0.5,1.8-0.67C463,284.77,463.22,284.7,463.23,284.72z"/>
		</g>
		<g>
			<path style="fill:#455A64;" d="M536.24,291.85c0,0.02-0.26,0.05-0.76,0.1c-0.55,0.05-1.27,0.11-2.17,0.19
				c-1.89,0.14-4.62,0.38-7.99,0.71c-6.74,0.65-16.04,1.77-26.22,3.55c-10.18,1.79-19.31,3.89-25.87,5.58
				c-3.28,0.84-5.93,1.55-7.76,2.05c-0.88,0.23-1.58,0.42-2.11,0.56c-0.48,0.12-0.74,0.18-0.75,0.16c-0.01-0.02,0.24-0.11,0.72-0.26
				c0.52-0.17,1.22-0.38,2.08-0.66c1.81-0.57,4.45-1.33,7.72-2.21c6.55-1.78,15.67-3.94,25.87-5.73c10.2-1.78,19.52-2.85,26.27-3.41
				c3.38-0.28,6.12-0.46,8.01-0.54c0.91-0.04,1.63-0.07,2.18-0.09C535.98,291.83,536.24,291.83,536.24,291.85z"/>
		</g>
		<g>
			<path style="fill:#263238;" d="M506.27,343.93c-0.01,0.02-0.25-0.04-0.72-0.18c-0.51-0.15-1.19-0.35-2.03-0.6
				c-1.76-0.52-4.28-1.36-7.37-2.47c-3.09-1.1-6.73-2.54-10.72-4.25c-3.98-1.74-8.3-3.77-12.74-6.09
				c-4.43-2.34-8.56-4.74-12.25-7.02c-3.68-2.31-6.93-4.48-9.59-6.4c-2.67-1.91-4.79-3.51-6.22-4.66c-0.68-0.55-1.23-0.99-1.65-1.32
				c-0.37-0.31-0.56-0.48-0.55-0.49c0.01-0.01,0.22,0.13,0.62,0.41c0.43,0.31,1,0.73,1.7,1.25c1.47,1.1,3.62,2.65,6.31,4.52
				c2.69,1.87,5.95,4.01,9.63,6.29c3.7,2.25,7.82,4.64,12.24,6.97c4.43,2.31,8.73,4.35,12.69,6.11c3.97,1.73,7.58,3.2,10.65,4.35
				c3.07,1.15,5.56,2.04,7.3,2.62c0.83,0.29,1.49,0.52,1.99,0.69C506.04,343.82,506.28,343.91,506.27,343.93z"/>
		</g>
		<path style="fill:#263238;" d="M326.43,220.62l15.22,8.21c0,0,0.14,5.96-4.88,6.24l-13.97-8.41L326.43,220.62z"/>
		<g style="opacity:0.3;">
			<path d="M385.55,282.68c-20.05-5.73-40.34-11.49-61.17-12.25c-1.79-0.06-3.85,0.02-4.99,1.4c-0.9,1.09-0.92,2.63-0.9,4.05
				c0.21,14.79-0.22,33.4,0,48.18l7.48,1.51c1.83-6.67,3.67-13.37,4.42-20.24c0.75-6.87,0.37-13.99-2.13-20.43
				c18.26,6.48,38.56,7.08,57.18,1.71c1.12-0.32,2.47-1,2.35-2.16C387.68,283.44,386.53,282.96,385.55,282.68z"/>
		</g>
		<g>
			<path style="fill:#263238;" d="M525.25,326.09c0.12-0.07,4.1,6.62,8.89,14.94c4.79,8.32,8.56,15.13,8.44,15.2
				c-0.12,0.07-4.1-6.62-8.89-14.94C528.9,332.97,525.13,326.17,525.25,326.09z"/>
		</g>
		<path style="fill:#455A64;" d="M277.5,226.65l17.89-19.27c0,0,8.28-2.9,16.14,2.48c7.86,5.38,6.41,5.41,11.79,8.9l3.1,1.86
			l-2.91,6.48c0,0-6.4-3.79-10.54,0.77c-4.14,4.55-12.69,13.34-12.69,13.34L277.5,226.65z"/>
		<path style="fill:#263238;" d="M283.9,200.38c-0.6,0.98-0.91,2.14-0.47,3.37l11.71,7.73c0,0,2.85,0.68,4.07-0.68
			c1.22-1.36,0-4.14,0-4.14l-9.43-7.26C287.91,197.96,285.13,198.36,283.9,200.38z"/>
		<g>
			<path style="fill:#263238;" d="M365.13,242.72c0,0-0.09-0.21-0.24-0.63c-0.16-0.41-0.37-1.04-0.82-1.77
				c-0.23-0.35-0.53-0.73-0.95-1.04c-0.42-0.29-0.97-0.5-1.58-0.51c-0.59-0.02-1.29,0.24-1.62,0.84c-0.29,0.6-0.01,1.46,0.6,1.88
				c0.31,0.21,0.72,0.21,1.04-0.03c0.32-0.23,0.49-0.63,0.58-1.05c0.15-0.85,0.13-1.82-0.08-2.75c-0.21-0.92-0.77-1.86-1.74-2.22
				c-0.47-0.18-1.01-0.24-1.49-0.08c-0.49,0.16-0.87,0.56-0.92,1.08c-0.07,0.51,0.12,1.09,0.52,1.42c0.39,0.33,1.03,0.23,1.38-0.19
				c0.77-0.86,0.6-2.3-0.16-3.25c-0.73-0.96-2.09-1.59-3.32-1.16c-0.62,0.2-1.22,0.52-1.72,0.96c-0.49,0.4-0.97,1.08-0.66,1.54
				l-0.05-0.05c0.3,0.21,0.82-0.21,1.13-0.61c0.34-0.42,0.6-0.93,0.76-1.46c0.16-0.54,0.19-1.09-0.05-1.58
				c-0.24-0.49-0.65-0.9-1.15-1.17c-0.98-0.54-2.41-0.46-3.07,0.54c-0.35,0.47-0.59,1.05-0.7,1.65c-0.12,0.56-0.07,1.31,0.36,1.45
				l-0.08-0.01c0.97-0.05,1.49-1.2,1.55-2.21c0.08-1.03-0.21-2.19-1-2.84c-0.8-0.63-2.03-0.49-3.03-0.1c-0.51,0.21-1,0.49-1.38,0.87
				c-0.4,0.37-0.61,0.87-0.38,1.26l-0.09-0.09c0.39,0.22,0.78,0.13,1.05-0.25c0.27-0.36,0.39-0.86,0.43-1.35
				c0.04-0.49-0.02-1-0.24-1.4c-0.22-0.41-0.61-0.75-1.04-0.98c-0.88-0.46-1.99-0.52-2.99-0.28c-0.47,0.12-0.93,0.4-1.27,0.76
				c-0.34,0.36-0.51,0.84-0.27,1.2c0.21,0.38,0.71,0.44,1.16,0.24c0.45-0.19,0.84-0.56,1-1.02c0.35-0.96-0.01-2.12-0.76-2.84
				c-0.37-0.36-0.85-0.62-1.36-0.69c-0.49-0.05-1.02,0.11-1.49,0.37c-0.48,0.26-0.91,0.61-1.26,1.03c-0.34,0.39-0.61,0.98-0.35,1.21
				l-0.1-0.06c0.55,0.2,1.21-0.28,1.57-0.9c0.38-0.62,0.55-1.39,0.25-2.05c-0.41-1-1.68-1.68-2.67-1.26
				c-0.5,0.21-0.96,0.59-1.31,1.03c-0.35,0.41-0.6,1.05-0.28,1.2l-0.04-0.02c0.41,0.16,0.79-0.18,1.03-0.66
				c0.24-0.47,0.36-1.01,0.42-1.54c0.04-0.54,0.02-1.08-0.19-1.54c-0.2-0.47-0.56-0.87-0.99-1.15c-0.87-0.58-2.05-0.6-2.72,0.23
				c-0.36,0.37-0.65,0.83-0.84,1.3c-0.2,0.47-0.23,1.04,0.12,1.02c0.43,0.05,0.85-0.23,1.06-0.66c0.22-0.42,0.3-0.94,0.28-1.45
				c-0.04-0.99-0.42-2.08-1.24-2.56c-0.39-0.22-0.9-0.23-1.38-0.13c-0.48,0.1-0.96,0.29-1.4,0.53c-0.44,0.24-0.84,0.55-1.16,0.91
				c-0.16,0.18-0.27,0.38-0.34,0.56c-0.03,0.18,0.03,0.29,0.16,0.41l-0.02-0.01c0.36,0.19,0.7-0.01,0.9-0.45
				c0.2-0.41,0.29-0.9,0.31-1.38c0.03-0.93-0.17-2.02-0.89-2.5c-0.73-0.47-1.75-0.08-2.48,0.44c-0.38,0.26-0.72,0.59-0.98,0.95
				c-0.27,0.35-0.41,0.82-0.21,1.01l-0.07-0.05c0.25,0.1,0.48,0.09,0.67-0.07c0.19-0.16,0.32-0.43,0.41-0.71
				c0.17-0.56,0.16-1.19,0.02-1.75c-0.14-0.56-0.53-0.99-1.04-1.27c-0.5-0.28-1.09-0.39-1.66-0.39c-1.13,0.01-2.4,0.46-2.81,1.43
				c-0.19,0.46,0.08,0.98,0.56,1.09c0.48,0.13,1.02-0.05,1.29-0.46c0.57-0.85,0.29-2.08-0.34-2.85c-0.64-0.8-1.64-1.29-2.62-1.3
				c-0.98-0.02-1.87,0.55-2.55,1.21c-0.33,0.34-0.62,0.72-0.8,1.14c-0.18,0.41-0.17,0.87,0.09,1.17l-0.05-0.04
				c0.33,0.16,0.67-0.2,0.86-0.58c0.2-0.39,0.31-0.83,0.37-1.26c0.11-0.86,0.04-1.78-0.52-2.37c-1.09-1.23-3.14-1.24-4.08-0.16
				c-0.49,0.5-0.61,1.34-0.11,1.75c0.49,0.4,1.24,0.36,1.74,0.06c0.52-0.3,0.71-0.94,0.65-1.48c-0.06-0.55-0.32-1.05-0.64-1.43
				c-0.33-0.39-0.74-0.64-1.16-0.81c-0.42-0.18-0.83-0.3-1.21-0.41c-0.77-0.21-1.43-0.32-1.97-0.36c-0.54-0.05-0.95-0.03-1.23,0.01
				c-0.27,0.03-0.41,0.08-0.41,0.07c0,0,0.13-0.07,0.4-0.12c0.27-0.06,0.69-0.09,1.24-0.05c0.55,0.03,1.22,0.13,2,0.32
				c0.39,0.1,0.81,0.22,1.24,0.4c0.43,0.17,0.89,0.43,1.24,0.84c0.35,0.4,0.64,0.93,0.71,1.53c0.07,0.59-0.12,1.33-0.73,1.69
				c-0.58,0.34-1.4,0.42-2.02-0.06c-0.3-0.25-0.45-0.67-0.41-1.06c0.04-0.4,0.23-0.76,0.49-1.06c1.07-1.22,3.28-1.22,4.52,0.13
				c0.65,0.69,0.72,1.72,0.61,2.61c-0.06,0.46-0.17,0.93-0.39,1.37c-0.12,0.22-0.24,0.44-0.46,0.61c-0.21,0.18-0.56,0.26-0.84,0.13
				l-0.03-0.02l-0.02-0.02c-0.39-0.42-0.38-1.07-0.17-1.53c0.2-0.48,0.51-0.89,0.87-1.26c0.71-0.71,1.67-1.35,2.81-1.34
				c1.1,0.01,2.2,0.54,2.92,1.43c0.7,0.87,1.08,2.23,0.37,3.33c-0.35,0.55-1.1,0.81-1.73,0.63c-0.32-0.08-0.64-0.29-0.8-0.62
				c-0.17-0.31-0.17-0.7-0.05-1.02c0.26-0.64,0.79-1.05,1.36-1.32c0.58-0.26,1.2-0.39,1.84-0.4c0.64,0,1.3,0.12,1.88,0.44
				c0.29,0.16,0.56,0.37,0.78,0.62c0.23,0.27,0.38,0.59,0.47,0.92c0.16,0.65,0.17,1.34-0.02,2c-0.1,0.33-0.25,0.67-0.55,0.93
				c-0.3,0.28-0.81,0.3-1.15,0.14l-0.04-0.02l-0.02-0.02c-0.25-0.26-0.27-0.62-0.2-0.89c0.08-0.27,0.2-0.51,0.35-0.72
				c0.3-0.42,0.67-0.78,1.09-1.07c0.42-0.29,0.88-0.54,1.4-0.66c0.51-0.13,1.12-0.11,1.61,0.21c0.49,0.32,0.77,0.84,0.93,1.34
				c0.15,0.51,0.21,1.04,0.19,1.58c-0.02,0.53-0.11,1.07-0.35,1.58c-0.13,0.25-0.29,0.51-0.6,0.68c-0.3,0.2-0.69,0.11-0.97-0.01
				l-0.01,0l-0.01-0.01c-0.29-0.19-0.47-0.59-0.37-0.93c0.1-0.31,0.26-0.56,0.44-0.77c0.37-0.42,0.81-0.75,1.29-1.02
				c0.48-0.26,0.99-0.47,1.54-0.59c0.54-0.11,1.17-0.12,1.72,0.19c1.06,0.65,1.44,1.87,1.49,2.98c0.01,0.57-0.06,1.16-0.34,1.7
				c-0.26,0.55-0.88,1.01-1.57,0.92c-0.17-0.01-0.39-0.1-0.52-0.27c-0.14-0.16-0.18-0.36-0.19-0.53c-0.02-0.34,0.07-0.63,0.18-0.91
				c0.22-0.55,0.54-1.04,0.94-1.48c0.21-0.21,0.43-0.42,0.72-0.56c0.29-0.15,0.61-0.23,0.91-0.24c0.62-0.03,1.23,0.17,1.74,0.49
				c0.51,0.34,0.93,0.81,1.18,1.38c0.26,0.58,0.28,1.21,0.23,1.8c-0.06,0.59-0.2,1.18-0.48,1.74c-0.14,0.28-0.33,0.55-0.61,0.75
				c-0.28,0.22-0.72,0.28-1.05,0.15l-0.03-0.01l-0.01-0.01c-0.17-0.11-0.34-0.3-0.38-0.52c-0.06-0.21-0.02-0.41,0.03-0.58
				c0.1-0.34,0.29-0.62,0.48-0.87c0.41-0.5,0.9-0.92,1.52-1.19c1.34-0.52,2.82,0.31,3.35,1.54c0.38,0.85,0.15,1.82-0.29,2.52
				c-0.22,0.36-0.51,0.69-0.88,0.93c-0.36,0.24-0.87,0.35-1.31,0.19l-0.05-0.02l-0.04-0.04c-0.32-0.31-0.29-0.79-0.17-1.08
				c0.12-0.32,0.29-0.59,0.49-0.82c0.4-0.47,0.88-0.86,1.41-1.15c0.53-0.28,1.15-0.5,1.81-0.43c0.64,0.08,1.21,0.4,1.65,0.83
				c0.87,0.86,1.31,2.2,0.88,3.39c-0.21,0.61-0.71,1.08-1.28,1.32c-0.29,0.12-0.62,0.19-0.96,0.13c-0.34-0.06-0.66-0.29-0.83-0.58
				c-0.19-0.29-0.23-0.68-0.14-1c0.09-0.32,0.27-0.59,0.47-0.81c0.42-0.44,0.93-0.76,1.52-0.91c1.12-0.26,2.31-0.2,3.35,0.33
				c0.51,0.28,0.96,0.66,1.25,1.19c0.29,0.54,0.34,1.12,0.3,1.68c-0.05,0.56-0.18,1.12-0.53,1.6c-0.16,0.24-0.44,0.46-0.76,0.54
				c-0.34,0.1-0.65-0.03-0.92-0.15l-0.06-0.03l-0.03-0.06c-0.17-0.32-0.23-0.73-0.09-1.06c0.12-0.33,0.32-0.59,0.55-0.81
				c0.45-0.44,0.99-0.74,1.54-0.97c0.56-0.22,1.15-0.36,1.76-0.37c0.6-0.01,1.25,0.13,1.75,0.54c0.97,0.83,1.25,2.11,1.17,3.25
				c-0.05,0.58-0.19,1.16-0.5,1.67c-0.3,0.51-0.86,0.95-1.49,0.97l-0.04,0l-0.04-0.01c-0.44-0.14-0.64-0.59-0.7-0.93
				c-0.07-0.36-0.03-0.71,0.03-1.04c0.13-0.67,0.39-1.29,0.79-1.83c0.38-0.56,1.05-0.95,1.72-1.02c0.67-0.09,1.34,0.06,1.92,0.36
				c0.58,0.31,1.06,0.78,1.34,1.37c0.29,0.6,0.25,1.31,0.06,1.88c-0.18,0.59-0.46,1.13-0.84,1.6c-0.19,0.24-0.41,0.45-0.67,0.62
				c-0.25,0.17-0.67,0.3-1.02,0.07l-0.03-0.02l-0.02-0.03c-0.27-0.39-0.18-0.89,0.01-1.22c0.18-0.35,0.45-0.62,0.72-0.86
				c0.55-0.48,1.19-0.82,1.87-1.03c1.42-0.48,2.93,0.24,3.73,1.31c0.41,0.54,0.68,1.19,0.72,1.85c0.05,0.67-0.15,1.35-0.6,1.86
				c-0.43,0.52-1.31,0.69-1.85,0.22c-0.52-0.44-0.71-1.11-0.63-1.73c0.06-0.64,0.58-1.17,1.15-1.34c0.58-0.19,1.18-0.11,1.7,0.09
				c1.08,0.41,1.69,1.47,1.9,2.43c0.21,0.99,0.22,1.95,0.06,2.87c-0.1,0.45-0.3,0.91-0.69,1.19c-0.19,0.14-0.43,0.22-0.66,0.23
				c-0.24,0-0.46-0.09-0.65-0.2c-0.71-0.51-1-1.45-0.66-2.17c0.4-0.69,1.17-0.94,1.81-0.92c0.65,0.02,1.23,0.25,1.67,0.57
				c0.44,0.33,0.74,0.73,0.97,1.1c0.45,0.75,0.64,1.39,0.78,1.81C365.08,242.5,365.13,242.72,365.13,242.72z"/>
		</g>
		<g>
			<path style="fill:#263238;" d="M406.86,257.91c0.13,0.05-0.16,0.83-0.98,1.35c-0.82,0.53-1.64,0.46-1.64,0.32
				c-0.01-0.15,0.67-0.31,1.36-0.76C406.3,258.38,406.73,257.83,406.86,257.91z"/>
		</g>
		<g>
			<path style="fill:#263238;" d="M304.34,208.8c0.03,0.01-0.07,0.38-0.28,1.03c-0.2,0.65-0.56,1.58-1.06,2.7
				c-0.99,2.24-2.65,5.23-4.99,8.16c-2.35,2.93-4.89,5.21-6.86,6.67c-0.98,0.73-1.81,1.29-2.4,1.63c-0.59,0.35-0.92,0.53-0.94,0.5
				c-0.05-0.08,1.22-0.89,3.11-2.42c1.89-1.52,4.37-3.81,6.68-6.7c2.31-2.9,4-5.81,5.06-7.99
				C303.74,210.19,304.26,208.77,304.34,208.8z"/>
		</g>
		<g>
			<path style="fill:#263238;" d="M317.52,215.33c0.03,0.01-0.09,0.43-0.35,1.17c-0.25,0.75-0.69,1.8-1.31,3.07
				c-0.61,1.27-1.45,2.74-2.48,4.29c-1.05,1.54-2.31,3.17-3.78,4.75c-1.48,1.57-3.03,2.93-4.5,4.08c-1.49,1.13-2.89,2.06-4.13,2.75
				c-1.23,0.7-2.25,1.2-2.98,1.5c-0.73,0.31-1.13,0.46-1.15,0.43c-0.04-0.09,1.56-0.79,3.94-2.25c1.2-0.72,2.56-1.67,4.02-2.81
				c1.44-1.16,2.95-2.51,4.42-4.06c1.45-1.56,2.7-3.16,3.77-4.67c1.04-1.52,1.9-2.95,2.55-4.19
				C316.83,216.93,317.43,215.29,317.52,215.33z"/>
		</g>
		<g style="opacity:0.3;">
			<path d="M578.42,372.07c0.81-0.95,0.65-2.45-0.05-3.48c-0.7-1.03-1.81-1.7-2.91-2.3c-8.02-4.39-16.87-6.97-25.53-9.9
				c-2.9-0.98-8.96-2.89-8.96-2.89l-5.1-8.94c10.46,3.73,21.94,7.92,32.17,12.23c4.73,1.99,9.76,4.43,12.04,9.02
				c0.58,1.17,0.96,2.49,0.73,3.78c-0.23,1.29-1.18,2.5-2.46,2.73"/>
		</g>
		<g>
			<path style="fill:#263238;" d="M552.48,369.79c0-0.02,0.25,0,0.72,0.04c0.52,0.05,1.2,0.12,2.04,0.21
				c1.83,0.21,4.38,0.51,7.51,0.87c3.18,0.39,6.95,0.85,11.12,1.36c1.05,0.1,2.13,0.35,3.15,0.2c0.51-0.07,0.98-0.29,1.29-0.67
				c0.31-0.38,0.43-0.91,0.38-1.42c-0.08-1.06-0.89-1.95-1.79-2.66c-0.91-0.73-1.91-1.38-2.96-1.97c-2.11-1.18-4.31-2.06-6.45-2.88
				c-2.15-0.8-4.22-1.58-6.2-2.32c-3.96-1.45-7.54-2.7-10.56-3.74c-2.98-1-5.41-1.82-7.16-2.41c-0.81-0.27-1.45-0.49-1.95-0.66
				c-0.44-0.16-0.67-0.25-0.67-0.26c0.01-0.02,0.25,0.04,0.7,0.16c0.5,0.14,1.16,0.33,1.98,0.57c1.71,0.51,4.18,1.27,7.22,2.25
				c3.03,0.99,6.64,2.21,10.61,3.64c1.99,0.71,4.07,1.48,6.21,2.29c2.15,0.82,4.37,1.7,6.52,2.9c1.07,0.6,2.09,1.27,3.03,2.02
				c0.92,0.73,1.86,1.72,1.97,3.02c0.06,0.62-0.08,1.28-0.5,1.79c-0.41,0.5-1.03,0.76-1.61,0.84c-1.18,0.16-2.25-0.11-3.29-0.22
				c-4.17-0.55-7.93-1.05-11.11-1.47c-3.12-0.43-5.66-0.78-7.49-1.04c-0.84-0.13-1.52-0.23-2.03-0.31
				C552.72,369.86,552.48,369.81,552.48,369.79z"/>
		</g>
		<g style="opacity:0.3;">
			<path d="M379.12,334.83c22.69,2.99,45.75-0.42,68.59,1.09c22.63,1.5,44.92,7.89,64.9,18.63c0,0-38.2-10.67-56.29-11.76
				C438.23,341.7,379.12,334.83,379.12,334.83z"/>
		</g>
		<path style="fill:#FFFFFF;" d="M176.68,244.33c-0.33,0.15,10.14,9.11,10.14,9.11l19.18-6.86l-9.31-11.51L176.68,244.33z"/>
		<polygon style="fill:#FFFFFF;" points="193.02,251.34 229.39,280.1 253.51,278.78 215.21,243.99 		"/>
		<g>
			<path style="fill:#263238;" d="M273.72,232.14c0,0.01-0.13,0.03-0.38,0.07c-0.28,0.04-0.64,0.08-1.11,0.14
				c-1.01,0.12-2.44,0.29-4.28,0.5c-1.86,0.18-4.12,0.53-6.75,0.93c-1.31,0.2-2.72,0.41-4.21,0.63c-1.48,0.27-3.05,0.55-4.69,0.85
				c-6.59,1.15-14.36,2.9-22.94,5.06c-8.56,2.22-17.88,4.98-27.56,8.23c-9.66,3.3-18.72,6.85-26.86,10.29
				c-2.02,0.9-3.99,1.78-5.9,2.64c-0.96,0.43-1.9,0.85-2.83,1.26c-0.91,0.44-1.81,0.88-2.7,1.31c-1.77,0.86-3.48,1.68-5.12,2.48
				c-1.63,0.81-3.17,1.66-4.65,2.43c-1.48,0.78-2.88,1.53-4.22,2.23c-1.3,0.75-2.54,1.46-3.69,2.12c-1.15,0.66-2.22,1.27-3.21,1.84
				c-0.99,0.57-1.85,1.15-2.64,1.64c-1.57,0.98-2.79,1.74-3.65,2.28c-0.4,0.25-0.72,0.44-0.96,0.58c-0.22,0.13-0.33,0.19-0.34,0.18
				c-0.01-0.01,0.1-0.08,0.31-0.23c0.23-0.16,0.54-0.36,0.93-0.63c0.85-0.56,2.06-1.35,3.6-2.37c0.79-0.5,1.65-1.1,2.62-1.68
				c0.98-0.58,2.05-1.21,3.19-1.88c1.15-0.67,2.37-1.39,3.67-2.16c1.33-0.72,2.73-1.47,4.2-2.27c1.48-0.78,3.01-1.64,4.64-2.46
				c1.64-0.81,3.35-1.64,5.11-2.51c0.88-0.43,1.78-0.87,2.7-1.32c0.93-0.42,1.87-0.84,2.82-1.28c1.91-0.86,3.88-1.75,5.9-2.66
				c8.15-3.47,17.21-7.04,26.89-10.34c9.69-3.25,19.03-6,27.61-8.2c8.59-2.13,16.38-3.85,22.99-4.95
				C265.43,232.58,273.72,232.14,273.72,232.14z"/>
		</g>
		<polygon style="fill:#FFFFFF;" points="227.57,280.2 268.63,309.59 305.13,320.45 248.26,279.06 		"/>
		<g>
			<g style="opacity:0.3;">
				<path d="M146.98,284.64c0.18-0.01,0.36-0.02,0.53-0.03c-0.08-0.01-0.16-0.03-0.24-0.04L146.98,284.64z"/>
			</g>
			<g style="opacity:0.3;">
				<path d="M147.52,284.61c33.79,6.31,68.75,6.31,102.54-0.01c5.81-1.09,11.88-2.5,16.25-6.49
					C226.93,280.12,186.91,282.6,147.52,284.61z"/>
			</g>
		</g>
		<g>
			<path style="fill:#263238;" d="M555.01,373.12c0,0-0.34-0.17-0.99-0.53c-0.66-0.37-1.63-0.9-2.89-1.6
				c-0.64-0.35-1.35-0.75-2.13-1.18c-0.8-0.41-1.67-0.85-2.62-1.34c-1.89-0.96-4.07-2.1-6.59-3.22
				c-9.98-4.68-24.94-10.48-44.14-15.07c-9.59-2.31-20.21-4.34-31.68-6.07c-11.47-1.75-23.79-3.11-36.78-4.39
				c-12.98-1.27-26.63-2.42-40.76-3.9c-14.12-1.47-28.73-3.3-43.55-6.05c-29.67-5.56-56.92-14.93-81.9-22.38
				c-24.96-7.62-47.86-13.05-67.29-16.47c-9.71-1.73-18.56-2.92-26.36-3.68c-3.89-0.44-7.54-0.62-10.89-0.86
				c-3.35-0.1-6.42-0.32-9.18-0.26c-1.38,0-2.68,0-3.9,0c-1.22,0.01-2.36,0.09-3.42,0.13c-2.12,0.09-3.92,0.15-5.36,0.33
				c-1.44,0.14-2.54,0.24-3.29,0.31c-0.74,0.07-1.12,0.09-1.12,0.09s0.38-0.06,1.12-0.14c0.75-0.08,1.85-0.2,3.29-0.36
				c1.44-0.2,3.24-0.27,5.36-0.38c1.06-0.05,2.2-0.13,3.43-0.15c1.22-0.01,2.53-0.01,3.91-0.02c2.76-0.07,5.83,0.13,9.19,0.22
				c3.35,0.23,7,0.4,10.9,0.82c7.81,0.74,16.67,1.9,26.4,3.61c19.45,3.38,42.39,8.78,67.37,16.38c25,7.43,52.23,16.78,81.86,22.33
				c14.8,2.75,29.39,4.58,43.51,6.06c14.12,1.48,27.77,2.64,40.76,3.93c12.99,1.29,25.32,2.67,36.8,4.44
				c11.48,1.75,22.11,3.8,31.7,6.13c19.21,4.64,34.18,10.5,44.14,15.24c2.52,1.14,4.68,2.29,6.57,3.27
				c0.94,0.49,1.81,0.94,2.61,1.36c0.78,0.44,1.48,0.85,2.12,1.21c1.25,0.72,2.21,1.27,2.87,1.65
				C554.69,372.91,555.01,373.12,555.01,373.12z"/>
		</g>
		<g>
			<path style="fill:#263238;" d="M272.37,278.12c0.01,0.14-28.06,1.79-62.68,3.68c-34.64,1.89-62.71,3.3-62.72,3.16
				c-0.01-0.14,28.05-1.79,62.69-3.68C244.29,279.39,272.37,277.97,272.37,278.12z"/>
		</g>
	</g>
	<path style="fill:#FFBE9D;" d="M367.28,258.1c0,0-49.24-3.58-54.12-2.52c-4.88,1.06-12.73,5.94-13.37,15.07
		c-0.64,9.13,9.36,50.92,9.36,50.92l14.25,3.73c0,0,4.1-24.02,2.98-32.22c-1.12-8.2-4.09-16.06-4.09-16.06s16.34,6.02,23.35,7.26
		c7,1.23,26.69,5.16,39.95,2.69c13.26-2.47,16.08-8.25,16.08-8.25l-3.61-22.07L367.28,258.1z"/>
	<g>
		<path style="fill:#263238;" d="M710.42,297.64c0,0-0.15,0.07-0.45,0.18c-0.31,0.06-0.79,0.18-1.41,0.05
			c-1.23-0.21-2.93-1.38-3.9-3.57c-0.47-1.1-0.67-2.42-0.86-3.83c-0.2-1.41-0.35-2.98-0.99-4.49c-0.31-0.75-0.82-1.44-1.5-1.99
			c-0.67-0.55-1.49-0.97-2.39-1.11c-0.45-0.05-0.91-0.06-1.35,0.09c-0.43,0.14-0.82,0.4-1.14,0.75c-0.63,0.72-0.85,1.78-1.62,2.62
			c-0.4,0.4-0.97,0.66-1.58,0.65c-0.62-0.04-1.14-0.41-1.53-0.81c-0.8-0.82-1.38-1.79-2.08-2.68c-0.69-0.87-1.54-1.74-2.67-1.86
			c-1.12-0.15-2.26,0.35-3.24,1.04c-1,0.68-1.88,1.57-2.71,2.52c-0.84,0.98-1.79,1.91-2.93,2.64c-1.11,0.71-2.54,1.32-3.98,0.86
			c-0.7-0.22-1.3-0.7-1.73-1.28c-0.44-0.58-0.74-1.22-1.02-1.86c-0.28-0.64-0.52-1.29-0.84-1.9c-0.31-0.6-0.71-1.17-1.28-1.46
			c-0.56-0.28-1.28-0.35-1.84-0.07c-0.57,0.28-1,0.86-1.33,1.47c-0.66,1.25-1.05,2.68-1.62,4.07c-0.28,0.7-0.6,1.4-1.08,2.03
			c-0.46,0.63-1.2,1.17-2.05,1.24c-0.83,0.08-1.68-0.28-2.27-0.81c-0.61-0.52-1.09-1.13-1.6-1.69c-0.5-0.57-1.06-1.05-1.71-1.38
			c-0.66-0.31-1.4-0.41-2.14-0.34c-1.48,0.15-2.87,0.97-4.09,1.91c-1.23,0.95-2.32,2.1-3.31,3.34
			c-16.19,19.89-30.84,37.89-41.47,50.94c-5.31,6.49-9.62,11.75-12.61,15.4c-1.49,1.8-2.65,3.2-3.45,4.17
			c-0.39,0.46-0.69,0.82-0.91,1.08c-0.21,0.24-0.32,0.36-0.32,0.36s0.09-0.14,0.28-0.39c0.21-0.27,0.5-0.64,0.87-1.11
			c0.79-0.99,1.92-2.41,3.37-4.23c2.96-3.68,7.22-8.97,12.48-15.5c10.59-13.08,25.2-31.11,41.35-51.04c1.01-1.26,2.13-2.44,3.4-3.43
			c0.63-0.5,1.31-0.94,2.04-1.3c0.72-0.36,1.5-0.63,2.32-0.71c0.81-0.08,1.66,0.03,2.41,0.38c0.74,0.37,1.36,0.91,1.87,1.5
			c0.52,0.57,1,1.18,1.55,1.64c0.54,0.48,1.21,0.75,1.9,0.69c0.68-0.06,1.27-0.47,1.69-1.04c0.43-0.57,0.74-1.23,1.01-1.91
			c0.56-1.36,0.95-2.79,1.65-4.11c0.35-0.65,0.82-1.31,1.55-1.68c0.74-0.36,1.59-0.28,2.29,0.08c0.71,0.37,1.15,1.03,1.48,1.67
			c0.33,0.64,0.58,1.3,0.85,1.94c0.51,1.25,1.22,2.5,2.46,2.88c1.21,0.4,2.53-0.12,3.59-0.8c1.09-0.69,2.01-1.59,2.83-2.54
			c0.84-0.97,1.76-1.88,2.8-2.59c1.02-0.71,2.26-1.26,3.54-1.1c0.63,0.08,1.23,0.35,1.7,0.74c0.48,0.38,0.87,0.83,1.23,1.29
			c0.71,0.92,1.29,1.89,2.03,2.66c0.37,0.38,0.81,0.67,1.28,0.7c0.47,0.02,0.96-0.19,1.29-0.53c0.68-0.71,0.92-1.78,1.62-2.59
			c0.36-0.39,0.81-0.69,1.3-0.85c0.5-0.16,1.01-0.15,1.5-0.09c0.98,0.15,1.84,0.61,2.54,1.19c0.71,0.57,1.25,1.32,1.57,2.11
			c0.66,1.58,0.78,3.16,0.97,4.57c0.18,1.41,0.36,2.72,0.8,3.79c0.92,2.15,2.55,3.31,3.73,3.55
			C709.8,298,710.42,297.58,710.42,297.64z"/>
	</g>
	<g>
		<path style="fill:#455A64;" d="M370.7,251.47l-1.67,6.44c0,0,14.46-2.27,22.48,5.75c8.03,8.03,4.01,20.12,4.01,20.12
			s10.27-4.19,12.6-9.28c3.39-7.42,0-17.42,0-17.42l-26.43-9.98L370.7,251.47z"/>
		<g>
			<path style="fill:#263238;" d="M414.39,155.48c0.14,0.7,0.29,1.4,0.43,2.1l-3.12-14.84c2-3.02,6.37-3.8,9.76-2.5
				c3.39,1.3,5.9,4.24,7.73,7.37c1.83,3.13,3.14,6.55,4.99,9.67c1.85,3.12,4.41,6.02,7.82,7.26c2.33,0.84,4.88,0.85,7.24,1.58
				c2.36,0.73,4.71,2.57,4.76,5.04c0.04,1.97-1.4,3.75-1.32,5.72c0.08,1.99,1.66,3.56,2.36,5.43c1.2,3.21-0.58,7.08-3.58,8.75
				c-3.26,1.82-7.44,1.26-10.73-0.5c-3.29-1.77-7.87,0.51-10.32-2.31C423.15,179.91,418.27,165.85,414.39,155.48z"/>
			<g>
				<g>
					<g>
						<g>
							<path style="fill:#263238;" d="M399.96,133.49c4.29-0.63,8.02,1.1,11.57,3.59c3.55,2.49,6.19,6.19,7.67,10.27
								c1.56,4.3,1.85,9.1,0.49,13.47c-1.37,4.36-4.46,8.23-8.58,10.21c-5.63,2.7-12.72,1.56-17.62-2.31
								c-4.9-3.87-7.61-10.16-7.71-16.41c-0.07-4.3,1.05-8.68,3.54-12.19C391.8,136.6,395.69,134.02,399.96,133.49"/>
						</g>
					</g>
					<g>
						<g>
							<g>
								<g>
									<path style="fill:#263238;" d="M411.8,148.31c-0.59-1.65-0.31-3.47-0.52-5.21c-0.46-3.83-3.47-6.96-7-8.53
										c-3.28-1.46-7.33-1.25-11.35-0.04c-2.75,0.82-5.36,2.31-7.23,4.49c-2.48,2.9-3.43,7.04-2.44,10.73l19.61-2.41
										c1.8,1.55,3.64,3.14,5.84,4.03c0.65,0.26,1.34,0.46,2.03,0.37c0.69-0.09,1.37-0.55,1.55-1.22
										C412.48,149.76,412.06,149.03,411.8,148.31z"/>
								</g>
							</g>
						</g>
						<g>
							<path style="fill:#FFBE9D;" d="M409.39,143.9l-16.98-3.99c-5.43-0.48-8.92,6.25-9.17,11.69c-0.28,6.05-0.38,13.44,0.41,17.93
								c1.59,9.04,8.55,10.07,8.55,10.07c0-0.01,0.09,2.27,0.21,5.08c0.23,5.66,5.02,10.07,10.68,9.82h0
								c5.54-0.24,9.89-4.85,9.8-10.4l-0.59-37.02C412.3,145.43,411.04,144.05,409.39,143.9z"/>
						</g>
						<g>
							<g>
								<g>
									<g>
										<g>
											<g>
												<g>
													<g>
														<g>
															<g>
																<g>
																	<g>
																		<g>
																			<g>
																				<g>
																					<g>
																						<g>
																							<g>
																								<path style="fill:#EB996E;" d="M392.2,179.6c0,0,6.1,0.29,12.08-3.44c0,0-2.95,6.32-12.03,5.63L392.2,179.6
																									z"/>
																							</g>
																						</g>
																					</g>
																				</g>
																			</g>
																		</g>
																	</g>
																</g>
															</g>
														</g>
													</g>
												</g>
											</g>
										</g>
									</g>
								</g>
							</g>
						</g>
						<g>
							<g>
								<g>
									<g>
										<g>
											<g>
												<g>
													<g>
														<g>
															<g>
																<g>
																	<g>
																		<g>
																			<g>
																				<g>
																					<path style="fill:#263238;" d="M396.49,151.57c0.13,0.34,1.38,0.16,2.84,0.31c1.47,0.12,2.66,0.53,2.85,0.22
																						c0.08-0.15-0.13-0.46-0.61-0.78c-0.48-0.32-1.24-0.62-2.12-0.7c-0.88-0.08-1.69,0.07-2.22,0.3
																						C396.7,151.13,396.44,151.4,396.49,151.57z"/>
																				</g>
																			</g>
																		</g>
																	</g>
																</g>
															</g>
														</g>
													</g>
												</g>
											</g>
										</g>
									</g>
								</g>
							</g>
						</g>
						<g>
							<g>
								<g>
									<g>
										<g>
											<g>
												<g>
													<g>
														<g>
															<g>
																<g>
																	<g>
																		<g>
																			<g>
																				<g>
																					<path style="fill:#263238;" d="M385.48,150.22c0.22,0.28,1.08-0.03,2.12-0.06c1.03-0.07,1.92,0.16,2.11-0.14
																						c0.09-0.15-0.06-0.43-0.44-0.69c-0.38-0.26-1.02-0.47-1.73-0.44c-0.71,0.03-1.32,0.3-1.68,0.6
																						C385.5,149.79,385.39,150.08,385.48,150.22z"/>
																				</g>
																			</g>
																		</g>
																	</g>
																</g>
															</g>
														</g>
													</g>
												</g>
											</g>
										</g>
									</g>
								</g>
							</g>
						</g>
						<g>
							<g>
								<g>
									<path style="fill:#263238;" d="M414.99,145.74c-1.65-5.24-9.22-12.49-14.7-12.12l-8.76,5.23c0.52,2.98,2.82,5.58,5.71,6.47
										c1.55,0.47,3.41,0.61,4.32,1.94c0.94,1.36,0.38,3.34,1.25,4.74c1.21,1.94,4.52,1.86,5.42,3.96c0.4,0.92,0.19,2.01,0.6,2.93
										c0.55,1.21,3.61,2.76,4.89,2.36c1.27-0.4,1.28-2.56,1.7-3.69c0.71-1.93,0.42-2.94,0.19-4.02
										C415.07,150.97,415.78,148.24,414.99,145.74z"/>
								</g>
							</g>
						</g>
						<g>
							<g>
								<g>
									<g>
										<g>
											<g>
												<path style="fill:#FFBE9D;" d="M409.98,162.31c-0.01-0.67,0.74-2.28,1.41-2.39c1.77-0.31,4.98-0.22,5.09,4.3
													c0.14,6.18-6.09,5.05-6.1,4.87C410.36,168.95,410.01,164.64,409.98,162.31z"/>
											</g>
										</g>
									</g>
								</g>
							</g>
						</g>
						<g>
							<g>
								<g>
									<g>
										<g>
											<g>
												<g>
													<path style="fill:#EB996E;" d="M412.21,166.7c0.03-0.02,0.11,0.07,0.29,0.15c0.18,0.08,0.49,0.13,0.8,0
														c0.65-0.25,1.17-1.3,1.18-2.42c0-0.56-0.13-1.1-0.34-1.53c-0.2-0.45-0.5-0.76-0.83-0.81
														c-0.33-0.07-0.56,0.13-0.63,0.31c-0.08,0.18-0.04,0.3-0.07,0.31c-0.02,0.02-0.13-0.1-0.09-0.36
														c0.02-0.12,0.09-0.27,0.23-0.39c0.15-0.12,0.36-0.19,0.59-0.17c0.48,0.02,0.92,0.45,1.15,0.93
														c0.26,0.48,0.42,1.08,0.41,1.71c-0.01,1.25-0.62,2.43-1.51,2.7c-0.43,0.12-0.8,0-0.99-0.14
														C412.22,166.85,412.19,166.71,412.21,166.7z"/>
												</g>
											</g>
										</g>
									</g>
								</g>
							</g>
						</g>
					</g>
					<g>
						<g>
							<g>
								<path style="fill:#FF725E;" d="M420.41,154.08c0.04,0.01,0.22-0.69,0.27-1.85c0.05-1.15-0.09-2.77-0.61-4.47
									c-0.53-1.69-1.34-3.1-2.04-4.02c-0.7-0.93-1.24-1.4-1.27-1.36c-0.12,0.08,1.91,2.17,2.93,5.51
									C420.75,151.21,420.28,154.08,420.41,154.08z"/>
							</g>
						</g>
					</g>
				</g>
			</g>
			<g>
				<g>
					<g>
						<g>
							<g>
								<g>
									<g>
										<g>
											<g>
												<g>
													<g>
														<g>
															<g>
																<g>
																	<g>
																		<g>
																			<g>
																				<g>
																					<g>
																						<g>
																							<g>
																								<g>
																									<g>
																										<g>
																											<g>
																												<g>
																													<path style="fill:#263238;" d="M385.02,155.06c0.13,0.16,1.02-0.43,2.21-0.34
																														c1.2,0.07,2.02,0.79,2.16,0.64c0.07-0.06-0.05-0.35-0.41-0.67c-0.35-0.32-0.97-0.65-1.72-0.7
																														c-0.74-0.05-1.39,0.19-1.78,0.46C385.1,154.72,384.96,154.98,385.02,155.06z"/>
																												</g>
																											</g>
																										</g>
																									</g>
																								</g>
																							</g>
																						</g>
																					</g>
																				</g>
																			</g>
																		</g>
																	</g>
																</g>
																<g>
																	<g>
																		<g>
																			<g>
																				<g>
																					<g>
																						<g>
																							<g>
																								<g>
																									<g>
																										<g>
																											<g>
																												<g>
																													<path style="fill:#263238;" d="M396.85,155.65c0.15,0.15,1.02-0.53,2.28-0.55
																														c1.26-0.04,2.2,0.58,2.33,0.43c0.07-0.07-0.09-0.34-0.5-0.63c-0.4-0.28-1.08-0.55-1.87-0.53
																														c-0.78,0.02-1.44,0.33-1.81,0.63C396.9,155.3,396.77,155.58,396.85,155.65z"/>
																												</g>
																											</g>
																										</g>
																									</g>
																								</g>
																							</g>
																						</g>
																					</g>
																				</g>
																			</g>
																		</g>
																	</g>
																</g>
																<g>
																	<g>
																		<g>
																			<g>
																				<g>
																					<g>
																						<g>
																							<g>
																								<g>
																									<g>
																										<g>
																											<g>
																												<path style="fill:#263238;" d="M392.86,164.23c0-0.07-0.79-0.17-2.06-0.28
																													c-0.32-0.02-0.63-0.07-0.69-0.29c-0.09-0.23,0.03-0.58,0.17-0.96c0.27-0.79,0.55-1.62,0.84-2.49
																													c1.16-3.54,1.99-6.45,1.85-6.5c-0.14-0.05-1.2,2.79-2.37,6.33c-0.28,0.87-0.55,1.71-0.8,2.5
																													c-0.11,0.37-0.3,0.79-0.11,1.27c0.1,0.24,0.34,0.4,0.55,0.45c0.21,0.05,0.39,0.05,0.55,0.05
																													C392.06,164.33,392.85,164.3,392.86,164.23z"/>
																											</g>
																										</g>
																									</g>
																								</g>
																							</g>
																						</g>
																					</g>
																				</g>
																			</g>
																		</g>
																	</g>
																</g>
															</g>
														</g>
													</g>
												</g>
											</g>
										</g>
									</g>
								</g>
								<g>
									<g>
										<g>
											<g>
												<g>
													<g>
														<g>
															<path style="fill:#EB996E;" d="M392.45,168.17c0.24,0.53,0.48,1.06,0.86,1.5c0.38,0.44,0.91,0.77,1.49,0.77
																c0.62,0,1.19-0.39,1.51-0.92c0.32-0.53,0.41-1.17,0.35-1.78c-0.05-0.55-0.34-1.2-0.89-1.24
																c-0.23-0.02-0.45,0.08-0.66,0.18c-0.95,0.44-1.9,0.87-2.85,1.31"/>
														</g>
													</g>
												</g>
											</g>
										</g>
									</g>
									<g>
										<g>
											<g>
												<g>
													<g>
														<g>
															<g>
																<path style="fill:#263238;" d="M393.72,170.5c0.01-0.09,0.66,0.14,1.54-0.26c0.43-0.19,0.88-0.56,1.12-1.12
																	c0.24-0.55,0.25-1.28-0.05-1.9c-0.07-0.16-0.17-0.3-0.27-0.42c-0.12-0.12-0.1-0.11-0.22-0.09
																	c-0.12,0.04-0.3,0.14-0.46,0.2c-0.16,0.07-0.31,0.15-0.47,0.22c-0.61,0.28-1.16,0.53-1.63,0.73
																	c-0.93,0.4-1.53,0.61-1.56,0.55c-0.03-0.06,0.51-0.4,1.4-0.88c0.45-0.24,0.98-0.52,1.58-0.83
																	c0.15-0.08,0.3-0.15,0.46-0.23c0.17-0.08,0.29-0.16,0.52-0.24c0.11-0.04,0.27-0.06,0.43-0.01
																	c0.16,0.05,0.26,0.15,0.33,0.24c0.14,0.17,0.26,0.34,0.35,0.53c0.38,0.78,0.34,1.66,0.02,2.32
																	c-0.32,0.68-0.91,1.08-1.42,1.26c-0.51,0.19-0.97,0.17-1.25,0.11C393.85,170.62,393.71,170.53,393.72,170.5z"/>
															</g>
														</g>
													</g>
												</g>
											</g>
										</g>
									</g>
								</g>
							</g>
						</g>
					</g>
				</g>
			</g>
			<path style="fill:#263238;" d="M385.42,159.02c0.31,0.54,1.01,0.73,1.55,0.42c0.54-0.31,0.73-1.01,0.42-1.55
				c-0.31-0.54-1.01-0.73-1.55-0.42C385.29,157.78,385.11,158.48,385.42,159.02z"/>
			<path style="fill:#263238;" d="M396.9,159.47c0.31,0.54,1.01,0.73,1.55,0.42c0.54-0.31,0.73-1.01,0.42-1.55
				c-0.31-0.54-1.01-0.73-1.55-0.42C396.77,158.23,396.59,158.93,396.9,159.47z"/>
			<g>
				<path style="fill:#455A64;" d="M415.98,166.95c0.01,0,0.07-0.08,0.19-0.23c0.12-0.16,0.3-0.38,0.51-0.7
					c0.43-0.61,1.01-1.53,1.63-2.71c0.62-1.19,1.25-2.66,1.72-4.37c0.47-1.71,0.76-3.66,0.67-5.71c-0.11-2.05-0.57-3.97-1.2-5.63
					c-0.62-1.66-1.38-3.08-2.09-4.21c-0.72-1.13-1.37-1.99-1.85-2.57c-0.23-0.29-0.44-0.5-0.57-0.65c-0.13-0.15-0.2-0.22-0.21-0.21
					c-0.01,0,0.06,0.09,0.18,0.24c0.12,0.16,0.31,0.37,0.53,0.67c0.46,0.59,1.1,1.46,1.79,2.59c0.69,1.13,1.43,2.55,2.03,4.2
					c0.61,1.65,1.06,3.54,1.17,5.57c0.09,2.02-0.19,3.95-0.65,5.65c-0.46,1.7-1.07,3.17-1.67,4.35c-0.6,1.19-1.16,2.11-1.56,2.74
					c-0.2,0.32-0.37,0.55-0.47,0.72C416.03,166.86,415.97,166.95,415.98,166.95z"/>
			</g>
			<g>
				<path style="fill:#455A64;" d="M419.07,144.74c0,0.04,0.57-0.15,1.56,0.1c0.49,0.13,1.06,0.39,1.65,0.79
					c0.59,0.41,1.2,0.96,1.79,1.65c1.18,1.38,2.41,3.17,3.63,5.24c1.23,2.07,2.46,4.42,3.9,6.8c1.44,2.39,2.99,4.57,4.7,6.29
					c1.69,1.74,3.54,2.96,5.21,3.72c1.67,0.77,3.15,1.05,4.16,1.14c1.02,0.09,1.59,0.02,1.59,0.02c0,0-0.04-0.01-0.1-0.01
					c-0.08,0-0.18-0.01-0.3-0.01c-0.27,0-0.66-0.03-1.17-0.08c-1.01-0.12-2.46-0.42-4.11-1.2c-1.64-0.77-3.46-1.99-5.13-3.72
					c-1.69-1.71-3.22-3.88-4.66-6.26c-1.43-2.38-2.67-4.73-3.91-6.79c-1.24-2.07-2.49-3.86-3.69-5.24
					c-0.61-0.68-1.23-1.24-1.84-1.65c-0.61-0.41-1.19-0.66-1.7-0.78c-0.5-0.12-0.91-0.1-1.18-0.09c-0.13,0.02-0.24,0.04-0.3,0.05
					C419.1,144.73,419.07,144.74,419.07,144.74z"/>
			</g>
			<g>
				<path style="fill:#455A64;" d="M421.22,156.55c0,0,0,0.04,0.02,0.1c0.02,0.08,0.05,0.17,0.09,0.29c0.09,0.27,0.21,0.63,0.36,1.1
					c0.32,0.95,0.8,2.32,1.43,4c0.63,1.68,1.43,3.66,2.44,5.81c1.01,2.15,2.27,4.45,3.83,6.7c1.57,2.25,3.33,4.21,5.11,5.79
					c1.78,1.57,3.57,2.78,5.17,3.6c1.6,0.83,2.97,1.33,3.94,1.59c0.48,0.15,0.87,0.22,1.12,0.28c0.12,0.03,0.22,0.05,0.29,0.06
					c0.07,0.01,0.1,0.02,0.1,0.01c0,0-0.03-0.02-0.1-0.04c-0.08-0.02-0.17-0.05-0.29-0.08c-0.25-0.08-0.63-0.15-1.11-0.32
					c-0.96-0.29-2.32-0.81-3.89-1.65c-1.58-0.83-3.35-2.04-5.11-3.61c-1.76-1.57-3.5-3.53-5.06-5.76c-1.55-2.25-2.8-4.53-3.82-6.67
					c-1.02-2.13-1.83-4.11-2.48-5.78c-0.65-1.67-1.15-3.03-1.49-3.97c-0.17-0.46-0.3-0.82-0.4-1.08c-0.04-0.11-0.08-0.21-0.11-0.28
					C421.23,156.58,421.22,156.55,421.22,156.55z"/>
			</g>
		</g>
		<path style="fill:#FFBE9D;" d="M293.57,206.6l-6.23,5.05c0,0,0.26,2.44,1.89,1.35c1.63-1.09,5.23-2.95,6.68-3.06
			c1.45-0.11,4.01,1.22,5.9,0c1.89-1.22,1.57-2.13,3.28-2.88c1.71-0.75,2.18-0.46,2.18-0.46l0.33-6.62l-14.68-2.28l-5.29-0.33
			c-1.14-0.07-2.21,0.66-2.5,1.77l0,0c0,0,2.85-1.14,4.67,0.26c1.82,1.4,4.68,4.53,4.23,5.86
			C293.57,206.6,293.57,206.6,293.57,206.6z"/>
		<g>
			<path style="fill:#FFBE9D;" d="M368.21,222.8c-0.51,0-32.02,0-32.02,0l-6.89-2.65l-2.31,0.78l5.23,3.24l-2.01,4.21l-3.79,1.69
				c0,0-0.77,1.24,1.15,1.45c1.93,0.2,5.98-0.91,5.98-0.91l8.09-1.77l25.35,6.24L368.21,222.8z"/>
			<path style="fill:#FF725E;" d="M371.75,203c-0.17,0.87-9.84,46.32-7.23,48.1c2.61,1.78,9.64-1.98,18.28,1.78
				c8.64,3.76,27.34,9.08,29.75,6.71c1.99-1.96,6.72-32.37,8.32-42.98c0.36-2.36,0.59-4.74,0.71-7.12l0.48-9.99
				c0.32-4.4-1.7-7.71-2.92-9.26c-3.78-4.81-12.7-7.96-17.84-9.06C394.88,179.8,377.38,174.23,371.75,203z"/>
			<g style="opacity:0.3;">
				<path d="M388.32,211.97c-2.43,0.83-4.65,0.9-7.03-0.06c-3.85-1.54-6.03-5.75-5.5-9.86l-4.09,0.46
					c0.52,5.49,4.46,11.01,9.86,12.14c5.4,1.13,11.07-2.31,13.74-7.14C393.4,209.17,390.75,211.14,388.32,211.97z"/>
			</g>
			<path style="fill:#FFBE9D;" d="M375.83,199.79c-0.27,3.2,0.35,8.9,2.73,10.6c2.38,1.71,5.52,2.08,8.4,1.59
				c7.39-1.27,13.3-8.43,13.15-15.92c-0.15-7.5-6.36-14.41-13.79-15.37c0,0-7.31,4.49-9.91,10.71
				C373.81,197.62,375.83,199.79,375.83,199.79z"/>
			<path style="fill:#FFFFFF;" d="M368.68,222.02c0,0,5.98-3.01,18.89-1.4l-1.05,6.55c0,0-14.06-1.39-19.16,2.17L368.68,222.02z"/>
			<path style="fill:#FFFFFF;" d="M391.51,220.96l-0.81,6.89c0,0,14.88,3.59,19.51,6.13l1.3-6.85
				C411.51,227.13,398.36,220.57,391.51,220.96z"/>
			<path style="fill:#FFFFFF;" d="M366.69,233.43c0,0,5.98-3.01,18.89-1.4l-0.79,6.81c0,0-13.96-1.23-19.42,1.91L366.69,233.43z"/>
			<path style="fill:#FFFFFF;" d="M389.68,233.06l-0.98,6.2c0,0,14.88,3.59,19.51,6.13l1.3-6.85
				C409.52,238.54,396.53,232.67,389.68,233.06z"/>
			<g>
				<path style="fill:#263238;" d="M384.77,253.79c-0.04-0.01,0.03-0.62,0.19-1.71c0.17-1.18,0.4-2.75,0.68-4.65
					c0.57-4.01,1.35-9.39,2.2-15.33c0.86-5.99,1.69-11.41,2.37-15.31c0.34-1.95,0.65-3.53,0.88-4.62c0.24-1.08,0.39-1.68,0.43-1.67
					c0.04,0.01-0.05,0.62-0.23,1.71c-0.18,1.18-0.43,2.74-0.72,4.64c-0.58,4-1.36,9.38-2.22,15.33c-0.86,5.99-1.68,11.4-2.35,15.31
					c-0.33,1.96-0.62,3.53-0.84,4.62C384.94,253.2,384.8,253.8,384.77,253.79z"/>
			</g>
			<path style="fill:#FFBE9D;" d="M307.59,199.99c0,0,36.8-5.21,37.39-5.05c0.59,0.16,27.21-8.45,31.12-10.61
				c3.91-2.15,10.05-6.07,14.52-1.57c4.47,4.5,3.88,12.33,1.14,15.07c-2.74,2.74-18.4,4.31-18.4,4.31s-17.81,3.91-23.69,4.31
				c-5.87,0.39-42.42,0.16-42.42,0.16L307.59,199.99z"/>
			<g>
				<path style="fill:#EB996E;" d="M387.62,200.51c0.02,0.14-4.37,0.83-9.81,1.54c-5.44,0.71-9.86,1.17-9.88,1.02
					c-0.02-0.14,4.37-0.83,9.81-1.54C383.18,200.83,387.6,200.37,387.62,200.51z"/>
			</g>
			<g>
				<path style="fill:#EB996E;" d="M397.35,192.93c-0.08-0.01-0.02-0.8-0.18-2.04c-0.15-1.23-0.6-2.93-1.61-4.54
					c-1.01-1.6-2.36-2.74-3.4-3.41c-1.05-0.68-1.79-0.95-1.76-1.03c0.02-0.06,0.81,0.1,1.95,0.72c1.13,0.61,2.59,1.75,3.66,3.45
					c1.07,1.69,1.48,3.5,1.54,4.78C397.61,192.15,397.41,192.94,397.35,192.93z"/>
			</g>
			<path style="fill:#455A64;" d="M377.78,201.8c0,0,1.62,6.71,6.8,8.06c5.18,1.34,8.51-0.46,8.51-0.46s-7.83,5.79-13.53,2.18
				c-5.34-3.39-3.77-9.52-3.77-9.52L377.78,201.8z"/>
			<g>
				<path style="fill:#263238;" d="M411.72,247.53c-0.14-0.03,0.6-4.72,1.65-10.49c1.05-5.77,2.02-10.42,2.17-10.39
					c0.14,0.03-0.6,4.72-1.65,10.49C412.84,242.9,411.87,247.55,411.72,247.53z"/>
			</g>
			<g>
				<path style="fill:#263238;" d="M381.65,216.53c-0.13,0.06-0.51-1.09,0.03-2.4c0.53-1.31,1.61-1.86,1.66-1.73
					c0.09,0.12-0.72,0.78-1.18,1.93C381.68,215.46,381.8,216.5,381.65,216.53z"/>
			</g>
			<g>
				<path style="fill:#263238;" d="M384.77,216.38c-0.1,0.1-0.74-0.62-0.73-1.74c0-1.12,0.65-1.83,0.75-1.73
					c0.13,0.08-0.24,0.79-0.23,1.73C384.54,215.58,384.9,216.3,384.77,216.38z"/>
			</g>
			<g>
				<path style="fill:#263238;" d="M404.91,195c-0.07,0.14-1.13-0.35-2.5-0.17c-1.37,0.14-2.29,0.86-2.39,0.74
					c-0.12-0.08,0.77-1.09,2.33-1.26C403.91,194.12,405.01,194.9,404.91,195z"/>
			</g>
			<g>
				<path style="fill:#263238;" d="M402.88,191.67c-0.03,0.15-0.92,0.05-1.87,0.49c-0.96,0.41-1.48,1.14-1.61,1.06
					c-0.14-0.04,0.26-1.04,1.4-1.54C401.93,191.17,402.94,191.54,402.88,191.67z"/>
			</g>
			<path style="opacity:0.3;" d="M412.77,259.28c-1.37,3.09-21.4-2.57-30.04-6.33c-8.64-3.76-15.67,0-18.28-1.78
				c0,0-1.33-1.99,0.98-2.75c2.3-0.77,14.13-0.55,18.13,2.1c3.99,2.66,13.52,5.27,17.82,6.04
				C405.68,257.32,414.05,256.39,412.77,259.28z"/>
			<g>
				<path style="fill:#263238;" d="M404.85,255.3c0.14,0.01,0,1.21-0.91,2.31c-0.9,1.11-2.05,1.48-2.09,1.35
					c-0.07-0.14,0.87-0.67,1.69-1.68C404.36,256.29,404.7,255.26,404.85,255.3z"/>
			</g>
			<g>
				<path style="fill:#263238;" d="M369.03,251.54c-0.06,0.12-1.09-0.5-1.55-1.83c-0.47-1.33-0.05-2.46,0.07-2.4
					c0.15,0.03,0,1.06,0.42,2.22C368.37,250.71,369.13,251.43,369.03,251.54z"/>
			</g>
			<polygon style="fill:#FFFFFF;" points="418.63,230.94 416.62,230.05 415.54,235.78 417.64,236.86 			"/>
			<polygon style="fill:#FFFFFF;" points="416.77,241.81 414.76,240.92 413.68,246.65 415.78,247.73 			"/>
			<g>
				<path style="fill:#263238;" d="M421.1,208.79c-0.03,0.07-1.21-0.46-3.11-1.29c-1.9-0.83-4.54-1.95-7.51-3.06
					c-2.97-1.11-5.69-2-7.67-2.62c-1.98-0.62-3.21-0.99-3.19-1.06c0.01-0.03,0.33,0.01,0.9,0.13c0.57,0.12,1.39,0.31,2.4,0.58
					c2.01,0.53,4.77,1.37,7.75,2.49c2.98,1.12,5.61,2.29,7.48,3.21c0.93,0.46,1.68,0.85,2.19,1.14
					C420.84,208.59,421.12,208.76,421.1,208.79z"/>
			</g>
		</g>
	</g>
</g>
<g id="Sea">
	<g>
		<g>
			<path style="fill:#E0E0E0;" d="M642.76,385.91l-30.57,3.17c-81.72,2.04-226.67-11.52-303.53-39.36
				c-47.67-17.26-93.16-39.96-139.93-59.51s-100-42.04-149.28-21.67c0,0,0.68,12.49,15.29,10.02c14.61-2.47,37.33-11.8,49.23-8.49
				c11.9,3.31,25.97,16.35,41.11,17.41c15.15,1.05,24.89,5.04,24.89,5.04s14.61,16.05,29.21,17.93c14.61,1.88,24.34,2.96,24.34,2.96
				s2.74,1.62,21.11,16.23c18.38,14.61,39.48,12.44,51.38,15.15c11.9,2.7,30.93,5.26,39.81,11.29c8.88,6.03,61.8,28.75,80.78,29.29
				c18.98,0.54,46.5-7.33,61.14,3.91c14.64,11.24,46.17,23.68,64.21,20.43c18.05-3.25,34.42-17.85,44.09-13.52
				c9.67,4.33,33.08,13.52,40.85,7.57C614.67,397.81,646.32,394.56,642.76,385.91z M33.83,273.47c-1.15,0-2.08-0.93-2.08-2.08
				c0-1.15,0.93-2.08,2.08-2.08c1.15,0,2.08,0.93,2.08,2.08C35.91,272.54,34.98,273.47,33.83,273.47z M41.93,271.11
				c-0.57,0-1.04-0.47-1.04-1.04c0-0.58,0.47-1.04,1.04-1.04c0.58,0,1.04,0.47,1.04,1.04C42.97,270.65,42.5,271.11,41.93,271.11z
				 M171.84,302.63c-1.15,0-2.08-0.93-2.08-2.08c0-1.15,0.93-2.08,2.08-2.08c1.15,0,2.08,0.93,2.08,2.08
				C173.92,301.7,172.99,302.63,171.84,302.63z M178.53,304.72c-0.57,0-1.04-0.47-1.04-1.04s0.47-1.04,1.04-1.04
				c0.58,0,1.04,0.47,1.04,1.04S179.11,304.72,178.53,304.72z M241.87,336.06c-1.15,0-2.08-0.93-2.08-2.08
				c0-1.15,0.93-2.08,2.08-2.08c1.15,0,2.08,0.93,2.08,2.08C243.95,335.12,243.02,336.06,241.87,336.06z M249.82,332.61
				c-0.57,0-1.04-0.47-1.04-1.04c0-0.58,0.47-1.04,1.04-1.04c0.58,0,1.04,0.47,1.04,1.04C250.86,332.14,250.4,332.61,249.82,332.61z
				 M254.48,339.25c-1.46,0-2.64-1.18-2.64-2.64c0-1.46,1.18-2.64,2.64-2.64c1.46,0,2.64,1.18,2.64,2.64
				C257.12,338.07,255.94,339.25,254.48,339.25z M389.74,381.98c-3.12,0-5.64-1.62-5.64-3.63c0-2,2.53-3.63,5.64-3.63
				c3.12,0,5.64,1.62,5.64,3.63C395.38,380.36,392.85,381.98,389.74,381.98z M400.92,378.91c-0.31,0.6-1.04,0.83-1.64,0.52
				c-0.6-0.31-0.83-1.04-0.52-1.64c0.31-0.6,1.04-0.83,1.64-0.52C400.99,377.58,401.23,378.31,400.92,378.91z M493.72,399.64
				c-0.31,0.6-1.04,0.83-1.64,0.52c-0.6-0.31-0.83-1.04-0.52-1.64c0.31-0.6,1.04-0.83,1.64-0.52
				C493.79,398.31,494.02,399.04,493.72,399.64z M505.77,405.57c-3.12,0-5.64-1.62-5.64-3.63c0-2,2.53-3.63,5.64-3.63
				c3.12,0,5.64,1.62,5.64,3.63C511.41,403.94,508.89,405.57,505.77,405.57z M516.76,407.6c-0.31,0.6-1.04,0.83-1.64,0.52
				c-0.6-0.31-0.83-1.04-0.52-1.64c0.31-0.6,1.04-0.83,1.64-0.52C516.84,406.27,517.07,407.01,516.76,407.6z M522,401.16
				c-1.15,0-2.08-0.93-2.08-2.08c0-1.15,0.93-2.08,2.08-2.08s2.08,0.93,2.08,2.08C524.08,400.23,523.15,401.16,522,401.16z
				 M592.69,399.64c-0.31,0.6-1.04,0.83-1.64,0.52c-0.6-0.31-0.83-1.04-0.52-1.64c0.31-0.6,1.04-0.83,1.64-0.52
				C592.76,398.31,593,399.04,592.69,399.64z M598.56,402.78c-1.15,0-2.08-0.93-2.08-2.08c0-1.15,0.93-2.08,2.08-2.08
				c1.15,0,2.08,0.93,2.08,2.08C600.64,401.85,599.71,402.78,598.56,402.78z"/>
		</g>
		<g>
			<path style="fill:#263238;" d="M703.85,380.12c0,0-0.54,0.03-1.59,0.05c-0.53,0.01-1.19,0.03-1.97,0.05
				c-0.78,0.05-1.69,0.1-2.72,0.16c-4.13,0.24-10.22,0.74-18.1,1.49c-15.75,1.5-38.65,3.98-67.25,7.37l-0.01,0l-0.01,0
				c-15.93,0.35-33.73,0.18-53.07-0.51c-19.34-0.75-40.21-2.08-62.3-3.98c-5.52-0.51-11.12-1.04-16.79-1.56
				c-5.66-0.62-11.4-1.24-17.2-1.87c-1.45-0.16-2.91-0.32-4.37-0.48c-1.46-0.18-2.92-0.37-4.38-0.55c-2.93-0.37-5.88-0.74-8.84-1.12
				c-2.96-0.38-5.94-0.73-8.93-1.15c-2.99-0.43-5.99-0.87-9.01-1.3c-24.13-3.52-49.13-7.85-74.43-13.88
				c-2.96-0.73-5.92-1.46-8.86-2.18c-1.47-0.37-2.95-0.7-4.4-1.11c-1.45-0.41-2.91-0.83-4.35-1.24c-5.79-1.68-11.59-3.18-17.19-5.17
				c-2.82-0.94-5.63-1.87-8.43-2.81c-2.79-0.95-5.53-2.02-8.28-3.02c-5.48-2.06-10.89-4.15-16.23-6.3
				c-21.36-8.56-41.64-17.59-60.93-26.22c-19.29-8.64-37.62-16.85-54.95-24.12c-17.33-7.28-33.52-13.97-48.7-18.97
				c-15.15-5.06-29.28-8.4-41.87-9.94c-12.59-1.58-23.6-1.34-32.45-0.18c-8.86,1.15-15.58,3.04-20.03,4.53
				c-2.25,0.69-3.91,1.39-5.04,1.8c-1.13,0.43-1.71,0.63-1.71,0.63s0.57-0.24,1.69-0.68c1.13-0.43,2.78-1.14,5.02-1.85
				c4.45-1.52,11.16-3.45,20.04-4.63c8.86-1.19,19.89-1.46,32.52,0.09c12.62,1.52,26.78,4.84,41.95,9.88
				c15.21,4.98,31.42,11.66,48.75,18.92c17.35,7.25,35.69,15.45,54.98,24.08c19.3,8.62,39.57,17.64,60.93,26.18
				c5.33,2.14,10.75,4.23,16.22,6.29c2.75,1,5.48,2.07,8.27,3.02c2.79,0.93,5.6,1.86,8.42,2.8c5.6,1.99,11.39,3.49,17.17,5.16
				c1.45,0.41,2.9,0.82,4.35,1.24c1.45,0.41,2.93,0.74,4.4,1.11c2.94,0.72,5.89,1.45,8.85,2.18c25.28,6.03,50.26,10.37,74.38,13.89
				c3.02,0.44,6.02,0.87,9,1.31c2.99,0.43,5.97,0.77,8.93,1.16c2.96,0.38,5.91,0.75,8.84,1.12c1.46,0.19,2.92,0.37,4.38,0.56
				c1.46,0.16,2.91,0.32,4.36,0.48c5.8,0.64,11.54,1.26,17.19,1.88c5.67,0.53,11.26,1.06,16.78,1.57
				c22.08,1.92,42.95,3.27,62.28,4.04c19.33,0.71,37.12,0.9,53.04,0.58l-0.02,0c28.61-3.35,51.51-5.78,67.27-7.22
				c7.88-0.73,13.98-1.19,18.11-1.4c1.03-0.05,1.94-0.1,2.72-0.14c0.78-0.01,1.44-0.02,1.97-0.03
				C703.31,380.11,703.85,380.12,703.85,380.12z"/>
		</g>
		<g>
			<path style="fill:#263238;" d="M283.65,390.33c0,0-0.17,0.02-0.49,0.03c-0.35,0.01-0.83,0.02-1.45,0.03
				c-0.64,0.01-1.43,0.02-2.36,0.04c-0.47,0.01-0.97,0.01-1.5,0.02c-0.54-0.01-1.11-0.04-1.71-0.07c-1.21-0.05-2.56-0.12-4.02-0.18
				c-1.47-0.11-3.06-0.29-4.77-0.46c-3.42-0.39-7.29-0.98-11.53-1.88c-8.49-1.72-18.37-4.8-29.02-8.98
				c-10.65-4.19-22.05-9.53-33.94-15.23c-11.9-5.69-23.27-11.07-33.88-15.32c-10.6-4.25-20.42-7.41-28.86-9.25
				c-8.43-1.87-15.4-2.68-20.22-2.89c-0.6-0.04-1.17-0.09-1.71-0.11c-0.53-0.01-1.03-0.02-1.5-0.02c-0.92-0.02-1.71-0.03-2.35-0.04
				c-0.62-0.02-1.1-0.03-1.45-0.04c-0.33-0.01-0.49-0.03-0.49-0.03s0.17-0.02,0.49-0.02c0.35,0,0.83-0.01,1.45-0.01
				c0.64,0,1.43,0,2.36-0.01c0.47,0,0.97,0,1.5,0c0.54,0.01,1.11,0.06,1.71,0.09c4.84,0.15,11.83,0.9,20.29,2.73
				c8.47,1.8,18.33,4.94,28.96,9.17c10.63,4.24,22.02,9.6,33.92,15.3c11.9,5.69,23.28,11.04,33.9,15.25
				c10.62,4.2,20.46,7.3,28.92,9.06c4.22,0.91,8.08,1.53,11.48,1.95c1.71,0.18,3.29,0.37,4.75,0.5c1.47,0.08,2.81,0.16,4.01,0.23
				c0.6,0.03,1.17,0.08,1.71,0.09c0.53,0,1.04,0,1.5,0c0.92,0.01,1.71,0.01,2.35,0.01c0.62,0.01,1.1,0.01,1.45,0.02
				C283.48,390.31,283.65,390.33,283.65,390.33z"/>
		</g>
		<g>
			<path style="fill:#263238;" d="M530.25,434.46c0.01,0.01-0.08,0.11-0.26,0.32c-0.2,0.22-0.46,0.53-0.8,0.91
				c-0.78,0.72-1.96,1.82-3.81,2.68c-1.83,0.89-4.26,1.61-7.15,1.79c-2.88,0.16-6.2-0.11-9.71-1.04c-3.54-0.87-7.17-2.55-11.02-4.33
				c-3.86-1.78-7.95-3.78-12.54-5.05c-2.29-0.63-4.7-1.04-7.18-1.06c-2.48-0.04-5.01,0.31-7.53,0.88
				c-5.05,1.13-10.08,3.15-15.47,4.44c-2.69,0.64-5.43,1.06-8.14,1.03c-2.71-0.01-5.37-0.38-7.91-0.98
				c-5.1-1.21-9.72-3.33-14.01-5.43c-4.29-2.12-8.27-4.32-12.1-6.14c-3.83-1.83-7.56-3.17-11.04-4.07c-3.49-0.9-6.74-1.32-9.6-1.31
				c-2.86,0-5.3,0.47-7.23,1.02c-0.95,0.32-1.81,0.58-2.5,0.93c-0.71,0.32-1.31,0.57-1.76,0.87c-0.44,0.26-0.79,0.46-1.05,0.6
				c-0.24,0.13-0.36,0.2-0.37,0.19c-0.01-0.01,0.11-0.09,0.34-0.24c0.25-0.16,0.59-0.38,1.02-0.65c0.44-0.31,1.04-0.58,1.75-0.92
				c0.69-0.37,1.55-0.65,2.51-0.99c1.94-0.59,4.4-1.09,7.29-1.12c2.89-0.04,6.17,0.36,9.69,1.24c3.52,0.89,7.28,2.22,11.13,4.04
				c3.86,1.81,7.85,3.99,12.13,6.1c4.28,2.08,8.87,4.17,13.91,5.36c2.51,0.59,5.13,0.95,7.8,0.96c2.67,0.03,5.36-0.39,8.02-1.02
				c5.34-1.27,10.37-3.29,15.48-4.43c2.55-0.57,5.12-0.92,7.65-0.88c2.53,0.03,4.98,0.46,7.3,1.1c4.64,1.3,8.75,3.33,12.59,5.12
				c3.85,1.79,7.44,3.48,10.93,4.36c3.47,0.95,6.75,1.23,9.6,1.11c2.85-0.15,5.26-0.83,7.08-1.68c1.84-0.82,3.03-1.89,3.82-2.57
				c0.35-0.37,0.63-0.66,0.84-0.87C530.14,434.55,530.25,434.45,530.25,434.46z"/>
		</g>
		<g>
			<path style="fill:#263238;" d="M610.05,431.77c-0.03,0.1-1.72-0.47-4.53-0.97c-1.41-0.26-3.1-0.44-4.98-0.53
				c-1.89-0.06-3.96-0.01-6.12,0.25c-2.16,0.27-4.19,0.72-6.01,1.23c-1.81,0.54-3.41,1.12-4.71,1.71c-2.61,1.16-4.12,2.11-4.17,2.03
				c-0.02-0.03,0.34-0.29,1.02-0.72c0.34-0.22,0.76-0.48,1.26-0.75c0.51-0.27,1.07-0.6,1.73-0.89c1.3-0.63,2.9-1.26,4.73-1.84
				c1.83-0.54,3.89-1.01,6.08-1.29c2.19-0.26,4.3-0.3,6.21-0.21c1.91,0.12,3.62,0.34,5.03,0.65c0.71,0.12,1.34,0.31,1.89,0.45
				c0.56,0.14,1.03,0.29,1.41,0.42C609.65,431.58,610.06,431.74,610.05,431.77z"/>
		</g>
	</g>
</g>
</svg>
